<?xml version="1.0" encoding="UTF-8"?>
<svg id="_Слой_1" data-name="Слой 1" xmlns="http://www.w3.org/2000/svg" viewBox="0 0 140 140">
  <defs>
    <style>
      .cls-1 {
        fill: #fff;
      }
    </style>
  </defs>
  <path class="cls-1" d="m138.17,63.82c-.08-.22-.29-.37-.53-.37h0l-1.48.02s-.03,0-.05,0c-.05,0-.21-.04-.31-.07l-.1-.03c-.54-.16-1.07-.37-1.59-.57.39-.62.96-1.56,1.02-1.77.07-.26-.06-.53-.3-.64-.24-.12-.53-.04-.69.18l-1.24,1.73c-.64-.27-1.27-.54-1.91-.83-.17-.07-.36-.06-.51.03l-.13.08c-.22.13-.46.28-.66.34-.54-.26-1.14-.07-1.57.08.1-.23.19-.48.26-.72.02,0,.03-.02.04-.02.16-.09.27-.29.29-.47.02-.16-.03-.31-.13-.42.03-.47-.1-1.55-.24-1.9-.1-.24-.35-.39-.61-.34-.26.04-.45.26-.46.52l-.04.81c0,.06,0,.13.02.19.04.12.04.26.02.43l-2.56-.27c.21-.22.31-.5.29-.8.4-.14.79-.27,1.18-.37l.21-.05c.33-.08.7-.18,1-.32,1.55-.7,2.32-2.25,2.69-3.43.21-.65.34-1.31.4-1.95.01-.15-.08-.3-.17-.42-.1-.11-.28-.19-.43-.2-.3-.03-.56.2-.59.5-.06.56-.18,1.13-.37,1.71-.23.74-.95,2.51-2.61,2.85-.6.15-1.21.33-1.81.54-.02-.03-.04-.05-.07-.07.07-.3.18-.54.33-.73.11-.13.23-.22.35-.25.28-.08.43-.46.36-.74-.03-.12-.09-.22-.18-.3.5-.02.85-.03.89-.04.3-.01.54-.26.53-.56s-.25-.54-.55-.55c-.71,0-1.42,0-2.22.01h-.65c-.24,0-.48,0-.72,0,.27-.38.54-.85.49-1.42,0-.01,0-.03,0-.04.04-.06.07-.14.09-.21.04-.15,0-.34-.07-.47-.15-.26-.48-.35-.75-.21-.14.07-.27.14-.39.18-.22.06-.43.05-.53-.02-.21-.15-.53-.36-.92-.55,1.45.03,2.99.19,4.46.65.29.09.62-.15.72-.43.1-.29-.05-.6-.33-.7-.98-.36-2.08-.61-3.45-.79-1.56-.19-3.2-.24-4.9-.16.29-.35.68-.92.78-1.51.15.13.34.25.61.31.21.04.4.02.55,0,.06,0,.13-.01.22-.01.19,0,.38,0,.58.03.31.02.58-.28.61-.58.04-.3-.18-.58-.48-.62-.24-.03-.47-.06-.7-.06-.07,0-.14,0-.21,0,.21-.19.38-.42.48-.72.09-.28-.05-.57-.32-.68-.27-.11-.58,0-.71.26,0,0-.06.12-.18.23-.06.06-.16.12-.25.18-.3-.34-.61-.67-1.02-.95-.24-.16-.49-.29-.71-.39l-.11-.56c-.06-.3-.34-.49-.63-.44-.28.05-.48.29-.47.57-.26-.07-.51-.13-.74-.19l-.12-.03c-.24-.05-.52-.12-.86-.12-.13,0-.34.02-.58.2-.07.05-.13.12-.18.2-.05,0-.1-.02-.16-.04.3-.22.58-.44.86-.68.18-.18.52-.53.49-1,.36-.41.88-.73,1.42-1.08,1.12-.68,2.36-1.25,3.68-1.72.92-.32,1.78-.54,2.61-.67.3-.05.49-.41.45-.71-.02-.15-.1-.28-.21-.37-.12-.09-.27-.13-.41-.11-2.26.32-4.56,1.11-6.82,2.37-.41.24-.74.44-1.04.66,0-.09.02-.17.02-.25v-.14c.02-.15-.04-.3-.14-.41-.1-.11-.25-.19-.4-.2-.31-.02-.56.19-.59.48l-.02.14c-.02.19-.04.37-.14.48-.01,0-.03.01-.04.02,0-.37.06-.65.17-.88.05-.08.09-.16.13-.28.04-.14.06-.3.05-.48.03,0,.06.03.1.07.63.53,1.34.6,1.82.14.3-.31.41-.69.5-1l.07-.22c.07-.24.15-.48.25-.7l.09-.2c.14-.27.03-.6-.24-.74-.27-.14-.6-.04-.75.23-.04.08-.08.15-.11.23h0s0,0,0,0c0,0,0,0,0,.01h0c-.16.32-.43.91-.57,1.27-.02.05-.04.09-.05.12,0,0,0,0-.01,0-.05-.03-.09-.07-.13-.1-.11-.09-.22-.18-.33-.23-.36-.23-.79-.21-1.14-.1-.02,0-.03-.01-.04-.02-.14-.06-.31-.04-.44.01-.16.07-.26.26-.29.47-.2.16-.39.33-.55.51-.09-.13-.2-.25-.35-.36,0-.46.09-.93.2-1.43.02-.09.04-.18.08-.26.05-.02.1-.04.15-.07.22-.1.43-.19.6-.2.24.06.49.08.77.06.46-.02.86-.08,1.28-.2.13-.04.3-.09.52-.26.07-.07.13-.14.19-.22.44-.15,1.16-.46,1.57-.97.07-.06.43-.06.62-.06.5,0,1.13,0,1.61-.43.22-.19.25-.51.07-.75-.17-.23-.5-.29-.74-.14,0,0-.12.07-.27.11-.15.03-.37.03-.54.03h-.14c-.42,0-.92,0-1.31.28.52-1.31,1.05-2.77,1.08-2.85.1-.28-.04-.6-.32-.71-.28-.11-.6.02-.72.3-.28.64-.54,1.29-.8,1.94l-.04.11c-.1.23-.2.48-.3.74-.24.6-.48,1.23-.75,1.69-.02.01-.1.03-.1.03-.47.11-.87.15-1.15.14.13-.09.26-.2.37-.36.39-.53.35-1.48.33-1.76-.01-.15-.12-.29-.24-.39-.12-.1-.3-.13-.46-.11-.3.04-.51.31-.48.61.02.17.03.31.02.42-.03.23-.12.41-.23.48-.32.19-.84.55-1.29,1.06.02-.04.04-.07.06-.11.14-.25.23-.29.25-.29.29-.07.45-.44.39-.73-.06-.3-.35-.49-.65-.44-.25.05-.49.17-.69.37-.41.39-.62.89-.81,1.38-.23.62-.38,1.25-.5,1.79-.09.39-.17.79-.25,1.18l-.16.76c-.03.12-.05.25-.09.37-.08.06-.15.13-.22.2-.07-.07-.16-.12-.26-.14-.14-.03-.3,0-.42.07-.3.19-.54.41-.77.62-.19.18-.38.35-.58.49-.26.18-.56.34-.96.51l-.13-2.44c.08,0,.15,0,.23,0h.18s.1.06.11.06c.16.08.35.17.61.2.54.04.95-.29,1.23-.54l.11-.09c.24-.19.25-.57.06-.81-.19-.23-.53-.28-.77-.1l-.11.08c-.15.12-.3.23-.45.23-.01,0-.03-.01-.04-.02.28-.25.51-.41.74-.49.1-.01.19-.04.3-.1.54-.3.84-.94.91-1.13.12-.28-.05-.62-.33-.74-.28-.12-.6.01-.72.29-.03.08-.09.16-.16.26-.05.06-.14.19-.21.24-.06,0-.12.02-.17.04-.08.03-.16.06-.24.09.04-.1.07-.21.09-.34.01-.07.03-.15.05-.24.12-.42.13-.78,0-1.08-.02-.06-.05-.12-.07-.17-.02-.04-.04-.07-.05-.11-.08-.29-.42-.45-.7-.38-.12.03-.22.09-.29.18-.21-.21-.44-.4-.65-.58l-.25-.21c-.41-.36-.68-.72-.83-1.09-.09-.23-.15-.49-.18-.77.19.03.39.04.56-.01.23-.07.39-.27.4-.51,0-.11-.02-.21-.08-.3,1.26,0,2.08.14,2.41.44.05.06.1.27.12.38l.02.09c.08.43.31.65.5.75.52.3,1.2.07,1.6-.07.29-.1.44-.42.34-.7l-.06-.17c-.09-.27-.38-.43-.67-.36l-.19.05c-.07.02-.18.05-.25.08l-.02-.1c-.08-.61-.53-1.16-1.11-1.39-1.16-.47-2.38-.5-3.56-.46.07-.05.13-.1.18-.14.21-.18.25-.49.1-.72s-.45-.32-.7-.2l-.51.24s-.07.04-.1.06c-.39.29-.86.53-1.3.74,0,0,.02-.02.02-.03l.11-.13c.09-.08.22-.16.36-.25l.18-.11c.14-.09.29-.17.44-.26.35-.21.71-.42,1.04-.67.32.14.65.28,1.03.4.12.04.28.09.47.09.02,0,.11,0,.12,0,.81-.07.87-.08,1.01-.18.2-.14.28-.39.21-.62-.07-.23-.28-.39-.52-.39h-.81s-.15-.05-.15-.05c-.18-.06-.36-.13-.54-.2.11-.17.23-.36.31-.5.82.47,1.72.45,2.74.25.55-.11,1.09-.25,1.63-.39.28-.07.56-.15.85-.22.85-.21,1.63-.37,2.4-.47.3-.04.5-.4.47-.7-.03-.3-.29-.52-.61-.49-.81.08-1.64.21-2.54.4-.35.07-.7.15-1.05.23-.86.2-1.68.39-2.47.34-.54-.05-.98-.34-1.36-.92-.34-.49-.82-.89-1.39-1.15-1.78-.84-4.67-.41-6.34.57-.06.05-.12.09-.2.16h0c-.09.09-.18.21-.25.33h0c-.19.34-.4.68-.61,1.03l-.17.28c-.47.75-.94,1.5-1.41,2.25-.23-.32-.41-.64-.5-1-.2-.74.03-1,.54-1.58.13-.15.27-.31.44-.53.44-.7.59-1.41.43-2.07-.16-.64-.59-1.18-1.26-1.57-.24-.14-.51-.28-.8-.41-.02-.13-.09-.25-.19-.33-.12-.1-.27-.15-.43-.13-.12.02-.25.04-.37.08-.01,0-.02,0-.04-.01.07-.21,0-.44-.16-.59-.18-.16-.44-.18-.65-.06l-.41.25c-.09-.03-.17-.06-.26-.08-.07-.05-.15-.08-.23-.1l-.45-.15c-.64-.23-1.31-.48-1.64-.97-.02-.05-.04-.1-.05-.12-.03-.07-.06-.13-.1-.21,0-.01,0-.02,0-.03-.01-.2-.12-.37-.29-.46-.25-.36-.55-.68-.86-1.01-.12-.12-.24-.23-.36-.34.36-.2.75-.42,1.16-.68.18-.12.39-.26.61-.53l.08-.12c.82-1.21.82-1.24.83-1.42.02-.24-.12-.47-.35-.56-.22-.09-.48-.03-.63.16l-.98,1.18s-.17.14-.25.19l-.09.06c-.46.29-.95.56-1.44.82l-.04-.03c-.36-1.11-.58-1.74-.67-1.87-.15-.22-.44-.31-.68-.2-.25.11-.38.38-.31.64l.31,1.27-.02.03c-.18.24-.13.58.1.76l.05.04c-.6.3-1.2.59-1.8.88-.16.08-.28.23-.31.41l-.02.15c-.04.25-.08.53-.17.72-.25.11-.44.29-.58.49-.06,0-.12.01-.18.02-.07-1.78-.23-3.57-.37-5.13-.01-.15-.13-.28-.24-.37-.11-.09-.3-.13-.45-.12-.3.03-.53.29-.5.59.11,1.48.18,2.86.22,4.18-.41-.33-1.1-.77-1.4-.87-.05-.02-.09-.02-.14-.03-.02-.04-.04-.07-.06-.1-.12-.17-.32-.25-.5-.24-.23-.2-.49-.32-.72-.42l-.22-.1c-.23-.1-.46-.21-.67-.34,0,0,0,0,0,0l-.18-.12c-.25-.17-.59-.11-.77.15-.12.17-.12.38-.03.56-.24-.07-.49-.13-.76-.15-.12-.42-.32-.87-.64-1.19-.05-.08,0-.43.02-.63.06-.5.14-1.12-.22-1.65-.16-.24-.48-.31-.73-.17-.25.14-.35.46-.23.72,0,0,.04.1.06.23-.21-.01-.41.11-.51.3,0,0-.06.12-.18.23-.11.1-.3.21-.45.3l-.12.07c-.12.07-.25.15-.37.24-.33-.17-.6-.32-.78-.41.09-.02.18-.05.27-.08.27-.12.4-.46.29-.74-.08-.23-.31-.37-.54-.36-.02-.28-.11-.54-.18-.76-.03-.11-.07-.22-.09-.31,0,0-.03-.12-.03-.12,0-.04-.02-.1-.03-.1.07-.1.13-.21.19-.33.06-.11.11-.21.16-.27l-.05-.04s.04-.03.06-.04c0,0,.06-.02.09-.03l.06.03c.1-.04.2-.08.29-.14.25-.16.31-.52.16-.78-.15-.26-.49-.35-.76-.2-.03.02-.07.03-.11.04-.06.02-.11.04-.16.06-.4.17-.63.52-.76.75-.05.09-.1.16-.14.22-.07.11-.13.21-.17.31-.03-.09-.07-.17-.11-.26-.02-.04-.05-.09-.08-.13-.02-.1,0-.25.02-.31.02-.1.04-.21.08-.31.11-.28-.06-.61-.34-.73-.28-.12-.6.01-.72.3-.08.19-.33.85-.15,1.47.03.1.08.18.13.24.1.22.16.49.17.84-.02.01-.03.02-.05.04,0,0-.02,0-.03,0-.06-.11-.09-.29-.11-.48l-.02-.14c-.04-.29-.35-.49-.64-.47-.15.01-.28.09-.38.2-.09.11-.14.26-.12.41v.14c.02.07.02.16.03.24-.19-.17-.37-.34-.56-.52-1.35-1.25-2.06-2.57-2.12-3.92,0-.15-.07-.29-.18-.39-.11-.1-.26-.15-.4-.14h-.18c-.3.03-.53.28-.52.58.09,2.65,1.86,4.3,3.58,5.89.07.07.15.14.22.21-.11.1-.18.23-.19.38v.14c-.02.05-.02.11-.03.16-.08-.03-.16-.06-.24-.09,0-.03,0-.06-.01-.08,0-.01-.22-1.24-.85-1.6-.21-.12-.47-.09-.65.07-.18.16-.23.42-.14.64v.03c-.66-.46-1.36-.88-2.06-1.27-.27-.15-.61-.05-.75.22l-.09.16c-.15.27-.06.6.21.75.71.41,1.42.86,2.09,1.35-.03,0-.06,0-.09,0-.28-.03-.53.16-.59.43-.06.27.08.54.34.64l.52.2s.07.02.11.03c.48.08.98.25,1.43.42-.01,0-.02,0-.03,0h-.15s-.07,0-.12,0c-.12-.02-.25-.05-.37-.08l-.17-.04c-.16-.04-.32-.08-.49-.13-.38-.1-.79-.22-1.21-.28-.12-.33-.26-.66-.44-1.03-.06-.11-.13-.25-.26-.39-.01-.01-.07-.07-.09-.08-.6-.52-.66-.57-.84-.6-.23-.04-.47.07-.59.28-.11.21-.08.47.08.65l.43.46-.52,1.08c-.09.09-.15.2-.16.33l-.17.35c-.32.65-.63,1.3-.98,2.05-.14.31-.28.61-.41.93-.05.12-.1.26-.14.4-.4-.16-.88-.3-1.38-.33h0s-.03,0-.04,0h0c-.06,0-.12,0-.17,0,.02-.06.03-.12.05-.17.09-.3.2-.75.19-1.18.01-1.23-.03-2.46-.08-3.65v-.38c-.03-.3-.27-.54-.57-.54h-.2c-.3.01-.54.26-.54.56v.34c0,.62.01,1.25.01,1.89-.27-.08-.61-.13-.94-.06-.08.02-.14.04-.21.08-.07-.02-.14-.02-.22,0-.1.02-.2.06-.27.13-.15.02-.3.03-.45.02,0-.02.02-.05.02-.08.12-.06.3-.06.49-.07h.14c.29-.03.52-.3.52-.6,0-.15-.06-.29-.17-.4-.11-.11-.25-.15-.4-.16h-.14c-.26,0-.59,0-.9.14.8-.81,1.75-1.45,2.74-2.12l.3-.21c.18-.12.36-.24.54-.35.86-.55,1.83-1.17,2.42-2.14.39-.6.87-1.19,1.56-1.93.21-.22.2-.57-.02-.78l-.13-.13c-.11-.1-.25-.16-.4-.16-.15,0-.29.06-.39.17-.55.57-1.01,1.1-1.46,1.71-.35.52-.69,1.01-1.17,1.34-.54.39-1.11.75-1.68,1.12-1.19.76-2.43,1.55-3.45,2.61l-.3.3c-.68.68-1.37,1.38-1.8,2.27-.25.47-.31.94-.29,1.39-.05-.08-.13-.14-.21-.18-.63-.29-1.25-.6-1.87-.91l.51-2.07c.06-.26-.07-.53-.31-.64-.25-.11-.53-.03-.69.19-.11.17-.45,1.19-.67,1.92-.34-.18-.69-.37-1.03-.58.18-1.55.35-3.2.51-5.04.03-.3-.29-.58-.59-.61-.29-.03-.57.19-.6.5-.16,1.47-.32,2.84-.49,4.16l-.58-.69c-.15-.19-.42-.25-.63-.16-.22.09-.36.32-.35.56.01.17.02.21.83,1.42l.12.17c.12.15.25.26.39.35v.08c-.03.19-.06.38-.09.56-.05.3-.11.66-.16.94-.08.4-.23.8-.4,1.19,0-.02-.02-.04-.02-.06-.07-.19-.16-.42-.3-.61-.3-.47-.78-.67-1.16-.82-.11-.04-.21-.09-.3-.13,0,0-.11-.05-.11-.06-.04-.02-.09-.05-.1-.04-.03-.12-.08-.23-.13-.35-.05-.11-.09-.21-.1-.3h-.06s0-.04,0-.06c0,0,.02-.06.03-.09l.06-.03c.03-.1.06-.2.07-.31.04-.3-.21-.59-.51-.63-.3-.04-.61.27-.66.56-.02.06-.04.12-.06.17-.13.42,0,.82.09,1.06.04.1.06.18.08.25.04.13.07.24.12.33-.02,0-.04-.01-.06-.02-.04-.22-.13-.46-.3-.68-.18-.23-.5-.28-.74-.12-.01,0-.02.01-.03.02-.15-.05-.32-.04-.47.03-.13.07-.23.18-.28.32-.05.14-.03.29.03.43.07.14.29.52.63.81v.08c-.01.13-.02.28-.02.42l-.21-.12c-.22-.12-.44-.25-.63-.4,0,0,0,0,0,0l-.17-.14c-.23-.19-.58-.16-.78.07-.13.15-.15.36-.09.54-.41-.18-.69-.31-.69-.31-.02-.01-.05-.02-.07-.03-.09-.39-.24-.81-.5-1.13-.04-.08.04-.43.08-.62.11-.49.25-1.1-.06-1.67-.14-.25-.44-.36-.71-.24-.26.12-.4.42-.3.69,0,0,.04.13.04.29,0,.15-.06.38-.1.54l-.03.13c-.05.23-.11.49-.12.75-.15-.08-.33-.1-.5-.02-.06.03-.11.06-.16.1-.94-.63-1.78-1.18-1.78-1.18-.25-.16-.59-.1-.76.15-.17.25-.11.59.13.76.57.42,1.15.82,1.81,1.28.13.1.28.2.42.3-.02.08-.03.15-.05.23-.08.36-.17.77-.07,1.17-.08-.02-.14-.03-.19-.03-.02,0-.03,0-.05,0-1.07-.73-2.17-1.44-2.24-1.49-.25-.16-.59-.1-.76.15-.17.25-.11.59.13.76.51.38,1.03.74,1.58,1.12-.15.04-.29.15-.36.3-.13.27-.02.6.25.73.65.33,1.3.64,2,.97.15.08.31.15.48.23-.02.31-.06.56-.11.75-.06-.14-.14-.3-.26-.44-.43-.49-1.37-.67-1.64-.71-.15-.02-.31.05-.43.15-.12.09-.2.27-.21.42-.03.3.19.56.48.6.16.02.3.04.42.08.21.08.38.21.42.33.27.81.71,1.56,1.21,2.05,0,.01.02.02.03.03h0s.01,0,.02.01c-.02,0-.04,0-.06,0-.2-.01-.4.1-.5.27,0-.01-.02-.03-.02-.04-.04-.07-.1-.18-.23-.3-.48-.4-.56-.41-.68-.43-.23-.03-.47.09-.57.31-.11.22-.06.47.11.64l.37.38s.02.05.04.07c-.14.04-.25.07-.3.11-.1.06-.18.14-.22.24-.25.06-.43.28-.43.54,0,.63,0,1.26,0,1.89-.14-.01-.29,0-.45.03-.06.01-.12.03-.17.05-.04.01-.07.03-.11.03-.05,0-.1.02-.15.05.1-.33.15-.66.09-.94-.05-.23-.25-.41-.48-.44-.25-.02-.47.1-.57.32l-.39.85c-.05.12-.07.18-.04.31-.03.18-.42.67-.61.91-.44.54-.78.97-.54,1.47.08.17.3.76.45,1.18-.04.01-.08.03-.11.04-.18-.47-.38-.92-.59-1.36l-.14-.3c-.02-.12-.05-.23-.08-.35l-.06-.21c-.07-.24-.13-.49-.16-.73l-.02-.22c-.03-.3-.3-.52-.6-.49-.06,0-.11.03-.16.05-.12-.19-.23-.37-.33-.5-.05-.06-.1-.11-.17-.15.18-.3.33-.65.37-1.01.03-.09.33-.28.5-.38.43-.27.95-.6,1.14-1.22.08-.28-.06-.57-.33-.67-.27-.11-.58.01-.7.27,0,0-.06.12-.18.23-.11.1-.3.22-.45.31l-.12.07c-.35.22-.78.49-.96.93-.25-1.38-.57-2.91-.59-2.99-.06-.29-.35-.49-.64-.43-.28.05-.48.31-.46.59-.05.08-.08.16-.09.26l-.14,1.53c0,.05-.06.21-.1.3l-.04.1c-.16.39-.35.77-.55,1.16-.07-.03-.15-.05-.22-.06-.14-.02-.27.02-.39.09-.51-.39-1.07-.8-1.22-.86-.25-.1-.54,0-.68.23-.14.23-.1.53.11.7l1.59,1.41c-.33.61-.67,1.21-1.02,1.81-.09.16-.1.35-.02.51l.05.11c.04.08.08.16.12.25-.01.01-.03.03-.04.05-.11.1-.3.22-.44.31l-.1.06c-.25-.19-.29-.21-.35-.23-.25-.1-.53,0-.68.22-.05.08-.07.16-.08.25-.23-1.19-.46-2.29-.46-2.29-.06-.29-.34-.49-.64-.43-.3.05-.5.33-.45.63.11.74.24,1.47.37,2.19.03.2.07.41.11.63-.25.01-.49.04-.64.08-.25.07-.42.31-.4.57.02.26.21.47.47.51l.79.12c.03.24.06.48.07.7-.01.02-.07.08-.07.08-.06.06-.12.11-.19.17-.06,0-.1.02-.14.03-.2.05-.34.21-.39.4-.07.05-.12.08-.17.12.06-.14.11-.3.12-.49.05-.65-.49-1.44-.65-1.67-.09-.12-.26-.18-.41-.2-.15-.02-.33.05-.45.14-.23.19-.27.53-.09.77.1.12.19.25.24.36.1.2.12.41.06.53-.2.39-.5,1.1-.58,1.9-.05.05-.09.1-.12.16-.12.23-.06.52.14.69,0,.03,0,.07.02.1-.02.07-.02.15-.01.23-.02.03-.06.05-.09.08-.05.04-.09.08-.13.11-.02.02-.03.03-.05.05-.22-.07-.49-.1-.76-.03-.06.02-.12.03-.18.05-.04.01-.07.03-.11.03-.07,0-.13.03-.19.07-.08-.05-.18-.09-.28-.09-.34,0-.57.21-.59.52-.01.2-.03.91.34,1.43.06.08.14.16.21.2.18.18.32.43.46.78-.02,0-.05,0-.08,0-.1-.08-.18-.24-.26-.42l-.06-.12c-.04-.09-.11-.16-.19-.21-.16-.1-.39-.1-.56-.03-.14.06-.24.17-.29.31-.05.14-.05.29.02.43l.06.13c.15.35.36.82.91,1.03.22.07.45.08.6.07h.16s.13.07.13.07c.11.05.22.1.32.16-.04.14-.03.3.04.43l.09.16-.1.22c-.03.06-.04.12-.05.18,0,0,0,0,0,0-.26.06-.44.3-.42.57,0,.18.11.34.26.44-.57-.22-1.16-.46-1.76-.75-.22-.11-.43-.21-.57-.34-.22-.19-.61-.11-.82.09-.08.08-.13.18-.15.29-.2.17-.25.46-.12.7l.07.12c.1.17.19.32.18.47,0,.01-.02.02-.02.04-.22-.3-.34-.56-.39-.8,0-.12-.03-.21-.06-.31-.23-.57-.83-.94-1.01-1.04-.13-.07-.29-.08-.43-.03-.14.04-.27.15-.34.28-.15.26-.06.59.2.75.09.05.17.12.24.18.06.05.16.16.21.24,0,.05,0,.11.02.17.02.08.04.17.06.25-.09-.05-.2-.09-.32-.14-.07-.02-.15-.05-.23-.08-.26-.11-.65-.25-1.07-.14-.06.01-.12.03-.18.05-.04.01-.07.03-.11.03-.29.04-.5.34-.47.64.03.31.31.53.6.5.11-.01.21-.04.31-.06l.18-.02c.08.02.18.06.29.11.12.05.23.1.31.11.02.02.04.09.11.23.02.05.04.1.07.16-.04.04-.07.08-.09.12-.11.21-.08.47.08.65l.56.59.07.14c.08.17.16.35.23.53-.35.07-.73.15-.83.2-.24.12-.36.4-.28.66.08.26.32.42.6.39l.93-.11c.06.17.12.35.18.52-.64-.12-1.25-.23-1.81-.48-.29-.12-.64.09-.76.36-.13.28,0,.61.27.73.58.27,1.17.41,1.76.53.01.15.08.29.21.39.1.08.22.12.34.12.16,0,.32-.07.43-.21.02-.02.04-.05.06-.08.04.01.09.02.13.03-.23.18-.63.66-.74.88-.02.04-.03.08-.04.12-.37.1-.76.27-1.05.52-.08.05-.44-.02-.62-.05-.49-.09-1.11-.21-1.66.12-.25.15-.34.46-.21.72.13.26.43.38.7.28,0,0,.13-.05.29-.05.15,0,.36.04.53.07l.14.03c.41.08.91.17,1.34-.04-.59.94-1.21,1.97-1.47,2.4-.07-.06-.13-.12-.2-.18l-1.35-1.24c-.22-.2-.63-.13-.84.09-.21.22-.2.57.02.78,1.38,1.32,2.77,2.64,4.17,3.96l.02.02-2.85,3.32c-.19.23-.11.62.1.82.05.05.11.09.18.12.22.08.46.03.61-.14.56-.61,1.31-1.44,2.13-2.34l.78-.86.4.38c.4.38.8.77,1.21,1.15l.51.47c.1.09.22.21.39.3.71.43,1.44-.05,1.71-.23.28-.18.5-.3.73-.36.42-.12.89.08,1.39.28l.12.05c.62.26,1.22.57,1.85.9.3.15.59.31.9.46l.11.05c.27.13.61.29,1,.33.75.21,1.5.44,2.25.66-.42.03-.81.1-1.14.16-.08.01-.15.04-.21.09-.87.6-1.74,1.13-2.58,1.58-.51.27-.93.46-1.33.61-.39.14-.85.3-1.25.27-.33,0-.57.29-.6.59-.01.15.03.3.13.41s.24.19.39.19c1.4.08,3.27-.98,4.5-1.7,0,0,.1-.06.1-.06.4-.24.8-.49,1.19-.75.44-.03.86-.03,1.24,0,.06,0,.11.01.16.02-.32.33-.63.68-.93,1.06l-.35.53c-.63.95-1.22,1.84-2.17,2.31-.73.39-1.69.5-2.85.33l-1.33-.11c-2.4-.07-4.91.43-7.28,1.45-.14.06-.23.21-.28.35-.05.14-.03.33.03.47.12.27.44.4.71.29.94-.38,1.97-.68,3.12-.89,1.42-.26,2.77-.33,4.03-.2.14.01.34.04.52.07l.25.04c2.2.41,4.01-.11,5.36-1.53.43-.43.77-.9,1.09-1.36.32-.46.63-.89,1.02-1.26l.58-.57c.45-.44.92-.9,1.37-1.38l.21.06c.68.18,1.36.36,2.1.53,1.03.23,2.1.46,3.22.47.39,0,1.56-.01,1.97-1.1v-.03c.7.27,1.41.55,2.16.77.16.04.39.08.55.04.27-.03.48-.15.63-.23.24-.15.48-.33.69-.49,1.16-.91,2.28-1.86,3.5-2.91.33-.06.65-.13.98-.23l.93,1.5c.1.16.26.25.45.26.24.01,2.47.01,4.91,0h1.36s.18-.02.26-.06l.17-.09s0,0,0,0l3.17-1.61c.58.24,1.17.48,1.75.73-.6-.03-1.22.04-1.85.17l-.24.05c-.15.03-.28.05-.46.07-1,.05-2.27.67-2.69,3.3-.12.71-.19,1.4-.26,2.07-.07.69-.13,1.34-.25,1.99-.02.09-.04.17-.06.25-.51.32-1.12.56-1.72.79l-.25.09c-1.54.57-3.11,1.03-4.5,1.4l-1.16-3.28c-.03-.09-.15-.23-.22-.29-.1-.09-.25-.21-.29-.24-2.47-1.84-4.6-2.25-6.19-1.18-1.48,1.06-1.67,2.89-1.66,4.52-.01,1.88-1.66,3.14-2.37,3.6-1.68,1.08-3.89,1.8-6.04,1.95-.44.02-.94.04-1.33-.08,0,0,0,0,0,0h0c-.52-.42-1.15-.61-1.63-.75-1.26-.34-2.56-.5-3.69-.62-1.82-.17-3.24-.25-4.56-.24-.56.02-1.11.12-1.6.2-1.09.19-2.17.44-3.21.68l-.4.09c-.11.03-.29.17-.37.26l-1.71,1.95c-1.82-.04-3.69-.22-5.57-.54-.31-.05-.59.22-.65.51-.07.29.1.58.39.66.5.14,1.01.28,1.51.4,1.73.42,3.31.71,4.82.88.11.01.21,0,.31-.06,0,0,.22-.13.35-.33l1.66-2.15.12-.02c1.36-.25,2.77-.52,4.13-.61.3-.02.59,0,.89.03h.17c1.15.1,2.32.23,3.45.39l.12.02c1.23.19,2.5.39,3.66.87.09.05.23.11.28.16,1.1,1.02,3.6.82,5.51.48,4.03-.74,8.76-3.27,8.83-7.92.02-.36.09-1.46.33-1.64.06-.03.43-.13,1.6.62.17.11.33.24.49.36.94,1.99,1.95,4.16,2.05,4.4.1.24.37.39.63.33,2.04-.44,4.46-.99,6.91-1.76l.14-.05c.92-.31,1.87-.62,2.76-1.19.25-.16.45-.33.6-.51.2-.21.34-.46.41-.6.34-.69.47-1.44.58-2.1l.02-.14c.06-.36.11-.73.17-1.1.09-.64.19-1.29.31-1.87.03-.13.06-.25.1-.37.05,0,.11-.01.16-.02.33-.04.66-.08.97-.08.02,0,.05,0,.07,0,1.03,0,2.02.65,3.09,2.03,1.17,1.52,2.35,3.19,3.59,5.08l-.15.57c-.04.15-.08.31-.1.46-.02.1-.04.23-.06.41l-.03,1.58c-.41,1.55-.7,3.02-.88,4.48-.11,1.28-.07,2.68.13,4.17-.1.27-.2.54-.3.81l-.21.58c-.27.42-.52.85-.76,1.28-.26.47-.56,1.05-.79,1.52-.69,1.34-1.19,2.84-1.62,4.87l-.05.21c-.16.73-.39,1.72-.55,2.38,0,0-.03.14-.03.14-.37.84-.97,1.53-1.61,2.25-1.24,1.35-2.76,2.68-4.54,3.95-2.94,2.07-5.56,3.24-7.54,3.37-.96.04-1.86-.16-2.95-.4-1.05-.25-2.16-.59-3.39-1.04-.16-.06-.32-.12-.49-.19l-.53-.17c-.13-.04-.27-.03-.39.02l-1.31.58c-1.88.82-3.73,1.64-4.02,1.8-.19.1-.3.31-.29.52l.16,2.63c-.54.16-1.11.38-1.62.7-.37.21-.73.44-1.09.67l-9.48.26h-.17c-.1.01-.21.05-.29.11l-7.22,4.98c-.24.17-.31.5-.16.75l.1.16c.16.25.49.33.74.19l7.28-4.07,6.19.17c-1.13,1.28-1.87,2.68-2.2,4.17-.07.29.2.61.49.68.29.07.59-.1.67-.4.36-1.39,1.12-2.69,2.18-3.77.22-.22.45-.43.68-.63l6.32.17c.14,0,.3-.06.41-.17.11-.11.16-.26.16-.42-.01-.22.08-1.73.13-2.63,2.77-.43,5.63-.66,8.39-.88,2.35-.19,4.78-.39,7.16-.71.43-.06.83-.13,1.27-.24.91-.24,1.75-.63,2.4-.95,1.4-.7,2.77-1.56,4.18-2.61l.14-.1c.09-.07.16-.17.19-.28l1.06-3.53c.76-.78,1.38-1.51,1.86-2.2.26-.37.5-.81.72-1.3.08-.21.17-.46.23-.68.26-.81.64-1.61,1.04-2.37,0,.18,0,.36,0,.55.02.36.08.68.19.95.05.11.09.19.17.32.06.09.12.18.2.26l-1.07,3.44s-.03.15-.03.19c-.19,1.59-.46,3.14-.8,4.62-.23.98-.52,2.12-1.01,3.1-.12.22-.26.5-.37.59l-.22.13c-1.12.61-2.27,1.08-3.5,1.58l-.24.1c-1.42.57-2.87,1.12-4.31,1.66l-6.66-1.01c-.06-.01-.2,0-.26.02l-6.27,1.08c-.17.03-.32.14-.4.3l-2.4,4.8c-.07.13-.08.28-.03.42s.15.26.28.32l.91.45c.28.14.61.03.75-.25l2.04-4.09c1.09-.19,4.7-.81,5.32-.92l6.79,1.03c.1.01.21,0,.3-.04,0,0,.02,0,.03,0,0,0,.01,0,.02,0h0s.05-.04.07-.06c-.02.02-.05.05-.07.06,3.26-.82,5.96-1.54,8.73-2.67,0,0,.11-.05.12-.05l.54-.27c.14-.08.31-.18.43-.29,1.85-1.53,2.8-5.47,3.3-7.6.17-.77.34-1.56.45-2.25.04-.1.7-1.97,1.02-2.87.21.06.39.12.53.19,0,.1-.02.21-.03.32-.15.97-.4,1.96-.64,2.92-.1.41-.21.83-.3,1.24-.11.48-.23.96-.33,1.46l-.05.24c-.08.43-.17.88-.15,1.36.01.3.35.53.65.53.26,0,.49-.19.54-.44.04-.2.12-.39.2-.58.09-.22.18-.44.28-.66l.58-1.34c.28-.65.58-1.34.86-2.08,2.12,3.27,4.12,5.53,5.98,6.73,1.12.71,2.21,1.19,3.23,1.42.81.2,1.61.25,2.38.3.28.02.56.04.84.06.7.06,1.41.17,2.11.32.96.19,1.89.2,2.76.05.58-.1,1.15-.31,1.7-.59.04.17.07.33.1.48.08.4.06.66-.07.82-.6.75-2.54,1.09-5.18.93h-.15c-.22-.02-.42.08-.52.27l-2.33,4.1s-.01.03-.02.04h0c-.04.08-.1.17-.1.32,0,.17.15.39.28.49,0,0,2.14,1.77,2.78,2.3l.65,4.15c.04.27.35.46.63.46.03,0,.05,0,.08,0,.3-.04.51-.31.48-.61l-.51-4.5c-.02-.14-.13-.31-.25-.4l-.02.03c-.3-.29-.97-.84-2.52-2.08l1.88-2.97c1.56.09,3.47.06,5.01-.64.35-.16,1.2-.65,1.48-1.58.2-.65.07-1.28-.04-1.83l-.03-.13c-.05-.23-.12-.46-.18-.69.07-.07.14-.14.21-.22l1.54-1.69h.04c.2.04.4.08.61.11.18.02,1.61.17,4.37.45.04.06.07.13.11.19,1.33,2.12,2.66,3.62,4.19,4.7.56.41,1.3.77,1.95,1.08l.35.16c4.26,1.98,13.11,6.1,17.74,5.02,2.7-.64,5.59.21,7.52.9.81.3,1.5.6,2.13.92.27.13.64-.05.78-.31.07-.13.09-.28.04-.42s-.14-.26-.27-.33c-.66-.35-1.4-.68-2.25-1.02-2.84-1.09-5.16-1.49-7.31-1.26-.29.03-.58.09-.86.14-.29.06-.58.12-.86.14-4.61.16-11.71-3.29-15.96-5.35l-.37-.18c-.54-.27-1.14-.57-1.59-.91-1.05-.78-2.02-1.84-2.96-3.22,2.76.28,5.36.54,5.6.56.3.02.55-.19.59-.48.04-.29-.15-.56-.44-.62l-6.9-1.35c-.03-.06-.07-.13-.1-.19-.04-.07-.09-.14-.15-.19-.84-.67-1.68-1.34-2.53-2l3.42-1.55,6.33,2.48c.99.39,1.81.83,2.66,1.45,1.32.95,2.19,1.26,3.02,1.55.8.29,1.56.56,2.75,1.41.52.37,1.52,1.38,2.48,2.35,1.05,1.06,2.03,2.05,2.63,2.48.16.12.34.23.53.35.33.21.67.42.89.65.21.23.56.24.79.03.22-.21.24-.56.03-.79l-2.33-2.51c-.33-.35-.65-.72-.97-1.09-.83-.95-1.68-1.92-2.66-2.74-.9-.75-1.91-1.34-2.9-1.91-.38-.22-.75-.44-1.12-.66l-2.65-1.63-9.31-3.65c-.14-.06-.3-.05-.43.01l-4.85,2.2s-.1.07-.16.12c-.78-.6-1.6-1.23-2.46-1.82-.35-.24-.79-.45-1.27-.58-1.68-.46-3.4-.33-4.73-.17l-.22.03c-.13.02-.25.08-.33.18-.84-.68-1.57-1.24-2.27-1.74-.51-.36-1.08-.73-1.73-1.07-.45-.23-.93-.45-1.47-.51-.2-.02-.43-.01-.63.03l-1.19.29s-.07-.06-.1-.09c-.24-.25-.53-.51-.86-.77-.84-.65-1.74-1.19-2.6-1.68-.26-1.84-.5-3.82-.74-6.13-.13-.43-.27-.85-.41-1.27l-.04-.13c.12-2.14.15-4.09.1-5.95.26-.92.29-1.95.07-2.83-.08-.36-.18-.7-.28-1.04.25-1.29.26-2.51.24-3.73.63-1.09,1.32-2.12,2.07-3.07,2.61-.98,4.86-1.75,7.17-2.26.63,1.42,1.16,2.61,1.27,2.87.12.26.43.39.7.29l2.55-.95s.04.06.06.09c.57.85,1.04,1.82,1.47,2.74.12.25.23.51.35.77.17.38.34.77.52,1.14.07.15.2.36.28.48.05.08.32.51.63.72.55.4,1.16.39,1.68.28.07.21.14.43.2.66,0,0-.02.12-.02.13-.03.17-.07.37-.03.63.11.54.54.83.86,1.04l.12.08c.25.18.61.09.79-.16.18-.24.12-.58-.12-.77l-.11-.08c-.16-.12-.3-.22-.35-.37,0-.02,0-.03,0-.04.32.19.54.38.67.58.04.09.09.17.18.26.44.44,1.13.55,1.34.57.3.03.58-.22.62-.52.04-.3-.17-.58-.47-.62-.1-.01-.21-.05-.29-.08-.07-.03-.22-.08-.29-.13-.02-.05-.05-.1-.08-.16-.05-.07-.1-.14-.16-.21.1.01.22,0,.35,0,.07,0,.15-.01.25-.01.27,0,.7-.03,1.03-.29.05-.04.1-.08.14-.12.03-.02.06-.05.09-.07.26-.15.33-.52.18-.78-.15-.26-.48-.36-.75-.21-.1.05-.18.12-.26.18l-.15.09c-.08.02-.19.01-.31,0-.13,0-.25,0-.33.02-.02-.01-.07-.06-.19-.17-.08-.08-.16-.16-.24-.24-.07-.08-.15-.16-.24-.24.73-.48,1.37-1.18,1.48-2.32.04-.36,0-.72-.03-1.04,0-.05-.01-.1-.02-.15.18-.19.34-.41.5-.61l.16-.2c.46-.59.9-1.05,1.34-1.39.15.21.28.44.41.7.08.16.16.33.23.49.17.36.34.73.54,1.06.69,1.16,1.55,2.4,2.68,2.85.89.3,1.7-.24,2.23-.59,0,0,.09-.06.09-.06.24-.17.47-.36.69-.54.1.05.2.1.3.16,0,.06-.03.14-.04.21-.02.11-.05.22-.06.31-.16.84.18,1.56,1.02,2.15.38.27.78.47,1.19.6.35.11.69.16,1.02.2.22.03.44.06.65.11.33.07.69.22,1.08.43.3.16.59.33.88.51.58.34,1.17.7,1.82.97,1.11.47,2.32.67,3.52.58.43-.03.85-.1,1.27-.17.66-.11,1.27-.22,1.88-.16.3.03.6.1.89.22.27.11.63-.1.75-.37.06-.14.06-.29,0-.43-.05-.14-.16-.25-.3-.31-.4-.17-.8-.28-1.22-.33-.76-.09-1.49.02-2.2.12-.39.06-.78.11-1.17.13-.98.05-1.99-.13-2.89-.54-.54-.25-1.05-.57-1.59-.9-.23-.15-.47-.29-.7-.43-.61-.37-1.16-.62-1.69-.75-.26-.07-.52-.11-.78-.15-.26-.04-.53-.08-.77-.16-.39-.14-.74-.36-1.03-.66l-.4.22s-.01-.01-.02-.02l.33-.3c-.02-.05-.04-.11-.02-.26l.03-.14c.4.17.81.34,1.23.49l.3.11c.52.18,1.06.37,1.68.4.52.01.9-.33,1.12-.54.96-.94,1.57-1.34,2.49-1.05.97.32,1.98.42,2.96.52l.64.07c1.01.11,1.97.22,2.74.71.18.13.4.33.59.52l.5.47c1.18,1.11,2.4,2.25,3.81,3.17.64.4,1.19.66,1.74.82.14.04.31-.02.44-.09.13-.07.24-.24.27-.38.08-.29-.08-.59-.37-.68-.69-.22-1.32-.65-1.84-1.04-1.13-.86-2.16-1.89-3.15-2.89l-.45-.45c-.21-.21-.44-.45-.71-.64-1.05-.73-2.33-.91-3.46-1.07l-.42-.06c-1.02-.13-1.98-.26-2.93-.61.24.01.49.03.74.04.56.02,1.14.04,1.77-.07.16-.03.38-.07.6-.21.08-.05.15-.11.21-.17.14,0,.31.05.44.07.51.12,1.02.31,1.5.5.5.2,1.01.42,1.5.65.27.13.64-.06.77-.33.05-.11.07-.22.05-.34,3.19.92,5.8,1.22,8.18.95,1.17-.11,2.32-.47,3.36-1.05.06.02.11.05.18.07.14.04.32-.02.45-.09.13-.08.24-.25.27-.4.01-.06.01-.12,0-.17,1.31-.99,2.12-2.29,2.36-3.78.02-.15-.01-.3-.1-.42-.09-.12-.22-.2-.37-.22l-.18-.03c-.29-.04-.54.14-.62.41-.35,1.35-1.17,2.37-2.44,3.05-1.36-.72-2.82-1.46-4.34-2.07l-.16-.06c-1.05-.4-2.12-.81-3.26-.94,0-.01,0-.03,0-.04-.05-.3-.32-.5-.62-.47-.11.01-.21.04-.31.07l-.17.03c-.08-.01-.19-.06-.3-.11-.12-.05-.23-.1-.31-.1-.02-.02-.05-.09-.07-.13,0,0-.05-.1-.05-.1-.05-.1-.09-.21-.13-.31-.07-.19-.16-.4-.28-.61.37,0,.75,0,1.16,0l2.04-.25c.04.24.09.51.28.79.13.17.33.28.55.31.22.02.44-.04.58-.16.12-.09.23-.2.35-.3l.3-.27c.44-.4.86-.79,1.38-1.21.07-.08.13-.16.19-.24.14.1.27.2.4.3,0,0,.05.11.06.11.08.15.17.34.36.53.41.37.93.34,1.31.32h.14c.15-.01.29-.09.39-.2s.16-.27.15-.42c0-.3-.25-.54-.55-.54h-.14c-.2,0-.37,0-.5-.09,0-.01-.01-.03-.02-.04.37-.03.66-.01.89.07.08.05.17.08.3.1.61.09,1.24-.24,1.41-.34.12-.07.21-.21.24-.35.55.33,1.93.99,2.75.72.23-.07.38-.29.38-.53,0-.24-.15-.45-.38-.53l-.89-.3c-.12-.04-.19-.05-.31,0-.18,0-.71-.35-.97-.51-.53-.34-.96-.62-1.38-.45.04-.07.07-.15.09-.24,0,0,0-.01,0-.02l.83-.46c.1-.06.18-.14.23-.24.53-.36,1.11-.78,1.41-1.06.2-.19.24-.5.08-.72-.16-.23-.46-.31-.71-.18l-.93.47s-.07.04-.1.06c-.05.04-.1.08-.15.12-.02-.02-.05-.05-.08-.07-.24-.17-.58-.12-.76.11l-.08.11c-.12.15-.23.3-.37.34-.02,0-.03,0-.05,0,.2-.31.39-.53.59-.66.09-.04.18-.09.27-.18.36-.34.51-.86.56-1.16.43-.28.84-.58,1.22-.92.67.27,1.35.54,2.16.79.21.06.46.12.73.12.02,0,.15-.01.17-.02,1.49-.17,1.51-.19,1.66-.3.19-.15.27-.4.19-.62Zm-12.76,5.53s0,.01,0,.02c-.28.08-.54.15-.78.21-.24-.26-.56-.53-.95-.64-.18-.09-.37-.21-.55-.32l.09-.09c.26-.27.43-.57.51-.9.06-.03.11-.07.15-.11l.14-.03c.52-.12,1.07-.26,1.63-.45.56-.19,1.19-.45,1.65-.97.04-.04.06-.09.08-.14.08-.06.15-.13.19-.21.15-.25.07-.57-.17-.74.13-.16.25-.33.35-.49,0,0,.06-.09.06-.1.23-.36.5-.77.81-1.1.16-.07.35-.12.51-.12,0,0,0,0,0,0-.02,0-.04.02-.06.03-.26.14-.36.47-.23.74.05.1.11.18.18.27l.09.15c.02.08,0,.19,0,.31,0,.13-.01.26.02.33,0,.01-.03.04-.07.07-.24.15-.5.33-.76.59-.12.14-.24.28-.36.42-.49.58-.91,1.08-1.57,1.4-.07.04-.14.08-.22.12-.31.16-.74.37-.97.87-.14.4.07.71.21.89Zm-24.59,9.88c-.05.02-.16.07-.12.09-.12-.04-.27-.17-.39-.28-.6-.61-1.15-1.46-1.61-2.49-.23-.58-.47-1.07-.73-1.5.78-.16,1.58-.09,2.34.01,0,.02,0,.05,0,.07-.02.19-.07.39-.12.59-.1.4-.21.86-.17,1.36.07.94.8,1.51,1.35,1.84-.18.12-.37.23-.55.31Zm-75.86-10.82c-.86-.24-1.71-.48-2.6-.71l-.15-.03h0s0,0-.01,0h-.01s0,0,0,0c-.01,0-.03,0-.04,0-.05-.02-.11-.03-.16-.03-.51-.21-1-.45-1.49-.7-.58-.29-1.17-.58-1.79-.82-.35-.14-.7-.26-1.08-.36-1.17-.28-1.95.22-2.46.55-.13.08-.31.2-.35.18-.75-.65-1.48-1.32-2.22-1.99.76-.84,1.51-1.66,2.17-2.37l.65-.08c.1.28.2.57.29.86.06.17.27.33.45.38.07.02.17.05.24.08.06.14.16.26.26.35-.14.07-.28.15-.4.24-.23.16-.66.67-.77.9-.11.24-.04.52.16.68.21.16.5.16.7-.01.29-.24.42-.35.48-.46.09-.1.32-.2.51-.28.45-.17.76-.19,1.04-.05.33.14.63.33.96.52l.34.2s.12.07.13.07c.18.1.47.28.91.19.39-.12.54-.48.6-.61l.08-.21c.05-.14.1-.28.1-.35,0,0,.11,0,.11,0,.21,0,.44.02.7.02.42.31,1.01.45,1.74.45.14,0,.28,0,.42,0,.03,0,.06,0,.09,0l.02,1.11c0,.22.13.42.34.51.6.26,1.21.5,1.81.75l1,.42c-.17.4-.41.77-.72,1.18-.69-.18-1.37-.37-2.06-.56Zm-13.84-17.18s.02.02.03.03h0s-.02-.02-.04-.03Zm2.02-.65l.2.46c.03.08.08.14.14.2.04.1.07.32.09.44.02.12.04.24.07.36-.2-.05-.44-.1-.65-.15-.17-.27-.34-.54-.52-.82l.03-.23s.07-.1.07-.11c.09-.14.21-.32.27-.57.02-.1.03-.2.02-.3.11.05.22.11.33.16-.12.16-.15.37-.07.56Zm1.97.94c.16.2.44.27.68.16l.24-.11c.06-.03.09-.05.14-.1,0,0,.02,0,.03-.01.1.22.2.45.31.68-.23.07-.44.15-.63.22-.03-.25-.19-.42-.35-.5-.11-.06-.48-.21-.74-.31,0-.03,0-.06-.01-.08,0,0-.08-.46-.29-.9.21.09.42.17.63.26h0c-.16.2-.17.49,0,.7Zm19.08-28.68s.08.06.12.09c0,.03.02.06.04.09,0,0,.06.12.09.28.01.1.01.24,0,.37-.08-.17-.17-.33-.28-.46-.03-.05,0-.22.02-.37Zm17-3.63c.17-.21.36-.41.55-.61-.02.04-.03.07-.05.1v.09s-.05.03-.07.05l-.12.1c-.11.09-.22.18-.32.27Zm9.72-.04c.1.28.2.57.29.86.06.17.25.32.42.37-.04,0-.07.02-.11.04-.24.11-.38.38-.31.64l.06.25-.26.39c-.14.21-.28.43-.43.66-.1.15-.2.31-.3.46-.02-.05-.04-.09-.07-.13-.11-.15-.28-.23-.45-.23-.11,0-.21.03-.31.09-.11.07-.21.14-.3.18.08-.24.13-.47.16-.64.4-.98.83-1.94,1.27-2.9l.32-.04Zm41.74,16.9c.1.1.21.19.32.29.53.47.85.78.82,1.2,0,.08-.02.15-.03.23-.36.19-.8.42-1.05.89-.13.23-.2.45-.25.64-.08.28-.17.56-.28.88-.05.16-.11.31-.16.44-.04.06-.06.13-.07.2-.31.44-.66.96-.99,1.51l-.07.12c-.09.16-.21.36-.26.64,0,0,0,0,0,0-.41.1-.92.1-1.43.08-.08,0-.17-.01-.25-.02-.15-.38-.31-.76-.47-1.13l-.07-.17c.35-.27.64-.58.84-.92.09-.15.16-.27.26-.42.11-.17.24-.36.38-.56.69-1.02,1.56-2.3,1.49-3.48,0-.15-.12-.28-.23-.38s-.3-.14-.45-.13c-.29.02-.51.26-.51.55,0,.73-.77,1.74-1.36,2.51.01-.13-.02-.27-.11-.39-.17-.23-.5-.29-.74-.14,0,0-.12.07-.27.11-.15.03-.37.03-.54.03h-.01s-.01-.03-.02-.04c-.02-.04-.04-.07-.04-.11-.08-.29-.41-.46-.7-.39-.3.07-.48.37-.41.66,0,0,0,.01,0,.02-.09.04-.18.08-.26.14.52-1.31,1.05-2.77,1.08-2.86.1-.28-.04-.6-.32-.71-.22-.09-.45-.03-.61.13-.03-.03-.07-.07-.11-.11-.09-.11-.19-.31-.27-.46l-.07-.12c-.2-.37-.43-.81-.86-1.03.39-.04.78-.09,1.16-.14.19.13.38.29.57.45.34.29.68.58,1.16.8,1.32.58,2.4.43,2.91-.41.16-.27.2-.54.26-.86.05-.23.1-.48.17-.71.16-.07.36-.15.51-.23,0,0,.02.01.02.02-.09,1.35.37,2.48,1.36,3.37Zm2.8,8.53c.02.14.05.28.08.42.01.06.03.13.04.19-.07,0-.14,0-.2,0h-.44c-.15-.01-.29-.01-.44-.01-.05,0-.1,0-.14,0l-.05-.89c.37-.15.77-.33,1.15-.55-.04.28-.04.57,0,.86Zm11.12,3.15c.11.1.22.21.33.32-.09.1-.16.21-.22.34-.04-.21-.07-.43-.12-.66Zm2.46,26.21s.02-.03.02-.04c.08.11.15.21.21.31-.05.01-.1.02-.14.03-.06-.1-.1-.2-.09-.3Zm-90.63-6.45h0s0,0,0,0Zm2.9-25.56s-.04-.06-.06-.09c.18-.44.35-.85.51-1.21.13-.01.25-.02.38-.03.08.05.17.08.27.08.02,0,.04,0,.06,0,.02.25.05.5.11.76.08.32.26.48.4.55.06.03.11.05.17.06.04.12.12.22.24.29.07.05.15.11.24.18.06.05.17.16.21.24,0,.06,0,.12.02.18.02.08.04.17.06.25-.09-.05-.2-.09-.33-.14-.07-.02-.15-.05-.23-.08-.15-.07-.6-.26-1.06-.14-.06.02-.12.03-.18.05-.04.01-.07.03-.11.03-.3.04-.51.35-.47.65.04.3.3.51.6.48.05,0,.1-.01.15-.02,0,.05.02.09.05.13l.14.28c.03.05.06.1.1.14,0,.03.02.06.02.09-.18-.03-.35-.05-.45-.06-.21-.02-.4.1-.5.27,0,0,0-.02-.01-.03-.04-.07-.1-.19-.22-.3,0,0-.05-.04-.11-.09-.04-.16-.07-.32-.1-.47l-.02-.22c-.02-.27-.25-.46-.51-.49.02-.04.03-.09.05-.13.1-.03.21-.07.32-.13.18-.11.31-.29.36-.51.05-.21,0-.44-.1-.6Zm40.34-22.13c.08-.04.17-.07.25-.1,0,0-.01.01-.02.02-.03.04-.05.09-.08.13-.05-.02-.1-.04-.16-.05Zm15.26,2.33s0-.09.02-.13c.04-.02.1-.05.16-.08.05.03.1.06.15.09-.1.04-.21.08-.33.12Zm37.95,38.98s0-.07-.02-.1l2.09.22c-.25.58-.55,1.01-.92,1.29-.52.05-1.03.1-1.54.15.34-.4.47-.94.38-1.56Zm-85.86,6.87c-.26.22-.52.45-.79.66-.2.16-.4.32-.6.47-.53-.17-1.05-.37-1.57-.58.07-.21.14-.41.22-.61l.11-.31c.91.15,1.78.27,2.64.36Zm-19.44-26.2c-.08.02-.15.04-.22.08l.24-.64s.08.07.12.11c-.11.12-.16.28-.14.45,0,0,0,0,0,0Zm13.94-4.56c-.29-.16-.58-.32-.86-.47,0-.18,0-.35-.02-.53l.1.06s0,0,.01,0c.2.15.41.24.6.33.01.2.05.42.16.61Zm-.06-2.08s0,0,0,0h0s0,0,0,0Zm7.76-11.08c.07.04.15.09.22.13,0,0,0,0,0,0,.03.02.07.04.1.06-.02.04-.04.08-.06.11-.22-.07-.44-.15-.49-.19-.04-.12-.13-.22-.24-.28l-.39-.23c.07-.04.13-.07.18-.1l.12-.07s.02,0,.02,0h.14c.05-.02.1-.02.16-.02-.06.23.02.48.24.61Zm2.32,1.96c.02.09.04.18.06.26-.01-.02-.03-.05-.04-.07-.05-.11-.06-.14-.02-.19Zm78.54,31.12c.03-.12.08-.28.11-.46.12.06.24.11.36.14.07.04.18.28.26.46,0,.05.02.09.04.14.04.08.08.15.12.22.05.12.11.23.18.34-.02.15-.04.29-.04.44-.34.16-.63.33-.9.5-.14-.09-.29-.18-.43-.27.11-.21.21-.42.29-.65.04-.12.1-.29.09-.57-.01-.1-.04-.19-.07-.29Zm1.86,9.05c-.05.01-.1.02-.16.03l-.09.02c.06-.05.12-.09.18-.14.02.03.04.06.06.09Zm-55.23-19.54c-.48.29-.98.56-1.49.83-.55.29-1.11.59-1.65.92-.38-.59-.75-1.16-1.05-1.72-.16-.37-.28-.92-.35-1.64.18-.08.37-.2.54-.37.96-1.01,1.8-1.72,2.65-2.25.5-.32,1.05-.6,1.55-.82.06.93.08,1.86-.07,2.74-.02.09-.05.19-.08.28l-.06.17c-.19.61-.18,1.25.01,1.86Zm-44.43,12.61c-.16-.07-.31-.13-.48-.2,0-.05.01-.1.02-.15.02-.19.05-.38.06-.57l.4.92Zm-6.04,3.48c-.21.04-.43.07-.63.07-.02-.01-.05-.03-.06-.04-.12-.34-.46-.51-.77-.61,0,0,0,0,0-.01.05.01.1.03.15.04l.95.26c.2.06.43.12.73.14h.3c.38-.03.7-.04,1.04.1l.11.04c.16.06.39.15.69.11.08.11.18.22.27.32-.45.19-.68.61-.83.96-.08-.04-.16-.09-.24-.13-.11-.06-.21-.12-.32-.18,0-.18-.02-.37-.05-.57-.06-.25-.25-.45-.52-.52-.28-.06-.54-.02-.82.02Zm3.3-20.24c.05-.08.09-.18.11-.28.03-.13.04-.25.03-.36.04-.04.08-.08.12-.13.06.29.12.58.18.88-.14.02-.27.06-.4.11-.02-.07-.03-.14-.05-.21Zm-5.44,17.03c-.13,0-.26,0-.37,0-.02-.03-.04-.05-.06-.08.07,0,.14-.01.22-.02l.1.05s.07.03.11.05Zm3.18-.51c-.05-.19-.13-.45-.25-.7.15.05.29.09.44.13.08.02.15.03.22.04.04.06.11.16.18.32l-.58.21Zm-.78-3.83s-.02.02-.02.03h-.21c-.02-.11-.05-.22-.08-.32h.01s.09.09.09.09c.07.07.14.13.21.19Zm1.3-6.65c.03.1.09.2.18.26.1.08.22.12.34.12.06,0,.11-.02.16-.04.1.12.21.24.31.36-.12.03-.23.07-.35.1l-.16.05s-.07-.05-.1-.06c-.05-.02-.11-.04-.16-.06l-.12-.04c-.18-.06-.36-.12-.6-.22-.02,0-.05-.01-.07-.02.1-.13.19-.25.29-.33.09-.03.18-.09.28-.13Zm6.33.57l-.02.04s-.02.06-.03.09c0,0,0,0,0,0,.02-.04.03-.08.05-.13Zm-4.62-1.44c.08-.11.15-.22.2-.31.03-.05.05-.08.07-.11,0,0,0,0,.01.01.04.04.07.08.11.13.09.11.19.22.28.29,0,0,.01.01.02.02.03.23.06.52.1.79-.11-.12-.21-.24-.32-.36-.15-.16-.31-.31-.47-.46Zm3.37-2.93s.05-.04.09-.07c.14.12.3.25.44.37-.23.05-.41.21-.54.33-.07-.17-.13-.34-.19-.51.07-.04.13-.07.2-.12Zm-2.63,8.77c-.06.01-.13.02-.19.03-.03-.05-.06-.09-.09-.14.09.04.18.08.28.11Zm-.96-8.96s0,.02-.01.03c0-.01,0-.02,0-.04,0,0,.01,0,.02,0Zm4.4,10.92c-.1.05-.2.09-.29.14l-.29-.55c.07-.15.14-.3.22-.46.1.05.19.11.22.17,0,0,0,0,.01.02,0,.05,0,.1,0,.16.03.2.07.37.12.51Zm1.82-4.85s-.07-.09-.1-.14c.06-.15.12-.3.2-.47l.13-.18c.12.04.23.09.35.12.03.28.06.56.08.83-.06-.03-.15-.06-.67-.17Zm-10.71,6.7c.12.06.24.12.37.18-.1.13-.21.24-.32.32-.06.04-.19.07-.31.1l-.1.02c-.13.02-.26.04-.39.05.04-.04.08-.08.12-.12.02,0,.05,0,.07-.01.33-.1.49-.38.57-.54Zm10.47-2.56c-.05-.35,0-.74.04-1.15l.02-.14c.08-.64.19-1.18.31-1.66l.24.03c.15.02.28-.02.39-.1.02.33.04.64.06.96v.12c.03.51.05,1.08.01,1.49-.02.02-.02.02-.21.09-.27.1-.58.23-.85.36Zm.64-6.44c0-.28-.07-.53-.22-.73-.04-.06-.08-.13-.12-.2.09-.05.18-.09.27-.14,0,0,0,0,.01.01,0,.16,0,.32.03.47.01.14.04.38.07.6,0,0-.02,0-.03-.01Zm-8.47-2.89l.25-.19s0,0,0,0c.14-.11.3-.23.45-.34.11.59.21,1.18.23,1.67h-.01c-.24-.24-.48-.48-.74-.7-.08-.07-.16-.14-.23-.21.02-.07.04-.15.05-.23Zm-3.57,9.63c-.06.37-.18.73-.36,1.13-.03-.02-.05-.03-.08-.05-.11-.06-.21-.12-.32-.18,0,0,0,0,0,0,0-.18-.01-.37-.05-.57-.02-.1-.07-.19-.13-.27.15-.08.31-.18.47-.29,0,0,.02,0,.02,0l.11.04c.09.03.21.08.34.1,0,.02,0,.05-.01.07Zm6.1,5.42l.32.18s.01,0,.02.01c-.03,0-.07,0-.1,0l-.21-.02c0-.05-.02-.11-.03-.16Zm.47-2.79c-.03.15-.05.34-.05.5,0,.12-.02.23-.03.34-.2-.07-.4-.13-.6-.2l-.14-.04s-.07-.01-.12-.01c-.06,0-.12,0-.18.02-.24-.5-.51-.85-.82-1.05-.22-.15-.47-.17-.7-.19-.16-.02-.31-.06-.47-.11,0,0,0,0,0-.01l.32-.53c.08-.13.15-.24.22-.31.11-.11.26-.19.47-.27.1.01.19.02.29.03.64.03,1.31,0,2.12-.12l.21.48c-.21.47-.41.95-.52,1.47Zm4.77-.34l.06.06c.15.14.31.29.41.39.66.73.57,2.32.5,3.46,0,.02,0,.04,0,.06-.34-.21-.67-.41-1.02-.61l.05-1.56c0-.08-.01-.17-.05-.25l-.63-1.21c.21-.12.45-.23.68-.35Zm.52-14.74s0,0,0,0v.05c-.13.16-.24.33-.29.47-.08-.35-.26-.7-.41-.95.01-.03.02-.05.03-.08.02-.09.04-.18.05-.27.07.17.17.33.31.48.1.11.21.21.32.29Zm-2.86-1.58s-.02-.02-.04-.04c-.1-.21-.21-.4-.29-.52.02-.01.04-.02.06-.03.07-.05.13-.11.18-.17,0,.04.01.08.02.12.02.21.06.44.09.66,0,0,0-.01-.01-.02Zm-5.22,2.63c.05-.18.11-.34.19-.49,0,0,0,0,0,0,.02.11.04.23.06.34-.08.05-.16.1-.25.16Zm-1.64,3c.08.04.15.08.23.12,0,.01,0,.03-.01.04-.01.02-.02.05-.04.07-.16-.09-.35-.09-.52,0-.21.11-.33.35-.29.58l.05.3c0,.06.03.11.06.16,0,.03,0,.06,0,.1-.12-.06-.25-.12-.35-.16l.52-1.38c.12.05.24.11.36.17Zm.14,14.43c.24.07.48.15.7.24h-.03s-.18.01-.18.01c-.12,0-.27-.05-.43-.09l-.21-.05c-.14-.03-.28-.07-.42-.11h.56Zm4.6,1.06s.07-.09.07-.1c.09-.11.23-.28.29-.55.03-.14,0-.29-.06-.42.48.27.96.55,1.46.85l.03,1.02c-.06,0-.12.01-.19.02l-.36.03c-.36.02-.53.01-.61-.08,0,0-.01-.02-.02-.02l-.08-.09c-.22-.25-.46-.47-.68-.65l-.12-.1.25.09Zm5.4,3.18c-.37-.15-.74-.3-1.11-.45l.04-1.29c.38.29.75.61,1.06.96,0,0,.11.15.11.15.27.35.62.63.98.86-.06.05-.11.09-.17.14l-.9-.37Zm7.26-.9v.03c-1.01-.15-1.9-.31-2.71-.49-.67-.16-1.18-.31-1.65-.5-.32-.13-.57-.23-.75-.4-.03-.03-.06-.06-.08-.1-.05-.07-.11-.13-.15-.17-.07-.07-.14-.14-.21-.2.11-.39.18-.79.2-1.19.04-.8.06-1.75-.1-2.72-.11-.65-.38-1.53-1.05-2.18.2-.09.43-.19.67-.35.47-.32.79-.88.88-1.52.1-.69.05-1.3,0-1.9l-.02-.18c0-.07-.01-.15-.02-.22.04.02.09.04.13.06.12.05.23.11.31.11.02.02.04.09.11.23.05.1.08.21.12.32.14.39.32.87.76,1.18.2.15.42.25.61.33.18.08.36.16.56.25.03.7.2,1.37.36,2.02l.09.39c.17.66.37,1.32.57,1.97.06.19.22.34.41.38l4.85,1.03.67,1.08c-.27-.04-.54-.08-.82-.11-.49-.04-1.11-.09-1.7.06-.18.04-.36.12-.53.23-.1.07-.18.14-.26.22l-.13.16c-.53.7-.84,1.46-1.13,2.21Zm-1.14-24.34c.09-.09.18-.19.25-.32.01-.03.03-.05.04-.08,0,.19,0,.37-.03.54-.04.01-.08.02-.12.04-.04-.06-.09-.12-.14-.18Zm.8-6.92c.06.03.12.06.18.09l.3.16c.13.07.37.19.73.11.22-.08.38-.25.48-.52l.04-.14s.01-.04.02-.07c.13,0,.27,0,.4,0h.03c.11.18.3.38.63.53.76.32,1.54.47,2.31.61v.07c-.19,0-.39.06-.58.18-.35.25-.53.6-.68.89l-.11.21c-.06.11-.12.22-.18.33-.04,0-.08.02-.12.03-.64-.03-1.28-.07-1.92-.11l.09-.86c.03-.3-.27-.58-.57-.62-.29-.04-.57.17-.62.47l-.13.92-.26-.02c-.11,0-.23.02-.33.08,0-.18.03-.38.06-.58l.03-.17.06-.09c.1-.15.21-.33.28-.59.07-.34-.02-.63-.14-.89Zm10.23-6.15c.02-.12.03-.24.04-.36l.29.13h0c-.14.08-.24.21-.27.35-.02-.04-.04-.09-.05-.13Zm.36.77s.04.02.06.02c0,.07.01.14.02.21,0,0-.01,0-.02,0-.02-.08-.04-.16-.07-.24Zm42.22,1.27c.1.07.19.14.27.23.19.2.35.44.47.66l.07.11c-.33.09-.66.21-.99.38-.11-.02-.26-.09-.46-.18l-.77-.36c-.05-.07-.1-.14-.15-.22v-.2c-.02-.59-.04-1.17-.03-1.83,0-.07-.02-.14-.04-.22l1.02-1.56c.21-.07.38-.23.45-.44.03-.08.08-.26.15-.48l.31-.47c.07-.1.1-.23.09-.36.07.02.13.04.2.05.1.03.2.05.27.08-.39.72-.67,1.48-.94,2.22l-.24.66c-.09.26-.19.53-.23.86-.03.24,0,.7.55,1.05Zm11.62,16.16c.01.07.03.13.06.19.08.17.13.35.17.56.02.09.03.18.05.28-.14.03-.28.05-.42.08.1-.36.14-.73.14-1.11Zm-.03-.38s.04,0,.07,0c-.03.07-.04.14-.05.21,0-.07-.01-.14-.02-.21Zm2.88-1.68c.11-.23.25-.46.39-.68l-.06,1.03c-.11.02-.23.04-.34.05.01-.04.02-.08.02-.12.01-.09,0-.19-.01-.27Zm.26,1.63l-.14,2.6-1.11,1.09c.02-.43,0-.87-.07-1.32.23-.12.35-.43.3-.69-.05-.25-.25-.43-.49-.45-.06-.28-.12-.57-.22-.86.03-.06.06-.12.09-.17.04-.07.09-.19.09-.19,0,0,.02,0,.06,0,0,0,0,0,.01,0,.56.06,1.05.06,1.48,0Zm2.04,4.23l.46.35c.19-.09.37-.13.57-.18l.29-.08c.44-.12.89-.31,1.41-.59.02.15-.03.25-.15.37-.57.57-1.43.87-2.03,1.03-.05.01-.09.03-.13.06-.2.12-.41.25-.63.4-.04-.02-.09-.03-.13-.03-.02,0-.03,0-.05,0,.22-.34.47-.66.75-.9l-.36-.42h0Zm7.21.77c.06-.03.12-.07.18-.1.11.13.2.26.27.4,0,.04,0,.07,0,.07-.04.35-.15.7-.3,1.1-.18.02-.37.03-.56.03-.01-.06-.02-.11-.03-.17-.02-.12-.05-.23-.07-.35,0,0,0,0,0,0,.13-.12.27-.25.4-.42.12-.16.16-.36.11-.56Zm-9.89,20.66c0,.18,0,.36,0,.54-.06-.19-.12-.39-.18-.59.06.02.12.04.17.06ZM39.71,30.45s0-.01.01-.02c0,0,0,0,0,0,0,0-.01,0-.02.01Zm9.53-2.23c.06,0,.12-.01.18-.02-.05.06-.09.13-.12.2l-.04-.02c0-.05-.01-.1-.02-.16Zm-.81,1.83c.2,0,.39-.01.58-.02-.31.3-.55.73-.61,1.33l-.52-.1c-.08-.05-.17-.1-.26-.14.03-.08.05-.15.08-.24.07-.24.15-.48.25-.71l.05-.11c.14,0,.29,0,.43-.01Zm8.09-3.93c.13.17.25.37.37.57-.04.02-.08.04-.12.07-.02,0-.03,0-.05,0-.04-.21-.11-.42-.2-.64Zm65.98,35.91c-.07.01-.14.02-.22.04,0,0-.01-.02-.02-.02,0-.04,0-.08.01-.12.06-.02.12-.04.18-.06.01.05.03.11.04.16Zm-32.35,6.47l-.67,1.7v-.1s.21-1.65.21-1.65c.02-.14.04-.28.05-.42.13.15.27.31.4.46Zm-3.47-4.2s0,.03-.01.05c-.02-.04-.04-.09-.06-.13l-.07-.17c.05.08.1.17.15.25ZM49.59,31.59h0s.57-.16.57-.16c0-.1.02-.19.22-.3.21-.12.5-.18.82-.25.14-.03.27-.06.41-.1.07-.02.18-.05.31-.11-.05.3-.09.6-.13.88-.03.18-.05.36-.04.56-.53-.12-1.06-.23-1.61-.36v-.12s-.54-.04-.54-.04h0Zm11.81-6.86c.13-.06.26-.13.4-.19,0,.05,0,.1-.02.16l-.38.04Zm14.04-.57s.01,0,.02,0c.03.04.06.09.09.14-.03-.05-.07-.09-.11-.14Zm.37.58s0,0,0,0h0s0,0,0,0Zm15.53,10.99s-.1-.07-.16-.1c.14-.02.28-.04.42-.05.06.13.12.25.18.38.27.61.52,1.2.69,1.77-.22.09-.36.32-.34.56,0,.02,0,.04,0,.06-.17-.25-.34-.5-.51-.75,0-.01-.02-.02-.02-.03h0c-.03-.3-.3-.52-.59-.5-.26.02-.53.05-.79.07.02-.09.05-.18.07-.27h.11c.21-.04.43-.06.64-.08.3-.03.52-.38.49-.68-.01-.15-.08-.28-.19-.38Zm5.52,15.68c.19-.17.48-.22.82-.27,0,0,0,0,0,.01l-.05.06s-.09.05-.13.08c-.1.08-.21.15-.32.22-.06-.01-.15-.03-.24-.05-.03,0-.06-.01-.08-.02,0-.02,0-.03,0-.03h0Zm13.92,1.89c0-.05.01-.11.02-.16.07,0,.13,0,.2,0-.05.06-.09.12-.09.12-.05.01-.09.03-.13.05Zm-70.76-17.78s.04-.06.06-.09c0,0,0,0,0,0,.03-.05.05-.08.07-.11,0,0,0,0,.01.01l.11.12s0,0-.01,0c-.08.02-.16.04-.24.06Zm13.08.41c.51.48.67.64.8.68.03.02.07.04.11.07.04.05.1.1.16.14.07.08.15.17.23.28-.05.24-.09.47-.13.73v.03s-.04,0-.06,0l-.75-.04s-.01-.02-.02-.03c-.35-.59-.78-1.09-1.21-1.54.19-.4.41-.85.66-1.31.05.09.11.17.17.26-.01.02-.02.03-.03.05-.13.22-.09.51.1.69Zm.59-4.68l.02-.21c.05.02.11.05.16.07-.06.04-.12.09-.18.14Zm.99,1.36c.21-.17.42-.32.64-.46.21.15.41.3.61.45-.02.12-.02.25,0,.39-.45-.09-.91-.18-1.37-.28.04-.04.08-.07.12-.1Zm28.41,7.93c.23.07.46.07.67.05.5.68,1,1.37,1.49,2.06-.36.39-.76.8-1.21,1.23-.85-1.45-2.01-3.07-3.64-4.05-.69-.42-1.51-.68-2.35-.76-.23-.02-.47-.04-.7-.05l-.42-.02c-.13,0-.25-.03-.36-.06-.06-.16-.11-.31-.08-.44,0-.09.09-.24.18-.42.02-.04.03-.07.04-.11.67.19,1.29.22,1.53-.2.24.01.45.09.78.35l.44.27c.71.37,1.55.51,2.34.38.16-.03.32-.07.48-.11.12.08.11.1.09.21-.18.81.09,1.46.72,1.67Zm.87-5.95c.16-.15.29-.33.39-.49.07.06.14.11.21.17.1.08.19.16.29.23-.01.09-.02.18-.03.27-.27-.08-.56-.15-.86-.18Zm7.31,7.26s.02-.07.04-.11c.05-.02.1-.04.15-.07.12-.05.25-.11.36-.15-.09.13-.19.27-.3.4-.09-.02-.17-.05-.26-.08Zm9.07,10.99l.17-.19s.02.1.04.15l-.04.02c-.06,0-.11.02-.17.03Zm-2.13,10.77c-.08,0-.15.01-.23.02.06-.51.15-1.01.23-1.48.06.03.11.06.17.08.06.03.12.06.19.09-.12.25-.24.51-.34.8-.06.19-.05.35-.02.48Zm-10.66-6.76c.11.05.21.1.27.16l.04-.05s.03.04.04.06c0,0,.02.06.04.09l-.02.06c.04.09.08.19.14.28.17.26.54.31.8.14.25-.16.33-.49.17-.75-.02-.03-.03-.07-.04-.1-.02-.06-.04-.12-.07-.16-.18-.4-.53-.62-.77-.75-.09-.05-.16-.1-.22-.14-.11-.07-.21-.13-.31-.17.08-.03.17-.07.25-.11.04-.02.09-.05.13-.09.1-.02.24,0,.31,0,.1.02.21.04.31.07.29.11.62-.08.72-.36.1-.28-.04-.59-.31-.71-.19-.08-.86-.31-1.47-.12-.1.04-.18.08-.24.14-.23.11-.51.17-.88.19,0-.02.01-.05.02-.08.11-.07.29-.09.48-.12l.14-.02c.3-.05.5-.36.46-.65-.04-.3-.33-.52-.62-.48h-.14c-.21.04-.47.06-.72.16.03-.21-.06-.44-.24-.57-.24-.18-.58-.13-.76.1l-.04.06s0-.01,0-.02c0-.04-.01-.07.03-.17,0,0,.02-.02.02-.02.03-.03.06-.06.09-.07.09-.04.18-.09.26-.17.18-.17.32-.41.43-.7.1,0,.2,0,.29,0h.44c.7.02,1.68.04,2.28-.65,0,0,0,0,.01-.01.46.39.92.77,1.42,1.12.34.22.79.47,1.37.45.06,0,.13-.01.21-.02.12.02.39.08.7.17.04.42.09.86.17,1.28.08.4.19.77.33,1.12-1.05.61-2.22,1.35-3.33,2.21,0,0-.01,0-.02.01-.38.33-.72.74-1.05,1.29-.19-.08-.37-.15-.56-.22.03-.34,0-.63-.11-.89-.14-.3-.31-.57-.5-.82.03.02.06.03.09.05Zm-6.44-11.44l-.37-.44c-.27.13-.55.25-.83.38l-.46.11c-.39.06-.77.12-1.19.2-.16-.26-.34-.51-.5-.77-.19-.29-.39-.57-.57-.86-.22-.36-.38-.66-.5-.95.13-.14.21-.33.21-.5,0-.15,0-.3,0-.45v-.42c-.03-.48-.04-.94-.04-1.45.15.02.3.03.45.04.91.08,1.95.17,3.22,1.39.89.88,1.56,1.93,2.08,2.88-.23.01-.46.04-.69.07-.28.05-.62.11-.99.25l.18.52h0Zm-10.17-.71s0,0,0,0c0,0,0-.01,0-.02,0,0,0,0,0,.01Zm-26.26,4.53c-.23-.1-.48-.23-.74-.39.15-.25.25-.52.3-.8.13-.94-.17-1.89-.81-2.53-.14-.14-.31-.23-.47-.31l-.88-.46s0-.02,0-.03c.03-.28.08-.57.13-.85.02-.1.03-.21.04-.31.09-.06.18-.12.27-.16.18-.07.37-.13.58-.17.23-.05.47-.09.71-.12.17.62.33,1.32.39,2.02,0,.06,0,.08,0,.12,0,.06-.02.14-.02.26-.02.36.08.65.2.93.26.54.61.95,1,1.36-.23.46-.46.93-.7,1.44Zm32.51-12.83c.03-.15.07-.31.09-.45h.16c-.03.12-.07.28-.11.44h-.14Zm-5.03,2.49s.03,0,.05-.01l-.05.02s0,0,0,0Zm.51,4.33s-.07.07-.11.1v-.06s.04-.02.06-.02c.02,0,.03-.01.05-.02Zm-9.23-6.08s-.02.01-.04.02c-.05,0-.09.01-.13.03,0-.06,0-.12.01-.18l.45-.37h.06c.14.07.29.15.43.23l-.79.26h0Zm-5.14,8.32c-.1.04-.21.07-.32.1,0-.05,0-.1-.01-.13-.03-.33-.12-.61-.25-.83.07.03.13.07.2.1l.11.05c.08.04.16.08.25.12,0,.07.01.14.04.2-.04.1-.05.22-.02.34,0,.01,0,.02,0,.04Zm-18.02-4.64s0,0,0,0c-.02.11-.04.19-.06.26-.03.13-.06.24-.06.35-.06-.07-.12-.14-.19-.21-.04-.03-.08-.06-.12-.09-.05-.09-.07-.23-.09-.3-.02-.1-.03-.21-.03-.31,0-.07-.01-.15-.04-.21.06-.07.11-.12.17-.17.15-.05.29-.11.43-.19-.06.24-.09.45-.1.55-.01.11.03.22.09.32Zm11.24-3.12c.05-.09.09-.19.14-.28.09.1.18.2.26.31l-.4-.03Zm5.5-3.05c.07.02.14.03.21.05,0,.15.06.31.17.43l.04.04s-.05.09-.06.13c-.09-.12-.16-.23-.21-.34-.02-.09-.06-.18-.13-.28v-.02Zm5.68-2.59s.01-.06.02-.1c.02-.1.05-.19.05-.24.03-.13.06-.26.08-.39,0,0,0,0,0,0-.04.2-.04.41-.02.63l-.09.12s-.03-.01-.05-.02Zm6.74,2.29h-.19s0-.01,0-.02c-.03-.26-.11-.54-.26-.83v-.03c.07.09.12.18.17.27.11.22.21.42.28.62Zm-1.64-3.81c.06.15.12.3.19.45-.23-.05-.47.05-.6.26-.04.07-.07.14-.07.21-.07-.06-.13-.11-.21-.17.15-.1.3-.23.43-.37.11-.12.2-.25.27-.38Zm2.6-1.1c-.22.37-.35.76-.44,1.15-.05-.48-.07-.94-.02-1.38.12.04.26.04.38,0,.02,0,.05-.02.07-.03,0,.08.02.16.03.23,0,0-.01.02-.02.02Zm-3.37,5.03l-2.35.11c-.02-.52-.03-1.03-.02-1.61-.03-.3-.13-.56-.23-.79-.02-.05-.04-.09-.05-.13.17.08.34.15.52.22.27.11.45.2.59.29.61.43,1.12,1.13,1.42,1.61.06.1.11.21.12.3Zm-24.1,2.24l.07-.05s.08.06.12.09c-.02.06-.05.12-.08.19-.04-.07-.07-.15-.11-.22Zm-1.07,3.7c.08-.1.12-.23.11-.36.22.11.46.2.72.22,0,.04.01.08.02.12,0,.05.02.09.02.12h-.02c-.06,0-.11-.01-.17-.02-.14-.02-.29-.04-.4-.03-.12,0-.26.02-.38.06.03-.04.07-.07.1-.11Zm5.2-2.37c.07,0,.15,0,.23-.02-.13.11-.26.21-.38.29-.05.03-.15.1-.16.1-.11.02-.26.07-.34.11-.36.17-.58.43-.78.7-.37.56-.61,1.21-.71,1.86-.33-.83-.71-1.7-1.14-2.63,0,0,0,0,0,0,.17-.19.31-.39.42-.6.03-.07.07-.14.1-.22.71.4,1.62.55,2.75.42Zm13.8-1.78s0-.06,0-.09c.07-.02.14-.05.21-.08l-.22.17Zm2.2-2.69s.06,0,.09,0c0,.24,0,.49,0,.73-.19-.08-.41-.13-.65-.16-.11-.01-.21-.02-.31-.02.24-.14.48-.28.72-.43.06-.04.11-.08.17-.12Zm-6.85,12.06v.13c.02.19.04.39.06.58-.07-.13-.11-.26-.13-.37,0-.1-.02-.21-.06-.31-.04-.1-.09-.2-.16-.3.03-.03.06-.06.09-.09.18.1.2.19.21.36Zm-3.45.63c-.05.15-.1.28-.16.4-.27-.18-.55-.35-.82-.51-.29-.17-.57-.34-.83-.52.63-.36,1.25-.73,1.86-1.11.05.12.09.23.1.33.05.43,0,.91-.15,1.41Zm2.26.19c-.09-.05-.2-.09-.32-.14-.07-.02-.15-.05-.23-.08-.04-.02-.08-.03-.12-.05,0-.02,0-.05.01-.07.04,0,.08,0,.11-.01.16-.01.31-.04.46-.1,0,0,0,.01,0,.02,0,.05,0,.11.02.18.02.09.04.17.06.25Zm-.82,2.17l-.03-.14c-.05-.29-.18-.53-.33-.74.02-.04.04-.08.06-.12.05-.09.09-.17.13-.27.11.05.22.1.3.1.02.02.04.09.11.23.05.1.08.21.12.32.14.39.32.87.76,1.18.12.09.25.16.37.22-.27.18-.62.33-1.07.48-.16-.43-.31-.84-.42-1.26Zm5.06-6.4c-.27.02-.49.24-.51.52,0,.05,0,.14,0,.24-.36-.21-.72-.44-1.09-.67-.22-.14-.44-.28-.66-.41l.98-.63,1.22-.98c.11.68.2,1.28.05,1.93Zm-7.04-2.51c-.07.21-.15.42-.21.66-.11-.34-.25-.7-.44-1.06-.04-.1-.08-.21-.12-.33.33.01.66.02.99.03-.05.23-.13.46-.22.7Zm-6.4,3.26c.52,0,.96.03,1.34.08.08.01.15.02.21.03.07.44.17.87.31,1.28-.19.12-.35.26-.44.36-.34.39-.62.81-.87,1.24-.11-.12-.21-.25-.29-.36.04-.48-.02-1.02-.2-1.72-.08-.31-.18-.62-.28-.92.08,0,.14,0,.23,0Zm3.24,3.66h.02c.49.45,1.05.82,1.6,1.16.18.11.35.22.52.34.28.18.69.46.95.7.06.37.16.72.26,1.03.03.11.07.22.11.33-.79-.33-1.56-.8-2.39-1.31-.55-.35-1.13-.74-1.71-1.17.19-.37.41-.75.65-1.09Zm11.59-4.13s-.04.07-.05.1c.08-.3.12-.61.12-.91.04.02.07.04.11.06-.11.22-.17.48-.18.75Zm1.04-3.43c-.07-.22-.14-.42-.21-.62l.37-.3c-.05.31-.1.62-.17.93Zm-5.94-3.99s.06.04.1.06c-.06.04-.12.07-.17.11-.04-.04-.08-.07-.12-.11-.07-.08-.14-.16-.21-.25.04.03.09.05.14.07.08.03.17.07.27.13Zm-5.73,7.53c-.03.12-.07.24-.11.36-.04.13-.09.26-.12.39l-.26.15s-.08.04-.12.07c-.13-.37-.21-.73-.24-1.09-.02-.32-.18-.59-.48-.83-.4-.27-.8-.32-1.15-.37l-.15-.02c-.26-.02-.53-.04-.79-.05.07-.58.3-1.18.56-1.34.1-.03.19-.07.26-.11.22-.12.43-.26.64-.45.16.05.33.09.51.12,0,0,.08.01.08.01.15.02.34.05.57.03.07,0,.21-.06.3-.11.07.27.15.51.25.75.29.59.42,1.05.42,1.47,0,.31-.04.63-.15,1.01Zm-7.74-.87c-.05.02-.11.04-.16.06.03-.05.06-.07.1-.07.02,0,.04,0,.06,0Zm31.36-7.7s0,.06-.01.08h-.3s.04-.07.05-.11c.03-.07.06-.14.1-.22.06.02.12.05.18.07l-.03.17Zm0-2.45c.12-.06.24-.12.36-.18-.03.3-.07.61-.11.92,0-.21-.06-.45-.21-.68-.01-.02-.03-.04-.04-.06Zm1.46-2.18c-.07-.22-.15-.46-.22-.68,0,0,0,0,.01,0,.03.03.06.05.09.07.18.13.36.25.53.38-.13.08-.27.15-.41.23Zm1.15,3.34c.01-.18.04-.36.07-.54.04.08.1.14.17.2,0,0,0,0,0,0l-.15.6s-.01.08-.02.11c0,.26-.03.54-.08.87h0c.02-.49.02-.89,0-1.25Zm.47-1.72s.07.02.1.03c0,0,.02,0,.03,0,0,0-.02.02-.03.02-.06.04-.13.12-.2.21.04-.09.07-.18.11-.27Zm-3.21-1.64c.08-.03.16-.06.23-.09l.18.72c-.26.13-.53.26-.8.39-.02-.04-.03-.09-.04-.13-.03-.09-.06-.17-.07-.27.03-.04.06-.09.1-.14.14-.19.27-.38.41-.48Zm-3.95-3.71c-.13.03-.27.03-.41.03,0,0,0,0,0,0,.02-.02.05-.05.07-.08.04,0,.09.01.13.02l.21.03s0,0,.01,0Zm-6.04,3.93s-.02.07-.03.1c-.08-.04-.15-.07-.23-.11.11-.08.22-.16.32-.25-.02.09-.04.17-.07.26Zm-2.11,1.79c-.01.08-.03.16-.06.25-.01.04-.02.09-.03.14h0c-.07-.1-.14-.19-.19-.27,0,0-.06-.1-.06-.1-.02-.03-.06-.08-.07-.08h0c.03-.12.05-.24.07-.36.01-.1.03-.19.07-.29.13-.04.26-.09.38-.13,0,.31-.03.58-.1.86Zm-1.64-.1s-.02,0-.03-.01c-.05-.06-.1-.11-.16-.16-.02-.02-.05-.04-.07-.06.11-.02.21-.04.31-.06-.03.11-.05.2-.05.29Zm-4.64,2.92s-.01.03-.02.05c-.04.13-.03.26.02.37-.14-.17-.27-.34-.39-.51.13.03.26.06.38.09Zm-.59,5.57s.04.08.05.12c-.2.06-.37.17-.49.33-.07.09-.24.37-.14.76h-.01c-.22.14-.43.27-.65.39-.01-.05-.02-.1-.03-.15-.03-.15-.06-.32-.06-.37.03-.25.12-.5.21-.77.11-.34.23-.69.27-1.06h.46s.07,0,.1,0c.08.27.19.51.3.76Zm-7.16-4.61c-.07.15-.13.3-.19.44-.12.29-.23.56-.35.75-.59.08-1.33.12-1.9-.24-.03-.02-.05-.03-.08-.05,0-.03.01-.05.02-.08.08-.07.21-.13.34-.2,0,0,.07-.04.09-.05.14-.07.28-.14.42-.2.32-.15.65-.31.97-.52.23.05.46.1.69.15Zm-5.48-.64c-.13.07-.25.13-.36.17-.05.02-.08.02-.11.03-.04-.21-.07-.41-.11-.6.28.05.57.09.86.14-.09.09-.19.17-.28.26Zm4.05,19.15s.03-.11.03-.11l.06-.21c.34-1.16.81-2.4,1.44-3.77.5.39.98.74,1.47,1.08l.43.28c.82.54,1.67,1.11,2.71,1.49.1.02.21.04.33.05.28.01.55,0,.79-.02,0,.02,0,.04.01.06.04.19.07.41.09.59.04.42.21.87.46,1.21.39.53.92.85,1.39,1.14.49.3.91.55,1.13.98,0,.01.05.09.06.11.03.05.05.08.12.18.14.18.29.34.45.49-1.3.42-2.57.88-3.79,1.37-.83-.49-1.68-.9-2.49-1.29-.86-.41-1.66-.8-2.46-1.28-.72-.42-1.2-.77-1.62-1.16-.47-.46-.68-.84-.6-1.19Zm58.4.19l.26-.15c.26.25.51.5.78.74.02.18.02.36-.01.53-.08,0-.16,0-.23-.02-.45-.1-1.05-.34-1.54-.65.34-.07.58-.27.74-.45Zm13.68,4.87s.02,0,.04,0c0,0,0,.01,0,.02,0,0-.02,0-.03-.01Zm-4.75,1.73h-.01s0-.03,0-.03v.03Zm.03,5.16l.14-.02c.15-.03.31-.06.46-.09-.05.05-.13.1-.21.15-.1.07-.21.15-.25.22-.03,0-.1,0-.26-.02-.11-.01-.22-.03-.33-.05-.41-.07-.91-.16-1.4.06-.14.06-.27.14-.39.21-.07-.14-.15-.28-.24-.42-.01-.02-.03-.04-.04-.06.74.1,1.36.12,1.95.08.18,0,.38-.03.57-.06Zm.94,1.15c.05-.05.12-.1.19-.16.06-.04.11-.08.16-.13,0,0,0,.01,0,.02h0c-.03.21-.05.41-.07.61-.05.01-.06.02-.14.02-.05-.03-.1-.05-.16-.08-.08-.03-.17-.05-.25-.07.09-.05.18-.12.28-.21Zm2.1-1.22s-.09.02-.13.04c0,0-.02,0-.02,0,0-.07,0-.15-.02-.21.06.06.11.12.17.17Zm2.55-3.7s-.03.07-.04.11c-.03.11-.07.23-.12.35-.05-.02-.1-.04-.14-.06l.02-.05c.11-.27.22-.54.31-.82.07-.02.13-.03.21-.03.01,0,.02.02.03.03l-.26.49Zm-1.14-1.92c-.21.04-.43.09-.64.13-.18.03-.33.15-.4.32-.02.04-.04.09-.07.15-.09-.03-.2-.08-.33-.14-.15-.07-.29-.14-.43-.21l-.13-.07c-.1-.12-.25-.28-.39-.4,0-.1,0-.19,0-.29.26-.06.51-.13.77-.2l.28.14c.44.2.89.39,1.33.57Zm-3.7,3.76l-.63.1c.24-.22.47-.44.69-.67l.2.23-.26.34Zm-19.18-6.22c-.22.38-.37.86-.44,1.47,0,.06-.02.14-.02.15-.14.47-.61,1.24-1.3,2.12-.41.07-.73.04-.99-.1-.28-.16-.52-.37-.78-.61.03-.08.06-.16.1-.23.12-.23.23-.39.3-.47.96-.85,2.02-1.6,3.12-2.34h0Zm-.06-4c.26.08.53.15.81.22l-.69.39c-.06-.2-.09-.41-.12-.61Zm11.52-.67s.01,0,.02,0c0,0,0,.01,0,.02,0,0,0-.02-.01-.02Zm2.17,10.3l-.07.02-.06-.02v-.03s.09.02.13.02Zm-.94-3.62c.15,0,.22,0,.27.02-.04.08-.08.15-.11.23-.07-.09-.14-.17-.22-.24.02,0,.04,0,.06,0Zm-1.75,1.66c-.12.08-.25.16-.37.21-.03.01-.06.02-.09.03-.08-.17-.16-.38-.24-.58-.07-.18-.13-.35-.19-.53.13.03.26.06.39.09.31.07.6.14.82.26.19.1.21.19.22.36v.12c-.16-.08-.37-.07-.54.04Zm3.62-3.86s-.05.04-.07.06c-.24.22-.47.47-.7.77-.03-.02-.06-.03-.1-.05-.36-.18-.72-.2-1.02-.21-.47,0-.89.07-1.3.14l-.2.03s-.09.02-.14.02c.04-.11.09-.22.13-.33.12-.29.24-.58.35-.88.09-.02.19-.03.28-.05.31-.05.63-.1.96-.2.06-.02.13-.05.2-.1h.12c.21,0,.42-.02.63-.01.09,0,.14-.01.2-.04.19.07.37.16.54.28.05.03.09.07.14.11,0,.16,0,.31-.03.46Zm-.04-3.88s0,0,0,.01l-.04.29c-.02.11-.03.21-.04.32-.19.11-.38.22-.56.32-.13.07-.27.14-.41.19-.14-.01-.27-.02-.41-.03-.12-.39-.23-.83-.28-1.25.03-.11.08-.21.13-.31h.04c.15.02.3.04.45.05.4.03.79.05,1.18.07l-.05.34Zm-6.66,7.22s-.06,0-.09,0h0s-.03,0-.04,0h0c-.26-.01-.5,0-.73.05-.35.08-.67.17-.97.27.51-.24.85-.5,1.04-.8.17-.24.26-.56.26-.94,0-.06,0-.12,0-.18.11.36.23.74.33,1.05.07.19.14.38.21.57Zm3.44,1.66c-.07.1-.13.19-.2.28-.1-.01-.26-.04-.34-.05.21-.07.4-.16.54-.23Zm-1.46-5.49c-.11.26-.22.53-.34.79l-.14.33v-.04c-.1-.35-.26-.65-.47-.91.28-.08.55-.15.79-.2h0c.05.01.1.02.15.04Zm-4.23-2.24c0,.15-.02.29-.05.44-.01.04-.02.09-.02.14-.04.23-.05.46-.06.69-.61.03-1.21.11-1.79.18-.33.04-.65.09-.97.12-.35.03-.65.08-.92.14h0s.64-.42.64-.42c.12-.08.29-.19.39-.27,0,0,.02-.01.02-.02.13-.11.26-.24.39-.37l.43-.46c.54.02,1.03-.03,1.5-.1.14-.02.28-.04.43-.07Zm-7.46-2.13h-.04s0,0,0,0h.03Zm-6.5-7.42l.22.51-.32-.47-.14.06s-.1-.03-.15-.04c.16-.17.32-.34.48-.51.07.11.15.22.22.32l-.3.13Zm-.39,3.81c.47.34.92.72,1.38,1.12,0,.02,0,.04-.01.06-.29.08-1.01.03-1.38,0-.01,0-.02,0-.03,0,0-.09.01-.18.01-.27,0-.32-.02-.64-.07-.98.03.02.06.05.1.07Zm-.55-9.57c0-.1,0-.21,0-.28,0-.12,0-.25-.01-.37.2.09.43.18.65.26.38.32.75.54,1.12.68-.21.48-.49.97-.82,1.46-.22-.27-.44-.55-.67-.82,0-.02,0-.04-.01-.06v-.05c.05-.09.09-.2.09-.32,0-.23-.14-.42-.34-.51Zm.54-1.81s-.05-.05-.06-.06l.1-.02c.06.03.12.05.18.08-.08,0-.15,0-.22,0Zm2.4,4.68c.05.07.11.15.17.22.22.28.5.53.85.76-.01.11-.02.22-.03.33-.07.08-.19.18-.37.32-.09.07-.19.14-.3.22-.27-.37-.54-.73-.82-1.08l-.02-.02c.19-.26.36-.51.52-.75Zm8.42,17.38c.07.08.13.15.2.23-.03.11-.06.22-.1.33-.09.02-.17.04-.26.06.07-.2.12-.41.15-.63Zm5.15,2.59c.09-.03.18-.04.27-.05.04.04.09.07.13.1.18.15.36.29.46.43.07.24.16.47.31.71.23.4.47.72.78,1.05.03.03.07.06.11.1-.06.05-.12.09-.18.14l-1.09-.21c-.21-.51-.44-.95-.71-1.38-.16-.26-.33-.51-.5-.76.14-.04.28-.09.43-.13Zm7.61-10.89c-.21-.02-.42-.04-.63-.06.22-.11.44-.22.67-.33,0,.12-.02.25-.04.39Zm-7.77,4.36c.19.15.39.29.6.42-.05.02-.1.04-.16.07-.14-.05-.28-.08-.44-.12,0-.12,0-.25,0-.37Zm-22.45-18.89c-.29-.19-.57-.29-.84-.34.03-.12.06-.25.08-.35.09-.03.2-.06.3-.1.16.07.32.15.48.23.06.03.12.06.18.09-.07.15-.15.3-.21.47Zm-7.98-8.62c-.06-.35-.12-.7-.18-1.04l.08-.08c.02.39.17.71.42.91-.11.07-.22.14-.32.21Zm-6.51,1.77s-.08-.02-.11-.03c.02-.08.04-.17.06-.25.03.04.07.07.1.11-.02.06-.03.12-.05.18Zm-5.81,2.91s-.05,0-.08,0c-.1-.08-.18-.24-.26-.42l-.06-.13c-.04-.08-.1-.14-.17-.19l-.08-.2s-.08-.14-.1-.16c0-.01-.07-.09-.07-.1-.08-.09-.16-.18-.25-.25l.03-.06s.09-.01.13-.02c.05.21.14.39.25.55.06.08.14.15.21.19.18.18.32.43.46.78Zm-1.26-.82h0s0,0,0,0Zm-7.06,3.04c-.05-.02-.11-.03-.17-.04-.19-.33-.46-.63-.84-.87.05-.32.09-.64.13-.97,0-.04,0-.07.01-.11.58.14,1.16.29,1.74.43-.32.49-.6,1.01-.87,1.56Zm-10.6,2.25c-.09,0-.18,0-.31.02-.09.01-.21.03-.37.08-.02-.04-.04-.09-.06-.13.13-.01.26-.02.38-.04.17-.02.34-.03.51-.05-.05.04-.1.07-.15.12Zm-2.33.72c-.08-.04-.15-.08-.23-.11.08-.02.16-.04.25-.08.14-.06.27-.14.4-.26.05.07.1.14.13.22,0,0,0,.01,0,.02-.18.05-.37.12-.56.22Zm-1.46,1.38l.14.03c.2.04.44.08.69.08-.05.05-.09.09-.12.14-.21.26-.28.57-.27.86-.15-.15-.34-.27-.56-.34l-.22-.83c.11.01.23.04.34.06Zm1.46,3.05c.06.07.12.13.18.2,0,.05,0,.1,0,.14,0,0-.02,0-.02.01-.11-.09-.25-.18-.42-.23.09-.03.17-.08.25-.12Zm18.31,10.24l-.07.17c-.07.19-.14.39-.2.58-.06-.03-.11-.07-.16-.1-.29-.2-.33-.28-.35-.41l-.55.1.52-.26c-.03-.19-.07-.39-.11-.6.6-.18,1.12-.4,1.56-.66-.31.37-.5.84-.64,1.18Zm7.83-10.54s.02,0,.03,0c.28-.06.57-.12.84-.17.16-.03.34-.06.51-.12-.46.33-.93.72-1.42,1.17,0-.28.02-.57.04-.86Zm8.18,4c.27-.25.54-.49.82-.73l.6-.54c.06-.06.12-.11.18-.17.18.41.37.76.52,1.02.18.33.38.64.57.96.12.19.23.37.34.55-.67-.22-1.38-.28-2.02-.33l-.44-.04h0c-.2-.02-.45-.04-.69-.09.04-.24.08-.46.11-.63Zm24.3,16.21s0,.04-.01.06c-.09.47-.18.96-.24,1.46-.2.03-.4.06-.6.09l-.55.08c-.3.04-.59.09-.85.11-.02,0-.03,0-.04,0,.4-.48.74-.95,1.03-1.36.39-.16.8-.3,1.26-.45Zm13.59,6.59c.49-.23.77-.55.93-.86.16.1.32.23.49.35l.14.11s.05.1.05.1c.08.15.17.35.36.53.04.04.09.07.13.1-.8-.06-1.61-.13-2.41-.2.11-.04.21-.09.31-.14Zm3.27-.59c-.19,0-.38,0-.5-.09,0-.01-.01-.03-.02-.04.38-.03.66-.01.88.06.05.03.11.05.17.07-.02.04-.03.08-.05.12-.1-.08-.22-.13-.35-.13h-.14Zm4.49-10.94c-.21-.1-.49-.03-.67.13l-.21.05c.09-.1.19-.19.28-.25.09-.04.17-.09.27-.18,0,0,.01-.01.02-.02.09.09.2.17.34.23.02,0,.04.02.06.02-.03,0-.06,0-.08.01Zm-.87-1.73c-.02.1-.05.21-.08.29-.03.07-.09.21-.14.28-.05.02-.1.04-.15.07,0,0,0,0,0,0l.02-.27c.03-.31.06-.62.11-.92.14.06.29.13.41.22-.09.08-.15.19-.17.32Zm-4.64,1.86s.03-.07.05-.11c.08.02.16.04.23.06h0c-.09.03-.19.06-.29.09v-.02s0-.02,0-.03Zm-4.02-7.98s.07,0,.11,0c.13-.02.38.1.59.2,0,0,.02.01.03.02-.43.21-.87.43-1.31.63-.16.08-.28.23-.31.41,0,.03,0,.06-.02.09-.02,0-.04.02-.06.02l-.15.07c-.18-.03-.37-.05-.55-.08.62-.3,1.31-.75,1.67-1.35Zm-18.72-9.7c.16-.47.26-.96.32-1.46,0,0,0-.02,0-.03.23-.03.43-.06.6-.08,0,0,0,.01.01.02.27.43.52.87.77,1.31-.39.3-.87.73-1.2,1.28,0,.01-.02.03-.02.04-.01.02-.03.05-.04.07-.08-.12-.16-.25-.24-.4-.08-.14-.18-.3-.3-.45l.11-.29Zm-1.25-4.2s-.04.1-.07.17c-.07-.07-.15-.13-.22-.16-.06-.03-.15-.07-.22-.11-.04-.15-.11-.28-.2-.39.15-.05.3-.1.43-.17.15-.08.41-.27.62-.45,0,.13,0,.27.04.41-.15.24-.27.48-.37.71Zm-8.8-1.76l-2.06.1c.07-.61.14-1.38.12-1.82,0-.06-.01-.11-.03-.16.02,0,.03-.02.05-.02.27-.12.38-.09.47-.05.2.08.39.18.57.28l.3.16s.1.05.16.08l.61,1.19-.19.26Zm-5.8-7.38s.03.1.06.25c0,.03.01.05.02.08-.17,0-.36.02-.54.03-.11-.28-.25-.54-.35-.71.03,0,.07,0,.1,0h.17c.08.05.17.11.26.18.1.08.21.15.28.17Zm-5.76-2.22s-.06-.03-.09-.04c.04-.05.08-.09.11-.14,0,.06-.02.12-.03.18Zm-1.98,3.64s-.07.03-.11.04c-.01-.23-.17-.44-.39-.52-.05-.02-.1-.03-.15-.03.13-.17.26-.33.39-.49.13.1.26.21.38.32-.07.14-.11.28-.14.43,0,.07-.01.16.01.26Zm-1.95-1.77s-.01.08-.02.11c0,.12-.02.24-.03.36l-.16.2c-.17.21-.37.45-.57.64-.2.22-.43.42-.69.62.02-.16.03-.31.05-.47l.03-.27c.04-.3.08-.61.13-.93.03-.23.07-.45.1-.68l.62-.08c.16-.02.3-.11.39-.24.11.04.21.06.31.08l-.16.66Zm-3.58,1.76c.15.26.33.52.6.72l-.02.31s0,.04,0,.05c-.3.13-.62.24-.94.33-.02-.31-.11-.6-.18-.86,0,0-.03-.1-.03-.11,0-.01,0-.02,0-.04.22-.08.43-.22.58-.4Zm-14.85,4.86s.09-.05.1-.06l.18-.11s.13-.03.23-.05c.24-.02.45,0,.65.07.08.05.16.1.23.13.34.15.68.26,1.01.37.02,0,.04.01.07.02l-.04.33c-.09-.02-.18-.04-.26-.06-.16-.12-.39-.16-.59-.11-.33-.06-.65-.11-.98-.16-.33-.05-.66-.1-.98-.15.07-.04.15-.09.21-.13.06-.04.12-.07.17-.11Zm-2.69-1.3s0,0,0,0c.15.03.31.06.46.09-.21.22-.4.45-.59.69-.02-.04-.05-.07-.07-.11.13-.22.2-.45.19-.67Zm-1.5-.09c-.07.08-.19.18-.37.33l-.32.25s-.06.04-.08.07l-.11-.18-.11-.18c.24-.15.47-.31.7-.5,0,0,0,0,0,0,.24-.21.29-.43.3-.59.02.02.03.05.05.07-.04.26-.06.5-.06.74Zm-2.57.64s-.06-.02-.09-.02l.03-.06s.04.05.06.08Zm-3.63,11.36l.1.04s0,0,0,0v.08s-.02.03-.02.04c-.04-.06-.08-.12-.12-.18.01,0,.03.01.04.02Zm3.92,3.46s.07-.07.09-.11c.03-.04.05-.08.08-.12.05,0,.09.01.14.02l.3.04-.07.47c-.47.35-1.55.77-1.75.73,0,0,0,0-.01,0,.4-.31.81-.65,1.23-1.03Zm19.08,3.28s.05-.09.08-.12c.07-.07.15-.13.24-.2-.06.24-.11.48-.15.7-.05.05-.1.1-.15.16-.07.08-.18.19-.26.27-.06,0-.12,0-.18,0-.11.01-.22.03-.32.07.3-.26.54-.55.74-.87Zm7.95-8.83c.15-.17.27-.35.37-.51.04-.07.08-.13.15-.22l.3-.09c.22-.07.44-.13.65-.21.03.01.06.02.06.02.08.04.16.08.25.12-.5.21-1.04.46-1.54.76-.08.05-.16.09-.23.14Zm4.69-2.07s.02.05.03.07c0,0,0,.02.01.02l-.38.13s-.07,0-.1-.01c-.06-.01-.12-.02-.19-.02.21-.06.42-.13.63-.19Zm28.03,26.08c.12,0,.24.04.36.06.09.02.18.04.27.06.52.1,1.04.19,1.56.28.05.3.17.55.38.73.04.16.08.32.11.48-.89-.4-1.76-.84-2.63-1.32-.16-.09-.32-.18-.49-.28.15,0,.3-.01.45,0Zm5.02,1.18h.21c.3-.01.54-.26.54-.57,0-.01,0-.02,0-.04.22-.17.44-.35.68-.57.33.23.65.37.95.42.09.04.26.35.35.53.12.22.25.47.43.69-1.09.32-2.21.6-3.29.86l-.15-.05s-.05-.02-.08-.02c-.03-.42-.08-.81-.15-1.19.17-.03.33-.05.5-.06Zm12.49,1.62s-.04.01-.05.01c-.3.09-.6.2-.9.34.07-.13.14-.25.21-.38.05-.06.09-.13.12-.21.03-.05.07-.11.11-.16.05,0,.11-.01.16-.02.23-.03.46-.05.63-.02.1.05.19.1.29.14-.2.08-.39.18-.58.28Zm4.73-2.02c.08-.11.17-.21.25-.32,0,0,.02,0,.02,0,0,0,0,0,0,0l.12.24c-.05.03-.11.06-.16.1l-.24-.03Zm-.13-5.66s0,.05,0,.07c-.12-.05-.23-.1-.35-.15v-.02c.23-.2.36-.32.45-.41-.06.18-.08.37-.09.52Zm-7.91-5.93c0-.05.02-.11.02-.18.05.14.1.27.15.41-.04.06-.07.13-.08.2-.04-.09-.08-.18-.12-.27l.03-.16Zm-1.72,1.48c-.03.11-.06.22-.1.32,0,0-.02,0-.03,0-.09-.11-.19-.21-.29-.3-.09-.09-.2-.18-.33-.29l-.12-.7c.25-.16.5-.3.78-.4.2-.08.36-.2.49-.34-.12.59-.26,1.17-.4,1.7Zm-2.47-7.6c-.1-.02-.24-.04-.38-.04-.02-.14-.06-.27-.11-.39.28-.06.5-.21.63-.31.03,0,.05-.02.08-.02l.22.91c-.15-.06-.29-.11-.44-.14Zm-13.9-.99c-.54.18-1.16.39-1.67.87-.16.17-.29.23-.6.1-.17-.07-.36-.16-.56-.27-.54-.27-1.21-.62-1.87-.62-.29,0-.58.07-.85.23-.02.01-.04.02-.06.04-.22-.21-.46-.43-.71-.65.24-.18.43-.4.58-.65.09-.15.15-.31.19-.49.16-.09.33-.17.49-.26.08.09.16.19.25.28.23.23.47.27.63.26.37-.03.58-.31.72-.5l.19-.27c.34-.47.69-.95,1.18-1.26l.34.06c.06.23.12.43.21.61.24.54.67,1.01,1.33,1.44.54.3,1.07.33,1.54.35l.45.03s.08,0,.13,0c-.03.06-.06.13-.08.2-.52.13-1.05.27-1.58.43l-.24.08Zm-.99-5.74c-.04-.08-.09-.16-.13-.24.02,0,.03,0,.05-.01,0,0,.05-.02.06-.02.04-.01.08-.03.13-.05-.04.11-.08.22-.11.32Zm-12.27-4.86l-.05.02.04-.16v.13Zm-.82.09l.05-.08s.05.07.08.11c-.04,0-.08-.02-.13-.02Zm-13.2-14.95c-.16.06-.29.19-.34.37,0,0-.03.13-.06.23-.03.04-.07.09-.1.13-.07-.18-.13-.36-.19-.55-.03-.08-.05-.17-.07-.27.03-.05.07-.09.1-.14h0c.14,0,.29,0,.43,0,.09.05.18.09.27.14-.02.03-.03.05-.05.08Zm-13.2,6.8s-.1-.06-.16-.1c-.11-.08-.26-.17-.44-.24,0-.01,0-.02,0-.04.08-.04.17-.08.25-.11.07-.03.14-.06.21-.1.08.18.17.36.27.53-.05.02-.1.04-.15.06Zm-17.5.9s-.08-.07-.12-.1c-.05-.15-.09-.29-.1-.41.12.16.23.31.35.46-.04.02-.09.03-.14.05Zm-7,18.65c.36.1.72.2,1.08.29.03.04.07.08.11.11.16.12.38.15.56.07.85.22,1.75.44,2.7.59-.17.48-.34.95-.51,1.43l-.31-.12-.02-.02c-.08-.12-.22-.2-.36-.24-.09-.02-.18-.01-.28.01-.25-.1-.5-.19-.77-.29l-.38-.12c-.14-.11-.28-.22-.43-.3-.26-.15-.62-.02-.77.24-.24.05-.47.11-.68.19-.08-.6-.17-1.2-.26-1.79l.32-.06Zm20.86,15.51c-.13.07-.26.15-.35.22-.02.01-.04.02-.06.04l-.32-.08s.06-.05.08-.07c.46-.32,1.04-.6,1.54-.83.02,0,.04-.02.06-.03-.23.22-.47.43-.72.61-.07.05-.15.09-.24.14Zm10.08-.81c-.06,0-.11.01-.18,0-.49.01-.93.06-1.38.12-.14.02-.28.04-.41.06.13-.24.24-.48.36-.72.15-.32.29-.64.42-.97l.06-.15c.24-.49.77-.82,1.18-1,.29.2.59.4.87.6.57.4,1.23.88,1.85,1.39-.16.54-.31,1.09-.47,1.63-.04-.05-.08-.1-.12-.15-.07-.08-.34-.37-.65-.52-.49-.26-1.05-.31-1.53-.31Zm12.3-11.32l.13.03c.34.08.71.14,1.11.18,0,0,.01.02.02.03.82,1.1,1.58,2.24,2.4,3.49-.6.21-1.18.45-1.75.69l-.37.15c-1.76-2.28-2.39-3.57-2.59-4.28.36-.09.71-.19,1.06-.29Zm10.12,2.95s.02.05.03.07c-.1,0-.19.04-.28.09-.05.03-.09.07-.13.12,0-.05,0-.1,0-.14.12-.05.24-.09.37-.13Zm37.34,3.04c-.06.14-.12.27-.2.41-.06-.04-.13-.07-.2-.11-.16-.08-.33-.16-.5-.24-.09-.11-.19-.22-.29-.31.13,0,.26-.01.4,0h.22s.02.01.04.01c.16,0,.3-.07.4-.18.06.11.12.22.17.32,0,.02-.03.1-.03.1Zm-9.93-8.81s-.08-.08-.11-.11l-.07-.22c.13-.3.04-.64-.07-.91,0,0,0,0,0-.01.02.05.05.09.07.14l.42.89s.02.05.04.08c-.09.05-.18.1-.27.15Zm-11.05-.18c-.3-.29-.56-.57-.79-.86-.02-.03-.05-.06-.07-.09.29-.07.58-.13.88-.2.04.5.03.87-.02,1.14Zm-2.17,1c-.6.06-1.34.15-1.89.65-.21.18-.33.42-.45.69-.18-.07-.37-.14-.55-.2-.28-.1-.56-.21-.89-.33-.42-.15-.83-.3-1.31-.43,0,0-.11-.03-.12-.03-.21-.05-.43-.1-.68-.11-.3-.22-.58-.48-.87-.76.11.04.21.08.31.12.11.05.23.11.36.17.65.32,1.54.75,2.42.18.11-.08.23-.16.39-.32l.08-.09c.3-.24.73-.4,1.15-.55l.14-.05c.39-.13.78-.25,1.18-.37.2.47.56.97.91,1.39l-.17.02Zm-.64-4.77s-.07,0-.1,0h-.43c-.31,0-.66,0-.82-.07-.11-.06-.26-.17-.39-.28.75.1,1.49.18,2.22.23,0,.04.01.09.02.13-.17-.01-.34-.01-.5-.01Zm.74-5.07c-.03.08-.09.16-.16.26-.05.06-.14.19-.21.24-.06,0-.12.02-.17.04-.08.03-.16.06-.24.09.04-.1.07-.21.09-.34.01-.07.03-.15.06-.25h0c.2-.01.42-.02.64-.07,0,0,0,.01-.01.02Zm-7.55-6.37c-.32-.61-.69-1.22-1.18-1.74-.06-.06-.11-.12-.17-.17.15-.06.3-.1.45-.15.37.64.73,1.28,1.08,1.92-.06.05-.12.09-.17.14Zm-5.69-2.65c.21.13.47.3.83.34.03.04.06.08.09.11.18.19.37.34.57.47-.08.18-.16.37-.23.57-.1.32-.02.54.07.68.2.32.54.37.78.4l.32.05c.35.05.7.1,1.02.19l-.06.03c-.05.03-.1.07-.14.12-.08.1-.36.17-.58.22-.47.09-.78.06-1.03-.12-.3-.19-.57-.43-.86-.68l-.3-.25s-.1-.08-.11-.09c-.15-.13-.41-.34-.82-.34-.01,0-.03,0-.04,0-.41.05-.62.39-.69.51l-.12.2c-.07.13-.15.26-.16.33,0,0-.11-.02-.11-.02-.22-.05-.46-.1-.68-.14l1.86-2.82.23.14c.06.03.12.07.18.11Zm-11.17-6.28c.04.1.1.19.15.29.05.09.11.18.17.27-.14-.05-.29-.08-.46-.08-.02,0-.04,0-.06,0-.06,0-.12,0-.18.01.12-.16.25-.33.38-.49Zm-7.85-1.25c.04-.12.09-.26.12-.43.07.02.14.04.23.05.11.35.24.71.41,1.06l-.11.13c-.08.1-.16.2-.24.3-.11-.02-.22-.04-.33-.05-.06-.23-.08-.48-.11-.75v-.18s.03-.11.03-.12Zm-7.37,2.84c.09.03.18.05.29.07.02.02.05.05.07.07-.02.05-.05.09-.07.14-.07-.02-.14-.03-.21-.03-.05-.09-.1-.19-.16-.28.02.01.05.03.08.04Zm-11.78,4.83c-.11,0-.23.01-.34.02,0,0,0,0,0,0-.08-.06-.15-.11-.22-.15-.13-.08-.28-.13-.44-.16,0-.08,0-.17,0-.26.33,0,.69-.04.97-.19.09,0,.24-.02.39-.08-.12.27-.26.57-.35.81Zm-15.22,15.9c-.16.03-.31.05-.47.08.15-.05.29-.12.42-.22l.05.13Zm-.83.15c-.24.05-.46.09-.68.14,0-.01,0-.02,0-.03.06-.1.08-.13.14-.13.02,0,.05,0,.08,0,.15.02.3.03.46.02Zm11,.61l.09-.49.22.15c.03.08.04.17.04.23-.04.04-.11.1-.19.15-.08.01-.14.04-.2.09.01-.05.02-.09.03-.14Zm18.5,18.61h.15c.35-.03.69-.05.98-.02.29.44.53.93.77,1.41l.07.14c.04.08.08.17.12.26-1.28-.53-2.56-1.05-3.85-1.56.64-.1,1.24-.18,1.75-.22Zm17.48-15.77s-.02-.03-.03-.04c-.01-.02-.02-.03-.03-.05.96-.39,2.02-.85,3.26-1.42l.34-.16c.48-.23,1-.47,1.33-.65.34-.12.74-.19,1.26-.18.19,0,.39.02.62.05.04.13.08.26.12.39.21.89.2,1.59-.03,2.15-.04-.11-.1-.23-.17-.33-.04-.05-.08-.1-.18-.23-.15-.26-.51-.34-.78-.2-.26.15-.36.47-.22.74.05.09.11.18.17.26l.09.16c.02.08,0,.19,0,.31,0,.13-.01.26.02.33-.01.02-.06.07-.17.19-.08.08-.16.16-.25.23-.22.2-.49.44-.66.76-.28-.61-.64-1.12-1.05-1.5-.29-.29-.71-.51-1.13-.6-.84-.19-1.67-.21-2.48-.22Zm19.5,17.92c.62.32,1.27.63,1.93.93.15.27.29.56.42.85.17.38.32.79.48,1.26-.23-.04-.46-.08-.68-.15l-1.36-.5c-.64-.3-1.26-.7-1.9-1.21-.18-.15-.36-.31-.54-.47l1.66-.71Zm6.88,2.71c.6.16,1.2.3,1.78.41.92.17,1.79.28,2.59.32.59.03,1.19.04,1.78.05l.66.02.12.33s.02.07.04.11c-.18.19-.36.38-.53.57-2.32-.65-4.43-1.05-6.43-1.2v-.24s0-.38,0-.38Zm16.25-15.1c.07.11.14.22.22.33-.02,0-.04,0-.07,0,0,0,0,0,0,0-.31-.02-.84-.04-1.22-.04-.06,0-.12,0-.17,0-.06,0-.1,0-.13,0,0,0,0-.01,0-.02.01-.05.03-.11.04-.16.04-.14.08-.28.09-.39.09-.54-.23-1.03-.56-1.3-.1-.08-.19-.15-.29-.22.3-.03.57-.14.76-.31.3.48.6.96.91,1.43.13.22.28.44.42.67Zm-5.35-2.41s0,0,0,.01c-.02.05-.04.1-.05.14-.02-.06-.04-.11-.06-.17-.01-.07-.03-.13-.07-.2-.02-.06-.03-.13-.04-.2.03-.04.06-.09.1-.13.1-.13.19-.26.28-.37l.04.02c.07.04.14.09.21.13-.15.24-.29.49-.4.76Zm-9.45-6.19c-.03.09-.07.19-.1.28-.19.05-.39.1-.58.17l-.04-.72c.16-.01.33-.02.5-.02h.27s.03,0,.04,0c-.03.1-.06.2-.1.3Zm-10.21-9.71l-.04.11c-.1.23-.19.48-.29.73-.06.15-.12.3-.18.45,0-.21-.03-.42-.06-.63-.18-1.04-.6-1.98-1.09-3.01-.18-.37-.37-.73-.56-1.1.34.28.81.58,1.29.67.09.04.26.35.35.53.22.41.49.92,1.02,1.17-.15.36-.29.71-.43,1.07Zm-19.76-15.5c-.06,0-.12,0-.19.01-.04,0-.08,0-.11,0-.06,0-.12,0-.18.02-.1-.16-.28-.26-.47-.26-.03,0-.06,0-.09,0-.1.02-.18.06-.26.11-.01-.03-.02-.05-.04-.06.09-.09.16-.19.24-.29.07-.1.14-.19.21-.24l-.04-.05s.05-.02.06-.03c0,0,.03,0,.05-.01.1.13.2.25.32.37.09.09.22.22.47.33.09.03.19.05.29.07.01.01.02.02.03.03-.09-.02-.2-.03-.3-.02Zm-11.3-.13c-.02-.05-.04-.11-.06-.16.02,0,.04.02.06.03.04.02.08.04.12.05,0,0,0,0,0,0-.04.02-.08.04-.12.07Zm-9.23,4.36c-.06.05-.15.1-.27.16.02-.1.03-.19.05-.28,0,0,.03-.12.03-.12,0-.04.02-.1.01-.1.02,0,.03-.02.05-.03.04.02.08.04.12.06.02.03.04.07.07.1-.02.07-.03.14-.05.2Zm-.85-1.99s.07-.08.1-.12c0,.05,0,.09,0,.14-.03,0-.07-.01-.1-.02Zm-.12-1.67c-.11-.02-.26-.09-.46-.18,0,0,0,0-.01,0,.02-.03.03-.05.05-.06.03-.01.18-.08.2-.1.08-.05.15-.13.19-.21.19.02.36-.02.51-.09.01.03.02.05.04.08.06.11.15.19.26.24,0,0,0,.01,0,.02-.24.07-.5.17-.78.31Zm-17.88,5.78c-.08-.13-.18-.27-.33-.39-.17-.15-.41-.25-.71-.33.07-.15.12-.3.16-.46.13.11.26.2.41.28.15.08.3.16.46.24.02.27.02.49,0,.66Zm-.24,3.29c.07.02.16.05.28.06-.08.09-.15.19-.2.29-.01,0-.03-.01-.04-.02,0-.08-.02-.17-.04-.28,0-.02-.01-.04-.02-.07,0,0,.02,0,.03,0Zm-1.8,1.6v.02c.11.17.2.32.19.47,0,.01-.02.03-.02.04-.11-.16-.2-.3-.26-.43l.1-.09Zm-9.68,4.08l-.06.12c-.03.07-.05.15-.05.23-.04.08-.14.2-.22.3-.03-.13-.09-.27-.19-.4-.27-.4-.44-.87-.62-1.38-.03-.08-.06-.17-.07-.27.03-.05.06-.09.1-.14.07-.1.14-.2.21-.29l.72,1.48c.06.12.12.23.18.34Zm-2.76,2.89s.03.05.04.07c0,0-.02-.01-.02-.02,0-.02,0-.04-.01-.05Zm-7.7,17.63c-.13.06-.28.14-.4.27-.04.03-.07.07-.11.11l-.39.03s-.1-.06-.16-.09c-.14-.06-.28-.09-.41-.1.08-.11.16-.2.24-.29.02,0,.1-.01.11-.01.43-.02.8.02,1.12.09Zm20.76,9.34l-.04.11c-.05.15-.1.3-.15.44-.97-.39-1.94-.78-2.9-1.18h-.02c.07-.04.15-.07.23-.09.97.31,1.97.53,2.87.72Zm3.6-3.61s0-.01.02-.03c.23-.02.48,0,.76.03h.12c.86.11,1.73.29,2.55.47l.49.78c-.17.03-.33.05-.48.05-.55,0-1.14-.01-1.73-.05-.75-.05-1.52-.11-2.3-.19.17-.37.35-.75.56-1.06Zm-2.04-6.22c-.09-.28-.18-.56-.26-.84l-.08-.28c-.16-.58-.32-1.12-.36-1.67.08-.53.24-1.07.41-1.63l.05-.17c.16.05.32.09.49.13.01,0,.15.02.16.02,0,0,.11,0,.12,0,.77,0,1.53-.05,2.29-.09l.64-.03c.3-.02.54-.36.52-.66-.01-.3-.25-.53-.55-.54h-.8c-.69,0-1.39,0-2.07-.04-.11-.03-.24-.08-.37-.12.22-.7.44-1.39.68-2.09l.17-.5c.13.07.25.15.39.24,1.04.51,3.1-.46,3.7-1.03.02-.02.04-.05.06-.07-.04.14-.09.3-.14.5l-.15.56c-.04.15-.02.32.07.45.31.47.65.86,1.07,1.21.52.42,1.1.7,1.67.95-.15.4-.3.84-.42,1.28-.21.76-.14,1.66.19,2.39.96,2.12,3.6,3.5,5.93,4.71.09.05.18.09.26.14-.53.29-1.08.62-1.58,1.05-.64.57-1.3,1.11-1.98,1.6-.89-.22-1.79-.42-2.69-.61l-2.46-3.68c-.08-.12-.21-.21-.35-.24l-4.58-.93Zm15.24,9.17l-.35.19h-4.47l-.06-.09c.49-.27,1-.59,1.56-.97.99.27,2.14.58,3.32.86Zm2.45-3.4c.22.15.44.3.65.45.24.18.35.28.38.31.08.2.23.37.41.51l-.77.42c-.49-.18-.92-.32-1.39-.45-.13-.03-.3-.07-.5-.07-.02,0-.03,0-.05,0,.45-.35.86-.76,1.27-1.18Zm1.6-.7l-.11-.07c-.25-.15-.5-.3-.76-.43.79-.3,1.63-.59,2.53-.89.34-.11.68-.21,1.02-.32-.21.72-.48,1.4-.79,2.07-.09.19-.19.38-.29.54-.26-.03-.54-.09-.76-.19-.02,0-.03-.01-.04-.02-.02-.03-.04-.06-.06-.09-.23-.28-.5-.46-.74-.61Zm5.87-6.25c-.47.05-.92.13-1.35.22l-.32-.23c-.42-.29-.86-.6-1.11-.87-.13-.25-.29-.48-.47-.68.05-.2.1-.41.16-.61.13-.46.25-.82.39-1.11.92-.08,1.67-.92,1.87-1.77.03-.06.05-.19.05-.26.04-.72.12-1.35.26-1.94.85-.18,1.66-.22,2.14-.08.04.01.08.02.12.02.44.8.9,1.58,1.42,2.38.21.31.43.64.69.97.02.03.04.05.06.08,0,.02,0,.04,0,.05.02.33.03.68.05,1.04.01.36.02.72.05,1.06.03.46.08.98.23,1.46-.03.51-.14,1.05-.26,1.58-1.17-.89-2.34-1.35-3.48-1.35-.16,0-.33,0-.49.03Zm6.66,3.83c.08-.4.17-.8.25-1.22l.05-.27c.14-.79.28-1.62.3-2.51,0-.24-.01-.56-.14-.92-.11-.27-.15-.52-.2-.9-.04-.33-.07-.66-.09-.99l-.06-.66s-.01-.11-.01-.11c-.04-.34-.07-.7-.2-1.1-.11-.37-.33-.69-.62-.9-.03-.03-.05-.06-.07-.07-.08-.1-.16-.2-.24-.3.26-.17.55-.34.88-.54l.46-.26c.57-.32,1.14-.64,1.71-1.01.15.14.31.26.47.38-.37.17-.76.43-1.07.82-1.27,1.6-.53,3.67.13,5.1.73,1.52,1.63,2.85,2.44,3.97-.11.23-.22.46-.32.68,0,0,0,0,0,.01l-.03.08-.06.02c-1.2.56-2.22,1.21-3.03,1.94-.2-.32-.4-.64-.62-.94l.06-.31Zm7.68,8.27l-.61.64c-.14.07-.27.13-.4.2-.38.2-.74.41-1.11.64-.06.04-.12.08-.17.11,0-.04-.02-.08-.03-.12l1.21-1.81,1.11.33Zm3.23-6.81l.07-.02c.11,1.02.22,2.05.32,3.02l-.4.43-1.73-.83,1.74-2.6Zm-.11-9.53s.08,0,.13.01c.25.03.49.07.72.13.16.05.22.07.27.11.5.42.86,1.1.98,1.87.03.22.07.45.11.67-.13-.01-.26-.02-.39-.02-.46-.75-.92-1.49-1.42-2.22-.13-.19-.27-.37-.4-.56Zm4.27,13.91c.11-.13.15-.29.12-.45l-.1-.55c-.2-1.16-.42-2.46-.65-3.75.44.62,1.23,1.02,1.87,1.34-.12.41-.16.81-.15,1.2.01.48.18.91.33,1.28l.07.18c.37.88.83,1.89,1.56,2.77l-.27,1.47s-.09,0-.14.01c-.58.04-1.19.06-1.82.08-.23,0-.47.02-.7.02l-1.12-2.43.99-1.18Zm37.64,2.87s-.04-.08-.08-.11c-.22-.21-.56-.21-.78,0-.06.06-.12.12-.17.18,0,0,0,0,0,0-.17.18-.43.46-.65.72l-.7-.02s-.01-.01-.02-.02c-.11-.13-.24-.22-.38-.29.7-.22,1.43-.52,2.17-.87.42-.1.83-.2,1.25-.29-.12.12-.23.24-.34.36-.1.11-.2.22-.31.34Zm4.78-2.96s-.02,0-.03.01c-.03-.04-.07-.07-.12-.1,0,0-.12-.07-.22-.19-.04-.05-.08-.1-.11-.17l.08-.06c.35.06.7.15,1.03.27-.19.09-.41.17-.63.24Zm-12.98-17.83l-.09-.17c-.07-.14-.15-.3-.22-.45-.07-.14-.14-.29-.21-.43.06.02.12.04.18.06l.03.09s.03.07.05.1c.1.16.18.33.26.5v.31Zm-1.67-2.56l-.17-.05h0s.02-.03.02-.03l.15.09h0Zm-11.97-11.88c.14-.12.29-.25.44-.36l-.03.14s-.02.1-.02.11c0,.04-.02.1-.03.14-.08,0-.21,0-.35-.03Zm-20.27-11.52c-.16.06-.27.18-.33.32-.04-.05-.09-.11-.14-.15-.02-.1-.04-.19-.08-.28.29-.03.58-.07.86-.1.03.07.06.14.08.21-.13-.04-.27-.05-.4,0Zm-3.2-1.72c-.11-.16-.2-.31-.26-.44.1.05.22.1.35.14-.04.1-.07.2-.08.31Zm-10.05-.16c.17,0,.36.04.57.1l-.09.11c-.08-.02-.17-.05-.26-.08-.05-.02-.1-.02-.15-.02-.05,0-.09,0-.14.02-.01-.04-.03-.08-.05-.11.05,0,.09,0,.13-.02Zm-5.57,3.67s.03-.01.05-.02c-.01.01-.02.03-.04.04,0,0,0-.01-.01-.02Zm-3.74.04h0s-.02.02-.03.04c-.04.05-.09.1-.13.15-.06,0-.12.02-.17.04.01-.05.03-.1.04-.14l.13-.43.1-.03s.01,0,.02,0c.09-.03.18-.04.27-.05l.04.03s.05.05.08.07c-.13.11-.25.22-.36.34Zm-4.44-2.56s-.05.07-.07.12c-.05.12-.09.25-.11.39-.13.07-.24.19-.29.35-.03.04-.07.08-.1.13-.07.06-.13.14-.17.22l-.07-.03c-.02-.28-.06-.56-.11-.83-.04-.26-.09-.51-.1-.76,0-.07,0-.13.01-.2.18.11.36.23.53.34.14.09.29.19.46.27Zm-6.42-.16c-.1-.09-.23-.12-.37-.12-.02,0-.03,0-.05,0-.06,0-.13.02-.19.05,0-.03,0-.05.01-.08l.02-.14c.04-.25.07-.5.1-.74.31.17.63.34.95.51,0,.38.02.77.06,1.15-.19-.31-.43-.53-.53-.62Zm-2.29,6.91s0,0,.01.01c-.03.03-.05.06-.08.09-.06-.08-.1-.16-.13-.23-.02-.09-.06-.18-.13-.3-.18-.27-.45-.45-.7-.58.15-.28.31-.57.46-.85.12.5.3,1.11.36,1.3.02.05.04.09.06.13-.01.15.03.31.15.43Zm-3.18-2.33s-.07,0-.11.01c-.03,0-.05.01-.08.02-.11-.05-.22-.09-.32-.13l-.11-.04c-.04-.24-.14-.5-.3-.76.01-.01.03-.03.06-.05,0,0,0,0,0,0,.05-.03.09-.07.14-.11.31.15.62.32.86.48.01.02.02.1.03.1.03.19.05.36.06.53-.07-.03-.15-.05-.23-.05Zm-6.88,12.81s0-.05.01-.08c.01-.12.02-.24.03-.37.08.05.17.09.25.14.2.11.4.22.61.34-.09.12-.19.24-.27.38-.1.03-.26.05-.48.08l-.31.03c.07-.17.12-.34.17-.53Zm-5.39.66c-.16-.3-.37-.58-.62-.88-.1-.55-.19-1.03-.25-1.32.11,0,.22-.03.31-.06.09.23.18.47.26.69.12.36.24.76.27,1.14,0,.13.03.26.07.38-.02.01-.03.03-.05.04Zm-15.81,20.41s-.06,0-.1,0c-.02,0-.05,0-.07-.01l.03-.05s.09.04.14.05Zm102.35,13.61c.52-.32,1.07-.64,1.54-1.14.04-.04.07-.08.1-.13.54,0,1.07.01,1.61.02h.89c.12.06.24.1.36.15.01.24-.02.5-.04.76l-.02.17s-.06.1-.07.1c-.09.15-.2.33-.26.59-.04.22-.01.41.04.59-.48,0-.97-.04-1.46-.08l-.21-.02c-.39-.04-.79-.07-1.15-.16-.59-.13-1.12-.38-1.54-.74l.2-.12Zm9.96-16.79c-.13-.24-.3-.47-.54-.62.44,0,.89-.02,1.31-.03-.3.15-.55.37-.76.65Zm-2.1-2.47l-.08.11c-.1.14-.2.28-.28.42-.28-.39-.47-.74-.56-1,.13.08.29.17.47.2.2.05.42.04.63,0-.06.09-.13.18-.19.26Zm-5.91-3.49s-.04.04-.07.06h-.11c-.07.01-.15.02-.22.02l-.02-.02c-.18-.25-.36-.49-.56-.81,0,0-.02-.02-.04-.04-.1-.21-.21-.4-.29-.52.02-.01.04-.02.06-.03.3-.2.35-.5.3-.72-.03-.12-.15-.49-.25-.76.02-.02.04-.04.05-.06.11-.13.27-.37.4-.63.12.03.24.07.35.1l.11.71c.04.25.08.51.12.77.11.64.22,1.31.23,1.85-.01.02-.07.08-.07.08Zm-3.42-6.7s-.03.03-.05.05c-.07.06-.14.12-.21.18,0-.04,0-.07,0-.1.06-.06.12-.12.17-.18l.11-.11c0,.05-.01.11-.02.16Zm-3.55-1.64l.11-.08c.06-.04.12-.09.19-.13.16.23.34.45.55.67.03.03.07.06.1.09-.05.28-.07.58.04.89.07.24.18.45.29.63.14.24.27.49.4.73-.09.04-.17.1-.23.19,0,0-.02-.01-.03-.02.02-.05.04-.09.05-.12.06-.14.04-.3-.02-.43-.06-.14-.18-.25-.32-.3-.27-.11-.59.02-.71.29-.04.1-.1.18-.15.26-.05.06-.14.19-.21.24-.06,0-.11.02-.17.04-.08.03-.16.06-.24.09.04-.1.07-.21.09-.34.01-.07.03-.15.05-.24.08-.27.16-.67,0-1.07-.02-.06-.05-.12-.12-.27-.05-.19-.2-.32-.38-.38.24-.16.53-.39.71-.73Zm-1.57,1.6s0-.01,0-.02c.03-.07.07-.14.11-.21.02.11.06.21.1.3l.04.16c0,.08-.04.19-.08.3-.04.12-.08.25-.07.33,0,0-.03.02-.07.05,0-.01,0-.02,0-.03-.1-.4-.15-.66-.04-.89Zm-7.67-13.84l-.21.23c-.25.28-.46.52-.8.67l-.1.05c-.19.09-.48.23-.67.6-.05.13-.05.24-.04.34-.14-.13-.28-.21-.42-.25,0,0-.01,0-.02-.01.4-.54.23-1.13.05-1.56.09-.03.17-.05.26-.08.12-.04.24-.07.35-.11,0,0,0,0,0,0,.14.12.27.24.45.36.22.13.5.13.74-.02.24-.16.39-.38.55-.61.12-.17.25-.35.38-.5.02,0,.05-.02.07-.02.33.15.69.02.97-.13h.01s-.09.06-.13.09l-.84.49c-.18.11-.39.23-.61.43Zm1.79-2.25c-.06-.03-.13-.04-.21-.04-.13,0-.27.04-.38.1-.06.03-.15.09-.22.12-.15-.05-.29-.07-.44-.06.05-.15.08-.31.11-.45.04-.28-.02-.93-.11-1.18,0-.02-.02-.04-.03-.06.86-.02,1.72.13,2.24.73.13.19.27.36.41.51l-.55.72c-.27-.13-.55-.25-.82-.38Zm-2.32-1.36l-.03.43c0,.06,0,.13.02.19.03.13-.07.39-.15.6-.19.44-.39.68-.69.78-.33.14-.68.23-1.05.33l-.37.1s-.13.04-.14.04c-.2.06-.53.15-.76.51-.19.37-.03.73.02.86l.1.21c.07.13.13.27.18.31,0,0-.08.08-.08.08-.19.18-.4.38-.58.57-.1.11-.21.21-.31.32-.06-.01-.12-.02-.19-.03-.25-.03-.48-.05-.7-.06.92-1.5,1.86-3.08,2.72-4.67.27-.19.75-.37,1.42-.55.18-.05.4-.09.62-.13,0,.03-.02.07-.02.1Zm-6.47-.69c-.1.14-.23.27-.36.41-.16.16-.31.33-.44.5-.35.45-.55,1.04-.54,1.62.02.72.27,1.44.7,2.08-.53-.23-1.08-.37-1.56-.41h0s-.03,0-.04,0c-.01,0-.03,0-.04,0-.04-.06-.08-.12-.12-.19-.28-.46-.6-.98-.97-1.33-.11-.11-.24-.21-.4-.33.02-.1.06-.21.1-.31.03-.1.07-.2.09-.27l.13-.39c.39-1.18.76-2.29,1.51-3.15.14-.15.27-.28.4-.39.06.02.12.05.18.07.66.27,1.33.57,1.57,1.06.13.28-.02.73-.21,1.03Zm-6.75-4.77s-.02.08-.02.12c-.02.43-.07.9-.17,1.46-.04-.04-.1-.07-.15-.09-.13-.06-.3-.06-.44-.01-.27.1-.42.4-.34.68-.04,0-.08-.02-.12-.03,0-.06,0-.11,0-.16.02-.12.01-.22,0-.32-.02-.14-.07-.27-.14-.42v-.03c.04-.3.09-.62.14-.94.1-.65.2-1.32.23-1.97.41.39.81.83,1.12,1.33l-.1.39Zm-2.35-1.59c-.03.37-.09.75-.15,1.18l-.12.76c-.08.04-.16.09-.21.16-.12.14-.16.31-.12.47-.34-.23-.69-.47-1.06-.69.43-.3.56-.92.63-1.38.35-.16.69-.33,1.03-.5Zm-2.14,5.81s.01,0,.02,0c.28-.09.49-.36.53-.67.03-.3-.02-.57-.07-.83.05,0,.15.01.15.01.07.03.17.1.26.17.1.08.21.15.28.17.01.02.03.09.04.14,0,0,.02.11.02.11.02.11.04.22.06.34.06.41.13.91.5,1.31,0,.01.02.02.03.03-.02.1-.04.2-.07.32-.01.08-.03.16-.06.25-.08.34-.2.8.04,1.31.22.37.59.41.81.42.05.02.09.04.14.06l-.5.67c-.44.02-.82.14-1.08.32-.19.08-.4.15-.6.21,0-.04,0-.09-.01-.13-.15-1.55-1.53-1.86-2.45-2.07h0s.05-.13.05-.13c.11-.3.23-.6.36-.91l.13-.33.43-.06c.28-.04.49-.29.48-.57.17-.03.34-.07.51-.12Zm-8.59-5.47s-.07-.04-.1-.05c.05-.01.1-.03.15-.04,0,.04,0,.08,0,.12-.02-.01-.03-.02-.05-.04Zm-2.24-1.56c.21.13.44.25.68.38.02.01.05.03.08.04-.16.06-.32.13-.48.21-.11-.02-.26-.09-.46-.18,0,0,0,0-.02,0,.08-.15.15-.3.2-.45Zm-4.07-1.04s0,.03,0,.05c-.02,0-.05-.02-.07-.03-.01-.04-.02-.08-.03-.13.03.04.07.08.11.12Zm-2.62,2.92c-.18.03-.36.06-.54.07-.05-.07-.12-.14-.2-.2-.01,0-.03-.02-.04-.02-.16-.22-.43-.35-.67-.43,0,0,0,0,0-.01.05.01.1.03.15.04l.94.26c.15.04.32.09.55.12.05.04.1.08.16.12-.11,0-.22.03-.34.05Zm-8.8,1.01s-.02-.03-.03-.04c.01-.02.03-.03.04-.05,0,.03,0,.06-.01.09Zm-7.42,2.94l.04.03c-.11.26-.21.52-.31.78-.02-.11-.03-.23-.05-.34l-.06-.38c.16-.47-.01-.91-.14-1.24l-.05-.14s-.02-.05-.03-.07c0-.03,0-.07-.01-.1.25.18.51.34.78.49-.13.04-.25.14-.32.27-.13.24-.07.53.14.7Zm-3.12-1.58c.04.06.13.19.16.28-.01.06-.02.12-.02.18,0,.09,0,.18.01.27-.04-.03-.08-.07-.12-.1l-.21-.84c.06.06.12.13.19.22Zm-4.65.38c-.06-.01-.13-.04-.21-.08-.01-.05-.02-.11-.02-.17.09.06.19.13.29.21-.02.01-.04.03-.07.05Zm-2.49,2.04l-.13-.08c-.22-.12-.43-.25-.63-.4l-.16-.13c-.07-.06-.15-.09-.23-.11.01-.18.02-.36.01-.55.35.17.71.34,1.07.51l.11.05c.08.04.16.08.24.12-.15.18-.23.38-.26.59Zm-3.99,7.54s-.05.04-.08.07c-.26-.29-.57-.48-.69-.55,0-.07,0-.15,0-.22l.2-.04c.05.12.09.24.14.36.07.17.26.31.44.35,0,0,.02,0,.03,0,0,0-.02.01-.03.02Zm-7.11,3.53s-.05,0-.07,0c-.12-.02-.23-.03-.34-.03-.02,0-.05,0-.07,0-.3,0-.57.12-.78.29-.11-.21-.21-.42-.32-.64-.08-.16-.16-.32-.24-.48.27-.21.51-.42.75-.67.06-.06.12-.14.19-.26l.18.48s.03.07.05.1c.22.35.43.74.65,1.21Zm-6.54,4.06s-.05-.02-.07-.03c.02-.09.04-.18.04-.29.03-.04.07-.09.11-.14,0,0,0,.02,0,.02-.07.14-.09.29-.09.43Zm-1.82,2.38s-.03.02-.05.03c-.2.13-.29.38-.24.6l-.07.14c-.02-.06-.04-.12-.05-.17,0-.1-.02-.19-.06-.31-.05-.14-.13-.26-.24-.4.02-.03.05-.07.07-.1.14-.2.26-.38.4-.49.23-.08.45-.19.69-.36.01,0,.02-.02.03-.02l-.49,1.08Zm11.68,26.47l.06-.13.72.3c1.06.44,2.12.89,3.18,1.32-.05,0-.11,0-.15.01-1.42-.01-2.88-.36-4.29-.69.19-.27.34-.53.49-.81Zm32.75,2.71c-.26-.28-.53-.54-.8-.78.14.06.28.13.42.19.17.25.35.51.52.76-.05-.06-.1-.11-.15-.17Zm20.65,40.8c.14-.17.19-.37.22-.5.04-.13.09-.25.14-.38.91.38,1.86.73,2.83,1.03.28.58.53,1.13.77,1.67-.37.21-.8.35-1.25.41-.54.07-1.15.02-1.74-.13-.14-.04-.28-.07-.43-.11l-.34-.08c-.92-.22-1.89-.34-2.82-.45l-.31-.04c-.53-.07-.92-.15-1.26-.25-.49-.14-.99-.37-1.52-.69.85.09,1.66.15,2.47.18h.31c1.27.04,2.45,0,2.93-.66Zm-1.57-1.36c-.12.02-.26.02-.43.03-.39.02-.78,0-1.18,0-.68-.03-1.37-.09-2.05-.16-.93-1.13-1.77-2.23-2.5-3.27-.31-.46-.62-.92-.9-1.38l.27-.08c2.06,1.77,4.38,3.28,6.91,4.52-.04.11-.09.22-.13.34Zm-9.06-4.2c.36.65.77,1.3,1.23,1.96.74,1.06,1.54,2.1,2.44,3.18-.84-.74-1.54-1.66-2.15-2.49-.56-.78-1.11-1.64-1.68-2.61l.16-.05Zm20.42,4.91l.21-.23.41.31s.02.02.04.03c-.22-.03-.44-.07-.66-.11Zm-1.55-1.6l-1.03,1.02c-.42-.11-.83-.23-1.24-.36-.7-.22-1.42-.47-2.13-.75-.07-.14-.14-.28-.21-.42-.19-.39-.38-.77-.6-1.15-.03-.05-.07-.1-.12-.14-.12-.1-.23-.2-.35-.3.77-.05,1.46-.03,2.08.05.63.09,1.05.22,1.36.42.39.26.77.54,1.16.82l.12.09c.28.21.56.43.84.65l.11.09Zm-10.93-3.54c-.51-.34-1.01-.71-1.53-1.11.65.32,1.59.91,2.82,1.77l.16.11c.28.2.54.41.81.62-.85-.48-1.59-.92-2.26-1.38Zm13-30.45l-.16.19c-.13.16-.26.33-.39.46-.38.25-.62.68-.64,1.16-.01.23,0,.45.03.67.01.12.02.24.03.38.02.35-.06.71-.75,1.02-.34.15-.69.3-1.06.43-.07.02-.15.05-.24.07-.04-.07-.09-.15-.11-.19-.05-.1-.1-.22-.15-.33l-.28-.67c-.12-.29-.24-.57-.36-.87-.36-.82-.8-1.81-1.35-2.73,1.58-.59,3.05-1.14,3.61-1.34.16-.06.28-.18.33-.34.05-.13.53-1.57.94-2.8,1.23,1.11,2.4,1.9,3.58,2.43-1.11.49-2.14,1.32-3.04,2.46Zm8.97.72l.09-.37c.07-.25.14-.52.19-.8,0,0,0-.01,0-.02.76.18,1.53.38,2.27.58.34.09.68.18,1.03.27-.21.02-.42.05-.63.1-.59.12-1.07.48-1.43.75-.2.12-.38.26-.55.4-.13-.07-.26-.14-.36-.2-.08-.05-.16-.1-.24-.15-.16-.09-.39-.24-.4-.27,0-.06,0-.13.04-.3Zm2.71,1.7c.14-.11.26-.2.38-.26.48-.23,1.08-.21,1.64-.17.68.06,1.37.13,2.06.2.54.05,1.09.11,1.64.16-1.01.16-1.83.78-2.58,1.48,0,0-.02.01-.02.02-.3-.06-.61-.18-.94-.31l-.26-.1c-.63-.26-1.3-.56-2.01-.92.03-.03.07-.05.1-.08Zm4.06-1.8c.45-.29.79-.65,1.1-1,.92.23,1.87.49,2.89.8.55.16,1.11.34,1.69.53-.05.04-.1.08-.15.13-.18.05-.42.06-.67.05h-.18c-.27,0-.53-.02-.8-.03-1.26-.09-2.62-.27-3.94-.44.02,0,.04-.02.06-.03Zm10.16-.65c.34-.05.66-.14.99-.23.16.14.35.27.54.37.13.07.3.07.44.02s.27-.16.33-.3c.07-.13.07-.28.03-.41.17-.03.35-.06.53-.09,1.27-.13,2.57.32,3.83.76l.15.05c1.09.4,2.18.89,3.22,1.38-.87.22-1.82.31-2.82.25-2.52-.12-5-.88-7.42-1.78.06,0,.12-.02.18-.02Zm12.82-12.62c-.3.21-.63.42-.99.66l-.57.36c-.03-.22-.1-.47-.26-.68-.04-.05-.07-.09-.11-.14-.02-.03-.05-.06-.07-.09-.02-.04-.05-.08-.09-.11.38-.05.75-.26,1.04-.44.35.16.7.31,1.05.46Zm-5.04,5.54c.09-.05.18-.09.22-.12.27-.13.52-.29.74-.47,0,.04,0,.07,0,.11-.25.08-.49.22-.71.42-.11.04-.21.09-.32.13,0,0,0-.02,0-.02.03-.02.06-.03.09-.05ZM24.2,33.32s-.06.08-.07.08c-.13.13-.28.26-.43.37-.14-.23-.27-.43-.41-.63.23-.44.47-.89.7-1.39.1.55.19,1.1.21,1.56Zm-9.28,10.73s0,.04-.02.06c-.03.13-.06.24-.06.35-.06-.07-.12-.14-.19-.21-.04-.04-.08-.07-.12-.09,0,0,0-.02-.01-.03.09-.01.17-.03.26-.06,0,0,.09-.01.15-.02Zm-4.82,17.28c.17.02.35-.03.48-.17.06-.06.13-.13.23-.19.07-.04.19-.13.28-.16.06.01.12.02.18.02.1,0,.18,0,.26-.01-.07.08-.13.17-.2.29-.03.06-.08.13-.13.21-.16.23-.38.59-.36,1.01,0,.06,0,.13.01.19,0,.04.01.07,0,.11-.02.3.24.57.54.6.3.03.57-.19.6-.49.01-.11.01-.22,0-.32v-.18c.05-.08.11-.17.18-.26.08-.1.15-.2.17-.28.02-.01.1-.03.25-.06.11-.02.22-.04.33-.06.12-.02.24-.03.37-.06-.2.23-.39.46-.59.68l-1.16,1.35c-.61-.56-1.23-1.12-1.84-1.67.12-.18.24-.37.37-.55Zm26.42,53.31c.38.12.8.25,1.24.38-1.24.16-2.51.34-3.78.57v-.03s2.53-.92,2.53-.92h0ZM77.44,20.27s.1.08.16.1c.15.07.29.19.42.35-.17.02-.35.04-.53.06-.29.03-.59.07-.89.09-.04-.07-.08-.14-.11-.21-.06-.15-.04-.16.04-.24.2-.18.35-.38.44-.58l.46.43Zm-5.75-2.91c-.16-.09-.33-.18-.49-.27.11-.07.23-.15.34-.24.02.17.06.35.15.51Zm-40.47,18.13c0,.17,0,.34,0,.51-.25-.13-.41-.21-.41-.21-.26-.14-.59-.04-.74.22-.15.26-.06.59.2.75.3.18.61.35.92.53,0,.12,0,.25-.02.36v.21c-.02.16-.03.3-.04.36-.25.61-.54,1.23-.84,1.84-.02-.28-.12-.54-.2-.75l-.05-.13c-.05-.14-.17-.25-.31-.31-.07-.03-.15-.05-.23-.05,0,0-.02,0-.02,0,.03-.07.06-.14.09-.22.08-.26-.03-.53-.26-.65,0,0,.01,0,.02-.01.3-.21.43-.52.35-.84-.06-.24-.38-1.14-.56-1.6.09-.12.21-.27.27-.35.09-.11.21-.28.34-.49.03.03.07.06.12.08l1.39.73Zm-11.89,1.65l.05.05c-.04.06-.07.13-.1.2-.02-.14-.05-.28-.08-.41.03.06.07.12.13.17Zm-4.27,12.27l.33.04.04.1c-.13-.05-.26-.1-.39-.15,0,0,.01,0,.02,0Zm36.99,71.45s.06-.07.09-.11c-.03.05-.05.08-.09.11Zm8.5-3.13h0Z"/>
</svg>