<?xml version="1.0" encoding="utf-8"?>
<!-- Generator: Adobe Illustrator 27.4.1, SVG Export Plug-In . SVG Version: 6.00 Build 0)  -->
<svg version="1.1" id="_Слой_1" xmlns="http://www.w3.org/2000/svg" xmlns:xlink="http://www.w3.org/1999/xlink" x="0px"
	 y="0px" viewBox="0 0 1417.3 566.9" style="enable-background:new 0 0 1417.3 566.9;" xml:space="preserve">
<style type="text/css">
	.st0{fill:#FFFFFF;}
	.st1{fill:url(#SVGID_1_);}
	.st2{fill:url(#SVGID_00000158730009018916846480000009317958560291677370_);}
	.st3{fill:url(#SVGID_00000165205692769289255180000017536565329608604293_);}
	.st4{fill:url(#SVGID_00000180328896575031508190000004596217596791971747_);}
	.st5{fill:url(#SVGID_00000140005853135401692110000002080592689865415829_);}
	.st6{fill:url(#SVGID_00000142880573062154107770000008773341353507158424_);}
	.st7{fill:url(#SVGID_00000035503495897210128340000008440022129452849597_);}
	.st8{fill:url(#SVGID_00000073699532551261251530000004553789064631775662_);}
	.st9{fill:url(#SVGID_00000171702511365320043570000003542278095907131290_);}
	.st10{fill:url(#SVGID_00000115484543234121518600000013634653368582743724_);}
	.st11{fill:url(#SVGID_00000041987696773732647270000009214391078181341580_);}
	.st12{fill:url(#SVGID_00000153675396259428932990000001757496109767445650_);}
	.st13{fill:url(#SVGID_00000069399118981959580970000017217498552117213835_);}
	.st14{fill:url(#SVGID_00000094598672764110007560000012771200429047053715_);}
	.st15{fill:url(#SVGID_00000147186220542042511350000012204345885441281943_);}
	.st16{fill:url(#SVGID_00000173841897847638752290000005866284993774769288_);}
	.st17{fill:url(#SVGID_00000133496168999910148470000011203896076117319576_);}
	.st18{fill:url(#SVGID_00000140013748731537182280000016803155785594731176_);}
	.st19{fill:url(#SVGID_00000096778245337386240370000005214650254432570537_);}
</style>
<g>
	
		<image style="overflow:visible;" width="343" height="764" xlink:href="D2ABA6DF.png"  transform="matrix(1 0 0 1 537.937 -96.163)">
	</image>
	<g>
		<path class="st0" d="M724.9,44.1c-4.2,20.2-10.1,40.7-13.9,60.8c-3.8,19.2-7.2,39.2-7.5,58.4c0,9.3,0.8,19.3,1.8,29.3
			c3.9,35.8,10.5,71.7,16.7,107.2l0.1,0.4V300l0.2,0.9l0.9,3.8c8.4,38.4,16.3,76.6,20,116.1c0.5,5.8,0.3,12.3-0.3,18
			c-3.4,31-6.3,62.8-20.1,91.1c-0.2,0.1-0.6,0.2-1.3,0.1c-0.3,0-0.7,0-1.2-0.1c-0.2,0-0.5-0.1-0.8-0.1c-1.9-0.3-3.5-0.6-5.5-1
			c-0.7-0.2-7.5-1.7-8-2c-0.9-0.3-7.4-2.8-8.1-3.1c-1.8-0.8-3.9-1.6-5.5-2.5c-0.6-0.3-0.9-0.6-1-0.8c0.5-4.4,1.4-8.8,2.2-13.1
			c3.9-21,12.5-40.7,17.5-61.2c0.8-3.4,1.5-7,2-10.4c1.3-9.2-0.1-17.8-1.3-27.1c-2.8-19.8-7.1-39.8-11.4-59.4
			c-1.8-8-7.5-33.3-9.3-40.9c-0.4-1.4-0.7-3.2-0.9-4.7c-6.1-35.8-10.9-71.9-14.1-108.1c-0.9-10.7-1.7-21.3-1.7-32.2
			c0-11.2,1.1-21.9,2.4-32.5c3.2-25.9,8.5-51.6,13.3-77.1l1.3-7.4c0.4-2.4,30.2-4.4,30.4-6.2L724.9,44.1L724.9,44.1L724.9,44.1z"/>
	</g>
</g>
<polygon class="st0" points="700.1,222.9 740.8,240.8 702,218.5 "/>
<polygon class="st0" points="692.4,119.5 733.1,137.4 694.3,115.1 "/>
<polygon class="st0" points="717.6,46.6 758.4,64.4 719.6,42.1 "/>
<polygon class="st0" points="692.4,240.9 733.1,258.7 694.3,236.4 "/>
<polygon class="st0" points="681.1,144.8 721.8,162.7 683,140.4 "/>
<linearGradient id="SVGID_1_" gradientUnits="userSpaceOnUse" x1="623.3" y1="131.55" x2="680.4" y2="131.55">
	<stop  offset="0" style="stop-color:#FFFFFF;stop-opacity:0.8"/>
	<stop  offset="1" style="stop-color:#FFFFFF"/>
</linearGradient>
<polygon class="st1" points="680.1,134.6 623.3,132.3 680.4,128.5 "/>
<polygon class="st0" points="689.9,91.7 633,93.3 664.7,87.3 690.1,85.5 "/>
<linearGradient id="SVGID_00000176031519436637165170000008212233410024186795_" gradientUnits="userSpaceOnUse" x1="629.3" y1="305.45" x2="693.8" y2="305.45">
	<stop  offset="0.1314" style="stop-color:#FFFFFF;stop-opacity:0.8"/>
	<stop  offset="0.9396" style="stop-color:#FFFFFF"/>
</linearGradient>
<polygon style="fill:url(#SVGID_00000176031519436637165170000008212233410024186795_);" points="693.8,299.6 629.3,320.5 
	663.2,301.2 691.7,290.4 "/>
<linearGradient id="SVGID_00000091013804082730979970000010796702533269615259_" gradientUnits="userSpaceOnUse" x1="656.7" y1="401.65" x2="721.1" y2="401.65">
	<stop  offset="0.1314" style="stop-color:#FFFFFF;stop-opacity:0.8"/>
	<stop  offset="0.9396" style="stop-color:#FFFFFF"/>
</linearGradient>
<polygon style="fill:url(#SVGID_00000091013804082730979970000010796702533269615259_);" points="721.1,395.8 656.7,416.7 
	690.5,397.5 719,386.6 "/>
<linearGradient id="SVGID_00000047019375268449666880000017941709930861223098_" gradientUnits="userSpaceOnUse" x1="688.2" y1="113.65" x2="752.7" y2="113.65">
	<stop  offset="0.2374" style="stop-color:#FFFFFF"/>
	<stop  offset="0.3312" style="stop-color:#FFFFFF;stop-opacity:0.9754"/>
	<stop  offset="1" style="stop-color:#FFFFFF;stop-opacity:0.8"/>
</linearGradient>
<polygon style="fill:url(#SVGID_00000047019375268449666880000017941709930861223098_);" points="688.2,107.8 752.7,128.7 
	718.8,109.4 690.3,98.6 "/>
<polygon class="st0" points="724.3,496 772.9,543.2 751,511 730.3,488.7 "/>
<linearGradient id="SVGID_00000114757068102482666750000008908517850628213915_" gradientUnits="userSpaceOnUse" x1="499.9" y1="461.8138" x2="706.8" y2="461.8138">
	<stop  offset="0" style="stop-color:#FFFFFF"/>
	<stop  offset="0.4864" style="stop-color:#FFFFFF;stop-opacity:0.8"/>
	<stop  offset="0.9401" style="stop-color:#FFFFFF"/>
</linearGradient>
<path style="fill:url(#SVGID_00000114757068102482666750000008908517850628213915_);" d="M702.2,472.5c-0.6,0.2-1.5,0.4-2.2,0.5
	l-2.3,0.5c-10.8,2-22.3,3.4-33.2,3.4c-6.7-0.1-20.1-0.6-24.1-6.1c-2-3.3-2.9-6.6-3.5-10.7c-0.9-6.8,0-14.4-1.9-21.5
	c-2.5-9.8-10.8-14.3-20.3-14.7c-4.6-0.2-9.3,0.1-13.7,1.3c-1.6,0.6-3.2,1-4.7,1.9c-1.5,0.7-3,1.8-4.3,2.8c-1.5,1.3-2.9,3-4.1,4.6
	c-2.3,3.7-3.7,7.9-3.7,12.3l1.5,3.8c0.2,0.2,0.8,0.9,1,1.3c0.2,0.3,0.3,0.5,0.4,0.6c-1.4,1.2-3.6,1.6-5.9,2.2
	c-8.1,1.5-17,1.1-25.3,0.7c-10.7-0.9-21.5-2.6-31.8-5.9c-8.2-2.6-16.4-6-23.6-10.9l-0.6,0.8c14,11.2,31.3,17.4,48.7,21.2
	c11.2,2.1,33.8,6.1,43.8,0.1c4.9-2.8,6.2-8.9,3.8-13.6c-0.3-0.6-0.6-1.1-0.9-1.6c1.9-7.1,8.8-8.8,15.9-8c3,0.1,5.6,0.9,7,1.7
	c1.3,1,1.2,1.3,1.6,3c0.7,5.4-0.6,12.8-0.3,19.1c0,2.1,0.2,4.3,0.6,6.6l-42.1,2.8l43.1,1.7c0.5,1.9,1.2,3.8,2,5.6l-18.5,4l-36.4,14
	l60.2-9.9c8.7,9.1,23,11.6,35,12.9c14.6,1.4,28.9,0.8,43.4-0.8L702.2,472.5z M587.1,452.5c0-0.1,0.2-0.3,0.2-0.2
	C587.2,452.4,587.2,452.4,587.1,452.5z"/>
<polygon class="st0" points="697.5,52.1 662.9,46.8 697.8,49.8 "/>
<polygon class="st0" points="1098.8,113.2 1107.2,130.5 1097.6,113.8 "/>
<g>
	<path class="st0" d="M728.2,487.2c-0.1,9.9-1,19.7-2.1,29.4c-0.9,8.9-2.4,18.6-1,27.1c0.1,0.7,0.4,1.4,0.5,2.1
		c0,0.2,0.1,0.1,0.1,0.2c0,0.1,0,0.1,0.1,0.2c0.2,0.3,0.4,0.5,0.7,0.8c10,6.5,34.2,5.6,46.4,5.1l-2,1.1l14.6-15.6l0.6-0.7l0.8,0.1
		c-0.4,0,47.7,6.1,46.6,6.1l23.9-5.2l0.3,1.2l-23.9,5.2c0,0.1-47.1-4.3-47.2-4.3l1.4-0.6L775.6,557l-0.6,0.9l-1.4,0.2
		c-13.5,1.5-47.8,5.8-56.4-6.7c-1-1.6-1.6-3.5-2.1-5.3c-2.5-10.4-1.6-20.2-1.4-30.4c0.3-9.5,0.5-18.8-0.1-28.2L728.2,487.2
		L728.2,487.2L728.2,487.2z"/>
	<polygon class="st0" points="720.7,505.6 771.1,527.7 723.1,500.1 	"/>
	<polygon class="st0" points="736.1,508.8 746,530.4 734.7,509.5 	"/>
	<polygon class="st0" points="798.1,539.9 808,561.5 796.7,540.5 	"/>
</g>
<linearGradient id="SVGID_00000059312221887955786720000002792157135478810519_" gradientUnits="userSpaceOnUse" x1="723.9001" y1="436.5" x2="1223.2001" y2="436.5">
	<stop  offset="8.756267e-02" style="stop-color:#FFFFFF"/>
	<stop  offset="0.1366" style="stop-color:#FFFFFF;stop-opacity:0.9754"/>
	<stop  offset="0.4864" style="stop-color:#FFFFFF;stop-opacity:0.8"/>
</linearGradient>
<path style="fill:url(#SVGID_00000059312221887955786720000002792157135478810519_);" d="M1223,474.1l0.2-1
	c-12-2.7-24.3-2.4-36.5-1.8c-1.5,0.1-2.9,0.2-4.4,0.3l13.6-21.8l-15.9,22c-3.9,0.4-7.8,0.8-11.7,1.4l-0.1-0.1l-0.1,0.1
	c-2.2,0.3-4.4,0.7-6.6,1.1l12.2-19.5l-14.4,20c-2.2,0.5-4.5,1.1-6.7,1.8c-8.3,3.6-17.1,6.2-26,7.9l26.4-21l-35.4,22.3
	c-3.5,0.4-7.1,0.8-10.6,1c-4.7-0.2-9.4-1.6-14.2-2.6l-3.4-12.8l6.2-9.9l-6.4,8.9l-0.7-2.4l0.5,2.6l-8.7,12.1
	c-6.5,0-13.1,1.1-19.3,3.1c-2.4,0.7-6.3,2.3-8.3,3c-2.3,0.6-5.4,0-8.5-0.5l27.2-10.6l-36.4,9.9c-7-0.4-14-0.8-20.9-1.5l30.8-20.8
	l-38,20.1c-4.8-0.5-9.7-1.1-14.4-1.8l32.7-22.1L999.4,475l-4.8-17.9l3.6,18.5l-12.8,6.8l0,0.1c-4.2-0.7-8.4-1.5-12.5-2.5
	c-5.8-1.3-11.5-2.9-17-4.8c-4.3-1.6-8.6-3.2-12.3-5.7c-0.3-8.8-8.3-15.6-17.5-20.4l30.9-1.2l-39.5-2.6c-4.5-1.8-8.8-3.1-12.1-4.1
	c-3-0.8-6.6-1.8-9.7-2.5c-0.4-0.1-0.8-0.1-1.2-0.2l-6.3-13.9c7.2-0.1,14.5-0.6,21.3-3.1c0.9-0.4,1.9-0.9,2.8-1.5
	c2-1.4,3.9-2.9,5.8-4.3l25.7,5.5l-23.2-7.3c2-1.4,3.9-2.8,5.9-4.2l26.1,5.6L929,408c10.6-7,26.6-17,38.3-13.4
	c3.7,1.2,7.4,2.5,11,3.9l9.4,50.2l-4.9-48.4c10.4,4.2,20.7,8.8,31.3,12.3l8.1,15.1l-6.7-14.6c4.3,1.4,8.6,2.6,13,3.6
	c1.7,0.3,4.1,0.7,5.9,0.8c9.4,0.2,33.1,3.5,53.8,3.4l8.3,15.5l-7.1-15.6c5.8-0.1,11.3-0.5,16.2-1.3l14.4,8.7l-12.8-9
	c6.9-1.3,12.3-3.6,15.2-7.2l18.2-1.1h-17.4c0.5-0.9,0.9-1.9,1.2-2.9c0.7-2.4,0.7-5,0.3-7.4l10.9-13.1l-11.1,11.8
	c-0.8-3.4-2.4-6.7-4.7-9.4c-0.9-1.3-2.5-2.8-3-4c0.1,0,0.2-0.1,0.3-0.2c2-0.8,4.9-0.8,7.1-0.9c20.1-0.6,40.4,1.6,60.2,5.3l0.3,0.3
	l12.3-14.8l-12.7,13.5c-19.8-4.1-39.9-6.8-60.2-6.6c-2.8,0.1-5.2,0-8,0.9c-4.2,1.8-0.2,5.8,1.4,7.8l-15.1-3.6l16,5
	c1.1,1.6,2,3.4,2.7,5.1c1.3,4.2,1.5,9.6-1.7,13c-0.7,0.7-1.5,1.3-2.3,1.8l-2-17.4l0.8,18.1c-5,2.7-11.3,3.2-16.9,3.7
	c-0.2,0-0.3,0-0.5,0l10.2-12.2L1097,417c-11.6,0.5-23.2-0.4-34.7-1.5v-42.7l-3.4,30.9l-3.4-2.8l0.8-0.9l-0.8,0.9l-9.2-7.5l8.6,8
	l-11.4,12.1c-2.4-0.2-4.8-0.4-7.1-0.6c-0.6-0.1-1.2-0.1-1.8-0.2l-1.8-0.2c-0.9-0.2-2.7-0.5-3.6-0.7c-19-4.6-36.4-14.3-54.7-21.3
	c-2.1-0.8-4.4-1.6-6.5-2.3c-2-0.6-4-0.8-6.1-0.9l11.6-50l-16.3,50.3c-2.4,0.3-4.8,0.9-7,1.6c-5.2,1.7-10.2,3.9-15,6.5l-4.7-17.5
	l3.6,18.1c-8.5,4.7-16.5,10.5-24.4,16.1c-0.7,0.4-2,1.4-2.7,1.7c-2.2,1-4.4,1.4-6.7,1.7v-41.1l-3.6,33.5l-13.1-10.6l12.9,12
	l-0.7,6.7c-4.4,0.4-8.9,0.4-13.4,0.3c-7.3-0.2-15.3-0.7-22.6-1.3c-2.6-0.2-6-0.3-8.6-0.6c-0.9-1-3.1-4.4-4.6-5.7
	c-1.1-1.1-2.4-2-3.6-2.9c-0.2-0.1-0.4-0.3-0.6-0.4l24.7-1l-31.7-2.1c-10.4-2.9-24.6-1.2-33.4,1c-5.5,1.6-12.4,3.6-15.3,9.4
	c-1.8,3.4-2.2,7.5-2.2,10.6c0,5.7,0.7,10.8,1.1,15.8c0.2,2.1,0.4,4.1,0.5,6.1c-9.9-1.1-19.8-3-29.3-5.8c-8.1-2.5-16.2-5.4-23.5-9.6
	l-9.4,15.4l0.6,0.4l0.5,0.3l0.9,0.5c17.3,8.6,36.6,12.7,55.6,14.6c7.4,0.7,14.7,1.1,22.1,0.9c3.1-0.1,6.2-0.4,9.3-0.7
	c0.4,7.2,0.3,14.5,0,21.7c-0.2,8.3-1,16.2,1.1,24.6c0.4,1.5,0.9,3,1.7,4.3c2.5,3.6,7.6,5.5,13.7,6.3l7.7,14.3l-6.5-14.1
	c4.8,0.6,10.1,0.6,15,0.3l9,16.8l-7.7-16.9c5.7-0.3,10.8-0.9,14.3-1.3l1.2-0.2l0.5-0.7l9.5-13.5c1.3,0.1,4.1,0.4,7.8,0.7l8.8,16.5
	l-7.5-16.4c11.3,1.1,28.4,2.7,28.4,2.6l19.3-4.2l-0.2-1l-19.3,4.2c-0.6-0.1-38-4.9-37.7-4.9l-0.7-0.1l-0.5,0.5l-11,11.7
	c-10.1,0.3-28.9,0.8-36.7-4.2c-0.3-0.3-0.4-0.4-0.6-0.7c-0.1,0-0.1,0-0.1-0.1c0,0,0,0,0-0.1c-0.1-0.6-0.3-1.1-0.4-1.7
	c-1.2-6.9,0.1-14.7,0.8-21.9c0.3-2.2,0.5-4.4,0.7-6.7l7.6,3.3l7.8,14.6l-6.4-13.9l26.7,11.6L824,472.6c0.3-4.1,0.5-8.3,0.6-12.4
	l-1,0c14.5-2.1,28.9-5.2,43.3-7.5c8.5-1.2,18.2-2.9,26.5-1.7c1.9,0.3,3.8,0.8,5.7,1.2c10.1,2.4,27.2,6.9,33.1,15.6
	c0.5,0.9,0.8,1.6,0.8,2.5v-0.1l0.1-0.2c0,0.1,1.2,5.8,1.2,5.8c2.8,2.6,6.2,4.2,9.5,5.7c4.5,2,9.2,3.5,13.9,4.8v38.8l4.2-37.7
	c3.1,0.7,6.2,1.4,9.2,2c9.3,1.7,18.5,2.9,27.8,3.8l8.6,15.9l-7.3-15.8c8.9,0.8,17.8,1.2,26.7,1.5l18,7.9l-0.3,0.1l9.2,17l-7.5-16.5
	l18.9,8.3l-28.8-16.6l3.3,0.1c3,0.1,6,0.8,9.1,0.9c2.4,0.2,5.9-0.4,8.2-1.5l2-0.9c6.6-2.8,13.7-4.8,20.9-5c4.1-0.3,8,0.3,12,1
	l8.1,15.1l-6.8-14.9c4.5,0.8,8.9,1.8,13.6,2c3.3,0,6.2-0.6,9.4-1.1c0.4-0.1,0.8-0.1,1.2-0.2l0.6,0.7l1.3-1
	c7.7-1.3,15.4-3.1,22.8-5.7l21.2,19.5l-18.5-20.5c1.4-0.5,2.8-1.1,4.1-1.7l27.4,11.9l-24.2-13.3l1.8-0.8l1-0.4
	c1.3-0.5,2.7-0.8,4.1-1.2l0.1,0.1l0.1-0.1c0.3-0.1,0.7-0.2,1-0.3c2.6-0.6,5.3-1.1,8-1.6l26.5,12.9l-22.6-13.6
	c4.9-0.8,9.9-1.4,14.9-1.9l-0.1,0.1l24.8,12l-21.7-12.4c5-0.4,10.1-0.6,15.1-0.7C1211,472.6,1217.1,472.9,1223,474.1z M1055,401.5
	l3.7,3.5l-1.1,10c-4.2-0.4-8.5-0.9-12.7-1.3L1055,401.5z M879,437.9c-25.5,1.7-50.7,8.3-76.1,8.7c-1.9,0-3.8-0.1-5.7-0.2
	c-0.1-2.8-0.4-5.6-0.7-8.3c-0.6-5.1-1.3-10.1-1.4-14.6c0-2.5,0.1-4.5,0.9-6.1l0.1-0.2c0.1-0.1,0.1-0.2,0.1-0.2
	c0.5-0.6,1.3-1.1,2.4-1.7c3-1.5,6.5-2.5,10-3.2l7.2,13.4l-6.2-13.6c0.7-0.1,1.4-0.3,2.1-0.4c6.9-1.1,14.2-1.6,21-0.3
	c1.3,0.3,2.3,0.6,3.3,1.1c1.1,0.6,2.3,1.3,3.3,2.1c1.6,1.2,3.1,3.1,4.3,4.8c1.6,2.6,5.1,4.4,8.3,4.3c6.9,0.3,14.1,0.7,21.2,1
	l7.1,13.3C879.8,437.9,879.4,437.9,879,437.9z M880.4,437.8l-6.1-13.3c2.7,0.1,5.4,0.2,8.1,0.2c1.4,0,2.9,0,4.3,0l7.4,13.8
	C889.4,437.6,884.8,437.6,880.4,437.8z M1089.3,483.5c-2.4-0.4-4.7-0.7-7.1-0.8l7-11.1l2.4,12.2
	C1090.8,483.7,1090,483.6,1089.3,483.5z"/>
<linearGradient id="SVGID_00000177462157255357965260000015592659435800213427_" gradientUnits="userSpaceOnUse" x1="788.8" y1="369.55" x2="724.3" y2="369.55">
	<stop  offset="0.1314" style="stop-color:#FFFFFF;stop-opacity:0.8"/>
	<stop  offset="0.9396" style="stop-color:#FFFFFF"/>
</linearGradient>
<polygon style="fill:url(#SVGID_00000177462157255357965260000015592659435800213427_);" points="754.9,365.3 754.6,365.2 
	770.6,357.9 753,364.6 726.4,354.5 724.3,363.7 788.8,384.6 "/>
<linearGradient id="SVGID_00000084516396106703747040000016409905307420276627_" gradientUnits="userSpaceOnUse" x1="733.4" y1="418.95" x2="797.8" y2="418.95">
	<stop  offset="0.1229" style="stop-color:#FFFFFF"/>
	<stop  offset="0.2307" style="stop-color:#FFFFFF;stop-opacity:0.9754"/>
	<stop  offset="1" style="stop-color:#FFFFFF;stop-opacity:0.8"/>
</linearGradient>
<polygon style="fill:url(#SVGID_00000084516396106703747040000016409905307420276627_);" points="768.3,417.2 783.4,410.3 
	767,416.5 763.9,414.7 735.5,403.9 733.4,413.1 797.8,434 "/>
<linearGradient id="SVGID_00000092417009778932133320000004072238010519632523_" gradientUnits="userSpaceOnUse" x1="692.1" y1="209.9" x2="756.5" y2="209.9">
	<stop  offset="0.2374" style="stop-color:#FFFFFF"/>
	<stop  offset="0.3312" style="stop-color:#FFFFFF;stop-opacity:0.9754"/>
	<stop  offset="1" style="stop-color:#FFFFFF;stop-opacity:0.8"/>
</linearGradient>
<polygon style="fill:url(#SVGID_00000092417009778932133320000004072238010519632523_);" points="722.7,206.2 709.6,201.2 
	725,194.3 708.1,200.7 694.2,195.4 692.1,204.6 756.5,225.5 "/>
<linearGradient id="SVGID_00000091700321739282748280000009101529833712623783_" gradientUnits="userSpaceOnUse" x1="711.3002" y1="354.25" x2="1032.8" y2="354.25">
	<stop  offset="8.756267e-02" style="stop-color:#FFFFFF"/>
	<stop  offset="0.1366" style="stop-color:#FFFFFF;stop-opacity:0.9754"/>
	<stop  offset="0.4864" style="stop-color:#FFFFFF;stop-opacity:0.8"/>
</linearGradient>
<path style="fill:url(#SVGID_00000091700321739282748280000009101529833712623783_);" d="M1024.1,385.1l8.7,16.1l-8-17.5l-0.7,0.3
	c-5.4-1.2-10.7-2.5-16-4.2c-5.5-1.8-10.9-3.8-16.1-6.4c-0.9-0.4-1.8-0.9-2.7-1.4l-5-11l19.1,2.5l-28.3-6.3c-0.8-3-1.1-6.2-1.3-9.5
	c0-0.2,0-0.3,0-0.4l28.1,3.7l-28.4-6.5c-1.8-12.5-10.8-18.7-23.2-21.3c-3.3-0.7-6.5-1.2-9.8-1.6l6.8-14.3l-8,14.2
	c-8.1-0.8-16.2-0.8-24.4-0.2h-0.7l-0.7,0.5l-32.7,24.9l-1.3,1v1.9c-0.1,6.7-8.3,9.4-13.9,11.1c-11,3-23.2,3.3-34.7,2.3
	c-6.7-0.8-11.9-5.4-16.7-10.1c-5.8-5.6-10.2-12.1-16.6-17.6c-3.3-2.9-7.1-5.3-11.2-7.2c-14.9-7.1-33.1-3.6-48.4-5.9
	c-7.1-1.1-13.6-3.5-19.4-7.4l-7.3,11.7c15.7,10,32.4,9.4,49.6,8.8c7.4-0.2,14.5,0.3,21.2,3c6.8,2.8,11.8,7.3,16.9,13
	c5.7,6,11.4,12.2,18.8,16.6c3.9,2.3,8.6,4,13.3,4.1c11.8,0.6,23.4-0.1,34.9-3.3l25,5.4l-21-6.6c1.8-0.6,3.7-1.4,5.6-2.4l26.9,3.2
	l-23.8-5.1c4.2-2.9,7.6-6.8,7.9-12l7.9-6.5l7,0.8l5.4,10.1l-4.6-10l7,0.8l-7.2-1.3l-2.2-4.9l16.4-13.6c5.4-0.5,10.9-0.7,16.3-0.7
	c12.5,0.4,30.7,0.9,36.5,14.1c2.3,5.2,1.8,11.2,3.3,16.8c2.1,8.7,10.1,13.9,17.7,17.7l1.6,2.9l-1.3-2.8c0.3,0.1,0.5,0.3,0.8,0.4
	C1001.7,379.8,1012.8,382.9,1024.1,385.1z M901.3,344.9l-5.8-1l3.6-3L901.3,344.9z M978.3,363.5c-0.9-1.1-1.6-2.3-2.2-3.5l6.8,0.9
	l5.8,10.8C984.8,369.5,981,366.9,978.3,363.5z"/>
<linearGradient id="SVGID_00000121976623790483333730000015512932579920207290_" gradientUnits="userSpaceOnUse" x1="710.8" y1="294.1129" x2="1011.9999" y2="294.1129">
	<stop  offset="4.714480e-02" style="stop-color:#FFFFFF"/>
	<stop  offset="0.1011" style="stop-color:#FFFFFF;stop-opacity:0.9754"/>
	<stop  offset="0.4864" style="stop-color:#FFFFFF;stop-opacity:0.8"/>
</linearGradient>
<path style="fill:url(#SVGID_00000121976623790483333730000015512932579920207290_);" d="M1004.6,298.3c-7.2,0.9-14.3,3.1-20.8,6.4
	c-4.4,2.3-8,6-10.8,10c-2.9,4-5.2,8.2-8.2,11.6c-2.9,3.3-6.7,6.1-10.9,7.5c-8.8,2.4-18.3-0.6-26.6-3.9c-4.2-1.8-8.4-3.8-12.2-6.1
	l-17.9-18.5l37.4-1.5L893,301l-3.8-3.9l-0.8-2.7l38.8-1.6l-23.1-1.5l6.3-7.5l-7.1,7.4l-8-0.5l11.1-13.3l-12.6,13.2l-6.6-0.4
	l-1.9-6.9l-0.4-1.5l-1.5-0.7c-6.5-3-13.1-5.7-20-8l21.1-0.8l-31.6-2.3c-11.4-2.9-23.2-4.3-35-3.5c-1.7,0-3.7-0.1-5.8-0.4l6.6-13.7
	l-7.6,13.6c-2.8-0.3-5.9-0.7-9-1l7.2-15.3l-8.4,15.2c-6.5-0.6-12.9-0.5-16.9,2.1c-4.4,3.4-3.3,7.9-1.3,11.9
	c-8.5,2.6-17.4,6.2-25.9,6.2c-7.2-0.4-11.8-5.1-18.1-9c-8.2-5.7-18.1-8.6-28-5.5l4.1,13.1c6.4-2.2,11.3-0.4,17.2,3.2
	c13.6,8.8,20.7,12.6,36.6,8.2l13.8,6.2l-12.4-6.6c0,0,0.1,0,0.1,0c3.7-1.1,7.4-2.4,11-3.7l13.1,5.8l-11.9-6.2c1.7-0.6,3.3-1.2,5-1.8
	c1.6-0.6,2.8-0.8,4.3-1.5c2.4-1,4-4.1,3.6-6.6c-0.3-2.3-1.2-3.8-2.2-5.5c-0.1-0.1-0.2-0.3-0.3-0.4c2.4-0.3,5-0.1,7.5,0
	c4.8,0.3,9.9,0.9,14.9,1.2c1.9,0.1,4.5-0.1,6.5-0.3c0,0,0.1,0,0.1,0c0.2,3.2,0.5,6.4,0.4,9.5c-0.2,3.7-0.2,9.8-4,11.1
	c-5,0.9-8.5,5.2-10,9.7c-1.7,4.8-1.3,11,3.5,13.8l8.7,16l-6.9-15.1c8.5,4.7,18.3,7.6,28.1,7.5l0,0.2l19.1,2.1l-14.6-2.6
	c4.1-0.3,8.3-0.5,11.9-2.6c1-0.7,1.8-1.8,2.6-2.5c1.5-1.1,3.6-1.3,5.5-1.5l8.7,16.3l-7.8-17.1v-0.3c-0.1,0-0.1,0-0.2,0l0-0.1
	l-0.3,0.1c-2.9,0.1-6.1,0.3-8,2.8c-0.3,0.3-0.8,0.7-1.2,1c-4,2-8.9,1.8-13.3,1.9c-10.5,0.1-20.3-3.3-29.2-8.8
	c-0.7-0.4-1.7-0.8-2.2-1.6c-2.6-4-0.2-10.1,3.1-13c1.2-1.2,2.6-1.3,4.1-1.7L828,316l-7.1-15.6c0.3-0.1,0.6-0.2,0.8-0.4
	c1.8-1.1,3.1-2.8,4.1-4.8l6.7,12.6l-6.2-13.7c1.1-2.7,1.5-5.9,1.7-9.2l15.3,6.9l-15.2-8c0.1-2.9,0-5.8-0.1-8.4c2.6,0,5.3,0.1,8,0.3
	c14.7,1.4,29.6,5.4,43.2,11.2l4.1,13l0.3,0.9l0.6,0.5l27.6,26.6l0.3,0.3l0.2,0.1c12.1,6.3,29.3,13.3,42.9,9c4.9-1.8,9-5.1,12.2-9
	c3.1-3.9,5.3-8.2,7.9-12.1c3.7-6,9.4-10.3,16-12.7c5.5-2.1,11.2-4,17.1-4.2c1.2,0,2.4,0.1,3.4,0.3l0.3-1
	C1009.5,297.9,1007.1,298.1,1004.6,298.3z M787.2,277.5C787.4,277.5,787.5,277.5,787.2,277.5L787.2,277.5z"/>
<g>
	<path class="st0" d="M692.2,492.6c0.1,9.6-2.5,28.4,7.2,34.3c2.4,1.4,5,0.9,7.1,2.9c3.9,3.4,6.7,10.6,3.7,15.3
		c-0.6,0.9-1.7,1.4-2.6,1.9c-10.5,6.5-22.1,10.5-34.5,10.4c-5.2-0.2-11,0.1-15.8-2.3c-0.4-0.3-1.1-0.8-1.4-1.2
		c-2.4-3-6.6-3.2-10.1-3.3l-0.1,1.2c2.5,0.3,5.5,0.4,7.5,1.9c1,0.8,1.9,2.1,3,2.9c5.1,2.9,11.1,2.9,16.7,3.3
		c12.7,0.7,25.6-3,36.6-9.2c7-2.8,7.7-10.9,5.5-17.1c-1.7-5.3-6-10.4-11.8-11.5c-4.5-1.5-4.5-8.8-4.7-13.1
		c-0.1-5.3,0.5-10.7,0.9-16.3L692.2,492.6L692.2,492.6L692.2,492.6z"/>
	<polygon class="st0" points="696,515.5 686.6,536.2 697.4,516.1 	"/>
	<polygon class="st0" points="701.4,525.2 692,545.8 702.8,525.8 	"/>
	<polygon class="st0" points="694,506.6 673.9,517.2 694.7,507.9 	"/>
</g>
<g>
	<path class="st0" d="M688.6,57.9c9.6-0.1,28.4,2.5,34.3-7.2c1.4-2.4,0.9-5,2.9-7.1c3.4-3.9,10.6-6.7,15.3-3.7
		c0.9,0.6,1.4,1.7,1.9,2.6c6.5,10.5,10.5,22.1,10.4,34.5c-0.2,5.2,0.1,11-2.3,15.8c-0.3,0.4-0.8,1.1-1.2,1.4
		c-3,2.4-3.2,6.6-3.3,10.1l1.2,0.1c0.3-2.5,0.4-5.5,1.9-7.5c0.8-1,2.1-1.9,2.9-3c2.9-5.1,2.9-11.1,3.3-16.7
		c0.7-12.7-3-25.6-9.2-36.6c-2.8-7-10.9-7.7-17.1-5.5c-5.3,1.7-10.4,6-11.5,11.8c-1.5,4.5-8.8,4.5-13.1,4.7
		c-5.3,0.1-10.7-0.5-16.3-0.9L688.6,57.9L688.6,57.9L688.6,57.9z"/>
	<polygon class="st0" points="711.5,54.1 732.1,63.6 712.1,52.7 	"/>
	<polygon class="st0" points="721.1,48.7 741.8,58.1 721.8,47.3 	"/>
	<polygon class="st0" points="702.5,56.1 713.2,76.2 703.9,55.4 	"/>
</g>
<polygon class="st0" points="719.1,300 738,303.4 718.9,301.2 "/>
<polygon class="st0" points="731.5,346.9 750.4,350.3 731.3,348.1 "/>
<polygon class="st0" points="732.8,480.3 751.8,483.7 732.6,481.6 "/>
<polygon class="st0" points="734.4,400 753.3,403.4 734.2,401.2 "/>
<polygon class="st0" points="164,516.9 153,501.2 165.1,516.2 "/>
<polygon class="st0" points="715,306.1 733.9,309.5 714.8,307.3 "/>
<linearGradient id="SVGID_00000142141865919661996240000000394161529880080009_" gradientUnits="userSpaceOnUse" x1="698.1" y1="204.6875" x2="1087.4" y2="204.6875">
	<stop  offset="0" style="stop-color:#FFFFFF"/>
	<stop  offset="5.979039e-02" style="stop-color:#FFFFFF;stop-opacity:0.9754"/>
	<stop  offset="0.4864" style="stop-color:#FFFFFF;stop-opacity:0.8"/>
</linearGradient>
<path style="fill:url(#SVGID_00000142141865919661996240000000394161529880080009_);" d="M1087.4,208.6l-17.5,8.1
	c-5.6-1.6-11.3-2.6-17-3.2l6.5-7.8l-7.3,7.7c-2-0.2-4.1-0.4-6.2-0.6l7.3-8.9l-8.3,8.8c-1-0.1-2-0.2-3-0.2
	c-6.3-0.3-12.6-0.5-18.9-0.1l11.7-14.1l-13.2,13.9l0.3,0.3c-0.6,0.1-1.2,0.1-1.8,0.2c-2.7,0.3-5,0.6-7.6,1.8
	c-1.4,0.8-2.2,1.9-3.1,3.1c-1.2,1.6-2.3,3.3-3.5,4.8l2.6-15.2l-4,17.1c-0.5,0.6-1,1.1-1.5,1.7c-3.1,3.3-6.9,5.7-11.1,7.1
	c-1.9,0.6-3.5,0.6-5.3-0.2c-1.8-0.7-3.7-2.1-5.7-3.4c-2.8-1.9-5.8-3.7-8.9-5.3l13.8,1.6l-16.9-3c-2.7-1.2-5.5-2.2-8.4-2.9
	c-1.2-0.4-2.7-0.7-4-0.8c-0.4,0-0.8-0.1-1.1-0.1l11.6-13.1l-13.2,13c-5.3-0.4-10.6-0.3-15.7-0.4c-4.9,0-10.2-0.5-15,0.3
	c-5.1,0.6-10,2-14.7,3.5c-1.1,0.4-2.1,0.7-3.2,1.1v-8.1c-0.1-2.9,0.1-8.6-0.3-11.4c-0.3-2.1-0.9-3.9-1.6-5.8
	c-0.1-0.2-0.1-0.4-0.2-0.5c5.9-2.6,11.7-0.5,17.3,2.4c4.7,2.2,9.7,5.7,15.3,4.8c6-1.2,9.8-5.7,12.6-10.5c1.9-3.5,3.2-7.4,3.4-11.4
	c0-1.7-0.1-2.3,0.1-3.4c1.8-11.2,12.1-19.5,23.1-13.7c1.8,1,3.3,2.5,4.5,4.4c3.6,5.7,5.1,13.7,9.6,19.4c4.9,6.6,12.6,8.2,20.3,8.4
	c4.8,0.3,9.7,0.2,14.5-0.2c9.7-0.8,19.2-2.5,28.4-5.1l18.5,0.4l-19.1-1.6l0,0.3c-9.1,2.2-18.5,3.6-27.9,4c-4.8,0.2-9.6,0.2-14.3-0.2
	c-3.5-0.2-7.1-0.7-10.3-1.9l13.6-7.4l10.9,2.9l-9.9-3.4l14.5-7.9l-23.6,10.1l2.8-16.4l-4,16.9l-7.9,3.4c-1.6-1.1-3.1-2.4-4.3-4.1
	c-4.2-5.8-5.1-13.3-8.9-19.5c-4-7.1-13.5-10.1-21.2-7.5c-5.2,1.7-9.2,5.8-11.7,10.5c-1.3,2.3-2.2,4.8-2.7,7.5
	c-0.4,2.7-0.1,4.5-0.8,6.9c-1.5,5.5-5.5,12.2-11.3,13.4c-3.7,0.3-8-2.8-11.5-4.6c-1.6-0.9-3.3-1.8-5.1-2.5l14.9-3.5l-16.6,2.8
	c-2.7-1-5.5-1.6-8.4-1.6c-0.3,0-0.5,0-0.8,0.1l11.4-12.9l-13.2,13c-5.6,0.7-11.5,3.2-9.1,10.3c0.5,1.4,1,3.3,1.2,4.7
	c0.3,2.1-0.1,8-0.1,10.2l-0.3,10.6c-0.6,0.1-1.3,0.3-1.9,0.3c-1.8,0.2-3.3,0.3-5-0.1c-6.7-1.7-13.7-3.8-19.9-6.8
	c-2.9-1.4-5.6-2.8-8-4.8c1.5-8.2-1.9-17-7.8-22.8c-1.1-1.1-2.2-2.1-3.4-3l33.5-1.4l-22.5-1.5l12.7-9.5l-14.4,9.4l-15.1-1
	c-3.8-2.3-8-4.1-12.2-5.6c-7.3-2.9-16.2-3.4-24-3.4c-6-0.1-11.8,0.1-17.6,0c-0.5-2.9-1-6.1-0.6-8.9c0.1-0.4,0.3-0.7,0.2-0.6
	c2.3-1.3,5.5-1.6,8.3-2c2.3-0.3,4.6-0.5,6.9-0.7l7.5,7.3l0.5,0.5l0.6-0.1l14.5-2.9l16.7,0.3l-12.8-1.1l11.5-2.4l0-0.2l11.4,0.2
	l-11.6-1l0,0l-0.2,0l-0.4,0v0.1l-17,2.7l0,0l0,0l-11.8,1.9l-7.2-7.7l-0.4-0.4c-2.8,0-5.7,0-8.5,0.2c-2.7,0.2-5.3,0.3-8.1,1.1
	c-0.9,0.3-2.3,0.8-3.1,1.8c-1.3,1.8-1.4,4.4-1.4,6.4c0,1.9,0.1,3.6,0.3,5.4c-1.6-0.1-3.3-0.1-4.9-0.2c-27.9-2.4-55.9-3-83.9-2.6
	l1,18.5c14.5-0.9,29.3-1.4,43.9-1.6c0,0,0.1,0,0.1,0l2.8,15.3l-0.4-0.1l-4.7,18.7l5.4-16.9l4,21.7l-1.7-24.2l16.4,5.6l-16.5-6.9
	l-0.6-8.2l17.1,5.8l-17.2-7.1l-0.3-3.9c5.7,0,11.5,0,17.2,0.1l6.5,12.4l-3.9,15.7l4.6-14.4l13,24.5l-7.5-18.8l15.4,5.2l-15.9-6.5
	l-2.1-5.3l17.4,1.9l-17.9-3.1l-1.9-4.7l17.5,1.9l-18-3.1l-2.2-5.5c2.1,0,4.1,0.1,6.2,0.2c3.5,0.2,7.9,0.4,11.4,0.3
	c12.8,0.1,25-2.1,37.4-0.3c7.5,1.8,16,4.9,21.7,10.2c4,3.7,6.2,8.7,4.9,13.9l0.6,5.3c0.3,0.3,0.8,0.9,1.1,1.2
	c7.6,7,17.9,10.2,27.6,12.8c2.7,0.7,5.5,1.3,8.3,1.8c2.6,0.5,5.4,0.3,7.9-0.2c10-2.1,17.9-6.8,27.6-8.4c1.6-0.3,3.2-0.5,4.8-0.6
	l15.6,6.9l9,16.8l-7.3-16.1l23.1,10.2l-31.2-18c6.1-0.2,12.3-0.5,18.3-0.1c3,0.5,6,1.3,8.9,2.3c4.3,1.5,8.3,3.6,12.3,6.2
	c4.4,2.8,10.1,6,15.6,3.6c2.4-0.9,4.8-2.2,7-3.7l27.5-1.1l-24.2-1.6c0.8-0.8,1.6-1.5,2.3-2.4c2.5-2.8,4.3-6,6.3-9.1
	c1.3-2.2,2.3-2.6,4.7-3.2c12.8-2.6,26.1-2,39.1-1c4.7,0.5,9.5,1.2,14.1,2.4l0-0.1L1087.4,208.6z M902.8,197.7
	C902.7,197.8,902.7,197.8,902.8,197.7C902.5,198,902.5,197.8,902.8,197.7z"/>
<g>
	
		<linearGradient id="SVGID_00000090282916639661093450000008800207602676497806_" gradientUnits="userSpaceOnUse" x1="710.0001" y1="85.1" x2="1272.7998" y2="85.1">
		<stop  offset="0" style="stop-color:#FFFFFF"/>
		<stop  offset="0.4864" style="stop-color:#FFFFFF;stop-opacity:0.8"/>
		<stop  offset="0.9401" style="stop-color:#FFFFFF"/>
	</linearGradient>
	<path style="fill:url(#SVGID_00000090282916639661093450000008800207602676497806_);" d="M1244.1,82.6c-14.3-2.1-28.7-4.1-43.2-4.6
		l20.6-8.9l-23.4,8.8c-6.9-0.1-13.7,0.1-20.6,0.9l13.5-20.4l-16.8,20.8c-0.8,0.1-1.7,0.2-2.5,0.4l3.1-18.2l-4.3,18.5
		c-4.2,0.8-8.5,2-12.4,3.9l-1.4-25.7l-1,26.9c-3.9,2.3-7.3,5.3-9.6,9.4c-2.6,4-3.8,9.1-6.8,12.5c-3.1,3.6-11.1,4.7-20.2,4.8
		l18.6-28.1l-22.4,27.9l0.2,0.2c-12.1-0.3-25.4-2.1-31.9-2.5c-2.2-0.2-4.6-0.3-6.9-0.1l22.5-10.5l-30.2,10.8
		c-4.9,0.1-9.7,0.1-14.6-0.1c-6.2-0.4-12.6-0.7-18.8-1.6l26.1-12.2l-23.2,8.4l4.9-17.6l-6.4,18.1l-6.6,2.4
		c-5.9-1.3-11.7-3.2-16.9-6.5c-5.9-3.8-10.8-9.2-15.9-14.1c-3.8-3.7-8.2-7.3-13.6-8.6c-2.4-0.7-5.6-0.7-8-0.8
		c-14.6-0.3-31.1-0.7-46.3,2.4c-1-4.7-2.8-8.9-3.8-13.6c-2.3-10,1.3-15.1,9.3-20.5c4.9-3.3,10.4-3.7,16.3-3.7c3,0,6.1-0.4,9-0.2
		c6,0.2,12.4,3,13.4,9.4c0.2,0.9,0.6,1.7,1.2,2.4c2.9,3,9,4.7,15.4,5.8l5.1,15.6L991.4,59c2.7,0.4,5.5,0.7,8.1,1l10.5,14.3
		l-9.1-14.2c2.6,0.2,4.9,0.3,6.8,0.5c5.1,0.1,24.9,1,26.8-4.4c0.3-1,0.5-2,0.7-3l3.1-0.5l10.1,13.8l-9.1-14l29.9-5l-20.3,1.5l9.7-14
		L1047.6,49l-11.5,0.8c0.3-1.3,0.7-2.5,1.1-3.7c2-5.5,5.3-10.6,9.9-14.2c11.6-9.3,36.7-12.6,51.5-14.6c6-0.7,12.1-1.3,18.1-1.4
		c6.1-0.1,11.6,2.5,17.2,4.7c5.5,2.2,11.4,3.2,17.3,3.3l0,0.1l18.7,2.3l-18-3.3v-0.1c-6.1-0.1-12-1.2-17.6-3.5
		c-0.1-0.1-0.2-0.1-0.4-0.2l16-7.7l-17.3,7.2c-1.3-0.5-2.6-1.1-3.9-1.6l15.8-7.7l-17.2,7.2c-2.7-1-5.4-1.8-8.2-2.1L1129.2,0
		l-11.4,14.3c-0.4,0-0.7,0-1.1,0c-6.2,0-12.2,0.5-18.3,1.1c-12.1,1.3-24.2,3.2-36,6.5c-5.9,1.7-11.9,3.9-16.8,7.8
		c-3.7,2.8-6.7,6.6-8.9,10.8l-18.5-27.4l16.9,30.9c-0.1,0.3-0.3,0.6-0.4,0.9c-1.2,3.2-2,7-2.8,10c-1.6,1.2-3.9,1.4-5.9,1.7
		c-5.9,0.7-11.9,0.6-17.9,0.3c-8.9-0.6-18-1.5-26.3-4.5c-1.5-0.7-3.1-1.3-3.8-2.5c-0.7-4.3-3.5-8.5-7.5-10.5
		c-6-3.2-12.5-2.5-18.9-2.4c-5.9-0.2-11.3,0.4-16.3,2.8l-18-26.7l15.4,28.1c-1.3,0.8-2.5,1.7-3.8,2.8c-1.1,0.9-2.1,1.8-3,2.8
		l-31.6-13.5l29.5,16c-1.6,2.2-2.7,4.6-3.1,7.3c-1.5,8.2,2.5,16,4,23.7c-7.8,2-15.2,5.2-21.7,9.9c-2.4,1.8-4.6,3.8-6.6,5.9
		l-2.6-28.4v31.6c-3.9,5-7,10.6-9.4,16.3l-0.1,0.2v0c0,0-0.1,0-0.1,0c-2.2,1.1-5.3,1.1-8.1,1.1c-8.3-0.3-16.9-1.9-25.1-3.7
		l-9.1-19.9l8.1-2.5l15.8,1.8L852,90.2l21.8-6.8l-33.2,7.1l-1.5-3.3l28.6-15.4l-29.8,12.7l-4.7-10.2l-0.2-0.5
		c-2.4-3.1-4.9-5.8-8-8.2c-1.7-1.4-3.5-2.4-5.3-3l9.9-36l-13.9,35.1c-5.9-0.4-11.2,3.2-14,10.3c-4.9,11.5-20.4,18.8-32.3,19.7
		c-4.7,0.3-9.7-0.3-13.3-3c-4.4-3.3-8.4-7.5-12.4-11.9c-8.7-9.4-16.2-20.7-27.7-27.5l-6,11.9c4.4,2.4,8.4,6.6,12.1,10.5
		c8.5,9.2,16.3,19.3,26.8,27.1c3.3,2.5,7.2,3.9,10.9,4.7c19.3,3.7,45.7-8.6,53.1-27.2c0.6-1.4,1.1-2.5,2.1-3.2
		c1.2-0.1,2.3,0.7,3.6,1.6c1.7,1.2,3.4,2.9,4.8,4.6l0.1,0.2l19.4,40.4l1.1,2.3c3.5,0.8,6.9,1.5,10.4,2.1l-4.2,16.6l5.3-16.4
		c1.8,0.3,3.6,0.6,5.4,0.9c-0.8,8.3-5.9,20.7,4.6,23.3c2,0.4,4.8,0.2,6.8,0.3c8.5,0.2,17.2,0.8,25.7,0.2c1.6-0.1,3.4-0.3,5.1-0.7
		c2.2-0.6,4.4-0.6,6.9-0.2c5,0.8,9.9,2.5,14.6,4.7l-3.8,17.2l4.8-16.7c0.2,0.1,0.4,0.2,0.6,0.3c4.3,1.4,8.7,1.4,13.1,1.6l-0.1,0.3
		l28.9,6.2l-20.6-6.4c4.6-0.1,9.5-0.3,14.4-0.9l28.8,6.2l-22.7-7.1c3-0.6,5.9-1.3,8.6-2.3l28.6,6.1l-24.7-7.8c1.6-0.8,3-1.7,4.3-2.6
		c0,0,0,0,0,0l10.8-3.4l0,0.3l19.1,2.2l-17.2-3.1l15.2-4.7l-23.2,4.9c6.7-5.1,14.1-9.5,22.1-12.2c7.7-2.7,15.9-3.5,24-2.2l9.3,8.1
		l-8.4-8.8l0-0.2c-0.1,0-0.2,0-0.2,0l-0.1-0.1l0,0c-8.3-1.6-17-1.1-25.1,1.5c-8.2,2.5-15.8,6.7-22.8,11.7c-1.5,1.1-3,2.3-4.5,3.5
		l-0.2,0l0,0.1c-1.7,1.3-3.5,2.4-5.6,3.1c-11.8,4.2-24.7,4.2-37,3.7c-4-0.3-8.4-0.6-12.2-1.5c-0.4-0.1-0.6-0.1-0.9-0.3
		c-3.4-1.9-6.9-3.4-10.6-4.6c-0.1,0-0.1,0-0.2-0.1l1.3-17.6l-2.4,17.3c-4.5-1.3-9.2-2.3-14-1.2c-3.5,0.6-7,0.5-10.5,0.5
		c-6-0.1-12.8-0.6-18.9-1l-3.2-0.2c-0.9,0-3,0.2-3.5-0.6c-0.9-1.8-0.3-4.3,0.1-6.7c0.6-3.2,1.4-6.1,1.8-9.3c9.6,1,22.5,1.2,25.6-7.4
		c0.8-2.1,1.7-4,2.6-5.9l39.6-1.5l-37.2-2.7c5-8.1,11.3-13.4,18.8-17l15.2,1.8L918.7,91c8.2-3.6,17.8-5.3,28.7-6.4
		c9.5-0.8,19.1-1.1,28.7-0.9l3.6,0.1c3.2,0.1,5.8,1,8.5,2.8c2.7,1.7,5.4,4.2,8,6.7l-3.6,16.7l4.5-15.8c0.6,0.5,1.1,1,1.7,1.5
		c12,11.7,23.5,15.5,39.6,17.3l8.3,15l-7.1-14.9c0,0,0,0,0.1,0c5.7,0.6,11.3,0.8,17,0.9l7.8,14l-6.6-14c4.1,0,8.3-0.1,12.4-0.3
		l9.9,41l-3.4-26.1l16.3,5.7l-16.5-7.1l-1.8-13.8c1.2-0.1,2.3-0.2,3.5-0.2c16.3,0.3,32.7,3,49.1,1.2c4.7-0.6,9.8-1.4,13.4-4.8
		l17.4,4.1l-16.5-5c2.3-2.7,3.4-5.8,4.7-8.9l10.1,2.8l-9.9-3.4c0.5-1.2,1.1-2.4,1.8-3.5c2.3-4.1,5.7-7.4,9.9-9.5
		c1.9-0.9,3.9-1.7,6-2.4l20.5,16.8L1166.9,83c2.8-0.8,5.7-1.4,8.7-1.8l0.2,0.2l0.2-0.2c3.6-0.5,7.3-0.9,11.1-1.1l0,0l30.1,11.7
		l-25.4-11.9c1.5,0,3,0,4.5,0l0.1,0.2l0.4-0.2c16.9,0.1,34.4,2.3,47.3,4.1c9.5,1.4,19.1,3.1,28.6,5.1l0.2-1
		C1263.3,85.9,1253.7,84.1,1244.1,82.6z"/>
	
		<linearGradient id="SVGID_00000080896073728242604370000011707963081887363492_" gradientUnits="userSpaceOnUse" x1="1028.4" y1="22.85" x2="1044.5" y2="22.85">
		<stop  offset="0" style="stop-color:#FFFFFF"/>
		<stop  offset="0.4864" style="stop-color:#FFFFFF;stop-opacity:0.8"/>
		<stop  offset="0.9401" style="stop-color:#FFFFFF"/>
	</linearGradient>
	<polygon style="fill:url(#SVGID_00000080896073728242604370000011707963081887363492_);" points="1044.5,17.1 1028.4,27.6 
		1029.1,28.6 	"/>
</g>
<polygon class="st0" points="691.2,74.5 656.7,69.2 691.6,72.2 "/>
<polygon class="st0" points="693.8,251.3 663.1,268.1 692.7,249.3 "/>
<linearGradient id="SVGID_00000121983702756555619530000008523117528964531852_" gradientUnits="userSpaceOnUse" x1="367.8" y1="234.5006" x2="695.6" y2="234.5006">
	<stop  offset="0" style="stop-color:#FFFFFF"/>
	<stop  offset="0.4864" style="stop-color:#FFFFFF;stop-opacity:0.8"/>
	<stop  offset="0.9401" style="stop-color:#FFFFFF"/>
</linearGradient>
<path style="fill:url(#SVGID_00000121983702756555619530000008523117528964531852_);" d="M645.4,220.5c-7,2.2-14,3.7-21.2,2.9
	c-7.3-0.8-13.3-3.8-19.8-7.9c-2.8-1.7-5.7-3.3-8.6-4.9c-1.5-11.2-1.2-28.1-11.4-33.7c-3.8-2.1-7.9-2-12-1.8
	c-5.5,0.3-11,0.9-16.4,1.9c-7.5,1.5-15.5,3.3-22.4,7.1l-32.5-2.9l20.2,3.1l-11.6,9.4l12.9-9.2l8.2,1.3c-1.9,1.3-3.7,2.7-5.3,4.3
	c-5,4.5-10.1,9.9-16.9,11.6c-1.8,0.4-3.3,0.2-4.6-0.5l0-0.2l-0.4,0c-1.1-0.7-2.1-1.7-2.9-3c-5-6-12.7-7.9-19.8-9.6
	c-7-1.6-14.3-2-21.3-3.5l-0.1,0.4l-0.4-0.3l-9.6,13.6l10.7-12.5c3.3,0.8,7.1,1.4,11,2.1l-11.8,9.7l13.2-9.4c10,1.8,20.5,4.2,26.1,11
	c0.3,0.4,0.5,0.8,0.8,1.1l-3.9-0.3l-0.2-0.2l-0.1,0.2l-26.2-2.3l20.2,3.1l-8.9,12.6l10.6-12.3l3.2,0.5l-8.4,11.8l9.9-11.6l6.4,1
	c8.7,5.9,20.9-6.4,27.8-12.2c7.4-5.9,17.4-7.7,26.7-9.3c6.8-1,13.9-1.7,20.8-1.2c7,0.7,9.1,7,10,13.2c0.6,4.4,0.9,8.9,1.3,13.6
	c-2.3-1-4.6-1.8-7.1-2.5c-4.4-1.1-9.4-1.5-13.9-0.3c-12,2.9-23.6,6.9-34.3,13.7c-1.6,1-3.3,2.3-4.9,3.6l-29.6-2.5l27.7,4.2
	c-1.8,1.8-3.5,3.8-4.7,6l-41.5,2.8l24.5,1l-8.9,12.5l10.7-12.4l4.8,0.2l-8.8,12.2l10.4-12.2l7.1,0.3c-0.4,1.9-0.5,3.8-0.1,5.8
	l-21.9,31.9c-3.2,1.3-6.4,2.4-9.8,3.5l-32.3-13.8l28,15.1c-5.9,1.7-12,3-18.1,3.6c-8,0.8-17-0.3-22.3-6.9
	c-3.6-4.4-4.8-10.3-7.8-15.3c-4.7-8.1-14.5-10.8-23.1-12.3c-11.5-1.8-23.1-1.7-34.6-0.7l-10.6-3.2l10.3,4l0,0.2c0.1,0,0.2,0,0.3,0
	l0.1,0l0,0c11.4-0.8,22.9-0.6,34.2,1.4c8.1,1.5,17.2,4.1,21.2,11.9c0.5,1,1,2,1.4,3l-9.6,0.2l-14.3-6l12,6l-21.5,0.5l34.3,1.5
	c1.4,3.7,2.6,7.5,5.1,10.7c1.8,2.3,3.8,4.1,6,5.4l-27.8,4.1l30.8-2.6c7.4,3.1,16.5,2.5,24.9,1l-7.8,11l9.8-11.4
	c2.4-0.4,4.7-0.9,6.8-1.4c6-1.4,11.9-3.2,17.7-5.3l0.5-0.7l24.7-32.9l1-1.3l-0.5-1.8c-1.6-6.4,5.5-11.2,10.4-14.4
	c9.8-5.9,21.5-9.5,32.8-11.7c6.7-1.1,12.9,1.9,18.8,5.1c5.9,3.2,11.1,7.2,17.1,10.5c0.3,2.3,0.5,4.6,0.2,6.7
	c-0.1,0.4-0.3,0.7-0.2,0.6c-2.3,1.3-5.5,1.6-8.3,2c-2.3,0.3-4.6,0.5-6.9,0.7l-7.5-7.3l-0.5-0.5l-0.6,0.1l-29,6l-0.3-0.2l-0.2,0.3
	l-0.3,0.1l0,0.2l-9.1,13l10.6-12.4l16.7-2.7l-8.7,12.3l10.8-12.6l0,0l9.2-1.5l7.2,7.7l0.4,0.4c2.4,0,4.9,0,7.3-0.1l-7.9,11l9.5-11.1
	c2.5-0.2,5-0.3,7.7-1.1c0.9-0.3,2.3-0.8,3.1-1.8c1.3-1.8,1.4-4.4,1.4-6.4c0-0.4,0-0.7,0-1.1c3.7,1.7,7.7,2.8,11.8,3.5
	c16.3,2.7,32.9-5.6,48.2-7.6c7.2-0.9,14.1-0.4,20.7,1.8l3.7-13.3C677.7,210.1,661.7,215.2,645.4,220.5z"/>
<polygon class="st0" points="702.4,284.9 667.4,286.2 702.3,282.6 "/>
<polygon class="st0" points="722,431.1 687.1,432.4 722,428.9 "/>
<polygon class="st0" points="716,457.2 681.1,458.4 715.9,454.9 "/>
<polygon class="st0" points="707.6,468.9 672.6,470.1 707.5,466.6 "/>
<polygon class="st0" points="671.3,525.3 651.8,554.2 669.5,524 "/>
<linearGradient id="SVGID_00000158719848025903602590000003770947836073720981_" gradientUnits="userSpaceOnUse" x1="379.6" y1="523.7" x2="699.7" y2="523.7">
	<stop  offset="0" style="stop-color:#FFFFFF"/>
	<stop  offset="0.4864" style="stop-color:#FFFFFF;stop-opacity:0.8"/>
	<stop  offset="0.9401" style="stop-color:#FFFFFF"/>
</linearGradient>
<path style="fill:url(#SVGID_00000158719848025903602590000003770947836073720981_);" d="M697.4,508c-7.3,2.1-13.4,5.4-19.5,8.4
	c-8.1,4-16.4,7.7-25.3,9.3c-1.7,0.3-3.3,0.5-5,0.7l-21.3-21.3l18.8,21.5c-3.2,0.2-6.4,0.1-9.5-0.1c-10.9-0.7-20-3-27.7-11
	c-3.1-2.7-7.9-3.5-12.7-3.5L584,498l9.7,14c-4,0.1-8,0.6-11.1,0.9c-9.8,1.3-19.4,3.1-29,5l-11.8-14.8l10.5,15
	c-10,1.9-20.1,3.8-30.3,5c-11.7,1.3-23.5,2.9-35.2,1.6c-1.8-0.3-3.6-0.6-4.6-1.7c-4.1-5.2-9.4-9.1-14.5-13.2
	c-5.4-4.2-11-8.2-17.1-11.6c-2-1-4.1-2-6.3-2.5c-1-0.2-1.9-0.1-2.9,0c-3.3,0.5-6.7,1.1-10,1.7l-21.7-4.6l18.4,5.3
	c-3,0.6-5.9,1.2-8.9,1.8l-13.9-5l12.2,5.3c-2.1,0.4-4.1,0.9-6.2,1.4l-14-3l12.1,3.4c-6.5,1.5-12.9,3-19.4,4.5l0,0l-10.4-2.2l10.6,3
	l0,0.2c16.7-3.3,33.4-7,50.2-9.4l1.2-0.1l1.2-0.1c0.4,0,0.6,0,1,0.1c2,0.4,3.7,1.4,5.5,2.4c5,2.9,9.7,6.4,14.3,10l-15.5,8.7
	l16.5-7.9c0.4,0.3,0.8,0.6,1.2,0.9c4.8,4,9.8,7.9,13.6,12.8c3.2,4.8,17,4,22.5,4c6.9-0.2,13.8-0.7,20.6-1.4l-15.8,27.1l10.9-16.2
	l5.3,12.8l-4.9-13.4l3.1-4.6l5.6,13.5l-5-14l-0.3,0.1l3.7-5.5c5.9-0.7,11.9-1.4,17.8-2.3c12.4-1.9,24.5-4.4,36.7-5.8l-16.1,27.4
	l18.7-27.7c0.3,0,0.7-0.1,1-0.1c5.1-0.4,16.6-1.7,20.4,1.5c1.8,2,3.8,3.7,5.9,5.2l-16.9,28.8l18.7-27.6c5.5,3.5,11.9,5.5,18.5,6.3
	c7.1,1,14.3,1.4,21.4,0.6c0.7-0.1,2-0.3,2.7-0.4c2.4-0.4,5.5-1,7.9-1.7c13-3.2,25.4-11.4,37.9-15L697.4,508z"/>
<polygon class="st0" points="701.1,290.9 666.1,292.1 701,288.6 "/>
<linearGradient id="SVGID_00000045578131433579824710000012734453356639545791_" gradientUnits="userSpaceOnUse" x1="568.2315" y1="234.3868" x2="707.7551" y2="179.908">
	<stop  offset="0" style="stop-color:#FFFFFF"/>
	<stop  offset="0.4864" style="stop-color:#FFFFFF;stop-opacity:0.8"/>
	<stop  offset="0.8519" style="stop-color:#FFFFFF"/>
</linearGradient>
<path style="fill:url(#SVGID_00000045578131433579824710000012734453356639545791_);" d="M682.6,131.4c-8.4,6.5-17.8,11-26.3,17.6
	l-6.4-15.4l5.6,16.1c-2.7,2.2-5.4,4.6-7.9,7.4c-1.4,1.7-2.7,3.5-3.8,5.5l-16.3-5.5l15.7,6.5c-1.1,2.2-2,4.5-2.7,6.8l-40.3,2.7
	l39.4,1.7c-0.2,1.7-0.3,3.4-0.3,5c0.3,7.8,0.4,15.5,0.3,23.4c-0.4,14.2-0.6,28.9-2.5,42.9c0,0-0.1,0-0.1,0.1
	c-2.9,1.4-6.8,2.1-10.3,2.1l0-0.3c-0.5-12.8-0.7-25.7-1.8-38.5c0-0.4-0.1-1.4-0.3-2c0,0-0.4-1-0.7-1.4c-0.5-0.6-0.9-0.9-1.2-1.2
	c-2.4-1.7-4.3-2.5-6.7-3.6c-4.5-1.9-8.9-3.8-13.4-5.3l-40.2-4.4l-0.1,0.4l-7.4,8.5l8.1-7.7l38.4,8.2c4.3,2.2,8.8,4.3,12.9,6.8
	l-26.4,2.7l28.9-1c0.3,0.2,0.6,0.4,0.8,0.6c-0.4,13.5-1.5,27.7-2.3,41.4c-0.2,2.4,0.8,4.8,2.6,6.3c3.5,2.8,8.1,3,12.1,3.1
	c1.8,0,3.8-0.2,5.8-0.4l-13,21.5l15.3-21.9c5.5-1.1,10.6-3.5,12.4-9.2c1.9-6.2,2.8-12.7,3.9-18.9c2.5-16,4.6-31.9,5.7-48.1
	c0.1-1.6,0.2-3.6,0.6-5.2c1.7-6,6.4-8.4,12.2-11.8c7.1-3.8,15.9-7.7,24.5-12.9L682.6,131.4z M618.1,210.3c0,0-0.1-0.1-0.1-0.2
	C618.1,210.2,618.1,210.2,618.1,210.3C618.3,210.4,618.3,210.5,618.1,210.3z M626.9,251.4l0-0.2c0,0,0,0,0,0
	C626.9,251.2,626.9,251.3,626.9,251.4z M637.9,245.6c0.1-0.1,0,0.1-0.3,0.3C637.7,245.7,637.8,245.7,637.9,245.6z"/>
<linearGradient id="SVGID_00000121993727960027191230000004792312773445223355_" gradientUnits="userSpaceOnUse" x1="144.7001" y1="133.4" x2="691.4" y2="133.4">
	<stop  offset="0" style="stop-color:#FFFFFF"/>
	<stop  offset="0.5363" style="stop-color:#FFFFFF;stop-opacity:0.8"/>
	<stop  offset="0.968" style="stop-color:#FFFFFF"/>
</linearGradient>
<path style="fill:url(#SVGID_00000121993727960027191230000004792312773445223355_);" d="M686.3,95.3c-0.9,0.3-2,0.6-3.1,0.9
	c-7.6,2-15.3,3.7-23.1,5.2c-18.2,3.3-36.4,6.1-54.8,6.7c-0.5-4.1-0.5-8.4-0.6-12.9c0-6.5-0.6-15.2-7.2-18.7c-1.4-1-3.6-1.9-5.2-2.5
	c-6.1-2.2-12.4-3.6-18.8-4.4c-4.4-0.5-9.1-1.2-13.5-0.1c-5.1,1.4-10.1,4.2-14.1,7.6l-7.8-3.3l-9.5-11.3l7.6,10.4l-22.6-9.6l17.2,9.3
	L518,80.4l13.9-7.2l11.4,6.2c-0.4,0.4-0.8,0.8-1.2,1.2c-6.8,3.8-18.7,6.3-26.2,3.7c-0.7-0.3-1.6-0.8-2.2-1.2
	c-4.5-3.4-9.6-6.4-15-8.2c0.4-1.1,0.7-2.1,1-3.3c1.1-3.9,1.6-10.5-3.6-11.7c-1.2-0.2-2.6-0.2-3.9-0.3L480.6,45l10.2,14.6
	c-4.2-0.1-8.3,0-12.4,0.1L467.5,46l9.5,13.8c-2,0.1-4,0.2-6,0.2l-0.3,0.1l-16.5,7L447,66l-10.2-12.7l8.7,12.5l-20.7-3.2
	c-14,1.9-28.1,4.2-42.2,5.1l-32.3-14.6l29,14.8c-0.2,0-0.4,0-0.7,0c-3.5,0.2-7,0-10.5-0.7c-9.4-1.6-18.6-3.6-27.9-5.7
	c-9.2-2.1-18.4-4.3-27.5-6.4l0-0.1l-0.1,0c-0.1,0-0.1,0-0.2,0l0,0.1l-10.6,3.7l10.8-2.7c8.4,2.1,16.8,4.1,25.2,6.1l-13.1,8l14.6-7.6
	c0.2,0,0.4,0.1,0.6,0.1c4.2,0.9,8.4,1.9,12.6,2.9l-13.1,8l14.7-7.6l0-0.1c6.9,1.6,13.9,3,20.9,3.6c16.7-0.1,33.3-2.8,49.8-5
	c0.5,0.1,14.2,2.6,22.7,4.2l0.3,0.4l0.4-0.3c3.6,0.6,6.1,1.1,6,1.1l0.4,0.1l0.4-0.2l16.6-7.4c7.9-0.2,16-0.6,23.9,0.2
	c3.7,1,1.9,7.7,0.5,11.5c-2.3-0.6-4.6-1-6.9-1.2c-5.8-0.5-11.4,0-17,0.7c-6.4,1-12.8,1.9-18.6,4.9c-0.9,0.6-1.6,1-2,2.2l-11.1-1
	l-10-11.9l8.6,11.8l-22.1-1.9l32.1,4.9c-2.2,1.2-5,1.9-7.4,2.6c-5.5,1.3-11.4,1.7-16.8,0.1c-0.9-0.2-2.1-0.5-3.1-0.7
	c-4.1-0.8-8.4-1-12.5-1.2c-0.7,0-1.4,0-2.1-0.1l0,0l-0.1,0c-10.2-0.3-20.3,0-30.4,0.4l-0.1-0.2l-0.4,0.2c0,0-0.1,0-0.1,0v0.1
	l-14.3,7.8l14.9-6.9c9.3-0.2,18.5-0.3,27.8,0.2l-11.5,7l13.3-6.9c3.7,0.2,7.4,0.5,11.1,0.9c2,0.2,4.1,0.6,6,1.1
	c9,2.8,18.7,1.7,27.2-2.1c1.6-0.8,3.3-1.6,3.9-3.6c0,0.2,0,0.1,0.1,0l0.3-0.2c2.9-1.7,6.3-2.4,9.7-3.1c7.9-1.5,16.3-2.3,24.2-1.5
	c8,0.7,15.2,4.4,21.5,9.3c1.2,1,2.6,1.9,4,2.5c8.9,3.4,22.1,1,30.4-3.2c0.7-0.4,1.4-0.9,1.9-1.5c1.4-1.5,3-2.7,4.7-3.8
	c3.6-2.4,7.5-4.7,11.8-5.2c8.5,0,17.2,1.9,25.2,4.6c2.2,0.8,4.7,1.9,6.6,3.2c3.5,3,2.8,8.2,3,12.6c-0.1,4.1-0.2,8.5,0.3,13.1
	c-6.2,0-12.4-0.3-18.7-1c-9.1-0.9-18.3-2-27.7-2.8c-10-0.8-19.5-1.6-29.7,0.3c-4.7,1.1-9.4,2.4-14,3.8c-0.6,0.2-1.3,0.4-1.9,0.6
	l-8-1.7l-9.5-11.2l7.9,10.8l-23.4-4.9l28,8.7c-3.4,1.3-7,2.8-10.5,4.6l0-0.4l-15.5,0.2L464.9,103l9,12.3l-19.1,0.3l24,1.9l-4,7.9
	l-26.2,2.6l25.3-0.9l-1.8,3.6l2.1-3.6l2.3-0.1c-1.4,2.1-2.4,4.3-2.9,6.8c-0.1,0.4-0.1,0.9-0.2,1.3c-1.9,0.9-3.9,1.6-5.9,2.2
	c-23.7,6.5-48.7,5.5-73.2,3.4l-3.2-34.9v29.8l-13.3-7.3l13.3,8.5v3.6c-1.2-0.1-2.5-0.2-3.7-0.3l-1.4-0.1c-2-0.3-4.5,0.3-6,1
	c-2,1-3.8,2.1-5.6,3.4L342.6,130l30.5,15.5c-3.7,2.8-7,6-11.1,8.4c-0.6,0.3-1.2,0.6-1.4,0.6c-0.1,0.1-1.9,0.1-2.3,0.1
	c-9.1,0.2-18.4,0.2-27.4-0.1c-6.6-0.3-13.9-0.3-20.8-1.4l-21.8-26.8l7,10.4l-8.9,0.8c-0.7-1.4-1.4-2.9-2.2-4.4
	c-1.7-3.6-4.1-4.6-8.1-4.7c-3.9-0.1-7.7-0.1-11.5,0l0.1-0.2l-33-14.1l26.9,14.6c-4.2,0.2-8.5,0.6-12.7,1l0,0l-0.1,0
	c-4.6,0.4-9.2,0.8-13.8,1.3c-21.9,2.2-43.8,4.8-65.6,7.9c-7.2,1.1-14.5,2.1-21.7,3.7l0.2,1c14.3-2.8,29-4.2,43.5-5.9
	c17.5-1.9,35-3.6,52.5-4.8l-24.5,15.7l28.9-16c2.9-0.2,5.8-0.4,8.8-0.5c4.7-0.2,9.5-0.5,14.2-0.6l-26.5,17.1l30.6-16.9l-0.1-0.1
	c2,0.1,4.1,0.2,6.1,0.5c0.8,0.2,1,0.3,1.5,0.8c0.9,0.9,1.6,2.7,2.3,4.3c0.1,0.2,0.2,0.5,0.3,0.7l-3,0.3h3.2c1.4,3.1,3.1,6.3,5.4,9
	c1.5,1.7,3.2,3.2,5,4.4l-29.6,3l32.6-1.1c3.9,2.1,8.2,3.5,12.4,4.4c7.4,1.5,14.7,1.8,22.2,2.4c9.1,0.6,18.5,0.9,27.6,1.1h1.4
	c1.6,0.2,4.2-0.5,5.5-1.3c5.2-2.8,9.2-6.6,13.9-9.7c1.8-1.2,3.7-2.5,5.5-2.7l2,0.3c9.1,1.1,18.3,2.2,27.5,2.9
	c-0.8,1.9-1.7,3.8-2.6,5.9c-1.3,3.1-2.5,6.8-2.5,10.4c0,1,0.1,2.2,0.1,3.2c0,3.5-1.3,6.8-3.9,7.9c-2.1,1.1-5.2,0.6-7.6,0
	c-5.3-1-10.8-1.2-16.1-1.6c-7.8-0.5-15.6-0.7-23.3-2.1c-0.7-0.2-1.7-0.5-2.4-0.8c-1.8-1-4-0.9-5.9-0.7c-3.5,0.6-6.9,1.7-10.2,3.1
	l-32.9,1.7l27.2,1.1c-2.7,1.5-5.4,3.2-7.8,5.1c-3.2,2.7-6.1,5.2-10.1,6.6c-9.8,3.2-20.6,1.7-30.6,0.1c-6-1-12.1-3-17.1-6.7
	c-5.1-3.6-8.3-10.4-15-11.5l-0.1,0.3l-7.4,8.4l7.9-7.6c3.8,1,6.4,4.1,9,7.1c3.6,4.1,8.1,7.3,13.1,9.3c5.7,2.3,11.8,3.4,17.8,4.2
	L268,210.4l28.5-15.8c0.4,0,0.9,0.1,1.3,0.1c2.7,0.3,5.6,0.4,8.4,0.4l-20.9,21.7l23.5-21.9c2.5-0.2,4.9-0.6,7.3-1.2l-13.2,28.1
	l15.6-28.8c2.2-0.9,4.2-2.1,6.1-3.5l-8.4,28.1l10.8-29.9c2.1-1.6,4.2-3.2,6.5-4.4c2.7-1.5,5.6-2.9,8.6-4l0.4,0l0-0.2
	c2.6-1,5.3-1.8,8-2.1c0.9,0,1.8,0,2.5,0.1c1,0.2,1.6,0.8,2.6,1.1c0.9,0.3,2.5,0.7,3.4,0.9c8.9,1.6,18.1,2.1,27.1,3L361.4,198
	l27.9-15.5c1.5,0.2,2.9,0.4,4.4,0.6c1.4,0.2,2.7,0.5,4,0.8l-3.9,6.5l-14.9,3.4l14.2-2.3l-11.8,19.7l19.9-26.7
	c5,0.4,10.1-1.9,12.4-6.6c1.2-2.4,1.7-5,1.8-7.4c-0.1-1.8-0.1-3.9,0.3-5.7c1.2-4.8,3.8-8.9,5.8-13.5c16.5,0.8,33,0.2,49.1-3.8
	c4.1-1.2,8.4-2.5,12-4.9l1.8-6.3l0.1,0.2c2.2-9.8,24.3-15.7,33.6-17.9c1.9-0.5,3.9-0.9,5.8-1.3c4-0.8,8.4-0.8,13.1-0.6
	c4.8,0.3,9.5,0.8,14.3,1.4l-3.2,1.2l-33.9,19.3l24.6-8l-1.3,10.5l2.1-10.7l7.6-2.5l-1.6,13.2l2.7-13.6l5.9-1.9l1.9,14.2l-1-14.5
	l14.6-4.7c12.2,1.7,24.4,3.2,37,3c28.5-0.6,56.9-4,84.7-10.6L686.3,95.3z M291,144.4c-1.8-1.8-3.1-4-4.3-6.3h9.4v-0.2l9.7,14.4
	C300.2,150.9,295.1,148.6,291,144.4z M478.1,125l-2.7,0.3l4.6-7.7l6.2,0.5C483.1,120.1,480.3,122.4,478.1,125z"/>
<linearGradient id="SVGID_00000150820202271532733560000006700654828889072549_" gradientUnits="userSpaceOnUse" x1="144.7999" y1="394.4343" x2="710.3" y2="394.4343">
	<stop  offset="0" style="stop-color:#FFFFFF"/>
	<stop  offset="0.4864" style="stop-color:#FFFFFF;stop-opacity:0.8"/>
	<stop  offset="0.9539" style="stop-color:#FFFFFF"/>
</linearGradient>
<path style="fill:url(#SVGID_00000150820202271532733560000006700654828889072549_);" d="M698.9,306.5c-4,2.3-7,4.8-9.7,7.3
	c-11,10.3-19.4,23.8-30.7,32.8c-6.5,4.4-16.8,1.7-24-1.5c-6.1-3-11.4-6.6-14.4-12.2c-1.1-2.3-2.1-4.7-4.2-7.3
	c-10.2-12-24.2-5.6-32.5,4.6c-0.8,1-1.7,2.2-2.5,3.2l-0.4,0.9l-14.3,31.9l-11.4-5.6l0.7-23.6l-2.6,22.6l-4.4-2.2l0.7-24.7l-2.6,23.2
	l-3.4-2.9l0.5-17.6l-1.8,16.4l-2.7-2.4l0.3-12.5l-1.3,11.6l-7.9-6.7l0.4-13.7l-1.4,12.8l-15.4-13.2l18.4,21l-10.9-0.9l11.9,2.1
	l6.8,7.7l18.6,15.1c-5.7,1.1-11.5,1.9-16.9,2c-2.2,0.1-4.6-0.1-6.3-0.5c-10.7-19.1-27.2-37.8-49.2-43.2
	c-1.4-11.2-1.3-27.6-11.3-33.1c-3.8-2.1-7.9-2-12-1.8c-5.5,0.4-11,1-16.4,2c0,0-0.1,0-0.2,0l-12.9-9.3l11.1,9.7
	c-4.6,1-9.3,2.1-13.8,3.7l-13.3-3.7l11.5,4.3c-4.5,1.8-8.7,4.2-12.2,7.7c-5.5-7.7-10-16-13-22c0.4-6.9,0.4-17.1-6.6-20.5
	c-0.8-0.3-1.6-0.6-2.5-0.6c-4.9-0.2-9.7,0.6-14.4,1.1c-11.7,1.6-23.1,3.6-34.7,5.7l-1.5,0.3l-0.3,0.9l-44.2,3l42.6,1.8l-5.4,15.7
	c-2.1-1.2-4.1-2.4-6.2-3.5c-3.3-1.8-6.6-3.5-9.9-5.3l-0.5,0.9l-5.6,11.6L283,289l30.7,12.8l-2,4.2c-14.4-3.4-29-6.4-43.1-11l0,0l0,0
	c-0.1,0-0.2-0.1-0.4-0.1l-0.1,0.2l-11,2.2l11.3-1.3c3.4,1.3,6.9,2.3,10.4,3.4c11,3.2,22.2,6.1,33.3,8.9l0.9,0.2l0.4-0.8l8.2-17.6
	c4.8,3,9.5,5.9,14.1,9.1l-10.6,31c-1.2,0.6-2.3,1.2-3.4,1.9c-4.1,2.6-7.8,5.4-11.6,8.4c-2.1,1.7-4.5,3.9-7.1,6.4l-31.2-10.8
	l29.5,12.4c-2.8,2.7-5.8,5.5-8.9,8.4c-5.5-0.5-11.1-1-16.5-2l0,0L253.4,327l17.9,26.8c-0.4-0.1-0.9-0.2-1.3-0.3
	c-4.5-1.2-8.8-2.8-12.5-5.3c-2-1.4-3.9-3.1-6.1-4.2c-5.5-2.8-12-4.3-18.9-5c0.6-4.6,2.1-9.2,3.8-13.5c1.6-1.4,2.6-3.1,3-5.1
	c0.4-2.9-0.5-5.4-2-7.6l-4-20.6l2.3,18.5c-1.5-1.7-3.2-3.1-4.7-4.5l-4.2-21.7l2.5,20.3c-2.7-2.2-5.5-4.2-8.4-6.1l-2.2-11.1l1.1,10.4
	c-2.4-1.6-4.9-3.1-7.4-4.6l-0.7,0.6c0,0,0.1,0,0.1,0.1l-7,8l7.9-7.4c2.7,1.8,5.4,3.7,8.1,5.5c0.6,0.4,1.2,0.9,1.9,1.4l-9.8,2
	l10.9-1.1c5.8,4.5,14.3,11.3,13.1,17.3c-0.3,1.5-1.4,3.1-2.7,3.9c-1,2.1-2,4.3-2.7,6.5l-27.5-17.8l26.8,20c-0.6,2.1-1.2,4.2-1.6,6.4
	c-1.9-0.1-3.9-0.2-5.9-0.1l-8.3-10.3l6.8,10.3c-2.9,0.1-5.8,0.2-8.8,0.5l-6.5-8l5.5,8.1c-2,0.2-4.1,0.4-6.1,0.7l-5.1-4.7l3.5,4.9
	c-11.5,1.6-22.7,4.1-31.7,6.2c-9.3,2.3-18.6,5-27.7,8l0.3,1c18.3-5.5,37-9.8,56-12.2c1.6-0.2,3.2-0.3,4.9-0.5l0.1,0.2l0.3-0.2
	c3.4-0.3,6.8-0.6,10.2-0.7l-7.7,10.8l9.4-10.9c1.5,0,2.9-0.1,4.4,0l-7.7,10.9l9.4-10.9c1.5,0,3,0.1,4.5,0.2c0,6.7,2.8,12.9,5.2,19
	c0.8,2,1.7,3.9,2.1,6c1.3,5.2,16.3,7.2,21.2,8.4c3,0.5,6.8,1.6,9.8,1.3c8.5-0.9,17.3-7.1,25.6-14.2c1.6,0.2,3.1,0.4,4.7,0.6
	c4.8,0.6,9.6,1.2,13.9,2.2c5.2,1.3,10.3,3.7,15.2,6.2l-35.6,8.7l42.1-5.4c2.3,1.1,4.7,2.1,7.4,2.2c5,0,9.6-2.2,13.8-4.1
	c6.6-3.2,13.1-6.8,19.7-10.3l0.2,6.8l0.2,7.2c0,2.7,0.5,5.7,1.5,8.2c0.1,0.3,0.6,1.5,0.8,2.1c-5.9,2.8-11.7,0.8-17.4-1.9
	c-4.8-2.1-9.9-5.3-15.5-4.3c-3,0.7-5.4,2.2-7.4,4.2l-27.3,6.6l24.5-3.3c-0.7,1.1-1.4,2.2-2,3.4c-1.8,3.5-3,7.5-3,11.5
	c0,1.7,0.1,2.3,0,3.4c-0.2,1.2-0.4,2.5-0.8,3.6c-0.2-0.1-0.3-0.2-0.5-0.2c-0.7-0.2-1.8-0.6-2.5-0.7c-0.8-0.2-2-0.3-2.8-0.3
	c-4.2,0.4-8.3,1.7-12.3,2.7c-3.2,0.9-6.5,1.8-9.7,2.8c-2.9-5.3-4.7-12-8.8-16.8c-4.7-6.1-12-7.5-19.3-7.7l-6.8-8.4l5.6,8.4
	c0,0,0,0,0,0c-2.2,0-4.4,0-6.6,0.1l-6.9-8.5l5.7,8.6c-2.3,0.1-4.5,0.3-6.7,0.5c-0.6,0.1-1.3,0.1-1.9,0.2l-6.7-8.2l5.6,8.4
	c-4.2,0.5-8.3,1.2-12.5,2.1l-10.9-2.5l9,2.9c-3.5,0.8-7,1.8-10.4,2.8l-0.1-0.1l-0.1,0.1c-0.1,0-0.2,0.1-0.3,0.1l0.1,0.3l-8.3,11.6
	l9.6-11.2c6.2-1.7,12.5-3,18.8-3.8l-8.9,12.4l10.8-12.5l-0.2-0.2c2.2-0.3,4.4-0.5,6.6-0.6c1.3-0.1,2.5-0.1,3.8-0.2l-8.9,12.5
	l10.8-12.5c1.3,0,2.7-0.1,4,0l-8,11.2l9.6-11.2c1,0,2,0,3,0.1c6.8,0.3,14,1.4,18.3,7.3c3.6,4.7,5,10.5,7.6,15.8
	c-8.2,2.5-16.4,5.1-24.6,7.7c0.7-0.1-47.9,5.5-47.9,5.5l0.1,0.3l-9,11.4l9.7-11.2l-0.1-0.1c5.7-0.5,47.6-4.3,47.7-4.4
	c6.3-1.9,12.6-3.7,18.9-5.5c2.1-0.6,4.2-1.1,6.2-1.7c0.3,0.5,0.6,1,0.9,1.4c3.9,6.5,12.6,9.2,19.9,7.3l-7.5,10.5l9.7-11.3
	c4.8-2,8.3-5.9,10.6-10.4c4.6,2.6,9,5.8,13.1,9.1l3.9,11l0.4,1l1.1,0.2c5.7,1.3,11.8,2.6,16.7,5.8c0.7,0.6,1.2,1.2,1.8,2.1
	c3.3,4.7,6.1,9.9,8.7,15c-1.3,0.6-2.6,1.1-3.8,1.7c-5,2-9.9,4-15,4.4c-8-0.3-15.7-2.7-23.4-4.8c-9.1-2.6-18-5.8-26.9-8.8
	c-13.9-1.3-31.6-2.6-47.9-1.1l-10.9-13.6l9.6,13.7c-5.7,0.6-11.3,1.5-16.4,2.9l-10.5-13.2l9.3,13.5c-2.2,0.6-4.3,1.4-6.3,2.2
	c-4.1,1.8-8.5,4.6-10.9,8.8c-1.2,2.3-1.9,4.7-3.4,6.9c-2.5,3.8-5.7,7.6-9.4,11.3c-0.3-0.2-0.6-0.3-0.9-0.5c-2.9-1.5-6-3-9.4-3.1
	c-2.2-0.1-4.5-0.2-6.7-0.3l-6.7-9.3l6.2,9.2c-2.8-0.2-5.7-0.4-8.5-0.7l-6.5-9l6,9c-2.3-0.2-4.6-0.5-6.9-0.7l-6.6-9l6,8.9
	c-6-0.7-11.9-1.4-17.9-2.1l-6.8-9.2l6.3,9.5l0,0.1c0,0,0.1,0,0.1,0l0.1,0.1l0.1-0.1c3.1,0.4,6.2,0.8,9.3,1.2l-5.7,4.2l6.2-4.1
	c2.9,0.4,5.8,0.7,8.7,1.1l0,0l0,0c0.7,0.1,1.5,0.2,2.2,0.3l-9.1,6.6l9.7-6.4l-0.1-0.1c1.4,0.2,2.7,0.3,4.1,0.5
	c1.2,0.1,2.3,0.3,3.5,0.4l-8.7,6.4l9.4-6.3c3.5,0.4,7,0.7,10.4,0.9l-8.8,6.4l9.5-6.3c0.3,0,0.6,0,0.8,0c3.2,0.1,6.1,1.6,8.9,3.1
	c0.2,0.1,0.3,0.2,0.5,0.3c-13.2,12.6-31.8,23.9-45.6,31.8l0.5,1c17-8.5,34-18.1,48.2-31.1c7.7,4.6,15.1,10.5,23.9,12.8l-8.9,12.5
	l10.5-12.1c2.2,0.3,4.3,0.4,6.4,0.5c0.5,0,1.1,0,1.6,0l-8.2,11.6l10-11.5c3.5,0.1,7,0,10.5-0.4c0-0.1,0.2-0.8,0.2-0.8l4-17.2
	c3.4,0,6.8-0.2,10.3-0.7c2.9-0.4,5.8-0.8,8.6-2c1.1-0.5,2.3-1.3,2.9-2.4c1.1-1.9,1.3-4.2,1.4-6.3c0.2-4.8-0.7-9.7-1-14.4
	c8.6,0.5,16.3,1.2,21.8,1.9c5.5,2.4,17.8,6.6,25.8,9c-0.7,3.2-1.6,6.4-2.5,9.4c-1.8,5.4-3.4,11-6.6,15.6c-0.3,0.3-0.4,0.5-0.8,0.6
	c-5.9,2.3-12.3,3.8-18.5,5.5l-0.2,0.3l-15.7,23l-14.9,0.7h14.9v-0.1l0.1,0.1l16.8-22.3c3-0.7,5.9-1.4,8.9-2.1l4.1,17.8l-2.9-18
	c2.8-0.7,5.6-1.5,8.4-2.5c3-0.9,6.8-9.7,9.5-17.7l3.8,16.5l-3-18.7c0.9-2.7,1.6-5.2,2.1-7.2c7.2,2.1,14.6,4.2,22.3,4.4
	c6-0.3,11.7-2.7,16.9-4.7c13.1-5.4,25.4-11.9,37.7-18.9l4-2.3c-6.2-5.3-12.7-11.8-15.4-19.6c-0.5-1.5-0.8-3.3-0.6-5
	c0.4-1.6,1.7-2.4,3.2-3.3c1.8-1.1,4.2-2.2,6.5-3.6c2.3-1.4,4.7-3.1,6.7-5.3c5.9-6.2,7.7-15.3,7.8-23.5c0.5-13.1-0.1-26-2-38.9
	c8.7-0.7,17.4-1.3,26-1.9l-7.8,11l9.6-11.1c3.4-0.2,6.8-0.4,10.2-0.6c5.7-0.3,11.3-0.7,16.8-0.5c3,0.5,5.9,1.3,8.7,2.5
	c8.3,3.5,15.1,9.2,20.9,16l-37.8,2.5l41.2,1.8c2.7,3.6,5,7.4,7.2,11.2c1.4,2.5,2.5,5.2,4.1,7.7c1.3,1.9,3.3,3.5,5,4.4
	c10.7,5.6,29.8,2,41.2,0.1c2.3-0.5,5.5-1.2,7.9-1.7l2-4l19.2-39.6c0.9-1.2,2.2-2.4,3.4-3.3c0.1,0.3,0.2,0.6,0.3,0.8
	c7.5,16.8,27.3,27.5,45.2,29.4c8.5,0.7,17.6-0.6,25.1-6c11-8,19-18.2,27.7-27.5c3.4-3.4,7-7.3,10.9-9.3L698.9,306.5z M263.8,372.6
	c-4.7-0.8-10-1.8-14.7-2.9c-2.9-0.8-7.2-1.8-9.1-3.5c-0.4-2.3-1.6-4.4-2.4-6.5c-2.3-5.5-4.9-11.2-5.4-17.1c0-0.1,0-0.2,0-0.3
	c3.7,0.4,7.4,1.2,11.1,2.3c4.5,1.4,8.3,3.8,11.8,6.9c9.3,6.6,20.6,8.7,31.8,10.2C278.9,368.3,270.7,373.5,263.8,372.6z M282.7,469.6
	c-0.1,1.6-0.1,3.2-0.8,4.6c-0.4,0.8-2.2,1.5-3.8,2c-5.2,1.4-10.8,1.8-16.2,2.1h-1.1l-0.2,1l-3.6,17.8c-4,0.4-8,0.5-12,0.4
	c-4.3-0.1-8.5-0.3-12.4-2.2c-6.4-2.9-12.4-7-18.6-10.6c0.9-0.9,1.8-1.7,2.7-2.6c3.7-3.8,7.2-8.1,9.4-13.1c0.6-1.4,1.2-2.8,2.3-3.9
	c9.2-9.5,32.6-10.8,52.8-10.1C281.7,460,282.7,464.7,282.7,469.6z M348.2,279.5c5.2-0.8,10.4-1.6,15.7-2.4c8.6-1.2,17.2-2.5,25.8-3
	c1.3,0,2.6-0.1,3.9,0h0.4h0.2c0.4,0.1,0.6,0.2,1,0.6c1.2,1.6,1.7,4.3,1.8,6.4c0.1,1.7,0.1,3.5,0,5.2l-42.6,2.9l42.7,1.7l0,0.1
	c2,4.3,4.5,9.4,7.5,14.7l-26.6-9.2l28.1,11.8c1.5,2.6,3.2,5.2,4.9,7.7c-3.5,3.1-7.3,5.9-11.8,7c-3.5,0.8-6-0.9-7.9-3.7
	c-5-6-12.7-7.9-19.8-9.6c-2.4-0.5-4.8-0.9-7.3-1.3l-11.6-14.6l10,14.4c-3.9-0.5-7.7-1.1-11.5-1.8l-8.6-10.9L348.2,279.5z
	 M305.9,420.9c-1.8-0.9-3.4-2.4-4.6-4.2c-0.1-0.1-0.1-0.2-0.2-0.3c3.1-0.8,6.1-1.6,9.2-2.4c4-0.9,7.8-2,11.8-2.3
	c1.6,0,3.1,0.5,4.6,1.1C323.1,420.6,314.9,425.2,305.9,420.9z M406.7,407.2c-5.2,3.3-12.8,6-13.1,13.7c-0.1,9,5.9,17,12.2,23.3
	c-7.9,4.5-16,8.8-24.3,12.7c-1.2-2.1-2.4-4.1-3.6-6.2c-2.7-4.3-5.1-9.1-9.1-12.5c-5.3-3.4-11.5-4.6-17.6-5.8l-4.2-10.2l-0.2-0.4
	c-4.6-3.6-9.4-7-14.5-9.7c0.6-1.6,1.1-3.3,1.3-5.1c0.3-2.7-0.1-4.5,0.5-6.9c1.4-5.5,5.1-12.3,10.9-13.7c3.6-0.4,8.1,2.5,11.6,4.2
	c3,1.5,6.1,2.9,9.4,3.7l-8.1,11.3l9.5-11c1.1,0.2,2.3,0.3,3.5,0.3l-6.5,9.1l7.8-9.1c6.2-0.6,14-2.9,11.1-10.9
	c-0.5-1.4-1.1-3.2-1.3-4.6c-0.3-2.1-0.1-8-0.2-10.2v-10.9c9.8-4.9,19.8-9.2,30.6-11.1c0.4,0,0.8-0.1,1.3-0.1
	c2.2,12.4,3.1,25.1,3,37.8C416.9,393.9,415,402.4,406.7,407.2z M377,386.8C377,386.7,377,386.7,377,386.8
	C377.2,386.5,377.2,386.7,377,386.8z M411.6,335.7c-0.6,0.1-1.7,0.3-2.2,0.4c-5.5,1.3-10.7,3.1-15.9,5.3l-34.9,3.3h27.8
	c-8.2,4.1-16.2,8.9-23.9,13.5c-4.1,2.5-8.1,4.9-12.2,7.1c-3.2,1.6-6.4,3.4-9.9,3.8c-1.2,0-2.3-0.5-3.7-1c-3.3-1.4-6.5-3-9.8-4.4
	c-4.5-1.9-9.3-3.7-14.3-4.7c-4.8-1-9.5-1.3-14.1-1.7c5.3-4.9,10.3-9.8,14.6-13.3c4.7-3.6,9.5-7.4,14.8-10l1.4-1.4l13.1-36.7l7.7,11
	l-0.1,0.4c0.1,0,0.3,0.1,0.4,0.1l0.3,0.4l0.3-0.2c6.2,1.5,14.1,2.4,21.4,4.2l-13.8,10l15.3-9.6c6.2,1.7,11.9,4.3,15.5,8.7
	c6.3,9.5,15.9,4.1,23.6-2.1c4.3,5.9,9.1,11.3,14.4,15.2C422.1,334.4,416.8,335,411.6,335.7z M476.9,329.9c-10.5,0.3-20.6,1.3-31,2.2
	c-1.1,0.1-2.1,0.2-3.2,0.3l0.1-1c-8.5-0.7-16.9-8.5-24-17.8c0.6-0.5,1.1-1,1.7-1.4c7.5-5.9,17.4-7.7,26.7-9.3c6.9-1,14-1.7,20.9-1.2
	c7,0.7,9.1,7,10,13.2c0.1,0.7,0.2,1.5,0.3,2.2l-28.8-9.9l29,12.2c0.3,3.5,0.6,7,0.9,10.6C478.7,329.9,477.7,329.9,476.9,329.9z
	 M603,339.5C603,339.5,603,339.5,603,339.5c0.1-0.1,0.2-0.1,0.3-0.1C603.3,339.4,603.3,339.5,603,339.5z"/>
</svg>
