<?xml version="1.0" encoding="utf-8"?>
<!-- Generator: Adobe Illustrator 27.4.1, SVG Export Plug-In . SVG Version: 6.00 Build 0)  -->
<svg version="1.1" id="_Слой_1" xmlns="http://www.w3.org/2000/svg" xmlns:xlink="http://www.w3.org/1999/xlink" x="0px"
	 y="0px" viewBox="0 0 1417.3 566.9" style="enable-background:new 0 0 1417.3 566.9;" xml:space="preserve">
<style type="text/css">
	.st0{fill:#FFFFFF;}
</style>
<path class="st0" d="M724.9,44.1c-4.2,20.2-10.1,40.7-13.9,60.8c-3.8,19.2-7.2,39.2-7.5,58.4c0,9.3,0.8,19.3,1.8,29.3
	c3.9,35.8,10.5,71.7,16.7,107.2l0.1,0.4l0-0.2l0.2,0.9l0.9,3.8c8.4,38.4,16.3,76.6,20,116.1c0.5,5.8,0.3,12.3-0.3,18
	c-3.4,31-6.3,62.8-20.1,91.1c-0.2,0.1-0.6,0.2-1.3,0.1c-0.3,0-0.7,0-1.2-0.1c-0.2,0-0.5-0.1-0.8-0.1c-1.9-0.3-3.5-0.6-5.5-1
	c-0.7-0.2-7.5-1.7-8-2c-0.9-0.3-7.4-2.8-8.1-3.1c-1.8-0.8-3.9-1.6-5.5-2.5c-0.6-0.3-0.9-0.6-1-0.8c0.5-4.4,1.4-8.8,2.2-13.1
	c3.9-21,12.5-40.7,17.5-61.2c0.8-3.4,1.5-7,2-10.4c1.3-9.2-0.1-17.8-1.3-27.1c-2.8-19.8-7.1-39.8-11.4-59.4
	c-1.8-8-7.5-33.3-9.3-40.9c-0.4-1.4-0.7-3.2-0.9-4.7c-6.1-35.8-10.9-71.9-14.1-108.1c-0.9-10.7-1.7-21.3-1.7-32.2
	c0-11.2,1.1-21.9,2.4-32.5c3.2-25.9,8.5-51.6,13.3-77.1l1.3-7.4c0.4-2.4,30.2-4.4,30.4-6.2L724.9,44.1L724.9,44.1L724.9,44.1z"/>
<path class="st0" d="M691.4,113c-27.8,6.6-56.2,10-84.7,10.6c-23.8,0.4-46.4-5.4-69.7-6.9c-4.7-0.2-9.1-0.2-13.1,0.6
	c-1.9,0.4-3.9,0.8-5.8,1.3c-9.3,2.2-31.4,8.1-33.6,17.9l-0.1-0.2c0,0-1.8,6.3-1.8,6.3c-3.6,2.4-7.9,3.7-12,4.9
	c-27.5,6.7-56.3,3.9-84,0.4l-2-0.3c-1.8,0.2-3.7,1.5-5.5,2.7c-4.7,3.1-8.7,6.9-13.9,9.7c-1.3,0.8-3.9,1.5-5.5,1.3l-1.4,0
	c-9.1-0.2-18.5-0.5-27.6-1.1c-7.5-0.6-14.8-0.9-22.2-2.4c-7.5-1.6-15.2-4.7-20.4-10.7c-2.6-3-4.4-6.6-5.9-10
	c-0.7-1.6-1.4-3.4-2.3-4.3c-0.5-0.5-0.7-0.6-1.5-0.8c-8-1.1-16.2-0.3-24.3,0c-21.9,1.2-43.8,3.2-65.7,5.6
	c-14.5,1.7-29.2,3.1-43.5,5.9l-0.2-1c7.2-1.6,14.5-2.6,21.7-3.7c21.8-3.1,43.7-5.7,65.6-7.9c14.7-1.3,29.3-3,44.1-2.5
	c4,0.1,6.4,1.1,8.1,4.7c2,4,3.8,8.2,6.8,11.3c10.1,10.3,26.4,9.4,39.9,10.1c9,0.3,18.3,0.3,27.4,0.1c0.4,0,2.2,0,2.3-0.1
	c0.2,0,0.8-0.3,1.4-0.6c6.4-3.8,11.2-9.6,18.1-12.9c1.5-0.7,4-1.3,6-1l1.4,0.1c26.6,2.4,54.2,4.3,80.1-2.8c2.9-0.9,5.8-1.9,8.4-3.5
	l-0.1,0.1l-1.8,6.3c-0.8-2-0.8-4.4-0.4-6.4c3.2-14.4,22.1-21.3,34.3-25.3c4.6-1.4,9.3-2.7,14-3.8c10.2-1.9,19.7-1.1,29.7-0.3
	c9.4,0.8,18.6,1.9,27.7,2.8c27.3,2.8,54-0.9,80.7-5.8c7.8-1.5,15.5-3.2,23.1-5.2c1.1-0.3,2.2-0.6,3.1-0.9L691.4,113L691.4,113
	L691.4,113z"/>
<path class="st0" d="M698.1,172.6c28-0.4,56,0.2,83.9,2.6c9,0.6,17.8,0.2,27.2,0.3c7.8,0,16.7,0.5,24,3.4
	c7.8,2.8,15.3,6.5,21.3,12.6c6.7,6.6,10.1,17,6.9,26.1l-0.2,0.4l-0.6-5.3l-0.1-0.1c2.7,2.9,6.2,4.8,9.8,6.5c6.2,3,13.2,5.1,19.9,6.8
	c1.7,0.4,3.2,0.3,5,0.1c4.1-0.6,8.6-2.2,13.2-3.7c4.7-1.5,9.6-2.9,14.7-3.5c4.8-0.8,10.1-0.3,15-0.3c6,0.1,12.2,0,18.4,0.6
	c1.3,0.1,2.8,0.4,4,0.8c7.3,1.8,14.4,5.4,20.4,9.6c2,1.3,3.9,2.7,5.7,3.4c1.8,0.8,3.4,0.8,5.3,0.2c4.2-1.4,8-3.8,11.1-7.1
	c2.4-2.5,4.3-5.5,6.4-8.4c0.9-1.2,1.7-2.3,3.1-3.1c2.6-1.2,4.9-1.5,7.6-1.8c7.3-0.8,14.6-0.6,21.9-0.2c9.7,0.7,19.4,1.6,28.7,4.4
	l-0.3,1c-4.6-1.2-9.4-1.9-14.1-2.4c-13-1-26.3-1.6-39.1,1c-2.4,0.6-3.4,1-4.7,3.2c-2,3.1-3.8,6.3-6.3,9.1c-3.3,3.9-7.8,7-12.6,8.8
	c-5.5,2.4-11.2-0.8-15.6-3.6c-4-2.6-8-4.7-12.3-6.2c-2.9-1-5.9-1.8-8.9-2.3c-7.3-0.5-14.8,0.1-22.2,0.2c-3.3,0-6.9,0.1-10.2,0.7
	c-9.7,1.6-17.6,6.3-27.6,8.4c-2.5,0.5-5.3,0.7-7.9,0.2c-2.8-0.5-5.6-1.1-8.3-1.8c-9.7-2.6-20-5.8-27.6-12.8
	c-0.3-0.3-0.8-0.9-1.1-1.2l-0.6-5.3c0,0.1,0,0.1,0,0.1v-0.1c1.3-5.2-0.9-10.2-4.9-13.9c-5.7-5.3-14.2-8.4-21.7-10.2
	c-12.4-1.8-24.6,0.4-37.4,0.3c-3.5,0.1-7.9-0.1-11.4-0.3c-11-0.4-21.9-0.4-32.9-0.3c-14.6,0.2-29.4,0.7-43.9,1.6L698.1,172.6
	L698.1,172.6L698.1,172.6z"/>
<path class="st0" d="M691.9,228.7c-6.6-2.2-13.5-2.7-20.7-1.8c-15.3,2-31.9,10.3-48.2,7.6c-4.5-0.7-8.8-2-12.8-3.9
	c-7.7-3.5-13.7-8.6-20.8-12.4c-5.9-3.2-12.1-6.2-18.8-5.1c-11.3,2.2-23,5.8-32.8,11.7c-4.9,3.2-12,8-10.4,14.4l0.5,1.8l-1,1.3
	l-24.7,32.9l-0.5,0.7c-5.8,2.1-11.7,3.9-17.7,5.3c-13.9,3-32.7,6.9-42.7-6.2c-3.7-4.8-4.6-10.9-7.4-16c-4-7.8-13.1-10.4-21.2-11.9
	c-11.4-2-23.1-2.2-34.6-1.4l-0.1-1c11.6-1,23.4-1.1,35,0.7c8.6,1.5,18.4,4.2,23.1,12.3c3,5,4.2,10.9,7.8,15.3
	c5.3,6.6,14.3,7.7,22.3,6.9c11.2-1.1,22.5-4.5,32.9-8.7l-1.2,0.9l23.3-33.9l-0.5,3.1c-3.5-9.8,5.5-18.5,12.8-23.2
	c10.7-6.8,22.3-10.8,34.3-13.7c4.5-1.2,9.5-0.8,13.9,0.3c8.3,2.2,15.5,6.6,22.7,10.8c6.5,4.1,12.5,7.1,19.8,7.9
	c7.2,0.8,14.2-0.7,21.2-2.9c16.3-5.3,32.3-10.4,50.2-5.1L691.9,228.7L691.9,228.7L691.9,228.7z"/>
<path class="st0" d="M718.6,314.8c5.8,3.9,12.3,6.3,19.4,7.4c15.3,2.3,33.5-1.2,48.4,5.9c4.1,1.9,7.9,4.3,11.2,7.2
	c6.4,5.5,10.8,12,16.6,17.6c4.8,4.7,10,9.3,16.7,10.1c11.5,1,23.7,0.7,34.7-2.3c5.6-1.7,13.8-4.4,13.9-11.1l0-1.9l1.3-1l32.7-24.9
	l0.7-0.5l0.7,0c11.9-0.8,23.7-0.6,35.4,1.9c13.4,2.8,22.9,9.9,23.5,24.5c0.4,5.7,0.8,11.3,4.5,15.8c3.5,4.4,8.7,7.4,13.7,9.9
	c5.2,2.6,10.6,4.6,16.1,6.4c5.5,1.8,11.1,3.2,16.8,4.4l-0.2,1c-11.5-2.2-22.8-5.3-33.4-10.2c-7.9-3.8-16.6-9.1-18.8-18.2
	c-1.5-5.6-1-11.6-3.3-16.8c-5.8-13.2-24-13.7-36.5-14.1c-5.7,0-11.5,0.2-17.1,0.8l1.4-0.6l-31.7,26.2l1.3-2.9
	c0.7,10.4-10.3,16.3-18.7,18.8c-12.1,3.6-24.4,4.4-36.8,3.8c-4.7-0.1-9.4-1.8-13.3-4.1c-7.4-4.4-13.1-10.6-18.8-16.6
	c-5.1-5.7-10.1-10.2-16.9-13c-6.7-2.7-13.8-3.2-21.2-3c-17.2,0.6-33.9,1.2-49.6-8.8L718.6,314.8L718.6,314.8L718.6,314.8z"/>
<path class="st0" d="M710.8,270.5c9.9-3.1,19.8-0.2,28,5.5c6.3,3.9,10.9,8.6,18.1,9c9.9,0,20.4-4.8,30.1-7.4c1.3-0.3-1-0.1-2.1,2.1
	c-0.4,0.7-0.4,1.5-0.4,2.1c0.2,0.8,0.1,0.4-0.2-0.2c-2.7-4.5-5.6-10.5-0.2-14.7c7.9-5.2,24.7-0.4,33.9-0.5
	c22.7-1.5,45.1,5.1,65.5,14.6l1.5,0.7l0.4,1.5l4.1,14.7l-0.8-1.4l26.6,27.6l-0.5-0.4c3.9,2.3,8.2,4.4,12.5,6.2
	c8.3,3.3,17.8,6.3,26.6,3.9c4.2-1.4,8-4.2,10.9-7.5c3-3.4,5.3-7.6,8.2-11.6c2.8-4,6.4-7.7,10.8-10c6.5-3.3,13.6-5.5,20.8-6.4
	c2.5-0.2,4.9-0.4,7.4,0.3l-0.3,1c-1-0.2-2.2-0.3-3.4-0.3c-5.9,0.2-11.6,2.1-17.1,4.2c-6.6,2.4-12.3,6.7-16,12.7
	c-2.6,3.9-4.8,8.2-7.9,12.1c-3.2,3.9-7.3,7.2-12.2,9c-13.6,4.3-30.8-2.7-42.9-9l-0.2-0.1l-0.3-0.3l-27.6-26.6l-0.6-0.5l-0.3-0.9
	l-4.6-14.6l1.9,2.2c-14-6.1-29.4-10.4-44.6-11.8c-4.8-0.4-9.5-0.5-14.2-0.1c-2,0.2-4.6,0.4-6.5,0.3c-5-0.3-10.1-0.9-14.9-1.2
	c-3.3-0.1-6.9-0.5-9.9,0.6c0.8-0.4,1.5-1.8,1.3-2.7c0.3,0.7,0.7,1.5,1.4,2.5c1,1.7,1.9,3.2,2.2,5.5c0.4,2.5-1.2,5.6-3.6,6.6
	c-1.5,0.7-2.7,0.9-4.3,1.5c-5.6,2-11.4,4.2-17.2,5.9c-17,5-24.1,1.3-38.1-7.8c-5.9-3.6-10.8-5.4-17.2-3.2L710.8,270.5L710.8,270.5
	L710.8,270.5z"/>
<path class="st0" d="M710.3,328.1c-3.9,2-7.5,5.9-10.9,9.3c-8.7,9.3-16.7,19.5-27.7,27.5c-7.5,5.4-16.6,6.7-25.1,6
	c-17.9-1.9-37.7-12.6-45.2-29.4c-0.2-0.6-1-2.6-1.2-2.8c0,0,0,0,0.3,0.2c0.5,0.4,1.9,0.8,2.5,0.6c0.3,0,0.3-0.1,0.3-0.1
	c-0.2,0-0.8,0.3-1.5,0.8c-1.4,1-3,2.5-4.1,3.9l-0.4,0.5l1-1.7l-19.8,40.8l-2,4c-2.4,0.5-5.6,1.2-7.9,1.7
	c-11.4,1.9-30.5,5.5-41.2-0.1c-1.7-0.9-3.7-2.5-5-4.4c-1.6-2.5-2.7-5.2-4.1-7.7c-7.4-13.2-17.4-25.6-31.5-31.5
	c-2.8-1.2-5.7-2-8.7-2.5c-5.5-0.2-11.1,0.2-16.8,0.5c-16.3,1-32.6,2-48.9,3.6c-21.1,3.8-39.1,16.3-58.2,25.6
	c-4.2,1.9-8.8,4.1-13.8,4.1c-3.7-0.2-6.9-2-10-3.5c-6.2-3.2-12.5-6.5-19.1-8.2c-4.3-1-9.1-1.6-13.9-2.2c-14.4-2-30-2.9-42.3-11.6
	c-3.5-3.1-7.3-5.5-11.8-6.9c-13.6-4.1-28.1-3-42.2-1.5c-19,2.4-37.7,6.7-56,12.2l-0.3-1c9.1-3,18.4-5.7,27.7-8
	c22.1-5.2,57.8-13,78.9-2.3c2.2,1.1,4.1,2.8,6.1,4.2c3.7,2.5,8,4.1,12.5,5.3c9.1,2.4,18.6,3,28,3.8c4.8,0.4,9.6,0.7,14.6,1.7
	c5,1,9.8,2.8,14.3,4.7c3.3,1.4,6.5,3,9.8,4.4c1.4,0.5,2.5,1,3.7,1c3.5-0.4,6.7-2.2,9.9-3.8c4.1-2.2,8.1-4.6,12.2-7.1
	c14.6-8.8,29.9-18.1,46.9-22.1c0.5-0.1,1.6-0.3,2.2-0.4c11.4-1.5,22.9-2.5,34.3-3.6c10.4-0.9,20.5-1.9,31-2.2c0.9,0,2,0,2.9,0.1
	c25.6,3.1,44.4,24,56.1,45.2l0.2,0.4c-0.1-0.3-0.8-1.2-1-1.3c1.7,0.5,4.2,0.7,6.6,0.6c7.4-0.2,15.7-1.7,23.2-3.3
	c1.1-0.2,2.3-0.5,3.2-0.8l-6.1,4.9l18.5-41.4l0.4-0.9c0.8-1,1.7-2.2,2.5-3.2c8.3-10.2,22.3-16.6,32.5-4.6c2.1,2.6,3.1,5,4.2,7.3
	c3,5.6,8.3,9.2,14.4,12.2c7.2,3.2,17.5,5.9,24,1.5c11.3-9,19.7-22.5,30.7-32.8c2.7-2.5,5.7-5,9.7-7.3L710.3,328.1L710.3,328.1
	L710.3,328.1z"/>
<path class="st0" d="M716,49.3c11.5,6.8,19,18.1,27.7,27.5c4,4.4,8,8.6,12.4,11.9c3.6,2.7,8.6,3.3,13.3,3
	c11.9-0.9,27.4-8.2,32.3-19.7c4.2-10.8,14.2-13.5,23.3-6.4c3.1,2.4,5.6,5.1,8,8.2l0.2,0.5l18.8,41.2l-3.5-2.8
	c8.9,2.1,18.5,4,27.6,4.3c2.8,0,5.9,0,8.1-1.1c0.2-0.1,0.2-0.1,0.2-0.1c0,0,0,0.1-0.1,0.1c0,0,0,0,0,0l0-0.1l0.1-0.2
	c4.1-9.6,10-19.1,18.6-25.4c20.4-14.7,49.1-13.9,73-13.4c2.4,0.1,5.6,0.1,8,0.8c5.4,1.3,9.8,4.9,13.6,8.6c5.1,4.9,10,10.3,15.9,14.1
	c12.1,7.5,26.8,8.2,40.9,9c7.2,0.3,14.4,0.2,21.6-0.2c2.5-0.2,5.2-0.1,7.6,0.1c12.3,0.8,48.1,6.4,55.7-2.3c3-3.4,4.2-8.5,6.8-12.5
	c5.1-9,15.5-13,25.2-14.7c24.2-3.9,48.8-0.7,72.8,2.9c9.6,1.5,19.2,3.3,28.7,5.4l-0.2,1c-9.5-2-19.1-3.7-28.6-5.1
	c-23.9-3.2-63.8-8.3-85.7,2.3c-4.2,2.1-7.6,5.4-9.9,9.5c-2.6,4.2-3.4,9.2-6.8,13.1c-3.6,4.1-9.2,5-14.2,5.6
	c-16.4,1.8-32.8-0.9-49.1-1.2c-12.8,1-25.8,1.2-38.6-0.1c-16.8-1.7-28.6-5.4-40.9-17.4c-3.6-3.3-7-6.8-10.6-9.1
	c-2.7-1.8-5.3-2.7-8.5-2.8l-3.6-0.1c-9.6-0.2-19.2,0.1-28.7,0.9c-25.6,2.6-44.1,8.7-54,34.2c-3.9,10.9-23.5,7.6-32.3,6.6
	c-5.7-0.8-11.4-1.9-17.1-3.2l-1.1-2.3l-19.6-40.9l0.6,1l-0.5-0.7c-1.4-1.7-3.1-3.4-4.8-4.6c-1.3-0.9-2.4-1.7-3.6-1.6
	c-1,0.7-1.5,1.8-2.1,3.2c-7.4,18.6-33.8,30.9-53.1,27.2c-3.7-0.8-7.6-2.2-10.9-4.7c-10.5-7.8-18.3-17.9-26.8-27.1
	c-3.7-3.9-7.7-8.1-12.1-10.5L716,49.3L716,49.3L716,49.3z"/>
<path class="st0" d="M733.3,430.1c7.3,4.2,15.4,7.1,23.5,9.6c14.8,4.3,30.6,6.6,46.1,6.9c25.4-0.4,50.6-7,76.1-8.7
	c5.2-0.3,10.8-0.4,16.6,0.8c3.1,0.7,6.7,1.7,9.7,2.5c13.5,3.8,42,14,37.9,32.4l0,0.1l-0.1,0.3l-1.2-5.7c-0.2-0.2,0,0,0,0
	c4.1,3.2,9,5.1,14,6.9c5.5,1.9,11.2,3.5,17,4.8c21.1,4.7,43.1,6.6,64.8,7.7l2.4,0.1c4,0.3,9.2,1.8,12.5,1c2-0.7,5.9-2.3,8.3-3
	c9-2.9,19-4,28.4-2.3c5.9,0.9,11.8,3.1,17.6,3.3c15.5-0.9,31.3-3.9,45.6-10.2c2.2-0.8,4.6-1.4,6.9-1.9c9-1.8,18.2-2.8,27.3-3.4
	c12.2-0.6,24.5-0.9,36.5,1.8l-0.2,1c-5.9-1.2-12-1.5-18-1.5c-15.1,0.2-30.2,1.8-44.9,5.2c-1.8,0.4-3.6,0.9-5.3,1.5l-1,0.4l-2.1,0.9
	c-11.2,5.3-23.3,8.2-35.5,10.1c-3.2,0.5-6.1,1.1-9.4,1.1c-9.3-0.3-17.8-3.8-26.9-3.2c-7.2,0.2-14.3,2.2-20.9,5l-2,0.9
	c-2.3,1.1-5.8,1.7-8.2,1.5c-3.1-0.1-6.1-0.8-9.1-0.9l-4.4-0.1c-21.5-0.4-42.9-1.6-64.2-5.6c-9.2-1.8-18.6-4.1-27.3-7.9
	c-3.3-1.5-6.7-3.1-9.5-5.7c0,0-1.2-5.7-1.2-5.8l-0.1,0.2l0,0.1c0,0,0,0,0,0c0,0,0,0,0,0c0-0.9-0.3-1.6-0.8-2.5
	c-5.9-8.7-23-13.2-33.1-15.6c-1.9-0.4-3.8-0.9-5.7-1.2c-8.3-1.2-18,0.5-26.5,1.7c-21,3.3-41.8,8.5-63.3,9.5
	c-7.4,0.2-14.7-0.2-22.1-0.9c-19-1.9-38.3-6-55.6-14.6l-0.9-0.5l-0.5-0.3l-0.6-0.4L733.3,430.1L733.3,430.1L733.3,430.1z"/>
<path class="st0" d="M706.8,498.2c-14.5,1.6-28.8,2.2-43.4,0.8c-14.8-1.6-33.3-5.1-40.2-20.7c-2.4-5.3-3.6-11.6-3.7-17
	c-0.3-6.3,1-13.7,0.3-19.1c-0.4-1.7-0.3-2-1.6-3c-1.4-0.8-4-1.6-7-1.7c-7.5-0.9-14.8,1.1-16.2,9.3l-1.5-3.8c1.1,1.3,2,2.6,2.7,4.1
	c2.4,4.7,1.1,10.8-3.8,13.6c-10,6-32.6,2-43.8-0.1c-17.4-3.8-34.7-10-48.7-21.2l0.6-0.8c7.2,4.9,15.4,8.3,23.6,10.9
	c10.3,3.3,21.1,5,31.8,5.9c8.3,0.4,17.2,0.8,25.3-0.7c2.4-0.6,4.7-1,6.1-2.4c0-0.2-0.2,0.1-0.2,0.2c0,0.1-0.1-0.2-0.4-0.6
	c-0.2-0.4-0.8-1.1-1-1.3l-1.5-3.8c0-4.4,1.4-8.6,3.7-12.3c1.2-1.6,2.6-3.3,4.1-4.6c1.3-1,2.8-2.1,4.3-2.8c1.5-0.9,3.1-1.3,4.7-1.9
	c4.4-1.2,9.1-1.5,13.7-1.3c9.5,0.4,17.8,4.9,20.3,14.7c1.9,7.1,1,14.7,1.9,21.5c0.6,4.1,1.5,7.4,3.5,10.7c4,5.5,17.4,6,24.1,6.1
	c10.9,0,22.4-1.4,33.2-3.4l2.3-0.5c0.7-0.1,1.6-0.3,2.2-0.5L706.8,498.2L706.8,498.2L706.8,498.2z"/>
<path class="st0" d="M422.8,147.5c-1.8,6.4-5.6,11.3-7.1,17.3c-0.4,1.8-0.4,3.9-0.3,5.7c-0.1,2.4-0.6,5-1.8,7.4
	c-2.5,5.2-8.3,7.4-13.7,6.5c-2.1-0.4-4.1-1-6.2-1.3c-11.4-1.8-23.2-1.9-34.7-4c-0.9-0.2-2.5-0.6-3.4-0.9c-1-0.3-1.6-0.9-2.6-1.1
	c-0.7-0.1-1.6-0.1-2.5-0.1c-5.9,0.8-11.7,3.5-17,6.3c-5.7,2.9-10,8.2-16.3,10.1c-6.3,2-13,1.9-19.4,1.3c-7.4-0.8-14.9-1.9-21.9-4.7
	c-5-2-9.5-5.2-13.1-9.3c-2.7-3.1-5.4-6.4-9.6-7.2l0.2-1c6.7,1.1,9.9,7.9,15,11.5c5,3.7,11.1,5.7,17.1,6.7c10,1.6,20.8,3.1,30.6-0.1
	c4-1.4,6.9-3.9,10.1-6.6c7-5.1,15-9.4,23.7-11c1.9-0.2,4.1-0.3,5.9,0.7c0.7,0.3,1.7,0.6,2.4,0.8c7.7,1.4,15.5,1.6,23.3,2.1
	c5.3,0.4,10.8,0.6,16.1,1.6c2.4,0.6,5.5,1.1,7.6,0c2.6-1.1,3.9-4.4,3.9-7.9c0-1-0.1-2.2-0.1-3.2c0-3.6,1.2-7.3,2.5-10.4
	c1.8-4.1,3.6-7.6,4.6-11.3L422.8,147.5L422.8,147.5L422.8,147.5z"/>
<path class="st0" d="M598.7,112.4c-1.2-6-1-11.9-0.9-17.3c-0.2-4.4,0.5-9.6-3-12.6c-1.9-1.3-4.4-2.4-6.6-3.2
	c-8-2.7-16.7-4.6-25.2-4.6c-4.3,0.5-8.2,2.8-11.8,5.2c-1.7,1.1-3.3,2.3-4.7,3.8c-0.5,0.6-1.2,1.1-1.9,1.5
	c-8.3,4.2-21.5,6.6-30.4,3.2c-1.4-0.6-2.8-1.5-4-2.5c-6.3-4.9-13.5-8.6-21.5-9.3c-7.9-0.8-16.3,0-24.2,1.5c-3.4,0.7-6.8,1.4-9.7,3.1
	l-0.3,0.2c-0.1,0.1-0.1,0.2-0.1,0c-0.6,2-2.3,2.8-3.9,3.6c-8.5,3.8-18.2,4.9-27.2,2.1c-1.9-0.5-4-0.9-6-1.1
	c-13.7-1.6-27.5-1.5-41.3-1.2l0-1c11.1-0.5,22.1-0.8,33.2-0.4c4.1,0.2,8.4,0.4,12.5,1.2c1,0.2,2.2,0.5,3.1,0.7
	c5.4,1.6,11.3,1.2,16.8-0.1c3.4-0.9,7.4-2,9.8-4.2c0.4-1.4,1.1-1.8,2.1-2.5c5.8-3,12.2-3.9,18.6-4.9c5.6-0.7,11.2-1.2,17-0.7
	c9,0.6,17.5,4.8,24.6,10.2c0.6,0.4,1.5,0.9,2.2,1.2c7.5,2.6,19.4,0.1,26.2-3.7c4.5-4.8,11.1-9.2,17.9-11.1c4.4-1.1,9.1-0.4,13.5,0.1
	c6.4,0.8,12.7,2.2,18.8,4.4c1.6,0.6,3.8,1.5,5.2,2.5c6.6,3.5,7.2,12.2,7.2,18.7c0.1,5.6,0,10.9,1.1,15.8L598.7,112.4L598.7,112.4
	L598.7,112.4z"/>
<path class="st0" d="M381.8,354.8l0,14.5c0.1,2.2-0.1,8.1,0.2,10.2c0.2,1.4,0.8,3.2,1.3,4.6c3,8.1-5.1,10.4-11.4,10.9
	c-5.6,0.2-10.6-2-15.3-4.3c-3.5-1.7-8-4.6-11.6-4.2c-5.8,1.4-9.5,8.2-10.9,13.7c-0.6,2.4-0.2,4.2-0.5,6.9c-0.4,2.7-1.2,5.2-2.4,7.6
	c-2.4,4.8-6.2,9-11.4,10.9c-7.6,2.8-17.2,0.2-21.4-6.8c-4-6.1-5.1-13.5-9.5-19.2c-4.3-5.9-11.5-7-18.3-7.3
	c-4.7-0.2-9.5-0.1-14.3,0.2c-9.5,0.7-19,2.4-28.2,5l-0.3-1c9.2-2.9,18.7-4.9,28.3-5.9c4.8-0.5,9.7-0.8,14.5-0.7
	c7.7,0,15.5,1.3,20.5,7.7c4.7,5.5,6.4,13.5,10.2,19.1c1.2,1.8,2.8,3.3,4.6,4.2c11.2,5.4,21.2-3.1,22.6-14.4c0.1-1.1,0-1.7,0-3.4
	c0-4,1.2-8,3-11.5c2.6-4.9,6.3-9.5,12.2-10.9c5.6-1,10.7,2.2,15.5,4.3c5.8,2.8,11.7,4.8,17.7,1.8c0.3-0.1,0.3-0.3,0.1-0.1
	c-0.1,0.1-0.2,0.5-0.3,0.7c0-0.4-0.8-2.2-0.9-2.6c-1-2.5-1.5-5.5-1.5-8.2l-0.2-7.2l-0.5-14.3L381.8,354.8L381.8,354.8L381.8,354.8z"
	/>
<path class="st0" d="M897,229.6l0.4-14.5c0-2.2,0.4-8.1,0.1-10.2c-0.2-1.4-0.7-3.3-1.2-4.7c-2.8-8.2,5.5-10.2,11.7-10.5
	c5.6-0.1,10.6,2.3,15.2,4.8c3.5,1.8,7.8,4.9,11.5,4.6c5.8-1.2,9.8-7.9,11.3-13.4c0.7-2.4,0.4-4.2,0.8-6.9c0.5-2.7,1.4-5.2,2.7-7.5
	c2.5-4.7,6.5-8.8,11.7-10.5c7.7-2.6,17.2,0.4,21.2,7.5c3.8,6.2,4.7,13.7,8.9,19.5c4.1,6,11.2,7.4,18.1,7.8c4.7,0.4,9.5,0.4,14.3,0.2
	c9.5-0.4,19.1-1.8,28.3-4.1l0.3,1c-9.3,2.6-18.8,4.3-28.5,5.1c-4.8,0.4-9.7,0.5-14.5,0.2c-7.7-0.2-15.4-1.8-20.3-8.4
	c-4.5-5.7-6-13.7-9.6-19.4c-1.2-1.9-2.7-3.4-4.5-4.4c-11-5.8-21.3,2.5-23.1,13.7c-0.2,1.1-0.1,1.7-0.1,3.4c-0.2,4-1.5,7.9-3.4,11.4
	c-2.8,4.8-6.6,9.3-12.6,10.5c-5.6,0.9-10.6-2.6-15.3-4.8c-5.7-3-11.6-5.1-17.6-2.3c-0.3,0.1-0.3,0.3-0.1,0.1
	c0.1-0.1,0.3-0.5,0.3-0.7c0,0,0,0,0,0c0,0.1,0.1,0.5,0.3,1c0.7,1.9,1.3,3.7,1.6,5.8c0.4,2.8,0.2,8.5,0.3,11.4l0,14.3L897,229.6
	L897,229.6z"/>
<path class="st0" d="M786.1,453.8c0.3-4.6,0-9.4-0.5-14.4c-0.4-5-1.1-10.1-1.1-15.8c0-3.1,0.4-7.2,2.2-10.6
	c2.9-5.8,9.8-7.8,15.3-9.4c11.2-2.8,31.3-4.8,41,2.5c1.2,0.9,2.5,1.8,3.6,2.9c1.5,1.3,3.7,4.7,4.6,5.7c2.6,0.3,6,0.4,8.6,0.6
	c7.3,0.6,15.3,1.1,22.6,1.3c5,0.1,10,0.1,14.8-0.4c3.5-0.4,6.7-0.7,9.8-2.1c0.7-0.3,2-1.3,2.7-1.7c12.7-8.9,25.5-18.4,40.5-23.2
	c5.7-1.7,11.9-2.7,17.8-1c2.1,0.7,4.4,1.5,6.5,2.3c18.3,7,35.7,16.7,54.7,21.3c0.9,0.2,2.7,0.5,3.6,0.7l1.8,0.2
	c0.6,0.1,1.2,0.1,1.8,0.2c20.8,1.6,41.7,5.3,62.6,4c7.1-0.7,15.1-1.2,20.4-6.2c3.2-3.4,3-8.8,1.7-13c-0.8-2.2-2-4.3-3.5-6.3
	c-1.5-2-5.8-6.2-1.5-8c2.8-0.9,5.2-0.8,8-0.9c20.5-0.2,40.8,2.5,60.8,6.7l-0.2,1c-19.9-3.8-40.3-6-60.5-5.4
	c-2.2,0.1-5.1,0.1-7.1,0.9c-0.2,0.1-0.3,0.2-0.4,0.2c0,0,0.1-0.2,0.1-0.1c0.5,1.3,2.1,2.8,3,4.1c4.1,4.9,6.3,11.8,4.6,18.1
	c-5.1,21.3-72.4,9.8-90,9.5c-1.8-0.1-4.2-0.5-5.9-0.8c-21.3-4.6-40.6-15.5-61.2-22.1c-12.7-3.9-30.3,8-40.8,15
	c-4.8,3.3-9.5,6.9-14.3,10.4c-0.9,0.6-1.9,1.1-2.8,1.5c-8.6,3.2-18,3.1-27,3.2c-10,0-20.5-0.8-30.5-1.2c-3.2,0.1-6.7-1.7-8.3-4.3
	c-1.2-1.7-2.7-3.6-4.3-4.8c-1-0.8-2.2-1.5-3.3-2.1c-1-0.5-2-0.8-3.3-1.1c-6.8-1.3-14.1-0.8-21,0.3c-4.4,0.8-9.2,1.9-13.1,3.8
	c-1.1,0.6-1.9,1.1-2.4,1.7c0,0,0,0.1-0.1,0.2l-0.1,0.2c-0.8,1.6-0.9,3.6-0.9,6.1c0.1,4.5,0.8,9.5,1.4,14.6c0.6,5.1,1,10.5,0.8,16.1
	L786.1,453.8L786.1,453.8L786.1,453.8z"/>
<path class="st0" d="M868,122.2c0.1,4.9-1.2,8.9-2,13.3c-0.4,2.4-1,4.9-0.1,6.7c0.5,0.8,2.6,0.6,3.5,0.6l3.2,0.2
	c6.1,0.4,12.9,0.9,18.9,1c3.5,0,7,0.1,10.5-0.5c5.3-1.2,10.4,0.1,15.3,1.6c3.7,1.2,7.2,2.7,10.6,4.6c0.3,0.2,0.5,0.2,0.9,0.3
	c3.8,0.9,8.2,1.2,12.2,1.5c12.3,0.5,25.2,0.5,37-3.7c4-1.4,7-4.3,10.3-6.7c7-5,14.6-9.2,22.8-11.7c8.2-2.6,17-3.1,25.4-1.4l-0.2,1
	c-8.3-1.5-16.8-0.7-24.7,2.1c-9.9,3.4-18.8,9.3-26.8,16c-10.9,8.2-30.8,8.5-44,8.4c-4.9-0.3-9.8-0.1-14.6-1.7
	c-5.1-2.6-10.6-4.6-16.2-5.5c-2.5-0.4-4.7-0.4-6.9,0.2c-1.7,0.4-3.5,0.6-5.1,0.7c-8.5,0.6-17.2,0-25.7-0.2c-2-0.1-4.8,0.1-6.8-0.3
	c-11.8-3-3.9-18.3-4.5-26.2L868,122.2L868,122.2L868,122.2z"/>
<path class="st0" d="M925.2,83.9c-0.7-9-6.2-17.8-4.5-27.3c0.8-5.2,4.2-9.4,8.2-12.6c6.6-5.8,14.2-7.3,22.7-7
	c6.4-0.1,12.9-0.8,18.9,2.4c4,2,6.8,6.2,7.5,10.5c0.7,1.2,2.3,1.8,3.8,2.5c8.3,3,17.4,3.9,26.3,4.5c6,0.3,12,0.4,17.9-0.3
	c2-0.3,4.3-0.5,5.9-1.7c0.8-3,1.6-6.8,2.8-10c2.2-5.9,5.9-11.4,10.9-15.2c4.9-3.9,10.9-6.1,16.8-7.8c11.8-3.3,23.9-5.2,36-6.5
	c6.1-0.6,12.1-1.1,18.3-1.1c6.2,0,12,2.8,17.6,5.1c5.6,2.3,11.5,3.4,17.6,3.5v1c-6.1,0-12.3-1-18-3.3c-5.6-2.2-11.1-4.8-17.2-4.7
	c-6,0.1-12.1,0.7-18.1,1.4c-14.8,2-39.9,5.3-51.5,14.6c-4.6,3.6-7.9,8.7-9.9,14.2c-1.2,3.2-1.8,6.6-2.7,10
	c-1.9,5.4-21.7,4.5-26.8,4.4c-8.4-0.5-26.7-1.5-32.6-7.5c-0.6-0.7-1-1.5-1.2-2.4c-1-6.4-7.4-9.2-13.4-9.4c-2.9-0.2-6,0.2-9,0.2
	c-5.9,0-11.4,0.4-16.3,3.7c-8,5.4-11.6,10.5-9.3,20.5c1.3,6.1,4,11.5,4.5,18.1L925.2,83.9L925.2,83.9L925.2,83.9z"/>
<path class="st0" d="M699.7,516.4c-12.5,3.6-24.9,11.8-37.9,15c-2.4,0.7-5.5,1.3-7.9,1.7c-0.7,0.1-2,0.3-2.7,0.4
	c-7.1,0.8-14.3,0.4-21.4-0.6c-9.9-1.2-19.3-5.2-26.2-12.7c-3.8-3.2-15.3-1.9-20.4-1.5c-13.4,1.3-26.7,4.1-40.3,6.2
	c-13.6,2-27.2,3.6-41,4c-5.5,0-19.3,0.8-22.5-4c-3.8-4.9-8.8-8.8-13.6-12.8c-5.3-4.2-10.7-8.3-16.5-11.7c-1.8-1-3.5-2-5.5-2.4
	c-0.4-0.1-0.6-0.1-1-0.1l-1.2,0.1l-1.2,0.1c-16.8,2.4-33.5,6.1-50.2,9.4l-0.2-1c17.1-3.9,34.1-8.1,51.4-10.8c1-0.1,1.9-0.2,2.9,0
	c2.2,0.5,4.3,1.5,6.3,2.5c6.1,3.4,11.7,7.4,17.1,11.6c5.1,4.1,10.4,8,14.5,13.2c1,1.1,2.8,1.4,4.6,1.7c11.7,1.3,23.5-0.3,35.2-1.6
	c20.5-2.3,40-7.5,60.6-10.2c7.3-0.7,19.3-2.6,25.3,2.6c7.7,8,16.8,10.3,27.7,11c5.6,0.3,11.4,0.3,17-0.8c8.9-1.6,17.2-5.3,25.3-9.3
	c6.1-3,12.2-6.3,19.5-8.4L699.7,516.4L699.7,516.4L699.7,516.4z"/>
<path class="st0" d="M589.6,215.1c-1-7.4-1.1-14.7-2.1-21.5c-0.9-6.2-3-12.5-10-13.2c-6.9-0.5-14,0.2-20.8,1.2
	c-9.3,1.6-19.3,3.4-26.7,9.3c-7.8,6.6-22.6,21.6-31.2,8.6c-8.2-10.1-27.4-10.5-39.4-13.6l0.3-1c7,1.5,14.3,1.9,21.3,3.5
	c7.1,1.7,14.8,3.6,19.8,9.6c1.9,2.8,4.4,4.5,7.9,3.7c6.8-1.7,11.9-7.1,16.9-11.6c7.9-8.2,19.7-10.9,30.4-13.1
	c5.4-1,10.9-1.6,16.4-1.9c4.1-0.2,8.2-0.3,12,1.8c11.4,6.2,9.7,26.4,12,37.2L589.6,215.1L589.6,215.1L589.6,215.1z"/>
<path class="st0" d="M480.2,336.4c-1-7.4-1.1-14.7-2.1-21.5c-0.9-6.2-3-12.5-10-13.2c-6.9-0.5-14,0.2-20.9,1.2
	c-9.3,1.6-19.2,3.4-26.7,9.3c-7.8,6.6-22.6,21.6-31.2,8.6c-8.2-10.1-27.4-10.5-39.4-13.6l0.3-1c7,1.5,14.3,2,21.3,3.5
	c7.1,1.7,14.8,3.6,19.8,9.6c1.9,2.8,4.4,4.5,7.9,3.7c6.8-1.7,11.9-7.1,16.9-11.6c7.9-8.2,19.7-10.9,30.4-13.1c5.4-1,10.9-1.6,16.4-2
	c4.1-0.2,8.2-0.3,12,1.8c11.4,6.2,9.7,26.4,12,37.2L480.2,336.4L480.2,336.4L480.2,336.4z"/>
<path class="st0" d="M787.3,178.1c-0.4-2.7-0.7-5.3-0.7-8.1c0-2,0.1-4.6,1.4-6.4c0.8-1,2.2-1.5,3.1-1.8c2.8-0.8,5.4-0.9,8.1-1.1
	c2.8-0.2,5.7-0.2,8.5-0.2l0.4,0.4l7.6,8.1l-1.1-0.3l30.1-4.8l0.2,1L815,171l-0.6,0.1l-0.5-0.5l-7.9-7.7l1.1,0.4
	c-2.5,0.1-5.1,0.4-7.6,0.7c-2.8,0.4-6,0.7-8.3,2c0.1-0.1-0.1,0.2-0.2,0.6c-0.5,3.4,0.3,7.2,0.9,10.6L787.3,178.1L787.3,178.1
	L787.3,178.1z"/>
<path class="st0" d="M610.5,224c0.4,2.7,0.7,5.3,0.7,8.1c0,2-0.1,4.6-1.4,6.4c-0.8,1-2.2,1.5-3.1,1.8c-2.8,0.8-5.4,0.9-8.1,1.1
	c-2.8,0.2-5.7,0.2-8.5,0.2l-0.4-0.4l-7.6-8.1l1.1,0.3l-30.1,4.8l-0.2-1l29.8-6.2l0.6-0.1l0.5,0.5l7.9,7.7l-1.1-0.4
	c2.5-0.1,5.1-0.4,7.6-0.7c2.8-0.4,6-0.7,8.3-2c-0.1,0.1,0.1-0.2,0.2-0.6c0.5-3.4-0.3-7.2-0.9-10.6L610.5,224L610.5,224L610.5,224z"
	/>
<path class="st0" d="M495.4,75.7c1.2-3,4.4-11.9,0.1-13.1c-8-0.8-16.1-0.4-24.1-0.2c0,0,0.4-0.1,0.4-0.1L455,69.8
	c0,0-0.4,0.2-0.4,0.2l-0.4-0.1c0.2,0-30.9-5.6-29.4-5.4c-16.5,2.2-33.1,4.9-49.8,5c-11.9-1-23.5-4.3-35.1-6.8
	c-9.3-2.2-18.5-4.4-27.7-6.7l0.2-1c9.2,2.2,18.5,4.4,27.8,6.5c9.3,2.1,18.5,4.1,27.9,5.7c3.5,0.7,7,0.9,10.5,0.7
	c15.5-0.7,30.9-3.2,46.2-5.3l29.8,4.6c0,0-0.8,0.1-0.8,0.1l16.9-7.2L471,60c7-0.3,13.9-0.6,21-0.4c1.4,0.1,2.8,0.1,4.1,0.3
	c5.2,1.2,4.7,7.8,3.6,11.7c-0.4,1.8-1,3.4-1.7,5.1L495.4,75.7L495.4,75.7L495.4,75.7z"/>
<path class="st0" d="M697.6,153.9c-8.6,5.2-17.4,9.1-24.5,12.9c-5.8,3.4-10.5,5.8-12.2,11.8c-0.4,1.6-0.5,3.6-0.6,5.2
	c-1.1,16.2-3.2,32.1-5.7,48.1c-1.1,6.2-2,12.7-3.9,18.9c-2.8,8.5-12.9,9.8-20.5,10c-4-0.1-8.6-0.3-12.1-3.1
	c-1.8-1.5-2.8-3.9-2.6-6.3c0.8-13.8,1.9-28.2,2.3-41.8c0,0,0,0,0,0.1c0,0.2,0.2,0.5,0.3,0.6c0.2,0.2,0.2,0.1,0.1,0
	c-5-3.8-11.2-6.6-16.9-9.5l0.6,0.2l-39.6-8.4l0.2-1l40.2,4.4c4.5,1.5,8.9,3.4,13.4,5.3c2.4,1.1,4.3,1.9,6.7,3.6
	c0.3,0.3,0.7,0.6,1.2,1.2c0.3,0.4,0.7,1.4,0.7,1.4c0.2,0.6,0.3,1.6,0.3,2c1.1,12.8,1.3,25.7,1.8,38.5l0.1,3.4l0,0.4
	c0,0.5,0-0.5,0-0.6c-0.1-0.6-0.3-1-0.5-1.4c-0.2-0.4-0.5-0.8-0.9-1.2c-0.2-0.1-0.4-0.3-0.5-0.4c0,0,0,0,0,0c0,0,0,0,0,0
	c3.8,0.4,8.7-0.4,12.1-2c0.6-0.3,1-0.7,0.8-0.6c-0.1,0.1-0.4,0.3-0.7,1c0-0.1,0-0.2,0-0.3c1.9-14.1,2.1-28.8,2.5-43.1
	c0.1-7.9,0-15.6-0.3-23.4c-0.2-8.1,2.9-16.6,8.2-22.7c10.3-11.7,23.5-16.8,35-25.7L697.6,153.9L697.6,153.9L697.6,153.9z"/>
<path class="st0" d="M212.3,293.4c6.4,3.8,12.6,7.8,18.3,12.5c4.1,3.6,9.6,8.2,8.7,14.5c-0.4,2.2-1.5,4-3.3,5.4l0.4-0.5
	c-2.2,5.5-4.1,11.4-4.2,17.3c0.5,5.9,3.1,11.6,5.4,17.1c0.8,2.1,2,4.2,2.4,6.5c1.9,1.7,6.2,2.7,9.1,3.5c4.7,1.1,10,2.1,14.7,2.9
	c14.5,1.9,35.2-23.2,46.3-32.1c3.8-3,7.5-5.8,11.6-8.4c1.2-0.8,2.5-1.5,3.8-2.1c0.2-0.1,0.4-0.2,0.7-0.3l-1.4,1.4l18.8-54.8l0.5-1.5
	l1.5-0.3c11.6-2.1,23-4.1,34.7-5.7c4.7-0.5,9.5-1.3,14.4-1.1c0.9,0,1.7,0.3,2.5,0.6c7.3,3.6,6.9,14.7,6.5,21.6l-0.3-1.8
	c6.8,13.8,22.9,42,39.4,43.3l-0.5,8.7c-20.8-1.8-37.3-32-45.2-49.1l-0.4-0.9c0.4-2.9,0.5-6,0.3-9c-0.1-2.1-0.6-4.8-1.8-6.4
	c-0.4-0.4-0.6-0.5-1-0.6l-0.2,0l-0.4,0c-1.3-0.1-2.6,0-3.9,0c-8.6,0.5-17.2,1.8-25.8,3c-5.8,0.8-11.5,1.7-17.2,2.6l2-1.7l-19.4,54.6
	l-1.4,1.4c-5.3,2.6-10.1,6.4-14.8,10c-12.3,10.1-29.8,30.9-46,32.7c-3,0.3-6.8-0.8-9.8-1.3c-4.9-1.2-19.9-3.2-21.2-8.4
	c-0.4-2.1-1.3-4-2.1-6c-2.6-6.7-5.8-13.6-5.1-21.1c0.9-5.7,2.7-11.1,5.2-16.2c1.3-0.8,2.4-2.4,2.7-3.9c1.4-7.2-10.9-15.5-16.1-19.6
	c-3-2.1-6-4.2-9.1-6.2L212.3,293.4L212.3,293.4L212.3,293.4z"/>
<path class="st0" d="M337.6,300.5c-5.4-3.9-11.2-7.4-16.9-11c0,0,1.4-0.4,1.4-0.4l-8.7,18.6l-0.4,0.8l-0.9-0.2
	c-11.1-2.8-22.3-5.7-33.3-8.9c-3.7-1.1-7.4-2.2-11-3.6l0.4-0.9c14.5,4.7,29.6,7.8,44.4,11.3l-1.3,0.6l8.9-18.5l0.5-0.9
	c3.3,1.8,6.6,3.5,9.9,5.3c3,1.6,5.9,3.3,8.9,5.1L337.6,300.5L337.6,300.5L337.6,300.5z"/>
<polygon class="st0" points="391.2,141.5 391.2,105.8 394.5,141.5 "/>
<polygon class="st0" points="893.8,103.4 893.8,67.7 897.1,103.4 "/>
<polygon class="st0" points="263.1,131.1 231.7,114.1 264.7,128.2 "/>
<polygon class="st0" points="308.2,155.9 288.3,126.3 310.9,154.1 "/>
<polygon class="st0" points="273.2,356.6 253.4,327 276,354.8 "/>
<polygon class="st0" points="212.9,340.8 206.4,331.1 213.8,340.2 "/>
<polygon class="st0" points="158.7,475.9 152.2,466.2 159.1,475.6 "/>
<polygon class="st0" points="184.9,479 178.4,469.3 185.2,478.8 "/>
<polygon class="st0" points="193.7,479.5 187.2,469.8 194.1,479.3 "/>
<polygon class="st0" points="177.4,478.3 170.9,468.6 177.8,478 "/>
<polygon class="st0" points="180.3,478.7 170.6,485.1 180,478.3 "/>
<polygon class="st0" points="188.8,479.4 179.1,485.9 188.5,479 "/>
<polygon class="st0" points="199.9,480.3 190.2,486.8 199.7,479.9 "/>
<polygon class="st0" points="168.7,477.1 162.4,481.3 168.5,476.8 "/>
<polygon class="st0" points="271.5,391.2 265,381.5 272.4,390.6 "/>
<polygon class="st0" points="254,392.3 247.5,382.6 254.9,391.7 "/>
<polygon class="st0" points="240.8,394.2 229.7,390.6 241.1,393.2 "/>
<polygon class="st0" points="263.6,391.2 257.1,381.5 264.5,390.6 "/>
<polygon class="st0" points="224.4,302.4 212.8,303.6 224.3,301.3 "/>
<polygon class="st0" points="219.8,299.2 218.6,287.6 220.9,299.1 "/>
<polygon class="st0" points="268.7,296 257.1,297.3 268.6,295 "/>
<polygon class="st0" points="378.5,245.7 367.8,241.5 378.9,244.8 "/>
<polygon class="st0" points="563.3,192.6 555,200.5 562.6,191.8 "/>
<polygon class="st0" points="254.2,173.3 245.9,181.2 253.5,172.6 "/>
<polygon class="st0" points="213.1,294.2 204.7,302.1 212.3,293.4 "/>
<polygon class="st0" points="312.9,56 301.8,58.8 312.7,55 "/>
<polygon class="st0" points="223.1,340.8 214.9,328.4 224.3,340 "/>
<polygon class="st0" points="224.6,341.4 214.9,352.7 223.5,340.5 "/>
<polygon class="st0" points="374.1,392.8 364.4,404.1 373.1,391.9 "/>
<polygon class="st0" points="288.5,521.2 273.6,521.2 288.5,520.5 "/>
<polygon class="st0" points="368.5,393.4 357.9,405.7 367.4,392.4 "/>
<polygon class="st0" points="238.6,498.7 228,510.9 237.4,497.7 "/>
<polygon class="st0" points="248.9,498.7 238.3,510.9 247.7,497.7 "/>
<polygon class="st0" points="267.7,392.1 258,403.4 266.7,391.2 "/>
<polygon class="st0" points="262,392.2 251.2,404.8 260.9,391.2 "/>
<polygon class="st0" points="321.6,424 310.8,436.6 320.5,423 "/>
<polygon class="st0" points="554.6,237.8 543.8,250.4 553.4,236.8 "/>
<polygon class="st0" points="600.3,239.9 589.5,252.5 599.2,238.9 "/>
<polygon class="st0" points="573.3,235 562.5,247.6 572.1,234 "/>
<polygon class="st0" points="478.2,281.4 467.4,294 477,280.4 "/>
<polygon class="st0" points="445.9,300 433.4,289 447,298.8 "/>
<polygon class="st0" points="432.9,304.6 417.4,298.8 433.4,303.2 "/>
<polygon class="st0" points="426.2,263.7 411.4,256.3 426.8,262.7 "/>
<polygon class="st0" points="506.9,233.1 496.1,245.7 505.7,232.2 "/>
<polygon class="st0" points="513.6,233.1 502.8,245.7 512.5,232.2 "/>
<polygon class="st0" points="452.4,342.8 441.5,355.4 451.2,341.8 "/>
<polygon class="st0" points="491.3,201.1 480.5,213.7 490.1,200.1 "/>
<polygon class="st0" points="496.7,201.1 485.9,213.7 495.5,200.1 "/>
<polygon class="st0" points="460.4,186 449.6,198.6 459.2,185 "/>
<polygon class="st0" points="473,188.3 459.5,197.9 472.4,187.3 "/>
<polygon class="st0" points="498.4,109.7 488.6,96.3 499.4,109 "/>
<polygon class="st0" points="440.2,81.2 430.4,67.8 441.1,80.5 "/>
<polygon class="st0" points="474.7,116.4 464.9,103 475.6,115.8 "/>
<polygon class="st0" points="480.7,116.4 472.2,130.7 479.7,115.8 "/>
<polygon class="st0" points="395.2,191.2 378.9,193.8 395.1,190.1 "/>
<polygon class="st0" points="391.9,137.3 377.9,128.3 392.5,136.3 "/>
<polygon class="st0" points="538.3,75.9 528.6,62.5 539.3,75.2 "/>
<polygon class="st0" points="532.8,72.7 518,80.4 532.2,71.7 "/>
<polygon class="st0" points="339.4,62.5 324.7,70.2 338.9,61.5 "/>
<polygon class="st0" points="354.1,66 339.4,73.6 353.6,64.9 "/>
<polygon class="st0" points="407.6,84.3 392.9,92 407.1,83.3 "/>
<polygon class="st0" points="523.2,184.1 509.7,193.7 522.6,183.2 "/>
<polygon class="st0" points="548.8,124.8 545.6,141.1 547.6,124.6 "/>
<polygon class="st0" points="540.7,124.8 537.5,141.1 539.6,124.6 "/>
<polygon class="st0" points="555,123.3 556.1,139.8 553.9,123.3 "/>
<polygon class="st0" points="296.1,138.1 279.5,138.1 296.1,136.6 "/>
<polygon class="st0" points="377,84.6 361.7,91.7 376.5,83.6 "/>
<polygon class="st0" points="249.9,393.3 239.1,405.8 248.8,392.3 "/>
<polygon class="st0" points="229.3,397.1 219.6,408.4 228.2,396.3 "/>
<polygon class="st0" points="224.8,429.1 215.1,440.3 224.3,428.6 "/>
<polygon class="st0" points="521.7,532.6 526.7,546.6 521,532.8 "/>
<polygon class="st0" points="517.8,537.2 522.9,551.2 517.2,537.5 "/>
<polygon class="st0" points="218.6,341.4 208.9,352.7 217.6,340.5 "/>
<polygon class="st0" points="206.1,342.8 200.7,335.2 207.7,341.7 "/>
<polygon class="st0" points="545,80.3 513.6,63.3 546.6,77.4 "/>
<polygon class="st0" points="836.2,88.8 867.7,71.8 834.7,85.9 "/>
<polygon class="st0" points="996.8,195 1028.2,178 995.2,192.1 "/>
<polygon class="st0" points="839.7,94.1 873.8,83.4 838.7,90.9 "/>
<polygon class="st0" points="984.4,147.2 1012.7,138.4 983.6,144.6 "/>
<polygon class="st0" points="976.2,151.3 1005.2,157.5 976.8,148.6 "/>
<polygon class="st0" points="961.8,154.6 990.7,160.8 962.3,151.9 "/>
<polygon class="st0" points="939.2,155.7 968.1,161.9 939.8,153.1 "/>
<polygon class="st0" points="862.1,367.9 891,374.1 862.7,365.2 "/>
<polygon class="st0" points="873.1,364.8 902.5,368.3 873.4,362.1 "/>
<polygon class="st0" points="914.7,415 943.7,421.2 915.3,412.3 "/>
<polygon class="st0" points="923.5,409.1 952.4,415.3 924,406.4 "/>
<polygon class="st0" points="974,359.7 1003.4,363.5 974.4,357 "/>
<polygon class="st0" points="972.6,347.1 1001.9,351 973,344.4 "/>
<polygon class="st0" points="1035.5,128.8 1044.9,137 1036.2,127.9 "/>
<polygon class="st0" points="925.7,50.3 894.3,33.3 927.3,47.4 "/>
<polygon class="st0" points="934.4,44.4 917.3,13.1 937.3,42.8 "/>
<polygon class="st0" points="1035.3,44.4 1018.2,13.1 1038.2,42.8 "/>
<polygon class="st0" points="1033.7,50 1069.3,47.4 1033.9,53.3 "/>
<polygon class="st0" points="1028.1,107.6 1061.7,95.5 1029.2,110.7 "/>
<polygon class="st0" points="1065.6,110.6 1099.2,98.6 1066.7,113.7 "/>
<polygon class="st0" points="1115.3,111.5 1137.7,83.6 1117.9,113.5 "/>
<polygon class="st0" points="1173.8,79.8 1191,58.5 1175.8,81.4 "/>
<polygon class="st0" points="1165.2,81.4 1184.8,100.6 1163.5,83.2 "/>
<polygon class="st0" points="1187.9,78.1 1217.1,91.8 1187,80.1 "/>
<polygon class="st0" points="1195.8,78.8 1221.5,69.1 1196.3,80 "/>
<polygon class="st0" points="1155.7,85.4 1156.7,58.1 1158.2,85.5 "/>
<polygon class="st0" points="487.7,278.2 456.3,261.2 489.2,275.3 "/>
<polygon class="st0" points="382.1,69.3 350.3,53.1 382.9,67.8 "/>
<polygon class="st0" points="374.4,146.2 342.6,130 375.2,144.7 "/>
<polygon class="st0" points="342.5,179.3 306.8,177.8 342.6,176 "/>
<polygon class="st0" points="524.9,234 480.5,232.2 525.1,229.2 "/>
<polygon class="st0" points="344.1,280.6 299.6,278.7 344.3,275.7 "/>
<polygon class="st0" points="644.8,175 600.3,173.1 645,170.1 "/>
<polygon class="st0" points="622.5,472.5 578,470.7 622.7,467.7 "/>
<polygon class="st0" points="514.4,366.1 469.9,364.2 514.6,361.2 "/>
<polygon class="st0" points="840.1,188.9 884.6,187.1 839.9,184.1 "/>
<polygon class="st0" points="882.8,294.6 927.3,292.8 882.6,289.8 "/>
<polygon class="st0" points="840.1,273.9 884.6,272.2 839.9,269 "/>
<polygon class="st0" points="891.1,113.1 935.6,111.4 891,108.2 "/>
<polygon class="st0" points="822.6,406.5 867.1,404.7 822.4,401.7 "/>
<polygon class="st0" points="912.4,449.7 956.9,447.9 912.2,444.9 "/>
<polygon class="st0" points="900.3,419.3 900.3,374.7 895.5,419.3 "/>
<polygon class="st0" points="1062.3,417.4 1062.3,372.8 1057.4,417.4 "/>
<polygon class="st0" points="1024.4,493.7 1065.2,511.6 1026.3,489.2 "/>
<polygon class="st0" points="1148,481.5 1176.2,493.8 1149.2,478.9 "/>
<polygon class="st0" points="1140.6,483.2 1163.2,504 1142.5,481.1 "/>
<polygon class="st0" points="1166.9,475.6 1194.6,489.1 1168.1,473.1 "/>
<polygon class="st0" points="1186.8,473.7 1211.6,485.7 1187.6,472 "/>
<polygon class="st0" points="1181.3,473.2 1195.9,449.8 1179.7,472.2 "/>
<polygon class="st0" points="1159,478.2 1173.6,454.8 1157.4,477.2 "/>
<polygon class="st0" points="1080.8,484.9 1095.5,461.5 1079.3,483.9 "/>
<polygon class="st0" points="700.1,222.9 740.8,240.8 702,218.5 "/>
<polygon class="st0" points="692.4,119.5 733.1,137.4 694.3,115.1 "/>
<polygon class="st0" points="717.6,46.6 758.4,64.4 719.6,42.1 "/>
<polygon class="st0" points="817.8,69.5 829.6,26.6 813.1,68.2 "/>
<polygon class="st0" points="692.4,240.9 733.1,258.7 694.3,236.4 "/>
<polygon class="st0" points="681.1,144.8 721.8,162.7 683,140.4 "/>
<polygon class="st0" points="928.9,225.7 969.7,243.6 930.9,221.2 "/>
<polygon class="st0" points="1069.7,111.4 1080.2,154.7 1074.4,110.3 "/>
<polygon class="st0" points="961.4,389.7 973.5,337.3 956.9,388.7 "/>
<polygon class="st0" points="977.8,395.9 987.7,448.7 982.3,395 "/>
<polygon class="st0" points="957.7,480.6 957.7,525.1 962.6,480.6 "/>
<polygon class="st0" points="890.1,305.6 934.6,303.8 889.9,300.8 "/>
<polygon class="st0" points="764,188.4 784.8,227.7 768.3,186.1 "/>
<polygon class="st0" points="742.2,184.4 750.2,228.2 747,183.6 "/>
<polygon class="st0" points="988.1,486.4 1025,461.5 985.4,482.4 "/>
<polygon class="st0" points="1007.9,490.2 1044.8,465.3 1005.2,486.2 "/>
<polygon class="st0" points="1029.8,493.9 1071.3,477.7 1028.1,489.4 "/>
<polygon class="st0" points="1118,491.2 1152.9,463.5 1115,487.4 "/>
<polygon class="st0" points="998.4,234 1028.1,232.8 998.3,230.8 "/>
<polygon class="st0" points="398.8,291 354.4,289.2 399,286.2 "/>
<polygon class="st0" points="335,374.5 290.9,380.2 334.4,369.6 "/>
<polygon class="st0" points="343.7,386.9 309,391.5 343.2,383.2 "/>
<polygon class="st0" points="680.1,134.6 623.3,132.3 680.4,128.5 "/>
<polygon class="st0" points="689.9,91.7 633,93.3 664.7,87.3 690.1,85.5 "/>
<polygon class="st0" points="693.8,299.6 629.3,320.5 663.2,301.2 691.7,290.4 "/>
<polygon class="st0" points="721.1,395.8 656.7,416.7 690.5,397.5 719,386.6 "/>
<polygon class="st0" points="724.3,363.7 788.8,384.6 754.9,365.3 726.4,354.5 "/>
<polygon class="st0" points="692.1,204.6 756.5,225.5 722.7,206.2 694.2,195.4 "/>
<polygon class="st0" points="688.2,107.8 752.7,128.7 718.8,109.4 690.3,98.6 "/>
<polygon class="st0" points="733.4,413.1 797.8,434 763.9,414.7 735.5,403.9 "/>
<polygon class="st0" points="724.3,496 772.9,543.2 751,511 730.3,488.7 "/>
<polygon class="st0" points="635.1,485 568.2,496 604.6,482 634.4,475.6 "/>
<polygon class="st0" points="578.6,117.7 514.2,138.6 548.1,119.3 576.5,108.4 "/>
<polygon class="st0" points="569.4,367.8 548.2,357.4 513.8,327.9 540,357.8 564,377.2 "/>
<polygon class="st0" points="436.8,264.3 401.9,262.8 436.9,262 "/>
<polygon class="st0" points="454.4,281.6 419.5,284.5 454.2,279.4 "/>
<polygon class="st0" points="643,253.2 623,281.9 641.1,251.9 "/>
<polygon class="st0" points="535.7,186.5 501.1,181.2 536,184.3 "/>
<polygon class="st0" points="697.5,52.1 662.9,46.8 697.8,49.8 "/>
<polygon class="st0" points="844.1,163.9 856.3,164.9 844.1,164.7 "/>
<polygon class="st0" points="827.1,166.7 846.2,168.4 827,168 "/>
<polygon class="st0" points="1051.6,191.5 1070.7,193.1 1051.5,192.7 "/>
<polygon class="st0" points="1069.9,216.7 1087.4,208.6 1070.4,217.8 "/>
<polygon class="st0" points="1088.5,418.9 1096.5,436.4 1087.4,419.4 "/>
<polygon class="st0" points="765.5,292.2 782.5,301.2 764.9,293.3 "/>
<polygon class="st0" points="777.3,287.8 794.3,296.7 776.7,288.9 "/>
<polygon class="st0" points="1104.3,417.2 1120,428.3 1103.5,418.3 "/>
<polygon class="st0" points="1121.3,410.9 1140.6,410.9 1121.3,412.1 "/>
<polygon class="st0" points="1122.4,401.5 1135.6,387.5 1123.3,402.3 "/>
<polygon class="st0" points="1183.8,389.6 1197,375.6 1184.7,390.4 "/>
<polygon class="st0" points="1095.4,418.7 1108.7,404.7 1096.4,419.5 "/>
<polygon class="st0" points="893.2,291.3 906.5,277.4 894.1,292.2 "/>
<polygon class="st0" points="1043.1,414 1056.3,400 1044,414.8 "/>
<polygon class="st0" points="1021.6,212.2 1034.8,198.3 1022.5,213.1 "/>
<polygon class="st0" points="902.1,292.6 910.5,283.8 902.6,293.2 "/>
<polygon class="st0" points="1044.9,212.8 1053.3,203.9 1045.5,213.4 "/>
<polygon class="st0" points="1012,185.3 1023.6,189.3 1011.7,186.1 "/>
<polygon class="st0" points="1144.9,98.6 1156.5,102.6 1144.7,99.3 "/>
<polygon class="st0" points="1051,214.6 1059.4,205.7 1051.5,215.1 "/>
<polygon class="st0" points="1116,414.3 1115.1,395.1 1117.3,414.2 "/>
<polygon class="st0" points="1120.8,393.3 1102.4,387.6 1121.1,392.1 "/>
<polygon class="st0" points="1024.8,383.7 1032.8,401.2 1023.6,384.2 "/>
<polygon class="st0" points="945.9,232 953.9,249.5 944.8,232.6 "/>
<polygon class="st0" points="926.1,151.7 920.8,170.2 924.9,151.4 "/>
<polygon class="st0" points="997.9,91.5 992.6,110 996.7,91.2 "/>
<polygon class="st0" points="1098.8,113.2 1107.2,130.5 1097.6,113.8 "/>
<polygon class="st0" points="983.8,359.9 991.8,377.4 982.7,360.4 "/>
<polygon class="st0" points="999.5,491.7 1007.5,509.1 998.4,492.2 "/>
<polygon class="st0" points="1092,487.3 1100,504.7 1090.9,487.8 "/>
<polygon class="st0" points="873.1,421.9 881.1,439.4 872,422.4 "/>
<polygon class="st0" points="887.6,423.6 895.6,441.1 886.5,424.2 "/>
<polygon class="st0" points="807.8,408 815.8,425.5 806.7,408.5 "/>
<g>
	<path class="st0" d="M824.6,460.2c-0.1,8-0.8,16-1.7,23.8c-0.7,7.2-2,15-0.8,21.9c0.1,0.6,0.3,1.1,0.4,1.7c0,0.1,0,0.1,0,0.1
		c0,0.1,0,0.1,0.1,0.1c0.2,0.3,0.3,0.4,0.6,0.7c8,5.2,27.6,4.5,37.5,4.2l-1.6,0.9c0,0,11.8-12.6,11.8-12.6l0.5-0.5l0.7,0.1
		c-0.3,0,38.6,5,37.7,4.9l19.3-4.2l0.2,1l-19.3,4.2c0,0.1-38.1-3.5-38.2-3.5l1.1-0.5l-9.9,14.1l-0.5,0.7l-1.2,0.2
		c-10.9,1.2-38.7,4.7-45.6-5.4c-0.8-1.3-1.3-2.8-1.7-4.3c-2.1-8.4-1.3-16.3-1.1-24.6c0.3-7.6,0.4-15.2-0.1-22.8L824.6,460.2
		L824.6,460.2L824.6,460.2z"/>
	<polygon class="st0" points="818.5,475.1 859.3,492.9 820.5,470.6 	"/>
	<polygon class="st0" points="846.7,518.2 854.7,535.7 845.6,518.8 	"/>
	<polygon class="st0" points="829.1,515.3 837.1,532.7 828,515.8 	"/>
	<polygon class="st0" points="831,477.7 839,495.2 829.9,478.2 	"/>
	<polygon class="st0" points="881.1,502.8 889.1,520.3 880,503.3 	"/>
</g>
<g>
	<path class="st0" d="M728.2,487.2c-0.1,9.9-1,19.7-2.1,29.4c-0.9,8.9-2.4,18.6-1,27.1c0.1,0.7,0.4,1.4,0.5,2.1
		c0,0.2,0.1,0.1,0.1,0.2c0,0.1,0,0.1,0.1,0.2c0.2,0.3,0.4,0.5,0.7,0.8c10,6.5,34.2,5.6,46.4,5.1l-2,1.1c0,0,14.6-15.6,14.6-15.6
		l0.6-0.7l0.8,0.1c-0.4,0,47.7,6.1,46.6,6.1l23.9-5.2l0.3,1.2l-23.9,5.2c0,0.1-47.1-4.3-47.2-4.3l1.4-0.6L775.6,557l-0.6,0.9
		l-1.4,0.2c-13.5,1.5-47.8,5.8-56.4-6.7c-1-1.6-1.6-3.5-2.1-5.3c-2.5-10.4-1.6-20.2-1.4-30.4c0.3-9.5,0.5-18.8-0.1-28.2L728.2,487.2
		L728.2,487.2L728.2,487.2z"/>
	<polygon class="st0" points="720.7,505.6 771.1,527.7 723.1,500.1 	"/>
	<polygon class="st0" points="736.1,508.8 746,530.4 734.7,509.5 	"/>
	<polygon class="st0" points="798.1,539.9 808,561.5 796.7,540.5 	"/>
</g>
<polygon class="st0" points="1045.8,502.3 1053.8,519.8 1044.6,502.8 "/>
<polygon class="st0" points="1014.2,410.3 1022.2,427.7 1013.1,410.8 "/>
<polygon class="st0" points="899,338.2 907,355.6 897.9,338.7 "/>
<polygon class="st0" points="998.3,475.9 994.6,457.1 999.6,475.7 "/>
<polygon class="st0" points="1092.1,486.8 1088.4,468 1093.4,486.6 "/>
<polygon class="st0" points="934.2,397 930.5,378.2 935.5,396.8 "/>
<polygon class="st0" points="1060.4,406.5 1046.3,393.4 1061.2,405.6 "/>
<polygon class="st0" points="897.7,410.7 883.6,397.6 898.5,409.7 "/>
<polygon class="st0" points="800.1,266.4 809.4,249.6 801.2,267 "/>
<polygon class="st0" points="809.4,269.1 818.8,252.3 810.5,269.7 "/>
<polygon class="st0" points="937.9,324.1 947.3,307.3 939,324.7 "/>
<polygon class="st0" points="752.6,364.7 770.6,357.9 753,365.9 "/>
<polygon class="st0" points="765.4,417.1 783.4,410.3 765.8,418.3 "/>
<polygon class="st0" points="707,201.1 725,194.3 707.4,202.2 "/>
<polygon class="st0" points="858.7,186.6 874.8,176.1 859.4,187.6 "/>
<polygon class="st0" points="770.9,195 789.9,198.3 770.7,196.2 "/>
<polygon class="st0" points="773.1,200.9 792.1,204.2 772.9,202.1 "/>
<polygon class="st0" points="747.1,193.1 764.9,200.4 746.7,194.2 "/>
<polygon class="st0" points="747.1,202.2 764.9,209.6 746.7,203.4 "/>
<polygon class="st0" points="774.9,206.8 792.7,214.1 774.4,207.9 "/>
<polygon class="st0" points="773.1,199.3 767.2,217.6 771.9,198.9 "/>
<polygon class="st0" points="746.7,205.1 740.8,223.4 745.5,204.7 "/>
<polygon class="st0" points="856.1,122.6 850.2,140.9 854.9,122.2 "/>
<polygon class="st0" points="1037,104.4 1043.4,86.3 1038.2,104.8 "/>
<polygon class="st0" points="1056.3,110.7 1064.5,128 1055.2,111.2 "/>
<polygon class="st0" points="1075.4,126.7 1093.1,134.3 1074.9,127.9 "/>
<polygon class="st0" points="1139.8,108.1 1158.2,113.7 1139.5,109.3 "/>
<polygon class="st0" points="1038.5,110.7 1046.7,128 1037.4,111.2 "/>
<polygon class="st0" points="1003,190.4 1007.4,171.7 1004.2,190.7 "/>
<polygon class="st0" points="1004.1,225.9 1008.5,207.2 1005.3,226.2 "/>
<polygon class="st0" points="953.3,219.4 967,205.9 954.2,220.3 "/>
<polygon class="st0" points="890.5,343 909.4,346.4 890.3,344.2 "/>
<polygon class="st0" points="913.5,90.1 932.4,93.5 913.3,91.3 "/>
<polygon class="st0" points="1151.4,22.9 1169.9,26.3 1151.2,24 "/>
<polygon class="st0" points="1127.2,16.6 1144.5,9.4 1127.6,17.6 "/>
<polygon class="st0" points="1132.6,18.7 1149.9,11.5 1133,19.7 "/>
<polygon class="st0" points="1117.5,14.7 1129.2,0 1118.4,15.4 "/>
<polygon class="st0" points="1047.1,49.6 1058.7,34.9 1048,50.3 "/>
<polygon class="st0" points="1038.3,50.6 1048.5,66.4 1037.4,51.2 "/>
<polygon class="st0" points="999.9,58.5 1010,74.2 998.9,59.1 "/>
<polygon class="st0" points="990.7,56.2 995.6,74.4 989.7,56.5 "/>
<polygon class="st0" points="846.9,89.3 865.8,92.7 846.7,90.5 "/>
<polygon class="st0" points="995.8,142.8 1014.7,146.2 995.6,144 "/>
<polygon class="st0" points="966.9,222.4 985.8,225.8 966.7,223.6 "/>
<g>
	<path class="st0" d="M827.8,271c0,8.1,2.1,24-6.1,29c-2,1.2-4.2,0.8-6,2.5c-3.3,2.9-5.7,9-3.1,13c0.5,0.8,1.5,1.2,2.2,1.6
		c8.9,5.5,18.7,8.9,29.2,8.8c4.4-0.1,9.3,0.1,13.3-1.9c0.4-0.3,0.9-0.7,1.2-1c2-2.6,5.5-2.7,8.5-2.8l0,1c-2.1,0.2-4.7,0.3-6.4,1.6
		c-0.8,0.7-1.6,1.8-2.6,2.5c-4.3,2.5-9.3,2.4-14.1,2.8c-10.8,0.6-21.7-2.5-31-7.8c-5.9-2.4-6.5-9.2-4.7-14.4c1.5-4.5,5-8.8,10-9.7
		c3.8-1.3,3.8-7.4,4-11.1c0.1-4.5-0.4-9-0.7-13.8L827.8,271L827.8,271L827.8,271z"/>
	<polygon class="st0" points="866.8,320.1 874.8,337.6 865.7,320.6 	"/>
	<polygon class="st0" points="824.5,290.3 832.5,307.8 823.4,290.8 	"/>
	<polygon class="st0" points="820,298.5 828,316 818.8,299 	"/>
	<polygon class="st0" points="826.2,282.8 843.2,291.8 825.7,283.9 	"/>
	<polygon class="st0" points="812.4,318.2 820.4,335.7 811.2,318.8 	"/>
	<polygon class="st0" points="841.8,327.2 860.7,330.5 841.6,328.4 	"/>
</g>
<g>
	<path class="st0" d="M692.2,492.6c0.1,9.6-2.5,28.4,7.2,34.3c2.4,1.4,5,0.9,7.1,2.9c3.9,3.4,6.7,10.6,3.7,15.3
		c-0.6,0.9-1.7,1.4-2.6,1.9c-10.5,6.5-22.1,10.5-34.5,10.4c-5.2-0.2-11,0.1-15.8-2.3c-0.4-0.3-1.1-0.8-1.4-1.2
		c-2.4-3-6.6-3.2-10.1-3.3l-0.1,1.2c2.5,0.3,5.5,0.4,7.5,1.9c1,0.8,1.9,2.1,3,2.9c5.1,2.9,11.1,2.9,16.7,3.3
		c12.7,0.7,25.6-3,36.6-9.2c7-2.8,7.7-10.9,5.5-17.1c-1.7-5.3-6-10.4-11.8-11.5c-4.5-1.5-4.5-8.8-4.7-13.1
		c-0.1-5.3,0.5-10.7,0.9-16.3L692.2,492.6L692.2,492.6L692.2,492.6z"/>
	<polygon class="st0" points="696,515.5 686.6,536.2 697.4,516.1 	"/>
	<polygon class="st0" points="701.4,525.2 692,545.8 702.8,525.8 	"/>
	<polygon class="st0" points="694,506.6 673.9,517.2 694.7,507.9 	"/>
</g>
<g>
	<path class="st0" d="M688.6,57.9c9.6-0.1,28.4,2.5,34.3-7.2c1.4-2.4,0.9-5,2.9-7.1c3.4-3.9,10.6-6.7,15.3-3.7
		c0.9,0.6,1.4,1.7,1.9,2.6c6.5,10.5,10.5,22.1,10.4,34.5c-0.2,5.2,0.1,11-2.3,15.8c-0.3,0.4-0.8,1.1-1.2,1.4
		c-3,2.4-3.2,6.6-3.3,10.1l1.2,0.1c0.3-2.5,0.4-5.5,1.9-7.5c0.8-1,2.1-1.9,2.9-3c2.9-5.1,2.9-11.1,3.3-16.7
		c0.7-12.7-3-25.6-9.2-36.6c-2.8-7-10.9-7.7-17.1-5.5c-5.3,1.7-10.4,6-11.5,11.8c-1.5,4.5-8.8,4.5-13.1,4.7
		c-5.3,0.1-10.7-0.5-16.3-0.9L688.6,57.9L688.6,57.9L688.6,57.9z"/>
	<polygon class="st0" points="711.5,54.1 732.1,63.6 712.1,52.7 	"/>
	<polygon class="st0" points="721.1,48.7 741.8,58.1 721.8,47.3 	"/>
	<polygon class="st0" points="702.5,56.1 713.2,76.2 703.9,55.4 	"/>
</g>
<polygon class="st0" points="719.1,300 738,303.4 718.9,301.2 "/>
<polygon class="st0" points="731.5,346.9 750.4,350.3 731.3,348.1 "/>
<polygon class="st0" points="732.8,480.3 751.8,483.7 732.6,481.6 "/>
<polygon class="st0" points="734.4,400 753.3,403.4 734.2,401.2 "/>
<polygon class="st0" points="350.6,307.7 339.6,291.9 351.6,307 "/>
<polygon class="st0" points="363.6,309.6 352.6,293.8 364.6,308.9 "/>
<polygon class="st0" points="242.5,456.1 231.6,440.3 243.6,455.4 "/>
<polygon class="st0" points="259.9,452.7 248.9,436.9 260.9,451.9 "/>
<polygon class="st0" points="447.8,69.1 436.8,53.3 448.8,68.3 "/>
<polygon class="st0" points="491.6,60.8 480.6,45 492.6,60.1 "/>
<polygon class="st0" points="478.4,61.8 467.5,46 479.5,61.1 "/>
<polygon class="st0" points="315.3,495.6 318.4,514.6 314.1,495.8 "/>
<polygon class="st0" points="334.1,473.9 337.2,492.9 332.9,474.1 "/>
<polygon class="st0" points="552.8,518.8 541.8,503.1 553.8,518.1 "/>
<polygon class="st0" points="595,513.8 584,498 596,513 "/>
<polygon class="st0" points="465.4,510.8 448.1,519.1 464.9,509.6 "/>
<polygon class="st0" points="164,516.9 153,501.2 165.1,516.2 "/>
<polygon class="st0" points="374.8,311.5 358.5,321.7 374.1,310.4 "/>
<polygon class="st0" points="715,306.1 733.9,309.5 714.8,307.3 "/>
<polygon class="st0" points="904.9,190.4 918.6,176.9 905.8,191.3 "/>
<polygon class="st0" points="915.8,146.5 918.4,127.4 917,146.6 "/>
<polygon class="st0" points="914,191.7 933,188.5 914.2,192.9 "/>
<polygon class="st0" points="1170.4,80.1 1174.8,61.4 1171.6,80.4 "/>
<polygon class="st0" points="1028.4,27.6 1044.5,17.1 1029.1,28.6 "/>
<polygon class="st0" points="691.2,74.5 656.7,69.2 691.6,72.2 "/>
<polygon class="st0" points="693.8,251.3 663.1,268.1 692.7,249.3 "/>
<polygon class="st0" points="659.9,170.4 627.5,157.1 660.7,168.3 "/>
<polygon class="st0" points="661.3,166.6 649.9,133.6 663.4,165.9 "/>
<polygon class="st0" points="537.7,352.3 539.4,337.1 539,352.4 "/>
<polygon class="st0" points="528.9,343.4 530.6,328.3 530.2,343.6 "/>
<polygon class="st0" points="536.3,350.6 521.3,348 536.5,349.3 "/>
<polygon class="st0" points="541.6,354 543.6,335.5 543.1,354.1 "/>
<polygon class="st0" points="546.4,357.3 549.2,332.8 548.5,357.6 "/>
<polygon class="st0" points="552.7,361.7 555.5,337.1 554.8,361.9 "/>
<polygon class="st0" points="451.4,83 416.9,77.7 451.8,80.7 "/>
<polygon class="st0" points="533.6,224.5 499,219.2 533.9,222.2 "/>
<polygon class="st0" points="503.7,203.3 469.2,198 504.1,201 "/>
<polygon class="st0" points="392,181 361.4,198 390.9,179 "/>
<polygon class="st0" points="247,131.6 216.4,148.5 245.9,129.6 "/>
<polygon class="st0" points="272.4,131.6 241.8,148.5 271.2,129.6 "/>
<polygon class="st0" points="298.5,153.3 263.5,154.5 298.4,151 "/>
<polygon class="st0" points="483.6,126.8 448.7,128 483.5,124.5 "/>
<polygon class="st0" points="702.4,284.9 667.4,286.2 702.3,282.6 "/>
<polygon class="st0" points="722,431.1 687.1,432.4 722,428.9 "/>
<polygon class="st0" points="716,457.2 681.1,458.4 715.9,454.9 "/>
<polygon class="st0" points="707.6,468.9 672.6,470.1 707.5,466.6 "/>
<polygon class="st0" points="649.3,531.4 626.3,505.1 651.1,529.9 "/>
<polygon class="st0" points="583.1,517.5 563.5,546.5 581.2,516.3 "/>
<polygon class="st0" points="612.2,525.3 592.6,554.2 610.3,524 "/>
<polygon class="st0" points="671.3,525.3 651.8,554.2 669.5,524 "/>
<polygon class="st0" points="526.2,525.6 506.7,554.6 524.4,524.3 "/>
<polygon class="st0" points="390.6,507.4 379.6,504.3 390.8,506.7 "/>
<polygon class="st0" points="412.4,502.9 397.3,498.6 412.7,501.9 "/>
<polygon class="st0" points="419.7,501.2 405.3,494.9 420.1,500.2 "/>
<polygon class="st0" points="431.8,499.1 409.7,492.8 432.2,497.6 "/>
<polygon class="st0" points="701.1,290.9 666.1,292.1 701,288.6 "/>
<polygon class="st0" points="623,209.2 588.1,210.4 622.9,206.9 "/>
<polygon class="st0" points="402.2,183.2 381.3,211.2 399.4,181.1 "/>
<polygon class="st0" points="297.7,193.9 268,210.4 296.8,192.3 "/>
<polygon class="st0" points="310.1,193.7 285.3,216.8 308.8,192.3 "/>
<polygon class="st0" points="319,192 302.9,221.8 317.3,191.1 "/>
<polygon class="st0" points="327.7,185.7 316.2,217.6 325.9,185 "/>
<polygon class="st0" points="410.2,310 378,296.5 411.1,307.9 "/>
<polygon class="st0" points="315.3,302.5 283,289 316.2,300.4 "/>
<polygon class="st0" points="304,349.6 271.8,336.1 304.9,347.5 "/>
<polygon class="st0" points="396.8,344.7 358.6,344.7 396.8,341.1 "/>
<polygon class="st0" points="231.9,333.3 203.9,312.4 233.3,331.5 "/>
<polygon class="st0" points="229.5,306.9 226.7,284.5 231,306.7 "/>
<polygon class="st0" points="236.1,314.6 233.3,292.2 237.6,314.4 "/>
<polygon class="st0" points="481.8,320.7 449.6,307.2 482.7,318.6 "/>
<polygon class="st0" points="490.4,118.4 454.8,115.6 490.7,115.1 "/>
<polygon class="st0" points="507.3,112.8 473.1,102.2 508.2,109.6 "/>
<path class="st0" d="M422.1,339.4c2.9,15.1,3.8,30.4,3.2,45.8c-0.1,8.2-1.9,17.3-7.8,23.5c-2,2.2-4.4,3.9-6.7,5.3
	c-2.3,1.4-4.7,2.5-6.5,3.6c-1.5,0.9-2.8,1.7-3.2,3.3c-0.2,1.7,0.1,3.5,0.6,5c2.7,7.8,9.2,14.3,15.4,19.6l-4,2.3
	c-12.3,7-24.6,13.5-37.7,18.9c-5.2,2-10.9,4.4-16.9,4.7c-8.8-0.2-17.3-3-25.6-5.3c-8-2.4-20.4-6.6-25.9-9c-19-2.2-64.8-6.2-78.6,8
	c-1.1,1.1-1.7,2.5-2.3,3.9c-2.2,5-5.7,9.3-9.4,13.1c-14.9,14.8-33.4,25.4-51.9,34.6l-0.5-1c18.1-10.4,44.6-26.5,56-44
	c1.5-2.2,2.2-4.6,3.4-6.9c2.4-4.2,6.8-7,10.9-8.8c20.2-8.3,51.4-6.5,73.1-4.4c8.9,3,17.8,6.2,26.9,8.8c7.7,2.1,15.4,4.5,23.4,4.8
	c5.1-0.4,10-2.4,15-4.4c12.6-5.4,24.8-12,36.7-18.8c0,0-0.5,5.5-0.5,5.5c-7.4-6.7-15.7-16-15.6-26.6c0.3-7.7,7.9-10.4,13.1-13.7
	c8.3-4.8,10.2-13.3,10-22.2c0.1-13.4-0.9-26.8-3.4-39.9c-0.2-1.1-0.5-2.4-0.7-3.4L422.1,339.4L422.1,339.4L422.1,339.4z"/>
<path class="st0" d="M285,452.8c0.2,5.4,1.4,11.2,1.2,16.8c-0.1,2.1-0.3,4.4-1.4,6.3c-0.6,1.1-1.8,1.9-2.9,2.4
	c-2.8,1.2-5.7,1.6-8.6,2c-3.8,0.5-7.5,0.7-11.3,0.7l1.3-1.1l-4.3,18.3c0,0-0.2,0.7-0.2,0.8c-4.6,0.5-9.2,0.5-13.9,0.3
	c-2.2-0.1-4.3-0.2-6.6-0.5c-10.8-2.3-19.4-10.3-28.9-15.2c-2.8-1.5-5.7-3-8.9-3.1c-5.4-0.1-10.8-0.8-16.2-1.4
	c-8.6-1-17.2-2.1-25.8-3.3l0.1-0.4c14,1.6,27.9,3.5,42,4c3.4,0.1,6.5,1.6,9.4,3.1c7.7,4,14.8,9.3,22.6,12.8
	c3.9,1.9,8.1,2.1,12.4,2.2c4.3,0.1,8.6,0,12.8-0.5l-0.9,0.8l3.7-18.5l0.2-1l1.1,0c5.4-0.3,11-0.7,16.2-2.1c1.6-0.5,3.4-1.2,3.8-2
	c0.7-1.4,0.7-3,0.8-4.6c0-5.6-1.3-10.8-1.7-16.6L285,452.8L285,452.8L285,452.8z"/>
<path class="st0" d="M378.9,463.1c-3.3-6.4-6.7-13.1-10.8-19c-0.6-0.9-1.1-1.5-1.8-2.1c-4.9-3.2-11-4.5-16.7-5.8l-1.1-0.2l-0.4-1
	c0,0-4.1-11.4-4.1-11.4l0.5,0.7c-5-4-10.3-7.9-16-10.7c-2-0.9-4.2-1.9-6.4-1.9c-4,0.3-7.8,1.4-11.8,2.3c-6.3,1.6-12.6,3.3-19,5.1
	c-6.3,1.8-12.6,3.6-18.9,5.5c-0.1,0.1-48.2,4.5-48.3,4.5l-0.1-0.5c0,0,48.6-5.6,47.9-5.5c12.5-4,25-8,37.7-11.5
	c4-1,8.1-2.3,12.3-2.7c0.8,0,2,0.1,2.8,0.3c0.7,0.1,1.8,0.5,2.5,0.7c7.2,2.8,13.5,7.3,19.6,12c0,0,0.2,0.4,0.2,0.4l4.6,11.2
	c0,0-1.4-1.2-1.4-1.2c6.4,1.3,13,2.4,18.6,6c4,3.4,6.4,8.2,9.1,12.5c1.9,3.2,3.8,6.4,5.6,9.7L378.9,463.1L378.9,463.1L378.9,463.1z"
	/>
<path class="st0" d="M336.9,464c-0.8,5.4-8.1,28.6-13,30.1c-6.2,2.1-12.4,3.4-18.7,4.9l0.5-0.4l-17.1,22.6l-0.4-0.3l16-23.4l0.2-0.3
	c6.2-1.7,12.6-3.2,18.5-5.5c0.4-0.1,0.5-0.3,0.8-0.6c3.2-4.6,4.8-10.2,6.6-15.6c1.2-3.9,2.4-8.1,3-12.1L336.9,464L336.9,464
	L336.9,464z"/>
</svg>
