<?xml version="1.0" encoding="utf-8"?>
<!-- Generator: Adobe Illustrator 27.4.1, SVG Export Plug-In . SVG Version: 6.00 Build 0)  -->
<svg version="1.1" id="_Слой_1" xmlns="http://www.w3.org/2000/svg" xmlns:xlink="http://www.w3.org/1999/xlink" x="0px"
	 y="0px" viewBox="0 0 1417.3 566.9" style="enable-background:new 0 0 1417.3 566.9;" xml:space="preserve">
<style type="text/css">
	.st0{fill:#FFFFFF;}
</style>
<path class="st0" d="M718.6,361.4c-27.6,14.7-59.4,22.2-90.7,20.5l-0.2,0c0,0-0.1,0-0.2,0l-0.7-0.1c-1,0-3-1-2.9-1
	c-0.3-0.2-1-0.6-1.2-0.8c-1-0.8-1.8-1.9-2.5-2.8c-4.5-5.9-9.2-12.9-13.7-18.8c-0.1-0.1-0.3-0.3-0.2-0.2l0.1,0.1c0,0,0.2,0.2,0.3,0.3
	c0,0,0.2,0.2,0.4,0.3c0.3,0.2,0.3,0.2,0.8,0.5c0.8,0.5,2.6,0.8,2.9,0.8h0l-0.4,0c-13.7-0.9-27.3-0.1-41-0.5
	c-7.3-0.1-15.6-0.8-22.9-3.1c-16.6-4.5-41.5-15.6-36.3-37c0.2-0.9,0.6-1.9,1-2.7l0.8,6.2c-8-6.2-19.4-9.2-29.6-11.8
	c-5.3-1.1-10.2-2.8-15.8-1.9c-11.2,1.6-22.9,6.1-34.6,7.2c-4.4,0.5-9.3,0.5-13.7,0.3c-7.3-0.1-14.7-0.1-22.1-0.4
	c-9.2-0.1-18.3-2.6-26.8-6.1c-5.4-2.2-10.5-5.7-15.7-7.8c-5.1-2.1-10.4,0-15.1,2.1c-6.6,3-11.2,8.6-16,14c-2.2,2.5-6,3.1-9.1,3.5
	c-4.5,0.6-8.9,0.7-13.4,0.8c-11.9,0.1-23.7-0.5-35.4-1.8c-5.9-0.7-11.7-1.5-17.5-3l0.2-1c5.7,1.2,11.6,1.9,17.4,2.3
	c11.7,0.9,23.5,1.1,35.2,0.5c4.4-0.2,8.7-0.5,13-1.3c1.8-0.4,4.1-0.7,5.6-1.6c1.6-1.1,2.7-2.9,4-4.5c3.7-4.8,8.4-9.3,13.8-12.1
	c11.3-5.8,16.5-4.9,27.2,0.8c7.7,3.9,15.8,6.7,24.2,8c2.5,0.4,5.4,0.4,8.3,0.4c7.2,0,14.8-0.3,22-0.4c10,0.3,19.7-1.7,29.4-4.6
	c8.7-2.4,18.2-6.1,27.9-4.7c9,1.5,17.8,3.2,26.6,6.1c6.3,2.2,12.8,4.6,17.9,9.2l0.8,6.2c0.1-0.1,0-0.1,0-0.1c-1,2.9-0.3,5.8,1.4,8.4
	c4.4,6.4,13.2,10,20.8,12.4c3.1,1,6.7,1.9,9.9,2.6c5.4,1.1,10.7,1.1,16.5,1.1c13.2-0.2,26.5-1.3,39.8-1l1.9,0h0.5
	c0.5,0,2.1,0.3,3.1,0.8c0.5,0.3,0.6,0.3,0.9,0.5c0.3,0.2,0.5,0.4,0.5,0.4c1.8,1.5,3,3.3,4.3,4.9c3.9,5,8.9,11.9,12.6,16.2
	c-0.4-0.4-0.9-0.7-1.4-1c0.2,0-1.8-0.9-2.8-1c-1.3-0.1-0.3,0-0.6-0.1h0h0.1c5.4,0.1,10.9,0,16.3-0.5c20.4-1.9,40.4-7.9,58.7-17.1
	c1.7-0.9,3.4-1.8,5.1-2.8l0.6-0.3L718.6,361.4L718.6,361.4L718.6,361.4z"/>
<path class="st0" d="M738.2,445.5c19.6,11.2,41.8,18,64.3,20.2c5.5,0.5,11,0.6,16.5,0.5c-0.3,0,0.7-0.1-0.6,0.1c-1,0-2.9,1-2.8,1
	c-0.5,0.3-1,0.6-1.4,1l-0.1,0.1c0.3-0.3,1.3-1.6,1.7-2.1c3.3-4.3,7.6-9.9,10.9-14.2c1.3-1.6,2.5-3.4,4.3-4.9c0,0,0.2-0.2,0.5-0.4
	c0.3-0.2,0.4-0.2,0.9-0.5c0.9-0.5,2.7-0.8,3.1-0.8c9.3-0.3,18.8,0.1,28,0.5c9.1,0.3,18.8,0.9,27.6-0.2c4.3-0.6,8.8-1.9,13-3.1
	c9-2.8,25.2-9.4,22.2-20.7l0-0.1c0,0,0-0.1,0,0.1l0.8-6.2c2.8-2.7,5.8-4.2,9.2-5.8c8.5-3.9,17.5-6.2,26.5-8c3-0.6,5.9-1.1,8.9-1.6
	c9.7-1.4,19.2,2.3,27.9,4.7c9.7,2.9,19.3,4.9,29.4,4.6c7.3,0.1,14.8,0.4,22.1,0.4c2.9,0,5.8,0,8.3-0.4c5.6-0.9,11.1-2.3,16.4-4.4
	c5.6-2.1,10.4-5.2,16.2-7.3c4.7-1.8,10.1-0.9,14.6,1c4.4,1.7,8.4,4.2,11.9,7.3c2.3,2.1,4.3,4.4,6.2,6.8c1.8,2,2.9,4.4,5.6,5.2
	c5.5,1.5,11.4,1.8,17.1,2.2c5.8,0.3,11.7,0.4,17.6,0.3c11.7-0.2,23.5-0.8,35-3.1l0.2,1c-17.3,4-35.2,4.8-52.9,4.8
	c-6.4-0.2-13-0.1-19.2-2.1c-2.8-1-4.5-3.7-6.4-5.7c-3.6-4.4-7.8-8.1-12.9-10.5c-10-4.6-13.4-3.7-22.7,1.6
	c-7.9,4.4-16.7,7.7-25.6,9.3c-8.9,1.4-18.1,0.9-27,1.1c-5.9,0.1-12.3,0.5-18.1-0.3c-11.7-1.1-23.4-5.5-34.6-7.2
	c-5.7-0.9-10.5,0.8-15.8,1.9c-10.2,2.6-20.8,5.3-29.4,11.6c-0.1,0.1-0.5,0.4-0.2,0.2l0.8-6.2c5.8,12.7-3.1,24.8-13.8,31
	c-6.9,4.1-14,6.6-21.5,8.8c-7.3,2.3-15.6,2.9-22.9,3.1c-13.8,0.3-27.4-0.5-41,0.5l-0.4,0c0.1,0,2.1-0.2,2.9-0.8
	c0.7-0.4,1.1-0.7,1.5-1.1c-3.8,5-9.4,13.1-13.7,18.9c-0.7,0.9-1.5,1.9-2.5,2.8c-0.1,0.1-0.1,0.1-0.4,0.3c-0.2,0.2-0.5,0.4-0.8,0.5
	c0.1,0-1.9,1-2.9,1l-0.7,0.1h-0.1h-0.1h-0.2l-1,0.1c-5.7,0.3-11.4,0.3-17.1,0c-24-1.5-47.5-7.9-69-18.6l-1.7-0.9l-0.9-0.5l-1-0.6
	L738.2,445.5L738.2,445.5L738.2,445.5z"/>
<path class="st0" d="M771.7,484.1c5.8,3.9,12.3,6.3,19.4,7.4c15.3,2.3,33.5-1.2,48.4,5.9c4.1,1.9,7.9,4.3,11.2,7.2
	c6.4,5.5,10.8,12,16.6,17.6c4.8,4.7,10,9.3,16.7,10.1c11.5,1,23.7,0.7,34.7-2.3c5.6-1.7,13.8-4.4,13.9-11.1l0-1.9l1.3-1l32.7-24.9
	l0.7-0.5l0.7,0c11.9-0.8,23.7-0.6,35.4,1.9c13.4,2.8,22.9,9.9,23.5,24.5c0.4,5.7,0.8,11.3,4.5,15.8c3.5,4.4,8.7,7.4,13.7,9.9
	c5.2,2.6,10.6,4.6,16.1,6.4c5.5,1.8,11.1,3.2,16.8,4.4l-0.2,1c-11.5-2.2-22.8-5.3-33.4-10.2c-7.9-3.8-16.6-9.1-18.8-18.2
	c-1.6-5.6-1-11.6-3.3-16.8c-5.8-13.2-24-13.7-36.5-14.1c-5.7,0-11.5,0.2-17.1,0.8l1.4-0.6l-31.7,26.2l1.3-2.9
	c0.7,10.4-10.3,16.3-18.7,18.8c-12.1,3.6-24.4,4.3-36.8,3.8c-4.7-0.1-9.4-1.8-13.3-4.1c-7.4-4.4-13.1-10.6-18.8-16.6
	c-5.1-5.7-10.1-10.2-16.9-13c-6.7-2.7-13.8-3.2-21.2-3c-17.2,0.6-33.9,1.2-49.6-8.8L771.7,484.1L771.7,484.1L771.7,484.1z"/>
<path class="st0" d="M728.4,30.6c-0.6,2.8-4.7,19.2-5.3,22.1c-4,17.4-8.7,35-12.1,52.3c-3.8,19.2-7.2,39.2-7.5,58.4
	c0,9.3,0.8,19.3,1.8,29.3c3.9,35.8,10.5,71.7,16.7,107.2l0.1,0.4l0-0.2l0.2,0.9l0.9,3.8c8.4,38.4,16.3,76.6,20,116.1
	c0.5,5.8,0.3,12.3-0.3,18c-3.4,31-6.3,62.8-20.1,91.1c-0.2,0.1-0.6,0.2-1.3,0.1c-0.3,0-0.7,0-1.2-0.1c-0.2,0-0.5-0.1-0.8-0.1
	c-1.9-0.3-2.2,8.7-4.1,8.2c-0.7-0.2-11.6-9.8-20.4-18.8c-4.8-5-2.2-7.6-1.4-11.9c3.9-21,12.5-40.7,17.5-61.2c0.8-3.4,1.5-7,2-10.4
	c1.3-9.2-0.1-17.8-1.3-27.1c-2.8-19.8-7.1-39.8-11.4-59.4c-1.8-8-7.5-33.3-9.3-40.9c-0.4-1.4-0.7-3.2-0.9-4.7
	c-6.1-35.8-10.9-71.9-14.1-108.1c-0.9-10.7-1.7-21.3-1.7-32.2c0-11.2,1.1-21.9,2.4-32.5c3.2-25.9,8.5-51.6,13.3-77.1l1.3-7.4
	c0.4-2.4,0.6-3,0.8-4.8l6.8-5.7h7.6h8.4L728.4,30.6z"/>
<path class="st0" d="M703.4,94.7c39-0.3,77.7,0.2,116.6,2.7c30.1,2.3,76.6,5.3,101.2,24c5,4,10,11.2,7.9,18.2l0,0.2l-0.1,0.3
	l-1.2-5.9c-0.2-0.2,0,0,0,0c0,0.1,0.2,0.1,0.3,0.2c24,15.1,78.1,18.3,107.2,19.5c25.2,0.9,50.5,1.1,75.6-1.9
	c12.5-1.5,24.8-3.8,36.4-8.7c6-2.5,12.6-3.3,18.9-4.2c12.7-1.6,25.4-2.5,38.1-2.1c6.4,0.2,12.8,0.7,19,2.1l-0.2,1
	c-12.4-2.2-25.2-1.5-37.7-0.5c-10.9,1.1-21.9,2.4-32.5,5.4c-4.5,1.5-8.7,3.7-13.2,5.2c-3.1,1.1-6.2,2-9.3,2.8
	c-31.1,7.6-63.4,8.1-95.2,8.2c-32-0.4-64.5-1.4-95.6-10.2c-6.8-2.2-13.8-4.4-19.4-9l-1.2-5.9l-0.1,0.3l0,0.1
	c-1.2-5.8-10.2-9.8-15.9-12.2c-17.3-6.6-36.2-9.1-54.9-10.6c-28.7-2.1-57.5-2.3-86.2-2c-19.2,0.2-38.5,0.8-57.6,1.6L703.4,94.7
	L703.4,94.7L703.4,94.7z"/>
<path class="st0" d="M703.2,86.1c-29.6-1.7-59.8-2.4-89.4-0.7c-10.9,0.8-21.8,1.8-32.4,4.3c-4.1,1.2-8.4,1.3-12.5,1.6
	c-3.3,0.2-8.9,0.3-11.5,0.9c-6.6,2.9-13.6,7.5-7.7,14.9c0,0,0.1,0.1,0,0.1l0.5,7c-0.3,0.4-0.7,0.9-1.1,1.2
	c-19.6,17.4-64,18.7-89.4,18.6c-16.3-0.2-32.7-1.1-48.7-4.4c-6.9-1.5-13.8-3.5-20.2-6.6c-2.6-1.3-5.2-2.8-7.6-4.3l-0.7-0.4l-0.7-0.3
	c-11.6-4.4-24.4-6.1-36.8-6.4c-4.6,0-9.2,0.3-13.5,1.4l-0.3-1c4.5-1.4,9.2-1.9,13.8-2.1c9.3-0.3,18.6,0.5,27.8,2.2
	c4.1,0.8,8.3,1.7,12,3.5c16.3,9.6,35.7,10.9,54.2,11.6c18.2,0.2,36.7-0.5,54.6-3c15.2-2.3,30.8-5.3,43.9-13.5c1.4-1,2.8-2,3.8-3.2
	l-0.1,0.1c0,0,0.5,7,0.5,7c-4.6-4.8-7.2-12.1-5-18.6c2.3-7.2,8.8-11.7,15.1-14.8c1.3-0.7,2.9-1.1,4.2-1.3c6.5-1.2,13.2-1,19.6-2.2
	c26.8-7.7,54.9-8.6,82.5-9.8c15.3-0.5,30.4-0.6,45.7-0.4L703.2,86.1L703.2,86.1L703.2,86.1z"/>
<path class="st0" d="M701.8,216.3c18.3-5.2,35.2-0.4,52.3,4.8c7.8,2.2,15.2,3.8,22.5,3.1c6.7-0.5,13.2-2.8,19-6.1
	c5.2-3.4,9.6-9.6,16.7-10.3c23.8-2.2,49.9,7.3,71.2,16.8c4.1,1.9,8.2,3.9,12.3,6l0.5,0.8l23.4,38.7l-1-0.9c11.8,6.2,30,14,43.2,9.5
	c3.4-1.3,6.6-3.4,9.2-6c5.5-5.4,8.9-13,14.8-18.3c3.1-2.8,6.7-4.9,10.6-6.3c0.2,0,61.2,2.4,61.4,2.4l0,1l-61.3-1.5l0.4-0.1
	c-3.5,1.5-6.8,3.5-9.5,6.2c-5.7,5.5-8.6,13-14.2,18.8c-2.9,3-6.3,5.4-10.2,7.1c-14.3,5.6-33.9-1.9-47.1-8.2l-0.6-0.3l-0.4-0.6
	L890.5,235l1.3,1.2c-22.1-10.3-50.9-20.9-75.4-19.3l-2.8,0.3c-2.1,0.4-3.4,1.6-5.4,3.4c-1.8,1.6-4,3.9-6.4,5.5
	c-7.2,4.7-15.5,8-24.1,9c-17,2.2-34.1-5.9-50.2-7.7c-7.5-0.9-14.9-0.2-22,1.9L701.8,216.3L701.8,216.3L701.8,216.3z"/>
<path class="st0" d="M702.6,283.6c-14.2-4.5-30.1-4.5-44.8-0.5c-6.6,1.8-11.9,4.9-18.8,7c-8.8,2.9-18.8,1.9-26.5-3.1l-0.7-0.4
	l-0.2-0.1c-3.4-2-3-6.1-3.1-9.2c0-0.1,0-0.1,0,0.1c0.1,0.3,0.2,0.4,0.3,0.7c0.2,0.4,0.8,1.2,1.9,1.8c-4-2-8.2-3.3-12.7-3.8
	c-14.3-1.5-29.1,3.7-41.9,10.1c-6.6,3.4-13.2,7.4-19.1,11.8c1.3-1.3-31.6,30.4-31.3,30.1l-0.3,0.3c-12.1,6.3-29.5,13.4-43.1,9.1
	c-4.8-1.8-9-5.1-12.2-9c-3.2-3.9-5.4-8.2-7.9-12.1c-3.7-6.1-9.4-10.4-16-12.7c-5.5-2.1-11.2-4-17.1-4.2c-1.1,0-2.4,0-3.4,0.3l-0.3-1
	c2.5-0.6,4.9-0.5,7.4-0.3c6,0.7,11.8,2.6,17.5,4.8c5.8,2.3,10.7,6.6,14.1,11.6c2.9,4,5.2,8.2,8.2,11.6c2.9,3.4,6.7,6.1,10.9,7.5
	c8.7,2.4,18.3-0.6,26.6-3.9c4.3-1.8,8.6-3.9,12.5-6.2l-0.5,0.4c0.1-0.1,30.4-31.6,30.5-31.7c18.3-14.3,42.4-27.6,66.4-26.1
	c5.6,0.4,11.2,1.9,16.3,4.3c2.8,1.5,3.2,3.7,3.4,6.2c0.1,1.4,0.1,2.2,0.2,3.1c0,0,0,0-0.2-0.5c-0.2-0.5-0.4-0.8-0.9-1.3
	c-0.3-0.4-1.1-0.9-0.8-0.7c10.2,6.3,18.7,2.2,28.7-2.5c18.8-8.6,40.8-10,60.9-4.6L702.6,283.6L702.6,283.6L702.6,283.6z"/>
<path class="st0" d="M716,311.4c11.5,6.8,19,18.1,27.7,27.5c4,4.4,8,8.6,12.4,11.9c3.6,2.7,8.6,3.3,13.3,3
	c11.5-0.8,26.7-8,31.8-18.7c4.3-11.4,13.9-14.8,23.7-7.3c3.1,2.4,5.6,5.1,8,8.2l0.2,0.5l18.8,41.2l-3.5-2.9
	c7.4,1.8,15.2,3.2,22.7,3.8c4.7,0.3,9.7,0.6,13.3-1.1c0,0,0,0,0,0l0.2-0.3c0.5-0.8,1.2-1.6,1.7-2.2c3.8-3.9,8.4-6.9,12.7-9.8
	c10.3-6.6,21.1-12.1,32.3-16.9c15-6,31.8-12.1,48.3-9.5c30.7,6.9,60.5,22,90.6,30.8c2.1,0.6,4.1,1,6.2,1.2c0.7,0,1.1,0,2,0l3-0.2
	c25.3-0.9,52-5.3,71.8-22.2c7.8-6.3,17.5-10.6,27.5-11.9c8-1,16.2-0.3,23.8,2.4l-0.4,0.9c-6.5-2.1-13.6-2.7-20.3-2.1
	c-9.3,0.9-18.2,4.4-25.7,9.8c-0.3,0.1-3,2.4-3.4,2.7l-4.7,3.8c-9.5,7.5-21,12.3-32.6,15.5c-12.6,3.5-25.7,4.7-38.6,5.6
	c-0.8,0.1-2.3,0.2-3.3,0c-10.2-1.4-19.6-5.1-29.2-8.2c-17.8-6.1-38.5-13.8-56.4-18.7c-3.8-1-7.6-2-11.3-2.6
	c-7.2-1.1-14.9,0.3-22.1,2.2c-14.9,4.1-29.2,10.9-42.6,18.7c-6.5,3.9-13.3,8.1-18.8,13c-1,0.9-2,1.8-2.6,2.8c-4.6,6.9-15.1,6.1-22,6
	c-9.1-0.5-17.9-2-26.8-4c0,0-1.1-2.3-1.1-2.4l-19.6-40.9l0.6,1c-1.5-1.9-3.4-3.9-5.4-5.3c-1.5-1-2.4-1.6-3.6-1.6
	c0,0-0.2,0.1-0.7,0.7c-0.4,0.6-0.9,1.5-1.3,2.6l-0.5,1.2c-7.9,17.8-33.8,29.7-52.6,26c-3.7-0.7-7.6-2.2-10.9-4.7
	c-10.5-7.8-18.3-17.9-26.8-27.1c-3.7-3.9-7.7-8.1-12.1-10.5L716,311.4L716,311.4L716,311.4z"/>
<path class="st0" d="M686.3,166.8c-4.5,2.4-8.5,6.6-12.1,10.5c-4,4.4-8,9.1-12.3,13.7c-6.8,7-15.1,16.3-25.4,18
	c-2.6,0.5-5.6,0.7-8.3,0.7l-2.7-0.2c-0.7,0-2-0.2-2.6-0.3c-12.8-2-25.1-8.1-33.7-17.9c-0.6-0.9-2-2.4-2.5-3.3
	c-0.3-0.6-1.1-1.8-1.5-2.4c-0.5-1.1-1.3-2.6-1.8-3.8c-0.5-1.3-1.3-2.8-2-3.2c-1-0.1-2.4,0.8-3.6,1.6c-1.9,1.4-3.8,3.4-5.4,5.3l0.6-1
	l-19.6,40.9l-1.1,2.3c-8.9,2-17.7,3.5-26.8,4c-6.7,0.1-15.6,0.9-21-4.7c-0.9-1.1-1.4-2.2-2.5-3.2c-5.8-5.4-12.9-9.8-19.8-13.9
	c-17.3-9.9-44.6-23.5-64.7-20.9c-22.3,4.5-46,14.1-67.7,21.3c-9.6,3.1-19,6.9-29.2,8.2c-2.7,0.2-3.9-0.1-6.3-0.3c-4-0.3-8-0.6-12-1
	c-21.9-2.3-44.3-8.6-61-23.6l-2.3-1.8c-0.4-0.3-0.7-0.6-1.2-0.9l-1.2-0.8c-9.2-6.4-20.6-9.6-31.9-9.1c-4.4,0.3-8.9,0.9-13,2.3
	l-0.4-0.9c4.8-1.7,9.8-2.5,14.8-2.8c11.7-0.6,23.3,3,32.9,9.5c5.8,4.4,11.7,9.4,18.3,12.5c19.1,9.8,41,12,62.1,12.6
	c9.8-1.4,19.1-5.5,28.5-8.8l22.3-8.4c11.2-4.2,22.5-8.4,34-11.8c7.8-2.4,16.5-4.5,24.7-3.4c23.4,2.6,48,14.5,67.8,26.8
	c3.9,2.5,7.9,5.2,11.4,8.5c1.2,1.1,2.3,2.3,3.2,3.7c3.6,1.7,8.6,1.4,13.3,1.1c7.5-0.6,15.3-2.1,22.7-3.8l-3.5,2.9l18.8-41.2l0.2-0.5
	l0.3-0.5c1.1-1.5,2.2-2.8,3.5-4.1c6.4-6.9,16.9-11.6,24.2-2.7c2.4,2.9,3,5.8,4.8,8.6c6.7,10.3,23.2,17.5,35.3,16.4
	c3-0.3,6.4-1.2,8.5-3c4.3-3.3,8.4-7.5,12.4-11.9c8.7-9.4,16.1-20.7,27.7-27.5L686.3,166.8L686.3,166.8L686.3,166.8z"/>
<path class="st0" d="M728.1,440.7c-39.6-1.7-79.6-2.4-119.3-1c-19.5,0.8-39.5,2-58.5,5.8c-12.9,3-35,8-42.1,19.4
	c-0.6,1.1-0.9,2.1-0.9,3.2l-0.1-0.3l-1.1,5.6c-2.8,2.7-6,4.3-9.3,5.9c-8.7,4-17.9,6.6-27.1,8.6c-24.2,5.1-48.7,6.6-73.2,7.1
	c-18.4,0.3-37-0.2-55.1-3.9c-12.2-2.7-24.8-6.9-33.7-16.2c-2.2-2.3-4.1-4.9-5.8-7.5c-1.7-2.5-3.2-5.2-5-6
	c-5.2-2.6-10.7-7.1-15.4-10.3c-13.2-9.1-32.1-22.9-48.7-19.9l-0.2-1c20.4-4.6,45.5,15.3,62.2,25.4c1.3,0.8,2.5,1.5,3.8,2
	c3.4,1.6,5,4.6,7,7.4c4.8,7.4,11.8,12.6,20,15.8c11,4.4,22.9,6,34.7,6.8c11.9,0.8,24,0.6,36,0c27.7-1.5,80-5.6,101.9-21.6l-1.1,5.6
	c-0.4-1.4-0.6-2.3-0.6-3.6c0.5-21.3,34.5-30.7,51.1-34.9c39.8-8.6,80.5-9.3,120.9-10.6c20.1-0.4,40.2-0.5,60.4-0.2L728.1,440.7
	L728.1,440.7L728.1,440.7z"/>
<path class="st0" d="M715,472.6c6.2,1.3,12.6,2.3,18.8,3.1c12,1.3,24.5,2.3,36-0.8c2.9-0.9,4.7-1.7,6.3-3.2c0.2-0.2,0.4-0.3,0.7-0.9
	c6.1-9.5,2.6-21.4,5.5-32.2c2.8-11.1,12.8-15.1,23.3-14.7c9.2-0.2,19.3,3.1,24.2,11.4c2.1,3.5,3.2,7.5,3.3,11.6l-1.5,3.8
	c0.1-0.1,0,0-0.1,0c-0.3,0.4-0.7,0.8-1,1.2c-0.3,0.5-0.3,0.7-0.4,0.6c0-0.1-0.2-0.4-0.2-0.2c0,0,0,0.1,0.1,0.1
	c1.6,1.3,3.5,1.8,6,2.3c6.1,1.2,12.5,1.1,18.8,1c12.9-0.4,26-2.2,38.3-6.2c8.2-2.6,16.5-6,23.6-10.9l0.6,0.8
	c-14,11.2-31.3,17.5-48.7,21.2l-6.6,1.2l-6.7,1c-4.5,0.6-9,1-13.6,1c-5.1,0-9.7,0-14.8-2c-8.7-3.5-8.9-12.6-3.2-18.8l-1.5,3.8
	c-0.8-4.4-3.6-7.9-8.3-8.9c-4.3-1.1-11.4-0.5-14.8,1.3c-1.3,1-1.2,1.3-1.6,3c-0.3,1.9-0.2,4.9,0,8.2c0.5,7.4,0.8,15.6-1.6,23.3
	c-1.1,3.5-2.3,6.5-4.5,9.6c-12,16.3-41,16.6-59.2,16.5c-7.3-0.2-14.4-0.6-21.6-1.5L715,472.6L715,472.6L715,472.6z"/>
<path class="st0" d="M817.3,215.6c0.1,4.9-1.2,8.9-2,13.3c-0.4,2.4-1,4.9-0.1,6.7c0.5,0.8,2.6,0.6,3.5,0.6l3.2,0.2
	c6.1,0.4,12.9,0.9,18.9,1c3.5,0,7,0.1,10.5-0.5c5.3-1.2,10.4,0.1,15.3,1.6c3.7,1.2,7.2,2.7,10.6,4.6c0.3,0.2,0.5,0.2,0.9,0.3
	c3.8,0.9,8.2,1.2,12.2,1.5c12.3,0.5,25.2,0.5,37-3.7c4-1.4,7-4.3,10.3-6.7c7-5,14.6-9.2,22.8-11.7c8.2-2.6,17-3.1,25.4-1.4l-0.2,1
	c-8.3-1.5-16.8-0.7-24.7,2.1c-9.9,3.4-18.8,9.3-26.8,16c-10.9,8.2-30.8,8.5-44,8.4c-4.9-0.3-9.8-0.1-14.6-1.7
	c-5.1-2.6-10.6-4.6-16.2-5.5c-2.5-0.4-4.7-0.4-6.9,0.2c-1.7,0.4-3.5,0.6-5.1,0.7c-8.5,0.6-17.2,0-25.7-0.2c-2-0.1-4.8,0.1-6.8-0.3
	c-11.8-3-3.9-18.3-4.5-26.1L817.3,215.6L817.3,215.6L817.3,215.6z"/>
<path class="st0" d="M747.6,101.9c0.2-6.3-2.7-12.3-1.9-19c0.4-4.4,4-7.5,8.5-7.3c0.9,0,3.7-0.1,4.7-0.1c8.5-0.2,17.2-0.8,25.7-0.2
	c1.7,0.1,3.5,0.3,5.1,0.7c2.2,0.6,4.4,0.6,6.9,0.2c4.9-0.8,9.8-2.5,14.4-4.6c3-1.8,6.7-1.9,10-2.3c10.7-0.8,21.5-0.5,32.1,1.2
	c4.2,0.7,8.5,1.7,12.6,3.4c4,1.5,7.3,4.7,10.7,7.3c6.7,5.1,13.9,9.4,21.8,12.1c7.9,2.8,16.4,3.5,24.7,2.1l0.2,1
	c-17.1,3.8-34.5-3.2-48.2-13.1c-3.4-2.4-6.3-5.3-10.3-6.7c-11.7-4.2-24.6-4.2-37-3.7c-4.2,0.3-9,0.5-12.9,1.7
	c-3.4,1.9-7,3.4-10.8,4.7c-4.9,1.6-10,2.8-15.3,1.6c-1.4-0.3-2.9-0.4-4.3-0.5c-9.8-0.3-20,0.8-29.9,1.2c-0.7,0-1.6,0.2-1.9,0.6
	c-0.8,1.8-0.3,4.3,0.1,6.7c0.4,2,0.9,4,1.3,6.2c0.4,2.2,0.8,4.4,0.8,7.1L747.6,101.9L747.6,101.9L747.6,101.9z"/>
<path class="st0" d="M925.3,351.9c-0.7-9-6.2-17.8-4.5-27.3c0.8-5.2,4.2-9.4,8.2-12.6c6.6-5.8,14.2-7.3,22.7-7
	c6.4-0.1,12.9-0.8,18.9,2.4c4,2,6.8,6.2,7.5,10.5c0.7,1.2,2.3,1.8,3.8,2.5c8.3,3,17.4,3.9,26.3,4.5c6,0.3,12,0.4,17.9-0.3
	c2-0.3,4.3-0.5,5.9-1.7c0.8-3,1.6-6.8,2.8-10c2.2-5.9,5.9-11.4,10.9-15.2c4.9-3.9,10.9-6.1,16.8-7.8c11.8-3.3,23.9-5.2,36-6.5
	c6.1-0.6,12.1-1.1,18.3-1.1c6.2,0,12,2.8,17.6,5.1c5.6,2.3,11.5,3.4,17.6,3.5v1c-6.1,0-12.3-1-18-3.3c-5.6-2.2-11.1-4.8-17.2-4.7
	c-6,0.1-12.1,0.6-18.1,1.4c-14.8,2-39.9,5.3-51.5,14.6c-4.6,3.6-7.9,8.7-9.9,14.2c-1.2,3.2-1.8,6.6-2.7,10
	c-1.9,5.4-21.7,4.5-26.8,4.4c-8.4-0.5-26.7-1.5-32.6-7.5c-0.6-0.6-1-1.5-1.2-2.4c-1-6.4-7.4-9.2-13.4-9.4c-2.9-0.2-6,0.2-9,0.2
	c-5.9,0-11.4,0.4-16.3,3.7c-8,5.4-11.6,10.5-9.3,20.5c1.3,6.1,4,11.5,4.5,18.1L925.3,351.9L925.3,351.9L925.3,351.9z"/>
<path class="st0" d="M553,223c0.7,9,6.2,17.8,4.5,27.3c-0.8,5.2-4.2,9.4-8.2,12.6c-6.6,5.8-14.2,7.3-22.7,7
	c-6.4,0.1-12.9,0.8-18.9-2.4c-4-2-6.8-6.2-7.5-10.5c-0.7-1.2-2.3-1.8-3.8-2.5c-8.3-3-17.4-3.9-26.3-4.5c-6-0.3-12-0.4-17.9,0.3
	c-2,0.3-4.3,0.5-5.9,1.7c-0.8,3-1.6,6.8-2.9,10c-2.2,5.9-5.9,11.4-10.9,15.2c-4.9,3.9-10.9,6.1-16.9,7.8c-11.8,3.3-23.9,5.2-36,6.5
	c-6.1,0.6-12.1,1.1-18.3,1.1c-6.2,0-12-2.8-17.6-5.1c-5.6-2.3-11.5-3.4-17.6-3.5v-1c6.1,0,12.3,1,18,3.3c5.6,2.2,11.1,4.8,17.2,4.7
	c6-0.1,12.1-0.6,18.1-1.4c14.8-2,39.9-5.3,51.5-14.6c4.6-3.6,7.9-8.7,9.9-14.2c1.2-3.2,1.9-6.6,2.7-10c1.9-5.4,21.7-4.5,26.8-4.4
	c8.4,0.5,26.6,1.5,32.6,7.5c0.6,0.6,1,1.5,1.2,2.4c1,6.4,7.4,9.2,13.4,9.4c2.9,0.2,6-0.2,9-0.2c5.9,0,11.4-0.4,16.3-3.7
	c8-5.4,11.6-10.5,9.3-20.5c-1.3-6.1-4-11.5-4.5-18.1L553,223L553,223L553,223z"/>
<path class="st0" d="M678.9,425.2c0-8.1-2.1-24,6.1-29c2-1.2,4.2-0.8,6-2.5c3.3-2.9,5.7-9,3.1-13c-0.5-0.8-1.5-1.2-2.2-1.6
	c-8.9-5.5-18.7-8.9-29.2-8.8c-4.4,0.1-9.3-0.1-13.3,1.9c-0.4,0.3-0.9,0.7-1.2,1c-2,2.6-5.5,2.7-8.5,2.8l0-1c2.1-0.2,4.7-0.3,6.4-1.6
	c0.8-0.7,1.6-1.8,2.6-2.5c4.3-2.5,9.3-2.4,14.1-2.8c10.8-0.6,21.7,2.5,31,7.8c5.9,2.4,6.5,9.2,4.7,14.4c-1.5,4.5-5,8.8-10,9.7
	c-3.8,1.3-3.8,7.4-4,11.1c-0.1,4.5,0.4,9,0.7,13.8L678.9,425.2L678.9,425.2L678.9,425.2z"/>
<path class="st0" d="M438.9,188.2c-1.8-6-2.7-12.2-3.4-18.2c-0.5-3.4-0.6-7.2-2-10.2c-0.1-0.2-0.2-0.2-0.1-0.2c0,0,0.1,0,0,0
	c-12.5,0.6-28.6-0.1-41.2-0.2l0.7-0.1c-5.5,2.3-11,4.6-16.5,6.7c-5.5,2.2-11.1,4.3-16.8,6.2c-2.6,0.8-5.2,1.7-7.9,2
	c-7.9,0.8-14.2-17-16.5-23.1l0.9,0.9L282,132.1l0.3-0.9l54.4,18l0.6,0.2l0.2,0.7c1.9,5.1,7.6,20,13.1,21c2.6-0.2,5.1-1.1,7.6-1.9
	c11.2-3.8,22.1-8.4,33-13l0.3-0.1h0.4l18.2,0.1c7.2,0,14.4,0.1,21.5-0.2c1-0.1,2.2-0.3,3.2,0.3c1.6,0.9,2.2,2.6,2.6,4
	c0.9,3.1,1.1,6.1,1.6,9.3c0.8,6,1.7,11.9,3.5,17.5L438.9,188.2L438.9,188.2L438.9,188.2z"/>
<path class="st0" d="M541.1,434.9c0-7.8-0.7-16.3-3.4-23.6c-0.3-0.8-0.7-1.5-0.9-1.7c-0.1-0.1,0,0,0-0.1c0,0,0.1,0,0.1,0.1
	c0,0,0.1,0,0.1,0l-0.1,0c-2-0.8-4.3-1-6.7-1.4c-8.2-1.1-16.6-1.4-24.9-1.1c-4.6,0.2-9.3,0.5-13.7,1.4c-1.2,0.3-2.6,0.8-3.7,1.5
	c-3.9,2.5-5.3,7.5-5.3,12c0,1.9,0.5,4.8,0.6,6.6c-26-10.8-53.5-19.4-81.6-22.5c-6.6-0.8-13.6-0.8-20.3-1.1
	c-13.7-0.8-27.3-2.8-40.5-6.3c-6.6-1.8-13.1-3.9-19.4-6.8l0.4-0.9c18.8,7.8,39.3,10.9,59.5,11.7c4.8,0,10.4,0.2,15.3,0.3
	c29.1,1.9,57.5,9.7,84.7,20c0,0-3,2.4-3,2.4c-1.1-8.1,1.8-18,10.3-20.9c5.2-1.8,10.9-2.2,16.3-2.7c8.6-0.7,17.1-0.9,25.8-0.5
	c2.9,0.2,6.1,0.3,9.1,1.4c2.2,0.9,4,3.3,5,5.1c4.3,8.2,6.4,16.6,9.4,25.3L541.1,434.9L541.1,434.9L541.1,434.9z"/>
<path class="st0" d="M812.8,107.5c-0.7,8.9-4.9,15.9-6.8,23.5c-0.2,1-0.1,1.5-0.2,1.8c0.2,0.4,0.8,0.5,1.2,0.7l0.7,0.2l0.2,0.1
	l0.3,0.1c7.2,1.7,13.8,5.5,19.6,10c2.6,2,5.1,4.2,7.5,6.7l0,1.3l-0.5,13.2l-1.4-2.5c8.8,5.3,17.8,10.5,27,15.1
	c3.7,1.7,7.4,3.7,11.2,4.4c0.2,0.1,0.5-0.1,0,0.1c-0.1,0-0.3,0.1-0.5,0.3c3.6-4.2,4.1-10.2,7.3-14.9c0.4-0.5,0.8-1,1.5-1.3
	c0.4-0.2,0.6-0.3,1-0.4c6.3-1.6,12.6-1.8,19-2.2c10.5-0.5,21.1-0.7,31.6,0.5c17.1,2.8,34.3,5.3,51.5,7.7l1.3,0.2l0.3,1.1
	c0,0,2.8,11.3,2.8,11.4l-1.1-0.8c12,0.4,24,0.9,36,1.5c18,0.9,36,1.6,54,3.2l2.2,0.3c1.5,0.1,3.1,0.4,4.5,0.8
	c15.4,2.8,31.2,3.2,46.9,4.2l-0.1,1c-12-0.6-24-1.2-36-2.3c-3-0.3-6-0.6-9-1.1c-2.9-0.6-5.9-1.2-8.8-1.4
	c-29.9-2.2-59.9-2.9-89.9-3.9l-0.8,0c0,0-0.2-0.8-0.3-0.8l-4.2-10.9c0,0,1.6,1.3,1.5,1.3c-16.3-2.1-32.7-4.2-49-6.7
	c-11-1.5-22.2-1-33.2-0.4c-5.7,0.4-13,1-17.8,2.2c-3,4.9-3.6,11.5-7.9,15.9c-2.1,1.6-4.6,0.8-6.6,0.2c-13.4-4.8-25.3-12.1-37.6-19.1
	l-1.4-0.8l0-1.7l-0.5-13.2l1,2.4c-0.8-0.7-1.9-1.6-2.9-2.3c-6.1-4.5-13.1-8.3-20.7-9.5c-3.8-0.6-7.7-2.8-9-6.6
	c-1.8-5.4,0.3-10.4,1.5-14.8c1.5-5.1,2.9-9.8,2.9-14.1L812.8,107.5L812.8,107.5L812.8,107.5z"/>
<path class="st0" d="M457.8,130.4c-4.5-11.3-9.9-28.9,2-37.7c4.5-3.3,9.8-3,14.8-4.5c8.9-2.7,17.1-7.9,23.8-14.4
	c1.6-1.7,3.7-3.8,4.2-6.1c0,0,0,0,0,0.1c0.1,0,0.1,0.1,0.1,0.2c-2.6-1.6-6.4-3.1-9.5-4.5c-13.4-5.3-50-18.3-61.8-8.3
	c-0.8,0.6-1.5,1.9-2.1,2.7c-7.9,11.3-17.8,11.2-30.4,10.9c-9.8-0.3-19.5-0.8-29.3-0.9v-1c11-0.2,22,0.3,33,0.2
	c5.9-0.2,12.1-0.3,17.3-3.4c2.5-1.4,4.6-3.6,6.4-5.9c1.1-1.4,2.1-3.3,3.4-4.5c13.2-12.4,56.8,2.6,72,9.1c1.3,0.6,2.6,1.1,3.9,2
	c1.8,1.4,1.8,3.9,0.9,5.8c-2.3,4.9-6.3,8.4-10.3,11.8c-3.9,3.2-8.2,6-12.8,8.2c-3.5,1.7-7.1,3.1-10.9,3.9c-3.4,0.7-6.7,1-9.3,3
	c-5.3,3.9-4.9,11.3-3.7,17.2c0.9,4.5,2.5,8.9,4.4,13.2L457.8,130.4L457.8,130.4L457.8,130.4z"/>
<path class="st0" d="M772.9,229.5c-0.1,8-0.8,15.9-1.7,23.8c-0.7,7.2-2,15-0.8,21.9c0.1,0.6,0.3,1.1,0.4,1.7c0,0.1,0,0.1,0,0.1
	c0,0.1,0,0.1,0.1,0.1c0.2,0.3,0.3,0.4,0.6,0.7c8,5.2,27.6,4.5,37.5,4.2l-1.6,0.9c0,0,11.8-12.6,11.8-12.6l0.5-0.5l0.7,0.1
	c-0.3,0,38.6,5,37.7,4.9l19.3-4.2l0.2,1l-19.3,4.2c0,0.1-38.1-3.5-38.2-3.5l1.1-0.5l-9.9,14.1l-0.5,0.7l-1.2,0.2
	c-10.9,1.2-38.7,4.7-45.6-5.4c-0.8-1.3-1.3-2.8-1.7-4.3c-2.1-8.4-1.3-16.3-1.1-24.6c0.3-7.6,0.4-15.2-0.1-22.8L772.9,229.5
	L772.9,229.5L772.9,229.5z"/>
<path class="st0" d="M271.7,85.6c6.4,3.8,12.6,7.8,18.3,12.5c4,3.6,9.6,8.2,8.7,14.5c-0.4,2.2-1.5,4-3.3,5.4l0.4-0.5
	c-2.2,5.4-4.1,11.4-4.2,17.3c0.5,5.9,3.1,11.6,5.4,17.1c0.8,2.1,2,4.2,2.4,6.5c1.9,1.7,6.2,2.7,9.1,3.5c4.7,1.1,10,2.1,14.7,2.9
	c14.5,1.9,35.2-23.2,46.3-32.1c3.8-3,7.5-5.8,11.6-8.4c1.2-0.8,2.5-1.5,3.8-2.1c0.2-0.1,0.4-0.2,0.7-0.3l-1.4,1.4l18.8-54.8l0.5-1.5
	l1.5-0.3c11.6-2.1,23-4.1,34.7-5.7c4.7-0.5,9.5-1.3,14.4-1.1c0.9,0,1.7,0.3,2.5,0.6c7.3,3.6,6.9,14.7,6.5,21.6l-0.3-1.8
	c6.8,13.8,22.9,41.9,39.4,43.3l-0.5,8.7c-20.8-1.8-37.3-32-45.2-49.1l-0.4-0.9c0.4-2.9,0.5-6,0.3-8.9c-0.1-2.1-0.6-4.8-1.8-6.3
	c-0.4-0.4-0.6-0.5-1-0.6l-0.2,0l-0.4,0c-1.3-0.1-2.6,0-3.9,0c-8.6,0.5-17.2,1.8-25.8,3c-5.8,0.8-11.5,1.7-17.2,2.6l2-1.7L388.8,125
	l-1.4,1.4c-5.3,2.6-10.1,6.4-14.8,10c-12.3,10.1-29.8,30.9-46,32.7c-3,0.3-6.8-0.8-9.8-1.3c-4.9-1.2-19.9-3.2-21.2-8.4
	c-0.4-2.1-1.3-4-2.1-6c-2.6-6.7-5.8-13.6-5-21.1c0.9-5.7,2.7-11.1,5.2-16.3c1.3-0.8,2.4-2.4,2.7-3.9c1.4-7.2-10.9-15.5-16.1-19.6
	c-3-2.2-6-4.2-9.1-6.2L271.7,85.6L271.7,85.6L271.7,85.6z"/>
<polygon class="st0" points="382.9,193.1 340,181.2 381.6,197.8 "/>
<polygon class="st0" points="566.3,182.2 522,186.3 566.8,187 "/>
<polygon class="st0" points="642.1,68.9 606.5,42.3 639.2,72.8 "/>
<polygon class="st0" points="486.9,207.1 480.5,163.1 482.1,207.8 "/>
<polygon class="st0" points="450.9,189.3 412.1,211.1 453.3,193.6 "/>
<polygon class="st0" points="396.3,191.2 389.9,147.2 391.5,191.9 "/>
<polygon class="st0" points="528.9,119.7 493.2,93.1 526,123.6 "/>
<polygon class="st0" points="668.9,77.1 633.2,50.4 666,80.9 "/>
<polygon class="st0" points="696.7,40.3 657.1,60.6 698.9,44.6 "/>
<polygon class="st0" points="680.1,128.1 635.8,132.3 680.6,133 "/>
<polygon class="st0" points="677.6,139.1 633.2,143.3 678,144 "/>
<polygon class="st0" points="559.6,195.4 515.3,199.6 560.1,200.2 "/>
<polygon class="st0" points="552.9,236.2 508.6,240.4 553.4,241 "/>
<polygon class="st0" points="314.6,214.9 280.8,190 313.1,217 "/>
<polygon class="st0" points="337.6,209.6 304.4,183.9 336,211.7 "/>
<polygon class="st0" points="291.2,213.4 258.1,187.6 289.6,215.5 "/>
<polygon class="st0" points="276.9,209.4 238.2,225.6 278,211.8 "/>
<polygon class="st0" points="303.4,213.7 271.5,241 305.1,215.7 "/>
<polygon class="st0" points="326.8,282.8 311.7,295.7 327.6,283.7 "/>
<polygon class="st0" points="393,402.9 377.8,415.8 393.8,403.9 "/>
<polygon class="st0" points="402,403.7 384.6,418.5 402.9,404.8 "/>
<polygon class="st0" points="453.3,498.8 431.3,504.4 453.7,500.2 "/>
<polygon class="st0" points="479.5,496.5 494.8,513.3 480.6,495.5 "/>
<polygon class="st0" points="471.9,508.2 487.2,525 472.9,507.2 "/>
<polygon class="st0" points="456.8,500 459.8,522.6 458.2,499.8 "/>
<polygon class="st0" points="414.4,492.5 404.8,513.2 415.7,493.1 "/>
<polygon class="st0" points="407,493.2 397.5,513.8 408.4,493.8 "/>
<polygon class="st0" points="373.8,491.9 355.5,505.6 374.6,493.1 "/>
<polygon class="st0" points="363,489.2 344.8,502.8 363.9,490.3 "/>
<polygon class="st0" points="353.9,488 332.5,495.8 354.4,489.4 "/>
<polygon class="st0" points="294.6,455.8 273.2,463.6 295.1,457.1 "/>
<polygon class="st0" points="284.2,449.6 262.9,457.4 284.7,450.9 "/>
<polygon class="st0" points="299.6,460.4 293.9,438.4 298.2,460.8 "/>
<polygon class="st0" points="290.9,456.3 285.2,434.3 289.5,456.7 "/>
<polygon class="st0" points="470.7,514 448.6,519.7 471,515.4 "/>
<polygon class="st0" points="450.2,508.4 428.2,514 450.6,509.8 "/>
<polygon class="st0" points="417.6,407.2 397.4,424.5 418.7,408.5 "/>
<polygon class="st0" points="436.4,411.1 416.2,428.4 437.5,412.4 "/>
<polygon class="st0" points="322,390.8 301.7,408.1 323,392.1 "/>
<polygon class="st0" points="338.6,396.7 321.6,411.3 339.5,397.8 "/>
<polygon class="st0" points="482.8,410.7 462,402.4 482.2,412 "/>
<polygon class="st0" points="534.1,437.4 513.3,429.2 533.5,438.7 "/>
<polygon class="st0" points="491.8,404.8 471,396.5 491.3,406.1 "/>
<polygon class="st0" points="526.7,302.1 505.9,293.9 526.1,303.4 "/>
<polygon class="st0" points="534.1,295.2 513.3,286.9 533.5,296.5 "/>
<polygon class="st0" points="461.5,246.8 440.8,238.6 461,248.1 "/>
<polygon class="st0" points="477.1,246.8 456.3,238.6 476.5,248.1 "/>
<polygon class="st0" points="502.1,404.5 488.7,386.6 501,405.4 "/>
<polygon class="st0" points="248,317.6 229.6,325.1 248.5,318.7 "/>
<polygon class="st0" points="288.8,226.4 268.9,227.2 288.8,227.7 "/>
<polygon class="st0" points="323,198.4 303.1,199.2 323,199.7 "/>
<polygon class="st0" points="364.5,189.5 344.6,190.2 364.6,190.8 "/>
<polygon class="st0" points="332.8,112.2 318.7,98.2 332,113.1 "/>
<polygon class="st0" points="352.9,109.9 338.8,95.9 352,110.8 "/>
<polygon class="st0" points="364.5,111.3 350.4,97.2 363.6,112.2 "/>
<polygon class="st0" points="426.5,127.6 412.4,113.5 425.6,128.5 "/>
<polygon class="st0" points="415.5,127.6 401.4,113.5 414.6,128.5 "/>
<polygon class="st0" points="419.5,127.7 404.4,140.7 420.3,128.6 "/>
<polygon class="st0" points="369.6,132.9 349.7,132.9 369.6,134.1 "/>
<polygon class="st0" points="362.9,140.9 343,140.9 362.9,142.2 "/>
<polygon class="st0" points="368.3,137.4 368.3,157.3 369.6,137.4 "/>
<polygon class="st0" points="272.5,85.9 253.4,91.4 272.9,87.1 "/>
<polygon class="st0" points="285,94.5 256.4,102.7 285.6,96.3 "/>
<polygon class="st0" points="290.7,98.6 262.1,106.8 291.2,100.4 "/>
<polygon class="st0" points="477.1,203.5 448.5,211.8 477.6,205.3 "/>
<polygon class="st0" points="369.9,67.1 352,77.4 370.6,68.2 "/>
<polygon class="st0" points="664.3,141.7 646.3,152 664.9,142.9 "/>
<polygon class="st0" points="543.8,198.4 525.8,208.6 544.4,199.5 "/>
<polygon class="st0" points="616.4,286.6 598.5,296.9 617.1,287.7 "/>
<polygon class="st0" points="622.2,288.7 604.2,299 622.8,289.9 "/>
<polygon class="st0" points="595.7,381.5 577.8,391.7 596.4,382.6 "/>
<polygon class="st0" points="492.5,331.2 474.3,321.3 491.9,332.3 "/>
<polygon class="st0" points="472.1,335.3 453.9,325.5 471.5,336.5 "/>
<polygon class="st0" points="542.4,238.1 531.9,255.9 543.5,238.8 "/>
<polygon class="st0" points="531.3,265.7 520.8,283.5 532.5,266.3 "/>
<polygon class="st0" points="466.2,247 455.7,264.8 467.4,247.7 "/>
<polygon class="st0" points="442.3,257.3 458.1,270.6 443.1,256.3 "/>
<polygon class="st0" points="540.6,264.8 534.7,284.6 541.9,265.2 "/>
<polygon class="st0" points="550.7,259.3 561.2,277 551.8,258.6 "/>
<polygon class="st0" points="552.4,250 570.6,259.8 553,248.9 "/>
<polygon class="st0" points="645.8,445.2 664,455 646.4,444.1 "/>
<polygon class="st0" points="769.5,248.2 787.8,258 770.2,247 "/>
<polygon class="st0" points="768.4,253.7 786.6,263.4 769,252.5 "/>
<polygon class="st0" points="703.7,141.8 721.9,151.6 704.3,140.7 "/>
<polygon class="st0" points="703.7,151.3 721.9,161.1 704.3,150.2 "/>
<polygon class="st0" points="714.9,306.3 735,310.9 715.2,305 "/>
<polygon class="st0" points="714.9,297 735,301.6 715.2,295.7 "/>
<polygon class="st0" points="728.7,364.8 748.8,369.5 729,363.5 "/>
<polygon class="st0" points="735,434.5 755.2,439.1 735.3,433.2 "/>
<polygon class="st0" points="713.2,281 733.4,285.6 713.5,279.7 "/>
<polygon class="st0" points="830.4,338.5 850.4,343.8 830.8,337.2 "/>
<polygon class="st0" points="833.3,273.4 848.7,259.7 832.4,272.4 "/>
<polygon class="st0" points="1010,250.2 1025.5,236.5 1009.2,249.2 "/>
<polygon class="st0" points="1022.6,249.6 1035.7,265.7 1023.7,248.8 "/>
<polygon class="st0" points="847.6,249.5 867.6,254.8 848,248.2 "/>
<polygon class="st0" points="938.4,235.2 958.3,240.5 938.7,234 "/>
<polygon class="st0" points="949.2,229.4 969.1,234.7 949.5,228.1 "/>
<polygon class="st0" points="972.9,273.2 992.9,278.5 973.2,272 "/>
<polygon class="st0" points="932.4,312.9 952.4,318.2 932.7,311.6 "/>
<polygon class="st0" points="1073.2,361.2 1093.2,366.5 1073.5,360 "/>
<polygon class="st0" points="1133.8,404.3 1153.8,409.6 1134.2,403.1 "/>
<polygon class="st0" points="999.7,169 1019.7,174.3 1000.1,167.7 "/>
<polygon class="st0" points="952.4,518.9 957,539 953.6,518.6 "/>
<polygon class="st0" points="1035.9,539.1 1040.6,559.3 1037.2,538.8 "/>
<polygon class="st0" points="1029.2,532.9 1027.2,553.5 1030.5,533 "/>
<polygon class="st0" points="1026.3,523.1 1011.1,537.2 1027.2,524 "/>
<polygon class="st0" points="972.2,498.2 960.2,515 973.2,499 "/>
<polygon class="st0" points="985.7,493.5 993.3,474.2 984.5,493 "/>
<polygon class="st0" points="993.5,493.5 1001.1,474.2 992.3,493 "/>
<polygon class="st0" points="1020.3,502.2 1040.9,501.1 1020.2,500.9 "/>
<polygon class="st0" points="1048.2,544.8 1068.8,543.6 1048.1,543.4 "/>
<polygon class="st0" points="976.9,503.7 964.9,520.6 978,504.5 "/>
<polygon class="st0" points="1077.1,554.9 1094.2,543.2 1076.4,553.8 "/>
<polygon class="st0" points="907.9,257.8 927.9,263.1 908.2,256.5 "/>
<polygon class="st0" points="814.3,278.6 834.3,283.9 814.7,277.4 "/>
<polygon class="st0" points="1055.3,294.6 1064,275.8 1054.1,294 "/>
<polygon class="st0" points="1040.3,305.2 1049,286.5 1039.1,304.7 "/>
<polygon class="st0" points="919.9,359.9 939.9,365.2 920.2,358.7 "/>
<polygon class="st0" points="960.3,410.7 980.3,416 960.7,409.4 "/>
<polygon class="st0" points="1021.5,425.3 1010.2,442.6 1022.6,426 "/>
<polygon class="st0" points="896.5,551.8 916.5,557.2 896.9,550.6 "/>
<polygon class="st0" points="849.6,507.6 869.6,512.8 850,506.3 "/>
<polygon class="st0" points="929.9,354.2 949.9,359.5 930.2,352.9 "/>
<polygon class="st0" points="1102.2,370.7 1122.2,376 1102.5,369.4 "/>
<polygon class="st0" points="1122.2,366.5 1142.8,367.8 1122.3,365.2 "/>
<polygon class="st0" points="1135.9,361.9 1156.5,363.2 1135.9,360.6 "/>
<polygon class="st0" points="1146.2,356.2 1166.8,357.5 1146.3,354.9 "/>
<polygon class="st0" points="1036.5,316.2 1057.1,317.5 1036.6,314.9 "/>
<polygon class="st0" points="1041.1,364.1 1061,358.4 1040.8,362.9 "/>
<polygon class="st0" points="1043.5,376.2 1062.9,383.1 1043.9,374.9 "/>
<polygon class="st0" points="1051.9,425.5 1071.4,432.4 1052.4,424.2 "/>
<polygon class="st0" points="1023.8,430.3 1043.2,437.2 1024.2,429 "/>
<polygon class="st0" points="349.4,208.6 338.8,226.4 350.5,209.2 "/>
<polygon class="st0" points="354.4,299.3 343.9,317.1 355.5,300 "/>
<polygon class="st0" points="477.2,336.8 466.7,354.6 478.3,337.4 "/>
<polygon class="st0" points="488.1,332.8 477.6,350.6 489.2,333.5 "/>
<polygon class="st0" points="320.4,216 309.9,233.8 321.5,216.7 "/>
<polygon class="st0" points="408,188.9 397.5,206.7 409.1,189.6 "/>
<polygon class="st0" points="420.7,157.7 403.3,168.8 421.4,158.8 "/>
<polygon class="st0" points="436.6,174.3 454.1,163.3 435.9,173.2 "/>
<polygon class="st0" points="440.6,179.8 458.2,168.8 439.9,178.6 "/>
<polygon class="st0" points="437.5,130.9 420,141.9 438.2,132 "/>
<polygon class="st0" points="471.5,130.8 465.7,150.6 472.7,131.1 "/>
<polygon class="st0" points="536.9,119.2 531.2,139.1 538.2,119.6 "/>
<polygon class="st0" points="345.8,168.6 328.3,179.7 346.5,169.7 "/>
<polygon class="st0" points="319.3,144.9 316.4,124.4 318,145.1 "/>
<polygon class="st0" points="328.3,147.5 325.4,127.1 327,147.7 "/>
<polygon class="st0" points="312.8,164.3 309.8,143.8 311.5,164.5 "/>
<polygon class="st0" points="293.2,148 307.8,133.4 292.3,147.1 "/>
<polygon class="st0" points="295.2,154.1 309.8,139.5 294.3,153.2 "/>
<polygon class="st0" points="283,130.9 265.6,141.9 283.7,132 "/>
<polygon class="st0" points="599.7,197.1 579.1,198 599.8,198.5 "/>
<polygon class="st0" points="447,248.2 426.4,249.1 447.1,249.5 "/>
<polygon class="st0" points="671.7,303.9 651.1,304.7 671.8,305.2 "/>
<polygon class="st0" points="566.3,177.7 545.6,178.5 566.3,179 "/>
<polygon class="st0" points="515.1,109.8 494.4,110.6 515.1,111.1 "/>
<polygon class="st0" points="393.2,101.9 372.6,102.8 393.3,103.2 "/>
<polygon class="st0" points="399.8,80.3 379.2,81.1 399.9,81.6 "/>
<polygon class="st0" points="295.9,153.5 275.2,154.3 295.9,154.8 "/>
<polygon class="st0" points="292,121.4 271.4,122.2 292.1,122.7 "/>
<polygon class="st0" points="607.7,202.9 587.1,203.7 607.8,204.2 "/>
<polygon class="st0" points="655.8,221.1 637.5,211.4 655.2,222.3 "/>
<polygon class="st0" points="683.1,234.1 663,238.9 683.5,235.3 "/>
<polygon class="st0" points="707.1,469.7 670.2,478.7 707.6,472.1 "/>
<polygon class="st0" points="699,492.3 662.1,501.2 699.5,494.6 "/>
<polygon class="st0" points="714.5,404.2 694.4,409.1 714.8,405.5 "/>
<polygon class="st0" points="697,502 676.9,506.8 697.3,503.2 "/>
<polygon class="st0" points="709.9,376.8 689.8,381.7 710.2,378.1 "/>
<polygon class="st0" points="681.7,225.7 661.6,230.6 682,226.9 "/>
<polygon class="st0" points="669.3,130.7 651.1,121 668.7,131.9 "/>
<polygon class="st0" points="840.8,211.9 859.4,202.9 840.3,210.7 "/>
<polygon class="st0" points="1018.8,354.7 1065.9,331.9 1017.3,351.8 "/>
<polygon class="st0" points="1040,363.3 1053.6,413.9 1043.2,362.5 "/>
<polygon class="st0" points="1071,371.7 1084.6,422.3 1074.2,370.9 "/>
<polygon class="st0" points="1060.5,368.9 1107.6,346.1 1059,366 "/>
<polygon class="st0" points="1114.8,407.4 1166.8,401.3 1114.4,404.2 "/>
<polygon class="st0" points="1081.6,404.6 1089.8,352.9 1078.3,404.1 "/>
<polygon class="st0" points="1098.4,400.1 1106.6,348.4 1095.1,399.6 "/>
<polygon class="st0" points="1010.2,413.2 1041.6,455 1012.8,411.2 "/>
<polygon class="st0" points="967.2,493.4 998.6,535.2 969.8,491.4 "/>
<polygon class="st0" points="775.3,497.2 790.2,547.4 778.5,496.3 "/>
<polygon class="st0" points="796.4,497.2 811.3,547.4 799.6,496.3 "/>
<polygon class="st0" points="1041.4,413.2 1072.9,455 1044.1,411.2 "/>
<polygon class="st0" points="885.1,537 916.5,578.9 887.7,535.1 "/>
<polygon class="st0" points="941.1,518.1 992.3,528.8 941.8,514.8 "/>
<polygon class="st0" points="926.7,533.4 978,544.1 927.4,530.1 "/>
<polygon class="st0" points="839.2,239.9 870.6,281.7 841.8,237.9 "/>
<polygon class="st0" points="792.5,356.1 824,397.9 795.2,354.1 "/>
<polygon class="st0" points="927.1,165.5 958.6,207.4 929.8,163.5 "/>
<polygon class="st0" points="901.4,165 932.9,206.8 904.1,163 "/>
<polygon class="st0" points="989.7,156.3 1021.1,198.2 992.3,154.3 "/>
<polygon class="st0" points="1018.4,158.6 1064.4,183.5 1020,155.6 "/>
<polygon class="st0" points="1006.4,154.3 1047.5,121.9 1004.3,151.7 "/>
<polygon class="st0" points="939,147.5 980.2,115.1 937,144.9 "/>
<polygon class="st0" points="773,78.9 814.1,46.4 771,76.3 "/>
<polygon class="st0" points="856.6,105.7 897.7,73.2 854.5,103.1 "/>
<polygon class="st0" points="804.5,138.7 818.5,189.2 807.7,137.9 "/>
<polygon class="st0" points="623.8,204.8 637.8,255.3 627,204 "/>
<polygon class="st0" points="644.3,282.4 602.7,250.6 642.3,285 "/>
<polygon class="st0" points="576.7,273.2 535.2,241.4 574.7,275.8 "/>
<polygon class="st0" points="574.2,172 532.6,140.2 572.2,174.6 "/>
<polygon class="st0" points="855.5,215.9 874.1,206.9 854.9,214.7 "/>
<polygon class="st0" points="1127.9,194.1 1146.2,203.8 1128.5,193 "/>
<polygon class="st0" points="1151,291.6 1169.3,301.3 1151.6,290.4 "/>
<polygon class="st0" points="1049,297 1067.2,306.7 1049.6,295.9 "/>
<polygon class="st0" points="1060.4,292.6 1080.6,303.4 1061.2,291.1 "/>
<polygon class="st0" points="1073.2,288.3 1093.4,299 1074,286.8 "/>
<polygon class="st0" points="984.8,222.1 1005.4,233.1 985.2,221.2 "/>
<polygon class="st0" points="1057.1,251.2 1077.8,262.2 1057.6,250.3 "/>
<polygon class="st0" points="817,241.1 824.3,251.5 817.7,240.5 "/>
<polygon class="st0" points="824.3,242.1 831.7,252.5 825.1,241.6 "/>
<polygon class="st0" points="913.4,180.6 913.4,193.4 914.3,180.6 "/>
<polygon class="st0" points="909.9,173.9 922.4,176.3 910.1,173 "/>
<polygon class="st0" points="917.9,186.3 930.4,188.6 918.1,185.3 "/>
<polygon class="st0" points="940.6,181.2 953.1,183.6 940.8,180.3 "/>
<polygon class="st0" points="1016.1,145.2 1028.6,147.5 1016.3,144.2 "/>
<polygon class="st0" points="959.1,130.6 971.7,133 959.3,129.7 "/>
<polygon class="st0" points="788.3,65.2 800.8,67.5 788.5,64.2 "/>
<polygon class="st0" points="921.7,96.6 930.6,105.7 922.3,95.9 "/>
<polygon class="st0" points="952.9,135.7 965.4,138 953.1,134.7 "/>
<polygon class="st0" points="948.3,139 945.3,126.7 947.4,139.3 "/>
<polygon class="st0" points="858.3,72.6 866.8,63.1 857.5,72 "/>
<polygon class="st0" points="868.6,76 880.2,70.7 868.2,75.1 "/>
<polygon class="st0" points="866.2,97.6 862.2,85.6 865.3,97.9 "/>
<polygon class="st0" points="1011.2,148.8 1008.2,136.4 1010.3,149 "/>
<polygon class="st0" points="1120.6,152.3 1121.3,139.6 1119.6,152.2 "/>
<polygon class="st0" points="1108.5,155.7 1117.1,121.5 1105.6,155 "/>
<polygon class="st0" points="940.5,279.3 949,245.1 937.6,278.6 "/>
<polygon class="st0" points="772.4,359.3 781,325.1 769.6,358.6 "/>
<polygon class="st0" points="805.4,429.8 814,395.6 802.5,429.1 "/>
<polygon class="st0" points="758.4,463.4 767,429.2 755.5,462.7 "/>
<polygon class="st0" points="818.7,431 844.2,406.6 816.6,428.9 "/>
<polygon class="st0" points="853.3,452.9 864.7,419.5 850.5,451.9 "/>
<polygon class="st0" points="1029.2,414.2 1040.6,380.8 1026.4,413.3 "/>
<polygon class="st0" points="910.8,533.2 919.3,499 907.9,532.5 "/>
<polygon class="st0" points="404,490.9 377.8,467.3 402,493.1 "/>
<polygon class="st0" points="356.5,488.5 330.3,464.9 354.6,490.7 "/>
<polygon class="st0" points="451.3,412.8 425.1,389.2 449.3,415 "/>
<polygon class="st0" points="953,506.9 961.6,472.7 950.1,506.2 "/>
<polygon class="st0" points="945.4,281.9 960.3,313.9 948.1,280.6 "/>
<polygon class="st0" points="996,184.8 1004,194.7 996.8,184.2 "/>
<polygon class="st0" points="967.4,171.6 975.4,181.5 968.1,171 "/>
<polygon class="st0" points="1033.5,186.1 1041.5,196 1034.2,185.5 "/>
<polygon class="st0" points="907.4,171.5 907.4,184.2 908.3,171.5 "/>
<polygon class="st0" points="936,175.6 936,188.3 937,175.6 "/>
<polygon class="st0" points="942.4,186 942.4,198.8 943.3,186 "/>
<polygon class="st0" points="877.2,271.2 884.5,281.6 878,270.6 "/>
<polygon class="st0" points="773.2,256.2 775.3,268.7 774.2,256 "/>
<polygon class="st0" points="555.1,185.2 551.6,173.7 554.4,185.4 "/>
<polygon class="st0" points="634.1,65.9 646.4,49.3 633,65.1 "/>
<polygon class="st0" points="457.1,119.7 436.8,116.1 456.9,121 "/>
<polygon class="st0" points="457.1,112 436.8,108.4 456.9,113.3 "/>
<polygon class="st0" points="456.7,103.5 440.9,90.2 455.8,104.5 "/>
<polygon class="st0" points="463.6,78 474.7,60.6 462.5,77.3 "/>
<polygon class="st0" points="476.5,55.4 460.7,42.1 475.7,56.4 "/>
<polygon class="st0" points="427.5,65.9 424.6,86.4 428.8,66.1 "/>
<polygon class="st0" points="383.7,68.2 380.8,88.7 385,68.4 "/>
<polygon class="st0" points="443.7,65.9 440.8,86.4 445,66.1 "/>
<g>
	<path class="st0" d="M633.3,77.3c-0.1,4.6,0.9,13,1.3,17.9c0.4,4.8,0.8,9.8,0.2,14.8c-0.3,2.2-0.7,4.1-2.1,6.2
		c-5.2,7.4-30.8,6.5-39.7,6.6c0,0,4.5-4.4,4.5-4.4c-0.5,6.8-6.9,11.8-12.7,14.1c-4.4,1.9-10.8,2.7-15.5,3.7L539,142l-0.3-1l29.2-9.7
		c6.8-2.5,18.9-4.8,20.7-13c0-0.1,0-0.1,0-0.2c0,0,0,0,0,0c0,0,0,0.1,0,0.2c0,0,4.5-4.4,4.5-4.4c6,0.2,12.1,0.1,18-0.3
		c4.8-0.4,9.7-0.6,14.1-2.4c0.3-0.2,0.5-0.4,0.3-0.1c0.9-1.9,0.9-4.3,0.9-6.5c0-2.8-0.2-5.8-0.4-8.8c-0.5-5.7-1.4-13.2-1.2-19
		L633.3,77.3L633.3,77.3L633.3,77.3z"/>
	<polygon class="st0" points="605.6,116.5 564,84.7 603.6,119.2 	"/>
	<polygon class="st0" points="587.1,125.6 568.8,115.9 586.4,126.8 	"/>
	<polygon class="st0" points="626,87.6 606.6,94.8 626.4,88.8 	"/>
	<polygon class="st0" points="539.2,140.8 523.8,154.6 540,141.8 	"/>
	<polygon class="st0" points="566.8,134.2 563.9,154.6 568.1,134.4 	"/>
	<polygon class="st0" points="578.5,131.3 575.6,151.8 579.8,131.5 	"/>
	<polygon class="st0" points="630.4,95 611,102.2 630.8,96.2 	"/>
</g>
<g>
	<path class="st0" d="M692.4,40.1c4.2-1.9,11.4-6.2,15.7-8.7c4.2-2.4,8.5-4.8,13.3-6.3c2.2-0.6,4-1.1,6.6-0.7
		c8.9,1.6,18.8,25.2,22.6,33.3c0,0-5.8-2.3-5.8-2.3c6.4-2.4,13.6,1.3,18.1,5.7c3.6,3.2,7,8.7,9.9,12.5l18,25l-0.8,0.6l-21-22.5
		c-5.1-5.2-12.3-15.2-20.5-13.4c-0.1,0-0.1,0.1-0.2,0.1c0,0,0,0,0,0c0,0,0.1,0,0.1-0.1c0,0-5.9-2.3-5.8-2.3c-2.3-5.5-5-11-7.8-16.3
		c-2.4-4.2-4.6-8.6-8.1-11.8c-0.3-0.2-0.6-0.3-0.2-0.2c-2.1,0-4.3,1-6.3,1.9c-2.6,1.2-5.2,2.6-7.9,4.1c-5,2.8-11.5,6.8-16.7,9.1
		L692.4,40.1L692.4,40.1L692.4,40.1z"/>
	<polygon class="st0" points="739.6,48.7 728.2,99.8 742.9,49.5 	"/>
	<polygon class="st0" points="755.7,61.8 754.5,82.5 757,61.9 	"/>
	<polygon class="st0" points="704.9,42.4 719.5,56.9 705.8,41.4 	"/>
	<polygon class="st0" points="789.5,99 808.5,107.1 790,97.7 	"/>
	<polygon class="st0" points="771.9,76.6 791.7,70.7 771.5,75.3 	"/>
	<polygon class="st0" points="764.4,67.2 784.2,61.3 764.1,65.9 	"/>
	<polygon class="st0" points="709.7,35.3 724.4,49.9 710.7,34.4 	"/>
</g>
<polygon class="st0" points="476.1,114.8 456.8,122 476.6,116 "/>
<polygon class="st0" points="636.5,167.7 616.8,161.2 636.1,168.9 "/>
<polygon class="st0" points="649.6,163.8 629.9,157.4 649.2,165.1 "/>
<polygon class="st0" points="668,154.4 648.4,147.9 667.6,155.6 "/>
<polygon class="st0" points="485,59.6 465.6,66.8 485.4,60.9 "/>
<polygon class="st0" points="468.1,54 448.8,61.2 468.6,55.2 "/>
<polygon class="st0" points="433.8,51.6 415.5,41.8 433.1,52.7 "/>
<polygon class="st0" points="445.9,50 427.6,40.3 445.2,51.2 "/>
<polygon class="st0" points="494.9,62.1 475.5,69.3 495.4,63.3 "/>
<polygon class="st0" points="484.9,209.6 456.3,217.8 485.4,211.4 "/>
<polygon class="st0" points="333.1,303.3 313.2,304 333.1,304.5 "/>
<polygon class="st0" points="333.1,303.9 313.2,304.6 333.1,305.2 "/>
<polygon class="st0" points="327.6,309.4 307.7,310.1 327.6,310.7 "/>
<polygon class="st0" points="262.6,320.1 249.5,335.1 263.6,321 "/>
<polygon class="st0" points="272.7,320.8 261,336.9 273.7,321.5 "/>
<polygon class="st0" points="283.8,321.3 279.1,340.7 285,321.6 "/>
<polygon class="st0" points="301.3,321.3 296.6,340.7 302.5,321.6 "/>
<polygon class="st0" points="293.6,321.7 280.6,306.6 292.6,322.5 "/>
<polygon class="st0" points="279.1,321.7 266.1,306.6 278.2,322.5 "/>
<polygon class="st0" points="350.4,297.8 337.4,282.8 349.4,298.6 "/>
<g>
	<path class="st0" d="M725.2,495.5c-0.1,8-0.8,16-1.7,23.8c-0.7,7.2-2,15-0.8,21.9c0.1,0.6,0.3,1.1,0.4,1.7c0,0.1,0,0.1,0,0.1
		c0,0.1,0,0.1,0.1,0.1c0.2,0.3,0.3,0.4,0.6,0.7c8,5.2,27.6,4.5,37.5,4.2l-1.6,0.9c0,0,11.8-12.6,11.8-12.6l0.5-0.5l0.7,0.1
		c-0.3,0,38.6,5,37.7,4.9l19.3-4.2l0.2,1l-19.3,4.2c0,0.1-38.1-3.5-38.2-3.5l1.1-0.5l-9.9,14.1l-0.5,0.7l-1.2,0.2
		c-10.9,1.2-38.7,4.7-45.6-5.4c-0.8-1.3-1.3-2.8-1.7-4.3c-2.1-8.4-1.3-16.3-1.1-24.6c0.3-7.6,0.4-15.2-0.1-22.8L725.2,495.5
		L725.2,495.5L725.2,495.5z"/>
	<polygon class="st0" points="719.1,510.3 759.9,528.2 721,505.9 	"/>
	<polygon class="st0" points="747.3,553.5 755.3,571 746.1,554 	"/>
	<polygon class="st0" points="729.7,550.5 737.7,568 728.5,551 	"/>
	<polygon class="st0" points="731.5,512.9 739.5,530.4 730.4,513.5 	"/>
	<polygon class="st0" points="781.7,538.1 789.7,555.5 780.5,538.6 	"/>
</g>
<g>
	<path class="st0" d="M714.9,464.4c-9.1,12.2-30.3,33.5-23.6,50.3c1.7,4,5.5,6,6.2,10.5c1.8,8-1.6,19.9-9.9,22.9
		c-1.6,0.5-3.5,0.2-5.2,0c-19.5-1.7-38-7.8-53.6-19.7c-6.5-5.2-14-10.3-17.8-17.9c-0.2-0.8-0.6-2-0.7-2.9
		c-0.2-6.1-5.3-10.3-9.6-13.8l-1.2,1.5c2.9,2.7,6.6,5.7,7.7,9.6c0.5,2,0.3,4.5,1.1,6.6c3.6,8.5,11.2,14.2,17.9,20.1
		c15.4,13,35.2,20.6,55,23.2c11.5,3.1,20.1-6.4,23.3-16.3c2.8-8.3,2.4-18.8-4-25.7c-4.3-6.2,2.6-15.4,6.5-21.1
		c4.9-6.8,10.8-13.1,16.6-19.8L714.9,464.4L714.9,464.4L714.9,464.4z"/>
	<polygon class="st0" points="601.1,494 569.4,511.1 602.2,496 	"/>
	<polygon class="st0" points="697.9,497 666.2,514.1 699,499.1 	"/>
	<polygon class="st0" points="695.5,514.4 663.9,531.5 696.6,516.4 	"/>
	<polygon class="st0" points="703.9,483.8 668.3,478.1 703.5,486.1 	"/>
	<polygon class="st0" points="684.7,552.5 653,569.6 685.8,554.6 	"/>
	<polygon class="st0" points="630.6,532.7 598.4,516.4 629.5,534.8 	"/>
</g>
<polygon class="st0" points="682.3,216.6 617.8,237.5 651.7,218.2 680.2,207.4 "/>
<polygon class="st0" points="682.3,157.4 617.8,178.3 651.7,159.1 680.2,148.2 "/>
<polygon class="st0" points="700,302.1 635.6,323 669.5,303.7 697.9,292.9 "/>
<polygon class="st0" points="714.5,393.5 650,414.4 683.9,395.1 712.4,384.2 "/>
<polygon class="st0" points="719.3,447 654.9,467.9 688.7,448.7 717.2,437.8 "/>
<polygon class="st0" points="697.2,518.8 632.7,539.7 666.6,520.4 695,509.6 "/>
<polygon class="st0" points="468.5,485 453.8,508.9 439.4,546.1 448.6,508.3 460.3,480.2 "/>
<polygon class="st0" points="491.1,480.2 476.5,504.2 462,541.4 471.3,503.5 483,475.4 "/>
<polygon class="st0" points="655.1,433.8 640.4,457.8 626,494.9 635.2,457.1 646.9,429 "/>
<polygon class="st0" points="629.2,382.2 601.2,381.8 561.8,388.2 599.1,376.9 629.2,372.7 "/>
<polygon class="st0" points="696.2,130.6 760.6,151.4 726.7,132.2 698.3,121.3 "/>
<polygon class="st0" points="723.3,377.9 787.8,398.8 753.9,379.5 725.4,368.7 "/>
</svg>
