<?xml version="1.0" encoding="utf-8"?>
<!-- Generator: Adobe Illustrator 27.4.1, SVG Export Plug-In . SVG Version: 6.00 Build 0)  -->
<svg version="1.1" id="_Слой_1" xmlns="http://www.w3.org/2000/svg" xmlns:xlink="http://www.w3.org/1999/xlink" x="0px"
	 y="0px" viewBox="0 0 1417.3 566.9" style="enable-background:new 0 0 1417.3 566.9;" xml:space="preserve">
<style type="text/css">
	.st0{opacity:0.8;}
	.st1{fill:#FFFFFF;}
	.st2{fill:url(#SVGID_1_);}
	.st3{fill:url(#SVGID_00000085220850046994026570000011627289109177427844_);}
	.st4{fill:url(#SVGID_00000003070460533497167010000014406708690835837875_);}
	.st5{fill:url(#SVGID_00000034080984417126266270000013284855139858107531_);}
	.st6{fill:url(#SVGID_00000089561367942403486510000002173105629911031181_);}
	.st7{fill:url(#SVGID_00000148648300197424491840000014831484895500350367_);}
	.st8{fill:url(#SVGID_00000152237285911896298590000001839724658223413930_);}
	.st9{fill:url(#SVGID_00000139983493638773721570000009700572401861244601_);}
	.st10{fill:url(#SVGID_00000137832798283259764660000000310203430457716620_);}
	.st11{fill:url(#SVGID_00000085231337086386458660000003387559913691709322_);}
	.st12{fill:url(#SVGID_00000132068047980763578170000018050189780944564883_);}
	.st13{fill:url(#SVGID_00000085972168079415695550000015363027677869037712_);}
	.st14{fill:url(#SVGID_00000057834171441321604090000001302029110608606622_);}
	.st15{fill:url(#SVGID_00000046323367448624467470000006124352917592007865_);}
	.st16{fill:url(#SVGID_00000002356091061918426350000006449664543011352202_);}
	.st17{fill:url(#SVGID_00000111873034745752799780000012254392619061328003_);}
	.st18{fill:url(#SVGID_00000180359450026652378510000010061595273567568038_);}
	.st19{fill:url(#SVGID_00000071537987389035954250000008125414508170733998_);}
	.st20{fill:url(#SVGID_00000073684623621204507060000015443066923825991350_);}
	.st21{opacity:0.9;}
	
		.st22{opacity:0.8;fill:none;stroke:#FFFFFF;stroke-width:51.0236;stroke-linecap:round;stroke-linejoin:round;stroke-miterlimit:10;enable-background:new    ;}
</style>
<g class="st0">
	<g>
		<path class="st1" d="M728.4,30.6c-0.6,2.8-4.7,19.2-5.3,22.1c-4,17.4-8.7,35-12.1,52.3c-3.8,19.2-7.2,39.2-7.5,58.4
			c0,9.3,0.8,19.3,1.8,29.3c3.9,35.8,10.5,71.7,16.7,107.2l0.1,0.4v-0.2l0.2,0.9l0.9,3.8c8.4,38.4,16.3,76.6,20,116.1
			c0.5,5.8,0.3,12.3-0.3,18c-3.4,31-6.3,62.8-20.1,91.1c-0.2,0.1-0.6,0.2-1.3,0.1c-0.3,0-0.7,0-1.2-0.1c-0.2,0-0.5-0.1-0.8-0.1
			c-1.9-0.3-2.2,8.7-4.1,8.2c-0.7-0.2-11.6-9.8-20.4-18.8c-4.8-5-2.2-7.6-1.4-11.9c3.9-21,12.5-40.7,17.5-61.2c0.8-3.4,1.5-7,2-10.4
			c1.3-9.2-0.1-17.8-1.3-27.1c-2.8-19.8-7.1-39.8-11.4-59.4c-1.8-8-7.5-33.3-9.3-40.9c-0.4-1.4-0.7-3.2-0.9-4.7
			c-6.1-35.8-10.9-71.9-14.1-108.1c-0.9-10.7-1.7-21.3-1.7-32.2c0-11.2,1.1-21.9,2.4-32.5c3.2-25.9,8.5-51.6,13.3-77.1l1.3-7.4
			c0.4-2.4,0.6-3,0.8-4.8l6.8-5.7h7.6h8.4L728.4,30.6z"/>
	</g>
</g>
<path class="st1" d="M678.9,425.2c0-8.1-2.1-24,6.1-29c2-1.2,4.2-0.8,6-2.5c3.3-2.9,5.7-9,3.1-13c-0.5-0.8-1.5-1.2-2.2-1.6
	c-8.9-5.5-18.7-8.9-29.2-8.8c-4.4,0.1-9.3-0.1-13.3,1.9c-0.4,0.3-0.9,0.7-1.2,1c-2,2.6-5.5,2.7-8.5,2.8v-1c2.1-0.2,4.7-0.3,6.4-1.6
	c0.8-0.7,1.6-1.8,2.6-2.5c4.3-2.5,9.3-2.4,14.1-2.8c10.8-0.6,21.7,2.5,31,7.8c5.9,2.4,6.5,9.2,4.7,14.4c-1.5,4.5-5,8.8-10,9.7
	c-3.8,1.3-3.8,7.4-4,11.1c-0.1,4.5,0.4,9,0.7,13.8L678.9,425.2L678.9,425.2L678.9,425.2z"/>
<polygon class="st1" points="696.7,40.3 657.1,60.6 698.9,44.6 "/>
<polygon class="st1" points="616.4,286.6 598.5,296.9 617.1,287.7 "/>
<polygon class="st1" points="622.2,288.7 604.2,299 622.8,289.9 "/>
<polygon class="st1" points="703.7,141.8 721.9,151.6 704.3,140.7 "/>
<polygon class="st1" points="703.7,151.3 721.9,161.1 704.3,150.2 "/>
<polygon class="st1" points="714.9,306.3 735,310.9 715.2,305 "/>
<polygon class="st1" points="714.9,297 735,301.6 715.2,295.7 "/>
<polygon class="st1" points="728.7,364.8 748.8,369.5 729,363.5 "/>
<polygon class="st1" points="735,434.5 755.2,439.1 735.3,433.2 "/>
<polygon class="st1" points="713.2,281 733.4,285.6 713.5,279.7 "/>
<polygon class="st1" points="408,188.9 397.5,206.7 409.1,189.6 "/>
<polygon class="st1" points="471.5,130.8 465.7,150.6 472.7,131.1 "/>
<polygon class="st1" points="536.9,119.2 531.2,139.1 538.2,119.6 "/>
<polygon class="st1" points="655.8,221.1 637.5,211.4 655.2,222.3 "/>
<polygon class="st1" points="683.1,234.1 663,238.9 683.5,235.3 "/>
<polygon class="st1" points="707.1,469.7 670.2,478.7 707.6,472.1 "/>
<polygon class="st1" points="699,492.3 662.1,501.2 699.5,494.6 "/>
<polygon class="st1" points="714.5,404.2 694.4,409.1 714.8,405.5 "/>
<polygon class="st1" points="697,502 676.9,506.8 697.3,503.2 "/>
<polygon class="st1" points="709.9,376.8 689.8,381.7 710.2,378.1 "/>
<polygon class="st1" points="681.7,225.7 661.6,230.6 682,226.9 "/>
<g>
	
		<linearGradient id="SVGID_1_" gradientUnits="userSpaceOnUse" x1="635.8" y1="156.7323" x2="680.6" y2="156.7323" gradientTransform="matrix(1 0 0 -1 0 283.7323)">
		<stop  offset="0.4385" style="stop-color:#FFFFFF;stop-opacity:0.7"/>
		<stop  offset="0.9535" style="stop-color:#FFFFFF;stop-opacity:0.9751"/>
		<stop  offset="1" style="stop-color:#FFFFFF"/>
	</linearGradient>
	<polygon class="st2" points="680.6,133 680.1,128.1 666.8,129.4 651.1,121 664.9,129.5 635.8,132.3 	"/>
	
		<linearGradient id="SVGID_00000001632009543620276850000003892887451634717857_" gradientUnits="userSpaceOnUse" x1="633.2" y1="138.1823" x2="678" y2="138.1823" gradientTransform="matrix(1 0 0 -1 0 283.7323)">
		<stop  offset="0.4385" style="stop-color:#FFFFFF;stop-opacity:0.7"/>
		<stop  offset="0.9535" style="stop-color:#FFFFFF;stop-opacity:0.9751"/>
		<stop  offset="1" style="stop-color:#FFFFFF"/>
	</linearGradient>
	<polygon style="fill:url(#SVGID_00000001632009543620276850000003892887451634717857_);" points="677.6,139.1 633.2,143.3 
		660.8,143.7 646.3,152 663.1,143.8 678,144 	"/>
</g>
<linearGradient id="SVGID_00000150064416996529642640000016695550039859421864_" gradientUnits="userSpaceOnUse" x1="400.7419" y1="-14.2678" x2="706.4999" y2="-14.2678" gradientTransform="matrix(1 0 0 -1 0 283.7323)">
	<stop  offset="0" style="stop-color:#FFFFFF"/>
	<stop  offset="1.097364e-02" style="stop-color:#FFFFFF"/>
	<stop  offset="0.4883" style="stop-color:#FFFFFF;stop-opacity:0.7137"/>
	<stop  offset="0.5111" style="stop-color:#FFFFFF;stop-opacity:0.7"/>
	<stop  offset="0.9535" style="stop-color:#FFFFFF;stop-opacity:0.9751"/>
	<stop  offset="1" style="stop-color:#FFFFFF"/>
</linearGradient>
<path style="fill:url(#SVGID_00000150064416996529642640000016695550039859421864_);" d="M645.7,275.1c-2.4,1.1-4.6,2.2-6.9,3.1
	l-36.1-27.6l33.1,28.7c-5.6,1.9-11,2.3-17-0.7c0-0.5,0-1-0.1-1.6c-0.2-2.5-0.6-4.7-3.4-6.2c-5.1-2.4-10.7-3.9-16.3-4.3
	c-8.8-0.6-17.7,0.9-26.2,3.7l-37.6-28.8l34.3,29.9c-13.5,4.9-26.2,12.9-36.9,21.3c0,0-0.5,0.5-1.4,1.4l-17.9-7.1l17,8.1
	c-1.5,1.5-3.6,3.7-6,6.2l-18.5-7.3l17.5,8.2c-8.3,8.6-19.3,20.1-21.1,21.9c-3.8,2.2-7.9,4.2-12,6l-16-8.7l14.7,9.2
	c-5.6,2.2-11.8,4.1-17.8,4.3l-17.3-9.3l14.9,9.3c-1.8-0.1-3.6-0.3-5.3-0.8c-4.2-1.4-8-4.1-10.9-7.5c-3-3.4-5.3-7.6-8.2-11.6
	c-3.4-5-8.3-9.3-14.1-11.6c-5.7-2.2-11.5-4.1-17.5-4.8c-2.5-0.2-9.5-0.3-12,0.3l5,2.3c1-0.3,4.6,2.1,5.7,2.1
	c5.9,0.2,8.3,0.6,13.8,2.7c6.6,2.3,13.4,7.5,16,10.8c2.5,3.9,5.5,7.8,8.7,11.7c3.2,3.9,7.4,7.2,12.2,9c4.3,1.4,9.1,1.6,13.9,1
	l-9.5,16.1l11-16.3c2.7-0.4,5.5-1,8.2-1.8l-8.3,14.1l9.9-14.6c6.5-2,12.7-4.9,17.9-7.6l0.3-0.3c-0.3,0.3,32.6-31.4,31.3-30.1
	c5.9-4.4,12.5-8.4,19.1-11.8c12.8-6.4,27.6-11.6,41.9-10.1c3.7,0.4,7.2,1.4,10.5,2.8c0,2.8,0.2,5.9,3.1,7.6l0.2,0.1l0.7,0.4
	c7.7,5,17.7,6,26.5,3.1c6.9-2.1,12.2-5.2,18.8-7c14.7-4,30.6-4,44.8,0.5l4-13.1C686.5,265.1,664.5,266.5,645.7,275.1z M608.5,277.4
	v-0.1V277.4L608.5,277.4z M617,277.6C616.9,277.5,616.9,277.5,617,277.6L617,277.6z"/>
<linearGradient id="SVGID_00000100371067138579712760000012157267673089210520_" gradientUnits="userSpaceOnUse" x1="709.7999" y1="-65.2677" x2="1204.4999" y2="-65.2677" gradientTransform="matrix(1 0 0 -1 0 283.7323)">
	<stop  offset="0.1229" style="stop-color:#FFFFFF"/>
	<stop  offset="0.1308" style="stop-color:#FFFFFF;stop-opacity:0.9925"/>
	<stop  offset="0.4385" style="stop-color:#FFFFFF;stop-opacity:0.7"/>
	<stop  offset="0.9535" style="stop-color:#FFFFFF;stop-opacity:0.9751"/>
	<stop  offset="1" style="stop-color:#FFFFFF"/>
</linearGradient>
<path style="fill:url(#SVGID_00000100371067138579712760000012157267673089210520_);" d="M1180.4,333.8c-10,1.3-19.4,8.3-27.2,14.6
	c-19.8,16.9-46.5,21.3-71.8,22.2l-3,0.2c-0.9,0-1.3,0-2,0c-2.1-0.2-4.1-0.6-6.2-1.2c-2.3-0.7-4.5-1.4-6.8-2.1l11.9-5.7l17.9,4.8
	l-16.5-5.4l30.9-15l-34,13.9h-0.1v0.1L1059,366v0.1c-3.7-1.2-7.4-2.6-11.1-3.9l13.1-3.7l-14.5,3.2c-7.8-2.9-15.7-6-23.5-8.9
	l42.9-20.8l-47,19.2c-13-4.9-26.1-9.4-39.3-12.3c-16.5-2.6-33.3,3.5-48.3,9.5c-0.4,0.2-0.8,0.3-1.2,0.5c-0.9-5.3-3-10-4.1-15.2
	c-2.2-9.7,1.1-14.8,8.7-20.1l17.7,4.7l-16.4-5.5c4.7-2.9,10-3.3,15.6-3.3c3,0,6.1-0.4,9-0.2c6,0.2,12.4,3,13.4,9.4
	c0.2,0.9,0.6,1.8,1.2,2.4c5.9,6,24.2,7,32.6,7.5c5.1,0.1,24.9,1,26.8-4.4c0.7-2.7,1.2-5.3,2-7.9l20.5,1.3L1037,315
	c0.1-0.3,0.2-0.6,0.3-0.9c2-5.5,5.3-10.6,9.9-14.2c1-0.8,2-1.5,3.1-2.2l16.9,9l-15.7-9.6c2.8-1.6,6-3,9.5-4.1l19.6,10.5l-17.6-11.2
	c3.8-1.2,7.8-2.2,11.9-3.1l18.6,9.8l-16.3-10.3c7.9-1.6,15.6-2.6,21.6-3.4s12.1-1.3,18.1-1.4c6.1-0.1,11.6,2.5,17.2,4.7
	s11.6,3.2,17.5,3.3l17.8,9.4l-17.7-10.9l-0.2,0.5c-5.9-0.2-11.6-1.3-17-3.5c-5.6-2.3-11.4-5.1-17.6-5.1s-12.2,0.5-18.3,1.1
	c-8.1,0.9-16.1,2-24.1,3.6l-0.4-0.2l-0.2,0.4c-3.8,0.8-7.6,1.7-11.3,2.7c-2,0.6-4,1.2-5.9,1.9l7.4-16l-9.1,16.7
	c-3.3,1.3-6.4,3-9.2,5.2c-1.2,0.9-2.2,1.9-3.3,2.9l6.6-14.1l-9.8,18c-1.8,2.6-3.3,5.4-4.4,8.4c-1.2,3.2-2,7-2.8,10
	c-1.6,1.2-3.9,1.4-5.9,1.7c-5.9,0.7-11.9,0.6-17.9,0.3c-8.9-0.6-18-1.5-26.3-4.5c-1.5-0.7-3.1-1.3-3.8-2.5
	c-0.7-4.3-3.5-8.5-7.5-10.5c-6-3.2-12.5-2.5-18.9-2.4c-8.5-0.3-16.1,1.2-22.7,7c-4,3.2-7.4,7.4-8.2,12.6c-1.6,9.2,3.4,17.7,4.4,26.4
	c-9,4.1-17.8,8.8-26.2,14.2c-4.3,2.9-8.9,5.9-12.7,9.8c-0.5,0.6-1.2,1.4-1.7,2.2l-0.2,0.3c-3.6,1.7-8.6,1.4-13.3,1.1
	c-6.7-0.5-13.6-1.7-20.3-3.2l-16.3-35.8l15.9,4.2l-16.5-5.6l-0.8-1.7L833,336c-2.4-3.1-4.9-5.8-8-8.2c-9.8-7.5-19.4-4.1-23.7,7.3
	c-4.5,9.3-16.6,16-27.3,18.1l7.1-28.1l-9.7,28.5c-0.6,0.1-1.3,0.1-1.9,0.2c-4.7,0.3-9.7-0.3-13.3-3c-4.4-3.3-8.4-7.5-12.4-11.9
	c-8.7-9.4-16.2-20.7-27.7-27.5l-6.3,11.9c4.4,2.4,8.4,6.6,12.1,10.5c8.5,9.2,16.3,19.3,26.8,27.1c3.3,2.5,7.2,4,10.9,4.7
	c10.8,2.1,24-0.9,34.7-7.3l29.8,39.6L797,356.7c6.7-4.5,12.2-10.4,15.2-17.1l0.5-1.2c0.4-1.1,0.9-2,1.3-2.6c0.5-0.6,0.7-0.7,0.7-0.7
	c1.2,0,2.1,0.6,3.6,1.6c1.9,1.3,3.7,3.2,5.1,5l19.3,40.2c0,0.1,1.1,2.4,1.1,2.4c8.9,2,17.7,3.5,26.8,4c6.9,0.1,17.4,0.9,22-6
	c0.6-1,1.6-1.9,2.6-2.8c5.5-4.9,12.3-9.1,18.8-13c3.3-1.9,6.6-3.8,10-5.5l16,4.2l-14.7-4.9c3.3-1.7,6.6-3.3,9.9-4.8l14.8,3.9
	l-13.5-4.5c6.5-2.9,13.3-5.3,20.1-7.2c7.2-1.9,14.9-3.3,22.1-2.2c3.7,0.6,7.5,1.6,11.3,2.6c16,4.4,34.1,11,50.5,16.7l13.2,49
	l-7.4-36.8l16.7,6l-17-7.3l-2-9.7c0.8,0.3,1.6,0.5,2.4,0.8c8.4,2.7,16.7,5.9,25.4,7.6l12.9,47.8L1075,375c0.2,0,0.3,0.1,0.5,0.1
	c1,0.2,2.5,0.1,3.3,0c9.3-0.6,18.7-1.5,28-3.2l15.4,4.1l-13.4-4.5c2.9-0.6,5.7-1.2,8.6-2s5.9-1.7,8.7-2.8l16.7,1.1l-14.5-1.8
	c3.1-1.2,6.1-2.5,9-4l19.2,1.2l-17.3-2.2c2.7-1.4,5.3-3,7.8-4.8l19.8,1.3l-18.3-2.3c0.5-0.4,1-0.8,1.5-1.2l4.7-3.8
	c0.4-0.3,3.1-2.6,3.4-2.7c7.5-5.4,16.4-8.9,25.7-9.8c6.7-0.6,13.8,0,20.3,2.1l0.4-0.9C1196.9,336.2,1188.4,332.8,1180.4,333.8z"/>
<linearGradient id="SVGID_00000150068770700816783200000000528381047989199238_" gradientUnits="userSpaceOnUse" x1="728.9" y1="-131.7802" x2="1200.1001" y2="-131.7802" gradientTransform="matrix(1 0 0 -1 0 283.7323)">
	<stop  offset="0.1229" style="stop-color:#FFFFFF"/>
	<stop  offset="0.1308" style="stop-color:#FFFFFF;stop-opacity:0.9925"/>
	<stop  offset="0.4385" style="stop-color:#FFFFFF;stop-opacity:0.7"/>
	<stop  offset="0.9535" style="stop-color:#FFFFFF;stop-opacity:0.9751"/>
	<stop  offset="1" style="stop-color:#FFFFFF"/>
</linearGradient>
<path style="fill:url(#SVGID_00000150068770700816783200000000528381047989199238_);" d="M1200,417.7c-11.5,2.3-23.3,2.9-35,3.1
	c-5.9,0.1-11.8,0-17.6-0.3c-5.7-0.4-11.6-0.7-17.1-2.2c-2.7-0.8-3.8-3.2-5.6-5.2c-1.7-2.2-3.5-4.3-5.6-6.2l17-2l17.7,4.7l-15.1-5
	l28.1-3.3l-32.6,1.8l0,0l0,0l-18.4,1c-2.8-2.1-5.9-3.8-9.2-5.1c-2.4-1-5.1-1.7-7.7-1.9l7.7-48.7l-10.9,48.7
	c-1.2,0.1-2.5,0.4-3.7,0.9c-3.6,1.3-6.8,3-10.1,4.6l7.9-49.7l-11.5,51.2h0.3c-0.9,0.4-1.8,0.8-2.8,1.2c-5.3,2.1-10.8,3.5-16.4,4.4
	c-2.5,0.4-5.4,0.4-8.3,0.4c-6.7,0-13.6-0.2-20.4-0.4l9.9-28.9l-12.6,28.9c-9.7,0.1-19-1.8-28.4-4.6c-8.7-2.4-18.2-6.1-27.9-4.7
	c-3,0.5-5.9,1-8.9,1.6c-9,1.8-18,4.1-26.5,8c-3.4,1.6-6.4,3.1-9.2,5.8l-0.8,6.2c3,11.3-13.2,17.9-22.2,20.7c-4.2,1.2-8.7,2.5-13,3.1
	c-8.8,1.1-18.5,0.5-27.6,0.2c-2.6-0.1-5.1-0.2-7.7-0.3l8.9-26.2l-11.4,26.1c-5.9-0.2-11.9-0.3-17.8-0.1c-0.4,0-2.2,0.3-3.1,0.8
	c-0.5,0.3-0.6,0.3-0.9,0.5c-0.3,0.2-0.5,0.4-0.5,0.4c-1.8,1.5-3,3.3-4.3,4.9c-3.3,4.3-7.6,9.8-10.8,14.1c-4.5,0-8.9-0.1-13.4-0.5
	c-14.4-1.4-28.7-4.7-42.2-9.8l6.7-26.7l-8.9,25.8c-6.9-2.7-13.5-5.9-19.9-9.5l-9.3,16.3l1,0.6l0.9,0.5l1.7,0.9
	c21.5,10.7,45,17.1,69,18.6c5.7,0.3,11.4,0.3,17.1,0l1-0.1h0.2h0.1h0.1l0.7-0.1c1,0,3-1,2.9-1c0.3-0.1,0.6-0.3,0.8-0.5
	c0.3-0.2,0.3-0.2,0.4-0.3c1-0.9,1.8-1.9,2.5-2.8c3.8-5.2,8.7-12.2,12.4-17.2c12.7-0.7,25.4-0.1,38.3-0.3c7.3-0.2,15.6-0.8,22.9-3.1
	c7.5-2.2,14.6-4.7,21.5-8.8c9.4-5.4,17.4-15.5,15.3-26.4c8-5.2,17.5-7.7,26.7-10l16,4.2l-13.9-4.7c4.8-1.1,9.2-2.4,14.4-1.6
	c10.4,1.6,21.1,5.4,31.9,6.9l7.7,10.3l-10.3,15.7l11-14.7l20.4,27.1l-15.8-24l17.4,6.2l-18.6-8l-2.1-3.1l0,0l-0.1-0.1l-5.8-8.9
	c5.5,0.6,11.4,0.3,16.9,0.2c3.6-0.1,7.2-0.1,10.9-0.1l28.5,37.9l-18.9-28.8l17.4,6.2l-18.7-8.1l-4.8-7.3c4.2-0.1,8.4-0.3,12.5-1
	c8.9-1.6,17.7-4.9,25.6-9.3c9.3-5.3,12.7-6.2,22.7-1.6c5.1,2.4,9.3,6.1,12.9,10.5c1.9,2,3.6,4.7,6.4,5.7c6.2,2,12.8,1.9,19.2,2.1
	c17.7,0,35.6-0.8,52.9-4.8L1200,417.7z M935.4,423.4C935.2,423.5,935.3,423.5,935.4,423.4L935.4,423.4z"/>
<g>
	
		<linearGradient id="SVGID_00000041297885685213128610000001939326924411794831_" gradientUnits="userSpaceOnUse" x1="831.6" y1="-166.9455" x2="831.64" y2="-166.9455" gradientTransform="matrix(1 0 0 -1 0 283.7323)">
		<stop  offset="0.1229" style="stop-color:#FFFFFF"/>
		<stop  offset="0.1308" style="stop-color:#FFFFFF;stop-opacity:0.9925"/>
		<stop  offset="0.4385" style="stop-color:#FFFFFF;stop-opacity:0.7"/>
		<stop  offset="0.9535" style="stop-color:#FFFFFF;stop-opacity:0.9751"/>
		<stop  offset="1" style="stop-color:#FFFFFF"/>
	</linearGradient>
	<path style="fill:url(#SVGID_00000041297885685213128610000001939326924411794831_);" d="M831.6,450.7L831.6,450.7
		C831.7,450.6,831.6,450.7,831.6,450.7z"/>
	
		<linearGradient id="SVGID_00000135680243739619199010000003612650704177667209_" gradientUnits="userSpaceOnUse" x1="710.4998" y1="-203.4676" x2="1094.3002" y2="-203.4676" gradientTransform="matrix(1 0 0 -1 0 283.7323)">
		<stop  offset="0.1229" style="stop-color:#FFFFFF"/>
		<stop  offset="0.1308" style="stop-color:#FFFFFF;stop-opacity:0.9925"/>
		<stop  offset="0.4385" style="stop-color:#FFFFFF;stop-opacity:0.7"/>
		<stop  offset="0.9535" style="stop-color:#FFFFFF;stop-opacity:0.9751"/>
		<stop  offset="1" style="stop-color:#FFFFFF"/>
	</linearGradient>
	<path style="fill:url(#SVGID_00000135680243739619199010000003612650704177667209_);" d="M1077.2,553.3c-5.4-1.2-10.8-2.5-16-4.2
		c-4-1.3-7.9-2.7-11.7-4.4l19.3-1.1l-20.7-0.2l0.1,0.7c-1-0.5-2-0.9-3.1-1.4c-5-2.5-10.2-5.5-13.7-9.9c-3.7-4.5-4.1-10.1-4.5-15.8
		c-0.3-6.3-2.2-11.1-5.3-14.9l19.3-1l-20.4-0.2c-4.2-4.3-10.1-6.9-17.1-8.4c-3-0.6-5.9-1.1-8.9-1.5l6.6-16.8l-7.8,16.7
		c-2.1-0.2-4.2-0.4-6.4-0.5l6.4-16.2l-7.5,16.1c-5.9-0.3-11.8-0.1-17.8,0.3h-0.7l-0.7,0.5l-11.9,9.1l6.9-27.5l-10.3,30.1L933.9,516
		l-1.3,1v1.9c-0.1,6.7-8.3,9.4-13.9,11.1c-2.4,0.7-5,1.2-7.5,1.6l8.1-32.6L908,532.1c-7.9,1-16.2,0.9-24,0.2
		c-6.7-0.8-11.9-5.4-16.7-10.1c-4.3-4.1-7.8-8.7-11.9-13.1l14.2,3.7l-15.7-5.2c-1-1-2.1-2-3.2-3c-3.3-2.9-7.1-5.3-11.2-7.2
		c-14.9-7.1-33.1-3.6-48.4-5.9c-2.3-0.4-4.5-0.9-6.7-1.5c2.7-1.9,5.1-4.1,7-6.7c2.2-3.1,3.4-6.1,4.5-9.6c2.4-7.7,2.1-15.9,1.6-23.3
		c-0.2-3.3-0.3-6.3,0-8.2c0.4-1.7,0.3-2,1.6-3c3.4-1.8,10.5-2.4,14.8-1.3c4.2,0.9,6.9,3.8,8,7.5c-3.7,5.9-2.6,13.3,5,16.4
		c5.1,2,9.7,2,14.8,2c4.6,0,9.1-0.4,13.6-1l6.7-1l6.6-1.2c17.4-3.7,34.7-10,48.7-21.2l-0.6-0.8c-7.1,4.9-15.4,8.3-23.6,10.9
		c-12.3,4-25.4,5.8-38.3,6.2c-6.3,0.1-12.7,0.2-18.8-1c-2.4-0.5-4.3-1-5.8-2.2c0.1,0,0.1-0.2,0.3-0.6c0.3-0.4,0.7-0.8,1-1.2h0.1
		l1.5-3.8c-0.1-4.1-1.2-8.1-3.3-11.6c-1.9-3.2-4.6-5.7-7.7-7.5l22.1-21.2l-24.7,19.9c-4-1.7-8.4-2.6-12.7-2.6l7.1-28.3l-9.7,28.3
		c-10,0-19.3,4.1-22,14.7c-2.9,10.8,0.6,22.7-5.5,32.2c-0.3,0.6-0.5,0.7-0.7,0.9c-1.6,1.5-3.4,2.3-6.3,3.2c-11.5,3.1-24,2.1-36,0.8
		c-6.2-0.8-12.6-1.8-18.8-3.1l-4.4,25.7c7.2,0.9,14.3,1.3,21.6,1.5c9.8,0.1,22.8,0,34.5-2.6c3.3,1.9,6.6,3.3,9.9,4.4l13.6,45.8
		l-10.3-44.9c6.1,1.6,12.4,2.2,18.7,2.3l12.6,42.5l-9.7-42.5c4.1,0,8.3-0.1,12.4-0.3c7.4-0.2,14.5,0.3,21.2,3
		c6.8,2.8,11.8,7.3,16.9,13c5.7,6,11.4,12.2,18.8,16.6c3.9,2.3,8.6,4,13.3,4.1c1.4,0.1,2.8,0.1,4.2,0.1l28.1,37.5L899,552.4
		l17.3,4.7l-18.3-6.2l-6.3-9.6c9.8-0.1,19.5-1.1,29.1-3.9c2.7-0.8,5.7-2,8.5-3.5l48.5,10.1l-21.1-5.8l-2.9-17.5l38.3,8l-46.9-13
		L969,496l2.3,3l-11.1,16l12.1-14.9l3.7,4.9l-11,15.6l11.8-14.5l21.9,29.1l-26-39.5c4.4-0.3,8.8-0.5,13.2-0.5
		c12.5,0.4,30.7,0.9,36.5,14.1c2,4.6,1.8,9.8,2.8,14.9l-14,13l14.3-11.7c0.1,0.2,0.1,0.4,0.2,0.6c0.7,2.7,1.9,5.1,3.6,7.2l-2,20.2
		l3-18.9c1.7,1.9,3.7,3.5,5.8,4.9l4.6,19.7l-3.1-18.8c2.3,1.4,4.6,2.7,6.9,3.8c10.3,4.7,21.2,7.8,32.3,10l0.4,0.6l0.6-0.4h0.1v-0.1
		l16.4-11.2L1077.2,553.3z M830.1,452.5C830.1,452.4,830,452.4,830.1,452.5c-0.2-0.1-0.2-0.2-0.2-0.2
		C829.9,452.1,830.1,452.3,830.1,452.5z M952.8,520.5l4.1,17.7l-23.8-6.6c3.6-2.8,6.4-6.5,6.7-11.1l2.6-2.2L952.8,520.5z"/>
</g>
<linearGradient id="SVGID_00000032625639414342120080000018430429337012307383_" gradientUnits="userSpaceOnUse" x1="701.7001" y1="25.4323" x2="1077.7" y2="25.4323" gradientTransform="matrix(1 0 0 -1 0 283.7323)">
	<stop  offset="1.091287e-02" style="stop-color:#FFFFFF"/>
	<stop  offset="2.161343e-02" style="stop-color:#FFFFFF;stop-opacity:0.9925"/>
	<stop  offset="0.4385" style="stop-color:#FFFFFF;stop-opacity:0.7"/>
	<stop  offset="0.9535" style="stop-color:#FFFFFF;stop-opacity:0.9751"/>
	<stop  offset="1" style="stop-color:#FFFFFF"/>
</linearGradient>
<path style="fill:url(#SVGID_00000032625639414342120080000018430429337012307383_);" d="M996.8,250l26.7,0.7l12.2,15l-10.7-15
	l32.6,0.8l20.1,10.7l-20.2-11.9l-0.1,0.2c-2.7-0.1-18.6-0.7-33.5-1.3l-0.3-0.4l-0.5,0.3c-4-0.2-8-0.3-11.5-0.5l13.8-12.2l-15.6,12.1
	c-7.8-0.3-13.4-0.5-13.4-0.5c-3.9,1.4-7.5,3.5-10.6,6.3c-5.9,5.3-9.3,12.9-14.8,18.3c-2.6,2.6-5.8,4.7-9.2,6
	c-6.3,2.2-13.8,1.5-21.1-0.5l8.2-33.1l-11,32.3c-6.8-2.1-13.3-5.1-18.6-7.9L913,259l14.8,3.9l-15.6-5.2l-5.7-9.4
	c10.1-0.8,20.6-2.8,27.5-8c2-1.7,4-3.3,6.1-4.8l18.1,4.8l-17-5.6c2.7-1.9,5.5-3.7,8.4-5.3l19.4,5.2l-17.8-6c3.1-1.6,6.3-3.1,9.6-4.2
	c7.8-2.8,16.2-3.6,24.4-2.1l20.1,10.7l-19.6-11.6v-0.1c-0.1,0-0.2,0-0.4-0.1l-0.2-0.1v0.1c-8.2-1.5-16.8-1-24.8,1.5
	c-8.2,2.5-15.8,6.7-22.8,11.7c-3.3,2.4-6.3,5.3-10.3,6.7c-7.3,2.6-15,3.6-22.7,3.8l-8.3-13.6l-0.5-0.8c-4.1-2.1-8.2-4.1-12.3-6
	c-7.9-3.5-16.5-7.1-25.3-10l15.9-7.7l-17.6,7.2c-4.2-1.3-8.5-2.6-12.8-3.6l15.7-7.6l-17.6,7.2c-9.9-2.2-19.9-3.2-29.5-2.3
	c-7.1,0.7-11.5,6.9-16.7,10.3c-5.8,3.3-12.3,5.6-19,6.1c-7.3,0.7-14.7-0.9-22.5-3.1c-17.1-5.2-34-10-52.3-4.8l3.7,13
	c7.1-2.1,14.5-2.8,22-1.9c10.9,1.2,22.3,5.3,33.8,7.2c0.2,6,0.1,11.9-0.1,17.9c-0.2,8.3-1,16.2,1.1,24.6c0.4,1.5,0.9,3,1.7,4.3
	c6.9,10.1,34.7,6.6,45.6,5.4l1.2-0.2l0.5-0.7l4.8-6.8l18.2,4.8l-17.5-5.8l4-5.7c5.1,0.5,37.5,3.5,37.5,3.4l6.8-1.5l5.5,7.4l-4.9-7.5
	l11.8-2.6l7,10l-6.5-11l-0.5,0.4l-0.1-0.4l-12.3,2.7L849.7,250l17.8,4.7l-18.9-6.4l-3.8-5.7c0.8,0,1.6-0.1,2.3-0.1
	c1.6-0.1,3.4-0.3,5.1-0.7c2.2-0.6,4.4-0.6,6.9-0.2c5.6,0.9,11.1,2.9,16.2,5.5c4.8,1.6,9.7,1.4,14.6,1.7c2.9,0,6,0,9.3-0.1l15.6,24.1
	l0.4,0.6l0.6,0.3c8.5,4,19.6,8.6,30.2,9.8l14.1,30.3l-11-30c4.9,0.3,9.6-0.2,13.8-1.9c3.9-1.7,7.3-4.1,10.2-7.1
	c0.4-0.4,0.8-0.8,1.2-1.3l18.4,4.9l-17.6-5.8c4.4-5.4,7.2-11.8,12.2-16.6C990.1,253.5,993.4,251.5,996.8,250z M864.4,273.4l-6.3,1.4
	c-0.3-0.1-12.6-1.6-23-3l13.6-12.1l-15.3,11.9c-7.2-0.9-13.1-1.7-13-1.7l-0.7-0.1l-0.5,0.5l-11,11.7c-10.1,0.3-28.9,0.8-36.7-4.2
	c-0.3-0.3-0.4-0.4-0.6-0.7c-0.1,0-0.1,0-0.1-0.1c0,0,0,0,0-0.1c-0.1-0.6-0.3-1.1-0.4-1.7c-1.1-6.3-0.1-13.4,0.6-20.1l2.2,1.2
	l2.1,12.4l-1-11.9l12.3,6.6l-15.5-9.6c0-0.2,0-0.4,0.1-0.5c0.2-1.3,0.3-2.6,0.4-4l16.2,8.7l-16-10c0.4-4.2,0.8-8.3,1-12.5
	c1.7,0,3.3-0.1,5-0.4c8.6-1,16.9-4.3,24.1-9c2.4-1.6,4.6-3.9,6.4-5.5c0.7-0.7,1.4-1.3,2-1.8c-0.8,8.2-5.9,20.6,4.6,23.3
	c0.9,0.2,2,0.2,3.1,0.3l6.4,9.1l-5.5-9.1c1,0,2,0,2.8,0c1,0,2,0.1,3,0.1l7.1,10l-6-10c5.2,0.2,10.5,0.4,15.7,0.3L864.4,273.4z
	 M890.3,244.9c-4-0.3-8.4-0.6-12.2-1.5c-0.4-0.1-0.6-0.1-0.9-0.3c-3.4-1.9-6.9-3.4-10.6-4.6c-4.9-1.5-10-2.8-15.3-1.6
	c-3.5,0.6-7,0.5-10.5,0.5c-6-0.1-12.8-0.6-18.9-1l-3.2-0.2c-0.9,0-3,0.2-3.5-0.6c-0.9-1.8-0.3-4.3,0.1-6.7c0.7-4,1.9-7.7,2-12
	c24-1.3,52,8.9,73.8,19l6,9.2C894.8,245.1,892.5,245,890.3,244.9z"/>
<g>
	
		<linearGradient id="SVGID_00000073681072785878737560000009499515948336150956_" gradientUnits="userSpaceOnUse" x1="692.4001" y1="167.9041" x2="1223.3" y2="167.9041" gradientTransform="matrix(1 0 0 -1 0 283.7323)">
		<stop  offset="3.710068e-02" style="stop-color:#FFFFFF"/>
		<stop  offset="4.714596e-02" style="stop-color:#FFFFFF;stop-opacity:0.9925"/>
		<stop  offset="0.4385" style="stop-color:#FFFFFF;stop-opacity:0.7"/>
		<stop  offset="0.9535" style="stop-color:#FFFFFF;stop-opacity:0.9751"/>
		<stop  offset="1" style="stop-color:#FFFFFF"/>
	</linearGradient>
	<path style="fill:url(#SVGID_00000073681072785878737560000009499515948336150956_);" d="M1204.3,137c-12.7-0.4-25.4,0.5-38.1,2.1
		c-6.3,0.9-12.9,1.7-18.9,4.2c-8.6,3.6-17.5,5.8-26.6,7.3l0.6-11l-1.5,11.2c-2.9,0.5-5.9,0.9-8.9,1.2c-0.5,0.1-1,0.1-1.5,0.2
		l7.7-30.7l-10.6,31c-23.6,2.5-47.4,2.3-71.2,1.4c-7.5-0.3-16.6-0.8-26.5-1.5l8.8-6.9l11,2l-10.1-2.7l29-22.9l-36.7,25.3l-2.6-10.8
		l1.9,11.3l-5.8,4l0.3,0.4c-19.7-1.6-41.7-4.5-58.8-9.9l8-6.3l11.6,2.1l-10.7-2.9l5.5-4.3l11.5,2.2l-10.7-2.8l19.2-15.1l-32.3,22.3
		l-2.6-10.7l1.9,11.2l-4.6,3.2c-4.9-1.7-9.3-3.6-13-5.8c-0.4-5.5-4.4-10.7-8.3-13.9c-14.7-11.2-37.2-16.7-59.3-19.9l18.4-14.6
		c12.3,7.6,27,12.5,41.4,9.7l8.8,9l-7.8-9.2c0.1,0,0.2,0,0.3-0.1l-0.2-1c-8.3,1.4-16.8,0.7-24.7-2.1c-5.6-1.9-10.9-4.7-15.9-7.9
		l15.4-12.2l-16.5,11.4c-1.6-1.1-3.2-2.2-4.8-3.4c-2.4-1.8-4.7-3.9-7.2-5.5l11-5l-12,4.4c-0.8-0.5-1.6-0.9-2.5-1.2
		c-2.2-0.9-4.4-1.6-6.6-2.2l7.7-8.6l-8.8,8.4c-1.7-0.4-3.3-0.7-4.9-1c-10.6-1.7-21.4-2-32.1-1.2c-3.3,0.4-7,0.5-10,2.3
		c-4.6,2.1-9.5,3.8-14.4,4.6c-2.5,0.4-4.7,0.4-6.9-0.2c-1.6-0.4-3.4-0.6-5.1-0.7c-2.2-0.2-4.5-0.2-6.7-0.3l0.5-0.4l13.4-4L780,73.4
		l9.9-7.9l10.9,2l-10-2.7l23.3-18.4l-40.6,28.2l-0.7-1c-1.6-2.1-3.4-4.8-5.3-7.3l16.7-5l-17.5,4c-1.2-1.6-2.5-3-3.8-4.2
		c-3.5-3.4-8.6-6.4-13.7-6.4c-4.5-9.8-13.2-28.8-21.2-30.3c-2.6-0.4-4.4,0.1-6.6,0.7c-4.8,1.5-9.1,3.9-13.3,6.3
		c-4.3,2.5-11.5,6.8-15.7,8.7l3.2,7.7c3-1.3,6.4-3.2,9.6-5.1l14.3,14.2l-13.1-14.8c2.1-1.2,4.1-2.4,5.9-3.4c0.2-0.1,0.4-0.2,0.5-0.3
		l11.6,11.5l-10.6-12c2.2-1.2,4.3-2.3,6.4-3.3c2-0.9,4.1-1.9,6.2-1.9c0.1,0,0.2,0.1,0.3,0.2c3.5,3.2,5.7,7.6,8.1,11.8
		c1.4,2.6,2.7,5.2,4,7.8l-9.4,42.1c-8.6,0-17.3,0-26,0.1l0.9,18.6c19.1-0.8,38.4-1.4,57.6-1.6c12.9-0.1,25.8-0.2,38.8,0
		c-0.5,3-1.5,6.2-2.5,9.6c-1.2,4.4-3.3,9.4-1.5,14.8c1.3,3.8,5.1,6,8.9,6.6l12.9,46.5l-9.7-45.8c6.4,1.6,12.3,5,17.6,8.8
		c0.7,0.5,1.3,1,2,1.5l0.4,11.6v1.7l1.4,0.8c12.3,7,24.2,14.3,37.6,19.1c2,0.6,4.5,1.4,6.6-0.2c4.3-4.4,4.9-11,7.9-15.9
		c4.8-1.2,12.1-1.8,17.8-2.2c1.3-0.1,2.6-0.1,3.9-0.2l3.4,4.6v11.2l0.7-10.3l5.3,7v12.5l0.8-11.4l18.7,24.8l-13.3-20.2l10.8,2
		l-11.5-3.1l-7.4-11.3l10.9,2.1l-11.6-3.1l-3.3-5c7.3-0.3,14.6-0.4,21.9,0.3l6.6,8.8v11l0.8-9.9l5.7,7.6h-0.1v12.8l0.8-11.8
		l15.4,20.4l-17.1-26l11.6,2.2l-12.3-3.3l-7.4-11.3c12,1.8,24,3.4,35.9,5l6,7.5l-5.1-7.4c3.7,0.5,7.3,0.9,11,1.4l3.8,9.7
		c0.1,0,0.3,0.8,0.3,0.8h0.8c3.7,0.1,7.5,0.2,11.2,0.4l6.7,8.2l-5.6-8.2c4.8,0.2,9.5,0.3,14.3,0.5l8.4,11.2l-7.4-11.2
		c7,0.2,14.1,0.5,21.1,0.8l6.7,8.2l-5.7-8.2c13.4,0.5,26.8,1.2,40.2,2.2c2.9,0.2,5.9,0.8,8.8,1.4c3,0.5,6,0.8,9,1.1
		c11.8,1.1,23.6,1.7,35.4,2.3l17,9l-16.3-9.9v-0.1h-0.1l-1.3-0.8l-0.4,0.7c-15.1-0.9-30.3-1.4-45.1-4.1c-1.4-0.4-3-0.7-4.5-0.8
		l-2.2-0.3c-13.9-1.2-27.9-1.9-41.8-2.6l-0.3-0.4l-0.4,0.4c-3.8-0.2-7.7-0.4-11.5-0.6c-3.3-0.2-6.6-0.3-10-0.5l-9.9-15.1l17.3,4.6
		l-18.3-6.2l-5.4-8.2c8.9,0.6,17.9,0.9,26.8,1.1l41.6,22.5l-35.6-22.4c2.1,0,4.3,0.1,6.4,0.1c31.8-0.1,64.1-0.6,95.2-8.2
		c3.1-0.8,6.2-1.7,9.3-2.8c4.5-1.5,8.7-3.7,13.2-5.2c10.6-3,22.2-2.3,33.1-3.4c12.5-1,24.7-3.7,37.1-1.5l0.2-1
		C1217.1,137.7,1210.7,137.2,1204.3,137z M784.3,80.4c1.4,0.1,2.9,0.2,4.3,0.5c5.3,1.2,10.4,0,15.3-1.6c3.8-1.3,7.4-2.8,10.8-4.7
		c3.9-1.2,8.7-1.4,12.9-1.7c12.4-0.5,25.3-0.5,37,3.7c4,1.4,6.9,4.3,10.3,6.7c1.3,1,2.7,1.9,4.1,2.8l-13.5,9.4l-3.3-9.9l2.6,10.4
		l-7.2,5c-13.5-1.8-26.7-2.7-37.6-3.5c-10.4-0.7-20.8-1.2-31.2-1.6l-11.1-15.4C779.9,80.3,782.1,80.3,784.3,80.4z M767.6,75.2
		c-2.9,0.1-5.8,0.2-8.7,0.3c-0.7,0-2.4,0.1-3.6,0.1l1.3-10.6C760.8,67.5,764.5,71.9,767.6,75.2z M740.8,56.8
		c0.6,1.4,1.2,2.8,1.8,4.2c-0.1,0,5.8,2.3,5.8,2.3v0.1l0.1-0.1c2.4-0.5,4.8,0,7,1.1l-0.6,11.2c-0.3,0-0.5,0-0.7,0
		c-4.5-0.2-8.1,2.9-8.5,7.3c-0.5,4.1,0.4,8,1.2,11.9c-5.7-0.1-11.4-0.1-17.1-0.1L740.8,56.8z M753.9,94.9c-0.4-2.1-0.9-4-1.3-6
		c-0.4-2.4-0.9-4.9-0.1-6.7c0.3-0.4,1.2-0.6,1.9-0.6c0.1,0,0.1,0,0.2,0l-0.1,0.9l0.1-0.9c5.9-0.2,12-0.7,18-1l14.2,15.2
		C775.8,95.3,764.8,95,753.9,94.9z M871.8,182.1C871.9,182.1,871.9,182.1,871.8,182.1L871.8,182.1z M1011,184.8
		c-7.9-0.4-15.9-0.7-23.8-0.9c-0.6-2.6-2.6-10.6-2.6-10.6l-0.3-1.1L983,172c-17.2-2.4-34.4-4.9-51.5-7.7c-0.4-0.1-0.9-0.1-1.3-0.1
		l-0.4-0.6l-0.6,0.5c-8.2-0.8-16.5-0.8-24.7-0.5l-0.3-0.5l-0.7,0.5c-1.2,0-2.3,0.1-3.5,0.2c-6.4,0.4-12.7,0.6-19,2.2
		c-0.4,0.1-0.6,0.2-1,0.4c-0.7,0.3-1.1,0.8-1.5,1.3c-3.1,4.5-3.7,10.3-7,14.5c-3.7-0.7-7.4-2.7-11-4.4c-8.7-4.3-17.2-9.2-25.5-14.2
		l0.4-11.6v-1.3c-2.4-2.5-4.9-4.7-7.5-6.7c-5.8-4.5-12.4-8.3-19.6-10l-0.3-0.1l-0.2-0.1l-0.7-0.2c-0.4-0.2-1-0.3-1.2-0.7
		c0.1-0.3,0-0.8,0.2-1.8c1.6-6.3,4.7-12.2,6.1-19c12,0.3,24,0.8,36,1.7c18.7,1.5,37.6,4,54.9,10.6c5.7,2.4,14.7,6.4,15.9,12.2v-0.1
		l0.1-0.3l1.2,5.9c5.6,4.6,12.6,6.8,19.4,9c17.2,4.9,34.9,7.3,52.6,8.7L1011,184.8z"/>
	
		<linearGradient id="SVGID_00000137131732680727283570000007582045616057498254_" gradientUnits="userSpaceOnUse" x1="748.3" y1="220.3323" x2="748.3599" y2="220.3323" gradientTransform="matrix(1 0 0 -1 0 283.7323)">
		<stop  offset="1.091287e-02" style="stop-color:#FFFFFF"/>
		<stop  offset="2.161343e-02" style="stop-color:#FFFFFF;stop-opacity:0.9925"/>
		<stop  offset="0.4385" style="stop-color:#FFFFFF;stop-opacity:0.7"/>
		<stop  offset="0.9535" style="stop-color:#FFFFFF;stop-opacity:0.9751"/>
		<stop  offset="1" style="stop-color:#FFFFFF"/>
	</linearGradient>
	<path style="fill:url(#SVGID_00000137131732680727283570000007582045616057498254_);" d="M748.4,63.4
		C748.3,63.4,748.3,63.4,748.4,63.4C748.3,63.4,748.3,63.4,748.4,63.4z"/>
</g>
<polygon class="st1" points="668,154.4 648.4,147.9 667.6,155.6 "/>
<linearGradient id="SVGID_00000131343472739033766920000000591231941190195860_" gradientUnits="userSpaceOnUse" x1="253.5" y1="178.9568" x2="703.8999" y2="178.9568" gradientTransform="matrix(1 0 0 -1 0 283.7323)">
	<stop  offset="0" style="stop-color:#FFFFFF"/>
	<stop  offset="1.097364e-02" style="stop-color:#FFFFFF;stop-opacity:0.9925"/>
	<stop  offset="0.4385" style="stop-color:#FFFFFF;stop-opacity:0.7"/>
	<stop  offset="0.9535" style="stop-color:#FFFFFF;stop-opacity:0.9751"/>
	<stop  offset="1" style="stop-color:#FFFFFF"/>
</linearGradient>
<path style="fill:url(#SVGID_00000131343472739033766920000000591231941190195860_);" d="M658.1,67.9c-0.5,0-0.9,0-1.4,0.1
	l-15.5-11.6l5.2-7.1l-5.7,6.7l-7.5-5.6l6.9,6.4l-5.5,6.5l-28.1-21L635.1,69c-20.1,1.1-40.1,3.1-59.5,8.7c-6.4,1.2-13.1,1-19.6,2.2
	c-1.3,0.2-2.9,0.6-4.2,1.3c-6.3,3.1-12.8,7.6-15.1,14.8c-1.6,4.7-0.7,9.8,1.7,14.1c-0.3,0.2-0.6,0.4-0.9,0.6
	c-4,2.5-8.1,4.5-12.5,6.1l-31.8-23.7l18.1,16.8l-16.9,0.7l18.1,0.4l7.9,7.4c-6.7,2.1-13.6,3.6-20.6,4.8c-11-2.6-21.7-16.3-29.3-28.7
	c0.6-0.1,1.3-0.2,1.9-0.4c3.8-0.8,7.4-2.2,10.9-3.9c4.6-2.2,8.9-5,12.8-8.2c4-3.4,8-6.9,10.3-11.8c0.9-1.9,0.9-4.4-0.9-5.8
	c-1.3-0.9-2.6-1.4-3.9-2c-6.1-2.6-16.8-6.6-28.3-9.6l-12.7-10.7l10.6,10.1c-9.7-2.4-19.8-4.1-28-3.6l-15.7-8.3l13.7,8.5
	c-3.2,0.4-6.1,1.1-8.5,2.3l-17.4-9.3l16.2,10c-0.7,0.4-1.4,0.9-2,1.5c-1.3,1.2-2.3,3.1-3.4,4.5c-1.8,2.3-3.9,4.5-6.4,5.9
	c-0.3,0.2-0.7,0.4-1,0.5c-4.6,0.8-9.3,1.6-13.9,2.5l-1.5,0.3v0.1c-0.3,0-0.6,0-0.9,0c-11,0.1-22-0.4-33-0.2v0.4L352,77.4l18.6-9.2
	l-0.2-0.3c4.4,0.1,8.9,0.2,13.3,0.3L381.9,81l-2.7,0.1l2.7,0.1l-1.1,7.5l1.6-7.5l16.2,0.4l-7,20.4l-18.9,0.8l18.5,0.4l-4.6,13.4
	c-0.6-0.3-1.2-0.6-1.7-0.9c-3.7-1.8-7.9-2.7-12-3.5c-2.9-0.5-5.9-1-8.8-1.3l-13.6-13.6l11.8,13.4c-3.1-0.3-6.2-0.5-9.3-0.6l0,0
	l-14.1-14l12.4,14c-2.1,0-4.1,0-6.2,0c-4.2,0.2-8.5,0.6-12.7,1.8l-13.6-13.5l12.6,14.1l0.2,0.7c0.1,0,0.2-0.1,0.3-0.1l0.2,0.2
	l0.2-0.3c4.1-1,8.4-1.2,12.8-1.2c12.4,0.3,25.2,2,36.8,6.4l0.7,0.3l0.7,0.4c0.7,0.4,1.4,0.9,2.1,1.3l-0.8,2.4
	c-1.2,0.6-2.3,1.2-3.4,1.9c-4.1,2.6-7.8,5.4-11.6,8.4c-0.1,0.1-0.2,0.1-0.2,0.2h-19.6l18.2,1.1c-2.2,1.9-4.7,4.3-7.4,6.9H343
	l16.4,1.1c-11.1,10.7-25.4,24.2-36.2,22.8c-3.4-0.6-7.1-1.3-10.6-2l-2.8-19l1.5,18.7c-1-0.2-1.9-0.4-2.8-0.6
	c-2.9-0.8-7.2-1.8-9.1-3.5c-0.4-2.2-1.5-4.2-2.3-6.2l12.7-12.7l-13.1,11.6c-0.6-1.5-1.3-3.1-1.9-4.7l13.1-13.1l-13.5,11.9
	c-1.3-3.4-2.4-6.9-2.7-10.5c0.1-5.8,1.9-11.7,4.1-17.1c1.6-1.4,2.6-3.1,3-5.1c0.8-5.9-4-10.3-8-13.8v-0.2h-0.1
	c-0.2-0.2-0.4-0.4-0.6-0.5c-5.4-4.5-11.3-8.3-17.4-12l-0.1-0.2l-0.2,0.1c-0.2-0.1-0.4-0.2-0.6-0.4l-0.5,0.7l-17.8,5.1l19.1-4.2
	c2.6,1.7,5.2,3.4,7.8,5.3c0.9,0.7,2,1.5,3.2,2.4l-27.1,7.8l28.9-6.3c1.1,0.9,2.3,1.8,3.4,2.8l-26.6,7.6l28.2-6.2
	c3.8,3.6,6.9,7.7,6.1,11.5c-0.3,1.5-1.4,3.1-2.7,3.9c-0.9,1.8-1.6,3.6-2.3,5.4l-20,0.8l19.5,0.5c-1.1,3.1-1.9,6.3-2.4,9.6
	c-0.8,7.5,2.4,14.4,5,21.1c0,0.1,0.1,0.1,0.1,0.2l-18.4,0.7l18.9,0.5c0.6,1.5,1.2,3,1.5,4.6c1.3,5.2,16.3,7.2,21.2,8.4
	c3,0.5,6.8,1.6,9.8,1.3c14.4-1.6,29.8-18.2,41.7-29v17.2l1.2-18.2c1.1-0.9,2.1-1.8,3.1-2.7c4.7-3.6,9.5-7.4,14.8-10l1.4-1.4l0.9-2.6
	c0.4,0.2,0.7,0.4,1.1,0.6c6.4,3.1,13.3,5.1,20.2,6.6c1.7,0.4,3.4,0.7,5.2,1l-11.8,10.1l13-9.9c5.6,0.9,11.3,1.6,16.9,2.1l-14.4,9
	l16.3-8.9c7.8,0.6,15.6,0.9,23.4,1c11.1,0,25.8-0.2,40.5-1.9c0.5,0.1,1,0.2,1.5,0.2V132c18.4-2.3,36.6-7,47.4-16.5
	c0.4-0.3,0.8-0.8,1.1-1.2l-0.5-7c0.1,0,0-0.1,0-0.1c-5.9-7.4,1.1-12,7.7-14.9c2.6-0.6,8.2-0.7,11.5-0.9c0.8-0.1,1.7-0.1,2.5-0.2
	l26.2,22.9c-1.5,0-3,0-4.5-0.1l-4.5,4.4c-0.5,2.5-2,4.4-4,6l-15.8-8.4l14.7,9.1c-4.6,3.1-11.2,4.6-15.6,6.3l-28.7,9.5l0,0l-0.1,0.1
	l-0.4,0.1l0.1,0.2l-15,13.4l16.2-12.8l26.5-5.1l-2.5,17.9l3.8-18.1l1.6-0.3c2.6-0.6,5.7-1.1,8.7-1.7l-2.4,17.3l3.6-17.6
	c2-0.5,3.9-1,5.6-1.7c4.5-1.8,9.3-5.1,11.5-9.7c10.7,0,31.8,0,36.4-6.6c1.4-2.1,1.8-4,2.1-6.2c0.6-5,0.2-10-0.2-14.8
	c-0.2-2.8-0.7-6.8-1-10.6c23.2-0.5,46.6,0.2,69.6,1.5l0.6-18.6C688.5,67.3,673.4,67.4,658.1,67.9z M475.5,115l-14.4,5.4
	c-0.7-2-1.2-4-1.6-6.1c-1.2-5.9-1.6-13.3,3.7-17.2c0.1-0.1,0.2-0.1,0.3-0.2C466.9,103,470.9,109.4,475.5,115z M502.5,67.9
	c-0.6,2.2-2.6,4.2-4.1,5.9c-6.7,6.5-14.9,11.7-23.8,14.4c-2.3,0.7-4.6,1-6.9,1.4c-1.8-3.1-3.3-6.1-4.6-8.6c0.1-1,0.1-2.1,0.1-3.2
	l0.3,0.2l8.4-13.1l13.4-4l-0.1-0.4c2.6,0.9,5,1.8,6.9,2.6l-16.7,6.2l18.3-5.5C496.7,65.1,500.1,66.4,502.5,67.9z M471.9,64.5
	l-6.3,2.3l5.8-1.7l-8.2,11.2c-0.1-6.2-1.2-13-6.7-15.7c-0.8-0.3-1.6-0.6-2.5-0.6c-0.3,0-0.6,0-1,0l15.3-4.6
	c5.5,1.5,10.8,3.2,15.4,4.8l-11.5,4.3l2.4-3.7L471.9,64.5z M429.3,57.9c0.6-0.8,1.3-2.1,2.1-2.7c6.6-5.6,21.1-4,34.9-0.5l-13.9,5.2
	c-4.3,0-8.5,0.7-12.7,1.1c-5.1,0.7-10.2,1.5-15.3,2.3C426.1,61.9,427.7,60.1,429.3,57.9z M382.4,81l2.6-12.6l-0.8-0.1
	c4.9,0.2,9.8,0.4,14.7,0.5c1.4,0,2.7,0.1,4,0.1L399,80.4L382.4,81z M439,127.2c-4.5-0.2-9.1-0.4-13.6-0.7l-13-13l11.3,12.8
	c-3.6-0.3-7.2-0.7-10.8-1.3l-11.5-11.5l9.9,11.3c-7-1.2-13.9-3.1-20.3-6l16.6-46.9c5.2-0.8,10.4-1.6,15.7-2.4
	c1.3-0.2,2.5-0.4,3.8-0.5l-2.5,17.4l3.6-17.6c5.1-0.7,10.2-1.4,15.3-1.9l-2.8,19.5l4.1-19.6c1.4-0.1,2.8-0.2,4.2-0.3
	c1.3,0,2.6-0.1,3.9,0h0.4h0.2c0.4,0.1,0.6,0.2,1,0.6c1.2,1.5,1.7,4.2,1.8,6.3c0.2,2.9,0.1,6-0.3,8.9l0.4,0.9
	c1.2,2.7,2.7,5.7,4.3,8.8c-0.3,0.2-0.7,0.4-1,0.7c-3.1,2.3-5,5.1-6.1,8.3l-12.8-10.8l12.5,12c-0.8,2.8-0.9,5.9-0.7,9l-15.9-2.8
	l16,3.9c0.2,2.3,0.7,4.6,1.3,6.9l-17.3-3.1l17.6,4.3c0.6,2.3,1.4,4.6,2.1,6.7C450.7,127.2,444.8,127.3,439,127.2z M463.6,126.8
	c-0.9-2-1.7-4.1-2.4-6.2l15.1-4.6c2.9,3.4,5.9,6.5,9.2,9.1C478.3,126,471,126.5,463.6,126.8z M541.3,107.5L541.3,107.5L541.3,107.5
	L541.3,107.5z M625.3,87.9l-18.7,6.9l18.8-5.7c0.2,2.4,0.4,4.6,0.6,6.7c0,0.3,0,0.5,0.1,0.8l-15.1,5.6l15.1-4.6
	c0.2,2.4,0.3,4.7,0.3,7c0,2.1,0,4.5-0.8,6.4c0,0-0.2,0.1-0.4,0.2c-4.4,1.8-9.3,2-14.1,2.4c-2.9,0.2-5.8,0.3-8.8,0.4l-30-22.9
	c3-0.2,6.1-0.5,9.1-1.4c10.6-2.5,21.5-3.5,32.4-4.3c3.7-0.2,7.5-0.4,11.2-0.5C625.1,85.9,625.2,86.9,625.3,87.9z M641.7,68.6
	l-6.2-4.6l5-6.8l11.8,10.9C648.8,68.3,645.3,68.5,641.7,68.6z"/>
<linearGradient id="SVGID_00000174567469009284269880000012025634079456999563_" gradientUnits="userSpaceOnUse" x1="191.2" y1="73.6823" x2="686.2" y2="73.6823" gradientTransform="matrix(1 0 0 -1 0 283.7323)">
	<stop  offset="0" style="stop-color:#FFFFFF"/>
	<stop  offset="1.097364e-02" style="stop-color:#FFFFFF;stop-opacity:0.9925"/>
	<stop  offset="0.4385" style="stop-color:#FFFFFF;stop-opacity:0.7"/>
	<stop  offset="0.9535" style="stop-color:#FFFFFF;stop-opacity:0.9751"/>
	<stop  offset="1" style="stop-color:#FFFFFF"/>
</linearGradient>
<path style="fill:url(#SVGID_00000174567469009284269880000012025634079456999563_);" d="M679.5,154.6c-11.6,6.8-19,18.1-27.7,27.5
	c-4,4.4-8.1,8.6-12.4,11.9c-2.1,1.8-5.5,2.7-8.5,3c-12.1,1.1-28.6-6.1-35.3-16.4c-1.8-2.8-2.4-5.7-4.8-8.6
	c-5.5-6.7-12.9-5.7-18.9-1.8l-39.3-30l36.7,31.9c-1,0.8-1.9,1.7-2.7,2.6c-1,1-1.9,2-2.7,3.1l-10.9,0.4l-1.4-4.5l1.1,4.5l-7.1,0.3
	l7.2,0.2l1.1,4.7l-31.9,3l37.4,0.6l-4.1,8.9l-40,3.8l25.8,0.3l-15.3,8.7l17.6-8.6l9.9,0.1l-8.5,18.5c-6.7,1.5-13.6,2.7-20.3,3.3
	c-4.7,0.3-9.7,0.6-13.3-1.1c-0.9-1.4-2-2.6-3.2-3.7c-3.5-3.3-7.5-6-11.4-8.5c-3.4-2.1-6.9-4.2-10.5-6.2l-5.7-39.3l1.3,36.9
	c-12.7-6.8-26.4-12.6-40.2-15.9c-0.4-1.4-0.7-2.8-1-4.3l17.6-11l-17.8,9.6c-0.4-1.9-0.7-3.9-0.9-5.8l14.7-9.2l-14.9,8.1
	c-0.1-0.6-0.2-1.2-0.2-1.8c-0.5-3.2-0.7-6.2-1.6-9.3c-0.4-1.4-1-3.1-2.6-4c-1-0.6-2.2-0.4-3.2-0.3c-7.1,0.3-14.3,0.2-21.5,0.2
	l-18.2-0.1h-0.4l-0.3,0.1l-1.3-9l0.3,9.4c-10.6,4.5-21.2,8.9-32,12.6c-2.5,0.8-5,1.7-7.6,1.9c-5.5-1-11.2-15.9-13.1-21l-0.2-0.7
	l-0.6-0.2l-8.6-2.8l-2.7-19.3l1.5,18.8l-7.8-2.6l-2.7-19l1.4,18.6l-34.4-11.4L283,131l-0.6,0.3h-0.1l-0.1,0.2L265.6,142l17.3-9.5
	l52.5,19.3c1.6,4.3,4.7,12.6,8.7,17.9l-15.9,10.1l16.6-9.1c2.1,2.4,4.3,3.9,6.8,3.6c2.7-0.3,5.3-1.2,7.9-2c5.7-1.9,11.3-4,16.8-6.2
	c4.7-1.8,9.3-3.7,14-5.6l1,28.9c-3.3,1.1-6.5,2.3-9.8,3.5L340,181.2l21.1,8.4l-16.5,0.6l19.4,0.6l11,4.4c-1.6,0.6-3.2,1.2-4.9,1.8
	l-22.3,8.4c-3.6,1.3-7.1,2.6-10.7,3.9l-32.8-25.4l16.6,14.6l-17.9,0.7l19.2,0.5l12.1,10.6c-4.9,1.7-9.9,3.2-15,3.9
	c-2-0.1-4-0.1-6.1-0.2l-32.5-24l28.4,23.8c-6.8-0.4-13.7-1.1-20.4-2.2L258,187.7l26.1,23.1c-9.3-1.9-18.4-4.7-26.9-9.1
	c-6.6-3.1-12.5-8.1-18.3-12.5c-9.6-6.5-21.2-10.1-32.9-9.5c-5,0.3-10,1.1-14.8,2.8l0.4,0.9c4.1-1.4,9.9,2.4,14.3,2.1
	c6.5-0.4,14.4,2.2,20.8,3.4c9,1.6,13,5.6,20.1,10.7c7.5,5.4,16.7,8.7,25.5,11.5c0.1,0,0.2,0.1,0.3,0.1l-34.5,14.5l38.3-13.3
	c4.2,1.2,8.5,2.2,12.9,3l0.2,0.2l0.1-0.1c3.3,0.6,6.7,1.1,10,1.5l-11.1,9.5l-19.6,0.8l18.2,0.5L271.5,241l31.5-23.7
	c3.8,0.4,7.5,0.7,11.3,0.9c1.8,0.2,3,0.4,4.6,0.4l-9,15.2l10.4-15.3c0.1,0,0.2,0,0.3,0c9.6-1.2,18.5-4.6,27.4-7.6l-9.2,15.5
	l10.9-16.1c0,0,0,0,0.1,0c21.7-7.2,45.4-16.8,67.7-21.3c8.3-1.1,17.8,0.6,27.4,3.7l-32.8,18.4l38.6-16.4c7.7,2.9,15.3,6.5,22.1,10
	l-24.3,7.1l26.5-5.9c2.6,1.4,5,2.7,7.2,4c0.2,0.1,0.4,0.2,0.5,0.3l-26.4,7.6l28.6-6.3c6,3.6,12.1,7.6,17.1,12.3
	c1.1,1,1.6,2.1,2.5,3.2c5.4,5.6,14.3,4.8,21,4.7c7.8-0.4,15.4-1.6,23-3.2c0.6,2.7,1.5,5.3,2.3,7.9l-42.2,4l32.2,0.4l-8.9,15.1
	l10.2-15.1l9.9,0.1c0,0.1,0.1,0.2,0.1,0.3c0.8,3.3,0.9,6.1,0.4,8.6l-0.1,0.1c-1,4.8-4.4,8.2-9.6,11.8c-4.9,3.3-10.4,3.7-16.3,3.7
	c-3,0-6.1,0.4-9,0.2c-6-0.2-12.4-3-13.4-9.4c-0.2-0.9-0.6-1.8-1.2-2.4c-4.7-4.7-16.7-6.3-25.8-7v-0.1l-20.8-8.2l17,8
	c-1.1-0.1-2.1-0.1-3-0.2c-1.9,0-5.8-0.2-10-0.1l-19.5-7.7l16.6,7.8c-4,0.2-8.1,0.7-10.8,1.8l-20.3,0.9l18.1,0.3
	c-0.5,0.4-0.8,0.8-1,1.4c-0.8,3.4-1.5,6.8-2.7,10c-2,5.5-5.3,10.6-9.9,14.2c-11.6,9.3-36.7,12.6-51.5,14.6c-6,0.8-12.1,1.3-18.1,1.4
	c-6.1,0.1-11.6-2.5-17.2-4.7c-5.4-2.2-11.3-3.2-17.1-3.3l-0.2-0.2l-0.2,0.2c-0.2,0-0.3,0-0.5,0v0.4l-14.4,12.3l15.5-11.7
	c5.7,0.2,11.3,1.3,16.5,3.5c5.6,2.3,11.4,5.1,17.6,5.1s12.2-0.5,18.3-1.1c12.1-1.3,24.2-3.2,36-6.5c6-1.7,12-3.9,16.9-7.8
	c5-3.8,8.7-9.3,10.9-15.2c0.4-0.9,0.7-1.9,1-2.9l13.7,11.5l-13.3-12.7c0.6-2.1,1.1-4.1,1.5-5.9c1.6-1.2,3.9-1.4,5.9-1.7
	c4.1-0.5,8.2-0.6,12.3-0.5l-8.8,15l10.2-15c1.4,0,2.8,0.1,4.2,0.2c8.9,0.6,18,1.5,26.3,4.5c1.5,0.7,3.1,1.3,3.8,2.5
	c0.7,4.3,3.5,8.5,7.5,10.5c6,3.2,12.5,2.5,18.9,2.4c0.7,0,1.5,0,2.2,0l-8,13.6l9.2-13.6c3.3-0.1,6.5-0.5,9.5-1.5l-4.8,16.2l6.2-16.6
	c3-1.1,5.8-2.7,8.4-5.1c0.8-0.6,1.6-1.3,2.3-2.1l9.6,16.2l-8.7-17c2-2.2,3.6-4.7,4.5-7.5l13.6,7.3l-13.3-8.3
	c0.1-0.4,0.2-0.8,0.2-1.2c1.5-8.6-2.8-16.6-4.2-24.7l0.1-0.2l19.3-40.2c1.5-1.8,3.3-3.7,5.1-5c1.2-0.8,2.6-1.7,3.6-1.6
	c0.7,0.4,1.5,1.9,2,3.2c0.5,1.2,1.3,2.7,1.8,3.8c0.4,0.6,1.2,1.8,1.5,2.4c0.5,0.9,1.9,2.4,2.5,3.3c1.9,2.2,4,4.2,6.3,6l-16.4,0.7
	l17.8,0.4c2.3,1.7,4.7,3.3,7.3,4.6l-17.1,0.7l19.4,0.5c5.2,2.5,10.8,4.1,16.4,5c0.5,0.1,1.5,0.2,2.2,0.3l12.7,45.8l-9.6-45.6
	c2.7,0,5.7-0.2,8.3-0.7c10.3-1.7,18.6-11,25.4-18c4.3-4.6,8.3-9.3,12.3-13.7c3.6-3.9,7.6-8.1,12.1-10.5L679.5,154.6z M428.9,181.8
	c-8.2-1.1-16.9,1-24.7,3.4c-2.8,0.8-5.6,1.7-8.4,2.6l-4.1-28c0.3-0.1,0.6-0.3,0.9-0.4c7.5,0.1,16.3,0.3,24.7,0.4l-14.1,9l16.2-9
	c4.9,0,9.6,0,13.9-0.2c-0.1,0,0,0,0.1,0.2c1.4,3,1.5,6.8,2,10.2c0.5,4.3,1.1,8.8,2.1,13.2C434.7,182.6,431.8,182.1,428.9,181.8z
	 M562.8,179.3l-0.2,0.5l-1.3,2.9l-6.8,0.6l-1.4-4.6l9.9,0.2L562.8,179.3z"/>
<polygon class="st1" points="333.1,303.3 313.2,304 333.1,304.5 "/>
<g>
	<path class="st1" d="M725.2,495.5c-0.1,8-0.8,16-1.7,23.8c-0.7,7.2-2,15-0.8,21.9c0.1,0.6,0.3,1.1,0.4,1.7c0,0.1,0,0.1,0,0.1
		c0,0.1,0,0.1,0.1,0.1c0.2,0.3,0.3,0.4,0.6,0.7c8,5.2,27.6,4.5,37.5,4.2l-1.6,0.9l11.8-12.6l0.5-0.5l0.7,0.1c-0.3,0,38.6,5,37.7,4.9
		l19.3-4.2l0.2,1l-19.3,4.2c0,0.1-38.1-3.5-38.2-3.5l1.1-0.5l-9.9,14.1l-0.5,0.7l-1.2,0.2c-10.9,1.2-38.7,4.7-45.6-5.4
		c-0.8-1.3-1.3-2.8-1.7-4.3c-2.1-8.4-1.3-16.3-1.1-24.6c0.3-7.6,0.4-15.2-0.1-22.8L725.2,495.5L725.2,495.5L725.2,495.5z"/>
	<polygon class="st1" points="719.1,510.3 759.9,528.2 721,505.9 	"/>
	<polygon class="st1" points="747.3,553.5 755.3,571 746.1,554 	"/>
	<polygon class="st1" points="729.7,550.5 737.7,568 728.5,551 	"/>
	<polygon class="st1" points="731.5,512.9 739.5,530.4 730.4,513.5 	"/>
	<polygon class="st1" points="781.7,538.1 789.7,555.5 780.5,538.6 	"/>
</g>
<g>
	<path class="st1" d="M714.9,464.4c-9.1,12.2-30.3,33.5-23.6,50.3c1.7,4,5.5,6,6.2,10.5c1.8,8-1.6,19.9-9.9,22.9
		c-1.6,0.5-3.5,0.2-5.2,0c-19.5-1.7-38-7.8-53.6-19.7c-6.5-5.2-14-10.3-17.8-17.9c-0.2-0.8-0.6-2-0.7-2.9
		c-0.2-6.1-5.3-10.3-9.6-13.8l-1.2,1.5c2.9,2.7,6.6,5.7,7.7,9.6c0.5,2,0.3,4.5,1.1,6.6c3.6,8.5,11.2,14.2,17.9,20.1
		c15.4,13,35.2,20.6,55,23.2c11.5,3.1,20.1-6.4,23.3-16.3c2.8-8.3,2.4-18.8-4-25.7c-4.3-6.2,2.6-15.4,6.5-21.1
		c4.9-6.8,10.8-13.1,16.6-19.8L714.9,464.4L714.9,464.4L714.9,464.4z"/>
	<polygon class="st1" points="601.1,494 569.4,511.1 602.2,496 	"/>
	<polygon class="st1" points="697.9,497 666.2,514.1 699,499.1 	"/>
	<polygon class="st1" points="695.5,514.4 663.9,531.5 696.6,516.4 	"/>
	<polygon class="st1" points="703.9,483.8 668.3,478.1 703.5,486.1 	"/>
	<polygon class="st1" points="684.7,552.5 653,569.6 685.8,554.6 	"/>
	<polygon class="st1" points="630.6,532.7 598.4,516.4 629.5,534.8 	"/>
</g>
<polygon class="st1" points="682.3,216.6 617.8,237.5 651.7,218.2 680.2,207.4 "/>
<linearGradient id="SVGID_00000163066881490517523670000010267474917239235475_" gradientUnits="userSpaceOnUse" x1="616.8" y1="120.4823" x2="682.3" y2="120.4823" gradientTransform="matrix(1 0 0 -1 0 283.7323)">
	<stop  offset="0.4385" style="stop-color:#FFFFFF;stop-opacity:0.7"/>
	<stop  offset="0.9535" style="stop-color:#FFFFFF;stop-opacity:0.9751"/>
	<stop  offset="1" style="stop-color:#FFFFFF"/>
</linearGradient>
<polygon style="fill:url(#SVGID_00000163066881490517523670000010267474917239235475_);" points="682.3,157.4 680.2,148.2 
	651.7,159.1 645.7,162.5 629.9,157.4 644.5,163.2 636.5,167.7 636.5,167.7 616.8,161.2 635.1,168.5 617.8,178.3 "/>
<linearGradient id="SVGID_00000142174859209083219350000000088927211404079538_" gradientUnits="userSpaceOnUse" x1="635.6" y1="-24.2177" x2="700" y2="-24.2177" gradientTransform="matrix(1 0 0 -1 0 283.7323)">
	<stop  offset="0.4385" style="stop-color:#FFFFFF;stop-opacity:0.7"/>
	<stop  offset="0.9535" style="stop-color:#FFFFFF;stop-opacity:0.9751"/>
	<stop  offset="1" style="stop-color:#FFFFFF"/>
</linearGradient>
<polygon style="fill:url(#SVGID_00000142174859209083219350000000088927211404079538_);" points="700,302.1 697.9,292.9 
	669.5,303.7 669,304 651.1,304.7 667.1,305.1 635.6,323 "/>
<polygon class="st1" points="714.5,393.5 650,414.4 683.9,395.1 712.4,384.2 "/>
<polygon class="st1" points="719.3,447 654.9,467.9 688.7,448.7 717.2,437.8 "/>
<polygon class="st1" points="697.2,518.8 632.7,539.7 666.6,520.4 695,509.6 "/>
<linearGradient id="SVGID_00000142859068029016981290000007980301051634126005_" gradientUnits="userSpaceOnUse" x1="232.6001" y1="-182.4677" x2="728.9" y2="-182.4677" gradientTransform="matrix(1 0 0 -1 0 283.7323)">
	<stop  offset="0" style="stop-color:#FFFFFF"/>
	<stop  offset="1.097364e-02" style="stop-color:#FFFFFF;stop-opacity:0.9925"/>
	<stop  offset="0.4385" style="stop-color:#FFFFFF;stop-opacity:0.7"/>
	<stop  offset="0.9535" style="stop-color:#FFFFFF;stop-opacity:0.9751"/>
	<stop  offset="1" style="stop-color:#FFFFFF"/>
</linearGradient>
<path style="fill:url(#SVGID_00000142859068029016981290000007980301051634126005_);" d="M728.1,440.7l0.8-18.4
	c-20.2-0.3-40.3-0.2-60.4,0.2c-38.3,1.2-76.9,1.9-114.7,9.3c-2.8-8.3-4.9-16.2-9-24c-1-1.8-2.8-4.2-5-5.1c-3-1.1-6.2-1.2-9.1-1.4
	c-8.7-0.4-17.2-0.2-25.8,0.5c-1.5,0.1-3,0.3-4.5,0.4l-11.7-15.6l10.3,15.8c-3.1,0.3-6.1,0.8-9,1.7l-19-7.6l17.2,8.1
	c-3,1.1-5.2,3.1-6.8,5.5l-19.4-7.7l18.7,8.9c-1.7,3.1-2.6,6.9-2.6,10.5c-8.9-3.3-17.8-6.3-26.9-8.9l0.1-0.1l-26.2-23.6l20.9,22.3
	c-16.2-4.3-32.7-7.4-49.4-8.5c-1.2,0-2.4-0.1-3.6-0.1l0,0l0,0c-3.9-0.1-8-0.2-11.7-0.2c-20-0.8-40.3-3.9-59-11.5l-0.3-0.4
	l-20.3,17.3l20.9-15.7c4.8,2.1,9.8,3.8,14.8,5.3l-15.8,13.6l17.4-13.1c0.6,0.2,1.2,0.3,1.8,0.5c13.2,3.5,26.8,5.5,40.5,6.3
	c2.9,0.1,5.9,0.2,8.9,0.3l-12.4,10.5l14-10.4c2.6,0.1,5.1,0.3,7.6,0.5l-14.8,12.6l16.6-12.4c0.1,0,0.3,0,0.4,0
	c4.9,0.5,9.9,1.3,14.8,2.1l-19,16.3l21.1-15.9c5.5,1,11,2.3,16.5,3.6l-18.8,16.1l20.8-15.6c15.8,4.1,31.2,9.6,46.2,15.8
	c-0.1-1.8-0.6-4.7-0.6-6.6c0-4.5,1.4-9.5,5.3-12c1.1-0.7,2.5-1.2,3.7-1.5c4.4-0.9,9.1-1.2,13.7-1.4c8.3-0.3,16.7,0,24.9,1.1
	c2.3,0.4,4.6,0.6,6.6,1.4l0,0c0.2,0.2,0.6,0.9,0.9,1.7c2.7,7.3,3.4,15.7,3.4,23.5c-2.4,0.7-5,1.4-7.7,2.3l-20.1-7.9l18.2,8.5
	c-16,5.4-33.9,14.3-34.9,29.4c-21.7,14.4-68.7,18.6-96.5,20.3l-22.3-20.1l19,20.3c-0.2,0-0.3,0-0.5,0c-12,0.6-24.1,0.8-36,0
	c-1.8-0.1-3.5-0.3-5.3-0.4l-24.7-22.3l20.6,21.9c-8.6-1-17.2-2.7-25.3-6c-8.2-3.2-15.2-8.4-20-15.8c-1.9-2.7-3.5-5.6-6.7-7.2
	l-5-19.4l3.6,18.7c-0.9-0.4-1.8-0.9-2.7-1.5c-1.6-0.9-3.2-2-4.9-3l-4.7-18.3l3.3,17.4c-16.3-10.5-37.9-25.5-55.9-21.5l11.8,8.1
	c16.4-3,23.4,3.4,36.6,12.5l-18.1,6.6l19.4-5.8c2.5,1.8,5.3,3.8,8,5.7l-17.1,6.2l18.3-5.4c1.8,1.2,3.6,2.3,5.4,3.2
	c1.8,0.8,3.3,3.5,5,6c1.7,2.6,3.6,5.2,5.8,7.5c8.9,9.3,21.5,13.5,33.7,16.2c0.9,0.2,1.7,0.3,2.6,0.5l-11.5,4.2l13.3-3.9
	c3.8,0.7,7.6,1.2,11.4,1.6l-12.4,9.2l13.9-9.1c3.8,0.4,7.7,0.7,11.5,0.9l-14.7,11l16.6-10.9c8.1,0.4,16.3,0.4,24.4,0.3
	c3.3-0.1,6.5-0.2,9.8-0.3l-8.8,19.1l10.4-19.1c1.9-0.1,3.7-0.1,5.6-0.2l-8.7,18.7l10.2-18.8c13.7-0.7,27.4-1.8,41-4l-3.6,8.6
	l-21.2,5.4l20.5-3.8l-3.2,7.7l-0.1,0.5l-20.3,5.2L448,510l-8.7,35.8l10.3-26.6l9.4-1.8l0.7,4.9l-0.3-5l8.8-1.7l-6.3,25.5l12-30.9
	l13.2,14.5l-12.7-15.8l2-5l4-6.6l14.3,15.7l-13.5-17l8.6-14.2c2.3-0.9,4.6-1.8,6.9-2.8c3.3-1.6,6.5-3.2,9.3-5.9l1.1-5.6l0.1,0.3
	c0-1.1,0.3-2.1,0.9-3.2c7.1-11.4,29.2-16.4,42.1-19.4c19-3.8,39-5,58.5-5.8c11.3-0.4,22.6-0.6,33.9-0.7l-7.5,18.1l-9.2,37.8
	l14.4-37.1l7.1-11.7L664,455l-15.9-9.8l3.8-6.2C677.4,438.9,702.8,439.6,728.1,440.7z M449.7,519.4l4.1-10.5l3.4-5.6L459,517
	L449.7,519.4z M471.3,503.5l-2.7,11l-9.2,2.4l-1.1-15.4l8-13c1.1-0.2,2.3-0.4,3.4-0.7c3-0.7,6-1.4,9-2.2L471.3,503.5z"/>
<g>
	
		<linearGradient id="SVGID_00000175291994752961650560000011147573139191857793_" gradientUnits="userSpaceOnUse" x1="520.691" y1="-37.6677" x2="520.7443" y2="-37.6677" gradientTransform="matrix(1 0 0 -1 0 283.7323)">
		<stop  offset="0" style="stop-color:#FFFFFF"/>
		<stop  offset="1.097364e-02" style="stop-color:#FFFFFF;stop-opacity:0.9925"/>
		<stop  offset="0.4385" style="stop-color:#FFFFFF;stop-opacity:0.7"/>
		<stop  offset="0.9535" style="stop-color:#FFFFFF;stop-opacity:0.9751"/>
		<stop  offset="1" style="stop-color:#FFFFFF"/>
	</linearGradient>
	<path style="fill:url(#SVGID_00000175291994752961650560000011147573139191857793_);" d="M520.7,321.4L520.7,321.4L520.7,321.4
		C520.8,321.4,520.7,321.4,520.7,321.4z"/>
	
		<linearGradient id="SVGID_00000034091037556304365530000013418112116048071058_" gradientUnits="userSpaceOnUse" x1="229.6" y1="-53.5177" x2="718.6" y2="-53.5177" gradientTransform="matrix(1 0 0 -1 0 283.7323)">
		<stop  offset="0" style="stop-color:#FFFFFF"/>
		<stop  offset="1.097364e-02" style="stop-color:#FFFFFF;stop-opacity:0.9925"/>
		<stop  offset="0.4385" style="stop-color:#FFFFFF;stop-opacity:0.7"/>
		<stop  offset="0.9535" style="stop-color:#FFFFFF;stop-opacity:0.9751"/>
		<stop  offset="1" style="stop-color:#FFFFFF"/>
	</linearGradient>
	<path style="fill:url(#SVGID_00000034091037556304365530000013418112116048071058_);" d="M718.6,361.4l-9.7-16.5l-0.6,0.3
		c-1.7,1-3.4,1.9-5.1,2.8c-18.3,9.2-38.3,15.2-58.7,17.1c-4.4,0.4-8.9,0.5-13.3,0.5c-3.4-4.2-7.6-9.9-10.9-14.1
		c-1.3-1.6-2.5-3.4-4.3-4.9c0,0-0.2-0.2-0.5-0.4c-0.3-0.2-0.4-0.2-0.9-0.5c-1-0.5-2.6-0.8-3.1-0.8H611h-1.9
		c-13.3-0.3-26.6,0.8-39.8,1c-5.8,0-11.1,0-16.5-1.1c-3.2-0.7-6.8-1.6-9.9-2.6c-7.6-2.4-16.4-6-20.8-12.4c-1.7-2.6-2.4-5.5-1.4-8.4
		l-0.8-6.1c-5.1-4.6-11.6-7-17.9-9.2c-8.8-2.9-17.6-4.6-26.6-6.1c-9.7-1.4-19.2,2.3-27.9,4.7c-9.7,2.9-19.4,4.9-29.4,4.6
		c-7.2,0.1-14.8,0.4-22,0.4c-2.9,0-5.8,0-8.3-0.4c-8.4-1.3-16.5-4.1-24.2-8c-5.7-3.1-9.9-4.7-14.3-4.7l-11.9-13.8l10.5,13.8
		c-3.4,0.3-6.9,1.5-11.5,3.9c-1.9,1-3.6,2.2-5.3,3.5l-17.9,0.6l16.5,0.5c-1.6,1.4-3.1,2.8-4.5,4.4l-17.5,0.6l16.5,0.5
		c-0.6,0.7-1.1,1.3-1.6,2c-1.3,1.6-2.4,3.4-4,4.5c-1.5,0.9-3.8,1.2-5.6,1.6c-4.3,0.8-8.6,1.1-13,1.3c-2.5,0.1-5.1,0.2-7.6,0.3
		l-11.8-13.7l10.3,13.7c-4.4,0.1-8.8,0-13.1-0.1l-11.7-13.6l10.3,13.6c-3.9-0.1-7.8-0.4-11.6-0.7c-5.8-0.4-11.7-1.1-17.4-2.3
		l-0.1,0.7l-17.7,7.2l18.9-6.4l-0.1-0.2c4.5,1.1,9,1.8,13.5,2.4l-12.4,14.2l14-14c0.4,0,0.8,0.1,1.2,0.1c2.4,0.3,4.8,0.5,7.2,0.7
		l-10.9,15l12.3-14.9c1.6,0.1,3.2,0.3,4.8,0.4l0.1,0.1l0.1-0.1c1.7,0.1,3.4,0.2,5.1,0.3l-4.4,18l5.6-18c5.1,0.2,10.3,0.3,15.4,0.3
		c0.3,0,0.5,0,0.8,0l-4.3,17.7L302,323c3.8-0.1,7.6-0.2,11.4-0.8c3.1-0.4,6.9-1,9.1-3.5c4.8-5.4,9.4-11,16-14
		c4.4-2,9.3-3.9,14.1-2.5l-8.8,14.9l9.8-14.5c5.2,2.1,10.3,5.6,15.7,7.8c8.5,3.5,17.6,6,26.8,6.1c7.4,0.3,14.8,0.3,22.1,0.4
		c4.4,0.2,9.3,0.2,13.7-0.3c11.7-1.1,23.4-5.6,34.6-7.2c5.6-0.9,10.5,0.8,15.8,1.9c9.3,2.4,19.6,5.1,27.4,10.2
		c-3.3,20.1,20.6,30.7,36.7,35.1c7.3,2.3,15.6,3,22.9,3.1c12.8,0.4,25.5-0.3,38.3,0.4c3.4,4.5,6.9,9.6,10.3,14.2l-18.9,2.6
		l-37.3,11.3l31-5l-15,8.5l18.6-9.1l0,0l4.8-0.8l28,0.4v-0.3C660.1,383.4,691.4,375.9,718.6,361.4z M606.4,358.3l-0.1-0.1
		c0,0,0.1,0.1,0.2,0.2l0,0C606.4,358.3,606.4,358.3,606.4,358.3z"/>
</g>
<linearGradient id="SVGID_00000041975964951330947530000008131991807547844501_" gradientUnits="userSpaceOnUse" x1="696.2" y1="147.3823" x2="760.6" y2="147.3823" gradientTransform="matrix(1 0 0 -1 0 283.7323)">
	<stop  offset="0.1507" style="stop-color:#FFFFFF"/>
	<stop  offset="1" style="stop-color:#FFFFFF;stop-opacity:0.7"/>
</linearGradient>
<polygon style="fill:url(#SVGID_00000041975964951330947530000008131991807547844501_);" points="696.2,130.6 760.6,151.4 
	726.7,132.2 698.3,121.3 "/>
<linearGradient id="SVGID_00000091710067626620437020000015661958290420652187_" gradientUnits="userSpaceOnUse" x1="723.3" y1="-100.0177" x2="787.8" y2="-100.0177" gradientTransform="matrix(1 0 0 -1 0 283.7323)">
	<stop  offset="0.1507" style="stop-color:#FFFFFF"/>
	<stop  offset="1" style="stop-color:#FFFFFF;stop-opacity:0.7"/>
</linearGradient>
<polygon style="fill:url(#SVGID_00000091710067626620437020000015661958290420652187_);" points="723.3,377.9 787.8,398.8 
	753.9,379.5 725.4,368.7 "/>
<g class="st21">
	<path class="st1" d="M710.5,519.8c-0.4,0-0.7,0-1.1-0.1c-3.1-0.6-5.1-3.6-4.4-6.7c0.3-1.4,7.1-35.5,8.1-40c0.5-2.5,1.4-5.3,2.5-8.8
		s2.4-7.8,3.9-13.4c2.1-7.7,5.9-14,8.7-17.7l-17.9-24.2c-0.6-0.8-1-1.7-1.1-2.7c-1.6-14.6-2.3-23.2-2-25.3c0.3-1.8,0.8-5,11.9-10.5
		c0.2-1.7,0.4-4.1,0.2-6.3c-0.1-1-0.4-1.4-2.6-3.8c-1.7-1.8-4-4.3-6.4-8.1c-4.9-7.6-4.2-11.4-2.5-16.7c0.5-1.5,1-3,1.4-5.1
		c0.9-4.9-1.6-11.3-3-14.7c-0.9-2.2-1.3-3.3-1.3-4.9c0-0.3,0-1.3-0.1-2.5c-0.1-4.1-0.4-11.7,0-16.9c0.2-3.3-0.1-6.2-0.6-10.7
		c-0.4-3.3-0.9-7.4-1.2-13c-0.7-10-4.7-30.5-6.3-38l-12.9-5.7c-2-0.9-3.3-2.8-3.4-5c-0.3-12.7-1.2-28-2-31.5
		c-1.1-2.1-2.7-8.1-4.6-32.4c0-0.3,0-0.6,0-0.8s1.1-16.6,0.6-25.8c-0.2-3.8,0.8-6.6,3.1-8.4c3.5-2.8,7.8-1.6,10.9-0.7
		c1.2,0.3,3.5,1,4.3,0.8c1.9-1.5,1.9-2.7,1.7-5.3c-0.1-1-0.2-2.1-0.1-3.2c0.2-1.7,1.2-6.9,2.7-14.1c0.6-2.8,1.1-5.5,1.3-6.5
		c0.1-0.4,0.1-1.5,0.1-2.5c0.2-4.9,0.5-13,4-20.5c2.9-6.2,1.2-12.2-0.1-15.2c-1.4-3.2-8.7-19.8-8.7-19.8l10.4-4.6
		c0,0,7.3,16.6,8.7,19.9c2.1,4.7,4.8,14.2-0.1,24.5c-2.6,5.4-2.8,12.1-2.9,16.1c-0.1,1.7-0.1,3-0.3,4.1s-0.7,3.6-1.3,6.7
		c-0.9,4.3-2.3,11.5-2.5,13.1c0,0.2,0,0.7,0.1,1c0.3,3.2,0.9,9.9-6,15.3c-4.6,3.6-10.1,2.3-13.8,1.3c0.2,9.2-0.5,21.8-0.7,24.3
		c0.9,11.1,2.3,24.3,3.2,27.4c1.1,1.9,2.5,7.4,3.3,33.1l12.3,5.5c1.7,0.7,2.9,2.2,3.3,4c0.3,1.2,6.2,29.3,7.1,42.5
		c0.4,5.2,0.8,9.2,1.2,12.4c0.5,4.7,1,8.4,0.7,12.8c-0.3,4.6-0.1,11.8,0,15.7c0,1,0.1,1.8,0.1,2.3c0.1,0.3,0.3,0.8,0.5,1.2
		c1.8,4.5,5.2,12.9,3.6,21.1c-0.5,2.8-1.2,4.8-1.7,6.5c-1,3.2-1.1,3.4,1.2,7c1.9,3,3.7,4.9,5.2,6.6c2.5,2.7,5.1,5.5,5.5,10.5
		c0.5,6-0.9,12.1-0.9,12.4c-0.4,1.7-1.6,3.1-3.1,3.9c-3.1,1.4-6.5,3.3-8.1,4.5c0.2,3.5,1,12,1.8,19.6l19.6,26.5
		c1.6,2.2,1.5,5.3-0.4,7.3c-0.1,0.1-6.4,6.9-9,16.6c-1.6,5.8-2.9,10.2-4,13.8c-1,3.3-1.8,5.9-2.3,7.9c-1,4.4-8,39.5-8.1,39.8
		C715.5,517.9,713.2,519.8,710.5,519.8z"/>
</g>
<path class="st22" d="M707.4,24.3c0,0-1,39.4-2.8,46s-6.8,23.2-7.6,27.1s-7.3,39-7.2,43.3s0,32.9,0,32.9l2.6,65.3l6.2,29.8
	c0,0,4.7,25.7,6.2,36.3s19.5,69.4,18.5,72.9s0.6,64.9,1.7,67s2.9,13.2-1.3,27c-4.3,13.8-13.1,42.2-13.1,42.2l-4.4,14.2"/>
</svg>
