<?xml version="1.0" encoding="utf-8"?>
<!-- Generator: Adobe Illustrator 27.4.1, SVG Export Plug-In . SVG Version: 6.00 Build 0)  -->
<svg version="1.1" id="_Слой_1" xmlns="http://www.w3.org/2000/svg" xmlns:xlink="http://www.w3.org/1999/xlink" x="0px"
	 y="0px" viewBox="0 0 1417.3 566.9" style="enable-background:new 0 0 1417.3 566.9;" xml:space="preserve">
<style type="text/css">
	.st0{fill:#FFFFFF;}
	.st1{opacity:0.8;fill:#FFFFFF;}
	.st2{fill:url(#SVGID_1_);}
	.st3{fill:url(#SVGID_00000119116176447373704400000011824357040006422669_);}
	.st4{opacity:0.8;}
	.st5{clip-path:url(#SVGID_00000163036591111037156130000002416988814026039948_);fill:#FFFFFF;}
</style>
<g>
	<g>
		<path class="st0" d="M735.4,143.5c7.6,5.1,16.1,8.3,25.4,9.7c20,3,43.9-1.6,63.5,7.7c5.4,2.5,10.4,5.7,14.7,9.4
			c8.4,7.2,14.2,15.7,21.8,23.1c6.3,6.2,13.1,12.1,21.9,13.2c15.1,1.2,31,0.9,45.5-3c7.3-2.2,18-5.8,18.2-14.5v-2.4l1.8-1.3
			l42.9-32.7l0.9-0.7l0.9-0.1c15.6-1,31.1-0.8,46.4,2.5c17.6,3.6,30,13,30.8,32.1c0.5,7.4,1,14.8,5.9,20.7c4.6,5.8,11.4,9.7,17.9,13
			c6.8,3.3,13.9,6,21.1,8.4c7.2,2.3,16.6,2.5,24,4l-2,10.3c-15-2.9-30.1-14.2-44-20.7c-10.4-4.9-21.7-11.9-24.7-23.8
			c-2-7.3-1.4-15.2-4.3-22c-7.6-17.4-31.4-18-47.9-18.6c-7.5-0.1-15.1,0.3-22.4,1.1l1.8-0.7l-41.6,34.4l1.7-3.8
			c0.9,13.6-13.5,21.4-24.4,24.6c-15.9,4.8-32,5.7-48.2,5c-6.1-0.2-12.3-2.4-17.4-5.4c-9.7-5.8-17.2-13.9-24.7-21.8
			c-6.7-7.4-13.2-13.4-22.2-17c-8.7-3.6-18.1-4.1-27.7-4c-22.5,0.8-44.5,1.6-65.1-11.5L735.4,143.5L735.4,143.5L735.4,143.5z"/>
		<polygon class="st0" points="972.2,189.1 978.3,215.6 973.9,188.8 		"/>
		<polygon class="st0" points="1081.7,215.7 1087.8,242.1 1083.4,215.3 		"/>
		<polygon class="st0" points="1073,207.5 1070.2,234.4 1074.7,207.7 		"/>
		<polygon class="st0" points="1069.1,194.6 1049.2,213.1 1070.2,195.9 		"/>
		<polygon class="st0" points="998.1,162 982.4,184.1 999.5,163 		"/>
		<polygon class="st0" points="1061.2,167.3 1088.2,165.8 1061.1,165.6 		"/>
		<polygon class="st0" points="1097.8,223 1124.9,221.5 1097.7,221.3 		"/>
		<polygon class="st0" points="1004.4,169.2 988.6,191.3 1005.8,170.2 		"/>
		<polygon class="st0" points="899,232.3 925.2,239.3 899.5,230.7 		"/>
		<polygon class="st0" points="837.5,174.3 863.7,181.2 837.9,172.6 		"/>
		<polygon class="st0" points="991.6,155.7 1032.8,210.6 995.1,153.1 		"/>
		<polygon class="st0" points="740.1,160.7 759.6,226.5 744.3,159.5 		"/>
		<polygon class="st0" points="767.8,160.7 787.3,226.5 772,159.5 		"/>
		<polygon class="st0" points="884,212.9 925.2,267.8 887.5,210.3 		"/>
		<polygon class="st0" points="957.4,188.1 1024.6,202.2 958.3,183.8 		"/>
		<polygon class="st0" points="938.6,208.1 1005.8,222.2 939.5,203.8 		"/>
		<polygon class="st0" points="917.6,207.9 928.9,163.1 913.9,207 		"/>
		<polygon class="st0" points="973,173.4 984.2,128.6 969.2,172.5 		"/>
	</g>
	<path class="st1" d="M746.2,127l12.7,26.9L740.3,107c0.9-4.5,1.8-9,2.7-13.4c0.2-0.9,0.8-3.7,1-4.6c1.2-4.4-1-8.6-5.2-10
		c-3.9-1.4-7.9-1.3-11.8-1.5c3.4-14.1,6.7-28.2,9.8-42.4l-18.1-3.7c-3.5,18.8-7.3,37.7-11.4,56.5c-6.1,27.4-12.5,54.8-20.7,81.6
		c-0.4-1.4-0.9-2.8-1.3-4.2c-1.5-4.4-2.4-9.7-6.9-13.2c-3.2-2.5-7.7-2.2-11.2-0.6c-7,3.2-14.9,3.8-22.5,3.4c-0.8,0-1.7-0.1-2.5-0.2
		l-6.6-9.3l-0.9-1.4l-1.6,0.1c-14.1,1-28,1.4-41.9,4.7c-2,0.7-4.5,1.3-5.4,3.8c-1.2,6,1.9,11.8,2.1,17.6c-3.4,3.6-9.2,8.2-13.7,11.6
		c-1,0.7-2,1.5-3,2.2l-5.4-1.9l-6.2-9.5l5,9l-8.3-3l-6.8-10.4l5.5,9.9l-29.2-10.5l35.8,15.5l-10.3,4.3l11.4-3.8l5.5,2.4
		c-5.9,4.3-12,8.3-18.4,11.7l-10.5-3.8l-6-9.2l4.8,8.7L504,181.3l28.5,12.4l-10.8,4.5l12.1-4l12.5,5.4c0,0-0.1,0-0.1,0.1
		c-11,5-21.9,10.2-32.7,15.5l-9.3-3l8.4,3.4c-3.4,1.6-6.7,3.3-10.1,4.9l-8.5-6.1c-0.1,0-0.7-0.5-0.7-0.5l-0.7,0.4
		c-25.5,15.6-51,31.6-77.2,46.1c-2.5,1.5-5.4,2.6-8.1,3.7c-2.8,1.2-5.4,2.6-8.1,4c-10.6,5.6-21,11.7-31.3,17.8l0.5,0.9
		c13.6-7.7,27.1-16.1,41.5-22.2c1.4-0.5,2.9-1.1,4.2-1.8l2-1c15.9-8.5,31.4-17.8,46.9-26.9c10.1-6,20.1-12,30.2-18.1
		c1.9,1.8,8,7.5,8,7.5l0.8,0.7l1.2-0.5c15.6-7.4,31.4-14.7,47.2-21.8c0.5-0.2,0.9-0.5,1.3-0.7l0.5,0.2l0.2-0.5
		c7.4-3.9,14.3-8.5,21.1-13.3l0.5,0.2l0.3-0.8c0.9-0.7,1.8-1.3,2.7-2c5.1-3.9,10.3-7.6,14.7-12.3c0.2-0.3,0.4-0.5,0.6-0.9
		c0.3-0.6,0.4-1.3,0.5-1.9c0.1-5.5-2.6-10.7-2.2-15.9c3.6-1.4,7.8-1.8,11.8-2.4c9.6-1.2,19.5-1.8,29.2-2.2l6,9.9l0.7,1.1
		c3.3,0.8,6.6,1.2,9.9,1.5c1.4,0.1,2.8,0.2,4.3,0.2l-29.4,38.4l33.5-38.4c4.6-0.2,9.2-1,13.5-2.6l0.3-0.1l0.2-0.1l0.7-0.2
		c0.4-0.1,1-0.3,1.4-0.1c0,0.3,0.5,0.6,0.8,1.6c2.6,7.5,2.9,15.5,7.2,23.4l1.1-0.7c-4.8,13.6-10.6,26.8-18.5,38.5
		c-3.6,5-9.5,12.8-15.4,12.7l0.1,0.1l0.2,0.1l-6-0.1c-5.8,4.5-9.5,10.8-13.2,16.9c-8.6,15.8-15,32.4-20.3,49.5l-44.3,19.6l32-11.8
		l-8.4,15.8l10.2-16.4l9.4-3.5c-2.6,8.5-4.9,17.1-7,25.7L569,366.9l30.1-30c-0.5,2.1-1,4.2-1.5,6.3c-7.1,31-13.9,62.6-13.5,94.6
		c0.1,3.2,0.2,6.4,0.6,9.6c0.4,4.7,1.7,9.3,2.1,14c0.5,11-0.7,22-2.1,32.9c-1.8,12.4-4,25-9,36.6l0.9,0.4c2.8-5.7,4.7-11.8,6.3-18
		c3.2-12.3,5.3-24.9,6.5-37.6c0.5-6.4,1.2-13,0.1-19.4c-2.2-12.4-1.6-24.9-0.3-37.4c2.8-25,8.7-49.7,15.2-74
		c2-7.2,4.5-15.9,7.4-25.3l4.8,10.2l-4.5,10.3l5-9.3l15.8,33.5l-16.5-41.4l11.2-0.2l-11.5-0.6l-2.6-6.6l-0.5,0.2
		c6-18.8,13.8-39.6,22.9-55.1l4.4,9.3l-4.7,10.8l5.2-9.8l3,6.3l-4.7,10.6l5.1-9.7l10.4,22l-14.4-36.4l11-0.1l-11.3-0.7l-2.1-5.4
		c2.7-4.3,5.6-8.2,8.5-11.3c5.5,0.9,11.5-1.8,15.5-5c14.1-11.8,24.6-32.4,32.7-53.3l10.1,21.3c-10.3,10.3-18.2,23.5-18.9,38.2
		l-10.6,6.6l10.6-5.5c0,0.1,0,0.3,0,0.4h1c0.4-8.4,3.1-16.5,7.6-23.6c3.2-5.1,7.1-9.7,11.4-13.9l8.4,17.8l-7.4-18.7
		c1.4-1.3,2.8-2.6,4.3-3.8c2.3-1.9,4.9-3.7,7.1-5.9l2.3,11.9l-1.5-12.7l-0.1,0c0.6-0.7,1.2-1.4,1.7-2.1c1.4-2,2.6-4,3.7-6.1l6.7,9.5
		l-6.3-10.4c0.7-1.5,1.4-3,2.1-4.5c4.1-10,6.8-20.4,8.5-31c0.4-3.2,1.1-6.9,0-10.2c-1.1-4.9-1.7-10.1-1.3-15.1
		c0.2-2.5,0.7-4.7,1.8-6.7c0.7-1.5,1.3-3.2,1.8-4.8c0.7-2.2,1.2-4.4,1.8-6.6l6.6,14l-4.5,10.1L746.2,127z M732.3,117.2
		c-0.4,1.4-0.8,2.8-1.4,4.1c-2.4,4.9-2.3,10.2-1.9,15.3c0.4,4,1.1,7.8,2.2,11.6c0.2,4.2-0.6,8.8-1.3,13
		c-2.3,12.2-5.2,24.7-11.9,35.2c-2.2,3.6-5.7,5.8-8.8,8.6c-1.2,1-2.4,2.1-3.6,3.3l-6.1-15.3l10.4-1.1l-10.8,0.3L696,184
		c4.7-12.8,8.6-25.4,11.9-35.9c6.3-21.2,12-42.4,17.3-63.7c2.1,0,4.1,0,6,0.1c2.4,0.2,4.9,0.2,6.5,1.4c0.4,0.3,0.3,1.2,0.2,1.9
		C736,97.5,734.8,107.7,732.3,117.2z"/>
	<g>
		<path class="st0" d="M722.4,57.2c-4.6-6.5-8.6-13.4-12.5-20.3c-3.6-6.2-7.2-13.3-12.1-18.3c-0.4-0.4-0.9-0.8-1.3-1.1
			c-0.1-0.1-0.1,0-0.1-0.1l-0.1-0.1c-0.3-0.1-0.5-0.2-0.9-0.2c-9.6,0.4-25.1,12.4-33,18.5l0.8-1.7l-2.2,17l-0.1,0.7l-0.6,0.3
			c0.2-0.2-34.3,18.4-33.5,17.9l-13.3,14.7l-0.7-0.7l13.3-14.7c0,0,33-19.4,33.1-19.4l-0.6,1l-0.2-17.2v-0.8l0.8-0.8
			c8.2-7.3,28.7-26.3,40.2-22.1c1.4,0.6,2.7,1.5,3.9,2.5c6.6,5.6,10.5,12.5,15.2,19.3c4.2,6.4,8.5,12.6,13.3,18.5L722.4,57.2
			L722.4,57.2L722.4,57.2z"/>
		<polygon class="st0" points="714.3,40 693.8,42.6 714.4,41.3 		"/>
		<polygon class="st0" points="712,34.9 691.5,37.5 712.2,36.2 		"/>
		<polygon class="st0" points="647.8,56.6 643.2,76.7 649,56.9 		"/>
		<polygon class="st0" points="660.1,41.3 640.8,48.6 660.6,42.5 		"/>
		<polygon class="st0" points="613.3,84 601.3,79.8 613,84.9 		"/>
		<polygon class="st0" points="706.6,35.6 697.6,26.6 705.9,36.3 		"/>
	</g>
	<g>
		<path class="st0" d="M767,110.6c4.2-1.9,11.4-6.3,15.6-8.7c4.2-2.4,8.5-4.8,13.3-6.4c2.2-0.6,4-1.1,6.5-0.7
			c8.9,1.5,18.9,25.1,22.7,33.2l-5.9-2.2c6.4-2.4,13.7,1.3,18.1,5.6c3.6,3.2,7,8.6,10,12.5l18.2,24.9l-0.8,0.6L843.6,147
			c-5.2-5.1-12.3-15.1-20.5-13.3c-0.1,0-0.1,0.1-0.2,0.1l0,0c0,0,0.1,0,0.1-0.1l-5.9-2.2c-2.4-5.5-5-11-7.9-16.2
			c-2.4-4.2-4.7-8.6-8.2-11.8c-0.3-0.2-0.5-0.3-0.2-0.2c-2.1,0-4.3,1-6.3,1.9c-2.6,1.2-5.2,2.6-7.8,4.1c-5,2.8-11.4,6.9-16.7,9.1
			L767,110.6L767,110.6L767,110.6z"/>
		<polygon class="st0" points="814.3,119.1 803,170.2 817.5,119.8 		"/>
		<polygon class="st0" points="830.4,132.1 829.3,152.7 831.7,132.1 		"/>
		<polygon class="st0" points="779.5,112.9 794.2,127.4 780.4,111.9 		"/>
		<polygon class="st0" points="846.7,146.8 866.5,140.7 846.3,145.5 		"/>
		<polygon class="st0" points="839.2,137.4 858.9,131.4 838.8,136.1 		"/>
		<polygon class="st0" points="784.3,105.8 799,120.3 785.2,104.8 		"/>
		<g>
			<path class="st0" d="M745.4,43.5c11,27.6,23.1,55.2,37.2,81.3c5.3,9.6,10.8,19.1,17.6,27.5c2.8,3.2,4.8,7.1,6.7,10.7
				c1.6,2.9,4,7.9,5.7,10.1c5.4,4.8,12.5,9.1,16.8,0.6c0,0,0.1-0.1,0-0.1l6.2-3.4c0.5,0.1,1.1,0.3,1.5,0.5
				c24.1,10.4,44,50.1,54.7,73.1c6.7,14.9,12.9,30,16.6,46c1.5,6.9,2.7,14,2.5,21.1c0,3-0.4,5.9-0.7,8.8v0.8v0.8
				c0.9,12.4,4.8,24.7,9.7,36c1.9,4.1,4.1,8.2,7,11.7l-0.8,0.7c-3.2-3.5-5.6-7.5-7.8-11.6c-4.2-8.3-7.4-17.1-9.7-26.1
				c-1-4-2-8.2-1.9-12.4c1.8-18.8-5.2-37-12.4-54c-7.5-16.6-16-33-25.8-48.2c-8.6-12.8-17.8-25.7-30.8-34.1c-1.5-0.9-3-1.7-4.5-2.1
				h0.1l6.2-3.4c-2.4,6.2-7.9,11.6-14.8,12.4c-7.5,0.9-14.3-3-19.8-7.5c-1.1-0.9-2.2-2.1-3-3.2c-3.8-5.4-6.5-11.6-10.2-16.8
				c-18.3-21-31-46.1-43.8-70.6c-6.9-13.7-13.4-27.3-19.7-41.3L745.4,43.5L745.4,43.5L745.4,43.5z"/>
			<path class="st0" d="M889.4,247.1c-8.4,8.9-22,21.2-35,14.1c-4.9-2.7-6.8-7.7-10.3-11.5c-6.2-6.9-14.4-12.2-23.1-15.4
				c-2.3-0.7-5-1.7-7.3-1.3c0,0,0,0,0.1-0.1c0-0.1,0.1-0.1,0.1-0.2c-0.4,3-0.1,7.1,0,10.5c0.9,14.4,4.5,53,18.6,59.5
				c0.9,0.4,2.4,0.6,3.3,0.8c13.6,2.4,17.7,11.4,22.8,22.9c3.8,9,7.5,18,11.5,26.9l-0.9,0.4c-4.8-9.9-9.1-20.1-13.7-30
				c-2.6-5.2-5.4-10.8-10.3-14.2c-2.4-1.7-5.2-2.6-8-3.3c-1.7-0.4-3.9-0.5-5.5-1.2c-16.8-6.7-21.7-52.6-22.2-69.1
				c0-1.5-0.1-2.8,0.2-4.4c0.5-2.2,2.8-3.3,4.8-3.3c5.4,0,10.3,2.2,15,4.4c4.5,2.2,8.9,4.9,12.8,8.1c3,2.4,5.8,5.1,8.2,8.2
				c2,2.8,3.8,5.6,6.6,7.2c5.8,3.2,12.3-0.4,17.2-3.9c3.7-2.7,7-6.1,10.1-9.6L889.4,247.1L889.4,247.1L889.4,247.1z"/>
			<path class="st0" d="M927.4,434.7c0.7-7.4,1.8-14.7,3.6-21.9c1.5-5.2,3.4-12.2,9.5-14c2.1-0.6,4.3-0.3,6.3,0.7l-0.6-0.2
				c5.9-0.3,12.1-1.1,17.5-3.5c5.1-2.9,9.2-7.7,13.2-12.1c1.5-1.6,3-3.6,4.9-4.9c0.8-2.4-0.2-6.7-0.7-9.7c-0.9-4.7-2.3-9.9-3.6-14.6
				c-4.4-13.9-35.9-22.1-48.7-28.4c-4.3-2.2-8.4-4.4-12.5-7c-1.2-0.8-2.4-1.6-3.5-2.5c-0.2-0.2-0.3-0.3-0.6-0.5l1.9,0.7l-57.6,6.1
				L855,323l-0.9-1.3c-6.8-9.6-13.5-19.1-19.8-29c-2.5-4-5.2-8.1-7-12.5c-0.3-0.8-0.5-1.7-0.5-2.6c0.2-8.2,10.4-12.5,16.8-15l-1.5,1
				c9.6-12,28.3-38.5,22.5-54l8.1-3.2c7.2,19.6-13.2,47.3-25.4,61.8l-0.6,0.7c-2.8,0.9-5.7,2.1-8.2,3.5c-1.9,1-4.1,2.6-5,4.3
				c-0.2,0.5-0.2,0.8-0.2,1.2l0.1,0.2l0.2,0.4c0.5,1.2,1.1,2.4,1.7,3.6c4.1,7.6,8.9,14.9,13.6,22.1c3.2,4.9,6.4,9.7,9.7,14.5
				l-2.5-1.1l57.7-5.5l1.9,0.7c4.6,3.7,10.1,6.5,15.3,9.2c14.4,6.9,40.6,13.9,49.1,27.9c1.6,2.6,2.2,6.5,3,9.4
				c1,5,5.5,19.4,1.3,22.8c-1.7,1.2-3,2.9-4.6,4.5c-5,5.1-9.9,11.1-17,13.5c-5.5,1.6-11.2,2.2-16.9,2.1c-1.3-0.8-3.2-1.2-4.7-0.8
				c-7.1,1.8-9.4,16.4-10.9,22.8c-0.7,3.6-1.3,7.2-1.8,10.9L927.4,434.7L927.4,434.7L927.4,434.7z"/>
			<polygon class="st0" points="849.6,187.2 840.6,230.8 854.4,188.2 			"/>
			<polygon class="st0" points="925.8,368.1 919,386.8 926.9,368.5 			"/>
			<polygon class="st0" points="915.2,350.9 908.4,369.6 916.4,351.3 			"/>
			<polygon class="st0" points="911.5,339.8 904.7,358.5 912.7,340.2 			"/>
			<polygon class="st0" points="900.1,276.8 893.3,295.5 901.3,277.2 			"/>
			<polygon class="st0" points="904.7,286.7 897.9,305.4 905.9,287.1 			"/>
			<polygon class="st0" points="903.1,283.1 921.3,291.2 903.6,281.9 			"/>
			<polygon class="st0" points="928.9,326.1 937.3,344.1 930.1,325.5 			"/>
			<polygon class="st0" points="939.1,328.7 947.5,346.8 940.2,328.2 			"/>
			<polygon class="st0" points="933.6,325.3 951.6,316.9 933,324.1 			"/>
			<polygon class="st0" points="927.4,433.9 940.5,448.9 928.4,433.1 			"/>
			<polygon class="st0" points="929.9,418.9 949.5,441.4 931.3,417.7 			"/>
			<polygon class="st0" points="931.2,412 950.8,434.5 932.6,410.8 			"/>
			<polygon class="st0" points="869.2,353.6 886.1,365.5 869.9,352.5 			"/>
			<polygon class="st0" points="898.4,265.4 915.8,276.5 899.1,264.3 			"/>
			<polygon class="st0" points="883.9,234.6 904.3,231.4 883.7,233.3 			"/>
			<polygon class="st0" points="845.8,180.2 866.2,177 845.6,178.9 			"/>
			<polygon class="st0" points="961.1,366.5 943.8,377.9 961.8,367.6 			"/>
			<polygon class="st0" points="959.7,357.3 942.4,368.6 960.4,358.4 			"/>
			<polygon class="st0" points="979.7,384.5 960.2,377.4 979.2,385.7 			"/>
			<polygon class="st0" points="846.5,204 856,222.3 847.7,203.4 			"/>
			<polygon class="st0" points="890.9,317.7 900.4,336.1 892.1,317.1 			"/>
			<polygon class="st0" points="868.5,320.9 878,339.3 869.7,320.3 			"/>
			<polygon class="st0" points="978.8,384.2 988.3,402.5 979.9,383.6 			"/>
			<polygon class="st0" points="951.3,401.2 960.8,419.5 952.5,400.6 			"/>
			<polygon class="st0" points="880,252.3 885.3,272.3 881.2,252 			"/>
			<polygon class="st0" points="873,255.6 878.3,275.6 874.2,255.3 			"/>
			<polygon class="st0" points="865.5,259.6 860.1,279.5 866.8,259.9 			"/>
			<polygon class="st0" points="839.4,264.1 819,261.3 839.3,265.4 			"/>
			<polygon class="st0" points="813.5,261.9 808.2,281.9 814.8,262.3 			"/>
			<polygon class="st0" points="843.7,301.9 863.5,295.8 843.4,300.6 			"/>
			<polygon class="st0" points="864.3,340.6 884.1,334.6 863.9,339.3 			"/>
			<polygon class="st0" points="836.9,287.2 856.7,281.2 836.5,286 			"/>
			<polygon class="st0" points="867.5,237.1 882.2,251.6 868.4,236.2 			"/>
			<polygon class="st0" points="813.7,252.5 828.5,267 814.7,251.5 			"/>
			<polygon class="st0" points="815.8,270.1 830.5,284.6 816.7,269.2 			"/>
			<polygon class="st0" points="828.1,302.3 827,322.9 829.4,302.4 			"/>
			<polygon class="st0" points="821.6,292 820.5,312.6 822.9,292 			"/>
			<polygon class="st0" points="811.8,242.4 826.5,257 812.7,241.5 			"/>
		</g>
	</g>
	<linearGradient id="SVGID_1_" gradientUnits="userSpaceOnUse" x1="256.7" y1="100" x2="751.6" y2="100">
		<stop  offset="0" style="stop-color:#FFFFFF;stop-opacity:0.8"/>
		<stop  offset="1" style="stop-color:#FFFFFF"/>
	</linearGradient>
	<path class="st2" d="M746.6,64.7l1-0.3l-2.1-9.2L717,66l-6.1,3.5l-15.7-5.2l14.6,5.8l-8,4.6l0-0.1l-19.7-6.4l18.2,7.3l-17.2,9.8
		l53.1-17.2c-7,6.4-12.7,14.2-19,21c-4,4.4-8.1,8.6-12.4,11.9c-2.1,1.8-5.5,2.7-8.5,3c-12.1,1.1-28.6-6.1-35.3-16.4
		c-1.8-2.9-2.4-5.8-4.8-8.7c-5.5-6.8-12.9-5.7-19-1.7l-39.3-30.1l36.7,32c-0.9,0.8-1.8,1.6-2.6,2.5c-1,1-1.9,2-2.7,3.1l-11,0.5
		l-1.4-4.5l1.1,4.5l-7.1,0.3l7.2,0.1l1.1,4.6l-31.9,3l37.5,0.5l-4.1,8.9l-40.1,3.8l25.7,0.4l-15.2,8.7l17.7-8.7l9.9,0.2l-8.4,18.4
		c-6.7,1.5-13.6,2.7-20.3,3.3c-4.7,0.3-9.7,0.6-13.3-1.1c-0.9-1.4-2-2.6-3.2-3.7c-3.6-3.3-7.5-6-11.4-8.5c-3.4-2.1-7-4.2-10.6-6.3
		L545.8,70l1.3,36.9c-12.6-6.7-26.3-12.6-40-15.9c-0.4-1.5-0.7-2.9-1-4.4l17.4-10.8l-17.7,9.5c-0.4-2-0.7-4-1-6l14.5-9l-14.7,7.9
		c-0.1-0.5-0.1-1.1-0.2-1.6c-0.5-3.2-0.7-6.2-1.6-9.3c-0.4-1.4-1-3.1-2.6-4c-1-0.6-2.2-0.4-3.2-0.3c-7.1,0.3-14.3,0.2-21.5,0.2
		L457.4,63H457l-0.2,0.3c-0.1,0-0.2,0.1-0.2,0.1l-1.4-9.3l0.3,9.7c-10.4,4.4-21,8.8-31.7,12.5c-2.5,0.7-5,1.7-7.6,1.9
		c-5.5-1-11.2-15.9-13.1-21l-0.2-0.7l-0.6-0.2l-53.5-17.7l-0.5-0.8l-17.4,11.1l17.2-9.5l52.6,19.4c1.6,4.3,4.7,12.6,8.7,17.9
		l-15.9,10.1l16.6-9.1c2.1,2.4,4.3,3.9,6.8,3.6c2.7-0.3,5.3-1.2,7.9-2c5.7-1.9,11.3-4,16.8-6.2c4.7-1.8,9.3-3.7,14-5.6l1,28.9
		c-3.3,1.1-6.6,2.3-9.8,3.5l-41.5-11.5l21.2,8.4L410,97.2l19.3,0.5l11.1,4.4c-1.6,0.6-3.2,1.2-4.8,1.8l-22.3,8.4
		c-3.6,1.3-7.2,2.7-10.8,4l-32.7-25.5l16.6,14.7l-18,0.6l19.2,0.5l12,10.7c-4.9,1.7-9.8,3.1-14.9,3.8c-2-0.1-4-0.1-6.1-0.2L346.1,97
		l28.3,23.6c-6.8-0.4-13.7-1.1-20.4-2.2l-30.5-23.8l25.9,22.9c-9.2-1.9-18.2-4.7-26.6-9c-6.6-3.2-12.5-8.2-18.3-12.5
		c-9.6-6.5-21.2-10.1-32.9-9.5c-5,0.3-10,1.1-14.8,2.8l1.8,4.5c4.3-2.4,7.3-5.1,11.7-5.4c11.2-0.5,22.5,2.3,31.7,8.7l1.2,0.8
		c0.5,0.3,0.8,0.6,1.2,0.9l2.3,1.8c9.1,8.2,19.9,13.7,31.4,17.5l-34.5,14.4l38.3-13.2c4.2,1.2,8.6,2.2,12.9,3l0.2,0.2l0.1-0.1
		c3.3,0.6,6.6,1.1,9.9,1.5l-11.1,9.5l-19.5,0.7l18.2,0.5l-15.6,13.3l31.6-23.6c3.7,0.4,7.5,0.6,11.2,0.9c1.8,0.1,3,0.3,4.6,0.4
		l-9,15.2l10.4-15.3c0.1,0,0.2,0,0.3,0c9.6-1.2,18.4-4.6,27.4-7.6l-9.2,15.4l10.9-16c0,0,0,0,0.1,0c18.1-6,37.6-13.7,56.5-18.7
		l-8.8,15l10.4-15.4c3.2-0.8,6.4-1.6,9.6-2.2c8.3-1.1,17.8,0.6,27.4,3.7l-32.8,18.4l38.5-16.4c7.8,2.9,15.4,6.5,22.2,10.1l-24.3,7
		l26.5-5.8c2.6,1.4,5,2.7,7.2,4c0.1,0.1,0.3,0.2,0.4,0.3l-26.3,7.6l28.5-6.3c6.1,3.7,12.1,7.6,17.2,12.3c1.1,1,1.6,2.1,2.5,3.2
		c5.3,5.6,14.3,4.8,21,4.7c9.1-0.5,17.9-2,26.8-4l1.1-2.3L638,92.2c1.5-1.8,3.3-3.7,5.1-5c1.2-0.8,2.6-1.7,3.6-1.6
		c0.7,0.4,1.5,1.9,2,3.2c0.5,1.2,1.3,2.7,1.8,3.8c0.4,0.6,1.2,1.8,1.5,2.4c0.5,0.9,1.9,2.4,2.5,3.3c1.9,2.2,4,4.2,6.2,6l-16.3,0.6
		l17.7,0.4c2.3,1.7,4.7,3.3,7.3,4.6l-17,0.7l19.2,0.4c5.2,2.5,10.9,4.2,16.6,5.1c0.5,0.1,1.5,0.2,2.2,0.3l12.7,45.7l-9.6-45.5
		c2.7,0,5.7-0.2,8.3-0.7c10.3-1.7,18.6-11,25.4-18c4.3-4.6,8.3-9.3,12.3-13.7c3.6-3.9,7.6-8.1,12.1-10.5L746.6,64.7z M469.6,92.1
		c-2.8,0.8-5.7,1.7-8.5,2.7l-4.1-28c0.3-0.1,0.6-0.3,0.9-0.4c7.5,0.1,16.3,0.3,24.7,0.4l-14.1,9l16.3-9c4.8,0,9.5,0,13.8-0.2
		c-0.1,0,0,0,0.1,0.2c1.4,3,1.5,6.9,2,10.2c0.5,4.3,1.1,8.7,2.1,13c-2.9-0.6-5.7-1-8.6-1.3C486.1,87.6,477.4,89.7,469.6,92.1z
		 M619.8,90.2l-1.4-4.6l10,0.2l-0.2,0.4l-0.2,0.5l-1.3,2.9L619.8,90.2z"/>
	
		<linearGradient id="SVGID_00000124137093322732929830000012874509423926099885_" gradientUnits="userSpaceOnUse" x1="529.4" y1="96.55" x2="735.2" y2="96.55">
		<stop  offset="0" style="stop-color:#FFFFFF;stop-opacity:0.8"/>
		<stop  offset="1" style="stop-color:#FFFFFF"/>
	</linearGradient>
	<path style="fill:url(#SVGID_00000124137093322732929830000012874509423926099885_);" d="M726.5,42c-6.4,5-15.9,11.3-24.6,18.6
		l-38.1-17.1l35.9,19c-3.2,2.8-6.3,5.7-9,8.8l-42.4-1l40.3,3.5c-1.5,1.8-2.8,3.7-3.9,5.6l-12.9,3.1l-6.9-0.2l5.6,0.5l-21.3,5
		l26.8-4.5l6.5,0.6c-1.2,2.8-2,5.7-2.2,8.6l-32.6,3.3l-38.4,9.9c-4-3.9-7.8-8.1-11.3-12.6c-6.3-8.7-14-17.6-16.2-28.2
		c0-1.1-0.1-2.7,0.1-3.8c1.9-7.5-2.9-14.3-7-20l-0.1-0.3l-0.1,0c0,0-0.1-0.1-0.1-0.1l-0.3,0.2l-44.7,10.7l44.2-7.5
		c2.4,3.9,5.1,8.1,5.3,12.5c-0.1,2.7-1.1,5.7-0.9,8.6c1.4,10.2,7.3,18.8,12.9,27.1l-27.1-24.3l32.6,33.2l0.4-0.5
		c1.8,2.3,3.6,4.6,5.6,6.7l-3.6,0.9l4.3-0.2c13.8,15.3,31.5,27.1,50.4,35.1l-39.5,9.3l43.6-7.4c12.3,4.8,24.6-3.7,31.4-14
		c6.3-9.4,9.3-22.7,3.7-33.4c-3.2-9.2,8.4-18.3,15.2-24.2c8.4-6.8,17.8-12.7,27.3-19.1L726.5,42z M679.6,82.5l3.6-0.6
		c-0.1,0.2-0.2,0.5-0.3,0.7L679.6,82.5z M684.4,112c-0.5,10.6-8.7,24.3-20,25.3c-2.2,0.1-4.4-1-6.4-1.8
		c-17.4-6.4-33.3-15.5-46.7-27.8l41.8-2.1l-12.7,3l20.1-3.4l22.3-1.1C683.8,106.5,684.7,108.9,684.4,112z"/>
	<path class="st1" d="M795.9,359.8c-0.1-1.9-0.3-3.7-0.4-5.6l19.1,8.1l-19.2-9.7c-1.1-13.7-2.8-27.3-5.4-40.8l8.8,3.3l6.2,21
		l-4.7-20.5l7.9,3l0.6,0.1l5.9,20.2l-4.5-19.9l36.2,7.6l-27-9.5l-2.1-9.4l4.9-0.8l-4.9,0.5l-2-8.7l25.6,5.4l-31.2-11l14-13.6
		l-15.3,13.2l-5.1-1.8l-6.8-3.8l15.3-14.8l-16.5,14.1l-14.6-8.2c-0.9-2.3-2-4.5-3.1-6.8c-1.7-3.3-3.4-6.4-6.2-9.1l-5.6-0.9l0.3-0.1
		c-1.1,0.1-2.1-0.2-3.2-0.7c-11.6-6.7-17.4-28.6-20.8-41.4c-4.5-18.9-6.3-38.8-7.8-58.3c-2.8-39.5-3.5-79.6-3.1-119.2l-18.8,0.1
		c0.4,20.2,1.2,40.2,2.3,60.3c2.5,38.3,4.5,76.8,13.2,114.4c-8,3-15.8,5.4-23.2,9.6c-1.7,1-4.1,2.9-4.9,5.1c-1,3.1-1,6.3-1.1,9.2
		c-0.1,8.7,0.4,17.2,1.4,25.8c0.2,1.4,0.4,2.8,0.6,4.2l-15.4,12.3l15.6-10.9c0.5,3,1,6,1.9,8.9l-7,19.5l7.6-17.6
		c1.2,3,3.2,5.2,5.7,6.8l-7,19.7l8.1-19c3.3,1.7,7.1,2.4,10.9,2.3c-3,9-5.7,18-8,27.2l-0.2-0.2l-22.8,27l21.9-21.9
		c-3.9,16.5-6.4,33.2-6.9,50.1c0,1.1,0,2.2,0,3.3l-0.2,0.2l0.2,0.2c0,3.9,0.1,8,0.2,11.6c-0.1,14.3-1.3,28.6-4.5,42.5l-0.2,0.2
		l0.1,0.1c-1.3,5.5-2.8,10.9-4.8,16.1l-0.6,0.6l17.9,19.6l-16.2-20.2c2-4.9,3.5-9.9,4.8-15l13.9,15.2l-13.5-16.8
		c0.1-0.6,0.3-1.1,0.4-1.7c3.1-13.3,4.6-27,4.9-40.7c0-3,0-6,0-9l10.9,11.8L707.4,379c0-2.6,0.1-5.1,0.3-7.6l13,14.2l-12.9-16
		c0-0.1,0-0.2,0-0.3c0.4-5,0.9-10,1.6-15l16.8,18.4l-16.5-20.4c0.8-5.6,1.9-11.2,3.1-16.8l16.7,18.3l-16.3-20.3
		c3.6-15.9,8.5-31.5,14.2-46.6c-1.8,0.3-4.7,0.8-6.6,0.9c-4.5,0.1-9.5-1.1-12.2-4.9c-0.7-1-1.2-2.4-1.6-3.6
		c-1.1-4.5-1.6-9.1-1.9-13.7c-0.5-8.3-0.5-16.7,0.3-24.9c0.3-2.3,0.5-4.6,1.2-6.7c0,0,0,0,0,0c0.3-0.2,0.9-0.6,1.7-1
		c7-2.9,15.3-3.9,22.9-4.2c0.8,2.6,1.7,5.4,2.8,8.2l-7.1,19.6l7.7-17.9c6,15.8,15.5,33.2,30.6,33.7c15.1,21.2,21,68.1,23.5,95.6
		l-19.1,22.7l19.4-19.5c0,0.2,0,0.3,0,0.5c1,12,1.6,24,1.2,36c-0.1,1.8-0.1,3.6-0.2,5.3l-21.2,25.2l20.9-20.9
		c-0.7,8.6-2.1,17.2-5.1,25.3c-2.9,8.3-7.9,15.5-15.1,20.5c-2.5,1.9-5.4,3.6-6.9,6.8l-19,5.7l18.4-4.2c-0.4,0.9-0.9,1.8-1.4,2.7
		c-1.1,1.8-2.2,3.5-3.2,5.1l-17.6,5.2l16.8-3.9c-24.3,38.1-30.7,35.2-25.7,54.5l7.4,1.9c-3.6-16.4,9.4-35.6,18-49.1l7.4,18.1
		l-6.6-19.4c1.5-2.3,3.2-4.7,4.8-7.2l0.1,0l0,0c0.2-0.3,0.4-0.6,0.6-0.9l6.9,17l-6.1-18.4c1.1-1.8,2.1-3.6,2.9-5.3
		c0.8-1.8,3.4-3.4,5.9-5.2s5.1-3.8,7.3-6.1c8.9-9.2,12.8-21.9,15-34.2c0.2-0.9,0.3-1.9,0.5-2.8l4.7,11.6l-4.5-13.3
		c0.5-3.8,0.9-7.6,1.2-11.5l9.8,12.2l-9.7-13.7c0.3-3.8,0.4-7.7,0.5-11.5l11.6,14.4l-11.5-16.4c0.1-8.1-0.2-16.2-0.6-24.2
		c-0.2-3.3-0.4-6.5-0.6-9.8l19.5,8.3L795.9,359.8z M819.3,317.1l-10.6-3.7l-5.7-3.3l13.6-2.3L819.3,317.1z M802.7,296.1l11.1,2.3
		l2.7,9.1l-15.3,1.6l-13.3-7.5c-0.3-1.1-0.5-2.3-0.8-3.4c-0.8-3-1.6-6-2.5-8.9L802.7,296.1z"/>
	<g>
		<path class="st0" d="M731,52.1c6.9-4.1,13.4-8.7,19.8-13.3c5.9-4.2,12-9.2,18.6-11.6c0.5-0.2,1.1-0.3,1.7-0.5c0.1,0,0.1,0,0.2,0
			c0,0,0.1,0,0.2,0c0.3,0,0.5,0,0.9,0.2c8.6,4.4,17.7,21.7,22.3,30.5v-1.9L789.6,72l-0.2,0.7l0.4,0.5c-0.1-0.3,23.5,31,23.1,30.2
			l6,18.9l1-0.3l-6-18.9c0,0-22-31.3-22-31.4l0.2,1.2l7.3-15.6l0.4-0.8l-0.4-1.1c-4.4-10.1-15.2-35.8-27.5-36.8
			c-1.6,0-3.1,0.3-4.6,0.6c-8.3,2.4-14.8,7-21.9,11.3c-6.5,4-13,7.9-19.8,11.3L731,52.1L731,52.1L731,52.1z"/>
		<polygon class="st0" points="740.8,39.4 776.6,65.8 737.9,43.3 		"/>
		<polygon class="st0" points="792.2,42.3 811.4,40.5 792.1,41 		"/>
		<polygon class="st0" points="780.9,28.5 800,26.7 780.8,27.2 		"/>
		<polygon class="st0" points="749.3,48.9 768.4,47.1 749.1,47.6 		"/>
		<polygon class="st0" points="796,79.8 815.2,78 795.9,78.5 		"/>
	</g>
	<path class="st0" d="M704.3,58.8c0.3,1.5,0.6,3.1,0.9,4.7c0.7,4.4,1.2,9,1.6,13.5c2.1,26.9,5.2,52.9,8.6,80
		c0.7,5.6,1,10.8,3.7,18.3c15,40.8,13.8,16,14.4,16.5c5.7,4.2,2.4-22,4.4-22.1c0.3,0,4.3-70.5-2.9-109.9c-0.5-2.6,1.9-19.5,1.2-22.3
		L704.3,58.8L704.3,58.8z"/>
</g>
<g class="st4">
	<g>
		<defs>
			<path id="SVGID_00000034056105365219650360000012841026245074728321_" d="M728.2,26.6c0.9,6.9-6,24.5-6.4,43.8
				c-0.4,19.4,0,58.2,0,58.2l4.1,33.6"/>
		</defs>
		<clipPath id="SVGID_00000118369386023039584420000014965361870769533346_">
			<use xlink:href="#SVGID_00000034056105365219650360000012841026245074728321_"  style="overflow:visible;"/>
		</clipPath>
		
			<rect x="721.4" y="19.7" style="clip-path:url(#SVGID_00000118369386023039584420000014965361870769533346_);fill:#FFFFFF;" width="0.2" height="142.5"/>
		
			<rect x="721.6" y="19.7" style="clip-path:url(#SVGID_00000118369386023039584420000014965361870769533346_);fill:#FFFFFF;" width="6.7" height="142.5"/>
		
			<rect x="728.3" y="19.7" style="clip-path:url(#SVGID_00000118369386023039584420000014965361870769533346_);fill:#FFFFFF;" width="0.8" height="142.5"/>
	</g>
	<path class="st0" d="M737.6,210.6c-8.5,0-21.7-37.7-22.8-46.3l-4.1-33.6c-0.1-0.6-0.1-1.3-0.1-1.9c0-1.6-0.4-39.3,0-58.7
		c0.3-12.4,2.8-24,4.7-32.4c0.7-3.3,1.7-7.8,1.8-9.5c-0.9-9,5.6-17.2,14.7-18.5c9.3-1.3,17.9,5.3,19.1,14.6
		c0.8,6.1-0.6,12.5-2.4,20.7c-1.7,7.8-3.7,16.7-3.9,25.8c-0.4,17.2-0.1,50.6,0,56.7l20.8,35.6c1.1,9.3-18.5,5-27.8,6.1
		C736.9,169.3,750.6,235.2,737.6,210.6z M717.1,28.9C717.1,28.9,717.1,28.9,717.1,28.9C717.1,28.9,717.1,28.9,717.1,28.9z"/>
</g>
</svg>
