<?xml version="1.0" encoding="UTF-8"?>
<svg id="_Слой_1" data-name="Слой 1" xmlns="http://www.w3.org/2000/svg" viewBox="0 0 1417.32 566.93">
  <defs>
    <style>
      .cls-1 {
        fill: #fff;
      }

      .cls-2 {
        fill: #2f4e9d;
        stroke: #1d1d1b;
        stroke-miterlimit: 10;
      }
    </style>
  </defs>
  <path class="cls-1" d="m724.94,44.13c-4.2,20.17-10.07,40.71-13.94,60.8-3.83,19.15-7.24,39.19-7.54,58.41-.01,9.31.75,19.32,1.79,29.27,3.91,35.79,10.52,71.68,16.65,107.24,0,0,.07.41.07.41l-.05-.25.2.87.87,3.8c8.44,38.44,16.33,76.61,20,116.15.46,5.81.29,12.33-.28,17.98-3.36,31.01-6.32,62.75-20.14,91.08-.19.12-.56.18-1.26.13-.27,0-.74-.05-1.16-.09-.18-.01-.51-.07-.8-.11-1.89-.27-3.51-.6-5.45-1.02-.74-.17-7.49-1.73-8.03-1.96-.9-.29-7.36-2.82-8.12-3.11-1.82-.76-3.86-1.59-5.52-2.54-.61-.35-.89-.6-.98-.79.54-4.4,1.4-8.78,2.22-13.13,3.87-20.97,12.51-40.66,17.53-61.25.83-3.43,1.5-7.02,1.99-10.42,1.28-9.17-.08-17.8-1.26-27.11-2.83-19.79-7.13-39.76-11.43-59.42-1.8-7.98-7.48-33.33-9.28-40.93-.38-1.44-.65-3.19-.9-4.66-6.06-35.75-10.86-71.89-14.1-108.08-.89-10.74-1.73-21.26-1.69-32.22.05-11.23,1.07-21.93,2.38-32.51,3.17-25.89,8.55-51.57,13.33-77.1,0,0,1.35-7.39,1.35-7.39.4-2.4.78-4.85.96-6.68l32.56,4.65h0Z"/>
  <path class="cls-1" d="m691.38,112.95c-27.75,6.61-56.19,10-84.69,10.62-23.77.38-46.44-5.42-69.74-6.87-4.66-.22-9.07-.21-13.12.55-1.9.41-3.88.8-5.76,1.26-9.33,2.17-31.36,8.12-33.58,17.87,0,0-.09-.24-.09-.24,0,0-1.83,6.33-1.84,6.33-3.6,2.4-7.87,3.72-11.95,4.88-27.53,6.67-56.29,3.86-83.95.38,0,0-2.05-.28-2.05-.28-1.75.21-3.69,1.54-5.45,2.69-4.72,3.15-8.73,6.94-13.9,9.69-1.28.75-3.88,1.49-5.52,1.27,0,0-1.38-.02-1.38-.02-9.15-.16-18.51-.46-27.64-1.07-7.47-.58-14.79-.9-22.23-2.41-7.53-1.58-15.21-4.68-20.42-10.67-2.65-2.98-4.44-6.58-5.86-9.97-.72-1.65-1.43-3.36-2.28-4.29-.46-.47-.7-.6-1.5-.78-7.95-1.06-16.24-.31-24.29-.04-21.94,1.19-43.84,3.24-65.69,5.58-14.53,1.67-29.18,3.15-43.53,5.89,0,0-.22-.98-.22-.98,7.21-1.59,14.47-2.63,21.73-3.73,21.8-3.14,43.66-5.72,65.58-7.86,14.71-1.27,29.34-2.95,44.15-2.53,3.98.12,6.35,1.06,8.15,4.66,2.02,3.98,3.8,8.24,6.82,11.28,10.09,10.28,26.37,9.36,39.87,10.1,9.02.29,18.3.28,27.35.12.36-.01,2.24-.03,2.31-.06.18-.02.82-.26,1.43-.61,6.37-3.78,11.23-9.64,18.15-12.92,1.5-.74,4-1.33,6-.97,0,0,1.36.14,1.36.14,26.6,2.43,54.2,4.3,80.1-2.79,2.94-.95,5.83-1.92,8.4-3.54,0,0-.08.06-.08.06,0,0-1.84,6.32-1.84,6.32-.75-2.04-.77-4.38-.39-6.45,3.2-14.35,22.07-21.25,34.27-25.28,4.63-1.42,9.3-2.72,14.02-3.77,10.25-1.95,19.71-1.05,29.66-.3,9.41.82,18.61,1.95,27.7,2.75,27.33,2.84,53.99-.93,80.73-5.79,7.76-1.5,15.49-3.22,23.12-5.24,1.06-.28,2.19-.59,3.11-.86l4.96,17.87h0Z"/>
  <path class="cls-1" d="m698.12,172.61c28.05-.4,56,.19,83.94,2.61,9.03.65,17.75.22,27.23.27,7.75-.02,16.66.48,24.02,3.43,7.77,2.84,15.28,6.5,21.32,12.62,6.7,6.57,10.14,16.99,6.87,26.08,0,0-.15.38-.15.38l-.64-5.28s-.09-.12-.09-.12c2.65,2.86,6.2,4.75,9.78,6.51,6.21,2.98,13.15,5.09,19.94,6.78,1.66.39,3.23.33,4.99.09,4.06-.6,8.59-2.22,13.23-3.67,4.66-1.47,9.57-2.85,14.7-3.53,4.81-.76,10.11-.31,14.98-.26,6.05.1,12.23.02,18.38.6,1.29.12,2.76.44,3.98.77,7.29,1.78,14.41,5.41,20.38,9.65,1.99,1.34,3.91,2.69,5.72,3.44,1.82.77,3.41.83,5.35.19,4.23-1.36,8.04-3.78,11.13-7.09,2.41-2.5,4.33-5.52,6.39-8.42.88-1.19,1.68-2.26,3.11-3.1,2.61-1.24,4.94-1.47,7.62-1.82,7.3-.75,14.61-.59,21.9-.18,9.66.66,19.37,1.62,28.68,4.44,0,0-.29.96-.29.96-4.61-1.23-9.37-1.87-14.13-2.35-12.97-1.01-26.32-1.56-39.13,1-2.37.57-3.36.97-4.72,3.17-1.99,3.07-3.83,6.27-6.34,9.09-3.32,3.89-7.76,7.01-12.64,8.8-5.54,2.42-11.21-.75-15.58-3.64-4.04-2.56-8.01-4.72-12.33-6.23-2.87-.99-5.9-1.84-8.91-2.27-7.28-.49-14.79.08-22.18.18-3.33-.04-6.92.06-10.2.7-9.65,1.61-17.58,6.27-27.62,8.43-2.49.47-5.29.68-7.87.22-2.8-.53-5.57-1.13-8.34-1.84-9.67-2.59-20.04-5.84-27.64-12.84-.32-.33-.83-.86-1.11-1.25,0,0-.64-5.28-.64-5.28-.04.1-.03.07-.03.06v-.05c1.32-5.23-.92-10.25-4.91-13.93-5.69-5.27-14.18-8.38-21.72-10.18-12.36-1.81-24.59.4-37.41.34-3.55.05-7.9-.13-11.44-.28-10.96-.38-21.91-.45-32.89-.3-14.58.2-29.36.71-43.87,1.6,0,0-.81-18.53-.81-18.53h0Z"/>
  <path class="cls-1" d="m691.88,228.68c-6.64-2.16-13.53-2.74-20.66-1.81-15.32,1.99-31.87,10.33-48.21,7.56-4.45-.69-8.8-2.01-12.79-3.86-7.69-3.54-13.69-8.58-20.8-12.42-5.93-3.2-12.13-6.18-18.82-5.13-11.33,2.22-22.96,5.84-32.78,11.7-4.92,3.18-12.03,8.04-10.36,14.44,0,0,.53,1.79.53,1.79l-1,1.34-24.67,32.93-.5.67c-5.84,2.15-11.69,3.9-17.67,5.34-13.9,2.99-32.69,6.86-42.72-6.23-3.7-4.83-4.62-10.91-7.41-15.99-4.04-7.79-13.14-10.4-21.21-11.94-11.35-2.03-23.07-2.16-34.57-1.39,0,0-.1-1-.1-1,11.64-1.01,23.38-1.11,34.96.72,8.63,1.47,18.41,4.19,23.08,12.35,3.02,4.96,4.17,10.87,7.78,15.27,5.26,6.65,14.3,7.72,22.3,6.85,11.23-1.13,22.46-4.55,32.93-8.67,0,0-1.17.92-1.17.92l23.33-33.88-.47,3.13c-3.51-9.8,5.48-18.51,12.81-23.16,10.66-6.81,22.26-10.84,34.35-13.73,4.53-1.16,9.5-.83,13.92.34,8.35,2.21,15.51,6.58,22.66,10.84,6.46,4.05,12.5,7.08,19.84,7.89,7.16.8,14.17-.74,21.19-2.85,16.33-5.29,32.35-10.41,50.16-5.09,0,0-3.93,13.07-3.93,13.07h0Z"/>
  <path class="cls-1" d="m718.59,314.75c5.8,3.89,12.27,6.34,19.38,7.39,15.28,2.27,33.48-1.23,48.44,5.89,4.1,1.88,7.91,4.34,11.25,7.2,6.43,5.5,10.82,11.99,16.61,17.63,4.83,4.7,9.98,9.26,16.7,10.08,11.5.96,23.68.66,34.73-2.3,5.6-1.72,13.77-4.44,13.91-11.06,0,0-.02-1.87-.02-1.87l1.33-1.02,32.72-24.94.67-.51.71-.05c11.91-.75,23.7-.6,35.42,1.87,13.44,2.77,22.87,9.88,23.49,24.48.37,5.67.78,11.33,4.47,15.82,3.49,4.41,8.67,7.37,13.66,9.91,5.15,2.56,10.58,4.6,16.09,6.37,5.51,1.75,11.13,3.25,16.79,4.41l-.18.98c-11.47-2.21-22.79-5.32-33.43-10.24-7.9-3.77-16.57-9.06-18.83-18.18-1.55-5.6-1.04-11.6-3.31-16.82-5.81-13.24-23.97-13.73-36.55-14.15-5.7-.04-11.49.21-17.09.81l1.38-.56-31.7,26.22,1.31-2.88c.69,10.39-10.32,16.31-18.65,18.78-12.11,3.63-24.38,4.35-36.8,3.82-4.68-.12-9.36-1.8-13.29-4.13-7.43-4.41-13.12-10.56-18.83-16.62-5.11-5.66-10.09-10.22-16.93-13.01-6.67-2.73-13.83-3.16-21.16-3.05-17.18.63-33.93,1.18-49.64-8.8,0,0,7.35-11.49,7.35-11.49h0Z"/>
  <path class="cls-1" d="m710.79,270.52c9.87-3.06,19.79-.22,27.98,5.48,6.27,3.9,10.94,8.61,18.12,8.95,9.92,0,20.39-4.75,30.1-7.37,1.32-.28-1-.14-2.07,2.11-.39.74-.43,1.5-.39,2.14.15.82.13.38-.17-.16-2.65-4.49-5.59-10.51-.16-14.69,7.9-5.24,24.67-.41,33.86-.47,22.72-1.5,45.09,5.07,65.46,14.62,0,0,1.47.72,1.47.72l.42,1.5,4.11,14.73-.85-1.42,26.59,27.6-.54-.41c3.92,2.31,8.21,4.41,12.51,6.17,8.29,3.26,17.84,6.28,26.56,3.86,4.24-1.39,7.96-4.16,10.91-7.52,3.03-3.43,5.35-7.62,8.2-11.59,2.8-3.99,6.42-7.67,10.8-10.03,6.5-3.27,13.59-5.47,20.8-6.42,2.48-.22,4.89-.38,7.38.26,0,0-.32.95-.32.95-1.02-.24-2.25-.29-3.4-.26-5.91.21-11.62,2.12-17.09,4.25-6.64,2.38-12.29,6.67-16.02,12.74-2.59,3.89-4.77,8.24-7.94,12.14-3.19,3.93-7.35,7.25-12.16,9-13.61,4.33-30.78-2.72-42.89-8.95,0,0-.24-.13-.24-.13l-.29-.28-27.6-26.59-.57-.55-.28-.87-4.62-14.58,1.88,2.23c-14.02-6.11-29.38-10.44-44.6-11.8-4.75-.4-9.45-.46-14.16-.09-2.04.23-4.62.41-6.54.26-5.01-.27-10.13-.91-14.92-1.16-3.3-.09-6.91-.45-9.89.57.75-.38,1.52-1.82,1.35-2.73.31.73.74,1.52,1.36,2.55.98,1.69,1.94,3.21,2.23,5.45.43,2.51-1.22,5.59-3.57,6.61-1.54.67-2.73.91-4.26,1.48-5.58,1.97-11.4,4.19-17.24,5.87-16.95,4.96-24.08,1.28-38.14-7.84-5.91-3.6-10.8-5.37-17.24-3.24,0,0-3.93-13.07-3.93-13.07h0Z"/>
  <path class="cls-1" d="m710.27,328.08c-3.86,1.95-7.52,5.89-10.87,9.33-8.74,9.3-16.66,19.51-27.68,27.53-7.47,5.4-16.59,6.74-25.09,5.95-17.91-1.9-37.66-12.56-45.19-29.44-.25-.6-1.02-2.65-1.21-2.8-.02-.05.05.04.31.21.45.39,1.88.76,2.45.61.26-.03.34-.1.26-.07-.16.02-.82.33-1.53.84-1.39.95-2.95,2.51-4.14,3.87,0,0-.42.5-.42.5l.99-1.67-19.85,40.75s-1.97,4.05-1.97,4.05c-2.39.5-5.61,1.25-7.89,1.66-11.37,1.93-30.48,5.46-41.22-.06-1.71-.89-3.72-2.52-4.95-4.35-1.56-2.53-2.72-5.25-4.14-7.66-7.41-13.24-17.44-25.63-31.51-31.51-2.81-1.17-5.74-1.99-8.73-2.55-5.53-.17-11.13.25-16.82.51-16.28.96-32.65,1.98-48.87,3.57-21.07,3.78-39.06,16.33-58.23,25.63-4.23,1.93-8.84,4.11-13.76,4.1-3.71-.16-6.87-2-9.99-3.52-6.18-3.21-12.45-6.53-19.1-8.17-4.33-1.05-9.12-1.56-13.85-2.16-14.4-1.95-29.99-2.92-42.32-11.57-3.49-3.07-7.28-5.55-11.8-6.88-13.56-4.08-28.14-3.03-42.15-1.5-18.96,2.36-37.72,6.67-56.02,12.18,0,0-.31-.95-.31-.95,9.12-3.05,18.36-5.68,27.69-8.01,22.15-5.19,57.76-13.04,78.87-2.34,2.21,1.1,4.09,2.83,6.08,4.22,3.67,2.51,8.03,4.14,12.49,5.33,9.12,2.38,18.6,3.04,28.04,3.82,4.8.41,9.6.73,14.65,1.71,5.02,1.01,9.79,2.76,14.3,4.73,3.32,1.43,6.5,3.03,9.76,4.36,1.38.52,2.48.99,3.73,1,3.51-.36,6.68-2.16,9.94-3.81,4.07-2.17,8.14-4.64,12.24-7.11,14.59-8.76,29.91-18.15,46.89-22.1.49-.15,1.62-.28,2.19-.37,11.4-1.46,22.86-2.54,34.26-3.59,10.38-.88,20.51-1.92,31.03-2.21.89-.02,2.02.02,2.93.13,25.56,3.08,44.39,23.99,56.11,45.21,0,0,.21.36.21.36-.13-.34-.84-1.16-1.05-1.26,1.72.55,4.22.67,6.63.62,7.41-.18,15.69-1.67,23.15-3.3,1.09-.24,2.27-.52,3.24-.76l-6.07,4.94s18.55-41.36,18.55-41.36c0,0,.39-.87.39-.87.78-1.03,1.69-2.24,2.54-3.22,8.28-10.17,22.31-16.57,32.46-4.6,2.12,2.6,3.14,4.97,4.16,7.34,2.98,5.63,8.29,9.22,14.38,12.16,7.16,3.17,17.48,5.89,23.97,1.45,11.35-8.99,19.73-22.47,30.7-32.83,2.67-2.49,5.73-5.04,9.71-7.28l11.42,21.22h0Z"/>
  <path class="cls-1" d="m716.04,49.31c11.55,6.76,18.99,18.13,27.65,27.53,3.95,4.42,8.05,8.59,12.37,11.88,3.62,2.7,8.58,3.35,13.26,3.02,11.88-.94,27.39-8.22,32.26-19.67,4.19-10.78,14.22-13.52,23.3-6.39,3.14,2.41,5.63,5.07,7.96,8.21,0,0,.23.5.23.5,0,0,18.84,41.23,18.84,41.23l-3.48-2.85c8.87,2.13,18.52,4.02,27.58,4.26,2.83,0,5.88-.03,8.09-1.1.17-.09.19-.14.16-.08-.02.03-.05.08-.07.14,0,0,0,.03,0,.01l.05-.11.1-.22c4.11-9.56,10.02-19.12,18.61-25.44,20.36-14.71,49.13-13.95,73.02-13.44,2.37.14,5.63.08,7.95.78,5.43,1.35,9.76,4.94,13.58,8.59,5.12,4.95,10,10.35,15.92,14.06,12.13,7.48,26.83,8.18,40.87,9.02,7.19.26,14.44.2,21.63-.2,2.46-.25,5.16-.08,7.57.14,12.27.79,48.07,6.41,55.71-2.27,3.04-3.44,4.21-8.53,6.78-12.51,5.14-8.98,15.52-13.02,25.2-14.66,24.17-3.88,48.8-.68,72.8,2.86,9.61,1.54,19.16,3.32,28.66,5.45l-.22.98c-9.48-2.02-19.05-3.69-28.64-5.12-23.87-3.25-63.8-8.34-85.7,2.33-4.16,2.13-7.59,5.44-9.91,9.48-2.6,4.22-3.41,9.18-6.83,13.14-3.58,4.11-9.19,4.99-14.22,5.63-16.39,1.85-32.84-.89-49.11-1.23-12.85,1.03-25.75,1.16-38.61-.08-16.85-1.65-28.62-5.38-40.92-17.44-3.61-3.33-6.98-6.78-10.6-9.14-2.72-1.76-5.35-2.74-8.48-2.79,0,0-3.61-.06-3.61-.06-9.62-.15-19.24.05-28.71.94-25.62,2.6-44.09,8.68-53.98,34.24-3.94,10.87-23.55,7.57-32.35,6.62-5.74-.79-11.43-1.89-17.14-3.19,0,0-1.12-2.33-1.12-2.33l-19.57-40.89.57.96-.55-.67c-1.41-1.66-3.13-3.38-4.83-4.61-1.33-.87-2.36-1.65-3.63-1.59-.96.72-1.46,1.8-2.06,3.25-7.38,18.6-33.84,30.86-53.06,27.25-3.73-.76-7.57-2.2-10.94-4.67-10.53-7.76-18.29-17.87-26.8-27.07-3.69-3.89-7.68-8.1-12.14-10.49,0,0,6.56-12.19,6.56-12.19h0Z"/>
  <path class="cls-1" d="m733.27,430.09c7.27,4.2,15.39,7.14,23.55,9.56,14.85,4.27,30.57,6.57,46.09,6.85,25.43-.39,50.56-7.03,76.14-8.66,5.17-.27,10.82-.42,16.62.76,3.07.67,6.68,1.67,9.73,2.51,13.48,3.83,42,13.99,37.9,32.44,0,0-.05.15-.05.15l-.11.3s-1.18-5.74-1.18-5.74c-.22-.21-.04-.04,0,0,4.11,3.2,9.05,5.08,13.98,6.92,5.47,1.93,11.17,3.48,16.96,4.78,21.13,4.7,43.1,6.65,64.77,7.71,0,0,2.41.14,2.41.14,4,.26,9.16,1.82,12.47,1.05,2.02-.67,5.91-2.29,8.33-3,9.01-2.94,18.99-4.02,28.4-2.3,5.94.92,11.75,3.07,17.56,3.33,15.54-.9,31.3-3.93,45.55-10.21,2.15-.83,4.62-1.4,6.86-1.88,9.02-1.84,18.15-2.81,27.31-3.41,12.17-.64,24.53-.93,36.51,1.75,0,0-.22.98-.22.98-5.9-1.18-11.97-1.46-18.01-1.45-15.06.19-30.21,1.84-44.88,5.24-1.78.44-3.58.94-5.29,1.55,0,0-.96.39-.96.39l-2.05.93c-11.15,5.28-23.35,8.16-35.47,10.08-3.18.45-6.11,1.08-9.43,1.1-9.26-.26-17.75-3.8-26.93-3.25-7.15.23-14.28,2.2-20.93,4.98,0,0-2.01.88-2.01.88-2.27,1.15-5.78,1.73-8.21,1.5-3.14-.13-6.14-.77-9.08-.9,0,0-4.44-.08-4.44-.08-21.54-.39-42.93-1.64-64.23-5.61-9.24-1.79-18.56-4.06-27.33-7.87-3.34-1.55-6.7-3.13-9.49-5.7,0,0-1.18-5.74-1.18-5.75,0,0-.09.24-.09.24l-.02.08s-.01.04-.02.05c0,0,0,.01,0-.02,0-.86-.32-1.57-.81-2.46-5.88-8.73-22.99-13.18-33.12-15.63-1.86-.43-3.84-.86-5.73-1.22-8.28-1.19-17.95.46-26.55,1.73-20.96,3.28-41.82,8.53-63.35,9.53-7.38.22-14.72-.22-22.07-.86-19.01-1.88-38.27-6.03-55.56-14.57,0,0-.92-.49-.92-.49l-.49-.27-.61-.35,9.7-15.81h0Z"/>
  <path class="cls-1" d="m706.78,498.22c-14.51,1.64-28.75,2.16-43.42.84-14.83-1.59-33.35-5.15-40.24-20.67-2.41-5.27-3.56-11.61-3.67-17.04-.31-6.31.99-13.73.35-19.12-.37-1.69-.29-2.03-1.62-2.99-1.42-.81-4.05-1.56-6.98-1.71-7.48-.85-14.79,1.15-16.18,9.29,0,0-1.53-3.78-1.53-3.78,1.14,1.3,1.96,2.57,2.7,4.15,2.39,4.74,1.1,10.76-3.78,13.61-10.05,5.98-32.56,1.99-43.84-.12-17.41-3.76-34.7-10.03-48.71-21.25,0,0,.64-.77.64-.77,7.17,4.88,15.38,8.26,23.62,10.89,10.26,3.3,21.13,5.04,31.84,5.87,8.31.42,17.2.82,25.3-.69,2.39-.56,4.67-.97,6.06-2.44.05-.18-.16.12-.2.2-.05.08-.09-.19-.39-.64-.24-.38-.77-1.08-1.04-1.26,0,0-1.53-3.78-1.53-3.78,0-4.4,1.36-8.63,3.72-12.32,1.16-1.63,2.57-3.3,4.11-4.57,1.33-1.03,2.85-2.14,4.35-2.84,1.45-.85,3.11-1.3,4.65-1.88,4.42-1.25,9.13-1.51,13.65-1.34,9.47.37,17.85,4.94,20.31,14.7,1.9,7.13,1.01,14.71,1.93,21.52.56,4.15,1.45,7.42,3.55,10.69,3.96,5.49,17.4,5.97,24.13,6.07,10.94,0,22.36-1.38,33.24-3.37,0,0,2.34-.45,2.34-.45.74-.15,1.6-.32,2.19-.46l4.44,25.64h0Z"/>
  <path class="cls-1" d="m422.82,147.45c-1.84,6.42-5.64,11.29-7.14,17.3-.42,1.83-.38,3.86-.34,5.73-.08,2.45-.56,5-1.78,7.39-2.46,5.19-8.34,7.45-13.66,6.46-2.08-.38-4.11-.96-6.22-1.27-11.41-1.77-23.23-1.89-34.66-3.98-.94-.17-2.45-.57-3.35-.86-.98-.31-1.65-.87-2.64-1.1-.7-.15-1.61-.14-2.53-.05-5.93.8-11.68,3.48-16.97,6.33-5.72,2.92-9.99,8.17-16.33,10.07-6.27,1.99-13,1.88-19.4,1.26-7.41-.8-14.93-1.91-21.9-4.67-5.02-1.99-9.54-5.22-13.06-9.3-2.71-3.12-5.4-6.43-9.63-7.24,0,0,.19-.98.19-.98,6.71,1.11,9.89,7.87,15.04,11.47,4.97,3.7,11.08,5.68,17.14,6.74,10.04,1.58,20.84,3.08,30.65-.12,3.97-1.4,6.85-3.87,10.1-6.64,7.04-5.14,15.01-9.42,23.7-10.99,1.86-.24,4.07-.29,5.93.73.73.34,1.66.6,2.42.79,7.68,1.42,15.49,1.55,23.3,2.12,5.31.38,10.75.64,16.09,1.65,2.39.55,5.48,1.08,7.58-.02,2.6-1.1,3.91-4.36,3.91-7.89-.04-.99-.1-2.22-.11-3.2.03-3.55,1.19-7.28,2.55-10.36,1.8-4.06,3.57-7.58,4.58-11.31l6.55,1.92h0Z"/>
  <path class="cls-1" d="m598.69,112.4c-1.2-6.02-.95-11.87-.9-17.29-.16-4.42.49-9.63-2.98-12.58-1.86-1.33-4.44-2.38-6.58-3.17-7.98-2.67-16.73-4.61-25.15-4.55-4.3.52-8.19,2.82-11.84,5.18-1.65,1.14-3.34,2.33-4.69,3.76-.52.62-1.19,1.14-1.87,1.54-8.32,4.16-21.49,6.57-30.37,3.17-1.43-.59-2.83-1.48-4.03-2.46-6.26-4.95-13.46-8.57-21.49-9.34-7.93-.84-16.3.02-24.2,1.49-3.37.74-6.81,1.36-9.74,3.06,0,0-.26.2-.26.2-.14.12-.14.2-.11.02-.6,2.04-2.27,2.75-3.88,3.64-8.51,3.75-18.21,4.87-27.2,2.05-1.86-.53-4.03-.88-5.96-1.13-13.67-1.62-27.52-1.46-41.29-1.23,0,0-.04-1-.04-1,11.06-.52,22.13-.79,33.24-.37,4.14.18,8.41.45,12.52,1.17.96.15,2.18.49,3.15.72,5.41,1.57,11.28,1.15,16.82-.11,3.35-.88,7.43-1.98,9.75-4.25.35-1.4,1.11-1.82,2.06-2.5,5.79-3.03,12.25-3.91,18.58-4.93,5.56-.74,11.21-1.18,16.95-.68,9.03.6,17.53,4.76,24.62,10.21.61.44,1.51.91,2.21,1.18,7.45,2.59,19.42.11,26.23-3.65,4.5-4.77,11.1-9.17,17.86-11.12,4.4-1.09,9.14-.38,13.48.09,6.41.85,12.74,2.18,18.85,4.41,1.59.64,3.75,1.53,5.21,2.46,6.63,3.52,7.24,12.25,7.25,18.67.07,5.61.04,10.92,1.14,15.76l-7.35,1.57h0Z"/>
  <path class="cls-1" d="m381.79,354.84l.05,14.49c.09,2.23-.14,8.11.17,10.21.22,1.37.82,3.23,1.33,4.64,3,8.09-5.15,10.38-11.4,10.9-5.57.25-10.63-1.99-15.29-4.34-3.55-1.67-7.99-4.62-11.59-4.22-5.78,1.42-9.53,8.18-10.89,13.72-.64,2.4-.24,4.2-.55,6.93-.38,2.74-1.24,5.24-2.42,7.6-2.37,4.75-6.25,8.98-11.36,10.87-7.57,2.83-17.21.16-21.42-6.84-3.98-6.11-5.09-13.53-9.53-19.24-4.28-5.85-11.46-7.05-18.31-7.28-4.74-.25-9.51-.12-14.26.23-9.5.74-18.99,2.4-28.17,5.01l-.31-.95c9.21-2.93,18.69-4.89,28.31-5.93,4.81-.5,9.66-.78,14.52-.67,7.67,0,15.47,1.31,20.55,7.73,4.69,5.52,6.37,13.48,10.22,19.07,1.24,1.82,2.79,3.26,4.6,4.24,11.2,5.41,21.22-3.13,22.65-14.4.12-1.07.02-1.72-.02-3.35.05-4.02,1.24-7.98,3.03-11.53,2.62-4.92,6.32-9.5,12.24-10.92,5.61-1.02,10.71,2.23,15.45,4.3,5.75,2.81,11.74,4.76,17.66,1.77.27-.14.33-.29.14-.06-.14.15-.25.53-.26.67,0-.37-.78-2.16-.93-2.65-.99-2.49-1.53-5.49-1.51-8.24,0,0-.24-7.16-.24-7.16l-.49-14.32,8.04-.25h0Z"/>
  <path class="cls-1" d="m897.01,229.61l.4-14.48c-.02-2.23.39-8.1.14-10.21-.18-1.37-.72-3.26-1.18-4.68-2.75-8.17,5.47-10.22,11.74-10.54,5.58-.07,10.56,2.32,15.15,4.81,3.5,1.77,7.84,4.87,11.45,4.58,5.83-1.24,9.77-7.88,11.31-13.37.72-2.37.37-4.19.77-6.91.46-2.72,1.4-5.2,2.65-7.52,2.52-4.68,6.53-8.78,11.69-10.51,7.65-2.6,17.2.37,21.2,7.5,3.79,6.23,4.67,13.68,8.93,19.52,4.1,5.98,11.24,7.4,18.08,7.84,4.73.39,9.5.42,14.26.22,9.52-.44,19.06-1.81,28.31-4.14l.28.96c-9.3,2.64-18.83,4.31-28.48,5.06-4.82.35-9.68.48-14.53.22-7.67-.23-15.42-1.79-20.3-8.36-4.51-5.66-5.95-13.67-9.63-19.37-1.19-1.86-2.69-3.35-4.47-4.38-11.03-5.76-21.31,2.47-23.08,13.7-.16,1.07-.07,1.72-.09,3.35-.17,4.02-1.49,7.94-3.39,11.43-2.77,4.84-6.61,9.3-12.57,10.54-5.64.85-10.63-2.56-15.31-4.78-5.66-2.99-11.58-5.12-17.6-2.31-.27.13-.34.28-.14.05.14-.15.26-.47.27-.66.01-.01,0-.03.01,0,.01.09.11.51.28.99.66,1.86,1.27,3.69,1.59,5.75.43,2.78.18,8.52.26,11.38,0,0,.04,14.33.04,14.33h-8.04Z"/>
  <path class="cls-1" d="m786.06,453.83c.27-4.61,0-9.42-.48-14.4-.44-4.99-1.14-10.08-1.12-15.78,0-3.11.4-7.23,2.18-10.64,2.91-5.82,9.81-7.84,15.35-9.41,11.17-2.75,31.3-4.82,41.04,2.47,1.25.86,2.49,1.84,3.57,2.9,1.54,1.27,3.71,4.69,4.64,5.73,2.57.28,5.98.37,8.58.64,7.35.56,15.34,1.15,22.63,1.29,4.99.11,9.98.07,14.81-.35,3.47-.36,6.72-.71,9.8-2.06.74-.3,1.99-1.27,2.68-1.73,12.69-8.94,25.5-18.36,40.54-23.19,5.69-1.74,11.89-2.69,17.84-.95,2.14.69,4.42,1.49,6.5,2.3,18.34,7.05,35.66,16.66,54.74,21.28.86.17,2.72.51,3.59.67,0,0,1.78.18,1.78.18.6.06,1.17.13,1.8.18,20.83,1.63,41.7,5.26,62.58,3.99,7.1-.66,15.07-1.24,20.41-6.16,3.15-3.41,3.03-8.77,1.71-12.96-.75-2.24-2.01-4.31-3.49-6.29-1.46-2.04-5.8-6.24-1.52-8,2.82-.91,5.19-.77,7.98-.89,20.47-.18,40.8,2.49,60.79,6.68,0,0-.21.98-.21.98-19.9-3.75-40.27-6-60.52-5.41-2.23.12-5.11.15-7.13.87-.21.08-.35.2-.36.21,0,.03.05-.16.05-.09.46,1.29,2.07,2.82,2.97,4.1,4.09,4.89,6.29,11.75,4.56,18.08-5.12,21.33-72.38,9.83-90.04,9.52-1.8-.09-4.18-.53-5.95-.82-21.34-4.61-40.57-15.5-61.15-22.12-12.71-3.91-30.35,8.03-40.78,15.05-4.78,3.3-9.47,6.93-14.28,10.38-.86.57-1.87,1.1-2.8,1.5-8.64,3.24-18.05,3.08-27,3.23-10.01.05-20.53-.82-30.5-1.19-3.24.15-6.65-1.71-8.35-4.29-1.21-1.71-2.66-3.6-4.32-4.81-.99-.81-2.2-1.48-3.32-2.11-1.04-.49-2.05-.79-3.34-1.07-6.78-1.28-14.14-.77-21.04.31-4.44.76-9.25,1.87-13.12,3.82-1.08.56-1.92,1.08-2.44,1.74,0-.02-.05.1-.08.16l-.1.22c-.85,1.61-.87,3.59-.91,6.09.06,4.49.8,9.51,1.38,14.64.59,5.14,1.04,10.51.83,16.08l-10.99-.59h0Z"/>
  <path class="cls-1" d="m868.04,122.23c.11,4.9-1.23,8.87-2.03,13.32-.39,2.4-.96,4.89-.1,6.68.54.75,2.57.56,3.49.65,0,0,3.21.16,3.21.16,6.12.36,12.88.85,18.92.99,3.53.03,7.05.12,10.49-.51,5.28-1.22,10.41.05,15.3,1.62,3.67,1.25,7.21,2.73,10.6,4.62.29.16.55.24.93.33,3.81.89,8.18,1.2,12.17,1.46,12.34.5,25.25.49,36.96-3.69,3.97-1.36,6.97-4.32,10.32-6.68,6.96-4.98,14.57-9.17,22.78-11.72,8.19-2.59,17.04-3.14,25.42-1.4l-.2.98c-8.26-1.46-16.81-.67-24.69,2.08-9.91,3.39-18.77,9.29-26.75,16.02-10.9,8.17-30.78,8.53-44.03,8.41-4.91-.28-9.79-.15-14.6-1.69-5.06-2.57-10.61-4.64-16.21-5.53-2.52-.39-4.69-.35-6.92.25-1.65.39-3.45.57-5.11.71-8.48.57-17.21.02-25.67-.19-1.98-.11-4.85.06-6.84-.29-11.85-3.04-3.86-18.28-4.47-26.15,0,0,6.99-.44,6.99-.44h0Z"/>
  <path class="cls-1" d="m925.15,83.86c-.73-8.96-6.17-17.79-4.46-27.26.8-5.2,4.17-9.43,8.15-12.59,6.6-5.81,14.2-7.34,22.65-7.05,6.44-.11,12.91-.84,18.87,2.43,3.97,2.03,6.78,6.16,7.46,10.55.74,1.23,2.27,1.82,3.82,2.51,8.3,3.03,17.44,3.86,26.28,4.48,5.99.32,12.05.41,17.91-.28,1.98-.31,4.34-.52,5.86-1.66.75-3,1.59-6.8,2.85-10.01,2.21-5.86,5.87-11.37,10.93-15.21,4.93-3.92,10.92-6.08,16.85-7.84,11.79-3.34,23.89-5.16,36.03-6.49,6.07-.62,12.14-1.12,18.29-1.09,6.25-.02,12.04,2.75,17.64,5.07,5.58,2.31,11.54,3.39,17.58,3.45,0,0,0,1,0,1-6.14.04-12.32-.99-18.03-3.26-5.59-2.2-11.12-4.81-17.21-4.71-6,.06-12.06.65-18.07,1.35-14.75,2-39.94,5.33-51.46,14.58-4.61,3.6-7.87,8.66-9.86,14.17-1.2,3.17-1.85,6.61-2.67,9.98-1.89,5.42-21.68,4.47-26.81,4.38-8.37-.51-26.65-1.5-32.63-7.47-.6-.65-1.04-1.54-1.21-2.43-1.03-6.41-7.38-9.23-13.41-9.37-2.93-.16-6.03.25-8.96.24-5.9,0-11.39.44-16.3,3.73-7.96,5.41-11.56,10.51-9.26,20.5,1.28,6.07,3.96,11.54,4.46,18.09,0,0-5.3.23-5.3.23h0Z"/>
  <path class="cls-1" d="m827.76,270.97c-.04,8.14,2.14,24.03-6.08,29.03-2.01,1.17-4.23.79-6.03,2.49-3.33,2.87-5.7,9-3.14,12.97.52.76,1.45,1.19,2.22,1.64,8.86,5.53,18.71,8.85,29.18,8.8,4.43-.15,9.31.1,13.32-1.92.36-.27.91-.66,1.22-1.01,2.03-2.56,5.54-2.69,8.5-2.79,0,0,.04,1,.04,1-2.12.22-4.65.31-6.37,1.59-.85.7-1.59,1.81-2.57,2.46-4.27,2.48-9.35,2.43-14.1,2.82-10.76.6-21.65-2.51-30.95-7.77-5.9-2.38-6.49-9.19-4.69-14.43,1.45-4.45,5.04-8.81,9.95-9.7,3.81-1.27,3.82-7.41,4.01-11.1.06-4.47-.38-9.05-.73-13.77l6.23-.31h0Z"/>
  <path class="cls-1" d="m699.68,516.41c-12.48,3.58-24.9,11.76-37.9,15.04-2.37.67-5.48,1.33-7.94,1.7-.67.13-2.01.3-2.69.36-7.09.75-14.31.39-21.36-.56-9.9-1.23-19.32-5.24-26.16-12.73-3.85-3.23-15.27-1.93-20.4-1.54-13.38,1.35-26.74,4.07-40.31,6.18-13.61,2.02-27.23,3.58-41,4.03-5.55,0-19.27.77-22.52-4.04-3.82-4.89-8.82-8.82-13.57-12.81-5.27-4.24-10.72-8.35-16.5-11.72-1.8-1-3.54-1.97-5.48-2.43-.35-.06-.59-.1-1.03-.06l-1.19.07-1.25.15c-16.84,2.39-33.53,6.06-50.21,9.42,0,0-.22-.98-.22-.98,17.09-3.85,34.1-8.1,51.44-10.84.99-.06,1.88-.24,2.88-.04,2.25.45,4.33,1.53,6.26,2.55,6.1,3.37,11.67,7.38,17.14,11.56,5.09,4.09,10.43,8.05,14.55,13.19.96,1.12,2.75,1.41,4.59,1.73,11.68,1.32,23.52-.3,35.17-1.6,20.46-2.35,40-7.55,60.59-10.24,7.35-.68,19.27-2.57,25.33,2.56,7.74,8.05,16.83,10.33,27.71,10.96,5.62.26,11.42.31,16.98-.75,8.92-1.56,17.19-5.27,25.29-9.28,6.09-2.96,12.25-6.29,19.49-8.43l2.31,8.57h0Z"/>
  <path class="cls-1" d="m589.63,215.1c-.98-7.37-1.08-14.67-2.11-21.46-.94-6.24-3-12.47-9.95-13.16-6.93-.49-13.98.22-20.85,1.18-9.3,1.64-19.27,3.39-26.73,9.32-7.76,6.59-22.6,21.65-31.22,8.56-8.24-10.14-27.43-10.51-39.43-13.65,0,0,.26-.96.26-.96,7,1.5,14.3,1.95,21.34,3.53,7.15,1.66,14.8,3.62,19.78,9.59,1.89,2.78,4.39,4.49,7.9,3.72,6.75-1.7,11.86-7.06,16.94-11.64,7.9-8.2,19.73-10.87,30.37-13.07,5.42-1.02,10.92-1.65,16.44-1.95,4.06-.21,8.23-.26,11.98,1.79,11.44,6.17,9.74,26.35,12.04,37.18,0,0-6.78,1-6.78,1h0Z"/>
  <path class="cls-1" d="m480.24,336.43c-.98-7.37-1.08-14.67-2.11-21.46-.94-6.24-3-12.47-9.95-13.16-6.93-.49-13.98.22-20.85,1.18-9.32,1.65-19.25,3.38-26.73,9.32-7.76,6.59-22.6,21.65-31.22,8.56-8.24-10.14-27.43-10.51-39.43-13.65,0,0,.26-.96.26-.96,7,1.5,14.3,1.95,21.34,3.53,7.15,1.66,14.8,3.62,19.78,9.59,1.89,2.78,4.39,4.49,7.9,3.72,6.75-1.7,11.86-7.06,16.94-11.64,7.9-8.2,19.73-10.87,30.37-13.07,5.42-1.02,10.92-1.65,16.44-1.95,4.06-.21,8.23-.26,11.98,1.79,11.44,6.17,9.74,26.35,12.04,37.18,0,0-6.78,1-6.78,1h0Z"/>
  <path class="cls-1" d="m824.64,460.23c-.1,7.97-.81,15.95-1.68,23.8-.69,7.19-1.95,15.02-.83,21.91.09.57.3,1.13.41,1.69.04.13.05.08.05.14-.02.06.02.1.06.14.17.27.29.44.6.67,8.05,5.25,27.63,4.51,37.55,4.16,0,0-1.64.89-1.64.89,0,0,11.77-12.61,11.77-12.62,0,0,.45-.53.45-.53l.65.08c-.3.02,38.6,4.95,37.69,4.94,0,0,19.35-4.2,19.35-4.2l.21.98-19.35,4.2c0,.06-38.12-3.47-38.18-3.46,0,0,1.1-.45,1.1-.45,0,0-9.91,14.12-9.91,14.12l-.49.7s-1.15.19-1.15.19c-10.94,1.18-38.67,4.69-45.61-5.42-.81-1.33-1.29-2.81-1.72-4.27-2.06-8.41-1.29-16.33-1.14-24.57.26-7.65.38-15.22-.1-22.79,0,0,11.9-.3,11.9-.3h0Z"/>
  <path class="cls-1" d="m787.3,178.13c-.4-2.71-.66-5.32-.68-8.09.03-1.99.1-4.6,1.41-6.44.78-1.01,2.2-1.53,3.1-1.79,2.83-.77,5.42-.94,8.07-1.14,2.85-.18,5.68-.23,8.53-.22l.41.44,7.56,8.06-1.08-.34,30.06-4.84.18.98-29.81,6.23-.6.13-.48-.47-7.93-7.7,1.07.44c-2.53.14-5.1.36-7.61.67-2.85.44-6.01.67-8.31,1.98.09-.15-.06.21-.15.6-.47,3.35.29,7.23.94,10.62,0,0-4.69.9-4.69.9h0Z"/>
  <path class="cls-1" d="m610.47,224.04c.4,2.71.66,5.32.68,8.09-.03,1.99-.1,4.6-1.41,6.44-.78,1.01-2.2,1.53-3.1,1.79-2.83.77-5.42.94-8.07,1.14-2.85.18-5.68.23-8.53.22,0,0-.41-.44-.41-.44l-7.56-8.06,1.08.34-30.06,4.84-.18-.98,29.81-6.23.6-.13.48.47,7.93,7.7-1.07-.44c2.53-.14,5.1-.36,7.61-.67,2.85-.44,6.01-.67,8.31-1.98-.09.15.06-.21.15-.6.47-3.35-.29-7.23-.94-10.62,0,0,4.69-.9,4.69-.9h0Z"/>
  <path class="cls-1" d="m495.37,75.66c1.22-3.04,4.41-11.92.1-13.09-7.98-.84-16.11-.44-24.13-.24-.02,0,.41-.1.41-.1l-16.75,7.54s-.39.17-.4.17c0,0-.39-.07-.39-.07.23-.02-30.86-5.55-29.38-5.44-16.5,2.25-33.06,4.88-49.75,4.97-11.91-1-23.46-4.33-35.09-6.81-9.26-2.16-18.5-4.4-27.72-6.71l.24-.97c9.24,2.22,18.49,4.39,27.76,6.47,9.27,2.06,18.55,4.13,27.89,5.72,3.51.65,6.96.89,10.5.74,15.49-.69,30.89-3.17,46.21-5.32,0,0,29.83,4.64,29.83,4.64,0,0-.8.1-.78.09,0,0,16.91-7.18,16.91-7.18l.21-.09c7-.33,13.94-.59,20.95-.36,1.35.07,2.75.1,4.09.34,5.22,1.21,4.66,7.76,3.61,11.7-.44,1.76-.97,3.41-1.66,5.12l-2.65-1.14h0Z"/>
  <path class="cls-1" d="m697.59,153.9c-8.61,5.24-17.38,9.06-24.49,12.9-5.82,3.38-10.55,5.78-12.24,11.8-.42,1.58-.48,3.58-.57,5.24-1.08,16.18-3.17,32.14-5.65,48.15-1.08,6.2-1.96,12.69-3.9,18.91-2.81,8.51-12.94,9.81-20.53,10.02-4.01-.07-8.61-.29-12.08-3.07-1.81-1.51-2.84-3.88-2.6-6.26.85-13.81,1.93-28.2,2.31-41.79.04,0,.02-.03.05.06.05.19.25.53.33.62.17.22.15.13.06.04-4.99-3.84-11.22-6.58-16.89-9.48,0,0,.58.17.58.17l-39.59-8.43.16-.99,40.24,4.42c4.54,1.53,8.93,3.36,13.39,5.28,2.42,1.13,4.32,1.88,6.67,3.58.34.27.73.58,1.25,1.24.32.39.73,1.37.7,1.45.16.6.31,1.59.34,2.01,1.08,12.82,1.29,25.74,1.81,38.54,0,0,.13,3.35.13,3.35l.02.4c.02.53.02-.5-.04-.63-.12-.56-.26-1-.5-1.44-.24-.43-.55-.83-.91-1.16-.19-.14-.39-.33-.54-.4-.02-.01,0-.01,0-.02,0,0,0-.02.01-.01,3.79.39,8.65-.35,12.09-2.02.56-.28,1.01-.68.77-.58-.09.06-.44.33-.73.98-.02-.05,0-.18,0-.26,1.91-14.09,2.11-28.79,2.45-43.07.14-7.85.01-15.65-.27-23.45-.22-8.09,2.93-16.65,8.22-22.73,10.29-11.72,23.46-16.75,35-25.71,0,0,14.96,22.35,14.96,22.35h0Z"/>
  <path class="cls-1" d="m212.26,293.38c6.39,3.75,12.57,7.8,18.29,12.54,4.05,3.57,9.64,8.23,8.69,14.49-.38,2.19-1.51,4-3.28,5.42,0,0,.42-.5.42-.5-2.22,5.45-4.14,11.39-4.23,17.32.47,5.86,3.07,11.63,5.38,17.11.83,2.08,1.98,4.22,2.42,6.51,1.87,1.73,6.16,2.68,9.14,3.46,4.66,1.15,9.97,2.06,14.74,2.91,14.47,1.88,35.22-23.19,46.32-32.08,3.78-2.99,7.53-5.79,11.6-8.35,1.22-.76,2.48-1.5,3.79-2.13.22-.1.39-.19.72-.32,0,0-1.41,1.44-1.41,1.44l18.83-54.8s.5-1.46.5-1.46l1.55-.29c11.56-2.12,23.05-4.12,34.71-5.69,4.7-.55,9.55-1.33,14.35-1.06.86.05,1.73.28,2.54.62,7.33,3.6,6.9,14.7,6.48,21.58,0,0-.28-1.81-.28-1.81,6.81,13.77,22.91,41.95,39.42,43.28,0,0-.48,8.68-.48,8.68-20.83-1.76-37.26-31.99-45.23-49.14,0,0-.4-.89-.4-.89.4-2.89.52-6.03.29-8.95-.12-2.13-.65-4.84-1.81-6.35-.36-.4-.58-.54-1.03-.64,0,0-.21-.01-.21-.01l-.43-.02c-1.31-.08-2.61-.04-3.94.04-8.6.53-17.23,1.78-25.81,2.97-5.75.83-11.52,1.71-17.25,2.64l2.05-1.74s-19.36,54.62-19.36,54.62l-1.41,1.44c-5.31,2.63-10.13,6.41-14.79,10.01-12.29,10.15-29.81,30.92-46.02,32.74-3.01.34-6.83-.81-9.79-1.28-4.92-1.22-19.87-3.19-21.18-8.43-.37-2.1-1.33-3.99-2.12-6.04-2.57-6.67-5.84-13.63-5.05-21.06.85-5.68,2.72-11.09,5.24-16.25,1.29-.84,2.39-2.38,2.69-3.94,1.38-7.18-10.9-15.49-16.07-19.57-2.96-2.15-6-4.22-9.09-6.17l.51-.86h0Z"/>
  <path class="cls-1" d="m337.65,300.46c-5.44-3.85-11.24-7.43-16.92-10.96,0,0,1.37-.43,1.37-.44,0,0-8.71,18.63-8.71,18.63l-.39.82-.87-.22c-11.14-2.82-22.26-5.71-33.3-8.91-3.68-1.1-7.35-2.18-10.96-3.57l.36-.93c14.51,4.7,29.56,7.79,44.41,11.26,0,0-1.26.6-1.26.6,0,0,8.94-18.53,8.94-18.53l.45-.94c3.29,1.78,6.61,3.48,9.89,5.29,2.98,1.63,5.94,3.26,8.88,5.07l-1.89,2.82h0Z"/>
  <polygon class="cls-1" points="391.24 141.48 391.24 105.77 394.53 141.48 391.24 141.48"/>
  <polygon class="cls-1" points="893.78 103.4 893.78 67.69 897.07 103.4 893.78 103.4"/>
  <polygon class="cls-1" points="263.09 131.07 231.69 114.06 264.66 128.18 263.09 131.07"/>
  <polygon class="cls-1" points="308.19 155.91 288.31 126.25 310.93 154.08 308.19 155.91"/>
  <polygon class="cls-1" points="273.23 356.64 253.35 326.98 275.96 354.81 273.23 356.64"/>
  <polygon class="cls-1" points="212.87 340.78 206.38 331.08 213.77 340.18 212.87 340.78"/>
  <polygon class="cls-1" points="158.66 475.89 152.17 466.19 159.05 475.63 158.66 475.89"/>
  <polygon class="cls-1" points="184.85 479.03 178.36 469.34 185.23 478.78 184.85 479.03"/>
  <polygon class="cls-1" points="193.7 479.52 187.2 469.83 194.08 479.27 193.7 479.52"/>
  <polygon class="cls-1" points="177.44 478.28 170.94 468.58 177.82 478.02 177.44 478.28"/>
  <polygon class="cls-1" points="180.28 478.65 170.59 485.14 180.03 478.27 180.28 478.65"/>
  <polygon class="cls-1" points="188.79 479.41 179.1 485.91 188.54 479.03 188.79 479.41"/>
  <polygon class="cls-1" points="199.93 480.31 190.24 486.8 199.68 479.93 199.93 480.31"/>
  <polygon class="cls-1" points="168.69 477.06 162.44 481.25 168.52 476.82 168.69 477.06"/>
  <polygon class="cls-1" points="271.48 391.23 264.99 381.54 272.38 390.63 271.48 391.23"/>
  <polygon class="cls-1" points="254.03 392.26 247.53 382.56 254.92 391.66 254.03 392.26"/>
  <polygon class="cls-1" points="240.82 394.19 229.71 390.61 241.15 393.17 240.82 394.19"/>
  <polygon class="cls-1" points="263.57 391.23 257.08 381.54 264.47 390.63 263.57 391.23"/>
  <polygon class="cls-1" points="224.41 302.4 212.81 303.62 224.3 301.33 224.41 302.4"/>
  <polygon class="cls-1" points="219.83 299.23 218.61 287.63 220.9 299.12 219.83 299.23"/>
  <polygon class="cls-1" points="268.68 296.02 257.08 297.25 268.57 294.95 268.68 296.02"/>
  <polygon class="cls-1" points="378.46 245.73 367.78 241.52 378.85 244.75 378.46 245.73"/>
  <polygon class="cls-1" points="563.33 192.58 554.98 200.47 562.6 191.81 563.33 192.58"/>
  <polygon class="cls-1" points="254.2 173.31 245.85 181.2 253.47 172.55 254.2 173.31"/>
  <polygon class="cls-1" points="213.05 294.2 204.7 302.08 212.32 293.43 213.05 294.2"/>
  <polygon class="cls-1" points="312.94 56 301.79 58.77 312.68 54.97 312.94 56"/>
  <polygon class="cls-1" points="223.13 340.78 214.86 328.43 224.27 340.01 223.13 340.78"/>
  <polygon class="cls-1" points="224.55 341.41 214.86 352.68 223.51 340.52 224.55 341.41"/>
  <polygon class="cls-1" points="374.13 392.84 364.44 404.11 373.09 391.94 374.13 392.84"/>
  <polygon class="cls-1" points="288.51 521.17 273.65 521.17 288.51 520.48 288.51 521.17"/>
  <polygon class="cls-1" points="368.5 393.39 357.94 405.68 367.37 392.42 368.5 393.39"/>
  <polygon class="cls-1" points="238.58 498.65 228.02 510.94 237.45 497.68 238.58 498.65"/>
  <polygon class="cls-1" points="248.85 498.65 238.29 510.94 247.72 497.68 248.85 498.65"/>
  <polygon class="cls-1" points="267.72 392.13 258.04 403.4 266.69 391.23 267.72 392.13"/>
  <polygon class="cls-1" points="262.04 392.23 251.22 404.82 260.88 391.23 262.04 392.23"/>
  <polygon class="cls-1" points="321.65 424.02 310.83 436.61 320.49 423.02 321.65 424.02"/>
  <polygon class="cls-1" points="554.59 237.83 543.77 250.42 553.43 236.83 554.59 237.83"/>
  <polygon class="cls-1" points="600.31 239.94 589.5 252.53 599.15 238.94 600.31 239.94"/>
  <polygon class="cls-1" points="573.27 234.97 562.45 247.56 572.11 233.97 573.27 234.97"/>
  <polygon class="cls-1" points="478.18 281.42 467.36 294.01 477.02 280.42 478.18 281.42"/>
  <polygon class="cls-1" points="445.94 299.96 433.44 289.04 446.95 298.81 445.94 299.96"/>
  <polygon class="cls-1" points="432.91 304.6 417.35 298.8 433.44 303.17 432.91 304.6"/>
  <polygon class="cls-1" points="426.25 263.7 411.39 256.3 426.76 262.67 426.25 263.7"/>
  <polygon class="cls-1" points="506.89 233.14 496.07 245.73 505.73 232.15 506.89 233.14"/>
  <polygon class="cls-1" points="513.61 233.14 502.79 245.73 512.45 232.15 513.61 233.14"/>
  <polygon class="cls-1" points="452.36 342.8 441.54 355.39 451.2 341.81 452.36 342.8"/>
  <polygon class="cls-1" points="491.28 201.09 480.46 213.68 490.12 200.09 491.28 201.09"/>
  <polygon class="cls-1" points="496.69 201.09 485.87 213.68 495.53 200.09 496.69 201.09"/>
  <polygon class="cls-1" points="460.41 186.02 449.59 198.61 459.25 185.02 460.41 186.02"/>
  <polygon class="cls-1" points="473.01 188.27 459.48 197.89 472.35 187.34 473.01 188.27"/>
  <polygon class="cls-1" points="498.44 109.72 488.65 96.31 499.36 109.04 498.44 109.72"/>
  <polygon class="cls-1" points="440.17 81.17 430.38 67.76 441.09 80.49 440.17 81.17"/>
  <polygon class="cls-1" points="474.72 116.42 464.93 103.01 475.64 115.75 474.72 116.42"/>
  <polygon class="cls-1" points="480.66 116.4 472.21 130.69 479.68 115.82 480.66 116.4"/>
  <polygon class="cls-1" points="395.25 191.23 378.85 193.81 395.07 190.11 395.25 191.23"/>
  <polygon class="cls-1" points="391.85 137.27 377.85 128.34 392.46 136.3 391.85 137.27"/>
  <polygon class="cls-1" points="538.34 75.87 528.56 62.46 539.27 75.2 538.34 75.87"/>
  <polygon class="cls-1" points="532.75 72.7 518.03 80.37 532.23 71.69 532.75 72.7"/>
  <polygon class="cls-1" points="339.4 62.49 324.68 70.16 338.87 61.47 339.4 62.49"/>
  <polygon class="cls-1" points="354.12 65.95 339.4 73.62 353.6 64.94 354.12 65.95"/>
  <polygon class="cls-1" points="407.61 84.32 392.89 91.99 407.08 83.31 407.61 84.32"/>
  <polygon class="cls-1" points="523.22 184.12 509.7 193.74 522.56 183.19 523.22 184.12"/>
  <polygon class="cls-1" points="548.75 124.77 545.59 141.06 547.63 124.55 548.75 124.77"/>
  <polygon class="cls-1" points="540.7 124.77 537.54 141.06 539.58 124.55 540.7 124.77"/>
  <polygon class="cls-1" points="555.01 123.26 556.09 139.82 553.87 123.33 555.01 123.26"/>
  <polygon class="cls-1" points="296.1 138.08 279.5 138.08 296.1 136.55 296.1 138.08"/>
  <polygon class="cls-1" points="376.98 84.56 361.73 91.71 376.52 83.58 376.98 84.56"/>
  <polygon class="cls-1" points="249.93 393.25 239.11 405.84 248.77 392.26 249.93 393.25"/>
  <polygon class="cls-1" points="229.26 397.14 219.57 408.42 228.22 396.25 229.26 397.14"/>
  <polygon class="cls-1" points="224.77 429.07 215.08 440.34 224.26 428.63 224.77 429.07"/>
  <polygon class="cls-1" points="521.66 532.61 526.72 546.59 521.03 532.84 521.66 532.61"/>
  <polygon class="cls-1" points="517.81 537.22 522.87 551.2 517.18 537.45 517.81 537.22"/>
  <polygon class="cls-1" points="218.61 341.41 208.92 352.68 217.57 340.52 218.61 341.41"/>
  <polygon class="cls-1" points="206.12 342.81 200.66 335.23 207.71 341.66 206.12 342.81"/>
  <polygon class="cls-1" points="545.04 80.32 513.64 63.31 546.61 77.43 545.04 80.32"/>
  <polygon class="cls-1" points="836.25 88.82 867.65 71.82 834.68 85.93 836.25 88.82"/>
  <polygon class="cls-1" points="996.8 195.01 1028.2 178 995.24 192.12 996.8 195.01"/>
  <polygon class="cls-1" points="839.71 94.08 873.8 83.44 838.73 90.93 839.71 94.08"/>
  <polygon class="cls-1" points="984.43 147.21 1012.67 138.39 983.61 144.6 984.43 147.21"/>
  <polygon class="cls-1" points="976.24 151.3 1005.17 157.5 976.81 148.63 976.24 151.3"/>
  <polygon class="cls-1" points="961.78 154.6 990.7 160.81 962.35 151.93 961.78 154.6"/>
  <polygon class="cls-1" points="939.19 155.73 968.11 161.94 939.76 153.07 939.19 155.73"/>
  <polygon class="cls-1" points="862.11 367.86 891.04 374.07 862.68 365.2 862.11 367.86"/>
  <polygon class="cls-1" points="873.08 364.77 902.45 368.33 873.41 362.07 873.08 364.77"/>
  <polygon class="cls-1" points="914.72 414.95 943.65 421.16 915.29 412.29 914.72 414.95"/>
  <polygon class="cls-1" points="923.48 409.08 952.41 415.29 924.05 406.41 923.48 409.08"/>
  <polygon class="cls-1" points="974.03 359.66 1003.37 363.51 974.39 356.96 974.03 359.66"/>
  <polygon class="cls-1" points="972.61 347.13 1001.94 350.97 972.96 344.42 972.61 347.13"/>
  <polygon class="cls-1" points="1035.49 128.79 1044.91 137.02 1036.25 127.93 1035.49 128.79"/>
  <polygon class="cls-1" points="925.71 50.31 894.31 33.3 927.28 47.42 925.71 50.31"/>
  <polygon class="cls-1" points="934.4 44.39 917.26 13.06 937.29 42.81 934.4 44.39"/>
  <polygon class="cls-1" points="1035.33 44.39 1018.19 13.06 1038.21 42.81 1035.33 44.39"/>
  <polygon class="cls-1" points="1033.67 49.98 1069.29 47.36 1033.91 53.26 1033.67 49.98"/>
  <polygon class="cls-1" points="1028.1 107.57 1061.72 95.53 1029.2 110.66 1028.1 107.57"/>
  <polygon class="cls-1" points="1065.57 110.61 1099.19 98.58 1066.67 113.71 1065.57 110.61"/>
  <polygon class="cls-1" points="1115.33 111.47 1137.7 83.63 1117.9 113.53 1115.33 111.47"/>
  <polygon class="cls-1" points="1173.82 79.81 1190.98 58.45 1175.79 81.39 1173.82 79.81"/>
  <polygon class="cls-1" points="1165.25 81.39 1184.82 100.57 1163.49 83.19 1165.25 81.39"/>
  <polygon class="cls-1" points="1187.9 78.11 1217.05 91.79 1186.96 80.12 1187.9 78.11"/>
  <polygon class="cls-1" points="1195.85 78.75 1221.48 69.07 1196.32 80.02 1195.85 78.75"/>
  <polygon class="cls-1" points="1155.72 85.43 1156.68 58.05 1158.24 85.52 1155.72 85.43"/>
  <polygon class="cls-1" points="487.68 278.16 456.28 261.15 489.25 275.27 487.68 278.16"/>
  <polygon class="cls-1" points="382.09 69.28 350.27 53.06 382.87 67.75 382.09 69.28"/>
  <polygon class="cls-1" points="374.4 146.19 342.59 129.97 375.18 144.66 374.4 146.19"/>
  <polygon class="cls-1" points="342.45 179.32 306.77 177.84 342.59 176.03 342.45 179.32"/>
  <polygon class="cls-1" points="524.93 234.01 480.46 232.17 525.13 229.16 524.93 234.01"/>
  <polygon class="cls-1" points="344.09 280.59 299.62 278.74 344.29 275.74 344.09 280.59"/>
  <polygon class="cls-1" points="644.79 174.97 600.31 173.13 644.99 170.12 644.79 174.97"/>
  <polygon class="cls-1" points="622.45 472.53 577.98 470.69 622.65 467.68 622.45 472.53"/>
  <polygon class="cls-1" points="514.41 366.07 469.94 364.22 514.61 361.21 514.41 366.07"/>
  <polygon class="cls-1" points="840.1 188.93 884.57 187.09 839.9 184.08 840.1 188.93"/>
  <polygon class="cls-1" points="882.8 294.6 927.28 292.76 882.6 289.75 882.8 294.6"/>
  <polygon class="cls-1" points="840.09 273.88 884.57 272.23 839.91 269.03 840.09 273.88"/>
  <polygon class="cls-1" points="891.13 113.06 935.61 111.42 890.95 108.21 891.13 113.06"/>
  <polygon class="cls-1" points="822.64 406.54 867.11 404.69 822.44 401.68 822.64 406.54"/>
  <polygon class="cls-1" points="912.44 449.74 956.91 447.89 912.24 444.88 912.44 449.74"/>
  <polygon class="cls-1" points="900.31 419.25 900.31 374.74 895.46 419.25 900.31 419.25"/>
  <polygon class="cls-1" points="1062.28 417.35 1062.28 372.84 1057.42 417.35 1062.28 417.35"/>
  <polygon class="cls-1" points="818.54 475.08 859.31 492.94 820.49 470.63 818.54 475.08"/>
  <polygon class="cls-1" points="1024.38 493.69 1065.15 511.55 1026.33 489.24 1024.38 493.69"/>
  <polygon class="cls-1" points="1148.01 481.45 1176.21 493.81 1149.15 478.86 1148.01 481.45"/>
  <polygon class="cls-1" points="1140.56 483.16 1163.2 504.04 1142.48 481.08 1140.56 483.16"/>
  <polygon class="cls-1" points="1166.91 475.64 1194.61 489.07 1168.14 473.09 1166.91 475.64"/>
  <polygon class="cls-1" points="1186.77 473.68 1211.6 485.72 1187.58 472.01 1186.77 473.68"/>
  <polygon class="cls-1" points="1181.29 473.22 1195.91 449.82 1179.71 472.24 1181.29 473.22"/>
  <polygon class="cls-1" points="1158.99 478.19 1173.61 454.79 1157.41 477.21 1158.99 478.19"/>
  <polygon class="cls-1" points="1080.84 484.92 1095.46 461.52 1079.27 483.94 1080.84 484.92"/>
  <polygon class="cls-1" points="700.06 222.9 740.82 240.77 702.01 218.45 700.06 222.9"/>
  <polygon class="cls-1" points="692.37 119.54 733.14 137.4 694.32 115.09 692.37 119.54"/>
  <polygon class="cls-1" points="717.61 46.55 758.38 64.41 719.56 42.1 717.61 46.55"/>
  <polygon class="cls-1" points="817.75 69.46 829.61 26.56 813.07 68.17 817.75 69.46"/>
  <polygon class="cls-1" points="692.37 240.85 733.14 258.72 694.32 236.4 692.37 240.85"/>
  <polygon class="cls-1" points="681.08 144.83 721.85 162.69 683.03 140.38 681.08 144.83"/>
  <polygon class="cls-1" points="928.94 225.69 969.71 243.55 930.89 221.24 928.94 225.69"/>
  <polygon class="cls-1" points="1069.65 111.42 1080.17 154.67 1074.37 110.28 1069.65 111.42"/>
  <polygon class="cls-1" points="961.37 389.7 973.54 337.32 956.87 388.65 961.37 389.7"/>
  <polygon class="cls-1" points="977.75 395.88 987.66 448.73 982.3 395.02 977.75 395.88"/>
  <polygon class="cls-1" points="957.71 480.56 957.71 525.07 962.57 480.56 957.71 480.56"/>
  <polygon class="cls-1" points="890.1 305.63 934.57 303.79 889.9 300.78 890.1 305.63"/>
  <polygon class="cls-1" points="763.97 188.36 784.82 227.69 768.26 186.08 763.97 188.36"/>
  <polygon class="cls-1" points="742.19 184.44 750.21 228.23 746.97 183.57 742.19 184.44"/>
  <polygon class="cls-1" points="988.08 486.44 1024.97 461.52 985.37 482.41 988.08 486.44"/>
  <polygon class="cls-1" points="1007.88 490.19 1044.77 465.28 1005.17 486.17 1007.88 490.19"/>
  <polygon class="cls-1" points="1029.84 493.89 1071.31 477.71 1028.08 489.36 1029.84 493.89"/>
  <polygon class="cls-1" points="1118.04 491.21 1152.9 463.54 1115.02 487.41 1118.04 491.21"/>
  <polygon class="cls-1" points="998.42 234.01 1028.08 232.78 998.28 230.78 998.42 234.01"/>
  <polygon class="cls-1" points="398.83 291.03 354.36 289.19 399.03 286.18 398.83 291.03"/>
  <polygon class="cls-1" points="335.05 374.45 290.92 380.23 334.42 369.64 335.05 374.45"/>
  <polygon class="cls-1" points="343.72 386.93 309.05 391.47 343.23 383.15 343.72 386.93"/>
  <polygon class="cls-1" points="680.12 134.63 623.27 132.27 680.38 128.45 680.12 134.63"/>
  <polygon class="cls-1" points="689.86 91.72 633.01 93.29 664.66 87.25 690.11 85.54 689.86 91.72"/>
  <polygon class="cls-1" points="693.78 299.59 629.34 320.47 663.2 301.2 691.67 290.37 693.78 299.59"/>
  <polygon class="cls-1" points="721.12 395.84 656.68 416.72 690.54 397.45 719.01 386.62 721.12 395.84"/>
  <polygon class="cls-1" points="724.33 363.69 788.77 384.57 754.9 365.29 726.44 354.46 724.33 363.69"/>
  <polygon class="cls-1" points="692.11 204.58 756.55 225.46 722.68 206.18 694.22 195.35 692.11 204.58"/>
  <polygon class="cls-1" points="688.22 107.8 752.66 128.68 718.8 109.41 690.33 98.58 688.22 107.8"/>
  <polygon class="cls-1" points="733.37 413.09 797.81 433.97 763.94 414.7 735.47 403.87 733.37 413.09"/>
  <polygon class="cls-1" points="724.33 496.03 772.93 543.21 751.05 510.96 730.29 488.68 724.33 496.03"/>
  <polygon class="cls-1" points="635.09 485.03 568.24 496 604.62 482.03 634.39 475.59 635.09 485.03"/>
  <polygon class="cls-1" points="578.64 117.67 514.2 138.55 548.07 119.27 576.54 108.44 578.64 117.67"/>
  <polygon class="cls-1" points="569.37 367.81 548.22 357.42 513.77 327.88 539.99 357.82 563.97 377.2 569.37 367.81"/>
  <polygon class="cls-1" points="436.78 264.29 401.85 262.84 436.88 262.01 436.78 264.29"/>
  <polygon class="cls-1" points="454.4 281.64 419.55 284.48 454.21 279.37 454.4 281.64"/>
  <polygon class="cls-1" points="643 253.24 623.01 281.92 641.13 251.93 643 253.24"/>
  <polygon class="cls-1" points="535.67 186.5 501.11 181.21 536.02 184.25 535.67 186.5"/>
  <polygon class="cls-1" points="697.48 52.07 662.92 46.77 697.83 49.81 697.48 52.07"/>
  <polygon class="cls-1" points="844.13 163.89 856.26 164.94 844.06 164.68 844.13 163.89"/>
  <polygon class="cls-1" points="827.1 166.73 846.25 168.4 827 167.98 827.1 166.73"/>
  <polygon class="cls-1" points="1051.59 191.47 1070.73 193.13 1051.48 192.72 1051.59 191.47"/>
  <polygon class="cls-1" points="1069.91 216.69 1087.37 208.64 1070.44 217.83 1069.91 216.69"/>
  <polygon class="cls-1" points="866.81 320.11 874.81 337.59 865.67 320.63 866.81 320.11"/>
  <polygon class="cls-1" points="1088.51 418.92 1096.51 436.39 1087.37 419.44 1088.51 418.92"/>
  <polygon class="cls-1" points="824.55 290.31 832.54 307.79 823.4 290.84 824.55 290.31"/>
  <polygon class="cls-1" points="819.98 298.49 827.97 315.96 818.83 299.01 819.98 298.49"/>
  <polygon class="cls-1" points="826.23 282.78 843.23 291.75 825.65 283.89 826.23 282.78"/>
  <polygon class="cls-1" points="765.5 292.23 782.5 301.21 764.92 293.34 765.5 292.23"/>
  <polygon class="cls-1" points="777.27 287.75 794.27 296.72 776.69 288.86 777.27 287.75"/>
  <polygon class="cls-1" points="1104.26 417.22 1120 428.25 1103.54 418.25 1104.26 417.22"/>
  <polygon class="cls-1" points="1121.35 410.85 1140.56 410.85 1121.35 412.1 1121.35 410.85"/>
  <polygon class="cls-1" points="1122.36 401.48 1135.57 387.52 1123.27 402.34 1122.36 401.48"/>
  <polygon class="cls-1" points="1183.77 389.56 1196.99 375.61 1184.68 390.42 1183.77 389.56"/>
  <polygon class="cls-1" points="1095.45 418.65 1108.66 404.7 1096.36 419.51 1095.45 418.65"/>
  <polygon class="cls-1" points="893.23 291.31 906.45 277.36 894.14 292.18 893.23 291.31"/>
  <polygon class="cls-1" points="1043.08 413.96 1056.3 400 1044 414.82 1043.08 413.96"/>
  <polygon class="cls-1" points="1021.59 212.23 1034.81 198.28 1022.5 213.09 1021.59 212.23"/>
  <polygon class="cls-1" points="902.06 292.64 910.49 283.75 902.64 293.19 902.06 292.64"/>
  <polygon class="cls-1" points="1044.91 212.82 1053.33 203.92 1045.49 213.37 1044.91 212.82"/>
  <polygon class="cls-1" points="1011.98 185.3 1023.56 189.29 1011.72 186.06 1011.98 185.3"/>
  <polygon class="cls-1" points="1144.93 98.58 1156.52 102.57 1144.67 99.33 1144.93 98.58"/>
  <polygon class="cls-1" points="1050.96 214.58 1059.38 205.68 1051.54 215.13 1050.96 214.58"/>
  <polygon class="cls-1" points="1116.03 414.29 1115.09 395.1 1117.28 414.23 1116.03 414.29"/>
  <polygon class="cls-1" points="1120.76 393.27 1102.41 387.58 1121.13 392.07 1120.76 393.27"/>
  <polygon class="cls-1" points="1024.77 383.72 1032.77 401.19 1023.63 384.24 1024.77 383.72"/>
  <polygon class="cls-1" points="812.37 318.24 820.37 335.72 811.23 318.76 812.37 318.24"/>
  <polygon class="cls-1" points="945.9 232.03 953.9 249.5 944.76 232.55 945.9 232.03"/>
  <polygon class="cls-1" points="926.13 151.74 920.83 170.22 924.92 151.4 926.13 151.74"/>
  <polygon class="cls-1" points="997.89 91.51 992.59 109.98 996.68 91.16 997.89 91.51"/>
  <polygon class="cls-1" points="1098.77 113.22 1107.17 130.51 1097.64 113.77 1098.77 113.22"/>
  <polygon class="cls-1" points="983.84 359.9 991.84 377.37 982.7 360.42 983.84 359.9"/>
  <polygon class="cls-1" points="999.53 491.66 1007.53 509.13 998.39 492.18 999.53 491.66"/>
  <polygon class="cls-1" points="1092.02 487.27 1100.02 504.74 1090.88 487.79 1092.02 487.27"/>
  <polygon class="cls-1" points="846.73 518.24 854.73 535.72 845.59 518.77 846.73 518.24"/>
  <polygon class="cls-1" points="829.12 515.27 837.11 532.74 827.97 515.79 829.12 515.27"/>
  <polygon class="cls-1" points="831.01 477.7 839.01 495.17 829.87 478.22 831.01 477.7"/>
  <polygon class="cls-1" points="873.14 421.88 881.14 439.35 872 422.4 873.14 421.88"/>
  <polygon class="cls-1" points="887.61 423.64 895.61 441.11 886.47 424.16 887.61 423.64"/>
  <polygon class="cls-1" points="807.8 407.99 815.8 425.46 806.66 408.51 807.8 407.99"/>
  <polygon class="cls-1" points="881.14 502.81 889.14 520.29 880 503.34 881.14 502.81"/>
  <polygon class="cls-1" points="1045.78 502.3 1053.77 519.77 1044.63 502.82 1045.78 502.3"/>
  <polygon class="cls-1" points="1014.21 410.26 1022.21 427.74 1013.07 410.79 1014.21 410.26"/>
  <polygon class="cls-1" points="899.03 338.17 907.02 355.64 897.88 338.69 899.03 338.17"/>
  <polygon class="cls-1" points="998.34 475.91 994.58 457.07 999.57 475.67 998.34 475.91"/>
  <polygon class="cls-1" points="1092.14 486.8 1088.38 467.95 1093.37 486.55 1092.14 486.8"/>
  <polygon class="cls-1" points="934.22 397 930.46 378.15 935.45 396.75 934.22 397"/>
  <polygon class="cls-1" points="1060.39 406.52 1046.31 393.43 1061.24 405.6 1060.39 406.52"/>
  <polygon class="cls-1" points="897.65 410.65 883.57 397.56 898.5 409.73 897.65 410.65"/>
  <polygon class="cls-1" points="800.06 266.35 809.38 249.55 801.16 266.96 800.06 266.35"/>
  <polygon class="cls-1" points="809.42 269.05 818.75 252.25 810.52 269.66 809.42 269.05"/>
  <polygon class="cls-1" points="937.94 324.06 947.27 307.26 939.04 324.67 937.94 324.06"/>
  <polygon class="cls-1" points="752.61 364.68 770.6 357.93 753.05 365.86 752.61 364.68"/>
  <polygon class="cls-1" points="765.4 417.08 783.39 410.33 765.84 418.26 765.4 417.08"/>
  <polygon class="cls-1" points="707 201.07 724.99 194.31 707.44 202.24 707 201.07"/>
  <polygon class="cls-1" points="858.68 186.59 874.77 176.09 859.36 187.64 858.68 186.59"/>
  <polygon class="cls-1" points="770.94 195.01 789.87 198.32 770.73 196.24 770.94 195.01"/>
  <polygon class="cls-1" points="773.14 200.85 792.07 204.16 772.93 202.09 773.14 200.85"/>
  <polygon class="cls-1" points="747.12 193.05 764.9 200.36 746.65 194.21 747.12 193.05"/>
  <polygon class="cls-1" points="747.12 202.24 764.9 209.55 746.65 203.4 747.12 202.24"/>
  <polygon class="cls-1" points="774.87 206.75 792.65 214.06 774.39 207.91 774.87 206.75"/>
  <polygon class="cls-1" points="773.07 199.32 767.17 217.61 771.87 198.94 773.07 199.32"/>
  <polygon class="cls-1" points="746.72 205.11 740.82 223.4 745.53 204.72 746.72 205.11"/>
  <polygon class="cls-1" points="856.06 122.58 850.16 140.87 854.87 122.2 856.06 122.58"/>
  <polygon class="cls-1" points="1036.97 104.37 1043.43 86.27 1038.15 104.79 1036.97 104.37"/>
  <polygon class="cls-1" points="1056.3 110.66 1064.53 128.03 1055.17 111.2 1056.3 110.66"/>
  <polygon class="cls-1" points="1075.41 126.7 1093.06 134.31 1074.91 127.86 1075.41 126.7"/>
  <polygon class="cls-1" points="1139.85 108.13 1158.24 113.71 1139.49 109.33 1139.85 108.13"/>
  <polygon class="cls-1" points="1038.49 110.66 1046.72 128.03 1037.36 111.2 1038.49 110.66"/>
  <polygon class="cls-1" points="1002.96 190.42 1007.37 171.71 1004.19 190.7 1002.96 190.42"/>
  <polygon class="cls-1" points="1004.11 225.87 1008.52 207.16 1005.33 226.15 1004.11 225.87"/>
  <polygon class="cls-1" points="953.3 219.39 966.98 205.9 954.18 220.29 953.3 219.39"/>
  <polygon class="cls-1" points="890.49 342.98 909.41 346.37 890.27 344.21 890.49 342.98"/>
  <polygon class="cls-1" points="913.5 90.1 932.42 93.49 913.28 91.33 913.5 90.1"/>
  <polygon class="cls-1" points="1151.45 22.94 1169.94 26.25 1151.25 24.03 1151.45 22.94"/>
  <polygon class="cls-1" points="1127.2 16.58 1144.54 9.36 1127.62 17.61 1127.2 16.58"/>
  <polygon class="cls-1" points="1132.55 18.69 1149.9 11.47 1132.98 19.72 1132.55 18.69"/>
  <polygon class="cls-1" points="1117.51 14.74 1129.16 0 1118.38 15.43 1117.51 14.74"/>
  <polygon class="cls-1" points="1047.08 49.62 1058.73 34.88 1047.96 50.31 1047.08 49.62"/>
  <polygon class="cls-1" points="1038.3 50.55 1048.47 66.35 1037.36 51.16 1038.3 50.55"/>
  <polygon class="cls-1" points="999.87 58.45 1010.04 74.24 998.93 59.05 999.87 58.45"/>
  <polygon class="cls-1" points="990.73 56.21 995.6 74.36 989.66 56.5 990.73 56.21"/>
  <polygon class="cls-1" points="846.92 89.29 865.83 92.68 846.69 90.52 846.92 89.29"/>
  <polygon class="cls-1" points="995.82 142.8 1014.73 146.19 995.6 144.03 995.82 142.8"/>
  <polygon class="cls-1" points="966.89 222.39 985.81 225.78 966.67 223.63 966.89 222.39"/>
  <polygon class="cls-1" points="841.82 327.15 860.73 330.54 841.59 328.39 841.82 327.15"/>
  <polygon class="cls-1" points="719.08 300 737.99 303.39 718.86 301.23 719.08 300"/>
  <polygon class="cls-1" points="731.48 346.9 750.39 350.29 731.26 348.14 731.48 346.9"/>
  <polygon class="cls-1" points="732.84 480.32 751.76 483.71 732.62 481.55 732.84 480.32"/>
  <polygon class="cls-1" points="734.43 399.97 753.34 403.36 734.2 401.21 734.43 399.97"/>
  <polygon class="cls-1" points="350.6 307.69 339.62 291.91 351.62 306.97 350.6 307.69"/>
  <polygon class="cls-1" points="363.62 309.59 352.64 293.81 364.65 308.87 363.62 309.59"/>
  <polygon class="cls-1" points="242.54 456.12 231.56 440.34 243.57 455.4 242.54 456.12"/>
  <polygon class="cls-1" points="259.89 452.65 248.92 436.88 260.92 451.93 259.89 452.65"/>
  <polygon class="cls-1" points="447.76 69.06 436.78 53.28 448.79 68.34 447.76 69.06"/>
  <polygon class="cls-1" points="491.6 60.8 480.62 45.03 492.63 60.09 491.6 60.8"/>
  <polygon class="cls-1" points="478.43 61.8 467.45 46.03 479.46 61.09 478.43 61.8"/>
  <polygon class="cls-1" points="315.29 495.63 318.43 514.59 314.06 495.83 315.29 495.63"/>
  <polygon class="cls-1" points="334.1 473.89 337.24 492.85 332.86 474.09 334.1 473.89"/>
  <polygon class="cls-1" points="552.78 518.83 541.8 503.05 553.81 518.11 552.78 518.83"/>
  <polygon class="cls-1" points="595.02 513.75 584.04 497.98 596.05 513.04 595.02 513.75"/>
  <polygon class="cls-1" points="465.4 510.75 448.09 519.09 464.85 509.62 465.4 510.75"/>
  <polygon class="cls-1" points="164.02 516.94 153.04 501.16 165.05 516.22 164.02 516.94"/>
  <polygon class="cls-1" points="374.75 311.5 358.46 321.69 374.08 310.43 374.75 311.5"/>
  <polygon class="cls-1" points="714.98 306.09 733.9 309.48 714.76 307.33 714.98 306.09"/>
  <polygon class="cls-1" points="904.94 190.38 918.62 176.88 905.82 191.27 904.94 190.38"/>
  <polygon class="cls-1" points="915.81 146.46 918.36 127.42 917.05 146.63 915.81 146.46"/>
  <polygon class="cls-1" points="914 191.66 932.96 188.51 914.21 192.9 914 191.66"/>
  <polygon class="cls-1" points="1170.4 80.13 1174.8 61.42 1171.62 80.42 1170.4 80.13"/>
  <polygon class="cls-1" points="1028.36 27.58 1044.46 17.09 1029.05 28.64 1028.36 27.58"/>
  <polygon class="cls-1" points="691.24 74.46 656.68 69.17 691.58 72.21 691.24 74.46"/>
  <polygon class="cls-1" points="693.76 251.33 663.09 268.11 692.67 249.32 693.76 251.33"/>
  <polygon class="cls-1" points="659.87 170.39 627.53 157.11 660.73 168.28 659.87 170.39"/>
  <polygon class="cls-1" points="661.29 166.63 649.91 133.57 663.44 165.89 661.29 166.63"/>
  <polygon class="cls-1" points="537.67 352.28 539.37 337.14 538.95 352.43 537.67 352.28"/>
  <polygon class="cls-1" points="528.88 343.43 530.58 328.29 530.16 343.57 528.88 343.43"/>
  <polygon class="cls-1" points="536.28 350.59 521.26 348.01 536.49 349.32 536.28 350.59"/>
  <polygon class="cls-1" points="541.57 353.95 543.64 335.51 543.13 354.13 541.57 353.95"/>
  <polygon class="cls-1" points="546.42 357.33 549.18 332.81 548.5 357.56 546.42 357.33"/>
  <polygon class="cls-1" points="552.74 361.66 555.49 337.14 554.81 361.89 552.74 361.66"/>
  <polygon class="cls-1" points="451.42 82.97 416.86 77.67 451.76 80.71 451.42 82.97"/>
  <polygon class="cls-1" points="533.57 224.49 499.01 219.19 533.91 222.23 533.57 224.49"/>
  <polygon class="cls-1" points="503.73 203.25 469.17 197.95 504.08 201 503.73 203.25"/>
  <polygon class="cls-1" points="391.99 181.02 361.4 197.95 390.88 179.02 391.99 181.02"/>
  <polygon class="cls-1" points="246.98 131.61 216.4 148.54 245.88 129.61 246.98 131.61"/>
  <polygon class="cls-1" points="272.35 131.61 241.76 148.54 271.25 129.61 272.35 131.61"/>
  <polygon class="cls-1" points="298.47 153.25 263.53 154.49 298.38 150.97 298.47 153.25"/>
  <polygon class="cls-1" points="483.63 126.77 448.69 128.01 483.55 124.49 483.63 126.77"/>
  <polygon class="cls-1" points="702.36 284.91 667.42 286.15 702.28 282.63 702.36 284.91"/>
  <polygon class="cls-1" points="722.03 431.14 687.09 432.38 721.95 428.85 722.03 431.14"/>
  <polygon class="cls-1" points="716 457.2 681.06 458.44 715.92 454.92 716 457.2"/>
  <polygon class="cls-1" points="707.58 468.86 672.64 470.11 707.5 466.58 707.58 468.86"/>
  <polygon class="cls-1" points="649.35 531.38 626.28 505.11 651.07 529.87 649.35 531.38"/>
  <polygon class="cls-1" points="583.06 517.53 563.48 546.5 581.17 516.26 583.06 517.53"/>
  <polygon class="cls-1" points="612.16 525.28 592.58 554.25 610.27 524 612.16 525.28"/>
  <polygon class="cls-1" points="671.35 525.28 651.77 554.25 669.46 524 671.35 525.28"/>
  <polygon class="cls-1" points="526.25 525.62 506.67 554.58 524.36 524.34 526.25 525.62"/>
  <polygon class="cls-1" points="390.59 507.42 379.59 504.31 390.79 506.71 390.59 507.42"/>
  <polygon class="cls-1" points="412.4 502.89 397.28 498.61 412.67 501.9 412.4 502.89"/>
  <polygon class="cls-1" points="419.67 501.16 405.27 494.88 420.08 500.22 419.67 501.16"/>
  <polygon class="cls-1" points="431.84 499.05 409.72 492.79 432.24 497.61 431.84 499.05"/>
  <polygon class="cls-1" points="701.09 290.89 666.14 292.13 701 288.61 701.09 290.89"/>
  <polygon class="cls-1" points="623.01 209.16 588.07 210.41 622.93 206.88 623.01 209.16"/>
  <polygon class="cls-1" points="402.16 183.15 381.28 211.2 399.38 181.08 402.16 183.15"/>
  <polygon class="cls-1" points="297.69 193.92 268.05 210.37 296.77 192.27 297.69 193.92"/>
  <polygon class="cls-1" points="310.1 193.65 285.28 216.75 308.81 192.27 310.1 193.65"/>
  <polygon class="cls-1" points="318.96 191.97 302.9 221.82 317.29 191.07 318.96 191.97"/>
  <polygon class="cls-1" points="327.66 185.68 316.24 217.6 325.88 185.04 327.66 185.68"/>
  <polygon class="cls-1" points="410.22 309.95 377.97 296.46 411.1 307.85 410.22 309.95"/>
  <polygon class="cls-1" points="315.31 302.48 283.05 288.98 316.19 300.37 315.31 302.48"/>
  <polygon class="cls-1" points="304 349.55 271.75 336.06 304.88 347.45 304 349.55"/>
  <polygon class="cls-1" points="396.77 344.71 358.65 344.71 396.77 341.09 396.77 344.71"/>
  <polygon class="cls-1" points="231.93 333.3 203.92 312.38 233.3 331.47 231.93 333.3"/>
  <polygon class="cls-1" points="229.5 306.93 226.69 284.53 230.96 306.74 229.5 306.93"/>
  <polygon class="cls-1" points="236.1 314.57 233.3 292.18 237.57 314.39 236.1 314.57"/>
  <polygon class="cls-1" points="481.84 320.72 449.59 307.23 482.72 318.62 481.84 320.72"/>
  <polygon class="cls-1" points="490.44 118.37 454.84 115.55 490.69 115.09 490.44 118.37"/>
  <polygon class="cls-1" points="507.27 112.75 473.15 102.23 508.24 109.6 507.27 112.75"/>
  <circle class="cls-2" cx="1265.92" cy="472.29" r="49.55"/>
  <circle class="cls-2" cx="144.82" cy="354.97" r="49.55"/>
  <circle class="cls-2" cx="500.17" cy="440.95" r="49.55"/>
  <circle class="cls-2" cx="1272.5" cy="88.53" r="49.55"/>
  <circle class="cls-2" cx="144.82" cy="142.72" r="49.55"/>
  <circle class="cls-2" cx="1011.72" cy="299.05" r="49.55"/>
  <path class="cls-1" d="m422.14,339.39c2.93,15.07,3.75,30.44,3.24,45.75-.07,8.16-1.85,17.34-7.84,23.5-2.01,2.17-4.39,3.88-6.71,5.28-2.32,1.39-4.67,2.5-6.53,3.6-1.5.94-2.81,1.74-3.2,3.29-.2,1.66.11,3.46.63,5.05,2.74,7.84,9.24,14.26,15.41,19.64,0,0-4.03,2.3-4.03,2.3-12.27,6.95-24.65,13.52-37.69,18.93-5.24,2.03-10.94,4.37-16.93,4.71-8.77-.18-17.27-2.95-25.58-5.34-8-2.44-20.43-6.64-25.89-8.95-19.03-2.24-64.83-6.23-78.55,7.95-1.05,1.13-1.74,2.48-2.34,3.87-2.17,4.97-5.73,9.29-9.41,13.13-14.87,14.76-33.36,25.37-51.94,34.65,0,0-.5-.98-.5-.98,18.08-10.36,44.62-26.53,56.01-44,1.46-2.17,2.22-4.64,3.44-6.9,2.41-4.2,6.78-6.98,10.92-8.79,20.19-8.26,51.39-6.51,73.08-4.41,8.88,3.02,17.83,6.21,26.87,8.77,7.68,2.13,15.4,4.45,23.35,4.78,5.15-.37,9.99-2.44,15.04-4.43,12.63-5.36,24.84-11.98,36.72-18.83,0,0-.49,5.49-.49,5.48-7.43-6.69-15.72-15.95-15.65-26.56.27-7.67,7.89-10.43,13.13-13.71,8.28-4.81,10.22-13.3,10.02-22.25.14-13.36-.92-26.77-3.41-39.89-.23-1.15-.48-2.39-.73-3.41,0,0,9.58-2.24,9.58-2.24h0Z"/>
  <path class="cls-1" d="m285.01,452.81c.24,5.4,1.39,11.2,1.25,16.82-.08,2.09-.27,4.39-1.41,6.26-.62,1.1-1.77,1.89-2.85,2.35-2.77,1.19-5.71,1.6-8.6,1.99-3.78.46-7.53.67-11.32.74,0,0,1.3-1.07,1.3-1.07l-4.31,18.34s-.18.74-.18.75c-4.65.49-9.25.53-13.86.34-2.2-.11-4.33-.24-6.56-.5-10.84-2.26-19.37-10.32-28.88-15.2-2.8-1.45-5.71-2.95-8.88-3.1-5.43-.15-10.84-.79-16.23-1.37-8.61-.98-17.21-2.11-25.79-3.3,0,0,.05-.37.05-.37,13.96,1.58,27.94,3.52,41.98,3.97,3.38.08,6.51,1.61,9.44,3.08,7.74,4.04,14.75,9.28,22.56,12.75,3.95,1.9,8.09,2.06,12.37,2.17,4.28.11,8.62,0,12.82-.47l-.89.81s3.7-18.48,3.7-18.48c0,0,.21-1.02.21-1.02,0,0,1.09-.05,1.09-.05,5.43-.29,11.01-.71,16.25-2.1,1.64-.46,3.43-1.16,3.75-1.99.72-1.38.74-3,.77-4.58-.04-5.59-1.28-10.82-1.7-16.58,0,0,3.91-.18,3.91-.18h0Z"/>
  <path class="cls-1" d="m378.89,463.09c-3.3-6.37-6.74-13.1-10.75-18.96-.64-.88-1.14-1.53-1.83-2.1-4.92-3.18-11.01-4.47-16.69-5.83,0,0-1.09-.23-1.09-.23,0,0-.35-.96-.35-.96,0,0-4.11-11.38-4.11-11.39,0,0,.5.69.5.69-4.95-4-10.3-7.88-15.99-10.7-2.01-.93-4.16-1.85-6.4-1.92-3.95.29-7.83,1.42-11.75,2.32-6.34,1.58-12.65,3.32-18.95,5.09-6.3,1.78-12.59,3.61-18.87,5.49-.13.06-48.16,4.48-48.32,4.51,0,0-.05-.48-.05-.48-.03.03,48.56-5.65,47.9-5.52,12.5-4.02,25-7.96,37.68-11.45,4.02-1.01,8.08-2.31,12.28-2.67.84,0,1.98.1,2.77.31.73.1,1.83.53,2.54.73,7.21,2.84,13.48,7.3,19.57,11.98,0,0,.17.43.17.44,0,0,4.57,11.21,4.57,11.21,0,0-1.44-1.19-1.42-1.19,6.39,1.28,12.98,2.43,18.65,5.95,4.04,3.41,6.37,8.23,9.13,12.46,1.93,3.21,3.78,6.42,5.6,9.7,0,0-4.8,2.53-4.8,2.53h0Z"/>
  <path class="cls-1" d="m336.85,464c-.82,5.38-8.15,28.57-13.05,30.08-6.19,2.1-12.39,3.35-18.69,4.86,0,0,.54-.36.54-.36l-17.14,22.6s-.38-.27-.38-.27l15.99-23.42.18-.27c6.16-1.69,12.59-3.24,18.53-5.47.36-.12.55-.34.79-.61,3.21-4.63,4.81-10.23,6.63-15.57,1.2-3.91,2.43-8.07,3.01-12.06,0,0,3.59.51,3.59.51h0Z"/>
</svg>