<?xml version="1.0" encoding="utf-8"?>
<!-- Generator: Adobe Illustrator 27.4.1, SVG Export Plug-In . SVG Version: 6.00 Build 0)  -->
<svg version="1.1" id="_Слой_1" xmlns="http://www.w3.org/2000/svg" xmlns:xlink="http://www.w3.org/1999/xlink" x="0px"
	 y="0px" viewBox="0 0 1417.3 566.9" style="enable-background:new 0 0 1417.3 566.9;" xml:space="preserve">
<style type="text/css">
	.st0{fill:#FFFFFF;}
</style>
<g>
	<g>
		<path class="st0" d="M735.4,143.5c7.6,5.1,16.1,8.3,25.4,9.7c20,3,43.9-1.6,63.5,7.7c5.4,2.5,10.4,5.7,14.7,9.4
			c8.4,7.2,14.2,15.7,21.8,23.1c6.3,6.2,13.1,12.1,21.9,13.2c15.1,1.2,31,0.9,45.5-3c7.3-2.2,18-5.8,18.2-14.5l0-2.4l1.8-1.3
			l42.9-32.7l0.9-0.7l0.9-0.1c15.6-1,31.1-0.8,46.4,2.5c17.6,3.6,30,13,30.8,32.1c0.5,7.4,1,14.8,5.9,20.7c4.6,5.8,11.4,9.7,17.9,13
			c6.8,3.3,13.9,6,21.1,8.4c7.2,2.3,16.6,2.5,24,4l-2,10.3c-15-2.9-30.1-14.2-44-20.7c-10.4-4.9-21.7-11.9-24.7-23.8
			c-2-7.3-1.4-15.2-4.3-22c-7.6-17.4-31.4-18-47.9-18.6c-7.5-0.1-15.1,0.3-22.4,1.1l1.8-0.7l-41.6,34.4l1.7-3.8
			c0.9,13.6-13.5,21.4-24.4,24.6c-15.9,4.8-32,5.7-48.2,5c-6.1-0.2-12.3-2.4-17.4-5.4c-9.7-5.8-17.2-13.9-24.7-21.8
			c-6.7-7.4-13.2-13.4-22.2-17c-8.7-3.6-18.1-4.1-27.7-4c-22.5,0.8-44.5,1.6-65.1-11.5L735.4,143.5L735.4,143.5L735.4,143.5z"/>
		<polygon class="st0" points="972.2,189.1 978.3,215.6 973.9,188.8 		"/>
		<polygon class="st0" points="1081.7,215.7 1087.8,242.1 1083.4,215.3 		"/>
		<polygon class="st0" points="1073,207.5 1070.2,234.4 1074.7,207.7 		"/>
		<polygon class="st0" points="1069.1,194.6 1049.2,213.1 1070.2,195.9 		"/>
		<polygon class="st0" points="998.1,162 982.4,184.1 999.5,163 		"/>
		<polygon class="st0" points="1061.2,167.3 1088.2,165.8 1061.1,165.6 		"/>
		<polygon class="st0" points="1097.8,223 1124.9,221.5 1097.7,221.3 		"/>
		<polygon class="st0" points="1004.4,169.2 988.6,191.3 1005.8,170.2 		"/>
		<polygon class="st0" points="899,232.3 925.2,239.3 899.5,230.7 		"/>
		<polygon class="st0" points="837.5,174.3 863.7,181.2 837.9,172.6 		"/>
		<polygon class="st0" points="991.6,155.7 1032.8,210.6 995.1,153.1 		"/>
		<polygon class="st0" points="740.1,160.7 759.6,226.5 744.3,159.5 		"/>
		<polygon class="st0" points="767.8,160.7 787.3,226.5 772,159.5 		"/>
		<polygon class="st0" points="884,212.9 925.2,267.8 887.5,210.3 		"/>
		<polygon class="st0" points="957.4,188.1 1024.6,202.2 958.3,183.8 		"/>
		<polygon class="st0" points="938.6,208.1 1005.8,222.2 939.5,203.8 		"/>
		<polygon class="st0" points="917.6,207.9 928.9,163.1 913.9,207 		"/>
		<polygon class="st0" points="973,173.4 984.2,128.6 969.2,172.5 		"/>
	</g>
	<g>
		<path class="st0" d="M736.8,35.1c-8.4,38-17.7,75.6-28.9,113c-9,28.8-22.4,73.5-46.1,93.2c-5,4-13.2,7.2-19.5,3.6l-0.1-0.1
			l-0.3-0.2l6,0.1c0.2-0.1,0,0,0,0c-0.1,0-0.2,0.1-0.3,0.2c-20.2,20-35.4,72-43.2,100c-6.5,24.3-12.4,49-15.2,74
			c-1.3,12.5-1.9,25,0.3,37.4c1.1,6.4,0.4,13-0.1,19.4c-1.2,12.7-3.3,25.3-6.5,37.6c-1.6,6.2-3.5,12.3-6.3,18l-0.9-0.4
			c5-11.6,7.2-24.2,9-36.6c1.4-10.9,2.6-21.9,2.1-32.9c-0.4-4.7-1.7-9.3-2.1-14c-0.4-3.2-0.5-6.4-0.6-9.6
			c-0.4-32,6.4-63.6,13.5-94.6c7.6-31.1,15.9-62.5,31.4-90.9c3.7-6.1,7.4-12.4,13.2-16.9l6,0.1l-0.2-0.1l-0.1-0.1
			c5.9,0.1,11.8-7.7,15.4-12.7c10.3-15.3,17.1-33.2,22.7-51.1c8.5-27.4,15.1-55.5,21.3-83.6c4.1-18.8,7.9-37.7,11.4-56.5L736.8,35.1
			L736.8,35.1L736.8,35.1z"/>
		<path class="st0" d="M680.7,184.8c-4.3-7.9-4.6-15.9-7.2-23.4c-0.3-1-0.8-1.3-0.8-1.6c-0.4-0.2-1,0-1.4,0.1l-0.7,0.2l-0.2,0.1
			l-0.3,0.1c-7,2.5-14.6,3-21.9,2.4c-3.3-0.3-6.6-0.7-9.9-1.5l-0.7-1.1l-6.8-11.3l2.5,1.3c-10.3,0.4-20.7,1-30.9,2.3
			c-4,0.6-8.2,1-11.8,2.4c-0.2,0.1-0.4,0.3-0.1-0.1c0-0.1,0.2-0.3,0.2-0.5c-0.7,5.4,2.2,10.8,2.1,16.5c-0.1,0.6-0.2,1.3-0.5,1.9
			c-0.2,0.4-0.4,0.6-0.6,0.9c-4.4,4.7-9.6,8.4-14.7,12.3c-8.5,6.2-17.2,12.2-26.6,16.9c-15.8,7.1-31.6,14.4-47.2,21.8l-1.2,0.5
			l-0.8-0.7c0,0-8.5-8-8.6-8l1.3,0.1c-10.3,6.2-20.6,12.4-30.9,18.5c-15.5,9.1-31,18.4-46.9,26.9l-2,1c-1.3,0.7-2.8,1.3-4.2,1.8
			c-14.4,6.1-27.9,14.5-41.5,22.2l-0.5-0.9c10.3-6.1,20.7-12.2,31.3-17.8c2.7-1.4,5.3-2.8,8.1-4c2.7-1.1,5.6-2.2,8.1-3.7
			c26.2-14.5,51.7-30.5,77.2-46.1l0.7-0.4c0,0,0.6,0.5,0.7,0.5l9.5,6.8c0,0-2-0.2-2-0.2c14.8-7.2,29.7-14.5,44.7-21.3
			c10-4.8,19.1-11.3,28-17.9c4.5-3.4,10.3-8,13.7-11.6c-0.2-5.8-3.3-11.6-2.1-17.6c0.9-2.5,3.4-3.1,5.4-3.8
			c13.9-3.3,27.8-3.7,41.9-4.7l1.6-0.1l0.9,1.4l7.6,10.7l-2.2-1.5c1.1,0.1,2.4,0.3,3.7,0.3c7.6,0.4,15.5-0.2,22.5-3.4
			c3.5-1.6,8-1.9,11.2,0.6c4.5,3.5,5.4,8.8,6.9,13.2c1.5,5.1,3,9.8,5.3,13.3L680.7,184.8L680.7,184.8L680.7,184.8z"/>
		<polygon class="st0" points="597.7,307.1 588,325.4 598.9,307.8 		"/>
		<polygon class="st0" points="553.3,199.1 504,181.3 552.2,202.2 		"/>
		<polygon class="st0" points="575.1,185.4 525.8,167.7 574,188.6 		"/>
		<polygon class="st0" points="612.3,300.2 564.4,321.4 613.6,303.3 		"/>
		<polygon class="st0" points="603.7,327.7 569,366.9 606.2,329.9 		"/>
		<polygon class="st0" points="610.5,316.9 632.9,364.3 613.5,315.5 		"/>
		<polygon class="st0" points="632.3,252.9 654.6,300.2 635.3,251.4 		"/>
		<polygon class="st0" points="691.6,181.9 714,229.3 694.6,180.5 		"/>
		<polygon class="st0" points="654.9,159.7 623.1,201.3 657.6,161.7 		"/>
		<polygon class="st0" points="556.5,178.9 549.5,168.3 555.7,179.4 		"/>
		<polygon class="st0" points="563.1,182.6 551.3,187.5 563.4,183.5 		"/>
		<polygon class="st0" points="533.4,193.3 521.7,198.2 533.8,194.2 		"/>
		<polygon class="st0" points="617.2,328.5 612.1,340.1 618.1,328.9 		"/>
		<polygon class="st0" points="644.2,276.3 639.1,287.9 645.1,276.6 		"/>
		<polygon class="st0" points="640.7,269 635.6,280.7 641.6,269.4 		"/>
		<polygon class="st0" points="638.5,263.8 651.2,263.7 638.4,262.9 		"/>
		<g>
			<path class="st0" d="M719.8,76.6c6.1,1.6,12.6,0.2,19,2.4c4.2,1.4,6.4,5.6,5.2,10c-0.2,0.9-0.8,3.7-1,4.6
				c-1.7,8.3-3.1,16.9-5.6,25.1c-0.5,1.6-1.1,3.3-1.8,4.8c-1.1,2-1.6,4.2-1.8,6.7c-0.4,5,0.2,10.2,1.3,15.1c1.1,3.3,0.4,7,0,10.2
				c-1.7,10.6-4.4,21-8.5,31c-1.7,4-3.6,7.9-6.2,11.5c-2.3,3.6-6.3,6.1-9.5,8.8c-6.4,5.3-12.2,11.5-16.7,18.6
				c-4.5,7.1-7.2,15.2-7.6,23.6l-1,0c0.2-17.5,10.8-32.9,23.6-44c3.1-2.8,6.6-5,8.8-8.6c6.7-10.5,9.6-23,11.9-35.2
				c0.7-4.2,1.5-8.8,1.3-13c-1.1-3.8-1.8-7.6-2.2-11.6c-0.4-5.1-0.5-10.4,1.9-15.3c0.6-1.3,1-2.7,1.4-4.1c2.5-9.5,3.7-19.7,5.6-29.4
				c0.1-0.7,0.2-1.6-0.2-1.9c-1.6-1.2-4.1-1.2-6.5-1.4c-2-0.1-4.1-0.1-6.3-0.1c-2.2-0.1-4.5-0.2-7.1-0.9L719.8,76.6L719.8,76.6
				L719.8,76.6z"/>
			<polygon class="st0" points="736.6,106.6 758.9,153.9 739.6,105.1 			"/>
			<polygon class="st0" points="746.5,124.5 741.3,136.2 747.3,124.9 			"/>
			<polygon class="st0" points="685.8,247.4 675,254.1 686.3,248.2 			"/>
			<polygon class="st0" points="723.5,191 730.8,201.4 724.2,190.5 			"/>
			<polygon class="st0" points="717.9,200.3 720.3,212.8 718.8,200.1 			"/>
		</g>
		<polygon class="st0" points="697.3,193.2 710,191.9 697.2,192.2 		"/>
		<polygon class="st0" points="614.8,322.9 627.6,322.7 614.8,322 		"/>
		<polygon class="st0" points="516.3,216.1 504.2,212.2 516,217 		"/>
		<polygon class="st0" points="566.6,183.3 559.6,172.6 565.8,183.8 		"/>
		<polygon class="st0" points="540.3,195.5 533.4,184.9 539.5,196.1 		"/>
	</g>
	<g>
		<path class="st0" d="M722.4,57.2c-4.6-6.5-8.6-13.4-12.5-20.3c-3.6-6.2-7.2-13.3-12.1-18.3c-0.4-0.4-0.9-0.8-1.3-1.1
			c-0.1-0.1-0.1,0-0.1-0.1c0,0-0.1-0.1-0.1-0.1c-0.3-0.1-0.5-0.2-0.9-0.2c-9.6,0.4-25.1,12.4-33,18.5l0.8-1.7L661,50.9l-0.1,0.7
			l-0.6,0.3c0.2-0.2-34.3,18.4-33.5,17.9l-13.3,14.7l-0.7-0.7l13.3-14.7c0,0,33-19.4,33.1-19.4l-0.6,1l-0.2-17.2v-0.8
			c0,0,0.8-0.8,0.8-0.8c8.2-7.3,28.7-26.3,40.2-22.1c1.4,0.6,2.7,1.5,3.9,2.5c6.6,5.6,10.5,12.5,15.2,19.3
			c4.2,6.4,8.5,12.6,13.3,18.5L722.4,57.2L722.4,57.2L722.4,57.2z"/>
		<polygon class="st0" points="714.3,40 693.8,42.6 714.4,41.3 		"/>
		<polygon class="st0" points="712,34.9 691.5,37.5 712.2,36.2 		"/>
		<polygon class="st0" points="647.8,56.6 643.2,76.7 649,56.9 		"/>
		<polygon class="st0" points="660.1,41.3 640.8,48.6 660.6,42.5 		"/>
		<polygon class="st0" points="613.3,84 601.3,79.8 613,84.9 		"/>
		<polygon class="st0" points="706.6,35.6 697.6,26.6 705.9,36.3 		"/>
	</g>
	<g>
		<path class="st0" d="M767,110.6c4.2-1.9,11.4-6.3,15.6-8.7c4.2-2.4,8.5-4.8,13.3-6.4c2.2-0.6,4-1.1,6.5-0.7
			c8.9,1.5,18.9,25.1,22.7,33.2c0,0-5.9-2.2-5.9-2.2c6.4-2.4,13.7,1.3,18.1,5.6c3.6,3.2,7,8.6,10,12.5l18.2,24.9l-0.8,0.6
			l-21.1-22.4c-5.2-5.1-12.3-15.1-20.5-13.3c-0.1,0-0.1,0.1-0.2,0.1c0,0,0,0,0,0c0,0,0.1,0,0.1-0.1c0,0-5.9-2.2-5.9-2.2
			c-2.4-5.5-5-11-7.9-16.2c-2.4-4.2-4.7-8.6-8.2-11.8c-0.3-0.2-0.5-0.3-0.2-0.2c-2.1,0-4.3,1-6.3,1.9c-2.6,1.2-5.2,2.6-7.8,4.1
			c-5,2.8-11.4,6.9-16.7,9.1L767,110.6L767,110.6L767,110.6z"/>
		<polygon class="st0" points="814.3,119.1 803,170.2 817.5,119.8 		"/>
		<polygon class="st0" points="830.4,132.1 829.3,152.7 831.7,132.1 		"/>
		<polygon class="st0" points="779.5,112.9 794.2,127.4 780.4,111.9 		"/>
		<polygon class="st0" points="846.7,146.8 866.5,140.7 846.3,145.5 		"/>
		<polygon class="st0" points="839.2,137.4 858.9,131.4 838.8,136.1 		"/>
		<polygon class="st0" points="784.3,105.8 799,120.3 785.2,104.8 		"/>
		<g>
			<path class="st0" d="M745.4,43.5c11,27.6,23.1,55.2,37.2,81.3c5.3,9.6,10.8,19.1,17.6,27.5c2.8,3.2,4.8,7.1,6.7,10.7
				c1.6,2.9,4,7.9,5.7,10.1c5.4,4.8,12.5,9.1,16.8,0.6c0,0,0.1-0.1,0-0.1l6.2-3.4c0.5,0.1,1.1,0.3,1.5,0.5
				c24.1,10.4,44,50.1,54.7,73.1c6.7,14.9,12.9,30,16.6,46c1.5,6.9,2.7,14,2.5,21.1c0,3-0.4,5.9-0.7,8.8l0,0.8v0.8
				c0.9,12.4,4.8,24.7,9.7,36c1.9,4.1,4.1,8.2,7,11.7l-0.8,0.7c-3.2-3.5-5.6-7.5-7.8-11.6c-4.2-8.3-7.4-17.1-9.7-26.1
				c-1-4-2-8.2-1.9-12.4c1.8-18.8-5.2-37-12.4-54c-7.5-16.6-16-33-25.8-48.2c-8.6-12.8-17.8-25.7-30.8-34.1c-1.5-0.9-3-1.7-4.5-2.1
				l0.1,0c0,0,6.2-3.4,6.2-3.4c-2.4,6.2-7.9,11.6-14.8,12.4c-7.5,0.9-14.3-3-19.8-7.5c-1.1-0.9-2.2-2.1-3-3.2
				c-3.8-5.4-6.5-11.6-10.2-16.8c-18.3-21-31-46.1-43.8-70.6c-6.9-13.7-13.4-27.3-19.7-41.3L745.4,43.5L745.4,43.5L745.4,43.5z"/>
			<path class="st0" d="M889.4,247.1c-8.4,8.9-22,21.2-35,14.1c-4.9-2.7-6.8-7.7-10.3-11.5c-6.2-6.9-14.4-12.2-23.1-15.4
				c-2.3-0.7-5-1.7-7.3-1.3c0,0,0,0,0.1-0.1c0-0.1,0.1-0.1,0.1-0.2c-0.4,3-0.1,7.1,0,10.5c0.9,14.4,4.5,53,18.6,59.5
				c0.9,0.4,2.4,0.6,3.3,0.8c13.6,2.4,17.7,11.4,22.8,22.9c3.8,9,7.5,18,11.5,26.9l-0.9,0.4c-4.8-9.9-9.1-20.1-13.7-30
				c-2.6-5.2-5.4-10.8-10.3-14.2c-2.4-1.7-5.2-2.6-8-3.3c-1.7-0.4-3.9-0.5-5.5-1.2c-16.8-6.7-21.7-52.6-22.2-69.1
				c0-1.5-0.1-2.8,0.2-4.4c0.5-2.2,2.8-3.3,4.8-3.3c5.4,0,10.3,2.2,15,4.4c4.5,2.2,8.9,4.9,12.8,8.1c3,2.4,5.8,5.1,8.2,8.2
				c2,2.8,3.8,5.6,6.6,7.2c5.8,3.2,12.3-0.4,17.2-3.9c3.7-2.7,7-6.1,10.1-9.6L889.4,247.1L889.4,247.1L889.4,247.1z"/>
			<path class="st0" d="M927.4,434.7c0.7-7.4,1.8-14.7,3.6-21.9c1.5-5.2,3.4-12.2,9.5-14c2.1-0.6,4.3-0.3,6.3,0.7l-0.6-0.2
				c5.9-0.3,12.1-1.1,17.5-3.5c5.1-2.9,9.2-7.7,13.2-12.1c1.5-1.6,3-3.6,4.9-4.9c0.8-2.4-0.2-6.7-0.7-9.7c-0.9-4.7-2.3-9.9-3.6-14.6
				c-4.4-13.9-35.9-22.1-48.7-28.4c-4.3-2.2-8.4-4.4-12.5-7c-1.2-0.8-2.4-1.6-3.5-2.5c-0.2-0.2-0.3-0.3-0.6-0.5l1.9,0.7l-57.6,6.1
				L855,323l-0.9-1.3c-6.8-9.6-13.5-19.1-19.8-29c-2.5-4-5.2-8.1-7-12.5c-0.3-0.8-0.5-1.7-0.5-2.6c0.2-8.2,10.4-12.5,16.8-15l-1.5,1
				c9.6-12,28.3-38.5,22.5-54l8.1-3.2c7.2,19.6-13.2,47.3-25.4,61.8l-0.6,0.7c-2.8,0.9-5.7,2.1-8.2,3.5c-1.9,1-4.1,2.6-5,4.3
				c-0.2,0.5-0.2,0.8-0.2,1.2l0.1,0.2l0.2,0.4c0.5,1.2,1.1,2.4,1.7,3.6c4.1,7.6,8.9,14.9,13.6,22.1c3.2,4.9,6.4,9.7,9.7,14.5
				l-2.5-1.1l57.7-5.5l1.9,0.7c4.6,3.7,10.1,6.5,15.3,9.2c14.4,6.9,40.6,13.9,49.1,27.9c1.6,2.6,2.2,6.5,3,9.4
				c1,5,5.5,19.4,1.3,22.8c-1.7,1.2-3,2.9-4.6,4.5c-5,5.1-9.9,11.1-17,13.5c-5.5,1.6-11.2,2.2-16.9,2.1c-1.3-0.8-3.2-1.2-4.7-0.8
				c-7.1,1.8-9.4,16.4-10.9,22.8c-0.7,3.6-1.3,7.2-1.8,10.9L927.4,434.7L927.4,434.7L927.4,434.7z"/>
			<polygon class="st0" points="849.6,187.2 840.6,230.8 854.4,188.2 			"/>
			<polygon class="st0" points="925.8,368.1 919,386.8 926.9,368.5 			"/>
			<polygon class="st0" points="915.2,350.9 908.4,369.6 916.4,351.3 			"/>
			<polygon class="st0" points="911.5,339.8 904.7,358.5 912.7,340.2 			"/>
			<polygon class="st0" points="900.1,276.8 893.3,295.5 901.3,277.2 			"/>
			<polygon class="st0" points="904.7,286.7 897.9,305.4 905.9,287.1 			"/>
			<polygon class="st0" points="903.1,283.1 921.3,291.2 903.6,281.9 			"/>
			<polygon class="st0" points="928.9,326.1 937.3,344.1 930.1,325.5 			"/>
			<polygon class="st0" points="939.1,328.7 947.5,346.8 940.2,328.2 			"/>
			<polygon class="st0" points="933.6,325.3 951.6,316.9 933,324.1 			"/>
			<polygon class="st0" points="927.4,433.9 940.5,448.9 928.4,433.1 			"/>
			<polygon class="st0" points="929.9,418.9 949.5,441.4 931.3,417.7 			"/>
			<polygon class="st0" points="931.2,412 950.8,434.5 932.6,410.8 			"/>
			<polygon class="st0" points="869.2,353.6 886.1,365.5 869.9,352.5 			"/>
			<polygon class="st0" points="898.4,265.4 915.8,276.5 899.1,264.3 			"/>
			<polygon class="st0" points="883.9,234.6 904.3,231.4 883.7,233.3 			"/>
			<polygon class="st0" points="845.8,180.2 866.2,177 845.6,178.9 			"/>
			<polygon class="st0" points="961.1,366.5 943.8,377.9 961.8,367.6 			"/>
			<polygon class="st0" points="959.7,357.3 942.4,368.6 960.4,358.4 			"/>
			<polygon class="st0" points="979.7,384.5 960.2,377.4 979.2,385.7 			"/>
			<polygon class="st0" points="846.5,204 856,222.3 847.7,203.4 			"/>
			<polygon class="st0" points="890.9,317.7 900.4,336.1 892.1,317.1 			"/>
			<polygon class="st0" points="868.5,320.9 878,339.3 869.7,320.3 			"/>
			<polygon class="st0" points="978.8,384.2 988.3,402.5 979.9,383.6 			"/>
			<polygon class="st0" points="951.3,401.2 960.8,419.5 952.5,400.6 			"/>
			<polygon class="st0" points="880,252.3 885.3,272.3 881.2,252 			"/>
			<polygon class="st0" points="873,255.6 878.3,275.6 874.2,255.3 			"/>
			<polygon class="st0" points="865.5,259.6 860.1,279.5 866.8,259.9 			"/>
			<polygon class="st0" points="839.4,264.1 819,261.3 839.3,265.4 			"/>
			<polygon class="st0" points="813.5,261.9 808.2,281.9 814.8,262.3 			"/>
			<polygon class="st0" points="843.7,301.9 863.5,295.8 843.4,300.6 			"/>
			<polygon class="st0" points="864.3,340.6 884.1,334.6 863.9,339.3 			"/>
			<polygon class="st0" points="836.9,287.2 856.7,281.2 836.5,286 			"/>
			<polygon class="st0" points="867.5,237.1 882.2,251.6 868.4,236.2 			"/>
			<polygon class="st0" points="813.7,252.5 828.5,267 814.7,251.5 			"/>
			<polygon class="st0" points="815.8,270.1 830.5,284.6 816.7,269.2 			"/>
			<polygon class="st0" points="828.1,302.3 827,322.9 829.4,302.4 			"/>
			<polygon class="st0" points="821.6,292 820.5,312.6 822.9,292 			"/>
			<polygon class="st0" points="811.8,242.4 826.5,257 812.7,241.5 			"/>
		</g>
	</g>
	<g>
		<path class="st0" d="M751.6,73.8c-4.5,2.4-8.5,6.6-12.1,10.5c-4,4.4-8,9.1-12.3,13.7c-6.8,7-15.1,16.3-25.4,18
			c-2.6,0.5-5.6,0.7-8.3,0.7l-2.7-0.2c-0.7,0-2-0.2-2.6-0.3c-12.8-2-25.1-8.1-33.7-17.9c-0.6-0.9-2-2.4-2.5-3.3
			c-0.3-0.6-1.1-1.8-1.5-2.4c-0.5-1.1-1.3-2.6-1.8-3.8c-0.5-1.3-1.3-2.8-2-3.2c-1-0.1-2.4,0.8-3.6,1.6c-1.9,1.4-3.8,3.4-5.4,5.3
			l0.6-1l-19.6,40.9l-1.1,2.3c-8.9,2-17.7,3.5-26.8,4c-6.7,0.1-15.7,0.9-21-4.7c-0.9-1.1-1.4-2.2-2.5-3.2
			c-5.8-5.4-12.9-9.8-19.8-13.9c-17.3-9.9-44.6-23.5-64.7-20.9c-22.3,4.5-46,14.1-67.7,21.3c-9.6,3.1-19,6.9-29.2,8.2
			c-2.7,0.2-3.9-0.2-6.3-0.3c-4-0.3-8-0.6-12-1c-21.9-2.3-44.3-8.6-61-23.6l-2.3-1.8c-0.4-0.3-0.7-0.6-1.2-0.9l-1.2-0.8
			c-9.2-6.4-20.5-9.2-31.7-8.7c-4.4,0.3-7.4,3-11.7,5.4l-1.8-4.5c4.8-1.7,9.8-2.5,14.8-2.8c11.7-0.6,23.3,3,32.9,9.5
			c5.8,4.3,11.7,9.3,18.3,12.5c19.1,9.8,41,12,62.1,12.6c9.8-1.4,19.1-5.5,28.5-8.8l22.3-8.4c11.2-4.2,22.5-8.4,34-11.8
			c7.8-2.4,16.5-4.5,24.7-3.4c23.4,2.6,48,14.5,67.8,26.8c3.9,2.5,7.8,5.2,11.4,8.5c1.2,1.1,2.3,2.3,3.2,3.7
			c3.6,1.7,8.6,1.4,13.3,1.1c7.5-0.6,15.3-2.1,22.7-3.8l-3.5,2.9l18.8-41.2l0.2-0.5l0.3-0.5c1.1-1.5,2.2-2.8,3.5-4.1
			c6.4-6.9,16.9-11.6,24.2-2.7c2.4,2.9,3,5.8,4.8,8.7c6.7,10.3,23.2,17.5,35.3,16.4c3-0.3,6.4-1.2,8.5-3c4.3-3.3,8.4-7.5,12.4-11.9
			c8.7-9.4,16.1-20.7,27.7-27.5L751.6,73.8L751.6,73.8L751.6,73.8z"/>
		<path class="st0" d="M504.2,95.2c-1.8-6-2.7-12.2-3.4-18.2c-0.5-3.3-0.6-7.2-2-10.2c-0.1-0.2-0.2-0.2-0.1-0.2c0,0,0.1,0,0,0
			c-12.5,0.6-28.6-0.1-41.2-0.2l0.7-0.1c-5.5,2.3-11,4.6-16.5,6.7c-5.5,2.2-11.1,4.3-16.8,6.2c-2.6,0.8-5.2,1.7-7.9,2
			c-7.9,0.8-14.2-17-16.5-23.1l0.9,0.9l-53.8-19.8l0.3-0.9l54.4,18l0.6,0.2l0.2,0.7c1.9,5.1,7.6,20,13.1,21c2.6-0.2,5.1-1.2,7.6-1.9
			c11.2-3.8,22.2-8.4,33-13L457,63h0.4l18.2,0.2c7.2,0,14.4,0.1,21.5-0.2c1-0.1,2.2-0.3,3.2,0.3c1.6,0.9,2.2,2.6,2.6,4
			c0.9,3.1,1.1,6.1,1.6,9.3c0.8,6,1.7,11.9,3.5,17.5L504.2,95.2L504.2,95.2L504.2,95.2z"/>
		<polygon class="st0" points="448.2,100.1 405.4,88.2 446.9,104.7 		"/>
		<polygon class="st0" points="631.7,89.1 587.3,93.3 632.1,93.9 		"/>
		<polygon class="st0" points="552.2,114.1 545.8,70 547.4,114.8 		"/>
		<polygon class="st0" points="516.2,96.3 477.4,118.1 518.6,100.5 		"/>
		<polygon class="st0" points="461.6,98.2 455.2,54.1 456.8,98.9 		"/>
		<polygon class="st0" points="625,102.3 580.6,106.5 625.4,107.2 		"/>
		<polygon class="st0" points="380,121.8 346.1,97 378.4,124 		"/>
		<polygon class="st0" points="402.9,116.6 369.8,90.8 401.3,118.7 		"/>
		<polygon class="st0" points="356.5,120.4 323.4,94.6 354.9,122.5 		"/>
		<polygon class="st0" points="342.3,116.3 303.5,132.5 343.3,118.8 		"/>
		<polygon class="st0" points="368.7,120.6 336.8,147.9 370.5,122.7 		"/>
		<polygon class="st0" points="354.1,133.4 334.2,134.1 354.2,134.6 		"/>
		<polygon class="st0" points="388.3,105.4 368.4,106.1 388.4,106.6 		"/>
		<polygon class="st0" points="429.9,96.5 410,97.2 429.9,97.7 		"/>
		<polygon class="st0" points="542.4,110.5 513.8,118.7 542.9,112.3 		"/>
		<polygon class="st0" points="609.1,105.3 591.1,115.6 609.7,106.5 		"/>
		<polygon class="st0" points="414.7,115.5 404.1,133.3 415.8,116.2 		"/>
		<polygon class="st0" points="385.7,123 375.2,140.8 386.8,123.7 		"/>
		<polygon class="st0" points="473.3,95.8 462.8,113.6 474.4,96.5 		"/>
		<polygon class="st0" points="486,64.7 468.6,75.8 486.8,65.8 		"/>
		<polygon class="st0" points="501.9,81.2 519.4,70.3 501.2,80.1 		"/>
		<polygon class="st0" points="505.9,86.7 523.5,75.8 505.3,85.6 		"/>
		<polygon class="st0" points="411.1,75.6 393.6,86.7 411.8,76.7 		"/>
		<polygon class="st0" points="348.3,37.8 330.9,48.9 349,38.9 		"/>
		<polygon class="st0" points="665,104.1 644.4,104.9 665.1,105.4 		"/>
		<polygon class="st0" points="631.6,84.6 610.9,85.5 631.6,85.9 		"/>
		<polygon class="st0" points="673,109.8 652.4,110.7 673.1,111.1 		"/>
		<polygon class="st0" points="689.1,111.8 703.1,162.2 692.3,110.9 		"/>
		<polygon class="st0" points="639.5,78.9 597.9,47.1 637.5,81.6 		"/>
		<polygon class="st0" points="620.4,92.1 616.9,80.7 619.7,92.4 		"/>
		<polygon class="st0" points="701.8,74.6 682.1,68.2 701.4,75.9 		"/>
		<polygon class="st0" points="714.9,70.8 695.2,64.3 714.5,72 		"/>
		<polygon class="st0" points="550.2,116.5 521.6,124.8 550.8,118.3 		"/>
		<polygon class="st0" points="747.6,64.4 683.1,85.3 717,66 745.5,55.2 		"/>
	</g>
	<g>
		<polygon class="st0" points="697.3,71.4 648.3,70.2 697.2,74.5 		"/>
		<polygon class="st0" points="691.5,82.8 664.8,82.2 691.5,84.5 		"/>
		<g>
			<path class="st0" d="M726.5,42c-15.5,12.2-49,31.7-46.3,54.8c0.8,5.6,4.8,9.2,4.2,15.2c-0.5,10.6-8.7,24.3-20,25.3
				c-2.2,0.1-4.4-1-6.4-1.8c-23.7-8.7-44.7-22.5-60.2-42.5c-6.3-8.7-14-17.6-16.2-28.2c0-1.1-0.1-2.7,0.1-3.8
				c1.9-7.7-3.1-14.6-7.3-20.4l-2,1.4c2.7,4.4,6.3,9.3,6.5,14.5c-0.1,2.7-1.1,5.7-0.9,8.6c1.6,11.8,9.3,21.5,15.6,31.1
				c14.9,21.4,37,37.5,60.9,47.4c13.3,7.7,27.2-1.3,34.5-12.5c6.3-9.4,9.3-22.7,3.7-33.4c-3.2-9.2,8.4-18.3,15.2-24.2
				c8.4-6.8,17.8-12.7,27.3-19.1L726.5,42L726.5,42L726.5,42z"/>
			<polygon class="st0" points="574.6,40.7 529.4,51.5 575.3,43.7 			"/>
			<polygon class="st0" points="694.4,77 649.1,87.7 695.1,79.9 			"/>
			<polygon class="st0" points="685.6,97.8 640.4,108.6 686.3,100.8 			"/>
			<polygon class="st0" points="706.2,62.5 663.8,43.5 705,65.3 			"/>
			<polygon class="st0" points="659.2,141.8 614,152.5 660,144.7 			"/>
			<polygon class="st0" points="598.4,98.9 563.8,67.9 596.4,101.1 			"/>
		</g>
		<polygon class="st0" points="686.1,103.9 598.8,108.3 647.5,95.7 686.6,91.7 		"/>
	</g>
	<g>
		<path class="st0" d="M731.1,41.7c-0.4,39.6,0.3,79.7,3.1,119.2c1.5,19.5,3.3,39.4,7.8,58.3c3.4,12.8,9.2,34.7,20.8,41.4
			c1.1,0.5,2.1,0.8,3.2,0.7l-0.3,0.1l5.6,0.9c2.8,2.7,4.5,5.8,6.2,9.1c4.3,8.5,7.2,17.7,9.5,26.8c5.9,24,8.3,48.4,9.6,72.9
			c0.9,18.3,1.1,37-2,55.2c-2.2,12.3-6.1,25-15,34.2c-2.2,2.3-4.8,4.3-7.3,6.1c-2.5,1.8-5.1,3.4-5.9,5.2c-2.4,5.3-6.7,10.9-9.8,15.8
			c-8.6,13.5-21.8,32.9-18.2,49.4l-7.4-1.9c-5.3-20.3,2.1-16,29.7-60.9c0.7-1.3,1.4-2.6,1.8-3.8c1.5-3.5,4.5-5.2,7.1-7.2
			c7.2-5,12.2-12.2,15.1-20.5c4-11.1,5.2-23.1,5.6-34.9c0.4-12-0.2-24-1.2-36c-2.4-27.6-8.4-79.8-25.1-101l5.6,0.9
			c-1.4,0.5-2.3,0.7-3.6,0.8c-21.3,0.2-31.8-33.5-36.7-49.9c-10-39.5-12.1-80.1-14.7-120.5c-1.1-20.1-1.9-40.1-2.3-60.3L731.1,41.7
			L731.1,41.7z"/>
		<path class="st0" d="M731.8,228.8c-7.8,0.2-16.3,1.2-23.5,4.2c-0.8,0.4-1.4,0.8-1.7,1c-0.1,0.1,0,0-0.1,0c0,0,0-0.1,0.1-0.1
			c0,0,0-0.1,0-0.1l0,0.1c-0.7,2.1-0.9,4.4-1.2,6.8c-0.8,8.2-0.8,16.6-0.3,24.9c0.3,4.6,0.8,9.2,1.9,13.7c0.4,1.2,0.9,2.6,1.6,3.6
			c2.7,3.8,7.7,5,12.2,4.9c1.9-0.1,4.8-0.6,6.6-0.9c-9.9,26.4-17.5,54.1-19.6,82.4c-0.5,6.7-0.4,13.6-0.4,20.4
			c-0.3,13.7-1.8,27.4-4.9,40.7c-1.6,6.7-3.4,13.2-6.1,19.6l-0.9-0.4c7.2-19,9.5-39.6,9.7-59.9c-0.1-4.8-0.2-10.4-0.2-15.3
			c0.8-29.2,7.7-57.8,17.1-85.4c0,0,2.5,3,2.5,2.9c-8.1,1.4-18.1-1.1-21.3-9.5c-1.9-5.2-2.6-10.8-3.3-16.2c-1-8.6-1.5-17.1-1.4-25.8
			c0.1-2.9,0.1-6.1,1.1-9.2c0.8-2.2,3.2-4.1,4.9-5.1c8-4.6,16.4-7,25-10.3L731.8,228.8L731.8,228.8L731.8,228.8z"/>
		<polygon class="st0" points="704.8,377.9 718.3,392.5 705.8,377 		"/>
		<polygon class="st0" points="705.3,368.8 720.7,385.6 706.4,367.9 		"/>
		<polygon class="st0" points="798.5,314.2 805,336.1 799.9,313.8 		"/>
		<polygon class="st0" points="795.3,288.2 811.7,272.3 794.3,287.1 		"/>
		<polygon class="st0" points="807.3,295.4 823.6,279.5 806.3,294.4 		"/>
		<polygon class="st0" points="799.7,310.7 822.1,306.9 799.5,309.3 		"/>
		<polygon class="st0" points="793.6,353.4 814.6,362.3 794.2,352 		"/>
		<polygon class="st0" points="794.6,360.7 815.5,369.6 795.1,359.4 		"/>
		<polygon class="st0" points="794.5,394 808.7,411.7 795.6,393.1 		"/>
		<polygon class="st0" points="792.1,404.8 806.3,422.5 793.2,403.9 		"/>
		<polygon class="st0" points="791.2,414 799.8,435.1 792.5,413.5 		"/>
		<polygon class="st0" points="761,474.4 769.6,495.5 762.4,473.8 		"/>
		<polygon class="st0" points="755.2,484.9 763.8,506 756.5,484.4 		"/>
		<polygon class="st0" points="765.5,469.2 743.7,475.7 765.9,470.6 		"/>
		<polygon class="st0" points="761.7,478.1 739.9,484.5 762.1,479.4 		"/>
		<polygon class="st0" points="813.2,296.4 819.6,318.2 814.6,296 		"/>
		<polygon class="st0" points="808.3,317 814.7,338.9 809.7,316.6 		"/>
		<polygon class="st0" points="708.3,353.1 726.2,372.7 709.5,352 		"/>
		<polygon class="st0" points="711.5,334.1 729.5,353.8 712.8,333 		"/>
		<polygon class="st0" points="695.2,449.3 713.1,468.9 696.4,448.1 		"/>
		<polygon class="st0" points="700.5,432.4 715.6,448.9 701.6,431.5 		"/>
		<polygon class="st0" points="709.5,287.8 702,308.9 710.8,288.3 		"/>
		<polygon class="st0" points="734.5,235.7 726.9,256.7 735.8,236.1 		"/>
		<polygon class="st0" points="703.3,279 695.7,300.1 704.6,279.5 		"/>
		<polygon class="st0" points="702.7,268.7 685.2,282.7 703.6,269.8 		"/>
		<polygon class="st0" points="792.4,363.8 769.7,390.8 794.6,365.7 		"/>
		<polygon class="st0" points="791.6,411.3 768.9,438.3 793.9,413.2 		"/>
		<polygon class="st0" points="712.8,319.2 690,346.2 715,321.1 		"/>
		<polygon class="st0" points="784.3,299.6 808.7,313.4 846.4,326.6 808.2,318.6 779.7,307.9 		"/>
		<polygon class="st0" points="778.7,277.1 803.2,290.9 840.8,304.1 802.7,296.1 774.2,285.4 		"/>
	</g>
	<g>
		<path class="st0" d="M731,52.1c6.9-4.1,13.4-8.7,19.8-13.3c5.9-4.2,12-9.2,18.6-11.6c0.5-0.2,1.1-0.3,1.7-0.5c0.1,0,0.1,0,0.2,0
			c0,0,0.1,0,0.2,0c0.3,0,0.5,0,0.9,0.2c8.6,4.4,17.7,21.7,22.3,30.5l0-1.9l-5.1,16.5l-0.2,0.7l0.4,0.5c-0.1-0.3,23.5,31,23.1,30.2
			l6,18.9l1-0.3l-6-18.9c0,0-22-31.3-22-31.4l0.2,1.2c0,0,7.3-15.6,7.3-15.6l0.4-0.8c0,0-0.4-1.1-0.4-1.1
			c-4.4-10.1-15.2-35.8-27.5-36.8c-1.6,0-3.1,0.3-4.6,0.6c-8.3,2.4-14.8,7-21.9,11.3c-6.5,4-13,7.9-19.8,11.3L731,52.1L731,52.1
			L731,52.1z"/>
		<polygon class="st0" points="740.8,39.4 776.6,65.8 737.9,43.3 		"/>
		<polygon class="st0" points="792.2,42.3 811.4,40.5 792.1,41 		"/>
		<polygon class="st0" points="780.9,28.5 800,26.7 780.8,27.2 		"/>
		<polygon class="st0" points="749.3,48.9 768.4,47.1 749.1,47.6 		"/>
		<polygon class="st0" points="796,79.8 815.2,78 795.9,78.5 		"/>
	</g>
	<path class="st0" d="M704.3,58.8c0.3,1.5,0.6,3.1,0.9,4.7c0.7,4.4,1.2,9,1.6,13.5c2.1,26.9,5.2,52.9,8.6,80
		c0.7,5.6,1,10.8,3.7,18.3c15,40.8,13.8,16,14.4,16.5c5.7,4.2,2.4-22,4.4-22.1c0.3,0,4.3-70.5-2.9-109.9c-0.5-2.6,1.9-19.5,1.2-22.3
		L704.3,58.8L704.3,58.8z"/>
</g>
</svg>
