<?xml version="1.0" encoding="UTF-8"?>
<svg id="_Слой_1" data-name="Слой 1" xmlns="http://www.w3.org/2000/svg" viewBox="0 0 1417.32 566.93">
  <defs>
    <style>
      .cls-1 {
        fill: #fff;
      }

      .cls-2 {
        fill: #2f4e9d;
        stroke: #1d1d1b;
        stroke-miterlimit: 10;
      }
    </style>
  </defs>
  <path class="cls-1" d="m718.56,361.44c-27.62,14.68-59.39,22.23-90.68,20.5,0,0-.24-.01-.24-.01-.05,0-.14,0-.18,0,0,0-.73-.07-.73-.07-1-.02-3.01-1-2.89-.99-.33-.18-.96-.62-1.19-.82-.98-.83-1.79-1.85-2.49-2.76-4.51-5.93-9.16-12.89-13.67-18.76-.11-.15-.29-.34-.15-.2l.11.11s.21.19.32.27c0,0,.2.16.43.32.27.18.29.2.8.47.83.51,2.6.8,2.91.77h-.05s-.43-.03-.43-.03c-13.68-.9-27.27-.13-41.05-.45-7.35-.14-15.6-.8-22.93-3.07-16.64-4.5-41.48-15.65-36.32-37.02.25-.92.61-1.87,1.04-2.74l.83,6.17c-8.02-6.16-19.41-9.17-29.61-11.75-5.32-1.13-10.16-2.78-15.82-1.93-11.19,1.62-22.89,6.07-34.59,7.16-4.43.52-9.26.54-13.73.33-7.32-.13-14.74-.1-22.13-.35-9.23-.08-18.32-2.56-26.78-6.15-5.37-2.2-10.54-5.68-15.72-7.75-5.11-2.12-10.36,0-15.1,2.12-6.64,2.99-11.18,8.56-15.95,13.96-2.16,2.55-6.01,3.14-9.1,3.55-4.46.58-8.94.74-13.41.82-11.85.14-23.67-.47-35.43-1.78-5.87-.68-11.74-1.53-17.5-2.97l.23-.97c5.72,1.22,11.57,1.86,17.42,2.33,11.69.89,23.48,1.07,35.18.52,4.36-.24,8.72-.55,13.01-1.26,1.83-.36,4.11-.68,5.64-1.59,1.61-1.15,2.69-2.89,4.04-4.49,3.7-4.81,8.35-9.29,13.84-12.11,11.26-5.78,16.51-4.85,27.19.84,7.66,3.93,15.75,6.66,24.25,7.95,2.51.43,5.44.4,8.32.44,7.19.01,14.76-.27,22.05-.38,10.05.32,19.69-1.67,29.39-4.57,8.68-2.36,18.18-6.13,27.86-4.69,9.02,1.46,17.83,3.22,26.61,6.13,6.31,2.22,12.84,4.57,17.93,9.24,0,0,.83,6.17.83,6.17.08-.15.04-.07.05-.09-.95,2.86-.33,5.81,1.36,8.38,4.36,6.41,13.19,9.99,20.8,12.41,3.11.98,6.67,1.86,9.89,2.58,5.36,1.1,10.68,1.15,16.47,1.13,13.15-.17,26.55-1.31,39.8-1.02,0,0,1.88.05,1.88.05h.47c.46,0,2.14.28,3.08.82.54.28.59.33.89.53.27.18.48.35.52.39,1.76,1.5,3,3.32,4.3,4.91,3.89,4.95,8.92,11.85,12.58,16.22-.42-.39-.87-.74-1.37-1.02.15.03-1.82-.94-2.79-.95-1.33-.12-.34-.03-.62-.06h.05s.11,0,.11,0c5.44.14,10.91,0,16.34-.48,20.37-1.88,40.4-7.85,58.65-17.07,1.74-.86,3.4-1.81,5.06-2.76,0,0,.57-.34.57-.34l9.54,15.91h0Z"/>
  <path class="cls-1" d="m738.19,445.54c19.62,11.18,41.82,18.03,64.28,20.17,5.49.48,11,.61,16.5.47-.28.03.71-.06-.62.06-.97,0-2.94.98-2.79.95-.5.28-.95.63-1.37,1.02,0,0-.08.08-.08.08.3-.27,1.35-1.63,1.71-2.06,3.32-4.26,7.6-9.9,10.94-14.23,1.31-1.59,2.54-3.41,4.3-4.91.04-.03.25-.2.52-.39.31-.2.36-.25.89-.53.93-.54,2.65-.83,3.08-.81,9.29-.32,18.78.12,27.99.51,9.12.33,18.75.93,27.58-.16,4.32-.63,8.8-1.86,12.95-3.1,8.96-2.83,25.17-9.35,22.18-20.73,0,0-.02-.06-.02-.06,0,.02-.03-.07.05.09l.83-6.17c2.76-2.68,5.85-4.19,9.15-5.8,8.47-3.88,17.52-6.19,26.49-7.99,2.96-.62,5.93-1.07,8.89-1.58,9.68-1.44,19.18,2.34,27.86,4.69,9.7,2.9,19.35,4.88,29.39,4.57,7.28.11,14.85.39,22.05.38,2.88-.04,5.81-.01,8.32-.44,5.62-.89,11.12-2.32,16.41-4.4,5.62-2.12,10.37-5.22,16.22-7.32,4.66-1.79,10.08-.93,14.55,1,4.36,1.68,8.45,4.17,11.92,7.29,2.32,2.07,4.34,4.43,6.18,6.76,1.76,2.04,2.93,4.41,5.61,5.17,5.47,1.55,11.39,1.81,17.07,2.18,5.84.29,11.72.36,17.59.28,11.71-.25,23.53-.77,35.02-3.12,0,0,.23.97.23.97-17.33,3.97-35.2,4.77-52.93,4.75-6.42-.24-12.96-.13-19.19-2.09-2.76-1.01-4.54-3.7-6.36-5.7-3.64-4.38-7.79-8.12-12.92-10.55-10.02-4.64-13.36-3.67-22.69,1.63-7.94,4.41-16.68,7.67-25.63,9.32-8.9,1.39-18.13.87-27.04,1.11-5.91.06-12.26.49-18.11-.26-11.7-1.08-23.4-5.54-34.59-7.16-5.66-.85-10.5.8-15.82,1.93-10.24,2.62-20.83,5.3-29.38,11.56-.13.1-.45.43-.22.19,0,0,.83-6.17.83-6.17,5.76,12.66-3.09,24.84-13.81,30.97-6.87,4.15-13.98,6.62-21.47,8.79-7.33,2.26-15.57,2.93-22.93,3.07-13.79.32-27.37-.45-41.05.45,0,0-.43.03-.43.03.11.05,2.06-.25,2.86-.77.69-.36,1.12-.67,1.55-1.06-3.75,4.98-9.37,13.14-13.7,18.86-.72.9-1.5,1.94-2.49,2.76-.14.11-.08.08-.41.32-.25.18-.51.35-.78.51.12,0-1.89.97-2.89.99l-.73.07h-.06s-.12,0-.12,0h-.24s-.95.06-.95.06c-5.68.3-11.41.29-17.08-.02-23.96-1.48-47.54-7.92-69.02-18.59,0,0-1.74-.9-1.74-.9l-.89-.48-.99-.56,9.54-15.91h0Z"/>
  <path class="cls-1" d="m771.7,484.05c5.8,3.89,12.27,6.34,19.38,7.39,15.28,2.27,33.48-1.23,48.44,5.89,4.1,1.88,7.91,4.34,11.25,7.2,6.43,5.5,10.82,11.99,16.61,17.63,4.83,4.7,9.98,9.26,16.7,10.08,11.5.96,23.68.66,34.73-2.3,5.6-1.72,13.77-4.44,13.91-11.06,0,0-.02-1.87-.02-1.87l1.33-1.02,32.72-24.94.67-.51.71-.05c11.91-.75,23.7-.6,35.42,1.87,13.44,2.77,22.87,9.88,23.49,24.48.37,5.67.78,11.33,4.47,15.82,3.49,4.41,8.67,7.37,13.66,9.91,5.15,2.56,10.58,4.6,16.09,6.37,5.51,1.75,11.13,3.25,16.79,4.41l-.18.98c-11.47-2.21-22.79-5.32-33.43-10.24-7.9-3.77-16.57-9.06-18.83-18.18-1.55-5.6-1.04-11.6-3.31-16.82-5.81-13.24-23.97-13.73-36.55-14.15-5.7-.04-11.49.21-17.09.81l1.38-.56-31.7,26.22,1.31-2.88c.69,10.39-10.32,16.31-18.65,18.78-12.11,3.63-24.38,4.35-36.8,3.82-4.68-.12-9.36-1.8-13.3-4.13-7.43-4.41-13.12-10.56-18.83-16.62-5.1-5.66-10.09-10.22-16.93-13.01-6.67-2.73-13.83-3.16-21.16-3.05-17.18.63-33.93,1.18-49.64-8.8,0,0,7.35-11.49,7.35-11.49h0Z"/>
  <path class="cls-1" d="m724.94,44.13c-4.21,20.17-10.07,40.71-13.94,60.8-3.83,19.15-7.24,39.19-7.54,58.41-.01,9.31.75,19.32,1.79,29.27,3.91,35.79,10.52,71.68,16.65,107.24,0,0,.07.41.07.41l-.05-.25.2.87.87,3.8c8.44,38.44,16.33,76.61,20,116.15.46,5.81.29,12.33-.28,17.98-3.36,31.01-6.32,62.75-20.14,91.08-.19.12-.56.18-1.26.13-.27,0-.74-.05-1.16-.09-.18-.01-.51-.07-.8-.11-1.89-.27-3.51-.6-5.45-1.02-.74-.17-7.49-1.73-8.03-1.96-.9-.29-7.36-2.82-8.12-3.11-1.82-.76-3.86-1.59-5.52-2.54-.61-.35-.89-.6-.98-.79.54-4.4,1.4-8.78,2.22-13.13,3.86-20.97,12.51-40.66,17.53-61.25.83-3.43,1.5-7.02,1.99-10.42,1.28-9.17-.08-17.8-1.26-27.11-2.83-19.79-7.13-39.76-11.43-59.42-1.8-7.98-7.48-33.33-9.28-40.93-.38-1.44-.65-3.19-.9-4.66-6.06-35.75-10.86-71.89-14.1-108.08-.89-10.74-1.73-21.26-1.69-32.22.05-11.23,1.07-21.93,2.38-32.51,3.17-25.89,8.55-51.57,13.33-77.1,0,0,1.35-7.39,1.35-7.39.4-2.4.78-4.85.96-6.68l32.56,4.65h0Z"/>
  <path class="cls-1" d="m703.37,94.74c38.97-.35,77.67.21,116.56,2.69,30.08,2.27,76.62,5.28,101.22,23.97,5.04,3.98,10.04,11.24,7.86,18.23,0,0-.05.16-.05.16,0,0-.12.31-.12.31l-1.24-5.92c-.19-.17-.02-.02.03.01.05.05.18.14.29.22,24.04,15.15,78.11,18.32,107.18,19.53,25.18.85,50.53,1.05,75.55-1.87,12.47-1.52,24.81-3.84,36.39-8.68,5.99-2.48,12.55-3.27,18.9-4.22,12.65-1.65,25.38-2.47,38.13-2.14,6.36.21,12.75.69,19,2.09l-.21.98c-12.42-2.22-25.2-1.53-37.72-.5-10.92,1.09-21.93,2.44-32.5,5.39-4.5,1.46-8.67,3.73-13.22,5.19-3.05,1.06-6.15,1.96-9.26,2.79-31.11,7.57-63.37,8.05-95.2,8.18-32.02-.37-64.51-1.41-95.61-10.16-6.79-2.21-13.77-4.4-19.41-9.03,0,0-1.24-5.92-1.24-5.92,0,0-.1.26-.1.26l-.03.09c-1.2-5.75-10.21-9.8-15.86-12.15-17.26-6.62-36.24-9.14-54.86-10.58-28.66-2.13-57.46-2.26-86.24-1.98-19.21.25-38.51.75-57.63,1.6l-.58-18.54h0Z"/>
  <path class="cls-1" d="m703.25,86.08c-29.64-1.7-59.78-2.44-89.38-.68-10.93.76-21.85,1.75-32.39,4.29-4.09,1.2-8.41,1.35-12.49,1.55-3.3.18-8.88.27-11.54.86-6.64,2.88-13.6,7.5-7.66,14.91.03.04.11.13.04.06l.5,7.03c-.32.41-.71.86-1.07,1.21-19.62,17.43-64.01,18.69-89.4,18.63-16.34-.2-32.67-1.06-48.74-4.41-6.89-1.52-13.77-3.5-20.16-6.62-2.65-1.29-5.17-2.8-7.65-4.32,0,0-.66-.36-.66-.36l-.71-.34c-11.65-4.43-24.36-6.11-36.78-6.43-4.56,0-9.16.28-13.55,1.44l-.29-.96c4.49-1.41,9.17-1.9,13.81-2.11,9.32-.32,18.62.54,27.79,2.25,4.06.84,8.27,1.66,12.05,3.51,16.26,9.62,35.7,10.95,54.23,11.62,18.17.23,36.66-.52,54.63-3.02,15.22-2.35,30.81-5.31,43.9-13.47,1.42-.96,2.81-1.98,3.85-3.2,0,0-.09.12-.09.12,0,0,.5,7.04.5,7.03-4.6-4.84-7.16-12.08-5.01-18.64,2.35-7.18,8.78-11.71,15.13-14.78,1.26-.67,2.86-1.09,4.17-1.34,6.51-1.19,13.24-1,19.57-2.17,26.81-7.69,54.94-8.62,82.52-9.84,15.29-.48,30.38-.63,45.73-.37,0,0-.81,18.53-.81,18.53h0Z"/>
  <path class="cls-1" d="m701.8,216.27c18.32-5.19,35.25-.43,52.27,4.79,7.77,2.21,15.24,3.76,22.55,3.14,6.67-.5,13.2-2.84,19.03-6.15,5.25-3.35,9.62-9.6,16.74-10.29,23.76-2.24,49.86,7.26,71.24,16.78,4.13,1.88,8.2,3.85,12.27,6.03,0,0,.46.77.46.77l23.4,38.73-.97-.91c11.82,6.21,30,14,43.21,9.52,3.38-1.32,6.59-3.4,9.25-6,5.55-5.42,8.89-12.98,14.85-18.27,3.07-2.81,6.74-4.91,10.59-6.34.17,0,61.24,2.4,61.43,2.41,0,0-.03,1-.03,1l-61.27-1.46.39-.07c-3.53,1.48-6.79,3.53-9.49,6.18-5.69,5.47-8.61,13.02-14.19,18.8-2.87,3-6.3,5.43-10.18,7.11-14.34,5.56-33.9-1.88-47.08-8.23,0,0-.56-.28-.56-.28l-.41-.63-24.76-37.88,1.33,1.22c-22.13-10.34-50.86-20.95-75.43-19.29,0,0-2.84.33-2.84.33-2.14.43-3.36,1.63-5.37,3.39-1.77,1.62-4.05,3.91-6.37,5.51-7.25,4.72-15.46,7.97-24.13,8.97-17.01,2.24-34.1-5.88-50.2-7.67-7.55-.87-14.9-.24-21.98,1.94l-3.73-13.13h0Z"/>
  <path class="cls-1" d="m702.6,283.59c-14.15-4.52-30.14-4.47-44.83-.51-6.56,1.83-11.88,4.94-18.78,7.03-8.75,2.94-18.75,1.89-26.55-3.15,0,0-.71-.43-.71-.43l-.18-.11c-3.36-2.01-2.99-6.06-3.08-9.23,0-.07-.02-.13.05.1.07.27.17.43.32.72.21.37.75,1.21,1.91,1.78-3.98-2.03-8.22-3.31-12.74-3.82-14.29-1.54-29.11,3.68-41.87,10.13-6.59,3.36-13.18,7.38-19.08,11.76,1.35-1.27-31.56,30.42-31.27,30.14,0,0-.29.28-.29.28-12.15,6.3-29.47,13.43-43.13,9.08-4.81-1.75-8.97-5.07-12.16-9-3.17-3.9-5.35-8.24-7.94-12.14-3.72-6.07-9.4-10.36-16.02-12.74-5.47-2.14-11.18-4.04-17.09-4.25-1.15-.03-2.38.01-3.4.26l-.32-.95c2.48-.64,4.9-.48,7.38-.26,6.04.69,11.84,2.58,17.46,4.82,5.78,2.27,10.67,6.6,14.14,11.64,2.85,3.97,5.17,8.16,8.2,11.59,2.94,3.36,6.67,6.13,10.91,7.52,8.72,2.43,18.27-.6,26.56-3.86,4.3-1.76,8.59-3.86,12.51-6.17l-.54.41c.11-.11,30.4-31.56,30.49-31.66,18.3-14.31,42.4-27.62,66.36-26.12,5.56.41,11.22,1.87,16.34,4.27,2.8,1.54,3.15,3.72,3.41,6.25.09,1.38.07,2.25.2,3.11,0,0,.04,0-.15-.5-.2-.5-.44-.84-.88-1.32-.3-.37-1.12-.86-.84-.68,10.21,6.31,18.65,2.23,28.69-2.54,18.85-8.56,40.84-10.02,60.86-4.56,0,0-3.93,13.07-3.93,13.07h0Z"/>
  <path class="cls-1" d="m716.04,311.37c11.52,6.79,19,18.11,27.65,27.52,3.96,4.4,8.05,8.56,12.37,11.88,3.64,2.7,8.57,3.34,13.26,3.02,11.46-.82,26.69-8.01,31.84-18.72,4.3-11.44,13.94-14.77,23.71-7.33,3.14,2.41,5.63,5.07,7.96,8.21,0,0,.23.5.23.5,0,0,18.84,41.23,18.84,41.23,0,0-3.51-2.86-3.51-2.86,7.4,1.76,15.19,3.2,22.69,3.83,4.68.29,9.7.65,13.31-1.06,0,0,0,.04.02,0l.17-.27c.55-.84,1.16-1.63,1.71-2.2,3.77-3.91,8.39-6.93,12.71-9.77,10.29-6.57,21.12-12.14,32.35-16.89,15.05-6.01,31.78-12.1,48.32-9.5,30.72,6.93,60.52,22,90.62,30.82,2.1.57,4.13,1.02,6.15,1.21.73.03,1.13.01,1.96-.04,0,0,3.01-.16,3.01-.16,25.26-.92,52-5.33,71.79-22.19,7.85-6.32,17.49-10.65,27.51-11.88,7.97-.96,16.24-.32,23.85,2.37,0,0-.37.93-.37.93-6.5-2.14-13.55-2.67-20.35-2.11-9.31.85-18.15,4.42-25.74,9.75-.28.14-3,2.4-3.44,2.73,0,0-4.67,3.77-4.67,3.77-9.53,7.51-20.99,12.32-32.63,15.49-12.61,3.46-25.66,4.69-38.63,5.59-.83.08-2.33.17-3.34.03-10.15-1.37-19.57-5.13-29.2-8.25-17.79-6.08-38.48-13.82-56.42-18.71-3.76-1.01-7.61-1.98-11.3-2.6-7.24-1.11-14.94.26-22.09,2.16-14.91,4.08-29.21,10.94-42.59,18.71-6.48,3.87-13.28,8.15-18.84,13.05-.95.85-1.95,1.8-2.56,2.81-4.57,6.91-15.1,6.15-21.95,5.99-9.14-.54-17.88-2.04-26.81-4.01,0,0-1.13-2.34-1.13-2.35,0,0-19.57-40.88-19.57-40.88l.57.96c-1.54-1.91-3.44-3.87-5.38-5.28-1.48-.95-2.44-1.64-3.63-1.59-.01.04-.24.11-.7.7-.43.57-.94,1.46-1.35,2.56l-.5,1.17c-7.86,17.76-33.8,29.66-52.57,26.05-3.73-.73-7.56-2.24-10.94-4.66-10.5-7.78-18.29-17.85-26.79-27.07-3.7-3.89-7.68-8.06-12.14-10.49,0,0,6.56-12.19,6.56-12.19h0Z"/>
  <path class="cls-1" d="m686.27,166.82c-4.48,2.43-8.46,6.6-12.14,10.49-4.02,4.36-8.02,9.08-12.32,13.73-6.79,7.02-15.07,16.27-25.4,18.01-2.6.49-5.62.68-8.29.66,0,0-2.67-.19-2.67-.19-.69-.03-1.96-.18-2.63-.31-12.82-1.99-25.06-8.13-33.73-17.92-.61-.89-2.01-2.37-2.49-3.29-.35-.61-1.14-1.78-1.49-2.4-.55-1.14-1.27-2.61-1.76-3.79-.49-1.3-1.32-2.76-2.05-3.25-1.05-.11-2.42.76-3.63,1.59-1.94,1.4-3.84,3.36-5.37,5.27,0,0,.57-.96.57-.96l-19.57,40.89s-1.13,2.34-1.13,2.34c-8.93,1.97-17.68,3.47-26.82,4.01-6.67.15-15.65.85-21.05-4.72-.85-1.1-1.42-2.21-2.52-3.2-5.76-5.38-12.94-9.8-19.78-13.93-17.32-9.91-44.58-23.49-64.68-20.87-22.34,4.46-46.03,14.05-67.72,21.3-9.64,3.12-19.05,6.88-29.2,8.25-2.7.21-3.87-.15-6.29-.27-3.96-.3-7.97-.58-11.96-1.04-21.88-2.28-44.31-8.64-61.03-23.57,0,0-2.28-1.84-2.28-1.84-.39-.3-.74-.64-1.16-.9l-1.22-.8c-9.25-6.38-20.62-9.65-31.87-9.13-4.39.26-8.85.88-13,2.29,0,0-.37-.93-.37-.93,4.77-1.72,9.78-2.53,14.8-2.75,11.66-.61,23.26,3.02,32.93,9.51,5.84,4.35,11.7,9.35,18.28,12.53,19.08,9.83,40.95,11.96,62.11,12.61,9.79-1.43,19.11-5.49,28.55-8.78,0,0,22.33-8.4,22.33-8.4,11.22-4.19,22.5-8.37,34.02-11.82,7.81-2.43,16.55-4.5,24.74-3.45,23.43,2.63,47.95,14.48,67.81,26.82,3.86,2.52,7.85,5.19,11.43,8.49,1.17,1.08,2.26,2.26,3.17,3.74,3.57,1.67,8.64,1.36,13.33,1.06,7.49-.63,15.28-2.07,22.69-3.83l-3.51,2.86s18.84-41.23,18.84-41.23l.23-.5.35-.47c1.13-1.49,2.24-2.78,3.52-4.1,6.37-6.92,16.91-11.64,24.23-2.7,2.43,2.87,3,5.8,4.84,8.65,6.71,10.31,23.16,17.46,35.32,16.43,2.97-.3,6.36-1.22,8.53-2.98,4.31-3.32,8.41-7.48,12.36-11.88,8.66-9.41,16.11-20.73,27.65-27.52,0,0,6.56,12.19,6.56,12.19h0Z"/>
  <path class="cls-1" d="m728.06,440.73c-39.61-1.73-79.64-2.44-119.27-.99-19.53.84-39.49,2-58.54,5.77-12.9,2.95-34.95,8.05-42.11,19.41-.57,1.09-.9,2.07-.85,3.17,0,0-.11-.31-.11-.31l-1.13,5.61c-2.78,2.68-5.97,4.26-9.29,5.92-8.66,4.05-17.91,6.61-27.1,8.59-24.16,5.11-48.67,6.6-73.21,7.1-18.35.3-36.99-.16-55.09-3.94-12.18-2.66-24.75-6.92-33.69-16.19-2.24-2.32-4.15-4.94-5.81-7.53-1.66-2.54-3.2-5.24-4.97-6.03-5.18-2.57-10.68-7.11-15.41-10.33-13.16-9.08-32.11-22.9-48.7-19.88,0,0-.23-.97-.23-.97,20.43-4.64,45.51,15.26,62.25,25.39,1.27.75,2.54,1.47,3.77,1.98,3.44,1.59,5.01,4.65,6.98,7.37,4.8,7.4,11.75,12.58,19.97,15.79,10.96,4.35,22.93,5.97,34.7,6.83,11.93.8,23.95.65,35.98.04,27.71-1.47,79.99-5.65,101.85-21.59,0,0-1.13,5.6-1.13,5.6-.41-1.42-.6-2.28-.62-3.64.49-21.26,34.55-30.68,51.12-34.92,39.8-8.61,80.48-9.31,120.93-10.58,20.13-.41,40.15-.51,60.37-.22l-.64,18.54h0Z"/>
  <path class="cls-1" d="m714.98,472.58c6.17,1.33,12.57,2.33,18.84,3.08,11.98,1.26,24.51,2.29,36.05-.76,2.93-.92,4.74-1.7,6.31-3.2.17-.25.37-.28.71-.9,6.08-9.5,2.61-21.41,5.48-32.21,2.85-11.07,12.76-15.07,23.27-14.73,9.2-.18,19.33,3.08,24.25,11.41,2.11,3.5,3.25,7.47,3.27,11.57,0,0-1.53,3.78-1.53,3.78.07-.08-.03.02-.06.05-.35.35-.74.83-.97,1.22-.3.45-.34.72-.39.64-.04-.08-.25-.38-.2-.2.05.04.02.08.1.15,1.56,1.33,3.55,1.75,5.97,2.29,6.12,1.16,12.5,1.15,18.84,1,12.86-.44,26.01-2.25,38.31-6.18,8.24-2.63,16.45-6.01,23.62-10.89,0,0,.64.77.64.77-14.01,11.22-31.3,17.48-48.71,21.25,0,0-6.62,1.24-6.62,1.24l-6.68.95c-4.46.56-8.96.95-13.59,1.04-5.09,0-9.7-.05-14.82-2.04-8.68-3.46-8.87-12.56-3.22-18.83,0,0-1.53,3.78-1.53,3.78-.75-4.42-3.6-7.86-8.32-8.91-4.3-1.08-11.39-.54-14.84,1.33-1.33.95-1.25,1.3-1.62,2.99-.31,1.87-.2,4.92.01,8.2.52,7.42.81,15.58-1.59,23.27-1.11,3.47-2.35,6.46-4.53,9.58-12.05,16.27-41.02,16.63-59.25,16.45-7.26-.2-14.41-.64-21.63-1.51,0,0,4.44-25.64,4.44-25.64h0Z"/>
  <path class="cls-1" d="m817.27,215.55c.11,4.9-1.23,8.87-2.03,13.32-.39,2.4-.96,4.89-.1,6.68.54.75,2.57.56,3.49.65,0,0,3.21.16,3.21.16,6.12.36,12.88.85,18.92.99,3.53.03,7.05.12,10.49-.51,5.28-1.22,10.41.05,15.3,1.62,3.67,1.25,7.21,2.73,10.6,4.62.29.16.55.24.93.33,3.81.89,8.18,1.2,12.17,1.46,12.34.5,25.25.49,36.96-3.69,3.97-1.36,6.97-4.32,10.32-6.68,6.96-4.98,14.57-9.17,22.78-11.72,8.19-2.59,17.04-3.14,25.42-1.4l-.2.98c-8.26-1.46-16.81-.67-24.69,2.08-9.91,3.39-18.77,9.29-26.75,16.02-10.9,8.17-30.78,8.53-44.03,8.41-4.91-.28-9.79-.15-14.6-1.69-5.06-2.57-10.61-4.64-16.21-5.53-2.52-.39-4.69-.35-6.92.25-1.65.39-3.45.57-5.11.71-8.48.57-17.21.02-25.67-.19-1.98-.11-4.85.06-6.84-.29-11.85-3.04-3.86-18.28-4.47-26.15,0,0,6.99-.44,6.99-.44h0Z"/>
  <path class="cls-1" d="m747.63,101.93c.23-6.28-2.68-12.35-1.92-19.04.44-4.39,3.98-7.47,8.53-7.32.89,0,3.74-.06,4.69-.08,8.47-.21,17.18-.76,25.67-.19,1.65.14,3.45.32,5.11.71,2.24.6,4.41.63,6.92.25,4.93-.76,9.84-2.51,14.39-4.62,3.01-1.81,6.71-1.95,9.97-2.26,10.72-.76,21.46-.48,32.11,1.25,4.25.74,8.49,1.74,12.56,3.45,4.02,1.49,7.35,4.74,10.72,7.33,6.65,5.06,13.93,9.36,21.83,12.07,7.88,2.75,16.43,3.54,24.69,2.08l.2.98c-17.08,3.75-34.5-3.15-48.2-13.12-3.37-2.36-6.34-5.31-10.32-6.68-11.71-4.19-24.62-4.2-36.96-3.69-4.25.32-8.95.52-12.93,1.7-3.44,1.94-7.03,3.45-10.77,4.72-4.89,1.57-10.02,2.84-15.3,1.62-1.42-.29-2.86-.38-4.33-.46-9.82-.35-20.05.82-29.91,1.18-.69.03-1.63.18-1.87.59-.85,1.8-.29,4.28.1,6.68.37,1.97.86,4.03,1.28,6.18.4,2.18.85,4.41.75,7.14l-6.99-.44h0Z"/>
  <path class="cls-1" d="m925.29,351.9c-.73-8.96-6.17-17.79-4.46-27.26.8-5.2,4.17-9.43,8.15-12.59,6.6-5.81,14.2-7.34,22.65-7.05,6.44-.11,12.91-.84,18.87,2.43,3.97,2.03,6.78,6.16,7.46,10.55.74,1.23,2.27,1.82,3.82,2.51,8.3,3.03,17.44,3.86,26.28,4.48,5.99.32,12.05.41,17.91-.28,1.98-.31,4.34-.52,5.86-1.66.75-3,1.59-6.8,2.85-10.01,2.21-5.86,5.87-11.37,10.93-15.21,4.93-3.92,10.92-6.08,16.85-7.84,11.79-3.34,23.89-5.16,36.03-6.49,6.07-.62,12.14-1.12,18.29-1.09,6.25-.02,12.04,2.75,17.64,5.07,5.58,2.31,11.54,3.39,17.58,3.45,0,0,0,1,0,1-6.14.04-12.32-.99-18.03-3.26-5.59-2.2-11.12-4.81-17.21-4.71-6,.06-12.06.65-18.07,1.35-14.75,2-39.94,5.33-51.46,14.58-4.61,3.6-7.87,8.66-9.86,14.17-1.2,3.17-1.85,6.61-2.67,9.98-1.89,5.42-21.68,4.47-26.81,4.38-8.37-.51-26.65-1.5-32.63-7.47-.6-.65-1.04-1.54-1.21-2.43-1.03-6.41-7.38-9.23-13.41-9.37-2.93-.16-6.03.25-8.96.24-5.9,0-11.39.44-16.3,3.73-7.96,5.41-11.56,10.51-9.26,20.5,1.28,6.07,3.96,11.54,4.46,18.09,0,0-5.3.23-5.3.23h0Z"/>
  <path class="cls-1" d="m552.98,222.96c.73,8.96,6.17,17.79,4.46,27.26-.8,5.2-4.17,9.43-8.15,12.59-6.6,5.81-14.2,7.34-22.65,7.05-6.44.11-12.91.84-18.87-2.43-3.97-2.03-6.78-6.16-7.46-10.55-.74-1.23-2.27-1.82-3.82-2.51-8.3-3.03-17.44-3.86-26.28-4.48-5.99-.32-12.05-.41-17.91.28-1.98.31-4.34.52-5.86,1.66-.75,3-1.59,6.8-2.85,10.01-2.21,5.86-5.87,11.37-10.93,15.21-4.93,3.92-10.92,6.08-16.85,7.84-11.79,3.34-23.89,5.16-36.03,6.49-6.07.62-12.14,1.12-18.29,1.09-6.25.02-12.04-2.75-17.64-5.07-5.58-2.31-11.54-3.39-17.58-3.45,0,0,0-1,0-1,6.14-.04,12.32.99,18.03,3.26,5.59,2.2,11.12,4.81,17.21,4.71,6-.06,12.06-.65,18.07-1.35,14.75-2,39.94-5.33,51.46-14.58,4.61-3.6,7.87-8.66,9.86-14.17,1.2-3.17,1.85-6.61,2.67-9.98,1.89-5.42,21.68-4.47,26.81-4.38,8.37.51,26.65,1.5,32.63,7.47.6.65,1.04,1.54,1.21,2.43,1.03,6.41,7.38,9.23,13.41,9.37,2.93.16,6.03-.25,8.96-.24,5.9,0,11.39-.44,16.3-3.73,7.96-5.41,11.56-10.51,9.26-20.5-1.28-6.07-3.96-11.54-4.46-18.09,0,0,5.3-.23,5.3-.23h0Z"/>
  <path class="cls-1" d="m678.94,425.19c.04-8.14-2.14-24.03,6.08-29.03,2.01-1.17,4.23-.79,6.03-2.49,3.33-2.87,5.7-9,3.14-12.97-.52-.76-1.45-1.19-2.22-1.64-8.86-5.53-18.71-8.85-29.18-8.8-4.43.15-9.31-.1-13.32,1.92-.36.27-.91.66-1.22,1.01-2.03,2.56-5.54,2.69-8.5,2.79,0,0-.04-1-.04-1,2.12-.22,4.65-.31,6.37-1.59.85-.7,1.59-1.81,2.57-2.46,4.27-2.48,9.35-2.43,14.1-2.82,10.76-.6,21.65,2.51,30.95,7.77,5.9,2.38,6.49,9.19,4.69,14.43-1.45,4.45-5.04,8.81-9.95,9.7-3.81,1.27-3.82,7.41-4.01,11.1-.06,4.47.38,9.05.73,13.77l-6.23.31h0Z"/>
  <path class="cls-1" d="m438.86,188.2c-1.78-6-2.69-12.16-3.44-18.19-.53-3.35-.59-7.24-2.04-10.24-.11-.17-.18-.2-.15-.19.02,0,.15.04,0,.02-12.49.58-28.61-.06-41.24-.17,0,0,.7-.14.7-.14-5.49,2.32-11,4.56-16.54,6.74-5.55,2.17-11.11,4.3-16.82,6.16-2.56.81-5.2,1.67-7.9,2-7.85.76-14.2-17.03-16.53-23.12,0,0,.9.9.9.9l-53.76-19.83.33-.94,54.39,18.01.65.21s.25.69.25.69c1.92,5.07,7.6,19.98,13.12,21,2.58-.24,5.07-1.15,7.56-1.93,11.16-3.78,22.15-8.41,33.01-13.02,0,0,.32-.14.32-.14,0,0,.38,0,.38,0,0,0,18.2.15,18.2.15,7.19,0,14.36.09,21.51-.2,1.03-.07,2.17-.31,3.22.3,1.59.85,2.2,2.59,2.64,3.98.88,3.14,1.14,6.13,1.6,9.26.79,6,1.72,11.9,3.45,17.54l-3.82,1.15h0Z"/>
  <path class="cls-1" d="m541.06,434.93c.04-7.8-.68-16.31-3.43-23.61-.32-.76-.73-1.46-.93-1.74-.06-.09-.04-.04-.04-.11.04.03.08.05.13.06.02,0,.06,0,.06,0l-.11-.04c-2.04-.8-4.32-1.04-6.71-1.42-8.16-1.07-16.6-1.39-24.85-1.14-4.65.19-9.27.46-13.72,1.44-1.25.34-2.61.79-3.67,1.5-3.93,2.51-5.3,7.48-5.29,11.99,0,1.89.45,4.79.64,6.65-26.04-10.83-53.52-19.35-81.62-22.45-6.65-.75-13.62-.83-20.33-1.1-13.66-.79-27.27-2.75-40.48-6.34-6.61-1.81-13.12-3.9-19.36-6.78,0,0,.43-.9.43-.9,18.78,7.81,39.28,10.9,59.51,11.74,4.83.05,10.43.16,15.34.3,29.14,1.85,57.51,9.7,84.73,20,0,0-3.03,2.4-3.03,2.38-1.11-8.15,1.76-18.02,10.26-20.92,5.25-1.75,10.89-2.22,16.27-2.74,8.62-.69,17.14-.94,25.81-.53,2.93.22,6.1.34,9.13,1.39,2.22.86,4.02,3.34,4.98,5.08,4.3,8.19,6.41,16.6,9.42,25.29,0,0-13.16,1.99-13.16,1.99h0Z"/>
  <path class="cls-1" d="m633.28,77.28c-.08,4.63.88,12.96,1.31,17.86.37,4.83.78,9.76.15,14.75-.35,2.21-.72,4.11-2.14,6.23-5.15,7.44-30.79,6.53-39.68,6.56-.02,0,4.51-4.36,4.5-4.36-.54,6.82-6.91,11.83-12.71,14.05-4.44,1.87-10.82,2.73-15.52,3.73,0,0-30.21,5.93-30.21,5.93l-.26-.97,29.25-9.68c6.85-2.51,18.93-4.77,20.73-13,.01-.08,0-.12,0-.18,0-.04,0-.02-.01-.04,0,0-.01.11-.01.15,0,0,4.51-4.37,4.51-4.36,5.96.16,12.09.11,18.03-.26,4.81-.41,9.74-.6,14.12-2.42.34-.17.49-.38.28-.09.86-1.87.87-4.31.93-6.52.02-2.85-.16-5.84-.39-8.85-.47-5.69-1.39-13.25-1.23-18.96,0,0,8.34.42,8.34.42h0Z"/>
  <path class="cls-1" d="m812.78,107.53c-.72,8.93-4.87,15.86-6.85,23.46-.23,1-.09,1.54-.2,1.75.22.39.83.54,1.24.73,0,0,.66.19.66.19l.17.05.27.07c7.24,1.71,13.83,5.49,19.63,9.97,2.64,2.04,5.09,4.22,7.45,6.66,0,0-.05,1.33-.05,1.33,0,0-.48,13.16-.48,13.16,0,0-1.4-2.47-1.4-2.47,8.84,5.28,17.84,10.46,27.05,15.05,3.69,1.72,7.39,3.7,11.19,4.44.22.05.47-.05.04.09-.06.03-.31.14-.45.29,3.56-4.19,4.08-10.24,7.33-14.92.41-.49.85-.98,1.49-1.31.44-.24.64-.28,1.03-.43,6.26-1.56,12.63-1.76,18.99-2.22,10.52-.51,21.06-.74,31.58.47,17.11,2.75,34.3,5.32,51.48,7.66,0,0,1.3.25,1.3.25l.26,1.06s2.78,11.34,2.78,11.35c0,0-1.06-.81-1.06-.81,12,.45,23.99.94,35.98,1.48,18,.87,35.99,1.59,53.95,3.21,0,0,2.25.26,2.25.26,1.49.14,3.09.44,4.53.77,15.43,2.8,31.25,3.16,46.89,4.23,0,0-.05,1-.05,1-12-.55-23.98-1.2-35.96-2.3-2.99-.3-5.98-.59-8.98-1.1-2.87-.58-5.89-1.17-8.83-1.38-29.89-2.24-59.9-2.89-89.86-3.87,0,0-.81-.02-.81-.02,0,0-.25-.78-.26-.79,0,0-4.18-10.9-4.18-10.9,0,0,1.59,1.32,1.54,1.31-16.33-2.08-32.73-4.17-49.02-6.71-10.98-1.51-22.18-1.04-33.25-.4-5.68.38-12.96,1.04-17.77,2.16-3.01,4.92-3.57,11.49-7.94,15.89-2.12,1.65-4.59.76-6.59.23-13.4-4.83-25.31-12.15-37.63-19.08,0,0-1.39-.81-1.39-.81,0,0-.01-1.66-.01-1.66,0,0-.48-13.16-.48-13.16l1.02,2.41c-.85-.73-1.89-1.55-2.89-2.29-6.14-4.52-13.1-8.31-20.66-9.46-3.83-.56-7.69-2.78-9.03-6.59-1.82-5.36.3-10.35,1.47-14.84,1.55-5.09,2.87-9.8,2.88-14.05l11.58.61h0Z"/>
  <path class="cls-1" d="m457.82,130.44c-4.5-11.34-9.91-28.91,2.01-37.65,4.5-3.28,9.83-2.96,14.76-4.46,8.89-2.74,17.13-7.92,23.77-14.43,1.63-1.74,3.66-3.82,4.22-6.05-.02,0,0,0,.05.14.06.03.06.11.11.15-2.59-1.64-6.4-3.14-9.54-4.45-13.44-5.28-49.96-18.31-61.81-8.28-.77.62-1.52,1.94-2.15,2.69-7.93,11.29-17.76,11.22-30.35,10.94-9.79-.33-19.53-.84-29.3-.93v-1c10.99-.18,22.01.27,32.98.22,5.86-.16,12.09-.33,17.27-3.36,2.51-1.44,4.57-3.61,6.38-5.87,1.08-1.41,2.14-3.28,3.39-4.53,13.18-12.43,56.8,2.61,71.99,9.09,1.34.63,2.57,1.13,3.87,2.03,1.81,1.38,1.78,3.92.92,5.77-2.3,4.9-6.32,8.4-10.32,11.79-3.94,3.19-8.2,5.96-12.77,8.22-3.45,1.69-7.12,3.1-10.91,3.93-3.35.66-6.7,1.02-9.29,2.99-5.3,3.87-4.86,11.34-3.68,17.23.92,4.48,2.52,8.93,4.41,13.25l-5.99,2.56h0Z"/>
  <path class="cls-1" d="m772.91,229.46c-.1,7.97-.81,15.95-1.68,23.8-.69,7.19-1.95,15.02-.83,21.91.09.57.3,1.13.41,1.69.04.13.05.08.05.14-.02.06.02.1.06.14.17.27.29.44.6.67,8.05,5.25,27.63,4.51,37.55,4.16,0,0-1.64.89-1.64.89,0,0,11.77-12.61,11.77-12.62l.45-.53.65.08c-.3.02,38.6,4.95,37.69,4.94,0,0,19.35-4.2,19.35-4.2l.21.98-19.35,4.2c0,.06-38.12-3.47-38.18-3.46,0,0,1.1-.45,1.1-.45,0,0-9.91,14.12-9.91,14.12,0,0-.49.7-.49.7,0,0-1.15.19-1.15.19-10.94,1.18-38.67,4.69-45.61-5.42-.81-1.33-1.29-2.81-1.72-4.27-2.06-8.41-1.29-16.33-1.14-24.57.26-7.65.38-15.22-.1-22.79,0,0,11.9-.3,11.9-.3h0Z"/>
  <path class="cls-1" d="m271.74,85.58c6.39,3.75,12.57,7.8,18.29,12.54,4.05,3.57,9.64,8.23,8.69,14.49-.38,2.19-1.51,4-3.28,5.42,0,0,.42-.5.42-.5-2.22,5.45-4.14,11.39-4.23,17.32.47,5.86,3.07,11.63,5.38,17.11.83,2.08,1.98,4.22,2.42,6.51,1.87,1.73,6.16,2.68,9.14,3.46,4.66,1.15,9.97,2.06,14.74,2.91,14.47,1.88,35.22-23.19,46.32-32.08,3.78-2.99,7.53-5.79,11.6-8.35,1.22-.75,2.48-1.5,3.79-2.13.22-.1.39-.19.72-.32,0,0-1.41,1.44-1.41,1.44l18.83-54.8s.5-1.46.5-1.46l1.55-.29c11.56-2.12,23.05-4.12,34.71-5.69,4.7-.55,9.55-1.33,14.35-1.06.86.05,1.73.28,2.54.62,7.33,3.6,6.9,14.7,6.48,21.58,0,0-.28-1.81-.28-1.81,6.82,13.77,22.91,41.95,39.42,43.28,0,0-.48,8.68-.48,8.68-20.83-1.76-37.26-31.99-45.23-49.14,0,0-.4-.89-.4-.89.4-2.89.52-6.03.29-8.95-.12-2.13-.65-4.84-1.81-6.35-.36-.4-.58-.54-1.03-.64,0,0-.21-.01-.21-.01l-.43-.02c-1.31-.08-2.61-.04-3.94.04-8.6.53-17.23,1.78-25.81,2.97-5.75.83-11.52,1.71-17.25,2.64l2.05-1.74s-19.36,54.62-19.36,54.62c0,0-1.41,1.44-1.41,1.44-5.31,2.63-10.13,6.41-14.79,10.01-12.29,10.15-29.81,30.92-46.02,32.74-3.01.34-6.83-.81-9.79-1.28-4.92-1.22-19.87-3.19-21.18-8.43-.37-2.1-1.33-3.99-2.12-6.04-2.57-6.67-5.84-13.63-5.05-21.06.85-5.68,2.72-11.08,5.24-16.25,1.29-.84,2.39-2.38,2.69-3.94,1.38-7.18-10.9-15.49-16.07-19.57-2.96-2.15-6-4.22-9.09-6.17l.51-.86h0Z"/>
  <polygon class="cls-1" points="382.93 193.11 340.04 181.21 381.63 197.79 382.93 193.11"/>
  <polygon class="cls-1" points="566.34 182.15 522.02 186.34 566.79 186.98 566.34 182.15"/>
  <polygon class="cls-1" points="642.14 68.94 606.46 42.33 639.24 72.83 642.14 68.94"/>
  <polygon class="cls-1" points="486.93 207.12 480.52 163.07 482.13 207.82 486.93 207.12"/>
  <polygon class="cls-1" points="450.92 189.31 412.11 211.11 453.29 193.55 450.92 189.31"/>
  <polygon class="cls-1" points="396.31 191.23 389.9 147.18 391.5 191.93 396.31 191.23"/>
  <polygon class="cls-1" points="528.91 119.72 493.23 93.11 526 123.61 528.91 119.72"/>
  <polygon class="cls-1" points="668.93 77.05 633.25 50.43 666.02 80.94 668.93 77.05"/>
  <polygon class="cls-1" points="696.72 40.29 657.1 60.58 698.93 44.61 696.72 40.29"/>
  <polygon class="cls-1" points="680.14 128.12 635.83 132.32 680.6 132.96 680.14 128.12"/>
  <polygon class="cls-1" points="677.56 139.13 633.25 143.33 678.02 143.97 677.56 139.13"/>
  <polygon class="cls-1" points="559.63 195.38 515.31 199.57 560.08 200.21 559.63 195.38"/>
  <polygon class="cls-1" points="552.92 236.15 508.6 240.35 553.37 240.98 552.92 236.15"/>
  <polygon class="cls-1" points="314.65 214.85 280.75 190.03 313.08 217 314.65 214.85"/>
  <polygon class="cls-1" points="337.6 209.64 304.44 183.85 335.97 211.74 337.6 209.64"/>
  <polygon class="cls-1" points="291.23 213.42 258.06 187.63 289.6 215.52 291.23 213.42"/>
  <polygon class="cls-1" points="276.94 209.37 238.16 225.55 277.96 211.83 276.94 209.37"/>
  <polygon class="cls-1" points="303.42 213.68 271.49 240.98 305.15 215.71 303.42 213.68"/>
  <polygon class="cls-1" points="326.81 282.75 311.68 295.68 327.63 283.7 326.81 282.75"/>
  <polygon class="cls-1" points="392.96 402.89 377.83 415.82 393.78 403.85 392.96 402.89"/>
  <polygon class="cls-1" points="401.97 403.68 384.65 418.48 402.9 404.77 401.97 403.68"/>
  <polygon class="cls-1" points="453.33 498.75 431.27 504.4 453.69 500.15 453.33 498.75"/>
  <polygon class="cls-1" points="479.52 496.45 494.83 513.31 480.58 495.48 479.52 496.45"/>
  <polygon class="cls-1" points="471.86 508.16 487.17 525.02 472.93 507.19 471.86 508.16"/>
  <polygon class="cls-1" points="456.82 500.02 459.84 522.59 458.25 499.83 456.82 500.02"/>
  <polygon class="cls-1" points="414.41 492.5 404.8 513.15 415.71 493.11 414.41 492.5"/>
  <polygon class="cls-1" points="407.05 493.17 397.45 513.82 408.36 493.78 407.05 493.17"/>
  <polygon class="cls-1" points="373.75 491.91 355.54 505.59 374.62 493.07 373.75 491.91"/>
  <polygon class="cls-1" points="363.04 489.15 344.82 502.83 363.9 490.31 363.04 489.15"/>
  <polygon class="cls-1" points="353.87 487.99 332.49 495.84 354.36 489.35 353.87 487.99"/>
  <polygon class="cls-1" points="294.61 455.77 273.23 463.61 295.1 457.13 294.61 455.77"/>
  <polygon class="cls-1" points="284.24 449.56 262.85 457.4 284.73 450.92 284.24 449.56"/>
  <polygon class="cls-1" points="299.56 460.41 293.87 438.35 298.16 460.77 299.56 460.41"/>
  <polygon class="cls-1" points="290.88 456.32 285.2 434.27 289.48 456.68 290.88 456.32"/>
  <polygon class="cls-1" points="470.69 514.03 448.63 519.68 471.05 515.43 470.69 514.03"/>
  <polygon class="cls-1" points="450.23 508.38 428.17 514.03 450.59 509.78 450.23 508.38"/>
  <polygon class="cls-1" points="417.59 407.18 397.37 424.47 418.69 408.46 417.59 407.18"/>
  <polygon class="cls-1" points="436.43 411.08 416.21 428.36 437.53 412.36 436.43 411.08"/>
  <polygon class="cls-1" points="321.96 390.79 301.74 408.08 323.05 392.07 321.96 390.79"/>
  <polygon class="cls-1" points="338.57 396.73 321.59 411.25 339.49 397.8 338.57 396.73"/>
  <polygon class="cls-1" points="482.77 410.65 462.01 402.39 482.25 411.97 482.77 410.65"/>
  <polygon class="cls-1" points="534.07 437.41 513.31 429.15 533.55 438.72 534.07 437.41"/>
  <polygon class="cls-1" points="491.81 404.75 471.05 396.49 491.28 406.06 491.81 404.75"/>
  <polygon class="cls-1" points="526.65 302.11 505.89 293.86 526.12 303.43 526.65 302.11"/>
  <polygon class="cls-1" points="534.07 295.19 513.31 286.93 533.55 296.5 534.07 295.19"/>
  <polygon class="cls-1" points="461.53 246.82 440.77 238.57 461.01 248.14 461.53 246.82"/>
  <polygon class="cls-1" points="477.07 246.82 456.31 238.57 476.54 248.14 477.07 246.82"/>
  <polygon class="cls-1" points="502.1 404.5 488.72 386.61 500.97 405.35 502.1 404.5"/>
  <polygon class="cls-1" points="248 317.55 229.59 325.09 248.48 318.72 248 317.55"/>
  <polygon class="cls-1" points="288.79 226.43 268.91 227.16 288.84 227.69 288.79 226.43"/>
  <polygon class="cls-1" points="323 198.42 303.12 199.15 323.05 199.68 323 198.42"/>
  <polygon class="cls-1" points="364.54 189.5 344.65 190.22 364.59 190.76 364.54 189.5"/>
  <polygon class="cls-1" points="332.84 112.22 318.73 98.18 331.95 113.12 332.84 112.22"/>
  <polygon class="cls-1" points="352.92 109.91 338.82 95.87 352.03 110.81 352.92 109.91"/>
  <polygon class="cls-1" points="364.53 111.27 350.43 97.23 363.64 112.16 364.53 111.27"/>
  <polygon class="cls-1" points="426.46 127.56 412.35 113.52 425.57 128.46 426.46 127.56"/>
  <polygon class="cls-1" points="415.52 127.56 401.42 113.52 414.63 128.46 415.52 127.56"/>
  <polygon class="cls-1" points="419.47 127.67 404.41 140.68 420.3 128.63 419.47 127.67"/>
  <polygon class="cls-1" points="369.59 132.86 349.69 132.86 369.59 134.12 369.59 132.86"/>
  <polygon class="cls-1" points="362.87 140.92 342.97 140.92 362.87 142.18 362.87 140.92"/>
  <polygon class="cls-1" points="368.33 137.39 368.33 157.29 369.59 137.39 368.33 137.39"/>
  <polygon class="cls-1" points="272.52 85.91 253.4 91.42 272.87 87.12 272.52 85.91"/>
  <polygon class="cls-1" points="285.03 94.47 256.43 102.72 285.56 96.29 285.03 94.47"/>
  <polygon class="cls-1" points="290.71 98.6 262.1 106.84 291.23 100.41 290.71 98.6"/>
  <polygon class="cls-1" points="477.06 203.52 448.46 211.76 477.59 205.33 477.06 203.52"/>
  <polygon class="cls-1" points="369.94 67.09 351.99 77.35 370.59 68.23 369.94 67.09"/>
  <polygon class="cls-1" points="664.28 141.71 646.33 151.97 664.93 142.85 664.28 141.71"/>
  <polygon class="cls-1" points="543.76 198.39 525.81 208.64 544.41 199.53 543.76 198.39"/>
  <polygon class="cls-1" points="616.42 286.59 598.47 296.85 617.07 287.73 616.42 286.59"/>
  <polygon class="cls-1" points="622.2 288.73 604.25 298.99 622.85 289.87 622.2 288.73"/>
  <polygon class="cls-1" points="595.71 381.48 577.76 391.73 596.36 382.62 595.71 381.48"/>
  <polygon class="cls-1" points="492.5 331.15 474.32 321.32 491.88 332.3 492.5 331.15"/>
  <polygon class="cls-1" points="472.12 335.33 453.93 325.51 471.49 336.49 472.12 335.33"/>
  <polygon class="cls-1" points="542.39 238.12 531.88 255.92 543.52 238.79 542.39 238.12"/>
  <polygon class="cls-1" points="531.34 265.66 520.82 283.46 532.47 266.33 531.34 265.66"/>
  <polygon class="cls-1" points="466.22 247.02 455.71 264.82 467.35 247.69 466.22 247.02"/>
  <polygon class="cls-1" points="442.26 257.31 458.07 270.62 443.1 256.31 442.26 257.31"/>
  <polygon class="cls-1" points="540.63 264.81 534.7 284.61 541.88 265.18 540.63 264.81"/>
  <polygon class="cls-1" points="550.67 259.25 561.24 277.02 551.79 258.58 550.67 259.25"/>
  <polygon class="cls-1" points="552.39 250.02 570.6 259.81 553.01 248.87 552.39 250.02"/>
  <polygon class="cls-1" points="645.75 445.24 663.96 455.03 646.37 444.09 645.75 445.24"/>
  <polygon class="cls-1" points="769.55 248.17 787.76 257.96 770.17 247.02 769.55 248.17"/>
  <polygon class="cls-1" points="768.39 253.65 786.6 263.44 769.01 252.49 768.39 253.65"/>
  <polygon class="cls-1" points="703.66 141.83 721.87 151.62 704.28 140.68 703.66 141.83"/>
  <polygon class="cls-1" points="703.66 151.31 721.87 161.1 704.28 150.16 703.66 151.31"/>
  <polygon class="cls-1" points="714.91 306.26 735.05 310.91 715.21 304.98 714.91 306.26"/>
  <polygon class="cls-1" points="714.91 296.95 735.05 301.61 715.21 295.68 714.91 296.95"/>
  <polygon class="cls-1" points="728.67 364.82 748.82 369.48 728.97 363.54 728.67 364.82"/>
  <polygon class="cls-1" points="735.05 434.48 755.2 439.14 735.35 433.21 735.05 434.48"/>
  <polygon class="cls-1" points="713.25 280.95 733.39 285.61 713.54 279.67 713.25 280.95"/>
  <polygon class="cls-1" points="830.41 338.5 850.39 343.8 830.75 337.23 830.41 338.5"/>
  <polygon class="cls-1" points="833.27 273.41 848.73 259.68 832.4 272.42 833.27 273.41"/>
  <polygon class="cls-1" points="1010.03 250.22 1025.49 236.49 1009.16 249.24 1010.03 250.22"/>
  <polygon class="cls-1" points="1022.63 249.64 1035.65 265.69 1023.65 248.81 1022.63 249.64"/>
  <polygon class="cls-1" points="847.62 249.45 867.6 254.75 847.95 248.18 847.62 249.45"/>
  <polygon class="cls-1" points="938.36 235.23 958.34 240.53 938.69 233.96 938.36 235.23"/>
  <polygon class="cls-1" points="949.15 229.38 969.14 234.68 949.49 228.11 949.15 229.38"/>
  <polygon class="cls-1" points="972.9 273.24 992.88 278.54 973.23 271.97 972.9 273.24"/>
  <polygon class="cls-1" points="932.38 312.86 952.36 318.16 932.71 311.59 932.38 312.86"/>
  <polygon class="cls-1" points="1073.2 361.21 1093.19 366.51 1073.54 359.95 1073.2 361.21"/>
  <polygon class="cls-1" points="1133.83 404.33 1153.81 409.63 1134.16 403.06 1133.83 404.33"/>
  <polygon class="cls-1" points="999.72 168.99 1019.71 174.29 1000.06 167.72 999.72 168.99"/>
  <polygon class="cls-1" points="952.36 518.9 957.01 539.04 953.64 518.61 952.36 518.9"/>
  <polygon class="cls-1" points="1035.94 539.13 1040.59 559.27 1037.22 538.83 1035.94 539.13"/>
  <polygon class="cls-1" points="1029.24 532.89 1027.16 553.46 1030.54 533.02 1029.24 532.89"/>
  <polygon class="cls-1" points="1026.26 523.07 1011.13 537.15 1027.16 524.03 1026.26 523.07"/>
  <polygon class="cls-1" points="972.16 498.2 960.17 515.04 973.23 498.96 972.16 498.2"/>
  <polygon class="cls-1" points="985.73 493.47 993.3 474.23 984.51 492.99 985.73 493.47"/>
  <polygon class="cls-1" points="993.54 493.47 1001.11 474.23 992.32 492.99 993.54 493.47"/>
  <polygon class="cls-1" points="1020.26 502.22 1040.9 501.06 1020.19 500.92 1020.26 502.22"/>
  <polygon class="cls-1" points="1048.2 544.75 1068.84 543.59 1048.13 543.44 1048.2 544.75"/>
  <polygon class="cls-1" points="976.92 503.72 964.92 520.56 977.98 504.48 976.92 503.72"/>
  <polygon class="cls-1" points="1077.11 554.87 1094.2 543.24 1076.37 553.79 1077.11 554.87"/>
  <polygon class="cls-1" points="907.9 257.79 927.88 263.09 908.24 256.52 907.9 257.79"/>
  <polygon class="cls-1" points="814.32 278.62 834.31 283.92 814.66 277.35 814.32 278.62"/>
  <polygon class="cls-1" points="1055.29 294.56 1063.96 275.79 1054.1 294.01 1055.29 294.56"/>
  <polygon class="cls-1" points="1040.3 305.23 1048.96 286.46 1039.11 304.68 1040.3 305.23"/>
  <polygon class="cls-1" points="919.92 359.92 939.9 365.22 920.25 358.65 919.92 359.92"/>
  <polygon class="cls-1" points="960.35 410.65 980.33 415.95 960.68 409.39 960.35 410.65"/>
  <polygon class="cls-1" points="1021.53 425.3 1010.16 442.57 1022.63 426.02 1021.53 425.3"/>
  <polygon class="cls-1" points="896.54 551.85 916.53 557.15 896.88 550.59 896.54 551.85"/>
  <polygon class="cls-1" points="849.62 507.55 869.6 512.85 849.95 506.29 849.62 507.55"/>
  <polygon class="cls-1" points="929.91 354.2 949.89 359.5 930.24 352.94 929.91 354.2"/>
  <polygon class="cls-1" points="1102.2 370.71 1122.19 376.01 1102.54 369.44 1102.2 370.71"/>
  <polygon class="cls-1" points="1122.19 366.52 1142.82 367.81 1122.27 365.22 1122.19 366.52"/>
  <polygon class="cls-1" points="1135.87 361.94 1156.5 363.23 1135.95 360.64 1135.87 361.94"/>
  <polygon class="cls-1" points="1146.18 356.23 1166.82 357.51 1146.27 354.92 1146.18 356.23"/>
  <polygon class="cls-1" points="1036.5 316.18 1057.13 317.47 1036.58 314.88 1036.5 316.18"/>
  <polygon class="cls-1" points="1041.13 364.12 1061 358.42 1040.77 362.86 1041.13 364.12"/>
  <polygon class="cls-1" points="1043.46 376.17 1062.94 383.09 1043.9 374.93 1043.46 376.17"/>
  <polygon class="cls-1" points="1051.93 425.45 1071.41 432.37 1052.37 424.21 1051.93 425.45"/>
  <polygon class="cls-1" points="1023.77 430.27 1043.25 437.19 1024.2 429.04 1023.77 430.27"/>
  <polygon class="cls-1" points="349.35 208.56 338.83 226.36 350.48 209.23 349.35 208.56"/>
  <polygon class="cls-1" points="354.41 299.29 343.89 317.09 355.54 299.95 354.41 299.29"/>
  <polygon class="cls-1" points="477.2 336.75 466.69 354.55 478.33 337.42 477.2 336.75"/>
  <polygon class="cls-1" points="488.1 332.79 477.59 350.59 489.23 333.46 488.1 332.79"/>
  <polygon class="cls-1" points="320.4 216.04 309.88 233.84 321.53 216.71 320.4 216.04"/>
  <polygon class="cls-1" points="407.97 188.89 397.45 206.69 409.1 189.56 407.97 188.89"/>
  <polygon class="cls-1" points="420.73 157.74 403.27 168.81 421.44 158.84 420.73 157.74"/>
  <polygon class="cls-1" points="436.56 174.28 454.09 163.33 435.86 173.17 436.56 174.28"/>
  <polygon class="cls-1" points="440.63 179.76 458.17 168.81 439.94 178.64 440.63 179.76"/>
  <polygon class="cls-1" points="437.47 130.86 420.01 141.93 438.18 131.96 437.47 130.86"/>
  <polygon class="cls-1" points="471.47 130.75 465.73 150.61 472.73 131.11 471.47 130.75"/>
  <polygon class="cls-1" points="536.94 119.23 531.2 139.09 538.2 119.59 536.94 119.23"/>
  <polygon class="cls-1" points="345.78 168.64 328.32 179.71 346.48 169.74 345.78 168.64"/>
  <polygon class="cls-1" points="319.33 144.9 316.35 124.44 318.03 145.09 319.33 144.9"/>
  <polygon class="cls-1" points="328.32 147.53 325.35 127.07 327.02 147.71 328.32 147.53"/>
  <polygon class="cls-1" points="312.76 164.28 309.79 143.82 311.46 164.46 312.76 164.28"/>
  <polygon class="cls-1" points="293.21 148 307.81 133.36 292.28 147.07 293.21 148"/>
  <polygon class="cls-1" points="295.19 154.14 309.79 139.5 294.26 153.21 295.19 154.14"/>
  <polygon class="cls-1" points="283.03 130.86 265.57 141.93 283.73 131.96 283.03 130.86"/>
  <polygon class="cls-1" points="599.73 197.14 579.08 197.98 599.79 198.45 599.73 197.14"/>
  <polygon class="cls-1" points="447.05 248.21 426.4 249.05 447.11 249.52 447.05 248.21"/>
  <polygon class="cls-1" points="671.74 303.86 651.09 304.7 671.8 305.17 671.74 303.86"/>
  <polygon class="cls-1" points="566.26 177.67 545.6 178.51 566.31 178.98 566.26 177.67"/>
  <polygon class="cls-1" points="515.08 109.81 494.42 110.64 515.13 111.12 515.08 109.81"/>
  <polygon class="cls-1" points="393.23 101.94 372.58 102.77 393.29 103.24 393.23 101.94"/>
  <polygon class="cls-1" points="399.82 80.28 379.16 81.12 399.87 81.59 399.82 80.28"/>
  <polygon class="cls-1" points="295.86 153.48 275.2 154.32 295.91 154.79 295.86 153.48"/>
  <polygon class="cls-1" points="292.05 121.37 271.4 122.21 292.11 122.68 292.05 121.37"/>
  <polygon class="cls-1" points="607.72 202.86 587.06 203.7 607.77 204.17 607.72 202.86"/>
  <polygon class="cls-1" points="655.77 221.13 637.52 211.41 655.15 222.28 655.77 221.13"/>
  <polygon class="cls-1" points="683.14 234.05 663.05 238.93 683.45 235.32 683.14 234.05"/>
  <polygon class="cls-1" points="707.06 469.74 670.17 478.71 707.63 472.08 707.06 469.74"/>
  <polygon class="cls-1" points="698.96 492.26 662.07 501.23 699.52 494.6 698.96 492.26"/>
  <polygon class="cls-1" points="714.46 404.18 694.37 409.07 714.77 405.46 714.46 404.18"/>
  <polygon class="cls-1" points="696.97 501.96 676.88 506.84 697.28 503.23 696.97 501.96"/>
  <polygon class="cls-1" points="709.91 376.79 689.83 381.67 710.22 378.06 709.91 376.79"/>
  <polygon class="cls-1" points="681.69 225.67 661.6 230.56 682 226.94 681.69 225.67"/>
  <polygon class="cls-1" points="669.33 130.71 651.09 120.99 668.72 131.87 669.33 130.71"/>
  <polygon class="cls-1" points="840.83 211.89 859.43 202.86 840.26 210.71 840.83 211.89"/>
  <polygon class="cls-1" points="1018.78 354.74 1065.88 331.88 1017.33 351.76 1018.78 354.74"/>
  <polygon class="cls-1" points="1040.01 363.34 1053.62 413.9 1043.22 362.48 1040.01 363.34"/>
  <polygon class="cls-1" points="1070.99 371.73 1084.59 422.29 1074.2 370.86 1070.99 371.73"/>
  <polygon class="cls-1" points="1060.48 368.94 1107.58 346.08 1059.03 365.96 1060.48 368.94"/>
  <polygon class="cls-1" points="1114.82 407.44 1166.82 401.31 1114.43 404.15 1114.82 407.44"/>
  <polygon class="cls-1" points="1081.56 404.64 1089.8 352.94 1078.28 404.12 1081.56 404.64"/>
  <polygon class="cls-1" points="1098.39 400.08 1106.64 348.37 1095.11 399.55 1098.39 400.08"/>
  <polygon class="cls-1" points="1010.16 413.18 1041.61 455.04 1012.82 411.18 1010.16 413.18"/>
  <polygon class="cls-1" points="967.17 493.37 998.61 535.24 969.82 491.38 967.17 493.37"/>
  <polygon class="cls-1" points="775.31 497.21 790.2 547.41 778.5 496.26 775.31 497.21"/>
  <polygon class="cls-1" points="796.43 497.21 811.32 547.41 799.62 496.26 796.43 497.21"/>
  <polygon class="cls-1" points="1041.41 413.18 1072.86 455.04 1044.07 411.18 1041.41 413.18"/>
  <polygon class="cls-1" points="885.09 537.05 916.53 578.92 887.74 535.06 885.09 537.05"/>
  <polygon class="cls-1" points="941.07 518.1 992.32 528.83 941.75 514.85 941.07 518.1"/>
  <polygon class="cls-1" points="926.73 533.36 977.98 544.09 927.41 530.11 926.73 533.36"/>
  <polygon class="cls-1" points="839.17 239.87 870.61 281.74 841.82 237.88 839.17 239.87"/>
  <polygon class="cls-1" points="792.54 356.07 823.99 397.94 795.2 354.07 792.54 356.07"/>
  <polygon class="cls-1" points="927.13 165.51 958.57 207.38 929.78 163.51 927.13 165.51"/>
  <polygon class="cls-1" points="901.43 164.95 932.87 206.82 904.08 162.96 901.43 164.95"/>
  <polygon class="cls-1" points="989.69 156.32 1021.13 198.19 992.35 154.33 989.69 156.32"/>
  <polygon class="cls-1" points="1018.39 158.55 1064.44 183.48 1019.97 155.63 1018.39 158.55"/>
  <polygon class="cls-1" points="1006.36 154.29 1047.47 121.86 1004.3 151.69 1006.36 154.29"/>
  <polygon class="cls-1" points="939.04 147.53 980.15 115.1 936.99 144.92 939.04 147.53"/>
  <polygon class="cls-1" points="773.02 78.85 814.13 46.42 770.96 76.25 773.02 78.85"/>
  <polygon class="cls-1" points="856.58 105.66 897.68 73.23 854.52 103.06 856.58 105.66"/>
  <polygon class="cls-1" points="804.45 138.73 818.48 189.18 807.65 137.85 804.45 138.73"/>
  <polygon class="cls-1" points="623.8 204.84 637.83 255.28 627 203.95 623.8 204.84"/>
  <polygon class="cls-1" points="644.3 282.39 602.72 250.57 642.28 285.03 644.3 282.39"/>
  <polygon class="cls-1" points="576.74 273.17 535.16 241.35 574.73 275.81 576.74 273.17"/>
  <polygon class="cls-1" points="574.16 171.98 532.58 140.16 572.15 174.61 574.16 171.98"/>
  <polygon class="cls-1" points="605.63 116.53 564.05 84.71 603.61 119.16 605.63 116.53"/>
  <polygon class="cls-1" points="855.46 215.92 874.06 206.89 854.89 214.74 855.46 215.92"/>
  <polygon class="cls-1" points="1127.93 194.12 1146.18 203.82 1128.54 192.96 1127.93 194.12"/>
  <polygon class="cls-1" points="1151.01 291.58 1169.27 301.27 1151.63 290.42 1151.01 291.58"/>
  <polygon class="cls-1" points="1048.96 297 1067.22 306.7 1049.58 295.85 1048.96 297"/>
  <polygon class="cls-1" points="1060.42 292.62 1080.63 303.35 1061.2 291.14 1060.42 292.62"/>
  <polygon class="cls-1" points="1073.2 288.27 1093.41 299 1073.99 286.79 1073.2 288.27"/>
  <polygon class="cls-1" points="984.76 222.07 1005.41 233.05 985.21 221.23 984.76 222.07"/>
  <polygon class="cls-1" points="1057.13 251.19 1077.79 262.16 1057.58 250.34 1057.13 251.19"/>
  <polygon class="cls-1" points="816.96 241.07 824.32 251.46 817.74 240.52 816.96 241.07"/>
  <polygon class="cls-1" points="824.32 242.1 831.67 252.49 825.1 241.55 824.32 242.1"/>
  <polygon class="cls-1" points="913.38 180.62 913.38 193.35 914.34 180.62 913.38 180.62"/>
  <polygon class="cls-1" points="909.93 173.9 922.44 176.26 910.11 172.96 909.93 173.9"/>
  <polygon class="cls-1" points="917.89 186.27 930.4 188.63 918.07 185.33 917.89 186.27"/>
  <polygon class="cls-1" points="940.58 181.24 953.09 183.6 940.76 180.3 940.58 181.24"/>
  <polygon class="cls-1" points="1016.12 145.17 1028.64 147.53 1016.3 144.23 1016.12 145.17"/>
  <polygon class="cls-1" points="959.14 130.61 971.66 132.97 959.32 129.66 959.14 130.61"/>
  <polygon class="cls-1" points="788.29 65.18 800.8 67.54 788.47 64.23 788.29 65.18"/>
  <polygon class="cls-1" points="921.66 96.6 930.6 105.66 922.34 95.93 921.66 96.6"/>
  <polygon class="cls-1" points="952.89 135.68 965.4 138.04 953.07 134.74 952.89 135.68"/>
  <polygon class="cls-1" points="948.35 139.03 945.32 126.67 947.42 139.26 948.35 139.03"/>
  <polygon class="cls-1" points="858.26 72.6 866.75 63.11 857.55 71.96 858.26 72.6"/>
  <polygon class="cls-1" points="868.57 75.97 880.18 70.74 868.18 75.09 868.57 75.97"/>
  <polygon class="cls-1" points="866.23 97.61 862.15 85.55 865.32 97.92 866.23 97.61"/>
  <polygon class="cls-1" points="1011.23 148.76 1008.2 136.39 1010.3 148.99 1011.23 148.76"/>
  <polygon class="cls-1" points="1120.6 152.26 1121.3 139.55 1119.64 152.21 1120.6 152.26"/>
  <polygon class="cls-1" points="1108.48 155.73 1117.08 121.51 1105.63 155.02 1108.48 155.73"/>
  <polygon class="cls-1" points="940.45 279.27 949.05 245.05 937.6 278.56 940.45 279.27"/>
  <polygon class="cls-1" points="772.43 359.34 781.04 325.12 769.59 358.63 772.43 359.34"/>
  <polygon class="cls-1" points="805.38 429.78 813.99 395.56 802.54 429.06 805.38 429.78"/>
  <polygon class="cls-1" points="758.38 463.37 766.99 429.15 755.54 462.65 758.38 463.37"/>
  <polygon class="cls-1" points="818.66 430.99 844.18 406.63 816.64 428.87 818.66 430.99"/>
  <polygon class="cls-1" points="853.3 452.87 864.7 419.48 850.52 451.92 853.3 452.87"/>
  <polygon class="cls-1" points="1029.2 414.21 1040.59 380.82 1026.42 413.27 1029.2 414.21"/>
  <polygon class="cls-1" points="910.75 533.22 919.35 498.99 907.9 532.5 910.75 533.22"/>
  <polygon class="cls-1" points="403.98 490.89 377.78 467.26 402.02 493.07 403.98 490.89"/>
  <polygon class="cls-1" points="356.53 488.49 330.32 464.86 354.56 490.67 356.53 488.49"/>
  <polygon class="cls-1" points="451.28 412.84 425.07 389.21 449.31 415.02 451.28 412.84"/>
  <polygon class="cls-1" points="952.96 506.91 961.56 472.69 950.11 506.2 952.96 506.91"/>
  <polygon class="cls-1" points="945.43 281.88 960.35 313.86 948.09 280.64 945.43 281.88"/>
  <polygon class="cls-1" points="996.02 184.83 1004.02 194.74 996.77 184.23 996.02 184.83"/>
  <polygon class="cls-1" points="967.39 171.61 975.39 181.52 968.14 171.01 967.39 171.61"/>
  <polygon class="cls-1" points="1033.51 186.05 1041.5 195.96 1034.25 185.45 1033.51 186.05"/>
  <polygon class="cls-1" points="907.38 171.45 907.38 184.19 908.34 171.45 907.38 171.45"/>
  <polygon class="cls-1" points="936.03 175.58 936.03 188.32 936.99 175.58 936.03 175.58"/>
  <polygon class="cls-1" points="942.37 186.03 942.37 198.77 943.33 186.03 942.37 186.03"/>
  <polygon class="cls-1" points="877.2 271.17 884.55 281.56 877.98 270.62 877.2 271.17"/>
  <polygon class="cls-1" points="773.22 256.17 775.31 268.73 774.17 256.01 773.22 256.17"/>
  <polygon class="cls-1" points="587.06 125.62 568.81 115.9 586.44 126.78 587.06 125.62"/>
  <polygon class="cls-1" points="555.12 185.18 551.62 173.7 554.4 185.4 555.12 185.18"/>
  <polygon class="cls-1" points="634.11 65.88 646.41 49.27 633.05 65.1 634.11 65.88"/>
  <polygon class="cls-1" points="625.99 87.61 606.61 94.83 626.44 88.84 625.99 87.61"/>
  <polygon class="cls-1" points="539.17 140.79 523.82 154.64 540.05 141.76 539.17 140.79"/>
  <polygon class="cls-1" points="566.84 134.17 563.93 154.64 568.14 134.36 566.84 134.17"/>
  <polygon class="cls-1" points="457.11 119.7 436.75 116.1 456.88 120.99 457.11 119.7"/>
  <polygon class="cls-1" points="457.11 111.96 436.75 108.36 456.88 113.25 457.11 111.96"/>
  <polygon class="cls-1" points="456.68 103.51 440.85 90.22 455.84 104.52 456.68 103.51"/>
  <polygon class="cls-1" points="463.56 77.99 474.74 60.6 462.46 77.28 463.56 77.99"/>
  <polygon class="cls-1" points="476.51 55.42 460.68 42.12 475.67 56.42 476.51 55.42"/>
  <polygon class="cls-1" points="578.5 131.31 575.59 151.78 579.8 131.5 578.5 131.31"/>
  <polygon class="cls-1" points="427.55 65.91 424.64 86.38 428.84 66.09 427.55 65.91"/>
  <polygon class="cls-1" points="383.74 68.19 380.83 88.66 385.04 68.38 383.74 68.19"/>
  <polygon class="cls-1" points="443.68 65.91 440.77 86.38 444.98 66.09 443.68 65.91"/>
  <polygon class="cls-1" points="630.36 94.99 610.98 102.2 630.81 96.22 630.36 94.99"/>
  <polygon class="cls-1" points="476.15 114.82 456.77 122.03 476.6 116.04 476.15 114.82"/>
  <polygon class="cls-1" points="636.47 167.68 616.83 161.23 636.06 168.92 636.47 167.68"/>
  <polygon class="cls-1" points="649.56 163.83 629.91 157.38 649.15 165.08 649.56 163.83"/>
  <polygon class="cls-1" points="668.04 154.38 648.39 147.94 667.63 155.63 668.04 154.38"/>
  <polygon class="cls-1" points="484.98 59.62 465.6 66.83 485.44 60.85 484.98 59.62"/>
  <polygon class="cls-1" points="468.14 53.97 448.76 61.19 468.6 55.2 468.14 53.97"/>
  <polygon class="cls-1" points="433.75 51.57 415.52 41.81 433.13 52.72 433.75 51.57"/>
  <polygon class="cls-1" points="445.86 50.04 427.64 40.29 445.25 51.2 445.86 50.04"/>
  <polygon class="cls-1" points="494.9 62.08 475.52 69.29 495.35 63.31 494.9 62.08"/>
  <polygon class="cls-1" points="484.91 209.56 456.31 217.8 485.44 211.37 484.91 209.56"/>
  <polygon class="cls-1" points="333.1 303.26 313.21 303.98 333.15 304.52 333.1 303.26"/>
  <polygon class="cls-1" points="333.1 303.89 313.21 304.61 333.15 305.15 333.1 303.89"/>
  <polygon class="cls-1" points="327.58 309.41 307.7 310.14 327.63 310.67 327.58 309.41"/>
  <polygon class="cls-1" points="262.64 320.11 249.51 335.07 263.58 320.95 262.64 320.11"/>
  <polygon class="cls-1" points="272.66 320.77 261.04 336.93 273.68 321.51 272.66 320.77"/>
  <polygon class="cls-1" points="283.76 321.32 279.12 340.67 284.99 321.62 283.76 321.32"/>
  <polygon class="cls-1" points="301.26 321.32 296.62 340.67 302.49 321.62 301.26 321.32"/>
  <polygon class="cls-1" points="293.57 321.65 280.58 306.58 292.61 322.48 293.57 321.65"/>
  <polygon class="cls-1" points="279.12 321.65 266.13 306.58 278.16 322.48 279.12 321.65"/>
  <polygon class="cls-1" points="350.39 297.82 337.4 282.75 349.43 298.64 350.39 297.82"/>
  <polygon class="cls-1" points="682.27 216.6 617.83 237.48 651.7 218.21 680.16 207.38 682.27 216.6"/>
  <polygon class="cls-1" points="682.27 157.44 617.83 178.33 651.7 159.05 680.16 148.22 682.27 157.44"/>
  <polygon class="cls-1" points="700.02 302.12 635.59 323 669.45 303.72 697.92 292.89 700.02 302.12"/>
  <polygon class="cls-1" points="714.49 393.46 650.05 414.35 683.92 395.07 712.38 384.24 714.49 393.46"/>
  <polygon class="cls-1" points="719.3 447.04 654.86 467.92 688.72 448.65 717.19 437.82 719.3 447.04"/>
  <polygon class="cls-1" points="697.15 518.79 632.71 539.68 666.58 520.4 695.05 509.57 697.15 518.79"/>
  <polygon class="cls-1" points="468.48 484.98 453.84 508.94 439.38 546.14 448.64 508.29 460.33 480.17 468.48 484.98"/>
  <polygon class="cls-1" points="491.12 480.21 476.48 504.17 462.01 541.37 471.28 503.52 482.97 475.4 491.12 480.21"/>
  <polygon class="cls-1" points="655.08 433.78 640.44 457.75 625.98 494.94 635.24 457.1 646.93 428.97 655.08 433.78"/>
  <polygon class="cls-1" points="629.24 382.19 601.15 381.75 561.76 388.19 599.07 376.94 629.24 372.72 629.24 382.19"/>
  <polygon class="cls-1" points="696.16 130.56 760.6 151.44 726.74 132.17 698.27 121.34 696.16 130.56"/>
  <polygon class="cls-1" points="723.32 377.89 787.76 398.77 753.89 379.5 725.43 368.67 723.32 377.89"/>
  <circle class="cls-2" cx="1222.96" cy="138.08" r="49.55"/>
  <circle class="cls-2" cx="1229.34" cy="335.85" r="49.55"/>
  <circle class="cls-2" cx="191.38" cy="181.21" r="49.55"/>
  <circle class="cls-2" cx="917.15" cy="440.95" r="49.55"/>
  <circle class="cls-2" cx="199.65" cy="430" r="49.55"/>
  <circle class="cls-2" cx="405.6" cy="303.89" r="49.55"/>
</svg>