<?xml version="1.0" encoding="UTF-8"?>
<svg id="_Слой_1" data-name="Слой 1" xmlns="http://www.w3.org/2000/svg" viewBox="0 0 140 140">
  <defs>
    <style>
      .cls-1, .cls-2 {
        fill: none;
        stroke: #fff;
        stroke-miterlimit: 10;
        stroke-width: 2.83px;
      }

      .cls-2 {
        stroke-linecap: round;
      }
    </style>
  </defs>
  <g>
    <g>
      <path class="cls-2" d="m118.85,79.96c-7.21-7.21-14.68-13.15-23.13-17.4,2.48,11.03-2.55,22.81-13,28.41-11.31,6.07-25.4,1.81-31.47-9.5-4.61-8.6-2.6-18.97,4.26-25.28-2.24.52-4.38,1.27-6.34,2.34-7.73,4.21-12.03,7.44-17.63,13.14-5.1,5.18-10.73,10.29-17.76,12.64,0,0,0,.62,0,.62,11.8,6.44,44.97,17.67,70.95,13.3,22.5-3.79,38.5-13.88,38.5-13.88,0,0-4.39-4.39-4.39-4.39Z"/>
      <path class="cls-1" d="m51.25,81.47c6.07,11.31,20.16,15.57,31.47,9.5,10.45-5.61,15.48-17.38,13-28.41-3.93-1.97-8.06-3.58-12.48-4.78.77.94,1.46,1.96,2.05,3.07,4.42,8.25,1.32,18.52-6.93,22.94-7.42,3.98-16.67,1.19-20.65-6.23-3.58-6.68-1.07-15,5.61-18.58,6.01-3.22,13.5-.96,16.72,5.05,2.9,5.41.87,12.15-4.54,15.05-4.87,2.61-10.93.78-13.55-4.09,2.61,4.87,8.68,6.7,13.55,4.09,5.41-2.9,7.45-9.64,4.54-15.05-3.22-6.01-10.71-8.27-16.72-5.05-6.68,3.58-9.19,11.9-5.61,18.58,3.98,7.42,13.22,10.21,20.65,6.23,8.25-4.42,11.35-14.69,6.93-22.94-.59-1.11-1.28-2.13-2.05-3.07-2.67-.72-5.44-1.3-8.32-1.71-6.1-.88-13.14-1.32-19.4.13-6.86,6.31-8.87,16.68-4.26,25.28Z"/>
    </g>
    <path class="cls-1" d="m15.85,76.72c1.69-.8,3.02-2.77,4.2-4.14,2.29-2.68,4.51-5.42,6.85-8.06,5.98-6.77,12.31-14.49,20.31-18.83,12.83-6.97,29.77-5.72,43.23-1.11,9.89,3.39,17.4,10.89,24.69,18.17,3.94,3.94,7.71,8.08,11.1,12.51"/>
  </g>
  <line class="cls-1" x1="70" y1="8.34" x2="70" y2="30.28"/>
  <line class="cls-1" x1="70" y1="108.83" x2="70" y2="130.76"/>
</svg>