<?xml version="1.0" encoding="utf-8"?>
<!-- Generator: Adobe Illustrator 27.4.1, SVG Export Plug-In . SVG Version: 6.00 Build 0)  -->
<svg version="1.1" id="_Слой_1" xmlns="http://www.w3.org/2000/svg" xmlns:xlink="http://www.w3.org/1999/xlink" x="0px"
	 y="0px" viewBox="0 0 140 140" style="enable-background:new 0 0 140 140;" xml:space="preserve">
<style type="text/css">
	.st0{fill:#FFFFFF;}
</style>
<path class="st0" d="M64.4,53.1c1,0,2.1,0.1,3.1,0c0.9-0.1,3.4-0.4,3.4,0.5c0,0-0.4,0.9-0.4,0.9c0.4,2.3-1.8,3.9-4.5,4.5
	c-0.8,0.2-1.4,1-2,1.7c-0.5,0.6-2.9,1-3.4,0.4c-0.1-0.1,0.1-0.6,0.3-0.8c1.5-1.1,3-2.1,4.4-3.2c0.2-0.1,0.3-0.7,0.2-0.8
	c-0.3-0.3-0.7-0.7-1.1-0.7c-1.1,0-2.2,0.1-3.3,0.2c-0.6,0.1-1.3,0.2-1.2-0.7c0.1-0.8-0.5-2,1-2C62.1,53.1,63.3,53.1,64.4,53.1
	C64.4,53.1,64.4,53.1,64.4,53.1z"/>
<path class="st0" d="M78.7,56.8c-0.1,1-0.2,2-0.4,2.9c0,0.2-0.2,0.3-0.3,0.5c-0.1-0.2-0.3-0.3-0.3-0.5c-0.2-0.9-0.8-1.3-1.6-1.4
	c-1.3-0.3-2.5-0.7-3.8-0.9c-0.4-0.1-0.9,0-1.3,0.1c-1,0.5-1.2,0.2-1.2-0.8c0-0.6,0-1.2,0-1.9c0-1.7,1.3-2.3,2.8-1.4
	c1.6,1,3.4,0.6,5.1,0.8c0.3,0,0.8,0.4,0.9,0.7c0.1,0.6,0,1.2,0,1.8C78.6,56.8,78.7,56.8,78.7,56.8z"/>
<path class="st0" d="M57.8,56c-0.1,0.4-0.3,1.3-0.5,2.2c0,0.2-0.3,0.4-0.3,0.4c-1.4-0.4-1.5,0.9-1.5,1.5c-0.1,1.1-0.7,1.2-1.4,1.2
	c-0.5,0-1.1-0.1-1.6-0.2c-0.2,0-0.4-0.2-0.6-0.4c0.2-0.1,0.3-0.3,0.5-0.4c0.2-0.2,0.3-0.3,0.5-0.5c-0.2-0.2-0.4-0.4-0.6-0.5
	c-0.9-0.4-1.7-0.5-2.3,0.6c-0.1,0.1-0.3,0.2-0.4,0.3c-0.1-0.1-0.2-0.3-0.2-0.4c-0.5-1.2,0.1-2.2,1.3-2.7c1.8-0.7,3.6-1.4,5.4-2.2
	c0.5-0.2,0.5-0.3,0-0.6c-0.1,0-0.2-0.1-0.2-0.1c0.1,0,0.1-0.1,0.2-0.1C57.2,53.7,57.8,54.2,57.8,56z"/>
<path class="st0" d="M96.8,67.9c0-1.1,0.1-2.1,0-3.2c-0.1-0.9,0.3-1.2,1.1-1.1c0,0,0.1,0,0.1,0c2.2,0,2.1,0,1.9,2.1
	c-0.2,1.8-0.2,3.6-0.3,5.4c0,1.5-1.1,1.2-2,1.2c-1.1,0-0.9-0.7-0.9-1.4C96.8,69.9,96.8,68.9,96.8,67.9
	C96.8,67.9,96.8,67.9,96.8,67.9z"/>
<path class="st0" d="M75.4,93.8c-1.3,0-2.4,0-3.6,0c-1.7-0.1-0.8-1.4-1-2.1c-0.2-0.9,0.5-0.9,1.1-0.9c2,0,3.9-0.1,5.9-0.2
	c0.2,0,0.6,0.1,0.7-0.1c1.3-0.9,1,0.2,1,0.8c0.2,1.9-0.2,2.3-2.1,2.4C76.7,93.7,75.9,93.8,75.4,93.8z"/>
<path class="st0" d="M89,58.3c0,2.5-3.7,1.3-5.4,1.2c-0.3,0-0.7-0.4-0.8-0.6c-0.4-2.3-2.3-2.7-4-2.6c-1.5,0.1-1.3-0.8-1.4-1.5
	c-0.1-1,0.3-1.2,1.3-0.9c1.8,0.5,3.7,1.1,5.6,1.5C86,55.6,89,56.6,89,58.3z"/>
<path class="st0" d="M50.3,67c0.4-1.9,0.7-3.8,1.2-5.6c0.1-0.3,0.9-0.6,1.3-0.6c0.5,0,1.1,0.2,1.6,0.4c0,0,0,0.3-0.1,0.4
	c-1.1,2.1-1.2,4.5-1.2,6.8c0,0.8-0.1,1.2-1,1.1c-0.7-0.1-1.7,0.4-1.6-1c0-0.5,0-1,0-1.5C50.5,67.1,50.4,67.1,50.3,67z"/>
<path class="st0" d="M68.9,91.5c-0.1,1.2-0.6,1.6-1.5,1.2c-1.8-0.8-3.6-1.7-5.4-2.6c-0.2-0.1-0.4-0.3-0.6-0.4
	c-0.4-0.2-1.1-0.4-1.2-0.7c-0.1-0.9,0-1.8,0-2.8c0,0,0.5-0.1,0.5-0.1c0.8,1.9,2.8,2.2,4.3,3c0.8,0.4,1.9,0.4,2.7,0.9
	C68.3,90.2,68.5,90.9,68.9,91.5z"/>
<path class="st0" d="M100,68.7c-1,0.2-1.6,0.2-1.9-0.7c-0.7-2.1-1.4-4.2-2.1-6.3c-0.3-0.8-0.1-1.2,0.7-1.3c0.8-0.2,1.6-0.5,2,0.6
	c0.7,2.2,1.5,4.4,2.1,6.6C100.8,67.8,100.3,68.3,100,68.7z"/>
<path class="st0" d="M101.5,47.9c-0.2,0.5-0.3,1-0.5,1.1c-0.2,0.1-0.7-0.1-0.9-0.3c-1.8-1.7-4-2.5-6.3-3.3c-0.9-0.3-1.7-1.9-1.1-2.6
	c0.1-0.2,0.6-0.2,0.9-0.1c2.3,1.1,4.7,2.1,7,3.4C101.1,46.4,101.2,47.3,101.5,47.9z"/>
<path class="st0" d="M51.1,74.2c1.8,0.2,1.9,0.5,2.3,1.9c0.5,2,1.1,4,2.8,5.5c0.3,0.2,0.3,0.7,0.4,1.1c-0.4,0.1-0.7,0.4-1.1,0.4
	c-0.4,0-0.8-0.1-1.2-0.2c-0.4-0.2-1.3,0-0.7-1c0.1-0.2-0.3-0.7-0.5-1.1C52,79,51,77.1,50,75.2C50,75.1,50.7,74.5,51.1,74.2z"/>
<path class="st0" d="M82.3,68.4c-0.1-1.5-0.3-3-0.4-4.5c0-0.4,0.1-0.9,0.1-1.3c0.6,0.3,1.7,0.4,1.9,0.8c0.8,2.3,1.2,4.7,0.9,7.2
	c-0.1,1.2-1.2,0.7-1.9,0.7c-0.2,0-0.6-0.6-0.7-1c-0.1-0.6,0-1.2,0-1.8C82.2,68.4,82.3,68.4,82.3,68.4z"/>
<path class="st0" d="M83.1,98.6c-2.4,0.1-4.6,0.6-4.1-0.9c0.1-0.3,2.4-1.6,2.7-1.7c2.3-0.2,4.6-0.4,6.9-0.5c0.3,0,0.8,0.4,0.8,0.6
	c0,0.5-0.2,1.3-0.5,1.3C86.8,98,84.6,98.4,83.1,98.6z"/>
<path class="st0" d="M87.5,87.1c-0.3,1.3-0.2,2.2-1.7,2.6c-1.4,0.4-2.7,1.6-4,2.4c-0.8,0.5-1.6,1-2.4,1.4c-0.1,0.1-0.5-0.1-0.5-0.2
	c0-0.9,0-1.9,0.1-2.8c0-0.1,0.6-0.2,0.6-0.2c0.4,0.8,0.9,0.3,1.3,0c1.2-0.9,2.4-1.8,3.6-2.7c0.6-0.4,1.4-0.7,2.1-0.9
	C86.9,86.7,87.3,87,87.5,87.1z"/>
<path class="st0" d="M70.1,83.2c-0.7,0.2-1.4,0.4-2.2,0.5c-0.5,0-1.3,0.5-1.3-0.6c0-0.1-0.4-0.2-0.6-0.3c-0.7-0.4-1.4-0.7-2.2-1
	c-0.3-0.1-0.7-0.1-1-0.2c-0.2,0-0.4-0.1-0.5-0.2c-0.6-0.9-1.2-1.8-1.6-2.7c-0.1-0.3,0-0.7,0-1c0.4,0.1,1.1,0,1.3,0.3
	c1.4,2,3.4,3.1,5.6,3.9c0.8,0.3,1.7,0.2,2.5,0.3c0.4,0,0.8,0.1,1.2,0.1c-0.3,0.3-0.5,0.6-0.8,0.9C70.4,83.1,70.2,83.1,70.1,83.2
	C70.1,83.2,70.1,83.2,70.1,83.2z"/>
<path class="st0" d="M66.2,95.8c1.6,0.1,3.1,0.2,4.7,0.3c0.9,0.1,1.6,1.4,1.1,2.2c-0.1,0.2-0.5,0.2-0.8,0.2c-2-0.1-4.1-0.2-6.1-0.3
	c-0.5,0-1.2,0-1.3-0.3c-0.3-0.5-0.3-1.2-0.3-1.9c0-0.1,0.5-0.3,0.8-0.3C64.9,95.7,65.5,95.7,66.2,95.8
	C66.2,95.7,66.2,95.7,66.2,95.8z"/>
<path class="st0" d="M90.3,67.3c0,1.1,0,2.1,0,3.2c0,0.9-1.3,3.2-1.8,3.2c-0.6,0-0.3-2.5-0.3-3.3c-0.2-2.4-0.4-4.8-0.6-7.2
	c0-0.2,0.1-0.5,0.2-0.6c0.8-0.6,2.4,0.1,2.5,1.1C90.3,64.9,90.2,66.1,90.3,67.3C90.2,67.3,90.2,67.3,90.3,67.3z"/>
<path class="st0" d="M116.7,74.1c-0.1,0.1-0.2,0.4-0.4,0.7c-0.3-0.2-0.7-0.4-1-0.7c-0.2-0.2-0.3-0.6-0.5-0.8c-2-1.3-4.1-2.5-6.1-3.9
	c-0.5-0.4-0.5-1.6-0.8-2.4c0.5,0,1.1-0.1,1.4,0.2c1.5,1.1,2.8,2.2,4.3,3.3c0.5,0.3,0.9,0.8,1.5,0.9
	C116.6,71.7,116.6,72.8,116.7,74.1z"/>
<path class="st0" d="M98.2,71.4c1.5,0,1.5,0,0.9,1.4c-0.9,2.2-1.8,4.4-2.7,6.6c-0.2,0.6-2.1,1.2-2.6,0.8c-0.1-0.1-0.3-0.5-0.2-0.6
	c0.5-0.6-0.1-1.9,1.3-1.9c0.2,0,0.4-0.4,0.5-0.7c0.5-1.1,1-2.2,1.5-3.4c0.1-0.3,0.3-0.6,0.2-0.8C96.6,71.5,97.3,71.4,98.2,71.4z"/>
<path class="st0" d="M23.9,87.3c0.2-1.5,0.4-1.5,1.6-1c1.9,0.8,3.9,1.4,5.8,2c1.3,0.4,1.9,1.8,1.2,3c-0.1,0.1-0.5,0.1-0.6,0
	c-0.4-0.3-0.8-0.8-1.3-0.9c-1.9-0.6-3.9-1-5.8-1.7C24.4,88.5,24.2,87.7,23.9,87.3z"/>
<path class="st0" d="M80.7,82.4c0.2-0.9,0.2-1.6,1.3-1.9c0.8-0.2,1.6-0.9,2.1-1.6c0.9-1.1,1.5-2.4,2.2-3.6c0.2-0.3,0.6-0.6,0.9-0.6
	c0.6-0.1,2-2.4,2.6-2.3c-0.1,0.3-0.9,3-1.1,3.3c-0.4,0.6-0.9,1.1-1.3,1.7c-1,1.2-2,2.4-3,3.6c-0.5,0.6-1.1,1.2-1.8,1.7
	c-0.4,0.3-1,0.4-1.6,0.5C81,83,80.8,82.5,80.7,82.4z"/>
<path class="st0" d="M103.5,92.7c0-1.5,0.3-1.7,1.8-1.9c0.9-0.1,1.7-0.6,2.5-0.9c1.3-0.5,2.5-1,3.8-1.6c0.1,0,0.4,0.1,0.4,0.2
	c0.5,0.9,0.1,1.9-0.9,2.3c-2.1,0.9-4.2,1.8-6.3,2.7C103.9,93.9,103.5,93.7,103.5,92.7z"/>
<path class="st0" d="M72.5,79.8c-0.3,0-0.7,0-1,0c-1.7-0.1-1.9-0.5-1.5-2.2c0.2-0.6,0.3-0.6,0.8-0.3c0.5,0.3,1.2,0.6,1.8,0.5
	c1.3,0,2.6-0.1,3.8-0.4c0.5-0.1,0.8-0.7,1.2-1.1c0.2-0.2,0.2-0.4,0.3-0.6c0.1,0.2,0.3,0.4,0.4,0.6c0.5,1.3,0.1,2.2-1.3,2.5
	c-1.5,0.3-3,0.7-4.5,1C72.5,80,72.5,79.9,72.5,79.8z"/>
<path class="st0" d="M48,46.3c0-1.4,0.3-2,1.5-2.3c1-0.3,1.8-1.2,2.8-1.5c1.3-0.4,2.7-0.5,4.1-0.7c0.1,0,0.3,0.5,0.3,0.6
	c-0.2,0.4-0.1,1-1,1.1c-2.5,0.2-4.6,1.4-6.6,2.9c-0.3,0.2-0.5,0.5-0.8,0.7C48.2,46.8,48.1,46.4,48,46.3z"/>
<path class="st0" d="M44.4,94.1c-1.9-0.2-3.8-0.3-5.7-0.5c-1.1-0.1-1.8-1.2-1.6-2.3c0.1-0.6,0.4-0.8,1.1-0.5
	c1.8,0.7,3.7,1.3,5.6,1.9c0.3,0.1,0.6,0.1,0.8,0.2c0.4,0.2,0.8,0.3,1.3,0.5c-0.4,0.2-0.8,0.5-1.2,0.7C44.6,94.1,44.5,94.1,44.4,94.1
	z"/>
<path class="st0" d="M120.7,85.4c0.3,0.1,1.2,0.2,1.2,0.4c0.1,1-0.9,0.5-1.3,0.8c-2.1,1.1-4.1,2.2-6.2,3.3c-0.5,0.3-0.7,0.3-0.8-0.3
	c-0.4-1.2,0.1-2,1.3-2.4c0.6-0.2,1.2-0.7,1.8-1.1c0.2-0.1,0.5-0.3,0.8-0.3C118.4,85.7,119.4,85.6,120.7,85.4z"/>
<path class="st0" d="M122.1,79.6c0,0.5,0,0.8-0.1,1c-0.1,0.7-0.3,1.4-0.4,2.1c-0.1-0.6-0.1-1.3-0.4-1.8c-0.8-1.1-1.7-2.3-2.7-3.2
	c-1.1-1-1.9-2.5-3.6-2.5c-0.1,0-0.2-0.1-0.2-0.2c0.1-0.1,0.1-1.7,0.2-1.7c1.3,0,2.7,1.4,3.9,1.7c0.6,0.2,0.8,1.2,1.4,1.8
	c0.3,0.3,0.5,1.3,1.3,0.5c0.1,0.1,0.3,0.3,0.3,0.4C121.8,78.5,122,79.2,122.1,79.6z"/>
<path class="st0" d="M76.3,98.5c-1.6,0.1-3.2,0.2-4.9,0.3c-0.2,0-0.6-0.5-0.6-0.8c0-0.4,0.2-0.9,0.5-1.1c0.2-0.2,0.7-0.1,1.1-0.1
	c2.1,0,4.2,0,6.3-0.1c0.6,0,1,0,0.9,0.7c0,0.6,0,1.2-0.9,1.1C77.9,98.5,77.1,98.5,76.3,98.5C76.3,98.5,76.3,98.5,76.3,98.5z"/>
<path class="st0" d="M106.9,51.9c0.9,0.1,2-0.1,2.7,1.4c0.2,0.5,0.7,1.7,1.9,1.2c0.1,0,0.3,0.2,0.3,0.3c0.1,1.2,0.1,2.3,0.1,3.5
	c0,0.1-0.2,0.2-0.3,0.4c-0.1-0.1-0.1-0.3-0.2-0.4c-0.4-0.7-0.8-1.6-1.4-2.1c-1.4-1.2-2.4-3-4.4-3.5c-0.4-0.1-0.9-0.3-1.3-0.4
	c0.5-0.1,1-0.3,1.5-0.4C106.1,51.8,106.4,51.9,106.9,51.9z"/>
<path class="st0" d="M19.4,82.2c-0.7,0-1.3,0-2-0.1c-0.3,0-0.5-0.3-0.8-0.4c0.3-0.1,0.5-0.4,0.8-0.4c1.9,0,3.6-0.9,5.1-1.9
	c0.6-0.4,1.1-1.2,1.6-1.8c0.1-0.1,0.3-0.2,0.4-0.3c0.1,0.1,0.2,0.3,0.2,0.4c0,0.8,0,1.6,0,2.3c0,0.1-0.1,0.4-0.2,0.4
	C22.8,80.9,21.5,82.8,19.4,82.2z"/>
<path class="st0" d="M39.8,64.7c0.1-0.9-0.3-2.2,1.3-2.2c0.1,0,0.3-0.3,0.4-0.4c0.4-0.4,0.7-1,1.1-1.1c1.1-0.2,2.3-0.2,3.4-0.2
	c0.1,0,0.2,0.1,0.3,0.2c-0.1,0.1-0.3,0.3-0.4,0.4c-1.3,0.8-2.6,1.5-3.8,2.4c-0.7,0.5-1.1,1.4-1.6,2.2c-0.1,0.2-0.2,0.3-0.3,0.5
	c-0.1-0.2-0.2-0.3-0.3-0.5C39.9,65.5,39.9,65.1,39.8,64.7z"/>
<path class="st0" d="M34.9,58.6c0,0.3,0,0.3,0,0.3c-0.2,2.1-3.7,5.1-6.5,4.7c-0.2,0,5.9-6.2,6-6.3c0.1,0.1,0.2,0.2,0.3,0.4
	C34.8,58,34.8,58.4,34.9,58.6z"/>
<path class="st0" d="M97.3,61.5c-1.2-0.2-2.5-0.3-3.8-0.5c-0.3-0.1-0.7-0.6-0.7-0.9c-0.1-0.5,0-1.1,0-1.7c0.2,0,0.5,0,0.7,0.1
	c1.7,0.7,3.4,1.5,5.1,2.3c0.2,0.1,0.4,0.3,0.7,0.4c-0.3,0.1-0.5,0.2-0.8,0.3C98.2,61.4,97.8,61.4,97.3,61.5z"/>
<path class="st0" d="M31.4,73.6c0.1,0,0.6,0.1,1.1,0.2c-0.4,0.3-0.7,0.6-1.1,0.9c-1.3,0.9-2.9,1.7-3.3,3.5c0,0.1-0.2,0.2-0.3,0.4
	c-0.1-0.1-0.3-0.3-0.3-0.4c0-0.9-0.1-1.8,0.1-2.7C27.9,74.1,28.8,73.6,31.4,73.6z"/>
<path class="st0" d="M122.1,67c0,0.1,0,0.5-0.1,0.8c-0.1,0.3-0.3,0.6-0.4,0.9c-0.1-0.3-0.1-0.7-0.3-0.9c-1-1.2-2.1-2.4-3.2-3.5
	c-0.1-0.1-0.3-0.2-0.5-0.3c0.2-0.1,0.4-0.3,0.6-0.3C120.4,63,122,64.2,122.1,67z"/>
<path class="st0" d="M27.4,65.8c0-0.1,0-0.2,0-0.4c0.2-2.5,1.5-3.4,4-2.7c0.2,0,0.3,0.2,0.4,0.3c-0.1,0.1-0.3,0.2-0.4,0.4
	c-0.9,1.3-1.8,2.6-3.4,4.1c-0.1,0.1-0.1,0.3-0.2,0.4c-0.1-0.2-0.3-0.3-0.3-0.5C27.4,67,27.3,66.4,27.4,65.8
	C27.3,65.9,27.3,65.9,27.4,65.8z"/>
<path class="st0" d="M25.1,87.8c-0.1,0.2-0.2,0.5-0.4,0.8c-0.3-0.2-0.6-0.3-0.8-0.5c-1.2-1.4-3-1.2-4.5-1.7c-0.6-0.2-1.3-0.2-2-0.3
	c0.7-0.2,1.5-0.4,2.2-0.4c1.3,0,2.6,0.2,3.9,0.1C25,85.7,25,86.7,25.1,87.8z"/>
<path class="st0" d="M55.3,95.1c-0.2,0.9-0.1,1.4-1.2,1.2c-2.2-0.4-4.4-0.5-6.6-0.7c-0.3,0-0.6-0.2-0.9-0.3c0.3-0.1-2.9-2-2.6-2
	c2.3-0.1,7.9,1.4,10.1,1.4C54.6,94.7,54.9,95,55.3,95.1z"/>
<path class="st0" d="M44.6,48.7c-0.1,0-0.2,0-0.2,0c-0.5-0.1-0.7-0.9-0.3-1.2c1-0.7,1.9-1.5,2.8-2.2c0.2-0.2,0.4-0.3,0.7-0.4
	c0.1,0.2,0.2,0.4,0.3,0.6c0.4,1.7-0.2,2.7-1.9,3C45.5,48.6,45,48.7,44.6,48.7z"/>
<path class="st0" d="M61,42.5c-0.8,0-1.6,0-2.5,0c-0.4,0-0.7,0.1-1.1,0.2c-0.3,0.1-0.6,0.3-0.8,0.5c-0.1-0.4-0.3-0.8-0.3-1.2
	c-0.1-0.6,0.2-0.7,0.8-0.7c2.3,0.1,8-1,10.3-0.9c0.3,0-3.3,1.9-3.6,1.9C62.9,42.4,61.9,42.4,61,42.5C61,42.4,61,42.5,61,42.5z"/>
<path class="st0" d="M67.6,77.3c0,0.3,0,0.7-0.1,1c0,0.1-0.5,0.2-0.6,0.1c-0.7-0.7-1.5-1.4-2.1-2.2c-0.3-0.5-0.3-1.3-0.5-1.9
	c0.5-0.1,0.9-0.2,1.4-0.2c0.1,0,0.3,0,0.3,0.1c0.6,1,1.2,2,1.7,3.1C67.7,77.2,67.6,77.2,67.6,77.3z"/>
<path class="st0" d="M51.2,62.3c0,0.3,0,0.7-0.1,1c0,0.1-0.5,0.2-0.6,0.1c-0.7-0.7-1.5-1.4-2.1-2.2c-0.3-0.5-0.3-1.3-0.5-1.9
	c0.5-0.1,0.9-0.2,1.4-0.2c0.1,0,0.3,0,0.3,0.1c0.6,1,1.2,2,1.7,3.1C51.3,62.2,51.3,62.2,51.2,62.3z"/>
<path class="st0" d="M91.8,42.6c0.7-0.2,1.5-0.4,1.3,0.8c-0.1,0.8-0.2,0.8-1.1,0.6c-1.9-0.5-4-0.5-6-0.7c-0.4,0-0.8-0.1-1.3-0.2
	c0.4-0.1,0.8-0.4,1.3-0.4C87.9,42.6,89.8,42.6,91.8,42.6z"/>
<path class="st0" d="M80.3,39.8c0.7-0.2,1.5-0.4,1.3,0.8c-0.1,0.8-0.2,0.8-1.1,0.6c-1.9-0.5-4-0.5-6-0.7c-0.4,0-0.8-0.1-1.3-0.2
	c0.4-0.1,0.8-0.4,1.3-0.4C76.4,39.7,78.4,39.8,80.3,39.8z"/>
<path class="st0" d="M22,72.2c-0.1,0-0.6-0.1-1-0.2c0.4-0.4,0.7-1,1.2-1.3c1.1-0.5,1.8-1.2,1.8-2.5c0-0.2,0.3-0.5,0.4-0.7
	c0,0,4-1.3,4-1.2c-0.1,1.2-3.7,3.8-3.8,5.1c0,0.3-0.4,0.6-0.7,0.6C23.3,72.2,22.8,72.1,22,72.2z"/>
<path class="st0" d="M96.8,95.2c0.1-0.1,0.4-0.4,0.6-0.4c2.2,0.1,4.4,0.3,6.7,0.5c0.2,0,0.3,0.1,0.5,0.2c-0.2,0-0.4,0.1-0.6,0.1
	c-1.6,0.1-3.3,0.2-4.9,0.3c-0.4,0-0.8,0-1.1,0.2C97.2,96.5,96.9,96.3,96.8,95.2z"/>
<path class="st0" d="M33.1,72.1c-0.1,1.7-1.6,2.7-3.2,2c-0.1,0,0.7-1.7,0.8-1.7c1.2-0.7,1.4-0.4,1.6-1.9c0,0,0.4,0,0.4,0
	C32.9,71,33,71.5,33.1,72.1z"/>
<path class="st0" d="M118.4,64.5c-0.6-0.3-1.6-0.5-1.7-0.8c-0.2-1-2.8-4-2.8-5c0-0.1,3.1,1.7,3.1,1.8c0.1,0.1,0.3,0.3,0.3,0.4
	c0.3,1.1,0.8,2,2,2.5c0.3,0.1,0.5,0.4,0.7,0.6c-0.3,0.1-0.6,0.2-0.9,0.3c-0.2,0-0.4,0-0.6,0C118.5,64.3,118.4,64.4,118.4,64.5z"/>
<path class="st0" d="M38.2,54.2c0.1-2.1,3.3-1.8,3.2-1.8c-1.2,0.6-2.1,1.5-2.6,2.8c0,0.1-0.2,0.2-0.2,0.2c-0.1-0.1-0.3-0.2-0.3-0.3
	C38.3,54.7,38.2,54.3,38.2,54.2z"/>
<path class="st0" d="M33.4,73.2c0.1-2.1,3.3-1.8,3.2-1.8c-1.2,0.6-2.1,1.5-2.6,2.8c0,0.1-0.2,0.2-0.2,0.2c-0.1-0.1-0.3-0.2-0.3-0.3
	C33.5,73.7,33.4,73.3,33.4,73.2z"/>
<path class="st0" d="M25.9,80c0.1-2.1,3.3-1.8,3.2-1.8c-1.2,0.6-2.1,1.5-2.6,2.8c0,0.1-0.2,0.2-0.2,0.2c-0.1-0.1-0.3-0.2-0.3-0.3
	C25.9,80.5,25.9,80.1,25.9,80z"/>
<path class="st0" d="M105.6,52.3c-0.6-0.2-1.3-0.3-1.6-0.8c-0.3-0.4,0-1.2,0-1.7c0.3,0.2,0.6,0.5,1,0.6c0.7,0.3,1.4,0.5,2.1,0.8
	c0.3,0.1,0.7,0.2,1,0.3c-0.3,0.1-0.6,0.3-1,0.4c-0.5,0.1-1,0.1-1.5,0.2C105.7,52.2,105.7,52.3,105.6,52.3z"/>
<path class="st0" d="M101.4,93.9c-0.3,0-0.7-0.1-1-0.1c-0.6,0-1.2-0.1-1.8-0.1c0.6-0.2,1.2-0.5,1.8-0.6c1.2-0.2,2.3-0.4,3.5-0.4
	c0.2,0,0.5,0.5,0.6,0.8c0,0.1-0.4,0.5-0.6,0.5C103.1,94,102.2,93.9,101.4,93.9C101.4,93.9,101.4,93.9,101.4,93.9z"/>
<path class="st0" d="M126.9,73.5c0,0,0-0.1,0-0.1c0.2-0.7,0.3-1.3,0.5-2c0.2,0.6,0.5,1.2,0.6,1.8c0.2,0.6,0.4,1.1,1.2,0.9
	c0.2,0,0.4,0.3,0.6,0.4c-0.2,0.1-0.4,0.3-0.6,0.4c-0.2,0.1-0.4,0-0.6,0.1C127,75.3,126.8,75.1,126.9,73.5z"/>
<path class="st0" d="M59.8,86.2c0,0.1-0.1,0.4-0.2,0.7c-0.2,0.4-0.4,0.9-0.5,1.3c-0.1-0.4,0.1-0.1-0.1-0.4c-0.2-0.3-2.4,1-2-1.1
	c0.1-0.3,0.2-1,0-1.2c0.2-0.1,0.5-0.2,0.7-0.3c0.3-0.1,0.6-0.2,0.9-0.3C59.6,84.8,59.8,85,59.8,86.2z"/>
<path class="st0" d="M91.7,86.2c0,0.1-0.1,0.4-0.2,0.7c-0.2,0.4-0.4,0.9-0.5,1.3c-0.1-0.4,0.1-0.1-0.1-0.4c-0.2-0.3-2.4,1-2-1.1
	c0.1-0.3,0.2-1,0-1.2c0.2-0.1,0.5-0.2,0.7-0.3c0.3-0.1,0.6-0.2,0.9-0.3C91.5,84.8,91.7,85,91.7,86.2z"/>
<path class="st0" d="M95.9,64.7c0,0.1-0.1,0.4-0.2,0.7c-0.2,0.4-0.4,0.9-0.5,1.3c-0.1-0.4,0.1-0.1-0.1-0.4c-0.2-0.3-2.4,1-2-1.1
	c0.1-0.3,0.2-1,0-1.2c0.2-0.1,0.5-0.2,0.7-0.3c0.3-0.1,0.6-0.2,0.9-0.3C95.8,63.3,96,63.5,95.9,64.7z"/>
<path class="st0" d="M36.3,69.2c0,0.1-0.1,0.4-0.2,0.7c-0.2,0.4-0.4,0.9-0.5,1.3c-0.1-0.4,0.1-0.1-0.1-0.4c-0.2-0.3-2.4,1-2-1.1
	c0.1-0.3,0.2-1,0-1.2c0.2-0.1,0.5-0.2,0.7-0.3c0.3-0.1,0.6-0.2,0.9-0.3C36.1,67.8,36.3,68,36.3,69.2z"/>
<path class="st0" d="M20,75.9c-0.1,0.1-0.1,0.2-0.2,0.2C18.9,76.4,18,76.8,17,77c-0.5,0.1-1-0.5-1.5-0.8c0,0,0-0.3,0.1-0.3
	c1.3-0.6,2.7-0.7,4.1-0.2C19.8,75.7,19.9,75.8,20,75.9z"/>
<path class="st0" d="M82.3,82c-0.1,0.1-0.1,0.2-0.2,0.2c-0.9,0.3-1.8,0.8-2.8,0.9c-0.5,0.1-1-0.5-1.5-0.8c0,0,0-0.3,0.1-0.3
	c1.3-0.6,2.7-0.7,4.1-0.2C82.1,81.8,82.2,81.9,82.3,82z"/>
<path class="st0" d="M82.9,84.3c-0.1,0.1-0.1,0.2-0.2,0.2c-0.9,0.3-1.8,0.8-2.8,0.9c-0.5,0.1-1-0.5-1.5-0.8c0,0,0-0.3,0.1-0.3
	c1.3-0.6,2.7-0.7,4.1-0.2C82.7,84.2,82.8,84.2,82.9,84.3z"/>
<path class="st0" d="M130.6,81.2c-0.1,0.1-0.1,0.2-0.2,0.2c-0.9,0.3-1.8,0.8-2.8,0.9c-0.5,0.1-1-0.5-1.5-0.8c0,0,0-0.3,0.1-0.3
	c1.3-0.6,2.7-0.7,4.1-0.2C130.4,81,130.5,81.1,130.6,81.2z"/>
<path class="st0" d="M73.7,63.9c-0.1,0.1-0.1,0.2-0.2,0.2c-0.9,0.3-1.8,0.8-2.8,0.9c-0.5,0.1-1-0.5-1.5-0.8c0,0,0-0.3,0.1-0.3
	c1.3-0.6,2.7-0.7,4.1-0.2C73.5,63.8,73.6,63.9,73.7,63.9z"/>
<path class="st0" d="M73.1,58.9C73,59,73,59.1,72.9,59.1c-0.9,0.3-1.8,0.8-2.8,0.9c-0.5,0.1-1-0.5-1.5-0.8c0,0,0-0.3,0.1-0.3
	c1.3-0.6,2.7-0.7,4.1-0.2C72.9,58.8,73,58.9,73.1,58.9z"/>
<path class="st0" d="M63.8,56.9c-0.1,0.1-0.1,0.2-0.2,0.2c-0.9,0.3-1.8,0.8-2.8,0.9c-0.5,0.1-1-0.5-1.5-0.8c0,0,0-0.3,0.1-0.3
	c1.3-0.6,2.7-0.7,4.1-0.2C63.6,56.8,63.7,56.8,63.8,56.9z"/>
<path class="st0" d="M50.3,62.3c-0.1,0.1-0.1,0.2-0.2,0.2c-0.9,0.3-1.8,0.8-2.8,0.9c-0.5,0.1-1-0.5-1.5-0.8c0,0,0-0.3,0.1-0.3
	c1.3-0.6,2.7-0.7,4.1-0.2C50.1,62.1,50.2,62.2,50.3,62.3z"/>
<path class="st0" d="M42.4,67.1c-0.1,0.1-0.1,0.2-0.2,0.2c-0.9,0.3-1.8,0.8-2.8,0.9c-0.5,0.1-1-0.5-1.5-0.8c0,0,0-0.3,0.1-0.3
	c1.3-0.6,2.7-0.7,4.1-0.2C42.3,66.9,42.3,67,42.4,67.1z"/>
<path class="st0" d="M113.4,75.5c-0.1,0-0.2,0.1-0.3,0c-0.9-0.5-1.8-0.8-2.5-1.4c-0.4-0.3-0.3-1.1-0.5-1.6c0,0,0.2-0.1,0.3-0.1
	c1.3,0.6,2.3,1.5,2.9,2.8C113.4,75.3,113.4,75.4,113.4,75.5z"/>
<path class="st0" d="M109,71.1c-0.1,0-0.2,0.1-0.3,0c-0.9-0.5-1.8-0.8-2.5-1.4c-0.4-0.3-0.3-1.1-0.5-1.6c0,0,0.2-0.1,0.3-0.1
	c1.3,0.6,2.3,1.5,2.9,2.8C108.9,70.9,108.9,71,109,71.1z"/>
<path class="st0" d="M64,61.8C64,61.9,63.9,62,63.9,62c-0.9,0.3-1.8,0.8-2.8,0.9c-0.5,0.1-1-0.5-1.5-0.8c0,0,0-0.3,0.1-0.3
	c1.3-0.6,2.7-0.7,4.1-0.2C63.8,61.7,63.9,61.8,64,61.8z"/>
<path class="st0" d="M75.3,84.6c-1.5,0-3.1-0.7-4.5-0.7c-0.2,0-0.4-0.2-0.7-0.4c0.2-0.1,0.5-0.2,0.7-0.2c2.3-0.1,4.6-0.2,6.9-0.2
	c0.3,0,0.5,0,0.8,0.1c0.1,0,0.1,0.5,0,0.5C78.2,83.9,78,84,77.7,84c-0.9,0-0.2,0.7-1.1,0.6C76.7,84.6,75.3,84.6,75.3,84.6z"/>
<path class="st0" d="M36.9,90.8c-1.4-0.3-2.9-1.2-4.3-1.6c-0.2,0-0.4-0.3-0.6-0.5c0.2,0,0.5-0.1,0.7-0.1c2.3,0.4,4.5,0.7,6.8,1.1
	c0.3,0,0.5,0.1,0.7,0.2c0.1,0,0,0.5-0.1,0.5c-0.2,0.1-0.5,0.1-0.7,0.1c-0.8-0.2-0.3,0.6-1.2,0.4C38.2,91.1,36.9,90.7,36.9,90.8z"/>
<path class="st0" d="M82.2,72.3c0.7,0.2,1.1,0.2,1.5,0.4c0.1,0,0.1,0.4,0.1,0.6c-0.9,0.1-1,0.7-1.1,1.5c0,0.2-0.2,0.3-0.3,0.4
	c-0.1-0.1-0.2-0.3-0.2-0.4c-0.1-0.6-0.3-1.1-0.4-1.7C81.8,72.9,82.1,72.6,82.2,72.3z"/>
<path class="st0" d="M59.9,94.8c0.7,0.2,1.1,0.2,1.5,0.4c0.1,0,0.1,0.4,0.1,0.6c-0.9,0.1-1,0.7-1.1,1.5c0,0.2-0.2,0.3-0.3,0.4
	c-0.1-0.1-0.2-0.3-0.2-0.4c-0.1-0.6-0.3-1.1-0.4-1.7C59.6,95.4,59.8,95.1,59.9,94.8z"/>
<path class="st0" d="M60.6,63.4c0.2,0.3,0.6,0.6,0.6,0.8c-0.1,1.1-0.3,2.2-0.4,3.3c0,0.1-0.1,0.2-0.1,0.3c-0.1-0.1-0.2-0.2-0.2-0.4
	c-0.2-1.1-0.3-2.2-0.4-3.3c0-0.2,0.1-0.5,0.2-0.7C60.3,63.5,60.4,63.5,60.6,63.4z"/>
<path class="st0" d="M124.8,83.2c-0.1-0.3-0.3-0.6-0.4-1c0-0.3,0.1-0.6,0.2-0.8c0.1-0.3,0.3-0.5,0.4-0.8c0,0.3,0,0.6,0.2,0.8
	c0.1,0.3,0.3,0.5,0.5,0.7c0.2,0.2,0.5,0.2,0.8,0.3c-0.3,0.2-0.6,0.4-0.9,0.5C125.5,83.1,125.3,83.1,124.8,83.2z"/>
<path class="st0" d="M46.3,59.1c0.1,0.2,0.3,0.5,0.3,0.7c0,0.1-0.4,0.4-0.5,0.4c-0.5-0.1-1-0.3-1.5-0.5
	C45.1,59.5,45.6,59.3,46.3,59.1z"/>
<path class="st0" d="M68.1,65.9c0.1,0.2,0.3,0.5,0.3,0.7c0,0.1-0.4,0.4-0.5,0.4c-0.5-0.1-1-0.3-1.5-0.5
	C66.9,66.3,67.4,66.1,68.1,65.9z"/>
<path class="st0" d="M82.5,60.8c0.1,0.2,0.3,0.5,0.3,0.7c0,0.1-0.4,0.4-0.5,0.4c-0.5-0.1-1-0.3-1.5-0.5C81.3,61.2,81.8,61,82.5,60.8
	z"/>
<path class="st0" d="M110.9,70.9c0.1,0.2,0.3,0.5,0.3,0.7c0,0.1-0.4,0.4-0.5,0.4c-0.5-0.1-1-0.3-1.5-0.5
	C109.7,71.3,110.2,71.1,110.9,70.9z"/>
<path class="st0" d="M23.6,74.3c0.1,0.2,0.3,0.5,0.3,0.7c0,0.1-0.4,0.4-0.5,0.4c-0.5-0.1-1-0.3-1.5-0.5
	C22.4,74.7,22.9,74.5,23.6,74.3z"/>
<path class="st0" d="M27,77.1c0.1,0.2,0.3,0.5,0.3,0.7c0,0.1-0.4,0.4-0.5,0.4c-0.5-0.1-1-0.3-1.5-0.5C25.7,77.5,26.3,77.4,27,77.1z"
	/>
<path class="st0" d="M60.7,74.3c0.1,0.2,0.3,0.5,0.3,0.7c0,0.1-0.4,0.4-0.5,0.4c-0.5-0.1-1-0.3-1.5-0.5C59.5,74.7,60,74.5,60.7,74.3
	z"/>
<path class="st0" d="M61.8,72.3c0.1,0.2,0.3,0.5,0.3,0.7c0,0.1-0.4,0.4-0.5,0.4c-0.5-0.1-1-0.3-1.5-0.5
	C60.5,72.7,61.1,72.6,61.8,72.3z"/>
<path class="st0" d="M60.3,87.1c0.1,0.2,0.3,0.5,0.3,0.7c0,0.1-0.4,0.4-0.5,0.4c-0.5-0.1-1-0.3-1.5-0.5
	C59.1,87.5,59.6,87.3,60.3,87.1z"/>
<path class="st0" d="M70.4,89.5c0.1,0.2,0.3,0.5,0.3,0.7c0,0.1-0.4,0.4-0.5,0.4c-0.5-0.1-1-0.3-1.5-0.5
	C69.2,89.9,69.7,89.8,70.4,89.5z"/>
<path class="st0" d="M123.7,83.3c0.1,0.2,0.3,0.5,0.3,0.7c0,0.1-0.4,0.4-0.5,0.4c-0.5-0.1-1-0.3-1.5-0.5
	C122.4,83.7,123,83.5,123.7,83.3z"/>
<path class="st0" d="M24.5,81c0.1,0.2,0.3,0.5,0.3,0.7c0,0.1-0.4,0.4-0.5,0.4c-0.5-0.1-1-0.3-1.5-0.5C23.2,81.4,23.8,81.3,24.5,81z"
	/>
<path class="st0" d="M43.8,63.9c0.1,0.2,0.3,0.5,0.3,0.7c0,0.1-0.4,0.4-0.5,0.4c-0.5-0.1-1-0.3-1.5-0.5
	C42.6,64.3,43.1,64.1,43.8,63.9z"/>
<path class="st0" d="M115.2,78.8c0.4,0.6,0.6,1,0.8,1.4c0,0.1-0.5,0.5-0.7,0.4c-0.2-0.1-0.5-0.4-0.5-0.7
	C114.8,79.6,115,79.3,115.2,78.8z"/>
<path class="st0" d="M119.6,79.7c0.4,0.6,0.6,1,0.8,1.4c0,0.1-0.5,0.5-0.7,0.4c-0.2-0.1-0.5-0.4-0.5-0.7
	C119.2,80.6,119.4,80.2,119.6,79.7z"/>
<path class="st0" d="M105.5,64.2c0.4,0.6,0.6,1,0.8,1.4c0,0.1-0.5,0.5-0.7,0.4c-0.2-0.1-0.5-0.4-0.5-0.7
	C105,65.1,105.3,64.8,105.5,64.2z"/>
<path class="st0" d="M91.3,61.2c0.4,0.6,0.6,1,0.8,1.4c0,0.1-0.5,0.5-0.7,0.4c-0.2-0.1-0.5-0.4-0.5-0.7
	C90.9,62.1,91.1,61.7,91.3,61.2z"/>
<path class="st0" d="M58.3,57.4c0.4,0.6,0.6,1,0.8,1.4c0,0.1-0.5,0.5-0.7,0.4c-0.2-0.1-0.5-0.4-0.5-0.7
	C57.9,58.2,58.1,57.9,58.3,57.4z"/>
<path class="st0" d="M60,67.9c0.4,0.6,0.6,1,0.8,1.4c0,0.1-0.5,0.5-0.7,0.4c-0.2-0.1-0.5-0.4-0.5-0.7C59.5,68.7,59.8,68.4,60,67.9z"
	/>
<path class="st0" d="M119.6,82.1c0.4,0.6,0.6,1,0.8,1.4c0,0.1-0.5,0.5-0.7,0.4c-0.2-0.1-0.5-0.4-0.5-0.7
	C119.2,82.9,119.4,82.6,119.6,82.1z"/>
<path class="st0" d="M130.2,78.4c0.4,0.6,0.6,1,0.8,1.4c0,0.1-0.5,0.5-0.7,0.4c-0.2-0.1-0.5-0.4-0.5-0.7
	C129.8,79.2,130,78.9,130.2,78.4z"/>
<path class="st0" d="M101.9,48.9c0.4,0.6,0.6,1,0.8,1.4c0,0.1-0.5,0.5-0.7,0.4c-0.2-0.1-0.5-0.4-0.5-0.7
	C101.5,49.7,101.7,49.4,101.9,48.9z"/>
<path class="st0" d="M56,96.2c0.4,0.6,0.6,1,0.8,1.4c0,0.1-0.5,0.5-0.7,0.4c-0.2-0.1-0.5-0.4-0.5-0.7C55.6,97,55.8,96.7,56,96.2z"/>
<path class="st0" d="M65.2,68.8c0.4,0.6,0.6,1,0.8,1.4c0,0.1-0.5,0.5-0.7,0.4c-0.2-0.1-0.5-0.4-0.5-0.7C64.7,69.6,65,69.3,65.2,68.8
	z"/>
<path class="st0" d="M58.7,67.4c0.4,0.6,0.6,1,0.8,1.4c0,0.1-0.5,0.5-0.7,0.4c-0.2-0.1-0.5-0.4-0.5-0.7
	C58.3,68.2,58.6,67.9,58.7,67.4z"/>
<path class="st0" d="M59.4,70.4c0.4,0.6,0.6,1,0.8,1.4c0,0.1-0.5,0.5-0.7,0.4c-0.2-0.1-0.5-0.4-0.5-0.7C58.9,71.3,59.2,71,59.4,70.4
	z"/>
</svg>
