<?xml version="1.0" encoding="utf-8"?>
<!-- Generator: Adobe Illustrator 27.4.1, SVG Export Plug-In . SVG Version: 6.00 Build 0)  -->
<svg version="1.1" id="_Слой_1" xmlns="http://www.w3.org/2000/svg" xmlns:xlink="http://www.w3.org/1999/xlink" x="0px"
	 y="0px" viewBox="0 0 140 140" style="enable-background:new 0 0 140 140;" xml:space="preserve">
<style type="text/css">
	.st0{stroke:#000000;stroke-miterlimit:10;}
</style>
<path class="st0" d="M51.2,58.1c-0.1,1.8-0.4,2-1.8,2.4c-2,0.6-3.9,1.4-5.3,3.1c-0.2,0.3-0.7,0.3-1,0.5c-0.2-0.4-0.4-0.7-0.4-1.1
	c-0.1-0.4,0-0.8,0.2-1.2c0.1-0.4-0.1-1.3,0.9-0.7c0.2,0.1,0.7-0.4,1-0.6c1.8-1.2,3.7-2.3,5.5-3.4C50.3,57,50.8,57.7,51.2,58.1z"/>
<path class="st0" d="M71.3,48.6c-0.1,1.8-0.4,2-1.8,2.4c-2,0.6-3.9,1.4-5.3,3.1c-0.2,0.3-0.7,0.3-1,0.5c-0.2-0.4-0.4-0.7-0.4-1.1
	c-0.1-0.4,0-0.8,0.2-1.2c0.1-0.4-0.1-1.3,0.9-0.7c0.2,0.1,0.7-0.4,1-0.6c1.8-1.2,3.7-2.3,5.5-3.4C70.4,47.6,71,48.3,71.3,48.6z"/>
<path class="st0" d="M36.9,76.3c-1.4-0.7-2.7-1.4-4.1-2.1c-0.4-0.2-0.7-0.5-1-0.8c0.6-0.4,1.2-1.2,1.7-1.1c2.4,0.5,4.6,1.5,6.5,3.1
	c0.9,0.7,0,1.4-0.4,2c-0.1,0.2-0.8,0.2-1.2,0c-0.6-0.2-1.1-0.6-1.6-1C36.8,76.4,36.8,76.4,36.9,76.3z"/>
<path class="st0" d="M91.8,67.2c1.6,0.1,3.1,0.2,4.7,0.3c0.9,0.1,1.6,1.4,1.1,2.2C97.5,70,97.1,70,96.8,70c-2-0.1-4.1-0.2-6.1-0.3
	c-0.5,0-1.2,0-1.3-0.3c-0.3-0.5-0.3-1.2-0.3-1.9c0-0.1,0.5-0.3,0.8-0.3C90.5,67.2,91.2,67.2,91.8,67.2
	C91.8,67.2,91.8,67.2,91.8,67.2z"/>
<path class="st0" d="M30.1,68.7c1.6,0.1,3.1,0.2,4.7,0.3c0.9,0.1,1.6,1.4,1.1,2.2c-0.1,0.2-0.5,0.2-0.8,0.2c-2-0.1-4.1-0.2-6.1-0.3
	c-0.5,0-1.2,0-1.3-0.3c-0.3-0.5-0.3-1.2-0.3-1.9c0-0.1,0.5-0.3,0.8-0.3C28.8,68.6,29.5,68.6,30.1,68.7
	C30.1,68.6,30.1,68.6,30.1,68.7z"/>
<path class="st0" d="M66.9,90.2c0.2-1.5,0.4-1.5,1.6-1c1.9,0.8,3.9,1.4,5.8,2c1.3,0.4,1.9,1.8,1.2,3c-0.1,0.1-0.5,0.1-0.6,0
	c-0.4-0.3-0.8-0.8-1.3-0.9c-1.9-0.6-3.9-1-5.8-1.7C67.4,91.4,67.2,90.6,66.9,90.2z"/>
<path class="st0" d="M96.9,37.1c-1.8,0.8-3.5,1.5-5.3,2.2c-1.1,0.4-2.2-0.2-2.5-1.3c-0.2-0.6,0-0.9,0.7-1c1.9-0.3,3.9-0.6,5.8-1
	c0.3,0,0.5-0.2,0.8-0.2c0.4-0.1,0.9-0.1,1.4-0.1c-0.2,0.4-0.5,0.8-0.7,1.2C97,37,96.9,37,96.9,37.1z"/>
<path class="st0" d="M105.1,71.2c-1.9-0.2-3.8-0.3-5.7-0.5c-1.1-0.1-1.8-1.2-1.6-2.3c0.1-0.6,0.4-0.8,1.1-0.5
	c1.8,0.7,3.7,1.3,5.6,1.9c0.3,0.1,0.6,0.1,0.8,0.2c0.4,0.2,0.8,0.3,1.3,0.5c-0.4,0.2-0.8,0.5-1.2,0.7
	C105.3,71.2,105.2,71.2,105.1,71.2z"/>
<path class="st0" d="M49.7,71.7c-1.9-0.2-3.8-0.3-5.7-0.5c-1.1-0.1-1.8-1.2-1.6-2.3c0.1-0.6,0.4-0.8,1.1-0.5
	c1.8,0.7,3.7,1.3,5.6,1.9c0.3,0.1,0.6,0.1,0.8,0.2c0.4,0.2,0.8,0.3,1.3,0.5c-0.4,0.2-0.8,0.5-1.2,0.7C49.8,71.8,49.7,71.7,49.7,71.7
	z"/>
<path class="st0" d="M46.7,79.3c-1.9-0.2-3.8-0.3-5.7-0.5c-1.1-0.1-1.8-1.2-1.6-2.3c0.1-0.6,0.4-0.8,1.1-0.5
	c1.8,0.7,3.7,1.3,5.6,1.9c0.3,0.1,0.6,0.1,0.8,0.2c0.4,0.2,0.8,0.3,1.3,0.5c-0.4,0.2-0.8,0.5-1.2,0.7C46.8,79.3,46.7,79.3,46.7,79.3
	z"/>
<path class="st0" d="M36.1,65.5c0.1-0.9-0.3-2.2,1.3-2.2c0.1,0,0.3-0.3,0.4-0.4c0.4-0.4,0.7-1,1.1-1.1c1.1-0.2,2.3-0.2,3.4-0.2
	c0.1,0,0.2,0.1,0.3,0.2c-0.1,0.1-0.3,0.3-0.4,0.4c-1.3,0.8-2.6,1.5-3.8,2.4c-0.7,0.5-1.1,1.4-1.6,2.2c-0.1,0.2-0.2,0.3-0.3,0.5
	c-0.1-0.2-0.2-0.3-0.3-0.5C36.1,66.3,36.1,65.9,36.1,65.5z"/>
<path class="st0" d="M85.1,40.4c0,0.3,0,0.3,0,0.3c-0.2,2.1-3.7,5.1-6.5,4.7c-0.2,0,5.9-6.2,6-6.3c0.1,0.1,0.2,0.2,0.3,0.4
	C85,39.8,85.1,40.2,85.1,40.4z"/>
<path class="st0" d="M65.5,89.2c-0.2,0.1-0.4,0.4-0.7,0.6c-0.2-0.3-0.4-0.5-0.4-0.8c-0.4-1.8-2.1-2.4-3.2-3.5
	c-0.5-0.5-1.1-0.8-1.7-1.2c0.7,0.2,1.5,0.3,2.2,0.6c1.2,0.6,2.3,1.3,3.5,1.9C66.3,87.3,65.9,88.2,65.5,89.2z"/>
<path class="st0" d="M101.4,106.2c-0.5,0.7-0.6,1.3-1.6,0.7c-1.8-1.2-3.9-2.1-5.8-3.2c-0.3-0.1-0.5-0.4-0.7-0.6
	c0.3,0-1.9-2.9-1.6-2.9c2.1,0.8,6.7,4.4,8.8,5.2C100.9,105.5,101.2,105.9,101.4,106.2z"/>
<path class="st0" d="M90.7,70.2c-0.2,0.9-0.1,1.4-1.2,1.2c-2.2-0.4-4.4-0.5-6.6-0.7c-0.3,0-0.6-0.2-0.9-0.3c0.3-0.1-2.9-2-2.6-2
	c2.3-0.1,7.9,1.4,10.1,1.4C90,69.8,90.4,70.1,90.7,70.2z"/>
<path class="st0" d="M59.6,85.9c0.2,0.3,0.4,0.5,0.5,0.8c0,0.1-0.3,0.5-0.4,0.5c-1-0.1-2-0.2-3-0.5c-0.6-0.2-1-0.8-1.6-1.2
	c0.3-0.3,0.6-0.7,1-1c0.1-0.1,0.2-0.2,0.3-0.2c1.1,0.4,2.2,0.9,3.2,1.4C59.6,85.8,59.6,85.8,59.6,85.9z"/>
<path class="st0" d="M78.7,95.8c0.1,0.3,0.3,0.6,0.3,0.9c0,0.1-0.4,0.4-0.5,0.3c-0.9-0.4-1.9-0.7-2.7-1.3c-0.5-0.4-0.8-1.1-1.2-1.6
	c0.4-0.2,0.8-0.5,1.2-0.7c0.1-0.1,0.3-0.1,0.4-0.1c0.9,0.7,1.8,1.5,2.7,2.2C78.8,95.7,78.7,95.7,78.7,95.8z"/>
<path d="M101,33.7c-0.1,1.7-1.6,2.7-3.2,2c-0.1,0,0.7-1.7,0.8-1.7c1.2-0.7,1.4-0.4,1.6-1.9c0,0,0.4,0,0.4,0
	C100.8,32.6,100.9,33.2,101,33.7z"/>
<path d="M101.4,33.5c0.1-2.1,3.3-1.8,3.2-1.8c-1.2,0.6-2.1,1.5-2.6,2.8c0,0.1-0.2,0.2-0.2,0.2c-0.1-0.1-0.3-0.2-0.3-0.3
	C101.5,34.1,101.4,33.6,101.4,33.5z"/>
<path class="st0" d="M78.6,70.4c0.1-2.1,3.3-1.8,3.2-1.8c-1.2,0.6-2.1,1.5-2.6,2.8c0,0.1-0.2,0.2-0.2,0.2c-0.1-0.1-0.3-0.2-0.3-0.3
	C78.6,71,78.6,70.6,78.6,70.4z"/>
<path class="st0" d="M62.6,68.9c1.7-1.2,3.5,1.4,3.4,1.4c-1.2-0.5-2.5-0.8-3.8-0.3c-0.1,0-0.2,0-0.3,0c0-0.1,0-0.3,0.1-0.4
	C62.2,69.3,62.5,69,62.6,68.9z"/>
<path class="st0" d="M55.9,69.6c1.7-1.2,3.5,1.4,3.4,1.4c-1.2-0.5-2.5-0.8-3.8-0.3c-0.1,0-0.2,0-0.3,0c0-0.1,0-0.3,0.1-0.4
	C55.5,70,55.8,69.7,55.9,69.6z"/>
<path class="st0" d="M34.2,71.8c1.7-1.2,3.5,1.4,3.4,1.4c-1.2-0.5-2.5-0.8-3.8-0.3c-0.1,0-0.2,0-0.3,0c0-0.1,0-0.3,0.1-0.4
	C33.8,72.1,34.1,71.9,34.2,71.8z"/>
<path class="st0" d="M52.6,69.6c0,0.1-0.1,0.4-0.2,0.7c-0.2,0.4-0.4,0.9-0.5,1.3c-0.1-0.4,0.1-0.1-0.1-0.4c-0.2-0.3-2.4,1-2-1.1
	c0.1-0.3,0.2-1,0-1.2c0.2-0.1,0.5-0.2,0.7-0.3c0.3-0.1,0.6-0.2,0.9-0.3C52.4,68.2,52.6,68.4,52.6,69.6z"/>
<path class="st0" d="M73.8,47.7c0,0.1-0.1,0.4-0.2,0.7c-0.2,0.4-0.4,0.9-0.5,1.3c-0.1-0.4,0.1-0.1-0.1-0.4c-0.2-0.3-2.4,1-2-1.1
	c0.1-0.3,0.2-1,0-1.2c0.2-0.1,0.5-0.2,0.7-0.3c0.3-0.1,0.6-0.2,0.9-0.3C73.6,46.4,73.8,46.6,73.8,47.7z"/>
<path class="st0" d="M82.3,96.5c0,0.1-0.1,0.4-0.2,0.7c-0.2,0.4-0.4,0.9-0.5,1.3c-0.1-0.4,0.1-0.1-0.1-0.4c-0.2-0.3-2.4,1-2-1.1
	c0.1-0.3,0.2-1,0-1.2c0.2-0.1,0.5-0.2,0.7-0.3c0.3-0.1,0.6-0.2,0.9-0.3C82.2,95.1,82.4,95.3,82.3,96.5z"/>
<path class="st0" d="M90.1,99.1c-0.1,0.1-0.1,0.2-0.2,0.2c-0.9,0.3-1.8,0.8-2.8,0.9c-0.5,0.1-1-0.5-1.5-0.8c0,0,0-0.3,0.1-0.3
	c1.3-0.6,2.7-0.7,4.1-0.2C89.9,99,90,99.1,90.1,99.1z"/>
<path class="st0" d="M34.9,66.1c-0.1,0.1-0.1,0.2-0.2,0.2c-0.9,0.3-1.8,0.8-2.8,0.9c-0.5,0.1-1-0.5-1.5-0.8c0,0,0-0.3,0.1-0.3
	c1.3-0.6,2.7-0.7,4.1-0.2C34.7,66,34.8,66,34.9,66.1z"/>
<path class="st0" d="M32.4,67.1c0,0.1,0,0.2-0.1,0.3c-0.7,0.7-1.4,1.4-2.2,1.9c-0.4,0.2-1.1,0-1.7-0.1c0,0-0.1-0.2,0-0.3
	c1-1.1,2.2-1.7,3.6-1.8C32.2,67,32.3,67.1,32.4,67.1z"/>
<path class="st0" d="M90.7,40.3c-0.1,0.1-0.1,0.2-0.2,0.2c-0.9,0.3-1.8,0.8-2.8,0.9c-0.5,0.1-1-0.5-1.5-0.8c0,0,0-0.3,0.1-0.3
	c1.3-0.6,2.7-0.7,4.1-0.2C90.5,40.2,90.6,40.3,90.7,40.3z"/>
<path class="st0" d="M54.8,57.4c-0.1,0.1-0.1,0.2-0.2,0.2c-0.9,0.3-1.8,0.8-2.8,0.9c-0.5,0.1-1-0.5-1.5-0.8c0,0,0-0.3,0.1-0.3
	c1.3-0.6,2.7-0.7,4.1-0.2C54.7,57.2,54.7,57.3,54.8,57.4z"/>
<path class="st0" d="M95.7,70.2c-0.1,0.1-0.1,0.2-0.2,0.2c-0.9,0.3-1.8,0.8-2.8,0.9c-0.5,0.1-1-0.5-1.5-0.8c0,0,0-0.3,0.1-0.3
	c1.3-0.6,2.7-0.7,4.1-0.2C95.5,70.1,95.6,70.2,95.7,70.2z"/>
<path class="st0" d="M42.4,69.7c-0.1,0.1-0.1,0.2-0.2,0.2c-0.9,0.3-1.8,0.8-2.8,0.9c-0.5,0.1-1-0.5-1.5-0.8c0,0,0-0.3,0.1-0.3
	c1.3-0.6,2.7-0.7,4.1-0.2C42.2,69.5,42.3,69.6,42.4,69.7z"/>
<path class="st0" d="M89.3,102.3c-1.4-0.3-2.9-1.2-4.3-1.6c-0.2,0-0.4-0.3-0.6-0.5c0.2,0,0.5-0.1,0.7-0.1c2.3,0.4,4.5,0.7,6.8,1.1
	c0.3,0,0.5,0.1,0.7,0.2c0.1,0,0,0.5-0.1,0.5c-0.2,0.1-0.5,0.1-0.7,0.1c-0.8-0.2-0.3,0.6-1.2,0.4C90.6,102.6,89.3,102.3,89.3,102.3z"
	/>
<path d="M103,105.5c0.7,0.2,1.1,0.2,1.5,0.4c0.1,0,0.1,0.4,0.1,0.6c-0.9,0.1-1,0.7-1.1,1.5c0,0.2-0.2,0.3-0.3,0.4
	c-0.1-0.1-0.2-0.3-0.2-0.4c-0.1-0.6-0.3-1.1-0.4-1.7C102.7,106.1,102.9,105.8,103,105.5z"/>
<path class="st0" d="M84.4,97.1c0.7,0.2,1.1,0.2,1.5,0.4c0.1,0,0.1,0.4,0.1,0.6c-0.9,0.1-1,0.7-1.1,1.5c0,0.2-0.2,0.3-0.3,0.4
	c-0.1-0.1-0.2-0.3-0.2-0.4c-0.1-0.6-0.3-1.1-0.4-1.7C84.1,97.6,84.3,97.3,84.4,97.1z"/>
<path class="st0" d="M104.8,67.1c0.1,0.2,0.3,0.5,0.3,0.7c0,0.1-0.4,0.4-0.5,0.4c-0.5-0.1-1-0.3-1.5-0.5
	C103.6,67.6,104.1,67.4,104.8,67.1z"/>
<path class="st0" d="M67.7,69.4c0.1,0.2,0.3,0.5,0.3,0.7c0,0.1-0.4,0.4-0.5,0.4c-0.5-0.1-1-0.3-1.5-0.5C66.5,69.9,67,69.7,67.7,69.4
	z"/>
<path class="st0" d="M62.2,70.5c0.1,0.2,0.3,0.5,0.3,0.7c0,0.1-0.4,0.4-0.5,0.4c-0.5-0.1-1-0.3-1.5-0.5C61,70.9,61.5,70.7,62.2,70.5
	z"/>
<path class="st0" d="M60.8,54.1c0.1,0.2,0.3,0.5,0.3,0.7c0,0.1-0.4,0.4-0.5,0.4c-0.5-0.1-1-0.3-1.5-0.5
	C59.6,54.5,60.1,54.3,60.8,54.1z"/>
<path class="st0" d="M76.5,45.9c0.1,0.2,0.3,0.5,0.3,0.7c0,0.1-0.4,0.4-0.5,0.4c-0.5-0.1-1-0.3-1.5-0.5
	C75.3,46.3,75.8,46.2,76.5,45.9z"/>
<path class="st0" d="M56.9,56.5c0.1,0.2,0.3,0.5,0.3,0.7c0,0.1-0.4,0.4-0.5,0.4c-0.5-0.1-1-0.3-1.5-0.5C55.7,57,56.2,56.8,56.9,56.5
	z"/>
<path class="st0" d="M34.1,67.1c0.1,0.2,0.3,0.5,0.3,0.7c0,0.1-0.4,0.4-0.5,0.4c-0.5-0.1-1-0.3-1.5-0.5
	C32.9,67.6,33.4,67.4,34.1,67.1z"/>
<path class="st0" d="M61.2,51.8c0.1,0.2,0.3,0.5,0.3,0.7c0,0.1-0.4,0.4-0.5,0.4c-0.5-0.1-1-0.3-1.5-0.5C60,52.3,60.5,52.1,61.2,51.8
	z"/>
<path class="st0" d="M80.9,70.2c0.1,0.2,0.3,0.5,0.3,0.7c0,0.1-0.4,0.4-0.5,0.4c-0.5-0.1-1-0.3-1.5-0.5
	C79.7,70.6,80.2,70.5,80.9,70.2z"/>
<path d="M104.8,32.7c0.1,0.2,0.3,0.5,0.3,0.7c0,0.1-0.4,0.4-0.5,0.4c-0.5-0.1-1-0.3-1.5-0.5C103.6,33.1,104.1,32.9,104.8,32.7z"/>
<path class="st0" d="M61.2,87c0.1,0.2,0.3,0.5,0.3,0.7c0,0.1-0.4,0.4-0.5,0.4c-0.5-0.1-1-0.3-1.5-0.5C60,87.5,60.5,87.3,61.2,87z"/>
<path class="st0" d="M41.1,63.6c0.1,0.2,0.3,0.5,0.3,0.7c0,0.1-0.4,0.4-0.5,0.4c-0.5-0.1-1-0.3-1.5-0.5C39.9,64,40.4,63.8,41.1,63.6
	z"/>
<path class="st0" d="M50.9,57.7c0.4,0.6,0.6,1,0.8,1.4c0,0.1-0.5,0.5-0.7,0.4c-0.2-0.1-0.5-0.4-0.5-0.7
	C50.5,58.5,50.7,58.2,50.9,57.7z"/>
<path d="M102.8,107.1c0.4,0.6,0.6,1,0.8,1.4c0,0.1-0.5,0.5-0.7,0.4c-0.2-0.1-0.5-0.4-0.5-0.7C102.4,107.9,102.6,107.6,102.8,107.1z"
	/>
<path class="st0" d="M88.3,97.6c0.4,0.6,0.6,1,0.8,1.4c0,0.1-0.5,0.5-0.7,0.4c-0.2-0.1-0.5-0.4-0.5-0.7
	C87.9,98.4,88.1,98.1,88.3,97.6z"/>
<path class="st0" d="M47.9,68.3c0.4,0.6,0.6,1,0.8,1.4c0,0.1-0.5,0.5-0.7,0.4c-0.2-0.1-0.5-0.4-0.5-0.7
	C47.5,69.1,47.7,68.8,47.9,68.3z"/>
</svg>
